  0
SECTION
  2
HEADER
  9
$ANGBASE
  50
0.0
  9
$ANGDIR
  70
1
  9
$MEASUREMENT
  70
0
  0
ENDSEC
  0
SECTION
  2
TABLES
  0
TABLE
  2
LTYPE
  70
4
  0
LTYPE
  5
40F
  2
CONTINUOUS
  70
0
  3
Solid line
  72
65
  73
0
  40
0.0
  0
LTYPE
  5
410
  2
DASHDOT
 70
0
  3
Dash Dot ____ _ ____ _
 72
65
 73
4
 40
2.0
 49
1.25
 49
-0.25
 49
0.25
 49
-0.25
  0
LTYPE
  5
411
  2
DASHED
 70
0
  3
Dashed __ __ __ __ __
 72
65
 73
2
 40
0.75
 49
0.5
 49
-0.25
  0
LTYPE
  5
43B
  2
DOTTED
 70
0
  3
Dotted .  .  .  .
 72
65
 73
2
 40
0.2
 49
0.0
 49
-0.2
  0
ENDTAB
  0
TABLE
  2
STYLE
  70
4
  0
STYLE
  2
KICAD
  70
0
  40
0
  41
1
  42
1
  50
0
  71
0
  3
isocp.shx
  0
STYLE
  2
KICADB
  70
0
  40
0
  41
1
  42
1
  50
0
  71
0
  3
isocp.shx
  0
STYLE
  2
KICADI
  70
0
  40
0
  41
1
  42
1
  50
15
  71
0
  3
isocp.shx
  0
STYLE
  2
KICADBI
  70
0
  40
0
  41
1
  42
1
  50
15
  71
0
  3
isocp.shx
  0
ENDTAB
  0
TABLE
  2
LAYER
  70
1
  0
LAYER
  2
BLACK
  70
0
  62
7
  6
CONTINUOUS
  0
ENDTAB
  0
ENDSEC
  0
SECTION
  2
ENTITIES
0
LINE
8
BLACK
6
CONTINUOUS
10
0.8226379527559055
20
0.0732818110236221
11
0.8320339763779527
21
0.0725776771653543
0
LINE
8
BLACK
6
CONTINUOUS
10
0.8320339763779527
20
0.0725776771653543
11
0.8412205511811024
21
0.0704809448818898
0
LINE
8
BLACK
6
CONTINUOUS
10
0.8412205511811024
20
0.0704809448818898
11
0.8499920472440945
21
0.0670384251968504
0
LINE
8
BLACK
6
CONTINUOUS
10
0.8499920472440945
20
0.0670384251968504
11
0.8581524803149606
21
0.0623270472440945
0
LINE
8
BLACK
6
CONTINUOUS
10
0.8581524803149606
20
0.0623270472440945
11
0.8655195669291338
21
0.0564520078740157
0
LINE
8
BLACK
6
CONTINUOUS
10
0.8655195669291338
20
0.0564520078740157
11
0.8719287401574803
21
0.0495446062992126
0
LINE
8
BLACK
6
CONTINUOUS
10
0.8719287401574803
20
0.0495446062992126
11
0.8772368110236221
21
0.041759094488189
0
LINE
8
BLACK
6
CONTINUOUS
10
0.8772368110236221
20
0.041759094488189
11
0.8813252362204724
21
0.0332694488188976
0
LINE
8
BLACK
6
CONTINUOUS
10
0.8813252362204724
20
0.0332694488188976
11
0.8841026771653543
21
0.0242652362204724
0
LINE
8
BLACK
6
CONTINUOUS
10
0.8841026771653543
20
0.0242652362204724
11
0.8855070866141732
21
0.0149476377952756
0
LINE
8
BLACK
6
CONTINUOUS
10
0.8855070866141732
20
0.0149476377952756
11
0.8855070866141732
21
0.0055248031496063
0
LINE
8
BLACK
6
CONTINUOUS
10
0.8855070866141732
20
0.0055248031496063
11
0.8841026771653543
21
-0.0037927952755906
0
LINE
8
BLACK
6
CONTINUOUS
10
0.8841026771653543
20
-0.0037927952755906
11
0.8813252362204724
21
-0.0127970078740157
0
LINE
8
BLACK
6
CONTINUOUS
10
0.8813252362204724
20
-0.0127970078740157
11
0.8772368110236221
21
-0.0212866535433071
0
LINE
8
BLACK
6
CONTINUOUS
10
0.8772368110236221
20
-0.0212866535433071
11
0.8719287401574803
21
-0.0290721653543307
0
LINE
8
BLACK
6
CONTINUOUS
10
0.8719287401574803
20
-0.0290721653543307
11
0.8655195669291338
21
-0.0359795669291339
0
LINE
8
BLACK
6
CONTINUOUS
10
0.8655195669291338
20
-0.0359795669291339
11
0.8581524803149606
21
-0.0418546062992126
0
LINE
8
BLACK
6
CONTINUOUS
10
0.8581524803149606
20
-0.0418546062992126
11
0.8499920472440945
21
-0.0465659842519685
0
LINE
8
BLACK
6
CONTINUOUS
10
0.8499920472440945
20
-0.0465659842519685
11
0.8412205511811024
21
-0.0500085039370079
0
LINE
8
BLACK
6
CONTINUOUS
10
0.8412205511811024
20
-0.0500085039370079
11
0.8320339763779527
21
-0.0521052362204724
0
LINE
8
BLACK
6
CONTINUOUS
10
0.8320339763779527
20
-0.0521052362204724
11
0.8226374803149606
21
-0.0528093700787402
0
LINE
8
BLACK
6
CONTINUOUS
10
0.8226374803149606
20
-0.0528093700787402
11
0.3791338582677165
21
-0.0528093700787402
0
LINE
8
BLACK
6
CONTINUOUS
10
0.3791338582677165
20
-0.0528093700787402
11
0.3697374015748031
21
-0.0521051968503937
0
LINE
8
BLACK
6
CONTINUOUS
10
0.3697374015748031
20
-0.0521051968503937
11
0.3605508267716535
21
-0.0500084251968504
0
LINE
8
BLACK
6
CONTINUOUS
10
0.3605508267716535
20
-0.0500084251968504
11
0.3517794094488189
21
-0.046565905511811
0
LINE
8
BLACK
6
CONTINUOUS
10
0.3517794094488189
20
-0.046565905511811
11
0.3436190157480315
21
-0.0418544881889764
0
LINE
8
BLACK
6
CONTINUOUS
10
0.3436190157480315
20
-0.0418544881889764
11
0.336251968503937
21
-0.0359794488188976
0
LINE
8
BLACK
6
CONTINUOUS
10
0.336251968503937
20
-0.0359794488188976
11
0.3298428346456693
21
-0.0290720472440945
0
LINE
8
BLACK
6
CONTINUOUS
10
0.3298428346456693
20
-0.0290720472440945
11
0.3245347637795276
21
-0.0212865748031496
0
LINE
8
BLACK
6
CONTINUOUS
10
0.3245347637795276
20
-0.0212865748031496
11
0.3204463779527559
21
-0.0127969291338583
0
LINE
8
BLACK
6
CONTINUOUS
10
0.3204463779527559
20
-0.0127969291338583
11
0.317668937007874
21
-0.0037927559055118
0
LINE
8
BLACK
6
CONTINUOUS
10
0.317668937007874
20
-0.0037927559055118
11
0.3162645669291339
21
0.0055248031496063
0
LINE
8
BLACK
6
CONTINUOUS
10
0.3162645669291339
20
0.0055248031496063
11
0.3162645669291339
21
0.0149476377952756
0
LINE
8
BLACK
6
CONTINUOUS
10
0.3162645669291339
20
0.0149476377952756
11
0.317668937007874
21
0.0242651968503937
0
LINE
8
BLACK
6
CONTINUOUS
10
0.317668937007874
20
0.0242651968503937
11
0.3204463779527559
21
0.0332693700787402
0
LINE
8
BLACK
6
CONTINUOUS
10
0.3204463779527559
20
0.0332693700787402
11
0.3245347637795276
21
0.0417590157480315
0
LINE
8
BLACK
6
CONTINUOUS
10
0.3245347637795276
20
0.0417590157480315
11
0.3298428346456693
21
0.0495444881889764
0
LINE
8
BLACK
6
CONTINUOUS
10
0.3298428346456693
20
0.0495444881889764
11
0.336251968503937
21
0.0564518897637795
0
LINE
8
BLACK
6
CONTINUOUS
10
0.336251968503937
20
0.0564518897637795
11
0.3436190157480315
21
0.0623269291338583
0
LINE
8
BLACK
6
CONTINUOUS
10
0.3436190157480315
20
0.0623269291338583
11
0.3517794094488189
21
0.0670383464566929
0
LINE
8
BLACK
6
CONTINUOUS
10
0.3517794094488189
20
0.0670383464566929
11
0.3605508267716535
21
0.0704808661417323
0
LINE
8
BLACK
6
CONTINUOUS
10
0.3605508267716535
20
0.0704808661417323
11
0.3697374015748031
21
0.0725776377952756
0
LINE
8
BLACK
6
CONTINUOUS
10
0.3697374015748031
20
0.0725776377952756
11
0.3791338582677165
21
0.0732818110236221
0
LINE
8
BLACK
6
CONTINUOUS
10
0.3791338582677165
20
0.0732818110236221
11
0.8226377952755906
21
0.0732818110236221
0
LINE
8
BLACK
6
CONTINUOUS
10
0.8226377952755906
20
0.0732818110236221
11
0.8226379527559055
21
0.0732818110236221
0
LINE
8
BLACK
6
CONTINUOUS
10
0.8226377952755906
20
0.0727818503937008
11
0.8226377952755906
21
0.0727818110236221
0
LINE
8
BLACK
6
CONTINUOUS
10
0.8226377952755906
20
0.0727818110236221
11
0.8226374803149606
21
0.0727818110236221
0
LINE
8
BLACK
6
CONTINUOUS
10
0.8226374803149606
20
0.0727818110236221
11
0.3791338582677165
21
0.0727818110236221
0
LINE
8
BLACK
6
CONTINUOUS
10
0.3791338582677165
20
0.0727818110236221
11
0.3744467322834645
21
0.0727818110236221
0
LINE
8
BLACK
6
CONTINUOUS
10
0.3744467322834645
20
0.0727818110236221
11
0.3651771259842519
21
0.0713846456692913
0
LINE
8
BLACK
6
CONTINUOUS
10
0.3651771259842519
20
0.0713846456692913
11
0.3562192913385827
21
0.0686215354330709
0
LINE
8
BLACK
6
CONTINUOUS
10
0.3562192913385827
20
0.0686215354330709
11
0.3477733858267716
21
0.0645541732283465
0
LINE
8
BLACK
6
CONTINUOUS
10
0.3477733858267716
20
0.0645541732283465
11
0.3400279527559055
21
0.0592734645669291
0
LINE
8
BLACK
6
CONTINUOUS
10
0.3400279527559055
20
0.0592734645669291
11
0.3331561417322835
21
0.0528973228346457
0
LINE
8
BLACK
6
CONTINUOUS
10
0.3331561417322835
20
0.0528973228346457
11
0.3273113385826771
21
0.0455682283464567
0
LINE
8
BLACK
6
CONTINUOUS
10
0.3273113385826771
20
0.0455682283464567
11
0.3226242125984252
21
0.037449842519685
0
LINE
8
BLACK
6
CONTINUOUS
10
0.3226242125984252
20
0.037449842519685
11
0.3191994094488189
21
0.0287235433070866
0
LINE
8
BLACK
6
CONTINUOUS
10
0.3191994094488189
20
0.0287235433070866
11
0.3171134251968504
21
0.0195842913385827
0
LINE
8
BLACK
6
CONTINUOUS
10
0.3171134251968504
20
0.0195842913385827
11
0.316412874015748
21
0.0102362204724409
0
LINE
8
BLACK
6
CONTINUOUS
10
0.316412874015748
20
0.0102362204724409
11
0.3171134251968504
21
0.0008881496062992
0
LINE
8
BLACK
6
CONTINUOUS
10
0.3171134251968504
20
0.0008881496062992
11
0.3191994094488189
21
-0.0082511023622047
0
LINE
8
BLACK
6
CONTINUOUS
10
0.3191994094488189
20
-0.0082511023622047
11
0.3226242125984252
21
-0.0169774015748031
0
LINE
8
BLACK
6
CONTINUOUS
10
0.3226242125984252
20
-0.0169774015748031
11
0.3273113385826771
21
-0.0250957874015748
0
LINE
8
BLACK
6
CONTINUOUS
10
0.3273113385826771
20
-0.0250957874015748
11
0.3331561417322835
21
-0.0324248818897638
0
LINE
8
BLACK
6
CONTINUOUS
10
0.3331561417322835
20
-0.0324248818897638
11
0.3400279527559055
21
-0.0388010236220472
0
LINE
8
BLACK
6
CONTINUOUS
10
0.3400279527559055
20
-0.0388010236220472
11
0.3477733858267716
21
-0.0440817322834646
0
LINE
8
BLACK
6
CONTINUOUS
10
0.3477733858267716
20
-0.0440817322834646
11
0.3562192913385827
21
-0.048149094488189
0
LINE
8
BLACK
6
CONTINUOUS
10
0.3562192913385827
20
-0.048149094488189
11
0.3651771259842519
21
-0.0509122047244094
0
LINE
8
BLACK
6
CONTINUOUS
10
0.3651771259842519
20
-0.0509122047244094
11
0.3744467322834645
21
-0.0523093700787402
0
LINE
8
BLACK
6
CONTINUOUS
10
0.3744467322834645
20
-0.0523093700787402
11
0.3791338582677165
21
-0.0523093700787402
0
LINE
8
BLACK
6
CONTINUOUS
10
0.3791338582677165
20
-0.0523093700787402
11
0.8226374803149606
21
-0.0523093700787402
0
LINE
8
BLACK
6
CONTINUOUS
10
0.8226374803149606
20
-0.0523093700787402
11
0.8273246456692913
21
-0.0523094094488189
0
LINE
8
BLACK
6
CONTINUOUS
10
0.8273246456692913
20
-0.0523094094488189
11
0.8365942519685039
21
-0.0509122834645669
0
LINE
8
BLACK
6
CONTINUOUS
10
0.8365942519685039
20
-0.0509122834645669
11
0.845552125984252
21
-0.0481491732283465
0
LINE
8
BLACK
6
CONTINUOUS
10
0.845552125984252
20
-0.0481491732283465
11
0.8539981102362204
21
-0.0440818503937008
0
LINE
8
BLACK
6
CONTINUOUS
10
0.8539981102362204
20
-0.0440818503937008
11
0.8617435433070866
21
-0.0388011417322835
0
LINE
8
BLACK
6
CONTINUOUS
10
0.8617435433070866
20
-0.0388011417322835
11
0.8686154330708661
21
-0.032425
0
LINE
8
BLACK
6
CONTINUOUS
10
0.8686154330708661
20
-0.032425
11
0.8744602362204724
21
-0.0250958661417323
0
LINE
8
BLACK
6
CONTINUOUS
10
0.8744602362204724
20
-0.0250958661417323
11
0.8791474015748031
21
-0.0169774803149606
0
LINE
8
BLACK
6
CONTINUOUS
10
0.8791474015748031
20
-0.0169774803149606
11
0.8825722440944882
21
-0.0082511811023622
0
LINE
8
BLACK
6
CONTINUOUS
10
0.8825722440944882
20
-0.0082511811023622
11
0.8846582283464567
21
0.0008881102362205
0
LINE
8
BLACK
6
CONTINUOUS
10
0.8846582283464567
20
0.0008881102362205
11
0.885358779527559
21
0.0102362204724409
0
LINE
8
BLACK
6
CONTINUOUS
10
0.885358779527559
20
0.0102362204724409
11
0.8846582283464567
21
0.0195843307086614
0
LINE
8
BLACK
6
CONTINUOUS
10
0.8846582283464567
20
0.0195843307086614
11
0.8825722440944882
21
0.0287236220472441
0
LINE
8
BLACK
6
CONTINUOUS
10
0.8825722440944882
20
0.0287236220472441
11
0.8791474015748031
21
0.0374499212598425
0
LINE
8
BLACK
6
CONTINUOUS
10
0.8791474015748031
20
0.0374499212598425
11
0.8744602362204724
21
0.0455683070866142
0
LINE
8
BLACK
6
CONTINUOUS
10
0.8744602362204724
20
0.0455683070866142
11
0.8686154330708661
21
0.0528974409448819
0
LINE
8
BLACK
6
CONTINUOUS
10
0.8686154330708661
20
0.0528974409448819
11
0.8617435433070866
21
0.0592735826771653
0
LINE
8
BLACK
6
CONTINUOUS
10
0.8617435433070866
20
0.0592735826771653
11
0.8539981102362204
21
0.0645542913385827
0
LINE
8
BLACK
6
CONTINUOUS
10
0.8539981102362204
20
0.0645542913385827
11
0.845552125984252
21
0.0686216141732283
0
LINE
8
BLACK
6
CONTINUOUS
10
0.845552125984252
20
0.0686216141732283
11
0.8365942519685039
21
0.0713847244094488
0
LINE
8
BLACK
6
CONTINUOUS
10
0.8365942519685039
20
0.0713847244094488
11
0.8273246456692913
21
0.0727818503937008
0
LINE
8
BLACK
6
CONTINUOUS
10
0.8273246456692913
20
0.0727818503937008
11
0.8226377952755906
21
0.0727818503937008
0
LINE
8
BLACK
6
CONTINUOUS
10
1.4040326771653544
20
2.1677900393700789
11
1.4041679921259842
21
2.1676547244094486
0
LINE
8
BLACK
6
CONTINUOUS
10
1.4041679921259842
20
2.1676547244094486
11
1.4041870078740157
21
2.1675590551181103
0
LINE
8
BLACK
6
CONTINUOUS
10
1.4041870078740157
20
2.1675590551181103
11
1.4041870078740157
21
-0.189763779527559
0
LINE
8
BLACK
6
CONTINUOUS
10
1.4041870078740157
20
-0.189763779527559
11
1.4041679921259842
21
-0.1898594488188976
0
LINE
8
BLACK
6
CONTINUOUS
10
1.4041679921259842
20
-0.1898594488188976
11
1.4040326771653544
21
-0.1899947637795276
0
LINE
8
BLACK
6
CONTINUOUS
10
1.4040326771653544
20
-0.1899947637795276
11
1.4039370078740157
21
-0.190013779527559
0
LINE
8
BLACK
6
CONTINUOUS
10
1.4039370078740157
20
-0.190013779527559
11
-0.19
21
-0.190013779527559
0
LINE
8
BLACK
6
CONTINUOUS
10
-0.19
20
-0.190013779527559
11
-0.1900956692913386
21
-0.1899947637795276
0
LINE
8
BLACK
6
CONTINUOUS
10
-0.1900956692913386
20
-0.1899947637795276
11
-0.1902309842519685
21
-0.1898594488188976
0
LINE
8
BLACK
6
CONTINUOUS
10
-0.1902309842519685
20
-0.1898594488188976
11
-0.19025
21
-0.189763779527559
0
LINE
8
BLACK
6
CONTINUOUS
10
-0.19025
20
-0.189763779527559
11
-0.19025
21
2.1675590551181103
0
LINE
8
BLACK
6
CONTINUOUS
10
-0.19025
20
2.1675590551181103
11
-0.1902309842519685
21
2.1676547244094486
0
LINE
8
BLACK
6
CONTINUOUS
10
-0.1902309842519685
20
2.1676547244094486
11
-0.1900956692913386
21
2.1677900393700789
0
LINE
8
BLACK
6
CONTINUOUS
10
-0.1900956692913386
20
2.1677900393700789
11
-0.19
21
2.1678090551181102
0
LINE
8
BLACK
6
CONTINUOUS
10
-0.19
20
2.1678090551181102
11
1.4039370078740157
21
2.1678090551181102
0
LINE
8
BLACK
6
CONTINUOUS
10
1.4039370078740157
20
2.1678090551181102
11
1.4040326771653544
21
2.1677900393700789
0
LINE
8
BLACK
6
CONTINUOUS
10
-0.18975
20
2.16730905511811
11
-0.18975
21
-0.189513779527559
0
LINE
8
BLACK
6
CONTINUOUS
10
-0.18975
20
-0.189513779527559
11
1.4036870078740158
21
-0.189513779527559
0
LINE
8
BLACK
6
CONTINUOUS
10
1.4036870078740158
20
-0.189513779527559
11
1.4036870078740158
21
2.16730905511811
0
LINE
8
BLACK
6
CONTINUOUS
10
1.4036870078740158
20
2.16730905511811
11
-0.18975
21
2.16730905511811
0
CIRCLE
8
BLACK
10
0.
20
1.9775590551181101
40
0.0068897637795276
0
CIRCLE
8
BLACK
10
1.2
20
0.0031496062992126
40
0.0068897637795276
0
CIRCLE
8
BLACK
10
0.
20
0.0031496062992126
40
0.0068897637795276
0
CIRCLE
8
BLACK
10
1.2
20
1.9775590551181101
40
0.0068897637795276
0
CIRCLE
8
BLACK
10
0.889763779527559
20
2.0283464566929132
40
0.0068897637795276
0
CIRCLE
8
BLACK
10
0.889763779527559
20
1.9283464566929134
40
0.0068897637795276
0
CIRCLE
8
BLACK
10
0.7897637795275591
20
2.0283464566929132
40
0.0068897637795276
0
CIRCLE
8
BLACK
10
0.7897637795275591
20
1.9283464566929134
40
0.0068897637795276
0
CIRCLE
8
BLACK
10
0.6897637795275591
20
2.0283464566929132
40
0.0068897637795276
0
CIRCLE
8
BLACK
10
0.6897637795275591
20
1.9283464566929134
40
0.0068897637795276
0
CIRCLE
8
BLACK
10
0.5897637795275591
20
2.0283464566929132
40
0.0068897637795276
0
CIRCLE
8
BLACK
10
0.5897637795275591
20
1.9283464566929134
40
0.0068897637795276
0
CIRCLE
8
BLACK
10
0.4897637795275591
20
2.0283464566929132
40
0.0068897637795276
0
CIRCLE
8
BLACK
10
0.4897637795275591
20
1.9283464566929134
40
0.0068897637795276
0
CIRCLE
8
BLACK
10
0.389763779527559
20
2.0283464566929132
40
0.0068897637795276
0
CIRCLE
8
BLACK
10
0.389763779527559
20
1.9283464566929134
40
0.0068897637795276
0
CIRCLE
8
BLACK
10
0.2897637795275591
20
2.0283464566929132
40
0.0068897637795276
0
CIRCLE
8
BLACK
10
0.2897637795275591
20
1.9283464566929134
40
0.0068897637795276
0
CIRCLE
8
BLACK
10
0.
20
1.9775590551181101
40
0.0068897637795276
0
CIRCLE
8
BLACK
10
1.2
20
0.0031496062992126
40
0.0068897637795276
0
CIRCLE
8
BLACK
10
0.
20
0.0031496062992126
40
0.0068897637795276
0
CIRCLE
8
BLACK
10
1.2
20
1.9775590551181101
40
0.0068897637795276
0
CIRCLE
8
BLACK
10
0.889763779527559
20
2.0283464566929132
40
0.0068897637795276
0
CIRCLE
8
BLACK
10
0.889763779527559
20
1.9283464566929134
40
0.0068897637795276
0
CIRCLE
8
BLACK
10
0.7897637795275591
20
2.0283464566929132
40
0.0068897637795276
0
CIRCLE
8
BLACK
10
0.7897637795275591
20
1.9283464566929134
40
0.0068897637795276
0
CIRCLE
8
BLACK
10
0.6897637795275591
20
2.0283464566929132
40
0.0068897637795276
0
CIRCLE
8
BLACK
10
0.6897637795275591
20
1.9283464566929134
40
0.0068897637795276
0
CIRCLE
8
BLACK
10
0.5897637795275591
20
2.0283464566929132
40
0.0068897637795276
0
CIRCLE
8
BLACK
10
0.5897637795275591
20
1.9283464566929134
40
0.0068897637795276
0
CIRCLE
8
BLACK
10
0.4897637795275591
20
2.0283464566929132
40
0.0068897637795276
0
CIRCLE
8
BLACK
10
0.4897637795275591
20
1.9283464566929134
40
0.0068897637795276
0
CIRCLE
8
BLACK
10
0.389763779527559
20
2.0283464566929132
40
0.0068897637795276
0
CIRCLE
8
BLACK
10
0.389763779527559
20
1.9283464566929134
40
0.0068897637795276
0
CIRCLE
8
BLACK
10
0.2897637795275591
20
2.0283464566929132
40
0.0068897637795276
0
CIRCLE
8
BLACK
10
0.2897637795275591
20
1.9283464566929134
40
0.0068897637795276
  0
ENDSEC
  0
EOF
