  0
SECTION
  2
HEADER
  9
$ANGBASE
  50
0.0
  9
$ANGDIR
  70
1
  9
$MEASUREMENT
  70
0
  0
ENDSEC
  0
SECTION
  2
TABLES
  0
TABLE
  2
LTYPE
  70
4
  0
LTYPE
  5
40F
  2
CONTINUOUS
  70
0
  3
Solid line
  72
65
  73
0
  40
0.0
  0
LTYPE
  5
410
  2
DASHDOT
 70
0
  3
Dash Dot ____ _ ____ _
 72
65
 73
4
 40
2.0
 49
1.25
 49
-0.25
 49
0.25
 49
-0.25
  0
LTYPE
  5
411
  2
DASHED
 70
0
  3
Dashed __ __ __ __ __
 72
65
 73
2
 40
0.75
 49
0.5
 49
-0.25
  0
LTYPE
  5
43B
  2
DOTTED
 70
0
  3
Dotted .  .  .  .
 72
65
 73
2
 40
0.2
 49
0.0
 49
-0.2
  0
ENDTAB
  0
TABLE
  2
STYLE
  70
4
  0
STYLE
  2
KICAD
  70
0
  40
0
  41
1
  42
1
  50
0
  71
0
  3
isocp.shx
  0
STYLE
  2
KICADB
  70
0
  40
0
  41
1
  42
1
  50
0
  71
0
  3
isocp.shx
  0
STYLE
  2
KICADI
  70
0
  40
0
  41
1
  42
1
  50
15
  71
0
  3
isocp.shx
  0
STYLE
  2
KICADBI
  70
0
  40
0
  41
1
  42
1
  50
15
  71
0
  3
isocp.shx
  0
ENDTAB
  0
TABLE
  2
LAYER
  70
1
  0
LAYER
  2
BLACK
  70
0
  62
7
  6
CONTINUOUS
  0
ENDTAB
  0
ENDSEC
  0
SECTION
  2
ENTITIES
0
LINE
8
BLACK
6
CONTINUOUS
10
0.6999564173228346
20
0.396372716535433
11
0.7026719291338582
21
0.3936572047244095
0
LINE
8
BLACK
6
CONTINUOUS
10
0.7026719291338582
20
0.3936572047244095
11
0.7041415748031495
21
0.3901091732283464
0
LINE
8
BLACK
6
CONTINUOUS
10
0.7041415748031495
20
0.3901091732283464
11
0.7041415748031495
21
0.3862687795275591
0
LINE
8
BLACK
6
CONTINUOUS
10
0.7041415748031495
20
0.3862687795275591
11
0.7026719291338582
21
0.382720748031496
0
LINE
8
BLACK
6
CONTINUOUS
10
0.7026719291338582
20
0.382720748031496
11
0.6999564173228346
21
0.3800052362204724
0
LINE
8
BLACK
6
CONTINUOUS
10
0.6999564173228346
20
0.3800052362204724
11
0.6964083858267717
21
0.3785355905511811
0
LINE
8
BLACK
6
CONTINUOUS
10
0.6964083858267717
20
0.3785355905511811
11
0.6925679921259842
21
0.3785355905511811
0
LINE
8
BLACK
6
CONTINUOUS
10
0.6925679921259842
20
0.3785355905511811
11
0.6890199606299212
21
0.3800052362204724
0
LINE
8
BLACK
6
CONTINUOUS
10
0.6890199606299212
20
0.3800052362204724
11
0.6863044488188976
21
0.382720748031496
0
LINE
8
BLACK
6
CONTINUOUS
10
0.6863044488188976
20
0.382720748031496
11
0.6856701968503937
21
0.384251968503937
0
LINE
8
BLACK
6
CONTINUOUS
10
0.6856701968503937
20
0.384251968503937
11
0.6535992913385826
21
0.384251968503937
0
LINE
8
BLACK
6
CONTINUOUS
10
0.6535992913385826
20
0.384251968503937
11
0.5996342913385827
21
0.330286968503937
0
LINE
8
BLACK
6
CONTINUOUS
10
0.5996342913385827
20
0.330286968503937
11
0.5990376771653543
21
0.3297973622047244
0
LINE
8
BLACK
6
CONTINUOUS
10
0.5990376771653543
20
0.3297973622047244
11
0.5976184645669291
21
0.3292094881889764
0
LINE
8
BLACK
6
CONTINUOUS
10
0.5976184645669291
20
0.3292094881889764
11
0.5968503937007874
21
0.3291338582677165
0
LINE
8
BLACK
6
CONTINUOUS
10
0.5968503937007874
20
0.3291338582677165
11
0.5615738976377953
21
0.3291338582677165
0
LINE
8
BLACK
6
CONTINUOUS
10
0.5615738976377953
20
0.3291338582677165
11
0.5609396456692913
21
0.3276026377952756
0
LINE
8
BLACK
6
CONTINUOUS
10
0.5609396456692913
20
0.3276026377952756
11
0.5582241338582677
21
0.324887125984252
0
LINE
8
BLACK
6
CONTINUOUS
10
0.5582241338582677
20
0.324887125984252
11
0.5546761023622047
21
0.3234174803149606
0
LINE
8
BLACK
6
CONTINUOUS
10
0.5546761023622047
20
0.3234174803149606
11
0.5508357086614173
21
0.3234174803149606
0
LINE
8
BLACK
6
CONTINUOUS
10
0.5508357086614173
20
0.3234174803149606
11
0.5472876771653543
21
0.324887125984252
0
LINE
8
BLACK
6
CONTINUOUS
10
0.5472876771653543
20
0.324887125984252
11
0.5445721653543307
21
0.3276026377952756
0
LINE
8
BLACK
6
CONTINUOUS
10
0.5445721653543307
20
0.3276026377952756
11
0.5431025196850393
21
0.3311506692913386
0
LINE
8
BLACK
6
CONTINUOUS
10
0.5431025196850393
20
0.3311506692913386
11
0.5431025196850393
21
0.334991062992126
0
LINE
8
BLACK
6
CONTINUOUS
10
0.5431025196850393
20
0.334991062992126
11
0.5445721653543307
21
0.338539094488189
0
LINE
8
BLACK
6
CONTINUOUS
10
0.5445721653543307
20
0.338539094488189
11
0.5472876771653543
21
0.3412546062992126
0
LINE
8
BLACK
6
CONTINUOUS
10
0.5472876771653543
20
0.3412546062992126
11
0.5508357086614173
21
0.3427242519685039
0
LINE
8
BLACK
6
CONTINUOUS
10
0.5508357086614173
20
0.3427242519685039
11
0.5546761023622047
21
0.3427242519685039
0
LINE
8
BLACK
6
CONTINUOUS
10
0.5546761023622047
20
0.3427242519685039
11
0.5582241338582677
21
0.3412546062992126
0
LINE
8
BLACK
6
CONTINUOUS
10
0.5582241338582677
20
0.3412546062992126
11
0.5609396456692913
21
0.338539094488189
0
LINE
8
BLACK
6
CONTINUOUS
10
0.5609396456692913
20
0.338539094488189
11
0.5615738976377953
21
0.337007874015748
0
LINE
8
BLACK
6
CONTINUOUS
10
0.5615738976377953
20
0.337007874015748
11
0.5952196062992126
21
0.337007874015748
0
LINE
8
BLACK
6
CONTINUOUS
10
0.5952196062992126
20
0.337007874015748
11
0.6491846062992126
21
0.390972874015748
0
LINE
8
BLACK
6
CONTINUOUS
10
0.6491846062992126
20
0.390972874015748
11
0.6497812204724409
21
0.3914624803149606
0
LINE
8
BLACK
6
CONTINUOUS
10
0.6497812204724409
20
0.3914624803149606
11
0.6512004330708662
21
0.3920503543307087
0
LINE
8
BLACK
6
CONTINUOUS
10
0.6512004330708662
20
0.3920503543307087
11
0.6519685039370079
21
0.3921259842519685
0
LINE
8
BLACK
6
CONTINUOUS
10
0.6519685039370079
20
0.3921259842519685
11
0.6856701968503937
21
0.3921259842519685
0
LINE
8
BLACK
6
CONTINUOUS
10
0.6856701968503937
20
0.3921259842519685
11
0.6863044488188976
21
0.3936572047244095
0
LINE
8
BLACK
6
CONTINUOUS
10
0.6863044488188976
20
0.3936572047244095
11
0.6890199606299212
21
0.396372716535433
0
LINE
8
BLACK
6
CONTINUOUS
10
0.6890199606299212
20
0.396372716535433
11
0.6925679921259842
21
0.3978423622047244
0
LINE
8
BLACK
6
CONTINUOUS
10
0.6925679921259842
20
0.3978423622047244
11
0.6964083858267717
21
0.3978423622047244
0
LINE
8
BLACK
6
CONTINUOUS
10
0.6964083858267717
20
0.3978423622047244
11
0.6999564173228346
21
0.396372716535433
0
LINE
8
BLACK
6
CONTINUOUS
10
0.4542433464566929
20
1.4138282677165355
11
0.4566542913385827
21
1.4114173228346456
0
LINE
8
BLACK
6
CONTINUOUS
10
0.4566542913385827
20
1.4114173228346456
11
0.8846842913385826
21
1.4114173228346456
0
LINE
8
BLACK
6
CONTINUOUS
10
0.8846842913385826
20
1.4114173228346456
11
0.884733031496063
21
1.4114660629921258
0
LINE
8
BLACK
6
CONTINUOUS
10
0.884733031496063
20
1.4114660629921258
11
0.8879972047244095
21
1.4128181496062993
0
LINE
8
BLACK
6
CONTINUOUS
10
0.8879972047244095
20
1.4128181496062993
11
0.8915303543307086
21
1.4128181496062993
0
LINE
8
BLACK
6
CONTINUOUS
10
0.8915303543307086
20
1.4128181496062993
11
0.8947945275590551
21
1.4114660629921258
0
LINE
8
BLACK
6
CONTINUOUS
10
0.8947945275590551
20
1.4114660629921258
11
0.8972928346456692
21
1.4089677559055118
0
LINE
8
BLACK
6
CONTINUOUS
10
0.8972928346456692
20
1.4089677559055118
11
0.8986449212598425
21
1.4057035826771653
0
LINE
8
BLACK
6
CONTINUOUS
10
0.8986449212598425
20
1.4057035826771653
11
0.8986449212598425
21
1.4021704330708662
0
LINE
8
BLACK
6
CONTINUOUS
10
0.8986449212598425
20
1.4021704330708662
11
0.8972928346456692
21
1.3989062598425197
0
LINE
8
BLACK
6
CONTINUOUS
10
0.8972928346456692
20
1.3989062598425197
11
0.8947945275590551
21
1.3964079527559055
0
LINE
8
BLACK
6
CONTINUOUS
10
0.8947945275590551
20
1.3964079527559055
11
0.8915303543307086
21
1.3950558661417323
0
LINE
8
BLACK
6
CONTINUOUS
10
0.8915303543307086
20
1.3950558661417323
11
0.8879972047244095
21
1.3950558661417323
0
LINE
8
BLACK
6
CONTINUOUS
10
0.8879972047244095
20
1.3950558661417323
11
0.884733031496063
21
1.3964079527559055
0
LINE
8
BLACK
6
CONTINUOUS
10
0.884733031496063
20
1.3964079527559055
11
0.8822347244094488
21
1.3989062598425197
0
LINE
8
BLACK
6
CONTINUOUS
10
0.8822347244094488
20
1.3989062598425197
11
0.8819447637795276
21
1.3996062992125984
0
LINE
8
BLACK
6
CONTINUOUS
10
0.8819447637795276
20
1.3996062992125984
11
0.4550794881889764
21
1.3996062992125984
0
LINE
8
BLACK
6
CONTINUOUS
10
0.4550794881889764
20
1.3996062992125984
11
0.4542433464566929
21
1.3987701574803149
0
LINE
8
BLACK
6
CONTINUOUS
10
0.4542433464566929
20
1.3987701574803149
11
0.4509791732283465
21
1.3974180708661417
0
LINE
8
BLACK
6
CONTINUOUS
10
0.4509791732283465
20
1.3974180708661417
11
0.4474460236220472
21
1.3974180708661417
0
LINE
8
BLACK
6
CONTINUOUS
10
0.4474460236220472
20
1.3974180708661417
11
0.4441818503937008
21
1.3987701574803149
0
LINE
8
BLACK
6
CONTINUOUS
10
0.4441818503937008
20
1.3987701574803149
11
0.4416835433070866
21
1.4012684645669291
0
LINE
8
BLACK
6
CONTINUOUS
10
0.4416835433070866
20
1.4012684645669291
11
0.4403314566929134
21
1.4045326377952756
0
LINE
8
BLACK
6
CONTINUOUS
10
0.4403314566929134
20
1.4045326377952756
11
0.4403314566929134
21
1.4080657874015747
0
LINE
8
BLACK
6
CONTINUOUS
10
0.4403314566929134
20
1.4080657874015747
11
0.4416835433070866
21
1.4113299606299212
0
LINE
8
BLACK
6
CONTINUOUS
10
0.4416835433070866
20
1.4113299606299212
11
0.4441818503937008
21
1.4138282677165355
0
LINE
8
BLACK
6
CONTINUOUS
10
0.4441818503937008
20
1.4138282677165355
11
0.4474460236220472
21
1.4151803543307087
0
LINE
8
BLACK
6
CONTINUOUS
10
0.4474460236220472
20
1.4151803543307087
11
0.4509791732283465
21
1.4151803543307087
0
LINE
8
BLACK
6
CONTINUOUS
10
0.4509791732283465
20
1.4151803543307087
11
0.4542433464566929
21
1.4138282677165355
0
LINE
8
BLACK
6
CONTINUOUS
10
0.4197637795275591
20
1.8983464566929134
11
0.3597637795275591
21
1.8983464566929134
0
LINE
8
BLACK
6
CONTINUOUS
10
0.3597637795275591
20
1.8983464566929134
11
0.3597637795275591
21
1.9583464566929134
0
LINE
8
BLACK
6
CONTINUOUS
10
0.3597637795275591
20
1.9583464566929134
11
0.4197637795275591
21
1.9583464566929134
0
LINE
8
BLACK
6
CONTINUOUS
10
0.4197637795275591
20
1.9583464566929134
11
0.4197637795275591
21
1.8983464566929134
0
LINE
8
BLACK
6
CONTINUOUS
10
0.519763779527559
20
1.8983464566929134
11
0.459763779527559
21
1.8983464566929134
0
LINE
8
BLACK
6
CONTINUOUS
10
0.459763779527559
20
1.8983464566929134
11
0.459763779527559
21
1.9583464566929134
0
LINE
8
BLACK
6
CONTINUOUS
10
0.459763779527559
20
1.9583464566929134
11
0.519763779527559
21
1.9583464566929134
0
LINE
8
BLACK
6
CONTINUOUS
10
0.519763779527559
20
1.9583464566929134
11
0.519763779527559
21
1.8983464566929134
0
LINE
8
BLACK
6
CONTINUOUS
10
0.619763779527559
20
1.8983464566929134
11
0.5597637795275591
21
1.8983464566929134
0
LINE
8
BLACK
6
CONTINUOUS
10
0.5597637795275591
20
1.8983464566929134
11
0.5597637795275591
21
1.9583464566929134
0
LINE
8
BLACK
6
CONTINUOUS
10
0.5597637795275591
20
1.9583464566929134
11
0.619763779527559
21
1.9583464566929134
0
LINE
8
BLACK
6
CONTINUOUS
10
0.619763779527559
20
1.9583464566929134
11
0.619763779527559
21
1.8983464566929134
0
LINE
8
BLACK
6
CONTINUOUS
10
0.719763779527559
20
1.8983464566929134
11
0.659763779527559
21
1.8983464566929134
0
LINE
8
BLACK
6
CONTINUOUS
10
0.659763779527559
20
1.8983464566929134
11
0.659763779527559
21
1.9583464566929134
0
LINE
8
BLACK
6
CONTINUOUS
10
0.659763779527559
20
1.9583464566929134
11
0.719763779527559
21
1.9583464566929134
0
LINE
8
BLACK
6
CONTINUOUS
10
0.719763779527559
20
1.9583464566929134
11
0.719763779527559
21
1.8983464566929134
0
LINE
8
BLACK
6
CONTINUOUS
10
0.8197637795275591
20
1.8983464566929134
11
0.759763779527559
21
1.8983464566929134
0
LINE
8
BLACK
6
CONTINUOUS
10
0.759763779527559
20
1.8983464566929134
11
0.759763779527559
21
1.9583464566929134
0
LINE
8
BLACK
6
CONTINUOUS
10
0.759763779527559
20
1.9583464566929134
11
0.8197637795275591
21
1.9583464566929134
0
LINE
8
BLACK
6
CONTINUOUS
10
0.8197637795275591
20
1.9583464566929134
11
0.8197637795275591
21
1.8983464566929134
0
LINE
8
BLACK
6
CONTINUOUS
10
0.9197637795275591
20
1.8983464566929134
11
0.859763779527559
21
1.8983464566929134
0
LINE
8
BLACK
6
CONTINUOUS
10
0.859763779527559
20
1.8983464566929134
11
0.859763779527559
21
1.9583464566929134
0
LINE
8
BLACK
6
CONTINUOUS
10
0.859763779527559
20
1.9583464566929134
11
0.9197637795275591
21
1.9583464566929134
0
LINE
8
BLACK
6
CONTINUOUS
10
0.9197637795275591
20
1.9583464566929134
11
0.9197637795275591
21
1.8983464566929134
0
LINE
8
BLACK
6
CONTINUOUS
10
0.4197637795275591
20
1.9983464566929134
11
0.3597637795275591
21
1.9983464566929134
0
LINE
8
BLACK
6
CONTINUOUS
10
0.3597637795275591
20
1.9983464566929134
11
0.3597637795275591
21
2.0583464566929135
0
LINE
8
BLACK
6
CONTINUOUS
10
0.3597637795275591
20
2.0583464566929135
11
0.4197637795275591
21
2.0583464566929135
0
LINE
8
BLACK
6
CONTINUOUS
10
0.4197637795275591
20
2.0583464566929135
11
0.4197637795275591
21
1.9983464566929134
0
LINE
8
BLACK
6
CONTINUOUS
10
0.519763779527559
20
1.9983464566929134
11
0.459763779527559
21
1.9983464566929134
0
LINE
8
BLACK
6
CONTINUOUS
10
0.459763779527559
20
1.9983464566929134
11
0.459763779527559
21
2.0583464566929135
0
LINE
8
BLACK
6
CONTINUOUS
10
0.459763779527559
20
2.0583464566929135
11
0.519763779527559
21
2.0583464566929135
0
LINE
8
BLACK
6
CONTINUOUS
10
0.519763779527559
20
2.0583464566929135
11
0.519763779527559
21
1.9983464566929134
0
LINE
8
BLACK
6
CONTINUOUS
10
0.619763779527559
20
1.9983464566929134
11
0.5597637795275591
21
1.9983464566929134
0
LINE
8
BLACK
6
CONTINUOUS
10
0.5597637795275591
20
1.9983464566929134
11
0.5597637795275591
21
2.0583464566929135
0
LINE
8
BLACK
6
CONTINUOUS
10
0.5597637795275591
20
2.0583464566929135
11
0.619763779527559
21
2.0583464566929135
0
LINE
8
BLACK
6
CONTINUOUS
10
0.619763779527559
20
2.0583464566929135
11
0.619763779527559
21
1.9983464566929134
0
LINE
8
BLACK
6
CONTINUOUS
10
0.719763779527559
20
1.9983464566929134
11
0.659763779527559
21
1.9983464566929134
0
LINE
8
BLACK
6
CONTINUOUS
10
0.659763779527559
20
1.9983464566929134
11
0.659763779527559
21
2.0583464566929135
0
LINE
8
BLACK
6
CONTINUOUS
10
0.659763779527559
20
2.0583464566929135
11
0.719763779527559
21
2.0583464566929135
0
LINE
8
BLACK
6
CONTINUOUS
10
0.719763779527559
20
2.0583464566929135
11
0.719763779527559
21
1.9983464566929134
0
LINE
8
BLACK
6
CONTINUOUS
10
0.8197637795275591
20
1.9983464566929134
11
0.759763779527559
21
1.9983464566929134
0
LINE
8
BLACK
6
CONTINUOUS
10
0.759763779527559
20
1.9983464566929134
11
0.759763779527559
21
2.0583464566929135
0
LINE
8
BLACK
6
CONTINUOUS
10
0.759763779527559
20
2.0583464566929135
11
0.8197637795275591
21
2.0583464566929135
0
LINE
8
BLACK
6
CONTINUOUS
10
0.8197637795275591
20
2.0583464566929135
11
0.8197637795275591
21
1.9983464566929134
0
LINE
8
BLACK
6
CONTINUOUS
10
0.9197637795275591
20
1.9983464566929134
11
0.859763779527559
21
1.9983464566929134
0
LINE
8
BLACK
6
CONTINUOUS
10
0.859763779527559
20
1.9983464566929134
11
0.859763779527559
21
2.0583464566929135
0
LINE
8
BLACK
6
CONTINUOUS
10
0.859763779527559
20
2.0583464566929135
11
0.9197637795275591
21
2.0583464566929135
0
LINE
8
BLACK
6
CONTINUOUS
10
0.9197637795275591
20
2.0583464566929135
11
0.9197637795275591
21
1.9983464566929134
0
LINE
8
BLACK
6
CONTINUOUS
10
1.401916968503937
20
2.1661847637795275
11
1.403332874015748
21
2.1642359448818898
0
LINE
8
BLACK
6
CONTINUOUS
10
1.403332874015748
20
2.1642359448818898
11
1.403523622047244
21
2.1630314960629922
0
LINE
8
BLACK
6
CONTINUOUS
10
1.403523622047244
20
2.1630314960629922
11
1.403523622047244
21
-0.1850787401574803
0
LINE
8
BLACK
6
CONTINUOUS
10
1.403523622047244
20
-0.1850787401574803
11
1.4027792519685038
21
-0.1873697244094488
0
LINE
8
BLACK
6
CONTINUOUS
10
1.4027792519685038
20
-0.1873697244094488
11
1.4008304330708661
21
-0.1887856299212598
0
LINE
8
BLACK
6
CONTINUOUS
10
1.4008304330708661
20
-0.1887856299212598
11
1.3996259842519685
21
-0.1889763779527559
0
LINE
8
BLACK
6
CONTINUOUS
10
1.3996259842519685
20
-0.1889763779527559
11
-0.1849996850393701
21
-0.1889763779527559
0
LINE
8
BLACK
6
CONTINUOUS
10
-0.1849996850393701
20
-0.1889763779527559
11
-0.1852988188976378
21
-0.1888791732283465
0
LINE
8
BLACK
6
CONTINUOUS
10
-0.1852988188976378
20
-0.1888791732283465
11
-0.1856094094488189
21
-0.1889283858267717
0
LINE
8
BLACK
6
CONTINUOUS
10
-0.1856094094488189
20
-0.1889283858267717
11
-0.1864226377952756
21
-0.1885140157480315
0
LINE
8
BLACK
6
CONTINUOUS
10
-0.1864226377952756
20
-0.1885140157480315
11
-0.1872906692913386
21
-0.1882320078740158
0
LINE
8
BLACK
6
CONTINUOUS
10
-0.1872906692913386
20
-0.1882320078740158
11
-0.1877557480314961
21
-0.1878348031496063
0
LINE
8
BLACK
6
CONTINUOUS
10
-0.1877557480314961
20
-0.1878348031496063
11
-0.1884450393700787
21
-0.1871455118110236
0
LINE
8
BLACK
6
CONTINUOUS
10
-0.1884450393700787
20
-0.1871455118110236
11
-0.1895386220472441
21
-0.1849991732283464
0
LINE
8
BLACK
6
CONTINUOUS
10
-0.1895386220472441
20
-0.1849991732283464
11
-0.1895866141732283
21
-0.1843894488188976
0
LINE
8
BLACK
6
CONTINUOUS
10
-0.1895866141732283
20
-0.1843894488188976
11
-0.1895866141732283
21
0.0102363385826772
0
LINE
8
BLACK
6
CONTINUOUS
10
-0.1895866141732283
20
0.0102363385826772
11
-0.1895866141732283
21
0.3355933070866142
0
LINE
8
BLACK
6
CONTINUOUS
10
-0.1895866141732283
20
0.3355933070866142
11
-0.1895866141732283
21
1.4087441732283463
0
LINE
8
BLACK
6
CONTINUOUS
10
-0.1895866141732283
20
1.4087441732283463
11
-0.1895866141732283
21
1.9601101574803148
0
LINE
8
BLACK
6
CONTINUOUS
10
-0.1895866141732283
20
1.9601101574803148
11
-0.1895866141732283
21
2.0601101574803149
0
LINE
8
BLACK
6
CONTINUOUS
10
-0.1895866141732283
20
2.0601101574803149
11
-0.1895866141732283
21
2.1630314960629922
0
LINE
8
BLACK
6
CONTINUOUS
10
-0.1895866141732283
20
2.1630314960629922
11
-0.1888422440944882
21
2.1653224803149604
0
LINE
8
BLACK
6
CONTINUOUS
10
-0.1888422440944882
20
2.1653224803149604
11
-0.1868934251968504
21
2.1667383858267715
0
LINE
8
BLACK
6
CONTINUOUS
10
-0.1868934251968504
20
2.1667383858267715
11
-0.1856889763779528
21
2.1669291338582677
0
LINE
8
BLACK
6
CONTINUOUS
10
-0.1856889763779528
20
2.1669291338582677
11
1.3996259842519685
21
2.1669291338582677
0
LINE
8
BLACK
6
CONTINUOUS
10
1.3996259842519685
20
2.1669291338582677
11
1.401916968503937
21
2.1661847637795275
0
LINE
8
BLACK
6
CONTINUOUS
10
0.8226374803149606
20
0.0734451968503937
11
0.3743968503937008
21
0.0734451968503937
0
LINE
8
BLACK
6
CONTINUOUS
10
0.3743968503937008
20
0.0734451968503937
11
0.3650292913385827
21
0.0720332677165354
0
LINE
8
BLACK
6
CONTINUOUS
10
0.3650292913385827
20
0.0720332677165354
11
0.3650288976377953
21
0.0720331889763779
0
LINE
8
BLACK
6
CONTINUOUS
10
0.3650288976377953
20
0.0720331889763779
11
0.3559762204724409
21
0.0692407874015748
0
LINE
8
BLACK
6
CONTINUOUS
10
0.3559762204724409
20
0.0692407874015748
11
0.3474410236220473
21
0.0651304724409449
0
LINE
8
BLACK
6
CONTINUOUS
10
0.3474410236220473
20
0.0651304724409449
11
0.3474408661417323
21
0.0651303937007874
0
LINE
8
BLACK
6
CONTINUOUS
10
0.3474408661417323
20
0.0651303937007874
11
0.347440748031496
21
0.0651303149606299
0
LINE
8
BLACK
6
CONTINUOUS
10
0.347440748031496
20
0.0651303149606299
11
0.3396133070866142
21
0.0597936614173228
0
LINE
8
BLACK
6
CONTINUOUS
10
0.3396133070866142
20
0.0597936614173228
11
0.3396129133858268
21
0.0597933858267717
0
LINE
8
BLACK
6
CONTINUOUS
10
0.3396129133858268
20
0.0597933858267717
11
0.3326682677165354
21
0.0533496456692913
0
LINE
8
BLACK
6
CONTINUOUS
10
0.3326682677165354
20
0.0533496456692913
11
0.3267619291338583
21
0.0459433070866142
0
LINE
8
BLACK
6
CONTINUOUS
10
0.3267619291338583
20
0.0459433070866142
11
0.3267615354330708
21
0.0459427559055118
0
LINE
8
BLACK
6
CONTINUOUS
10
0.3267615354330708
20
0.0459427559055118
11
0.3220250787401575
21
0.0377389763779528
0
LINE
8
BLACK
6
CONTINUOUS
10
0.3220250787401575
20
0.0377389763779528
11
0.3220247244094488
21
0.0377382283464567
0
LINE
8
BLACK
6
CONTINUOUS
10
0.3220247244094488
20
0.0377382283464567
11
0.3185637007874016
21
0.0289197637795276
0
LINE
8
BLACK
6
CONTINUOUS
10
0.3185637007874016
20
0.0289197637795276
11
0.3164556299212599
21
0.0196836614173228
0
LINE
8
BLACK
6
CONTINUOUS
10
0.3164556299212599
20
0.0196836614173228
11
0.3164555511811024
21
0.0196833070866142
0
LINE
8
BLACK
6
CONTINUOUS
10
0.3164555511811024
20
0.0196833070866142
11
0.3157476377952756
21
0.0102363385826772
0
LINE
8
BLACK
6
CONTINUOUS
10
0.3157476377952756
20
0.0102363385826772
11
0.3157476377952756
21
0.0102361417322835
0
LINE
8
BLACK
6
CONTINUOUS
10
0.3157476377952756
20
0.0102361417322835
11
0.3164555511811024
21
0.0007891732283465
0
LINE
8
BLACK
6
CONTINUOUS
10
0.3164555511811024
20
0.0007891732283465
11
0.3164556299212599
21
0.0007888188976378
0
LINE
8
BLACK
6
CONTINUOUS
10
0.3164556299212599
20
0.0007888188976378
11
0.3185637007874016
21
-0.0084472834645669
0
LINE
8
BLACK
6
CONTINUOUS
10
0.3185637007874016
20
-0.0084472834645669
11
0.3220247244094488
21
-0.0172657480314961
0
LINE
8
BLACK
6
CONTINUOUS
10
0.3220247244094488
20
-0.0172657480314961
11
0.3220250787401575
21
-0.0172664960629921
0
LINE
8
BLACK
6
CONTINUOUS
10
0.3220250787401575
20
-0.0172664960629921
11
0.3267615354330708
21
-0.0254702755905512
0
LINE
8
BLACK
6
CONTINUOUS
10
0.3267615354330708
20
-0.0254702755905512
11
0.3267619291338583
21
-0.0254708267716535
0
LINE
8
BLACK
6
CONTINUOUS
10
0.3267619291338583
20
-0.0254708267716535
11
0.3326682677165354
21
-0.0328771653543307
0
LINE
8
BLACK
6
CONTINUOUS
10
0.3326682677165354
20
-0.0328771653543307
11
0.3326683858267717
21
-0.0328772834645669
0
LINE
8
BLACK
6
CONTINUOUS
10
0.3326683858267717
20
-0.0328772834645669
11
0.3326684645669291
21
-0.0328773622047244
0
LINE
8
BLACK
6
CONTINUOUS
10
0.3326684645669291
20
-0.0328773622047244
11
0.3354876377952756
21
-0.035493188976378
0
LINE
8
BLACK
6
CONTINUOUS
10
0.3354876377952756
20
-0.035493188976378
11
0.3396129133858268
21
-0.039320905511811
0
LINE
8
BLACK
6
CONTINUOUS
10
0.3396129133858268
20
-0.039320905511811
11
0.3396129921259842
21
-0.0393209448818898
0
LINE
8
BLACK
6
CONTINUOUS
10
0.3396129921259842
20
-0.0393209448818898
11
0.3396131889763779
21
-0.0393211417322835
0
LINE
8
BLACK
6
CONTINUOUS
10
0.3396131889763779
20
-0.0393211417322835
11
0.347440748031496
21
-0.044657874015748
0
LINE
8
BLACK
6
CONTINUOUS
10
0.347440748031496
20
-0.044657874015748
11
0.3559762598425197
21
-0.0487683464566929
0
LINE
8
BLACK
6
CONTINUOUS
10
0.3559762598425197
20
-0.0487683464566929
11
0.365029094488189
21
-0.0515607874015748
0
LINE
8
BLACK
6
CONTINUOUS
10
0.365029094488189
20
-0.0515607874015748
11
0.3743970078740158
21
-0.0529727559055118
0
LINE
8
BLACK
6
CONTINUOUS
10
0.3743970078740158
20
-0.0529727559055118
11
0.3789626377952756
21
-0.0529727559055118
0
LINE
8
BLACK
6
CONTINUOUS
10
0.3789626377952756
20
-0.0529727559055118
11
0.8225031496062992
21
-0.0529727559055118
0
LINE
8
BLACK
6
CONTINUOUS
10
0.8225031496062992
20
-0.0529727559055118
11
0.8226374803149606
21
-0.0529727559055118
0
LINE
8
BLACK
6
CONTINUOUS
10
0.8226374803149606
20
-0.0529727559055118
11
0.8273743700787402
21
-0.0529727952755905
0
LINE
8
BLACK
6
CONTINUOUS
10
0.8273743700787402
20
-0.0529727952755905
11
0.8367422834645669
21
-0.0515608267716535
0
LINE
8
BLACK
6
CONTINUOUS
10
0.8367422834645669
20
-0.0515608267716535
11
0.845795157480315
21
-0.0487684251968504
0
LINE
8
BLACK
6
CONTINUOUS
10
0.845795157480315
20
-0.0487684251968504
11
0.8543307086614172
21
-0.0446579527559055
0
LINE
8
BLACK
6
CONTINUOUS
10
0.8543307086614172
20
-0.0446579527559055
11
0.8621583070866141
21
-0.0393212204724409
0
LINE
8
BLACK
6
CONTINUOUS
10
0.8621583070866141
20
-0.0393212204724409
11
0.8691030708661417
21
-0.0328774803149606
0
LINE
8
BLACK
6
CONTINUOUS
10
0.8691030708661417
20
-0.0328774803149606
11
0.8750098818897638
21
-0.0254705905511811
0
LINE
8
BLACK
6
CONTINUOUS
10
0.8750098818897638
20
-0.0254705905511811
11
0.8797467716535433
21
-0.0172661023622047
0
LINE
8
BLACK
6
CONTINUOUS
10
0.8797467716535433
20
-0.0172661023622047
11
0.8832079133858267
21
-0.0084472440944882
0
LINE
8
BLACK
6
CONTINUOUS
10
0.8832079133858267
20
-0.0084472440944882
11
0.8853160236220472
21
0.0007889763779528
0
LINE
8
BLACK
6
CONTINUOUS
10
0.8853160236220472
20
0.0007889763779528
11
0.8860240157480315
21
0.0102362204724409
0
LINE
8
BLACK
6
CONTINUOUS
10
0.8860240157480315
20
0.0102362204724409
11
0.8853160236220472
21
0.0196834645669291
0
LINE
8
BLACK
6
CONTINUOUS
10
0.8853160236220472
20
0.0196834645669291
11
0.8832079133858267
21
0.0289196850393701
0
LINE
8
BLACK
6
CONTINUOUS
10
0.8832079133858267
20
0.0289196850393701
11
0.8797467716535433
21
0.0377385433070866
0
LINE
8
BLACK
6
CONTINUOUS
10
0.8797467716535433
20
0.0377385433070866
11
0.8797465354330708
21
0.0377389763779528
0
LINE
8
BLACK
6
CONTINUOUS
10
0.8797465354330708
20
0.0377389763779528
11
0.8797464960629922
21
0.0377390551181102
0
LINE
8
BLACK
6
CONTINUOUS
10
0.8797464960629922
20
0.0377390551181102
11
0.87501
21
0.0459427952755906
0
LINE
8
BLACK
6
CONTINUOUS
10
0.87501
20
0.0459427952755906
11
0.8750098818897638
21
0.045943031496063
0
LINE
8
BLACK
6
CONTINUOUS
10
0.8750098818897638
20
0.045943031496063
11
0.8724676377952756
21
0.049130905511811
0
LINE
8
BLACK
6
CONTINUOUS
10
0.8724676377952756
20
0.049130905511811
11
0.8691034251968504
21
0.0533495275590551
0
LINE
8
BLACK
6
CONTINUOUS
10
0.8691034251968504
20
0.0533495275590551
11
0.8691029921259842
21
0.05335
0
LINE
8
BLACK
6
CONTINUOUS
10
0.8691029921259842
20
0.05335
11
0.8656306692913386
21
0.056571811023622
0
LINE
8
BLACK
6
CONTINUOUS
10
0.8656306692913386
20
0.056571811023622
11
0.8621583070866141
21
0.0597936614173228
0
LINE
8
BLACK
6
CONTINUOUS
10
0.8621583070866141
20
0.0597936614173228
11
0.8543307086614172
21
0.0651303937007874
0
LINE
8
BLACK
6
CONTINUOUS
10
0.8543307086614172
20
0.0651303937007874
11
0.8543306692913386
21
0.0651304330708661
0
LINE
8
BLACK
6
CONTINUOUS
10
0.8543306692913386
20
0.0651304330708661
11
0.8543305905511811
21
0.0651304724409449
0
LINE
8
BLACK
6
CONTINUOUS
10
0.8543305905511811
20
0.0651304724409449
11
0.8457952362204724
21
0.0692408267716535
0
LINE
8
BLACK
6
CONTINUOUS
10
0.8457952362204724
20
0.0692408267716535
11
0.845795157480315
21
0.0692408661417323
0
LINE
8
BLACK
6
CONTINUOUS
10
0.845795157480315
20
0.0692408661417323
11
0.8401735826771654
21
0.0709748818897638
0
LINE
8
BLACK
6
CONTINUOUS
10
0.8401735826771654
20
0.0709748818897638
11
0.8367424409448818
21
0.0720332283464567
0
LINE
8
BLACK
6
CONTINUOUS
10
0.8367424409448818
20
0.0720332283464567
11
0.8367423228346457
21
0.0720332677165354
0
LINE
8
BLACK
6
CONTINUOUS
10
0.8367423228346457
20
0.0720332677165354
11
0.8367422834645669
21
0.0720332677165354
0
LINE
8
BLACK
6
CONTINUOUS
10
0.8367422834645669
20
0.0720332677165354
11
0.8367420866141733
21
0.0720333070866142
0
LINE
8
BLACK
6
CONTINUOUS
10
0.8367420866141733
20
0.0720333070866142
11
0.8367420472440945
21
0.0720333070866142
0
LINE
8
BLACK
6
CONTINUOUS
10
0.8367420472440945
20
0.0720333070866142
11
0.8328599606299213
21
0.0726184251968504
0
LINE
8
BLACK
6
CONTINUOUS
10
0.8328599606299213
20
0.0726184251968504
11
0.8273743700787402
21
0.0734452362204724
0
LINE
8
BLACK
6
CONTINUOUS
10
0.8273743700787402
20
0.0734452362204724
11
0.8273743307086614
21
0.0734452362204724
0
LINE
8
BLACK
6
CONTINUOUS
10
0.8273743307086614
20
0.0734452362204724
11
0.8226374803149606
21
0.0734451968503937
0
LINE
8
BLACK
6
CONTINUOUS
10
0.5271456692913385
20
0.3305484645669291
11
0.5281298818897637
21
0.3256007086614173
0
LINE
8
BLACK
6
CONTINUOUS
10
0.5281298818897637
20
0.3256007086614173
11
0.5281299212598425
21
0.3256005118110236
0
LINE
8
BLACK
6
CONTINUOUS
10
0.5281299212598425
20
0.3256005118110236
11
0.5300603937007874
21
0.3209399606299213
0
LINE
8
BLACK
6
CONTINUOUS
10
0.5300603937007874
20
0.3209399606299213
11
0.5300605511811024
21
0.3209396456692913
0
LINE
8
BLACK
6
CONTINUOUS
10
0.5300605511811024
20
0.3209396456692913
11
0.5317466535433071
21
0.3184162992125984
0
LINE
8
BLACK
6
CONTINUOUS
10
0.5317466535433071
20
0.3184162992125984
11
0.5328631496062992
21
0.3167453149606299
0
LINE
8
BLACK
6
CONTINUOUS
10
0.5328631496062992
20
0.3167453149606299
11
0.5364303543307086
21
0.3131781102362204
0
LINE
8
BLACK
6
CONTINUOUS
10
0.5364303543307086
20
0.3131781102362204
11
0.5389310236220473
21
0.3115072047244095
0
LINE
8
BLACK
6
CONTINUOUS
10
0.5389310236220473
20
0.3115072047244095
11
0.5406246456692914
21
0.3103755511811024
0
LINE
8
BLACK
6
CONTINUOUS
10
0.5406246456692914
20
0.3103755511811024
11
0.5406248031496063
21
0.3103754724409449
0
LINE
8
BLACK
6
CONTINUOUS
10
0.5406248031496063
20
0.3103754724409449
11
0.5406249212598425
21
0.3103753937007874
0
LINE
8
BLACK
6
CONTINUOUS
10
0.5406249212598425
20
0.3103753937007874
11
0.5452856692913386
21
0.308444842519685
0
LINE
8
BLACK
6
CONTINUOUS
10
0.5452856692913386
20
0.308444842519685
11
0.5502335039370079
21
0.3074606299212598
0
LINE
8
BLACK
6
CONTINUOUS
10
0.5502335039370079
20
0.3074606299212598
11
0.5502335433070866
21
0.3074606299212598
0
LINE
8
BLACK
6
CONTINUOUS
10
0.5502335433070866
20
0.3074606299212598
11
0.5552782677165354
21
0.3074606299212598
0
LINE
8
BLACK
6
CONTINUOUS
10
0.5552782677165354
20
0.3074606299212598
11
0.5552783070866142
21
0.3074606299212598
0
LINE
8
BLACK
6
CONTINUOUS
10
0.5552783070866142
20
0.3074606299212598
11
0.5602261417322835
21
0.308444842519685
0
LINE
8
BLACK
6
CONTINUOUS
10
0.5602261417322835
20
0.308444842519685
11
0.5648868897637795
21
0.3103753937007874
0
LINE
8
BLACK
6
CONTINUOUS
10
0.5648868897637795
20
0.3103753937007874
11
0.5683797637795276
21
0.3127092913385827
0
LINE
8
BLACK
6
CONTINUOUS
10
0.5683797637795276
20
0.3127092913385827
11
0.570545157480315
21
0.3133661417322834
0
LINE
8
BLACK
6
CONTINUOUS
10
0.570545157480315
20
0.3133661417322834
11
0.5994444881889763
21
0.3133661417322834
0
LINE
8
BLACK
6
CONTINUOUS
10
0.5994444881889763
20
0.3133661417322834
11
0.5994445669291338
21
0.3133661417322834
0
LINE
8
BLACK
6
CONTINUOUS
10
0.5994445669291338
20
0.3133661417322834
11
0.6044561417322835
21
0.3147089763779528
0
LINE
8
BLACK
6
CONTINUOUS
10
0.6044561417322835
20
0.3147089763779528
11
0.604456220472441
21
0.3147090551181102
0
LINE
8
BLACK
6
CONTINUOUS
10
0.604456220472441
20
0.3147090551181102
11
0.6044562992125984
21
0.3147090551181102
0
LINE
8
BLACK
6
CONTINUOUS
10
0.6044562992125984
20
0.3147090551181102
11
0.6089491732283464
21
0.317303031496063
0
LINE
8
BLACK
6
CONTINUOUS
10
0.6089491732283464
20
0.317303031496063
11
0.6089491732283464
21
0.3173030708661417
0
LINE
8
BLACK
6
CONTINUOUS
10
0.6089491732283464
20
0.3173030708661417
11
0.6089493700787402
21
0.3173031496062992
0
LINE
8
BLACK
6
CONTINUOUS
10
0.6089493700787402
20
0.3173031496062992
11
0.6589888976377952
21
0.3673426771653543
0
LINE
8
BLACK
6
CONTINUOUS
10
0.6589888976377952
20
0.3673426771653543
11
0.6611352362204724
21
0.3684362598425197
0
LINE
8
BLACK
6
CONTINUOUS
10
0.6611352362204724
20
0.3684362598425197
11
0.6617449606299213
21
0.3684842519685039
0
LINE
8
BLACK
6
CONTINUOUS
10
0.6617449606299213
20
0.3684842519685039
11
0.676698937007874
21
0.3684842519685039
0
LINE
8
BLACK
6
CONTINUOUS
10
0.676698937007874
20
0.3684842519685039
11
0.6788642913385826
21
0.3678274015748031
0
LINE
8
BLACK
6
CONTINUOUS
10
0.6788642913385826
20
0.3678274015748031
11
0.6795897244094488
21
0.3673426771653543
0
LINE
8
BLACK
6
CONTINUOUS
10
0.6795897244094488
20
0.3673426771653543
11
0.6823569291338583
21
0.3654936614173228
0
LINE
8
BLACK
6
CONTINUOUS
10
0.6823569291338583
20
0.3654936614173228
11
0.6823570866141732
21
0.3654935826771654
0
LINE
8
BLACK
6
CONTINUOUS
10
0.6823570866141732
20
0.3654935826771654
11
0.6823572047244094
21
0.3654935039370079
0
LINE
8
BLACK
6
CONTINUOUS
10
0.6823572047244094
20
0.3654935039370079
11
0.6870179527559055
21
0.3635629527559055
0
LINE
8
BLACK
6
CONTINUOUS
10
0.6870179527559055
20
0.3635629527559055
11
0.6919657874015748
21
0.3625787401574803
0
LINE
8
BLACK
6
CONTINUOUS
10
0.6919657874015748
20
0.3625787401574803
11
0.6919658267716535
21
0.3625787401574803
0
LINE
8
BLACK
6
CONTINUOUS
10
0.6919658267716535
20
0.3625787401574803
11
0.6970105511811023
21
0.3625787401574803
0
LINE
8
BLACK
6
CONTINUOUS
10
0.6970105511811023
20
0.3625787401574803
11
0.6970105905511811
21
0.3625787401574803
0
LINE
8
BLACK
6
CONTINUOUS
10
0.6970105905511811
20
0.3625787401574803
11
0.7019584251968504
21
0.3635629527559055
0
LINE
8
BLACK
6
CONTINUOUS
10
0.7019584251968504
20
0.3635629527559055
11
0.7066191732283464
21
0.3654935039370079
0
LINE
8
BLACK
6
CONTINUOUS
10
0.7066191732283464
20
0.3654935039370079
11
0.7108137401574803
21
0.3682962204724409
0
LINE
8
BLACK
6
CONTINUOUS
10
0.7108137401574803
20
0.3682962204724409
11
0.7143809448818897
21
0.3718634251968504
0
LINE
8
BLACK
6
CONTINUOUS
10
0.7143809448818897
20
0.3718634251968504
11
0.7171836614173228
21
0.3760579921259842
0
LINE
8
BLACK
6
CONTINUOUS
10
0.7171836614173228
20
0.3760579921259842
11
0.7191142125984252
21
0.3807187401574803
0
LINE
8
BLACK
6
CONTINUOUS
10
0.7191142125984252
20
0.3807187401574803
11
0.7200984251968504
21
0.3856665748031496
0
LINE
8
BLACK
6
CONTINUOUS
10
0.7200984251968504
20
0.3856665748031496
11
0.7200984251968504
21
0.3907113779527559
0
LINE
8
BLACK
6
CONTINUOUS
10
0.7200984251968504
20
0.3907113779527559
11
0.7191142125984252
21
0.3956592125984252
0
LINE
8
BLACK
6
CONTINUOUS
10
0.7191142125984252
20
0.3956592125984252
11
0.7171836614173228
21
0.4003199606299213
0
LINE
8
BLACK
6
CONTINUOUS
10
0.7171836614173228
20
0.4003199606299213
11
0.7171835826771653
21
0.4003200787401575
0
LINE
8
BLACK
6
CONTINUOUS
10
0.7171835826771653
20
0.4003200787401575
11
0.7171835039370078
21
0.4003202362204724
0
LINE
8
BLACK
6
CONTINUOUS
10
0.7171835039370078
20
0.4003202362204724
11
0.7147536614173228
21
0.4039566929133858
0
LINE
8
BLACK
6
CONTINUOUS
10
0.7147536614173228
20
0.4039566929133858
11
0.7143809448818897
21
0.4045145275590551
0
LINE
8
BLACK
6
CONTINUOUS
10
0.7143809448818897
20
0.4045145275590551
11
0.7108137401574803
21
0.4080817322834646
0
LINE
8
BLACK
6
CONTINUOUS
10
0.7108137401574803
20
0.4080817322834646
11
0.7091427559055118
21
0.4091982283464567
0
LINE
8
BLACK
6
CONTINUOUS
10
0.7091427559055118
20
0.4091982283464567
11
0.7066194094488188
21
0.4108843307086614
0
LINE
8
BLACK
6
CONTINUOUS
10
0.7066194094488188
20
0.4108843307086614
11
0.7066190944881889
21
0.4108844881889764
0
LINE
8
BLACK
6
CONTINUOUS
10
0.7066190944881889
20
0.4108844881889764
11
0.7019585433070866
21
0.4128149606299212
0
LINE
8
BLACK
6
CONTINUOUS
10
0.7019585433070866
20
0.4128149606299212
11
0.7019584645669291
21
0.412815
0
LINE
8
BLACK
6
CONTINUOUS
10
0.7019584645669291
20
0.412815
11
0.7019584251968504
21
0.412815
0
LINE
8
BLACK
6
CONTINUOUS
10
0.7019584251968504
20
0.412815
11
0.6970105905511811
21
0.4137992125984252
0
LINE
8
BLACK
6
CONTINUOUS
10
0.6970105905511811
20
0.4137992125984252
11
0.6919657874015748
21
0.4137992125984252
0
LINE
8
BLACK
6
CONTINUOUS
10
0.6919657874015748
20
0.4137992125984252
11
0.691965748031496
21
0.4137992125984252
0
LINE
8
BLACK
6
CONTINUOUS
10
0.691965748031496
20
0.4137992125984252
11
0.6894918503937008
21
0.413307125984252
0
LINE
8
BLACK
6
CONTINUOUS
10
0.6894918503937008
20
0.413307125984252
11
0.6870179527559055
21
0.412815
0
LINE
8
BLACK
6
CONTINUOUS
10
0.6870179527559055
20
0.412815
11
0.6870179133858267
21
0.412815
0
LINE
8
BLACK
6
CONTINUOUS
10
0.6870179133858267
20
0.412815
11
0.6870177952755905
21
0.4128149606299212
0
LINE
8
BLACK
6
CONTINUOUS
10
0.6870177952755905
20
0.4128149606299212
11
0.6823572440944882
21
0.4108844881889764
0
LINE
8
BLACK
6
CONTINUOUS
10
0.6823572440944882
20
0.4108844881889764
11
0.6823569291338583
21
0.4108843307086614
0
LINE
8
BLACK
6
CONTINUOUS
10
0.6823569291338583
20
0.4108843307086614
11
0.6797859448818897
21
0.4091664173228347
0
LINE
8
BLACK
6
CONTINUOUS
10
0.6797859448818897
20
0.4091664173228347
11
0.6788642913385826
21
0.4085505905511811
0
LINE
8
BLACK
6
CONTINUOUS
10
0.6788642913385826
20
0.4085505905511811
11
0.676698937007874
21
0.4078937007874016
0
LINE
8
BLACK
6
CONTINUOUS
10
0.676698937007874
20
0.4078937007874016
11
0.6545626771653543
21
0.4078937007874016
0
LINE
8
BLACK
6
CONTINUOUS
10
0.6545626771653543
20
0.4078937007874016
11
0.6493743307086614
21
0.4078937007874016
0
LINE
8
BLACK
6
CONTINUOUS
10
0.6493743307086614
20
0.4078937007874016
11
0.6463070866141732
21
0.4070718503937008
0
LINE
8
BLACK
6
CONTINUOUS
10
0.6463070866141732
20
0.4070718503937008
11
0.6443625590551181
21
0.4065508267716536
0
LINE
8
BLACK
6
CONTINUOUS
10
0.6443625590551181
20
0.4065508267716536
11
0.63986968503937
21
0.4039568503937008
0
LINE
8
BLACK
6
CONTINUOUS
10
0.63986968503937
20
0.4039568503937008
11
0.58983
21
0.3539171653543307
0
LINE
8
BLACK
6
CONTINUOUS
10
0.58983
20
0.3539171653543307
11
0.5876836614173229
21
0.3528235826771653
0
LINE
8
BLACK
6
CONTINUOUS
10
0.5876836614173229
20
0.3528235826771653
11
0.587073937007874
21
0.3527755905511811
0
LINE
8
BLACK
6
CONTINUOUS
10
0.587073937007874
20
0.3527755905511811
11
0.570545157480315
21
0.3527755905511811
0
LINE
8
BLACK
6
CONTINUOUS
10
0.570545157480315
20
0.3527755905511811
11
0.5683797637795276
21
0.3534324803149606
0
LINE
8
BLACK
6
CONTINUOUS
10
0.5683797637795276
20
0.3534324803149606
11
0.5670756692913386
21
0.3543038582677165
0
LINE
8
BLACK
6
CONTINUOUS
10
0.5670756692913386
20
0.3543038582677165
11
0.5648871259842519
21
0.3557662204724409
0
LINE
8
BLACK
6
CONTINUOUS
10
0.5648871259842519
20
0.3557662204724409
11
0.564886811023622
21
0.3557663779527559
0
LINE
8
BLACK
6
CONTINUOUS
10
0.564886811023622
20
0.3557663779527559
11
0.5602262598425197
21
0.3576968503937008
0
LINE
8
BLACK
6
CONTINUOUS
10
0.5602262598425197
20
0.3576968503937008
11
0.5602261811023622
21
0.3576968897637795
0
LINE
8
BLACK
6
CONTINUOUS
10
0.5602261811023622
20
0.3576968897637795
11
0.5602261417322835
21
0.3576968897637795
0
LINE
8
BLACK
6
CONTINUOUS
10
0.5602261417322835
20
0.3576968897637795
11
0.5552783070866142
21
0.3586811023622047
0
LINE
8
BLACK
6
CONTINUOUS
10
0.5552783070866142
20
0.3586811023622047
11
0.5502335039370079
21
0.3586811023622047
0
LINE
8
BLACK
6
CONTINUOUS
10
0.5502335039370079
20
0.3586811023622047
11
0.5502334645669291
21
0.3586811023622047
0
LINE
8
BLACK
6
CONTINUOUS
10
0.5502334645669291
20
0.3586811023622047
11
0.5477595669291339
21
0.3581890157480315
0
LINE
8
BLACK
6
CONTINUOUS
10
0.5477595669291339
20
0.3581890157480315
11
0.5452856692913386
21
0.3576968897637795
0
LINE
8
BLACK
6
CONTINUOUS
10
0.5452856692913386
20
0.3576968897637795
11
0.5452856299212598
21
0.3576968897637795
0
LINE
8
BLACK
6
CONTINUOUS
10
0.5452856299212598
20
0.3576968897637795
11
0.5452855118110236
21
0.3576968503937008
0
LINE
8
BLACK
6
CONTINUOUS
10
0.5452855118110236
20
0.3576968503937008
11
0.5406249606299213
21
0.3557663779527559
0
LINE
8
BLACK
6
CONTINUOUS
10
0.5406249606299213
20
0.3557663779527559
11
0.5406246456692914
21
0.3557662204724409
0
LINE
8
BLACK
6
CONTINUOUS
10
0.5406246456692914
20
0.3557662204724409
11
0.5364303543307086
21
0.3529636220472441
0
LINE
8
BLACK
6
CONTINUOUS
10
0.5364303543307086
20
0.3529636220472441
11
0.5364301968503937
21
0.3529635039370079
0
LINE
8
BLACK
6
CONTINUOUS
10
0.5364301968503937
20
0.3529635039370079
11
0.5328632677165355
21
0.3493965748031496
0
LINE
8
BLACK
6
CONTINUOUS
10
0.5328632677165355
20
0.3493965748031496
11
0.5328631496062992
21
0.3493964173228347
0
LINE
8
BLACK
6
CONTINUOUS
10
0.5328631496062992
20
0.3493964173228347
11
0.5300605511811024
21
0.345202125984252
0
LINE
8
BLACK
6
CONTINUOUS
10
0.5300605511811024
20
0.345202125984252
11
0.5300603937007874
21
0.345201811023622
0
LINE
8
BLACK
6
CONTINUOUS
10
0.5300603937007874
20
0.345201811023622
11
0.5281299212598425
21
0.3405412598425197
0
LINE
8
BLACK
6
CONTINUOUS
10
0.5281299212598425
20
0.3405412598425197
11
0.5281298818897637
21
0.340541062992126
0
LINE
8
BLACK
6
CONTINUOUS
10
0.5281298818897637
20
0.340541062992126
11
0.5271456692913385
21
0.3355933070866142
0
LINE
8
BLACK
6
CONTINUOUS
10
0.5271456692913385
20
0.3355933070866142
11
0.5271456692913385
21
0.3305484645669291
0
LINE
8
BLACK
6
CONTINUOUS
10
0.4243897637795275
20
1.4038542913385827
11
0.4253436220472441
21
1.3990587401574803
0
LINE
8
BLACK
6
CONTINUOUS
10
0.4253436220472441
20
1.3990587401574803
11
0.4272148425196851
21
1.3945412598425198
0
LINE
8
BLACK
6
CONTINUOUS
10
0.4272148425196851
20
1.3945412598425198
11
0.427215
21
1.3945409448818897
0
LINE
8
BLACK
6
CONTINUOUS
10
0.427215
20
1.3945409448818897
11
0.428793188976378
21
1.3921790551181101
0
LINE
8
BLACK
6
CONTINUOUS
10
0.428793188976378
20
1.3921790551181101
11
0.4299314173228346
21
1.390475590551181
0
LINE
8
BLACK
6
CONTINUOUS
10
0.4299314173228346
20
1.390475590551181
11
0.4333889763779528
21
1.387018031496063
0
LINE
8
BLACK
6
CONTINUOUS
10
0.4333889763779528
20
1.387018031496063
11
0.4358127559055118
21
1.3853985039370078
0
LINE
8
BLACK
6
CONTINUOUS
10
0.4358127559055118
20
1.3853985039370078
11
0.4374542913385827
21
1.384301653543307
0
LINE
8
BLACK
6
CONTINUOUS
10
0.4374542913385827
20
1.384301653543307
11
0.4374544488188976
21
1.3843015748031495
0
LINE
8
BLACK
6
CONTINUOUS
10
0.4374544488188976
20
1.3843015748031495
11
0.4374545669291339
21
1.384301496062992
0
LINE
8
BLACK
6
CONTINUOUS
10
0.4374545669291339
20
1.384301496062992
11
0.4419720472440945
21
1.3824302755905511
0
LINE
8
BLACK
6
CONTINUOUS
10
0.4419720472440945
20
1.3824302755905511
11
0.4467677559055118
21
1.3814763779527559
0
LINE
8
BLACK
6
CONTINUOUS
10
0.4467677559055118
20
1.3814763779527559
11
0.4467678346456693
21
1.3814763779527559
0
LINE
8
BLACK
6
CONTINUOUS
10
0.4467678346456693
20
1.3814763779527559
11
0.4516573622047244
21
1.3814763779527559
0
LINE
8
BLACK
6
CONTINUOUS
10
0.4516573622047244
20
1.3814763779527559
11
0.4516574409448819
21
1.3814763779527559
0
LINE
8
BLACK
6
CONTINUOUS
10
0.4516574409448819
20
1.3814763779527559
11
0.4564531496062992
21
1.3824302755905511
0
LINE
8
BLACK
6
CONTINUOUS
10
0.4564531496062992
20
1.3824302755905511
11
0.459136811023622
21
1.3835419291338582
0
LINE
8
BLACK
6
CONTINUOUS
10
0.459136811023622
20
1.3835419291338582
11
0.4606283464566929
21
1.3838385826771653
0
LINE
8
BLACK
6
CONTINUOUS
10
0.4606283464566929
20
1.3838385826771653
11
0.8739809448818897
21
1.3838385826771653
0
LINE
8
BLACK
6
CONTINUOUS
10
0.8739809448818897
20
1.3838385826771653
11
0.8761463385826771
21
1.3831817322834645
0
LINE
8
BLACK
6
CONTINUOUS
10
0.8761463385826771
20
1.3831817322834645
11
0.878005748031496
21
1.3819392913385826
0
LINE
8
BLACK
6
CONTINUOUS
10
0.878005748031496
20
1.3819392913385826
11
0.8825232283464567
21
1.3800680708661417
0
LINE
8
BLACK
6
CONTINUOUS
10
0.8825232283464567
20
1.3800680708661417
11
0.887318937007874
21
1.3791141732283465
0
LINE
8
BLACK
6
CONTINUOUS
10
0.887318937007874
20
1.3791141732283465
11
0.8873190157480315
21
1.3791141732283465
0
LINE
8
BLACK
6
CONTINUOUS
10
0.8873190157480315
20
1.3791141732283465
11
0.8922085433070865
21
1.3791141732283465
0
LINE
8
BLACK
6
CONTINUOUS
10
0.8922085433070865
20
1.3791141732283465
11
0.892208622047244
21
1.3791141732283465
0
LINE
8
BLACK
6
CONTINUOUS
10
0.892208622047244
20
1.3791141732283465
11
0.8970043307086614
21
1.3800680708661417
0
LINE
8
BLACK
6
CONTINUOUS
10
0.8970043307086614
20
1.3800680708661417
11
0.9015218110236221
21
1.3819392913385826
0
LINE
8
BLACK
6
CONTINUOUS
10
0.9015218110236221
20
1.3819392913385826
11
0.9055874015748031
21
1.3846558267716536
0
LINE
8
BLACK
6
CONTINUOUS
10
0.9055874015748031
20
1.3846558267716536
11
0.9090449606299212
21
1.3881133858267716
0
LINE
8
BLACK
6
CONTINUOUS
10
0.9090449606299212
20
1.3881133858267716
11
0.9117614960629921
21
1.3921789763779526
0
LINE
8
BLACK
6
CONTINUOUS
10
0.9117614960629921
20
1.3921789763779526
11
0.9136327165354331
21
1.3966964566929134
0
LINE
8
BLACK
6
CONTINUOUS
10
0.9136327165354331
20
1.3966964566929134
11
0.9145866141732283
21
1.4014921653543306
0
LINE
8
BLACK
6
CONTINUOUS
10
0.9145866141732283
20
1.4014921653543306
11
0.9145866141732283
21
1.4063818503937007
0
LINE
8
BLACK
6
CONTINUOUS
10
0.9145866141732283
20
1.4063818503937007
11
0.9136327165354331
21
1.4111775590551181
0
LINE
8
BLACK
6
CONTINUOUS
10
0.9136327165354331
20
1.4111775590551181
11
0.9117614960629921
21
1.4156950393700787
0
LINE
8
BLACK
6
CONTINUOUS
10
0.9117614960629921
20
1.4156950393700787
11
0.9117614173228347
21
1.4156951574803149
0
LINE
8
BLACK
6
CONTINUOUS
10
0.9117614173228347
20
1.4156951574803149
11
0.9117613385826772
21
1.4156953149606299
0
LINE
8
BLACK
6
CONTINUOUS
10
0.9117613385826772
20
1.4156953149606299
11
0.9101831102362204
21
1.4180572440944881
0
LINE
8
BLACK
6
CONTINUOUS
10
0.9101831102362204
20
1.4180572440944881
11
0.9090449606299212
21
1.4197606299212597
0
LINE
8
BLACK
6
CONTINUOUS
10
0.9090449606299212
20
1.4197606299212597
11
0.9055874015748031
21
1.423218188976378
0
LINE
8
BLACK
6
CONTINUOUS
10
0.9055874015748031
20
1.423218188976378
11
0.9039677952755906
21
1.4243003543307087
0
LINE
8
BLACK
6
CONTINUOUS
10
0.9039677952755906
20
1.4243003543307087
11
0.9015220472440945
21
1.4259346062992126
0
LINE
8
BLACK
6
CONTINUOUS
10
0.9015220472440945
20
1.4259346062992126
11
0.9015217322834645
21
1.4259347637795274
0
LINE
8
BLACK
6
CONTINUOUS
10
0.9015217322834645
20
1.4259347637795274
11
0.8970042519685039
21
1.4278059842519684
0
LINE
8
BLACK
6
CONTINUOUS
10
0.8970042519685039
20
1.4278059842519684
11
0.8922087007874016
21
1.428759842519685
0
LINE
8
BLACK
6
CONTINUOUS
10
0.8922087007874016
20
1.428759842519685
11
0.892208622047244
21
1.428759842519685
0
LINE
8
BLACK
6
CONTINUOUS
10
0.892208622047244
20
1.428759842519685
11
0.887318937007874
21
1.428759842519685
0
LINE
8
BLACK
6
CONTINUOUS
10
0.887318937007874
20
1.428759842519685
11
0.8873188188976378
21
1.428759842519685
0
LINE
8
BLACK
6
CONTINUOUS
10
0.8873188188976378
20
1.428759842519685
11
0.8825233070866142
21
1.4278059842519684
0
LINE
8
BLACK
6
CONTINUOUS
10
0.8825233070866142
20
1.4278059842519684
11
0.8825230708661417
21
1.4278059055118111
0
LINE
8
BLACK
6
CONTINUOUS
10
0.8825230708661417
20
1.4278059055118111
11
0.8817405118110236
21
1.4274817322834645
0
LINE
8
BLACK
6
CONTINUOUS
10
0.8817405118110236
20
1.4274817322834645
11
0.880248937007874
21
1.4271850393700787
0
LINE
8
BLACK
6
CONTINUOUS
10
0.880248937007874
20
1.4271850393700787
11
0.4638170078740158
21
1.4271850393700787
0
LINE
8
BLACK
6
CONTINUOUS
10
0.4638170078740158
20
1.4271850393700787
11
0.4616515748031496
21
1.4278419291338582
0
LINE
8
BLACK
6
CONTINUOUS
10
0.4616515748031496
20
1.4278419291338582
11
0.4609705905511811
21
1.4282969685039371
0
LINE
8
BLACK
6
CONTINUOUS
10
0.4609705905511811
20
1.4282969685039371
11
0.4564530708661417
21
1.430168188976378
0
LINE
8
BLACK
6
CONTINUOUS
10
0.4564530708661417
20
1.430168188976378
11
0.4516575196850394
21
1.4311220472440944
0
LINE
8
BLACK
6
CONTINUOUS
10
0.4516575196850394
20
1.4311220472440944
11
0.4516574409448819
21
1.4311220472440944
0
LINE
8
BLACK
6
CONTINUOUS
10
0.4516574409448819
20
1.4311220472440944
11
0.4467677559055118
21
1.4311220472440944
0
LINE
8
BLACK
6
CONTINUOUS
10
0.4467677559055118
20
1.4311220472440944
11
0.4467676377952756
21
1.4311220472440944
0
LINE
8
BLACK
6
CONTINUOUS
10
0.4467676377952756
20
1.4311220472440944
11
0.4419720866141732
21
1.430168188976378
0
LINE
8
BLACK
6
CONTINUOUS
10
0.4419720866141732
20
1.430168188976378
11
0.4374546062992126
21
1.4282969685039371
0
LINE
8
BLACK
6
CONTINUOUS
10
0.4374546062992126
20
1.4282969685039371
11
0.4374542913385827
21
1.428296811023622
0
LINE
8
BLACK
6
CONTINUOUS
10
0.4374542913385827
20
1.428296811023622
11
0.4333889763779528
21
1.4255803937007874
0
LINE
8
BLACK
6
CONTINUOUS
10
0.4333889763779528
20
1.4255803937007874
11
0.4333888188976378
21
1.4255802755905511
0
LINE
8
BLACK
6
CONTINUOUS
10
0.4333888188976378
20
1.4255802755905511
11
0.4299315354330708
21
1.4221229921259841
0
LINE
8
BLACK
6
CONTINUOUS
10
0.4299315354330708
20
1.4221229921259841
11
0.4299314173228346
21
1.4221228346456694
0
LINE
8
BLACK
6
CONTINUOUS
10
0.4299314173228346
20
1.4221228346456694
11
0.427215
21
1.4180575196850393
0
LINE
8
BLACK
6
CONTINUOUS
10
0.427215
20
1.4180575196850393
11
0.4272148425196851
21
1.4180572047244093
0
LINE
8
BLACK
6
CONTINUOUS
10
0.4272148425196851
20
1.4180572047244093
11
0.4253436220472441
21
1.4135397244094488
0
LINE
8
BLACK
6
CONTINUOUS
10
0.4253436220472441
20
1.4135397244094488
11
0.4243897637795275
21
1.4087441732283463
0
LINE
8
BLACK
6
CONTINUOUS
10
0.4243897637795275
20
1.4087441732283463
11
0.4243897637795275
21
1.4038542913385827
0
LINE
8
BLACK
6
CONTINUOUS
10
0.3315747637795275
20
1.960109842519685
11
0.3315747244094488
21
1.9601099212598425
0
LINE
8
BLACK
6
CONTINUOUS
10
0.3315747244094488
20
1.9601099212598425
11
0.3314602362204724
21
1.9610974409448818
0
LINE
8
BLACK
6
CONTINUOUS
10
0.3314602362204724
20
1.9610974409448818
11
0.3296766141732284
21
1.9651369291338583
0
LINE
8
BLACK
6
CONTINUOUS
10
0.3296766141732284
20
1.9651369291338583
11
0.3265542125984252
21
1.9682593307086613
0
LINE
8
BLACK
6
CONTINUOUS
10
0.3265542125984252
20
1.9682593307086613
11
0.3225146456692913
21
1.9700429527559056
0
LINE
8
BLACK
6
CONTINUOUS
10
0.3225146456692913
20
1.9700429527559056
11
0.3215274409448819
21
1.9701574803149606
0
LINE
8
BLACK
6
CONTINUOUS
10
0.3215274409448819
20
1.9701574803149606
11
0.2996063385826772
21
1.9701574803149606
0
LINE
8
BLACK
6
CONTINUOUS
10
0.2996063385826772
20
1.9701574803149606
11
0.2996062992125984
21
1.9701574409448819
0
LINE
8
BLACK
6
CONTINUOUS
10
0.2996062992125984
20
1.9701574409448819
11
0.2996062992125984
21
1.9583464566929134
0
LINE
8
BLACK
6
CONTINUOUS
10
0.2996062992125984
20
1.9583464566929134
11
0.319763779527559
21
1.9583464566929134
0
LINE
8
BLACK
6
CONTINUOUS
10
0.319763779527559
20
1.9583464566929134
11
0.319763779527559
21
1.9381889763779527
0
LINE
8
BLACK
6
CONTINUOUS
10
0.319763779527559
20
1.9381889763779527
11
0.3315747244094488
21
1.9381889763779527
0
LINE
8
BLACK
6
CONTINUOUS
10
0.3315747244094488
20
1.9381889763779527
11
0.3315747637795275
21
1.9381890157480315
0
LINE
8
BLACK
6
CONTINUOUS
10
0.3315747637795275
20
1.9381890157480315
11
0.3315747637795275
21
1.9595874803149607
0
LINE
8
BLACK
6
CONTINUOUS
10
0.3315747637795275
20
1.9595874803149607
11
0.3315747637795275
21
1.960109842519685
0
LINE
8
BLACK
6
CONTINUOUS
10
0.2479528346456693
20
1.918503937007874
11
0.2479527952755906
21
1.9185038976377953
0
LINE
8
BLACK
6
CONTINUOUS
10
0.2479527952755906
20
1.9185038976377953
11
0.2479527952755906
21
1.896583031496063
0
LINE
8
BLACK
6
CONTINUOUS
10
0.2479527952755906
20
1.896583031496063
11
0.2480672834645669
21
1.8955955118110235
0
LINE
8
BLACK
6
CONTINUOUS
10
0.2480672834645669
20
1.8955955118110235
11
0.249850905511811
21
1.8915560236220472
0
LINE
8
BLACK
6
CONTINUOUS
10
0.249850905511811
20
1.8915560236220472
11
0.2529733070866141
21
1.888433622047244
0
LINE
8
BLACK
6
CONTINUOUS
10
0.2529733070866141
20
1.888433622047244
11
0.257012874015748
21
1.8866499999999999
0
LINE
8
BLACK
6
CONTINUOUS
10
0.257012874015748
20
1.8866499999999999
11
0.2580001181102362
21
1.8865354724409449
0
LINE
8
BLACK
6
CONTINUOUS
10
0.2580001181102362
20
1.8865354724409449
11
0.2799211811023622
21
1.8865354724409449
0
LINE
8
BLACK
6
CONTINUOUS
10
0.2799211811023622
20
1.8865354724409449
11
0.2799212598425197
21
1.8865355118110236
0
LINE
8
BLACK
6
CONTINUOUS
10
0.2799212598425197
20
1.8865355118110236
11
0.2799212598425197
21
1.8983464566929134
0
LINE
8
BLACK
6
CONTINUOUS
10
0.2799212598425197
20
1.8983464566929134
11
0.259763779527559
21
1.8983464566929134
0
LINE
8
BLACK
6
CONTINUOUS
10
0.259763779527559
20
1.8983464566929134
11
0.259763779527559
21
1.918503937007874
0
LINE
8
BLACK
6
CONTINUOUS
10
0.259763779527559
20
1.918503937007874
11
0.2479528346456693
21
1.918503937007874
0
LINE
8
BLACK
6
CONTINUOUS
10
0.319763779527559
20
1.8983464566929134
11
0.2996062992125984
21
1.8983464566929134
0
LINE
8
BLACK
6
CONTINUOUS
10
0.2996062992125984
20
1.8983464566929134
11
0.2996062992125984
21
1.8865355118110236
0
LINE
8
BLACK
6
CONTINUOUS
10
0.2996062992125984
20
1.8865355118110236
11
0.2996063385826772
21
1.8865354724409449
0
LINE
8
BLACK
6
CONTINUOUS
10
0.2996063385826772
20
1.8865354724409449
11
0.3215271653543307
21
1.8865354724409449
0
LINE
8
BLACK
6
CONTINUOUS
10
0.3215271653543307
20
1.8865354724409449
11
0.3215272047244094
21
1.8865355118110236
0
LINE
8
BLACK
6
CONTINUOUS
10
0.3215272047244094
20
1.8865355118110236
11
0.3225147244094488
21
1.8866499999999999
0
LINE
8
BLACK
6
CONTINUOUS
10
0.3225147244094488
20
1.8866499999999999
11
0.3265542125984252
21
1.888433622047244
0
LINE
8
BLACK
6
CONTINUOUS
10
0.3265542125984252
20
1.888433622047244
11
0.3296766141732284
21
1.8915560236220472
0
LINE
8
BLACK
6
CONTINUOUS
10
0.3296766141732284
20
1.8915560236220472
11
0.3314602362204724
21
1.895595590551181
0
LINE
8
BLACK
6
CONTINUOUS
10
0.3314602362204724
20
1.895595590551181
11
0.3315747637795275
21
1.8965827952755905
0
LINE
8
BLACK
6
CONTINUOUS
10
0.3315747637795275
20
1.8965827952755905
11
0.3315748031496063
21
1.896582874015748
0
LINE
8
BLACK
6
CONTINUOUS
10
0.3315748031496063
20
1.896582874015748
11
0.3315748031496063
21
1.9185038976377953
0
LINE
8
BLACK
6
CONTINUOUS
10
0.3315748031496063
20
1.9185038976377953
11
0.3315747637795275
21
1.918503937007874
0
LINE
8
BLACK
6
CONTINUOUS
10
0.3315747637795275
20
1.918503937007874
11
0.319763779527559
21
1.918503937007874
0
LINE
8
BLACK
6
CONTINUOUS
10
0.319763779527559
20
1.918503937007874
11
0.319763779527559
21
1.8983464566929134
0
LINE
8
BLACK
6
CONTINUOUS
10
0.343996062992126
20
1.8971054724409449
11
0.3439961023622047
21
1.8971053937007873
0
LINE
8
BLACK
6
CONTINUOUS
10
0.3439961023622047
20
1.8971053937007873
11
0.3445807874015748
21
1.8934134251968504
0
LINE
8
BLACK
6
CONTINUOUS
10
0.3445807874015748
20
1.8934134251968504
11
0.3445808661417323
21
1.8934132283464566
0
LINE
8
BLACK
6
CONTINUOUS
10
0.3445808661417323
20
1.8934132283464566
11
0.3468484251968504
21
1.8889629133858268
0
LINE
8
BLACK
6
CONTINUOUS
10
0.3468484251968504
20
1.8889629133858268
11
0.3503802362204724
21
1.8854311023622048
0
LINE
8
BLACK
6
CONTINUOUS
10
0.3503802362204724
20
1.8854311023622048
11
0.3548305511811023
21
1.8831635433070866
0
LINE
8
BLACK
6
CONTINUOUS
10
0.3548305511811023
20
1.8831635433070866
11
0.358522874015748
21
1.8825787401574803
0
LINE
8
BLACK
6
CONTINUOUS
10
0.358522874015748
20
1.8825787401574803
11
0.4210046456692914
21
1.882578779527559
0
LINE
8
BLACK
6
CONTINUOUS
10
0.4210046456692914
20
1.882578779527559
11
0.4210047637795276
21
1.882578779527559
0
LINE
8
BLACK
6
CONTINUOUS
10
0.4210047637795276
20
1.882578779527559
11
0.4210048031496063
21
1.8825788188976378
0
LINE
8
BLACK
6
CONTINUOUS
10
0.4210048031496063
20
1.8825788188976378
11
0.4228508267716535
21
1.8828711811023622
0
LINE
8
BLACK
6
CONTINUOUS
10
0.4228508267716535
20
1.8828711811023622
11
0.4246968110236221
21
1.8831635039370078
0
LINE
8
BLACK
6
CONTINUOUS
10
0.4246968110236221
20
1.8831635039370078
11
0.4246968110236221
21
1.8831635433070866
0
LINE
8
BLACK
6
CONTINUOUS
10
0.4246968110236221
20
1.8831635433070866
11
0.4246970078740158
21
1.8831635433070866
0
LINE
8
BLACK
6
CONTINUOUS
10
0.4246970078740158
20
1.8831635433070866
11
0.4291473228346457
21
1.8854311023622048
0
LINE
8
BLACK
6
CONTINUOUS
10
0.4291473228346457
20
1.8854311023622048
11
0.4326791338582677
21
1.8889629133858268
0
LINE
8
BLACK
6
CONTINUOUS
10
0.4326791338582677
20
1.8889629133858268
11
0.4349466929133858
21
1.8934132283464566
0
LINE
8
BLACK
6
CONTINUOUS
10
0.4349466929133858
20
1.8934132283464566
11
0.4355314960629921
21
1.8971055511811024
0
LINE
8
BLACK
6
CONTINUOUS
10
0.4355314960629921
20
1.8971055511811024
11
0.4355314566929134
21
1.9595873228346457
0
LINE
8
BLACK
6
CONTINUOUS
10
0.4355314566929134
20
1.9595873228346457
11
0.4355314173228346
21
1.9595874803149607
0
LINE
8
BLACK
6
CONTINUOUS
10
0.4355314173228346
20
1.9595874803149607
11
0.4355314173228346
21
1.9595875984251967
0
LINE
8
BLACK
6
CONTINUOUS
10
0.4355314173228346
20
1.9595875984251967
11
0.4349467322834645
21
1.9632795275590551
0
LINE
8
BLACK
6
CONTINUOUS
10
0.4349467322834645
20
1.9632795275590551
11
0.4349466929133858
21
1.9632796062992126
0
LINE
8
BLACK
6
CONTINUOUS
10
0.4349466929133858
20
1.9632796062992126
11
0.4349466929133858
21
1.9632796850393701
0
LINE
8
BLACK
6
CONTINUOUS
10
0.4349466929133858
20
1.9632796850393701
11
0.4326791338582677
21
1.96773
0
LINE
8
BLACK
6
CONTINUOUS
10
0.4326791338582677
20
1.96773
11
0.4291473228346457
21
1.971261811023622
0
LINE
8
BLACK
6
CONTINUOUS
10
0.4291473228346457
20
1.971261811023622
11
0.4246970078740158
21
1.9735293700787402
0
LINE
8
BLACK
6
CONTINUOUS
10
0.4246970078740158
20
1.9735293700787402
11
0.4246970472440945
21
1.9735293700787402
0
LINE
8
BLACK
6
CONTINUOUS
10
0.4246970472440945
20
1.9735293700787402
11
0.4210047637795276
21
1.9741141732283465
0
LINE
8
BLACK
6
CONTINUOUS
10
0.4210047637795276
20
1.9741141732283465
11
0.3585227559055118
21
1.9741141732283465
0
LINE
8
BLACK
6
CONTINUOUS
10
0.3585227559055118
20
1.9741141732283465
11
0.3585226771653543
21
1.9741141338582677
0
LINE
8
BLACK
6
CONTINUOUS
10
0.3585226771653543
20
1.9741141338582677
11
0.3548307086614173
21
1.9735294488188977
0
LINE
8
BLACK
6
CONTINUOUS
10
0.3548307086614173
20
1.9735294488188977
11
0.3548305118110236
21
1.9735293700787402
0
LINE
8
BLACK
6
CONTINUOUS
10
0.3548305118110236
20
1.9735293700787402
11
0.3503802755905512
21
1.9712618503937007
0
LINE
8
BLACK
6
CONTINUOUS
10
0.3503802755905512
20
1.9712618503937007
11
0.3468483858267716
21
1.9677299606299212
0
LINE
8
BLACK
6
CONTINUOUS
10
0.3468483858267716
20
1.9677299606299212
11
0.3445808661417323
21
1.9632797244094489
0
LINE
8
BLACK
6
CONTINUOUS
10
0.3445808661417323
20
1.9632797244094489
11
0.343996062992126
21
1.9595874803149607
0
LINE
8
BLACK
6
CONTINUOUS
10
0.343996062992126
20
1.9595874803149607
11
0.343996062992126
21
1.8971054724409449
0
LINE
8
BLACK
6
CONTINUOUS
10
0.443996062992126
20
1.8971054724409449
11
0.4439961023622047
21
1.8971053937007873
0
LINE
8
BLACK
6
CONTINUOUS
10
0.4439961023622047
20
1.8971053937007873
11
0.4445807874015748
21
1.8934134251968504
0
LINE
8
BLACK
6
CONTINUOUS
10
0.4445807874015748
20
1.8934134251968504
11
0.4445808661417323
21
1.8934132283464566
0
LINE
8
BLACK
6
CONTINUOUS
10
0.4445808661417323
20
1.8934132283464566
11
0.4468484251968504
21
1.8889629133858268
0
LINE
8
BLACK
6
CONTINUOUS
10
0.4468484251968504
20
1.8889629133858268
11
0.4503802362204724
21
1.8854311023622048
0
LINE
8
BLACK
6
CONTINUOUS
10
0.4503802362204724
20
1.8854311023622048
11
0.4548305511811023
21
1.8831635433070866
0
LINE
8
BLACK
6
CONTINUOUS
10
0.4548305511811023
20
1.8831635433070866
11
0.458522874015748
21
1.8825787401574803
0
LINE
8
BLACK
6
CONTINUOUS
10
0.458522874015748
20
1.8825787401574803
11
0.5210046456692913
21
1.882578779527559
0
LINE
8
BLACK
6
CONTINUOUS
10
0.5210046456692913
20
1.882578779527559
11
0.5210047637795275
21
1.882578779527559
0
LINE
8
BLACK
6
CONTINUOUS
10
0.5210047637795275
20
1.882578779527559
11
0.5210048031496063
21
1.8825788188976378
0
LINE
8
BLACK
6
CONTINUOUS
10
0.5210048031496063
20
1.8825788188976378
11
0.5228508267716535
21
1.8828711811023622
0
LINE
8
BLACK
6
CONTINUOUS
10
0.5228508267716535
20
1.8828711811023622
11
0.5246968110236221
21
1.8831635039370078
0
LINE
8
BLACK
6
CONTINUOUS
10
0.5246968110236221
20
1.8831635039370078
11
0.5246968110236221
21
1.8831635433070866
0
LINE
8
BLACK
6
CONTINUOUS
10
0.5246968110236221
20
1.8831635433070866
11
0.5246970078740157
21
1.8831635433070866
0
LINE
8
BLACK
6
CONTINUOUS
10
0.5246970078740157
20
1.8831635433070866
11
0.5291473228346456
21
1.8854311023622048
0
LINE
8
BLACK
6
CONTINUOUS
10
0.5291473228346456
20
1.8854311023622048
11
0.5326791338582677
21
1.8889629133858268
0
LINE
8
BLACK
6
CONTINUOUS
10
0.5326791338582677
20
1.8889629133858268
11
0.5349466929133858
21
1.8934132283464566
0
LINE
8
BLACK
6
CONTINUOUS
10
0.5349466929133858
20
1.8934132283464566
11
0.5355314960629921
21
1.8971055511811024
0
LINE
8
BLACK
6
CONTINUOUS
10
0.5355314960629921
20
1.8971055511811024
11
0.5355314566929134
21
1.9595873228346457
0
LINE
8
BLACK
6
CONTINUOUS
10
0.5355314566929134
20
1.9595873228346457
11
0.5355314173228346
21
1.9595874803149607
0
LINE
8
BLACK
6
CONTINUOUS
10
0.5355314173228346
20
1.9595874803149607
11
0.5355314173228346
21
1.9595875984251967
0
LINE
8
BLACK
6
CONTINUOUS
10
0.5355314173228346
20
1.9595875984251967
11
0.5349467322834646
21
1.9632795275590551
0
LINE
8
BLACK
6
CONTINUOUS
10
0.5349467322834646
20
1.9632795275590551
11
0.5349466929133858
21
1.9632796062992126
0
LINE
8
BLACK
6
CONTINUOUS
10
0.5349466929133858
20
1.9632796062992126
11
0.5349466929133858
21
1.9632796850393701
0
LINE
8
BLACK
6
CONTINUOUS
10
0.5349466929133858
20
1.9632796850393701
11
0.5326791338582677
21
1.96773
0
LINE
8
BLACK
6
CONTINUOUS
10
0.5326791338582677
20
1.96773
11
0.5291473228346456
21
1.971261811023622
0
LINE
8
BLACK
6
CONTINUOUS
10
0.5291473228346456
20
1.971261811023622
11
0.5246970078740157
21
1.9735293700787402
0
LINE
8
BLACK
6
CONTINUOUS
10
0.5246970078740157
20
1.9735293700787402
11
0.5246970472440945
21
1.9735293700787402
0
LINE
8
BLACK
6
CONTINUOUS
10
0.5246970472440945
20
1.9735293700787402
11
0.5210047637795275
21
1.9741141732283465
0
LINE
8
BLACK
6
CONTINUOUS
10
0.5210047637795275
20
1.9741141732283465
11
0.4585227559055118
21
1.9741141732283465
0
LINE
8
BLACK
6
CONTINUOUS
10
0.4585227559055118
20
1.9741141732283465
11
0.4585226771653543
21
1.9741141338582677
0
LINE
8
BLACK
6
CONTINUOUS
10
0.4585226771653543
20
1.9741141338582677
11
0.4548307086614173
21
1.9735294488188977
0
LINE
8
BLACK
6
CONTINUOUS
10
0.4548307086614173
20
1.9735294488188977
11
0.4548305118110236
21
1.9735293700787402
0
LINE
8
BLACK
6
CONTINUOUS
10
0.4548305118110236
20
1.9735293700787402
11
0.4503802755905512
21
1.9712618503937007
0
LINE
8
BLACK
6
CONTINUOUS
10
0.4503802755905512
20
1.9712618503937007
11
0.4468483858267717
21
1.9677299606299212
0
LINE
8
BLACK
6
CONTINUOUS
10
0.4468483858267717
20
1.9677299606299212
11
0.4445808661417323
21
1.9632797244094489
0
LINE
8
BLACK
6
CONTINUOUS
10
0.4445808661417323
20
1.9632797244094489
11
0.443996062992126
21
1.9595874803149607
0
LINE
8
BLACK
6
CONTINUOUS
10
0.443996062992126
20
1.9595874803149607
11
0.443996062992126
21
1.8971054724409449
0
LINE
8
BLACK
6
CONTINUOUS
10
0.543996062992126
20
1.8971054724409449
11
0.5439961023622047
21
1.8971053937007873
0
LINE
8
BLACK
6
CONTINUOUS
10
0.5439961023622047
20
1.8971053937007873
11
0.5445807874015748
21
1.8934134251968504
0
LINE
8
BLACK
6
CONTINUOUS
10
0.5445807874015748
20
1.8934134251968504
11
0.5445808661417323
21
1.8934132283464566
0
LINE
8
BLACK
6
CONTINUOUS
10
0.5445808661417323
20
1.8934132283464566
11
0.5468484251968504
21
1.8889629133858268
0
LINE
8
BLACK
6
CONTINUOUS
10
0.5468484251968504
20
1.8889629133858268
11
0.5503802362204724
21
1.8854311023622048
0
LINE
8
BLACK
6
CONTINUOUS
10
0.5503802362204724
20
1.8854311023622048
11
0.5548305511811024
21
1.8831635433070866
0
LINE
8
BLACK
6
CONTINUOUS
10
0.5548305511811024
20
1.8831635433070866
11
0.5585228740157481
21
1.8825787401574803
0
LINE
8
BLACK
6
CONTINUOUS
10
0.5585228740157481
20
1.8825787401574803
11
0.6210046456692914
21
1.882578779527559
0
LINE
8
BLACK
6
CONTINUOUS
10
0.6210046456692914
20
1.882578779527559
11
0.6210047637795275
21
1.882578779527559
0
LINE
8
BLACK
6
CONTINUOUS
10
0.6210047637795275
20
1.882578779527559
11
0.6210048031496063
21
1.8825788188976378
0
LINE
8
BLACK
6
CONTINUOUS
10
0.6210048031496063
20
1.8825788188976378
11
0.6228508267716535
21
1.8828711811023622
0
LINE
8
BLACK
6
CONTINUOUS
10
0.6228508267716535
20
1.8828711811023622
11
0.6246968110236221
21
1.8831635039370078
0
LINE
8
BLACK
6
CONTINUOUS
10
0.6246968110236221
20
1.8831635039370078
11
0.6246968110236221
21
1.8831635433070866
0
LINE
8
BLACK
6
CONTINUOUS
10
0.6246968110236221
20
1.8831635433070866
11
0.6246970078740157
21
1.8831635433070866
0
LINE
8
BLACK
6
CONTINUOUS
10
0.6246970078740157
20
1.8831635433070866
11
0.6291473228346457
21
1.8854311023622048
0
LINE
8
BLACK
6
CONTINUOUS
10
0.6291473228346457
20
1.8854311023622048
11
0.6326791338582677
21
1.8889629133858268
0
LINE
8
BLACK
6
CONTINUOUS
10
0.6326791338582677
20
1.8889629133858268
11
0.6349466929133858
21
1.8934132283464566
0
LINE
8
BLACK
6
CONTINUOUS
10
0.6349466929133858
20
1.8934132283464566
11
0.6355314960629921
21
1.8971055511811024
0
LINE
8
BLACK
6
CONTINUOUS
10
0.6355314960629921
20
1.8971055511811024
11
0.6355314566929133
21
1.9595873228346457
0
LINE
8
BLACK
6
CONTINUOUS
10
0.6355314566929133
20
1.9595873228346457
11
0.6355314173228346
21
1.9595874803149607
0
LINE
8
BLACK
6
CONTINUOUS
10
0.6355314173228346
20
1.9595874803149607
11
0.6355314173228346
21
1.9595875984251967
0
LINE
8
BLACK
6
CONTINUOUS
10
0.6355314173228346
20
1.9595875984251967
11
0.6349467322834645
21
1.9632795275590551
0
LINE
8
BLACK
6
CONTINUOUS
10
0.6349467322834645
20
1.9632795275590551
11
0.6349466929133858
21
1.9632796062992126
0
LINE
8
BLACK
6
CONTINUOUS
10
0.6349466929133858
20
1.9632796062992126
11
0.6349466929133858
21
1.9632796850393701
0
LINE
8
BLACK
6
CONTINUOUS
10
0.6349466929133858
20
1.9632796850393701
11
0.6326791338582677
21
1.96773
0
LINE
8
BLACK
6
CONTINUOUS
10
0.6326791338582677
20
1.96773
11
0.6291473228346457
21
1.971261811023622
0
LINE
8
BLACK
6
CONTINUOUS
10
0.6291473228346457
20
1.971261811023622
11
0.6246970078740157
21
1.9735293700787402
0
LINE
8
BLACK
6
CONTINUOUS
10
0.6246970078740157
20
1.9735293700787402
11
0.6246970472440945
21
1.9735293700787402
0
LINE
8
BLACK
6
CONTINUOUS
10
0.6246970472440945
20
1.9735293700787402
11
0.6210047637795275
21
1.9741141732283465
0
LINE
8
BLACK
6
CONTINUOUS
10
0.6210047637795275
20
1.9741141732283465
11
0.5585227559055118
21
1.9741141732283465
0
LINE
8
BLACK
6
CONTINUOUS
10
0.5585227559055118
20
1.9741141732283465
11
0.5585226771653543
21
1.9741141338582677
0
LINE
8
BLACK
6
CONTINUOUS
10
0.5585226771653543
20
1.9741141338582677
11
0.5548307086614173
21
1.9735294488188977
0
LINE
8
BLACK
6
CONTINUOUS
10
0.5548307086614173
20
1.9735294488188977
11
0.5548305118110236
21
1.9735293700787402
0
LINE
8
BLACK
6
CONTINUOUS
10
0.5548305118110236
20
1.9735293700787402
11
0.5503802755905511
21
1.9712618503937007
0
LINE
8
BLACK
6
CONTINUOUS
10
0.5503802755905511
20
1.9712618503937007
11
0.5468483858267716
21
1.9677299606299212
0
LINE
8
BLACK
6
CONTINUOUS
10
0.5468483858267716
20
1.9677299606299212
11
0.5445808661417323
21
1.9632797244094489
0
LINE
8
BLACK
6
CONTINUOUS
10
0.5445808661417323
20
1.9632797244094489
11
0.543996062992126
21
1.9595874803149607
0
LINE
8
BLACK
6
CONTINUOUS
10
0.543996062992126
20
1.9595874803149607
11
0.543996062992126
21
1.8971054724409449
0
LINE
8
BLACK
6
CONTINUOUS
10
0.643996062992126
20
1.8971054724409449
11
0.6439961023622047
21
1.8971053937007873
0
LINE
8
BLACK
6
CONTINUOUS
10
0.6439961023622047
20
1.8971053937007873
11
0.6445807874015748
21
1.8934134251968504
0
LINE
8
BLACK
6
CONTINUOUS
10
0.6445807874015748
20
1.8934134251968504
11
0.6445808661417323
21
1.8934132283464566
0
LINE
8
BLACK
6
CONTINUOUS
10
0.6445808661417323
20
1.8934132283464566
11
0.6468484251968504
21
1.8889629133858268
0
LINE
8
BLACK
6
CONTINUOUS
10
0.6468484251968504
20
1.8889629133858268
11
0.6503802362204725
21
1.8854311023622048
0
LINE
8
BLACK
6
CONTINUOUS
10
0.6503802362204725
20
1.8854311023622048
11
0.6548305511811023
21
1.8831635433070866
0
LINE
8
BLACK
6
CONTINUOUS
10
0.6548305511811023
20
1.8831635433070866
11
0.658522874015748
21
1.8825787401574803
0
LINE
8
BLACK
6
CONTINUOUS
10
0.658522874015748
20
1.8825787401574803
11
0.7210046456692913
21
1.882578779527559
0
LINE
8
BLACK
6
CONTINUOUS
10
0.7210046456692913
20
1.882578779527559
11
0.7210047637795275
21
1.882578779527559
0
LINE
8
BLACK
6
CONTINUOUS
10
0.7210047637795275
20
1.882578779527559
11
0.7210048031496062
21
1.8825788188976378
0
LINE
8
BLACK
6
CONTINUOUS
10
0.7210048031496062
20
1.8825788188976378
11
0.7228508267716536
21
1.8828711811023622
0
LINE
8
BLACK
6
CONTINUOUS
10
0.7228508267716536
20
1.8828711811023622
11
0.724696811023622
21
1.8831635039370078
0
LINE
8
BLACK
6
CONTINUOUS
10
0.724696811023622
20
1.8831635039370078
11
0.724696811023622
21
1.8831635433070866
0
LINE
8
BLACK
6
CONTINUOUS
10
0.724696811023622
20
1.8831635433070866
11
0.7246970078740157
21
1.8831635433070866
0
LINE
8
BLACK
6
CONTINUOUS
10
0.7246970078740157
20
1.8831635433070866
11
0.7291473228346457
21
1.8854311023622048
0
LINE
8
BLACK
6
CONTINUOUS
10
0.7291473228346457
20
1.8854311023622048
11
0.7326791338582677
21
1.8889629133858268
0
LINE
8
BLACK
6
CONTINUOUS
10
0.7326791338582677
20
1.8889629133858268
11
0.7349466929133858
21
1.8934132283464566
0
LINE
8
BLACK
6
CONTINUOUS
10
0.7349466929133858
20
1.8934132283464566
11
0.7355314960629921
21
1.8971055511811024
0
LINE
8
BLACK
6
CONTINUOUS
10
0.7355314960629921
20
1.8971055511811024
11
0.7355314566929134
21
1.9595873228346457
0
LINE
8
BLACK
6
CONTINUOUS
10
0.7355314566929134
20
1.9595873228346457
11
0.7355314173228347
21
1.9595874803149607
0
LINE
8
BLACK
6
CONTINUOUS
10
0.7355314173228347
20
1.9595874803149607
11
0.7355314173228347
21
1.9595875984251967
0
LINE
8
BLACK
6
CONTINUOUS
10
0.7355314173228347
20
1.9595875984251967
11
0.7349467322834645
21
1.9632795275590551
0
LINE
8
BLACK
6
CONTINUOUS
10
0.7349467322834645
20
1.9632795275590551
11
0.7349466929133858
21
1.9632796062992126
0
LINE
8
BLACK
6
CONTINUOUS
10
0.7349466929133858
20
1.9632796062992126
11
0.7349466929133858
21
1.9632796850393701
0
LINE
8
BLACK
6
CONTINUOUS
10
0.7349466929133858
20
1.9632796850393701
11
0.7326791338582677
21
1.96773
0
LINE
8
BLACK
6
CONTINUOUS
10
0.7326791338582677
20
1.96773
11
0.7291473228346457
21
1.971261811023622
0
LINE
8
BLACK
6
CONTINUOUS
10
0.7291473228346457
20
1.971261811023622
11
0.7246970078740157
21
1.9735293700787402
0
LINE
8
BLACK
6
CONTINUOUS
10
0.7246970078740157
20
1.9735293700787402
11
0.7246970472440944
21
1.9735293700787402
0
LINE
8
BLACK
6
CONTINUOUS
10
0.7246970472440944
20
1.9735293700787402
11
0.7210047637795275
21
1.9741141732283465
0
LINE
8
BLACK
6
CONTINUOUS
10
0.7210047637795275
20
1.9741141732283465
11
0.6585227559055118
21
1.9741141732283465
0
LINE
8
BLACK
6
CONTINUOUS
10
0.6585227559055118
20
1.9741141732283465
11
0.6585226771653543
21
1.9741141338582677
0
LINE
8
BLACK
6
CONTINUOUS
10
0.6585226771653543
20
1.9741141338582677
11
0.6548307086614173
21
1.9735294488188977
0
LINE
8
BLACK
6
CONTINUOUS
10
0.6548307086614173
20
1.9735294488188977
11
0.6548305118110236
21
1.9735293700787402
0
LINE
8
BLACK
6
CONTINUOUS
10
0.6548305118110236
20
1.9735293700787402
11
0.6503802755905511
21
1.9712618503937007
0
LINE
8
BLACK
6
CONTINUOUS
10
0.6503802755905511
20
1.9712618503937007
11
0.6468483858267716
21
1.9677299606299212
0
LINE
8
BLACK
6
CONTINUOUS
10
0.6468483858267716
20
1.9677299606299212
11
0.6445808661417323
21
1.9632797244094489
0
LINE
8
BLACK
6
CONTINUOUS
10
0.6445808661417323
20
1.9632797244094489
11
0.643996062992126
21
1.9595874803149607
0
LINE
8
BLACK
6
CONTINUOUS
10
0.643996062992126
20
1.9595874803149607
11
0.643996062992126
21
1.8971054724409449
0
LINE
8
BLACK
6
CONTINUOUS
10
0.743996062992126
20
1.8971054724409449
11
0.7439961023622047
21
1.8971053937007873
0
LINE
8
BLACK
6
CONTINUOUS
10
0.7439961023622047
20
1.8971053937007873
11
0.7445807874015747
21
1.8934134251968504
0
LINE
8
BLACK
6
CONTINUOUS
10
0.7445807874015747
20
1.8934134251968504
11
0.7445808661417322
21
1.8934132283464566
0
LINE
8
BLACK
6
CONTINUOUS
10
0.7445808661417322
20
1.8934132283464566
11
0.7468484251968504
21
1.8889629133858268
0
LINE
8
BLACK
6
CONTINUOUS
10
0.7468484251968504
20
1.8889629133858268
11
0.7503802362204725
21
1.8854311023622048
0
LINE
8
BLACK
6
CONTINUOUS
10
0.7503802362204725
20
1.8854311023622048
11
0.7548305511811023
21
1.8831635433070866
0
LINE
8
BLACK
6
CONTINUOUS
10
0.7548305511811023
20
1.8831635433070866
11
0.758522874015748
21
1.8825787401574803
0
LINE
8
BLACK
6
CONTINUOUS
10
0.758522874015748
20
1.8825787401574803
11
0.8210046456692913
21
1.882578779527559
0
LINE
8
BLACK
6
CONTINUOUS
10
0.8210046456692913
20
1.882578779527559
11
0.8210047637795276
21
1.882578779527559
0
LINE
8
BLACK
6
CONTINUOUS
10
0.8210047637795276
20
1.882578779527559
11
0.8210048031496063
21
1.8825788188976378
0
LINE
8
BLACK
6
CONTINUOUS
10
0.8210048031496063
20
1.8825788188976378
11
0.8228508267716536
21
1.8828711811023622
0
LINE
8
BLACK
6
CONTINUOUS
10
0.8228508267716536
20
1.8828711811023622
11
0.824696811023622
21
1.8831635039370078
0
LINE
8
BLACK
6
CONTINUOUS
10
0.824696811023622
20
1.8831635039370078
11
0.824696811023622
21
1.8831635433070866
0
LINE
8
BLACK
6
CONTINUOUS
10
0.824696811023622
20
1.8831635433070866
11
0.8246970078740157
21
1.8831635433070866
0
LINE
8
BLACK
6
CONTINUOUS
10
0.8246970078740157
20
1.8831635433070866
11
0.8291473228346457
21
1.8854311023622048
0
LINE
8
BLACK
6
CONTINUOUS
10
0.8291473228346457
20
1.8854311023622048
11
0.8326791338582678
21
1.8889629133858268
0
LINE
8
BLACK
6
CONTINUOUS
10
0.8326791338582678
20
1.8889629133858268
11
0.8349466929133859
21
1.8934132283464566
0
LINE
8
BLACK
6
CONTINUOUS
10
0.8349466929133859
20
1.8934132283464566
11
0.8355314960629922
21
1.8971055511811024
0
LINE
8
BLACK
6
CONTINUOUS
10
0.8355314960629922
20
1.8971055511811024
11
0.8355314566929134
21
1.9595873228346457
0
LINE
8
BLACK
6
CONTINUOUS
10
0.8355314566929134
20
1.9595873228346457
11
0.8355314173228346
21
1.9595874803149607
0
LINE
8
BLACK
6
CONTINUOUS
10
0.8355314173228346
20
1.9595874803149607
11
0.8355314173228346
21
1.9595875984251967
0
LINE
8
BLACK
6
CONTINUOUS
10
0.8355314173228346
20
1.9595875984251967
11
0.8349467322834645
21
1.9632795275590551
0
LINE
8
BLACK
6
CONTINUOUS
10
0.8349467322834645
20
1.9632795275590551
11
0.8349466929133859
21
1.9632796062992126
0
LINE
8
BLACK
6
CONTINUOUS
10
0.8349466929133859
20
1.9632796062992126
11
0.8349466929133859
21
1.9632796850393701
0
LINE
8
BLACK
6
CONTINUOUS
10
0.8349466929133859
20
1.9632796850393701
11
0.8326791338582678
21
1.96773
0
LINE
8
BLACK
6
CONTINUOUS
10
0.8326791338582678
20
1.96773
11
0.8291473228346457
21
1.971261811023622
0
LINE
8
BLACK
6
CONTINUOUS
10
0.8291473228346457
20
1.971261811023622
11
0.8246970078740157
21
1.9735293700787402
0
LINE
8
BLACK
6
CONTINUOUS
10
0.8246970078740157
20
1.9735293700787402
11
0.8246970472440944
21
1.9735293700787402
0
LINE
8
BLACK
6
CONTINUOUS
10
0.8246970472440944
20
1.9735293700787402
11
0.8210047637795276
21
1.9741141732283465
0
LINE
8
BLACK
6
CONTINUOUS
10
0.8210047637795276
20
1.9741141732283465
11
0.7585227559055118
21
1.9741141732283465
0
LINE
8
BLACK
6
CONTINUOUS
10
0.7585227559055118
20
1.9741141732283465
11
0.7585226771653543
21
1.9741141338582677
0
LINE
8
BLACK
6
CONTINUOUS
10
0.7585226771653543
20
1.9741141338582677
11
0.7548307086614173
21
1.9735294488188977
0
LINE
8
BLACK
6
CONTINUOUS
10
0.7548307086614173
20
1.9735294488188977
11
0.7548305118110236
21
1.9735293700787402
0
LINE
8
BLACK
6
CONTINUOUS
10
0.7548305118110236
20
1.9735293700787402
11
0.7503802755905512
21
1.9712618503937007
0
LINE
8
BLACK
6
CONTINUOUS
10
0.7503802755905512
20
1.9712618503937007
11
0.7468483858267716
21
1.9677299606299212
0
LINE
8
BLACK
6
CONTINUOUS
10
0.7468483858267716
20
1.9677299606299212
11
0.7445808661417322
21
1.9632797244094489
0
LINE
8
BLACK
6
CONTINUOUS
10
0.7445808661417322
20
1.9632797244094489
11
0.743996062992126
21
1.9595874803149607
0
LINE
8
BLACK
6
CONTINUOUS
10
0.743996062992126
20
1.9595874803149607
11
0.743996062992126
21
1.8971054724409449
0
LINE
8
BLACK
6
CONTINUOUS
10
0.8439960629921259
20
1.8971054724409449
11
0.8439961023622047
21
1.8971053937007873
0
LINE
8
BLACK
6
CONTINUOUS
10
0.8439961023622047
20
1.8971053937007873
11
0.8445807874015748
21
1.8934134251968504
0
LINE
8
BLACK
6
CONTINUOUS
10
0.8445807874015748
20
1.8934134251968504
11
0.8445808661417322
21
1.8934132283464566
0
LINE
8
BLACK
6
CONTINUOUS
10
0.8445808661417322
20
1.8934132283464566
11
0.8468484251968503
21
1.8889629133858268
0
LINE
8
BLACK
6
CONTINUOUS
10
0.8468484251968503
20
1.8889629133858268
11
0.8503802362204724
21
1.8854311023622048
0
LINE
8
BLACK
6
CONTINUOUS
10
0.8503802362204724
20
1.8854311023622048
11
0.8548305511811023
21
1.8831635433070866
0
LINE
8
BLACK
6
CONTINUOUS
10
0.8548305511811023
20
1.8831635433070866
11
0.858522874015748
21
1.8825787401574803
0
LINE
8
BLACK
6
CONTINUOUS
10
0.858522874015748
20
1.8825787401574803
11
0.9210046456692913
21
1.882578779527559
0
LINE
8
BLACK
6
CONTINUOUS
10
0.9210046456692913
20
1.882578779527559
11
0.9210047637795276
21
1.882578779527559
0
LINE
8
BLACK
6
CONTINUOUS
10
0.9210047637795276
20
1.882578779527559
11
0.9210048031496063
21
1.8825788188976378
0
LINE
8
BLACK
6
CONTINUOUS
10
0.9210048031496063
20
1.8825788188976378
11
0.9228508267716535
21
1.8828711811023622
0
LINE
8
BLACK
6
CONTINUOUS
10
0.9228508267716535
20
1.8828711811023622
11
0.924696811023622
21
1.8831635039370078
0
LINE
8
BLACK
6
CONTINUOUS
10
0.924696811023622
20
1.8831635039370078
11
0.924696811023622
21
1.8831635433070866
0
LINE
8
BLACK
6
CONTINUOUS
10
0.924696811023622
20
1.8831635433070866
11
0.9246970078740158
21
1.8831635433070866
0
LINE
8
BLACK
6
CONTINUOUS
10
0.9246970078740158
20
1.8831635433070866
11
0.9291473228346456
21
1.8854311023622048
0
LINE
8
BLACK
6
CONTINUOUS
10
0.9291473228346456
20
1.8854311023622048
11
0.9326791338582677
21
1.8889629133858268
0
LINE
8
BLACK
6
CONTINUOUS
10
0.9326791338582677
20
1.8889629133858268
11
0.9349466929133858
21
1.8934132283464566
0
LINE
8
BLACK
6
CONTINUOUS
10
0.9349466929133858
20
1.8934132283464566
11
0.9355314960629921
21
1.8971055511811024
0
LINE
8
BLACK
6
CONTINUOUS
10
0.9355314960629921
20
1.8971055511811024
11
0.9355314566929134
21
1.9595873228346457
0
LINE
8
BLACK
6
CONTINUOUS
10
0.9355314566929134
20
1.9595873228346457
11
0.9355314566929134
21
1.9595874409448819
0
LINE
8
BLACK
6
CONTINUOUS
10
0.9355314566929134
20
1.9595874409448819
11
0.9355314566929134
21
1.9595874803149607
0
LINE
8
BLACK
6
CONTINUOUS
10
0.9355314566929134
20
1.9595874803149607
11
0.9355314173228346
21
1.9595875590551182
0
LINE
8
BLACK
6
CONTINUOUS
10
0.9355314173228346
20
1.9595875590551182
11
0.9349467322834646
21
1.9632795275590551
0
LINE
8
BLACK
6
CONTINUOUS
10
0.9349467322834646
20
1.9632795275590551
11
0.9349466929133858
21
1.9632796062992126
0
LINE
8
BLACK
6
CONTINUOUS
10
0.9349466929133858
20
1.9632796062992126
11
0.9349466929133858
21
1.9632796850393701
0
LINE
8
BLACK
6
CONTINUOUS
10
0.9349466929133858
20
1.9632796850393701
11
0.9326791338582677
21
1.96773
0
LINE
8
BLACK
6
CONTINUOUS
10
0.9326791338582677
20
1.96773
11
0.9291473228346456
21
1.971261811023622
0
LINE
8
BLACK
6
CONTINUOUS
10
0.9291473228346456
20
1.971261811023622
11
0.9246970078740158
21
1.9735293700787402
0
LINE
8
BLACK
6
CONTINUOUS
10
0.9246970078740158
20
1.9735293700787402
11
0.9246970472440945
21
1.9735293700787402
0
LINE
8
BLACK
6
CONTINUOUS
10
0.9246970472440945
20
1.9735293700787402
11
0.9210047637795276
21
1.9741141732283465
0
LINE
8
BLACK
6
CONTINUOUS
10
0.9210047637795276
20
1.9741141732283465
11
0.8585227559055117
21
1.9741141732283465
0
LINE
8
BLACK
6
CONTINUOUS
10
0.8585227559055117
20
1.9741141732283465
11
0.8585226771653544
21
1.9741141338582677
0
LINE
8
BLACK
6
CONTINUOUS
10
0.8585226771653544
20
1.9741141338582677
11
0.8548307086614173
21
1.9735294488188977
0
LINE
8
BLACK
6
CONTINUOUS
10
0.8548307086614173
20
1.9735294488188977
11
0.8548305118110237
21
1.9735293700787402
0
LINE
8
BLACK
6
CONTINUOUS
10
0.8548305118110237
20
1.9735293700787402
11
0.8503802755905512
21
1.9712618503937007
0
LINE
8
BLACK
6
CONTINUOUS
10
0.8503802755905512
20
1.9712618503937007
11
0.8468483858267717
21
1.9677299606299212
0
LINE
8
BLACK
6
CONTINUOUS
10
0.8468483858267717
20
1.9677299606299212
11
0.8445808661417322
21
1.9632797244094489
0
LINE
8
BLACK
6
CONTINUOUS
10
0.8445808661417322
20
1.9632797244094489
11
0.8439960629921259
21
1.9595874803149607
0
LINE
8
BLACK
6
CONTINUOUS
10
0.8439960629921259
20
1.9595874803149607
11
0.8439960629921259
21
1.8971054724409449
0
LINE
8
BLACK
6
CONTINUOUS
10
0.2580002755905512
20
1.9701574409448819
11
0.2570127952755906
21
1.9700429527559056
0
LINE
8
BLACK
6
CONTINUOUS
10
0.2570127952755906
20
1.9700429527559056
11
0.2529733070866141
21
1.9682593307086613
0
LINE
8
BLACK
6
CONTINUOUS
10
0.2529733070866141
20
1.9682593307086613
11
0.249850905511811
21
1.9651369291338583
0
LINE
8
BLACK
6
CONTINUOUS
10
0.249850905511811
20
1.9651369291338583
11
0.2480672834645669
21
1.9610973622047243
0
LINE
8
BLACK
6
CONTINUOUS
10
0.2480672834645669
20
1.9610973622047243
11
0.2479527559055118
21
1.9601101574803148
0
LINE
8
BLACK
6
CONTINUOUS
10
0.2479527559055118
20
1.9601101574803148
11
0.2479527559055118
21
1.9381890157480315
0
LINE
8
BLACK
6
CONTINUOUS
10
0.2479527559055118
20
1.9381890157480315
11
0.2479527952755906
21
1.9381889763779527
0
LINE
8
BLACK
6
CONTINUOUS
10
0.2479527952755906
20
1.9381889763779527
11
0.259763779527559
21
1.9381889763779527
0
LINE
8
BLACK
6
CONTINUOUS
10
0.259763779527559
20
1.9381889763779527
11
0.259763779527559
21
1.9583464566929134
0
LINE
8
BLACK
6
CONTINUOUS
10
0.259763779527559
20
1.9583464566929134
11
0.2799212598425197
21
1.9583464566929134
0
LINE
8
BLACK
6
CONTINUOUS
10
0.2799212598425197
20
1.9583464566929134
11
0.2799212598425197
21
1.9701574409448819
0
LINE
8
BLACK
6
CONTINUOUS
10
0.2799212598425197
20
1.9701574409448819
11
0.2799212204724409
21
1.9701574803149606
0
LINE
8
BLACK
6
CONTINUOUS
10
0.2799212204724409
20
1.9701574803149606
11
0.2580003937007874
21
1.9701574803149606
0
LINE
8
BLACK
6
CONTINUOUS
10
0.2580003937007874
20
1.9701574803149606
11
0.2580002755905512
21
1.9701574409448819
0
LINE
8
BLACK
6
CONTINUOUS
10
0.3315747637795275
20
2.0601098425196849
11
0.3315747244094488
21
2.0601099212598424
0
LINE
8
BLACK
6
CONTINUOUS
10
0.3315747244094488
20
2.0601099212598424
11
0.3314602362204724
21
2.0610974409448817
0
LINE
8
BLACK
6
CONTINUOUS
10
0.3314602362204724
20
2.0610974409448817
11
0.3296766141732284
21
2.0651369291338582
0
LINE
8
BLACK
6
CONTINUOUS
10
0.3296766141732284
20
2.0651369291338582
11
0.3265542125984252
21
2.0682593307086612
0
LINE
8
BLACK
6
CONTINUOUS
10
0.3265542125984252
20
2.0682593307086612
11
0.3225146456692913
21
2.0700429527559057
0
LINE
8
BLACK
6
CONTINUOUS
10
0.3225146456692913
20
2.0700429527559057
11
0.3215274409448819
21
2.0701574803149607
0
LINE
8
BLACK
6
CONTINUOUS
10
0.3215274409448819
20
2.0701574803149607
11
0.2996063385826772
21
2.0701574803149607
0
LINE
8
BLACK
6
CONTINUOUS
10
0.2996063385826772
20
2.0701574803149607
11
0.2996062992125984
21
2.070157440944882
0
LINE
8
BLACK
6
CONTINUOUS
10
0.2996062992125984
20
2.070157440944882
11
0.2996062992125984
21
2.0583464566929135
0
LINE
8
BLACK
6
CONTINUOUS
10
0.2996062992125984
20
2.0583464566929135
11
0.319763779527559
21
2.0583464566929135
0
LINE
8
BLACK
6
CONTINUOUS
10
0.319763779527559
20
2.0583464566929135
11
0.319763779527559
21
2.0381889763779526
0
LINE
8
BLACK
6
CONTINUOUS
10
0.319763779527559
20
2.0381889763779526
11
0.3315747244094488
21
2.0381889763779526
0
LINE
8
BLACK
6
CONTINUOUS
10
0.3315747244094488
20
2.0381889763779526
11
0.3315747637795275
21
2.0381890157480314
0
LINE
8
BLACK
6
CONTINUOUS
10
0.3315747637795275
20
2.0381890157480314
11
0.3315747637795275
21
2.0595874803149608
0
LINE
8
BLACK
6
CONTINUOUS
10
0.3315747637795275
20
2.0595874803149608
11
0.3315747637795275
21
2.0601098425196849
0
LINE
8
BLACK
6
CONTINUOUS
10
0.2479528346456693
20
2.0185039370078739
11
0.2479527952755906
21
2.0185038976377951
0
LINE
8
BLACK
6
CONTINUOUS
10
0.2479527952755906
20
2.0185038976377951
11
0.2479527952755906
21
1.9965830314960629
0
LINE
8
BLACK
6
CONTINUOUS
10
0.2479527952755906
20
1.9965830314960629
11
0.2480672834645669
21
1.9955955118110236
0
LINE
8
BLACK
6
CONTINUOUS
10
0.2480672834645669
20
1.9955955118110236
11
0.249850905511811
21
1.9915560236220471
0
LINE
8
BLACK
6
CONTINUOUS
10
0.249850905511811
20
1.9915560236220471
11
0.2529733070866141
21
1.9884336220472441
0
LINE
8
BLACK
6
CONTINUOUS
10
0.2529733070866141
20
1.9884336220472441
11
0.257012874015748
21
1.98665
0
LINE
8
BLACK
6
CONTINUOUS
10
0.257012874015748
20
1.98665
11
0.2580001181102362
21
1.9865354724409447
0
LINE
8
BLACK
6
CONTINUOUS
10
0.2580001181102362
20
1.9865354724409447
11
0.2799211811023622
21
1.9865354724409447
0
LINE
8
BLACK
6
CONTINUOUS
10
0.2799211811023622
20
1.9865354724409447
11
0.2799212598425197
21
1.9865355118110235
0
LINE
8
BLACK
6
CONTINUOUS
10
0.2799212598425197
20
1.9865355118110235
11
0.2799212598425197
21
1.9983464566929134
0
LINE
8
BLACK
6
CONTINUOUS
10
0.2799212598425197
20
1.9983464566929134
11
0.259763779527559
21
1.9983464566929134
0
LINE
8
BLACK
6
CONTINUOUS
10
0.259763779527559
20
1.9983464566929134
11
0.259763779527559
21
2.0185039370078739
0
LINE
8
BLACK
6
CONTINUOUS
10
0.259763779527559
20
2.0185039370078739
11
0.2479528346456693
21
2.0185039370078739
0
LINE
8
BLACK
6
CONTINUOUS
10
0.319763779527559
20
1.9983464566929134
11
0.2996062992125984
21
1.9983464566929134
0
LINE
8
BLACK
6
CONTINUOUS
10
0.2996062992125984
20
1.9983464566929134
11
0.2996062992125984
21
1.9865355118110235
0
LINE
8
BLACK
6
CONTINUOUS
10
0.2996062992125984
20
1.9865355118110235
11
0.2996063385826772
21
1.9865354724409447
0
LINE
8
BLACK
6
CONTINUOUS
10
0.2996063385826772
20
1.9865354724409447
11
0.3215271653543307
21
1.9865354724409447
0
LINE
8
BLACK
6
CONTINUOUS
10
0.3215271653543307
20
1.9865354724409447
11
0.3215272047244094
21
1.9865355118110235
0
LINE
8
BLACK
6
CONTINUOUS
10
0.3215272047244094
20
1.9865355118110235
11
0.3225147244094488
21
1.98665
0
LINE
8
BLACK
6
CONTINUOUS
10
0.3225147244094488
20
1.98665
11
0.3265542125984252
21
1.9884336220472441
0
LINE
8
BLACK
6
CONTINUOUS
10
0.3265542125984252
20
1.9884336220472441
11
0.3296766141732284
21
1.9915560236220471
0
LINE
8
BLACK
6
CONTINUOUS
10
0.3296766141732284
20
1.9915560236220471
11
0.3314602362204724
21
1.9955955905511811
0
LINE
8
BLACK
6
CONTINUOUS
10
0.3314602362204724
20
1.9955955905511811
11
0.3315747637795275
21
1.9965827952755906
0
LINE
8
BLACK
6
CONTINUOUS
10
0.3315747637795275
20
1.9965827952755906
11
0.3315748031496063
21
1.9965828740157481
0
LINE
8
BLACK
6
CONTINUOUS
10
0.3315748031496063
20
1.9965828740157481
11
0.3315748031496063
21
2.0185038976377951
0
LINE
8
BLACK
6
CONTINUOUS
10
0.3315748031496063
20
2.0185038976377951
11
0.3315747637795275
21
2.0185039370078739
0
LINE
8
BLACK
6
CONTINUOUS
10
0.3315747637795275
20
2.0185039370078739
11
0.319763779527559
21
2.0185039370078739
0
LINE
8
BLACK
6
CONTINUOUS
10
0.319763779527559
20
2.0185039370078739
11
0.319763779527559
21
1.9983464566929134
0
LINE
8
BLACK
6
CONTINUOUS
10
0.343996062992126
20
1.9971054724409449
11
0.3439961023622047
21
1.9971053937007874
0
LINE
8
BLACK
6
CONTINUOUS
10
0.3439961023622047
20
1.9971053937007874
11
0.3445807874015748
21
1.9934134251968503
0
LINE
8
BLACK
6
CONTINUOUS
10
0.3445807874015748
20
1.9934134251968503
11
0.3445808661417323
21
1.9934132283464567
0
LINE
8
BLACK
6
CONTINUOUS
10
0.3445808661417323
20
1.9934132283464567
11
0.3468484251968504
21
1.9889629133858266
0
LINE
8
BLACK
6
CONTINUOUS
10
0.3468484251968504
20
1.9889629133858266
11
0.3503802362204724
21
1.9854311023622047
0
LINE
8
BLACK
6
CONTINUOUS
10
0.3503802362204724
20
1.9854311023622047
11
0.3548305511811023
21
1.9831635433070867
0
LINE
8
BLACK
6
CONTINUOUS
10
0.3548305511811023
20
1.9831635433070867
11
0.358522874015748
21
1.9825787401574804
0
LINE
8
BLACK
6
CONTINUOUS
10
0.358522874015748
20
1.9825787401574804
11
0.4210046456692914
21
1.9825787795275591
0
LINE
8
BLACK
6
CONTINUOUS
10
0.4210046456692914
20
1.9825787795275591
11
0.4210047637795276
21
1.9825787795275591
0
LINE
8
BLACK
6
CONTINUOUS
10
0.4210047637795276
20
1.9825787795275591
11
0.4210048031496063
21
1.9825788188976377
0
LINE
8
BLACK
6
CONTINUOUS
10
0.4210048031496063
20
1.9825788188976377
11
0.4228508267716535
21
1.9828711811023623
0
LINE
8
BLACK
6
CONTINUOUS
10
0.4228508267716535
20
1.9828711811023623
11
0.4246968110236221
21
1.9831635039370079
0
LINE
8
BLACK
6
CONTINUOUS
10
0.4246968110236221
20
1.9831635039370079
11
0.4246968110236221
21
1.9831635433070867
0
LINE
8
BLACK
6
CONTINUOUS
10
0.4246968110236221
20
1.9831635433070867
11
0.4246970078740158
21
1.9831635433070867
0
LINE
8
BLACK
6
CONTINUOUS
10
0.4246970078740158
20
1.9831635433070867
11
0.4291473228346457
21
1.9854311023622047
0
LINE
8
BLACK
6
CONTINUOUS
10
0.4291473228346457
20
1.9854311023622047
11
0.4326791338582677
21
1.9889629133858266
0
LINE
8
BLACK
6
CONTINUOUS
10
0.4326791338582677
20
1.9889629133858266
11
0.4349466929133858
21
1.9934132283464567
0
LINE
8
BLACK
6
CONTINUOUS
10
0.4349466929133858
20
1.9934132283464567
11
0.4355314960629921
21
1.9971055511811022
0
LINE
8
BLACK
6
CONTINUOUS
10
0.4355314960629921
20
1.9971055511811022
11
0.4355314566929134
21
2.0595873228346457
0
LINE
8
BLACK
6
CONTINUOUS
10
0.4355314566929134
20
2.0595873228346457
11
0.4355314173228346
21
2.0595874803149608
0
LINE
8
BLACK
6
CONTINUOUS
10
0.4355314173228346
20
2.0595874803149608
11
0.4355314173228346
21
2.059587598425197
0
LINE
8
BLACK
6
CONTINUOUS
10
0.4355314173228346
20
2.059587598425197
11
0.4349467322834645
21
2.0632795275590552
0
LINE
8
BLACK
6
CONTINUOUS
10
0.4349467322834645
20
2.0632795275590552
11
0.4349466929133858
21
2.0632796062992127
0
LINE
8
BLACK
6
CONTINUOUS
10
0.4349466929133858
20
2.0632796062992127
11
0.4349466929133858
21
2.0632796850393702
0
LINE
8
BLACK
6
CONTINUOUS
10
0.4349466929133858
20
2.0632796850393702
11
0.4326791338582677
21
2.0677300000000001
0
LINE
8
BLACK
6
CONTINUOUS
10
0.4326791338582677
20
2.0677300000000001
11
0.4291473228346457
21
2.0712618110236218
0
LINE
8
BLACK
6
CONTINUOUS
10
0.4291473228346457
20
2.0712618110236218
11
0.4246970078740158
21
2.0735293700787403
0
LINE
8
BLACK
6
CONTINUOUS
10
0.4246970078740158
20
2.0735293700787403
11
0.4246970472440945
21
2.0735293700787403
0
LINE
8
BLACK
6
CONTINUOUS
10
0.4246970472440945
20
2.0735293700787403
11
0.4210047637795276
21
2.0741141732283466
0
LINE
8
BLACK
6
CONTINUOUS
10
0.4210047637795276
20
2.0741141732283466
11
0.3585227559055118
21
2.0741141732283466
0
LINE
8
BLACK
6
CONTINUOUS
10
0.3585227559055118
20
2.0741141732283466
11
0.3585226771653543
21
2.0741141338582678
0
LINE
8
BLACK
6
CONTINUOUS
10
0.3585226771653543
20
2.0741141338582678
11
0.3548307086614173
21
2.0735294488188978
0
LINE
8
BLACK
6
CONTINUOUS
10
0.3548307086614173
20
2.0735294488188978
11
0.3548305118110236
21
2.0735293700787403
0
LINE
8
BLACK
6
CONTINUOUS
10
0.3548305118110236
20
2.0735293700787403
11
0.3503802755905512
21
2.0712618503937006
0
LINE
8
BLACK
6
CONTINUOUS
10
0.3503802755905512
20
2.0712618503937006
11
0.3468483858267716
21
2.0677299606299213
0
LINE
8
BLACK
6
CONTINUOUS
10
0.3468483858267716
20
2.0677299606299213
11
0.3445808661417323
21
2.063279724409449
0
LINE
8
BLACK
6
CONTINUOUS
10
0.3445808661417323
20
2.063279724409449
11
0.343996062992126
21
2.0595874803149608
0
LINE
8
BLACK
6
CONTINUOUS
10
0.343996062992126
20
2.0595874803149608
11
0.343996062992126
21
1.9971054724409449
0
LINE
8
BLACK
6
CONTINUOUS
10
0.443996062992126
20
1.9971054724409449
11
0.4439961023622047
21
1.9971053937007874
0
LINE
8
BLACK
6
CONTINUOUS
10
0.4439961023622047
20
1.9971053937007874
11
0.4445807874015748
21
1.9934134251968503
0
LINE
8
BLACK
6
CONTINUOUS
10
0.4445807874015748
20
1.9934134251968503
11
0.4445808661417323
21
1.9934132283464567
0
LINE
8
BLACK
6
CONTINUOUS
10
0.4445808661417323
20
1.9934132283464567
11
0.4468484251968504
21
1.9889629133858266
0
LINE
8
BLACK
6
CONTINUOUS
10
0.4468484251968504
20
1.9889629133858266
11
0.4503802362204724
21
1.9854311023622047
0
LINE
8
BLACK
6
CONTINUOUS
10
0.4503802362204724
20
1.9854311023622047
11
0.4548305511811023
21
1.9831635433070867
0
LINE
8
BLACK
6
CONTINUOUS
10
0.4548305511811023
20
1.9831635433070867
11
0.458522874015748
21
1.9825787401574804
0
LINE
8
BLACK
6
CONTINUOUS
10
0.458522874015748
20
1.9825787401574804
11
0.5210046456692913
21
1.9825787795275591
0
LINE
8
BLACK
6
CONTINUOUS
10
0.5210046456692913
20
1.9825787795275591
11
0.5210047637795275
21
1.9825787795275591
0
LINE
8
BLACK
6
CONTINUOUS
10
0.5210047637795275
20
1.9825787795275591
11
0.5210048031496063
21
1.9825788188976377
0
LINE
8
BLACK
6
CONTINUOUS
10
0.5210048031496063
20
1.9825788188976377
11
0.5228508267716535
21
1.9828711811023623
0
LINE
8
BLACK
6
CONTINUOUS
10
0.5228508267716535
20
1.9828711811023623
11
0.5246968110236221
21
1.9831635039370079
0
LINE
8
BLACK
6
CONTINUOUS
10
0.5246968110236221
20
1.9831635039370079
11
0.5246968110236221
21
1.9831635433070867
0
LINE
8
BLACK
6
CONTINUOUS
10
0.5246968110236221
20
1.9831635433070867
11
0.5246970078740157
21
1.9831635433070867
0
LINE
8
BLACK
6
CONTINUOUS
10
0.5246970078740157
20
1.9831635433070867
11
0.5291473228346456
21
1.9854311023622047
0
LINE
8
BLACK
6
CONTINUOUS
10
0.5291473228346456
20
1.9854311023622047
11
0.5326791338582677
21
1.9889629133858266
0
LINE
8
BLACK
6
CONTINUOUS
10
0.5326791338582677
20
1.9889629133858266
11
0.5349466929133858
21
1.9934132283464567
0
LINE
8
BLACK
6
CONTINUOUS
10
0.5349466929133858
20
1.9934132283464567
11
0.5355314960629921
21
1.9971055511811022
0
LINE
8
BLACK
6
CONTINUOUS
10
0.5355314960629921
20
1.9971055511811022
11
0.5355314566929134
21
2.0595873228346457
0
LINE
8
BLACK
6
CONTINUOUS
10
0.5355314566929134
20
2.0595873228346457
11
0.5355314173228346
21
2.0595874803149608
0
LINE
8
BLACK
6
CONTINUOUS
10
0.5355314173228346
20
2.0595874803149608
11
0.5355314173228346
21
2.059587598425197
0
LINE
8
BLACK
6
CONTINUOUS
10
0.5355314173228346
20
2.059587598425197
11
0.5349467322834646
21
2.0632795275590552
0
LINE
8
BLACK
6
CONTINUOUS
10
0.5349467322834646
20
2.0632795275590552
11
0.5349466929133858
21
2.0632796062992127
0
LINE
8
BLACK
6
CONTINUOUS
10
0.5349466929133858
20
2.0632796062992127
11
0.5349466929133858
21
2.0632796850393702
0
LINE
8
BLACK
6
CONTINUOUS
10
0.5349466929133858
20
2.0632796850393702
11
0.5326791338582677
21
2.0677300000000001
0
LINE
8
BLACK
6
CONTINUOUS
10
0.5326791338582677
20
2.0677300000000001
11
0.5291473228346456
21
2.0712618110236218
0
LINE
8
BLACK
6
CONTINUOUS
10
0.5291473228346456
20
2.0712618110236218
11
0.5246970078740157
21
2.0735293700787403
0
LINE
8
BLACK
6
CONTINUOUS
10
0.5246970078740157
20
2.0735293700787403
11
0.5246970472440945
21
2.0735293700787403
0
LINE
8
BLACK
6
CONTINUOUS
10
0.5246970472440945
20
2.0735293700787403
11
0.5210047637795275
21
2.0741141732283466
0
LINE
8
BLACK
6
CONTINUOUS
10
0.5210047637795275
20
2.0741141732283466
11
0.4585227559055118
21
2.0741141732283466
0
LINE
8
BLACK
6
CONTINUOUS
10
0.4585227559055118
20
2.0741141732283466
11
0.4585226771653543
21
2.0741141338582678
0
LINE
8
BLACK
6
CONTINUOUS
10
0.4585226771653543
20
2.0741141338582678
11
0.4548307086614173
21
2.0735294488188978
0
LINE
8
BLACK
6
CONTINUOUS
10
0.4548307086614173
20
2.0735294488188978
11
0.4548305118110236
21
2.0735293700787403
0
LINE
8
BLACK
6
CONTINUOUS
10
0.4548305118110236
20
2.0735293700787403
11
0.4503802755905512
21
2.0712618503937006
0
LINE
8
BLACK
6
CONTINUOUS
10
0.4503802755905512
20
2.0712618503937006
11
0.4468483858267717
21
2.0677299606299213
0
LINE
8
BLACK
6
CONTINUOUS
10
0.4468483858267717
20
2.0677299606299213
11
0.4445808661417323
21
2.063279724409449
0
LINE
8
BLACK
6
CONTINUOUS
10
0.4445808661417323
20
2.063279724409449
11
0.443996062992126
21
2.0595874803149608
0
LINE
8
BLACK
6
CONTINUOUS
10
0.443996062992126
20
2.0595874803149608
11
0.443996062992126
21
1.9971054724409449
0
LINE
8
BLACK
6
CONTINUOUS
10
0.543996062992126
20
1.9971054724409449
11
0.5439961023622047
21
1.9971053937007874
0
LINE
8
BLACK
6
CONTINUOUS
10
0.5439961023622047
20
1.9971053937007874
11
0.5445807874015748
21
1.9934134251968503
0
LINE
8
BLACK
6
CONTINUOUS
10
0.5445807874015748
20
1.9934134251968503
11
0.5445808661417323
21
1.9934132283464567
0
LINE
8
BLACK
6
CONTINUOUS
10
0.5445808661417323
20
1.9934132283464567
11
0.5468484251968504
21
1.9889629133858266
0
LINE
8
BLACK
6
CONTINUOUS
10
0.5468484251968504
20
1.9889629133858266
11
0.5503802362204724
21
1.9854311023622047
0
LINE
8
BLACK
6
CONTINUOUS
10
0.5503802362204724
20
1.9854311023622047
11
0.5548305511811024
21
1.9831635433070867
0
LINE
8
BLACK
6
CONTINUOUS
10
0.5548305511811024
20
1.9831635433070867
11
0.5585228740157481
21
1.9825787401574804
0
LINE
8
BLACK
6
CONTINUOUS
10
0.5585228740157481
20
1.9825787401574804
11
0.6210046456692914
21
1.9825787795275591
0
LINE
8
BLACK
6
CONTINUOUS
10
0.6210046456692914
20
1.9825787795275591
11
0.6210047637795275
21
1.9825787795275591
0
LINE
8
BLACK
6
CONTINUOUS
10
0.6210047637795275
20
1.9825787795275591
11
0.6210048031496063
21
1.9825788188976377
0
LINE
8
BLACK
6
CONTINUOUS
10
0.6210048031496063
20
1.9825788188976377
11
0.6228508267716535
21
1.9828711811023623
0
LINE
8
BLACK
6
CONTINUOUS
10
0.6228508267716535
20
1.9828711811023623
11
0.6246968110236221
21
1.9831635039370079
0
LINE
8
BLACK
6
CONTINUOUS
10
0.6246968110236221
20
1.9831635039370079
11
0.6246968110236221
21
1.9831635433070867
0
LINE
8
BLACK
6
CONTINUOUS
10
0.6246968110236221
20
1.9831635433070867
11
0.6246970078740157
21
1.9831635433070867
0
LINE
8
BLACK
6
CONTINUOUS
10
0.6246970078740157
20
1.9831635433070867
11
0.6291473228346457
21
1.9854311023622047
0
LINE
8
BLACK
6
CONTINUOUS
10
0.6291473228346457
20
1.9854311023622047
11
0.6326791338582677
21
1.9889629133858266
0
LINE
8
BLACK
6
CONTINUOUS
10
0.6326791338582677
20
1.9889629133858266
11
0.6349466929133858
21
1.9934132283464567
0
LINE
8
BLACK
6
CONTINUOUS
10
0.6349466929133858
20
1.9934132283464567
11
0.6355314960629921
21
1.9971055511811022
0
LINE
8
BLACK
6
CONTINUOUS
10
0.6355314960629921
20
1.9971055511811022
11
0.6355314566929133
21
2.0595873228346457
0
LINE
8
BLACK
6
CONTINUOUS
10
0.6355314566929133
20
2.0595873228346457
11
0.6355314173228346
21
2.0595874803149608
0
LINE
8
BLACK
6
CONTINUOUS
10
0.6355314173228346
20
2.0595874803149608
11
0.6355314173228346
21
2.059587598425197
0
LINE
8
BLACK
6
CONTINUOUS
10
0.6355314173228346
20
2.059587598425197
11
0.6349467322834645
21
2.0632795275590552
0
LINE
8
BLACK
6
CONTINUOUS
10
0.6349467322834645
20
2.0632795275590552
11
0.6349466929133858
21
2.0632796062992127
0
LINE
8
BLACK
6
CONTINUOUS
10
0.6349466929133858
20
2.0632796062992127
11
0.6349466929133858
21
2.0632796850393702
0
LINE
8
BLACK
6
CONTINUOUS
10
0.6349466929133858
20
2.0632796850393702
11
0.6326791338582677
21
2.0677300000000001
0
LINE
8
BLACK
6
CONTINUOUS
10
0.6326791338582677
20
2.0677300000000001
11
0.6291473228346457
21
2.0712618110236218
0
LINE
8
BLACK
6
CONTINUOUS
10
0.6291473228346457
20
2.0712618110236218
11
0.6246970078740157
21
2.0735293700787403
0
LINE
8
BLACK
6
CONTINUOUS
10
0.6246970078740157
20
2.0735293700787403
11
0.6246970472440945
21
2.0735293700787403
0
LINE
8
BLACK
6
CONTINUOUS
10
0.6246970472440945
20
2.0735293700787403
11
0.6210047637795275
21
2.0741141732283466
0
LINE
8
BLACK
6
CONTINUOUS
10
0.6210047637795275
20
2.0741141732283466
11
0.5585227559055118
21
2.0741141732283466
0
LINE
8
BLACK
6
CONTINUOUS
10
0.5585227559055118
20
2.0741141732283466
11
0.5585226771653543
21
2.0741141338582678
0
LINE
8
BLACK
6
CONTINUOUS
10
0.5585226771653543
20
2.0741141338582678
11
0.5548307086614173
21
2.0735294488188978
0
LINE
8
BLACK
6
CONTINUOUS
10
0.5548307086614173
20
2.0735294488188978
11
0.5548305118110236
21
2.0735293700787403
0
LINE
8
BLACK
6
CONTINUOUS
10
0.5548305118110236
20
2.0735293700787403
11
0.5503802755905511
21
2.0712618503937006
0
LINE
8
BLACK
6
CONTINUOUS
10
0.5503802755905511
20
2.0712618503937006
11
0.5468483858267716
21
2.0677299606299213
0
LINE
8
BLACK
6
CONTINUOUS
10
0.5468483858267716
20
2.0677299606299213
11
0.5445808661417323
21
2.063279724409449
0
LINE
8
BLACK
6
CONTINUOUS
10
0.5445808661417323
20
2.063279724409449
11
0.543996062992126
21
2.0595874803149608
0
LINE
8
BLACK
6
CONTINUOUS
10
0.543996062992126
20
2.0595874803149608
11
0.543996062992126
21
1.9971054724409449
0
LINE
8
BLACK
6
CONTINUOUS
10
0.643996062992126
20
1.9971054724409449
11
0.6439961023622047
21
1.9971053937007874
0
LINE
8
BLACK
6
CONTINUOUS
10
0.6439961023622047
20
1.9971053937007874
11
0.6445807874015748
21
1.9934134251968503
0
LINE
8
BLACK
6
CONTINUOUS
10
0.6445807874015748
20
1.9934134251968503
11
0.6445808661417323
21
1.9934132283464567
0
LINE
8
BLACK
6
CONTINUOUS
10
0.6445808661417323
20
1.9934132283464567
11
0.6468484251968504
21
1.9889629133858266
0
LINE
8
BLACK
6
CONTINUOUS
10
0.6468484251968504
20
1.9889629133858266
11
0.6503802362204725
21
1.9854311023622047
0
LINE
8
BLACK
6
CONTINUOUS
10
0.6503802362204725
20
1.9854311023622047
11
0.6548305511811023
21
1.9831635433070867
0
LINE
8
BLACK
6
CONTINUOUS
10
0.6548305511811023
20
1.9831635433070867
11
0.658522874015748
21
1.9825787401574804
0
LINE
8
BLACK
6
CONTINUOUS
10
0.658522874015748
20
1.9825787401574804
11
0.7210046456692913
21
1.9825787795275591
0
LINE
8
BLACK
6
CONTINUOUS
10
0.7210046456692913
20
1.9825787795275591
11
0.7210047637795275
21
1.9825787795275591
0
LINE
8
BLACK
6
CONTINUOUS
10
0.7210047637795275
20
1.9825787795275591
11
0.7210048031496062
21
1.9825788188976377
0
LINE
8
BLACK
6
CONTINUOUS
10
0.7210048031496062
20
1.9825788188976377
11
0.7228508267716536
21
1.9828711811023623
0
LINE
8
BLACK
6
CONTINUOUS
10
0.7228508267716536
20
1.9828711811023623
11
0.724696811023622
21
1.9831635039370079
0
LINE
8
BLACK
6
CONTINUOUS
10
0.724696811023622
20
1.9831635039370079
11
0.724696811023622
21
1.9831635433070867
0
LINE
8
BLACK
6
CONTINUOUS
10
0.724696811023622
20
1.9831635433070867
11
0.7246970078740157
21
1.9831635433070867
0
LINE
8
BLACK
6
CONTINUOUS
10
0.7246970078740157
20
1.9831635433070867
11
0.7291473228346457
21
1.9854311023622047
0
LINE
8
BLACK
6
CONTINUOUS
10
0.7291473228346457
20
1.9854311023622047
11
0.7326791338582677
21
1.9889629133858266
0
LINE
8
BLACK
6
CONTINUOUS
10
0.7326791338582677
20
1.9889629133858266
11
0.7349466929133858
21
1.9934132283464567
0
LINE
8
BLACK
6
CONTINUOUS
10
0.7349466929133858
20
1.9934132283464567
11
0.7355314960629921
21
1.9971055511811022
0
LINE
8
BLACK
6
CONTINUOUS
10
0.7355314960629921
20
1.9971055511811022
11
0.7355314566929134
21
2.0595873228346457
0
LINE
8
BLACK
6
CONTINUOUS
10
0.7355314566929134
20
2.0595873228346457
11
0.7355314173228347
21
2.0595874803149608
0
LINE
8
BLACK
6
CONTINUOUS
10
0.7355314173228347
20
2.0595874803149608
11
0.7355314173228347
21
2.059587598425197
0
LINE
8
BLACK
6
CONTINUOUS
10
0.7355314173228347
20
2.059587598425197
11
0.7349467322834645
21
2.0632795275590552
0
LINE
8
BLACK
6
CONTINUOUS
10
0.7349467322834645
20
2.0632795275590552
11
0.7349466929133858
21
2.0632796062992127
0
LINE
8
BLACK
6
CONTINUOUS
10
0.7349466929133858
20
2.0632796062992127
11
0.7349466929133858
21
2.0632796850393702
0
LINE
8
BLACK
6
CONTINUOUS
10
0.7349466929133858
20
2.0632796850393702
11
0.7326791338582677
21
2.0677300000000001
0
LINE
8
BLACK
6
CONTINUOUS
10
0.7326791338582677
20
2.0677300000000001
11
0.7291473228346457
21
2.0712618110236218
0
LINE
8
BLACK
6
CONTINUOUS
10
0.7291473228346457
20
2.0712618110236218
11
0.7246970078740157
21
2.0735293700787403
0
LINE
8
BLACK
6
CONTINUOUS
10
0.7246970078740157
20
2.0735293700787403
11
0.7246970472440944
21
2.0735293700787403
0
LINE
8
BLACK
6
CONTINUOUS
10
0.7246970472440944
20
2.0735293700787403
11
0.7210047637795275
21
2.0741141732283466
0
LINE
8
BLACK
6
CONTINUOUS
10
0.7210047637795275
20
2.0741141732283466
11
0.6585227559055118
21
2.0741141732283466
0
LINE
8
BLACK
6
CONTINUOUS
10
0.6585227559055118
20
2.0741141732283466
11
0.6585226771653543
21
2.0741141338582678
0
LINE
8
BLACK
6
CONTINUOUS
10
0.6585226771653543
20
2.0741141338582678
11
0.6548307086614173
21
2.0735294488188978
0
LINE
8
BLACK
6
CONTINUOUS
10
0.6548307086614173
20
2.0735294488188978
11
0.6548305118110236
21
2.0735293700787403
0
LINE
8
BLACK
6
CONTINUOUS
10
0.6548305118110236
20
2.0735293700787403
11
0.6503802755905511
21
2.0712618503937006
0
LINE
8
BLACK
6
CONTINUOUS
10
0.6503802755905511
20
2.0712618503937006
11
0.6468483858267716
21
2.0677299606299213
0
LINE
8
BLACK
6
CONTINUOUS
10
0.6468483858267716
20
2.0677299606299213
11
0.6445808661417323
21
2.063279724409449
0
LINE
8
BLACK
6
CONTINUOUS
10
0.6445808661417323
20
2.063279724409449
11
0.643996062992126
21
2.0595874803149608
0
LINE
8
BLACK
6
CONTINUOUS
10
0.643996062992126
20
2.0595874803149608
11
0.643996062992126
21
1.9971054724409449
0
LINE
8
BLACK
6
CONTINUOUS
10
0.743996062992126
20
1.9971054724409449
11
0.7439961023622047
21
1.9971053937007874
0
LINE
8
BLACK
6
CONTINUOUS
10
0.7439961023622047
20
1.9971053937007874
11
0.7445807874015747
21
1.9934134251968503
0
LINE
8
BLACK
6
CONTINUOUS
10
0.7445807874015747
20
1.9934134251968503
11
0.7445808661417322
21
1.9934132283464567
0
LINE
8
BLACK
6
CONTINUOUS
10
0.7445808661417322
20
1.9934132283464567
11
0.7468484251968504
21
1.9889629133858266
0
LINE
8
BLACK
6
CONTINUOUS
10
0.7468484251968504
20
1.9889629133858266
11
0.7503802362204725
21
1.9854311023622047
0
LINE
8
BLACK
6
CONTINUOUS
10
0.7503802362204725
20
1.9854311023622047
11
0.7548305511811023
21
1.9831635433070867
0
LINE
8
BLACK
6
CONTINUOUS
10
0.7548305511811023
20
1.9831635433070867
11
0.758522874015748
21
1.9825787401574804
0
LINE
8
BLACK
6
CONTINUOUS
10
0.758522874015748
20
1.9825787401574804
11
0.8210046456692913
21
1.9825787795275591
0
LINE
8
BLACK
6
CONTINUOUS
10
0.8210046456692913
20
1.9825787795275591
11
0.8210047637795276
21
1.9825787795275591
0
LINE
8
BLACK
6
CONTINUOUS
10
0.8210047637795276
20
1.9825787795275591
11
0.8210048031496063
21
1.9825788188976377
0
LINE
8
BLACK
6
CONTINUOUS
10
0.8210048031496063
20
1.9825788188976377
11
0.8228508267716536
21
1.9828711811023623
0
LINE
8
BLACK
6
CONTINUOUS
10
0.8228508267716536
20
1.9828711811023623
11
0.824696811023622
21
1.9831635039370079
0
LINE
8
BLACK
6
CONTINUOUS
10
0.824696811023622
20
1.9831635039370079
11
0.824696811023622
21
1.9831635433070867
0
LINE
8
BLACK
6
CONTINUOUS
10
0.824696811023622
20
1.9831635433070867
11
0.8246970078740157
21
1.9831635433070867
0
LINE
8
BLACK
6
CONTINUOUS
10
0.8246970078740157
20
1.9831635433070867
11
0.8291473228346457
21
1.9854311023622047
0
LINE
8
BLACK
6
CONTINUOUS
10
0.8291473228346457
20
1.9854311023622047
11
0.8326791338582678
21
1.9889629133858266
0
LINE
8
BLACK
6
CONTINUOUS
10
0.8326791338582678
20
1.9889629133858266
11
0.8349466929133859
21
1.9934132283464567
0
LINE
8
BLACK
6
CONTINUOUS
10
0.8349466929133859
20
1.9934132283464567
11
0.8355314960629922
21
1.9971055511811022
0
LINE
8
BLACK
6
CONTINUOUS
10
0.8355314960629922
20
1.9971055511811022
11
0.8355314566929134
21
2.0595873228346457
0
LINE
8
BLACK
6
CONTINUOUS
10
0.8355314566929134
20
2.0595873228346457
11
0.8355314173228346
21
2.0595874803149608
0
LINE
8
BLACK
6
CONTINUOUS
10
0.8355314173228346
20
2.0595874803149608
11
0.8355314173228346
21
2.059587598425197
0
LINE
8
BLACK
6
CONTINUOUS
10
0.8355314173228346
20
2.059587598425197
11
0.8349467322834645
21
2.0632795275590552
0
LINE
8
BLACK
6
CONTINUOUS
10
0.8349467322834645
20
2.0632795275590552
11
0.8349466929133859
21
2.0632796062992127
0
LINE
8
BLACK
6
CONTINUOUS
10
0.8349466929133859
20
2.0632796062992127
11
0.8349466929133859
21
2.0632796850393702
0
LINE
8
BLACK
6
CONTINUOUS
10
0.8349466929133859
20
2.0632796850393702
11
0.8326791338582678
21
2.0677300000000001
0
LINE
8
BLACK
6
CONTINUOUS
10
0.8326791338582678
20
2.0677300000000001
11
0.8291473228346457
21
2.0712618110236218
0
LINE
8
BLACK
6
CONTINUOUS
10
0.8291473228346457
20
2.0712618110236218
11
0.8246970078740157
21
2.0735293700787403
0
LINE
8
BLACK
6
CONTINUOUS
10
0.8246970078740157
20
2.0735293700787403
11
0.8246970472440944
21
2.0735293700787403
0
LINE
8
BLACK
6
CONTINUOUS
10
0.8246970472440944
20
2.0735293700787403
11
0.8210047637795276
21
2.0741141732283466
0
LINE
8
BLACK
6
CONTINUOUS
10
0.8210047637795276
20
2.0741141732283466
11
0.7585227559055118
21
2.0741141732283466
0
LINE
8
BLACK
6
CONTINUOUS
10
0.7585227559055118
20
2.0741141732283466
11
0.7585226771653543
21
2.0741141338582678
0
LINE
8
BLACK
6
CONTINUOUS
10
0.7585226771653543
20
2.0741141338582678
11
0.7548307086614173
21
2.0735294488188978
0
LINE
8
BLACK
6
CONTINUOUS
10
0.7548307086614173
20
2.0735294488188978
11
0.7548305118110236
21
2.0735293700787403
0
LINE
8
BLACK
6
CONTINUOUS
10
0.7548305118110236
20
2.0735293700787403
11
0.7503802755905512
21
2.0712618503937006
0
LINE
8
BLACK
6
CONTINUOUS
10
0.7503802755905512
20
2.0712618503937006
11
0.7468483858267716
21
2.0677299606299213
0
LINE
8
BLACK
6
CONTINUOUS
10
0.7468483858267716
20
2.0677299606299213
11
0.7445808661417322
21
2.063279724409449
0
LINE
8
BLACK
6
CONTINUOUS
10
0.7445808661417322
20
2.063279724409449
11
0.743996062992126
21
2.0595874803149608
0
LINE
8
BLACK
6
CONTINUOUS
10
0.743996062992126
20
2.0595874803149608
11
0.743996062992126
21
1.9971054724409449
0
LINE
8
BLACK
6
CONTINUOUS
10
0.8439960629921259
20
1.9971054724409449
11
0.8439961023622047
21
1.9971053937007874
0
LINE
8
BLACK
6
CONTINUOUS
10
0.8439961023622047
20
1.9971053937007874
11
0.8445807874015748
21
1.9934134251968503
0
LINE
8
BLACK
6
CONTINUOUS
10
0.8445807874015748
20
1.9934134251968503
11
0.8445808661417322
21
1.9934132283464567
0
LINE
8
BLACK
6
CONTINUOUS
10
0.8445808661417322
20
1.9934132283464567
11
0.8468484251968503
21
1.9889629133858266
0
LINE
8
BLACK
6
CONTINUOUS
10
0.8468484251968503
20
1.9889629133858266
11
0.8503802362204724
21
1.9854311023622047
0
LINE
8
BLACK
6
CONTINUOUS
10
0.8503802362204724
20
1.9854311023622047
11
0.8548305511811023
21
1.9831635433070867
0
LINE
8
BLACK
6
CONTINUOUS
10
0.8548305511811023
20
1.9831635433070867
11
0.858522874015748
21
1.9825787401574804
0
LINE
8
BLACK
6
CONTINUOUS
10
0.858522874015748
20
1.9825787401574804
11
0.9210046456692913
21
1.9825787795275591
0
LINE
8
BLACK
6
CONTINUOUS
10
0.9210046456692913
20
1.9825787795275591
11
0.9210047637795276
21
1.9825787795275591
0
LINE
8
BLACK
6
CONTINUOUS
10
0.9210047637795276
20
1.9825787795275591
11
0.9210048031496063
21
1.9825788188976377
0
LINE
8
BLACK
6
CONTINUOUS
10
0.9210048031496063
20
1.9825788188976377
11
0.9228508267716535
21
1.9828711811023623
0
LINE
8
BLACK
6
CONTINUOUS
10
0.9228508267716535
20
1.9828711811023623
11
0.924696811023622
21
1.9831635039370079
0
LINE
8
BLACK
6
CONTINUOUS
10
0.924696811023622
20
1.9831635039370079
11
0.924696811023622
21
1.9831635433070867
0
LINE
8
BLACK
6
CONTINUOUS
10
0.924696811023622
20
1.9831635433070867
11
0.9246970078740158
21
1.9831635433070867
0
LINE
8
BLACK
6
CONTINUOUS
10
0.9246970078740158
20
1.9831635433070867
11
0.9291473228346456
21
1.9854311023622047
0
LINE
8
BLACK
6
CONTINUOUS
10
0.9291473228346456
20
1.9854311023622047
11
0.9326791338582677
21
1.9889629133858266
0
LINE
8
BLACK
6
CONTINUOUS
10
0.9326791338582677
20
1.9889629133858266
11
0.9349466929133858
21
1.9934132283464567
0
LINE
8
BLACK
6
CONTINUOUS
10
0.9349466929133858
20
1.9934132283464567
11
0.9355314960629921
21
1.9971055511811022
0
LINE
8
BLACK
6
CONTINUOUS
10
0.9355314960629921
20
1.9971055511811022
11
0.9355314566929134
21
2.0595873228346457
0
LINE
8
BLACK
6
CONTINUOUS
10
0.9355314566929134
20
2.0595873228346457
11
0.9355314566929134
21
2.059587440944882
0
LINE
8
BLACK
6
CONTINUOUS
10
0.9355314566929134
20
2.059587440944882
11
0.9355314566929134
21
2.0595874803149608
0
LINE
8
BLACK
6
CONTINUOUS
10
0.9355314566929134
20
2.0595874803149608
11
0.9355314173228346
21
2.0595875590551183
0
LINE
8
BLACK
6
CONTINUOUS
10
0.9355314173228346
20
2.0595875590551183
11
0.9349467322834646
21
2.0632795275590552
0
LINE
8
BLACK
6
CONTINUOUS
10
0.9349467322834646
20
2.0632795275590552
11
0.9349466929133858
21
2.0632796062992127
0
LINE
8
BLACK
6
CONTINUOUS
10
0.9349466929133858
20
2.0632796062992127
11
0.9349466929133858
21
2.0632796850393702
0
LINE
8
BLACK
6
CONTINUOUS
10
0.9349466929133858
20
2.0632796850393702
11
0.9326791338582677
21
2.0677300000000001
0
LINE
8
BLACK
6
CONTINUOUS
10
0.9326791338582677
20
2.0677300000000001
11
0.9291473228346456
21
2.0712618110236218
0
LINE
8
BLACK
6
CONTINUOUS
10
0.9291473228346456
20
2.0712618110236218
11
0.9246970078740158
21
2.0735293700787403
0
LINE
8
BLACK
6
CONTINUOUS
10
0.9246970078740158
20
2.0735293700787403
11
0.9246970472440945
21
2.0735293700787403
0
LINE
8
BLACK
6
CONTINUOUS
10
0.9246970472440945
20
2.0735293700787403
11
0.9210047637795276
21
2.0741141732283466
0
LINE
8
BLACK
6
CONTINUOUS
10
0.9210047637795276
20
2.0741141732283466
11
0.8585227559055117
21
2.0741141732283466
0
LINE
8
BLACK
6
CONTINUOUS
10
0.8585227559055117
20
2.0741141732283466
11
0.8585226771653544
21
2.0741141338582678
0
LINE
8
BLACK
6
CONTINUOUS
10
0.8585226771653544
20
2.0741141338582678
11
0.8548307086614173
21
2.0735294488188978
0
LINE
8
BLACK
6
CONTINUOUS
10
0.8548307086614173
20
2.0735294488188978
11
0.8548305118110237
21
2.0735293700787403
0
LINE
8
BLACK
6
CONTINUOUS
10
0.8548305118110237
20
2.0735293700787403
11
0.8503802755905512
21
2.0712618503937006
0
LINE
8
BLACK
6
CONTINUOUS
10
0.8503802755905512
20
2.0712618503937006
11
0.8468483858267717
21
2.0677299606299213
0
LINE
8
BLACK
6
CONTINUOUS
10
0.8468483858267717
20
2.0677299606299213
11
0.8445808661417322
21
2.063279724409449
0
LINE
8
BLACK
6
CONTINUOUS
10
0.8445808661417322
20
2.063279724409449
11
0.8439960629921259
21
2.0595874803149608
0
LINE
8
BLACK
6
CONTINUOUS
10
0.8439960629921259
20
2.0595874803149608
11
0.8439960629921259
21
1.9971054724409449
0
LINE
8
BLACK
6
CONTINUOUS
10
0.2580002755905512
20
2.070157440944882
11
0.2570127952755906
21
2.0700429527559057
0
LINE
8
BLACK
6
CONTINUOUS
10
0.2570127952755906
20
2.0700429527559057
11
0.2529733070866141
21
2.0682593307086612
0
LINE
8
BLACK
6
CONTINUOUS
10
0.2529733070866141
20
2.0682593307086612
11
0.249850905511811
21
2.0651369291338582
0
LINE
8
BLACK
6
CONTINUOUS
10
0.249850905511811
20
2.0651369291338582
11
0.2480672834645669
21
2.0610973622047242
0
LINE
8
BLACK
6
CONTINUOUS
10
0.2480672834645669
20
2.0610973622047242
11
0.2479527559055118
21
2.0601101574803149
0
LINE
8
BLACK
6
CONTINUOUS
10
0.2479527559055118
20
2.0601101574803149
11
0.2479527559055118
21
2.0381890157480314
0
LINE
8
BLACK
6
CONTINUOUS
10
0.2479527559055118
20
2.0381890157480314
11
0.2479527952755906
21
2.0381889763779526
0
LINE
8
BLACK
6
CONTINUOUS
10
0.2479527952755906
20
2.0381889763779526
11
0.259763779527559
21
2.0381889763779526
0
LINE
8
BLACK
6
CONTINUOUS
10
0.259763779527559
20
2.0381889763779526
11
0.259763779527559
21
2.0583464566929135
0
LINE
8
BLACK
6
CONTINUOUS
10
0.259763779527559
20
2.0583464566929135
11
0.2799212598425197
21
2.0583464566929135
0
LINE
8
BLACK
6
CONTINUOUS
10
0.2799212598425197
20
2.0583464566929135
11
0.2799212598425197
21
2.070157440944882
0
LINE
8
BLACK
6
CONTINUOUS
10
0.2799212598425197
20
2.070157440944882
11
0.2799212204724409
21
2.0701574803149607
0
LINE
8
BLACK
6
CONTINUOUS
10
0.2799212204724409
20
2.0701574803149607
11
0.2580003937007874
21
2.0701574803149607
0
LINE
8
BLACK
6
CONTINUOUS
10
0.2580003937007874
20
2.0701574803149607
11
0.2580002755905512
21
2.070157440944882
0
CIRCLE
8
BLACK
10
0.
20
1.9775590551181101
40
0.0068897637795276
0
CIRCLE
8
BLACK
10
1.2
20
0.0031496062992126
40
0.0068897637795276
0
CIRCLE
8
BLACK
10
0.
20
0.0031496062992126
40
0.0068897637795276
0
CIRCLE
8
BLACK
10
1.2
20
1.9775590551181101
40
0.0068897637795276
0
CIRCLE
8
BLACK
10
0.889763779527559
20
2.0283464566929132
40
0.0068897637795276
0
CIRCLE
8
BLACK
10
0.889763779527559
20
1.9283464566929134
40
0.0068897637795276
0
CIRCLE
8
BLACK
10
0.7897637795275591
20
2.0283464566929132
40
0.0068897637795276
0
CIRCLE
8
BLACK
10
0.7897637795275591
20
1.9283464566929134
40
0.0068897637795276
0
CIRCLE
8
BLACK
10
0.6897637795275591
20
2.0283464566929132
40
0.0068897637795276
0
CIRCLE
8
BLACK
10
0.6897637795275591
20
1.9283464566929134
40
0.0068897637795276
0
CIRCLE
8
BLACK
10
0.5897637795275591
20
2.0283464566929132
40
0.0068897637795276
0
CIRCLE
8
BLACK
10
0.5897637795275591
20
1.9283464566929134
40
0.0068897637795276
0
CIRCLE
8
BLACK
10
0.4897637795275591
20
2.0283464566929132
40
0.0068897637795276
0
CIRCLE
8
BLACK
10
0.4897637795275591
20
1.9283464566929134
40
0.0068897637795276
0
CIRCLE
8
BLACK
10
0.389763779527559
20
2.0283464566929132
40
0.0068897637795276
0
CIRCLE
8
BLACK
10
0.389763779527559
20
1.9283464566929134
40
0.0068897637795276
0
CIRCLE
8
BLACK
10
0.2897637795275591
20
2.0283464566929132
40
0.0068897637795276
0
CIRCLE
8
BLACK
10
0.2897637795275591
20
1.9283464566929134
40
0.0068897637795276
0
CIRCLE
8
BLACK
10
0.6976377952755906
20
0.3177165354330709
40
0.0049212598425197
0
CIRCLE
8
BLACK
10
0.7456692913385826
20
0.6244094488188976
40
0.0049212598425197
0
CIRCLE
8
BLACK
10
0.4622047244094488
20
1.4590551181102362
40
0.0049212598425197
0
CIRCLE
8
BLACK
10
0.5066929133858268
20
0.3177165354330709
40
0.0049212598425197
0
CIRCLE
8
BLACK
10
0.6787401574803149
20
0.8291338582677165
40
0.0049212598425197
0
CIRCLE
8
BLACK
10
0.6511811023622047
20
1.8645669291338582
40
0.0039370078740157
0
CIRCLE
8
BLACK
10
0.5015748031496063
20
1.7188976377952756
40
0.0049212598425197
0
CIRCLE
8
BLACK
10
0.4110236220472441
20
1.3448818897637795
40
0.0049212598425197
0
CIRCLE
8
BLACK
10
0.5488188976377952
20
1.4826771653543307
40
0.0049212598425197
0
CIRCLE
8
BLACK
10
0.6866141732283464
20
0.4275590551181102
40
0.0049212598425197
0
CIRCLE
8
BLACK
10
0.8440944881889764
20
0.8606299212598425
40
0.0049212598425197
0
CIRCLE
8
BLACK
10
0.5094488188976378
20
0.5811023622047244
40
0.0049212598425197
0
CIRCLE
8
BLACK
10
0.5511811023622047
20
1.8673228346456692
40
0.0039370078740157
0
CIRCLE
8
BLACK
10
0.5448818897637795
20
1.2622047244094488
40
0.0049212598425197
0
CIRCLE
8
BLACK
10
0.3602362204724409
20
1.2366141732283464
40
0.0039370078740157
0
CIRCLE
8
BLACK
10
0.5492125984251969
20
0.2889763779527559
40
0.0039370078740157
0
CIRCLE
8
BLACK
10
0.7456692913385826
20
1.7110236220472441
40
0.0049212598425197
0
CIRCLE
8
BLACK
10
0.6118110236220472
20
1.7267716535433071
40
0.0049212598425197
0
CIRCLE
8
BLACK
10
0.7456692913385826
20
1.4826771653543307
40
0.0049212598425197
0
CIRCLE
8
BLACK
10
0.7496062992125984
20
1.2267716535433071
40
0.0049212598425197
0
CIRCLE
8
BLACK
10
0.4468503937007874
20
1.0720472440944881
40
0.0039370078740157
0
CIRCLE
8
BLACK
10
0.2220472440944882
20
0.9472440944881889
40
0.0049212598425197
0
CIRCLE
8
BLACK
10
0.6531496062992126
20
0.2889763779527559
40
0.0039370078740157
0
CIRCLE
8
BLACK
10
0.5133858267716536
20
0.8015748031496063
40
0.0049212598425197
0
CIRCLE
8
BLACK
10
0.6787401574803149
20
1.6598425196850393
40
0.0049212598425197
0
CIRCLE
8
BLACK
10
0.5448818897637795
20
0.4433070866141732
40
0.0049212598425197
0
CIRCLE
8
BLACK
10
0.2220472440944882
20
1.2937007874015747
40
0.0049212598425197
0
CIRCLE
8
BLACK
10
0.6157480314960629
20
0.7740157480314961
40
0.0049212598425197
0
CIRCLE
8
BLACK
10
0.3480314960629921
20
1.6401574803149606
40
0.0049212598425197
0
CIRCLE
8
BLACK
10
0.7496062992125984
20
0.8921259842519684
40
0.0049212598425197
0
CIRCLE
8
BLACK
10
0.2850393700787401
20
1.4748031496062992
40
0.0049212598425197
0
CIRCLE
8
BLACK
10
0.1905511811023622
20
1.1362204724409448
40
0.0049212598425197
0
CIRCLE
8
BLACK
10
0.4622047244094488
20
1.573228346456693
40
0.0049212598425197
0
CIRCLE
8
BLACK
10
0.8440944881889764
20
1.6204724409448819
40
0.0049212598425197
0
CIRCLE
8
BLACK
10
0.7456692913385826
20
1.5929133858267717
40
0.0049212598425197
0
CIRCLE
8
BLACK
10
0.4492125984251968
20
1.4062992125984253
40
0.0039370078740157
0
CIRCLE
8
BLACK
10
0.694488188976378
20
0.3881889763779527
40
0.0049212598425197
0
CIRCLE
8
BLACK
10
0.889763779527559
20
1.4039370078740157
40
0.0039370078740157
0
CIRCLE
8
BLACK
10
0.552755905511811
20
0.3330708661417323
40
0.0049212598425197
0
CIRCLE
8
WHITE
10
0.6976377952755906
20
0.3177165354330709
40
0.0049212598425197
0
CIRCLE
8
WHITE
10
0.7456692913385826
20
0.6244094488188976
40
0.0049212598425197
0
CIRCLE
8
WHITE
10
0.4622047244094488
20
1.4590551181102362
40
0.0049212598425197
0
CIRCLE
8
WHITE
10
0.5066929133858268
20
0.3177165354330709
40
0.0049212598425197
0
CIRCLE
8
WHITE
10
0.6787401574803149
20
0.8291338582677165
40
0.0049212598425197
0
CIRCLE
8
WHITE
10
0.6511811023622047
20
1.8645669291338582
40
0.0039370078740157
0
CIRCLE
8
WHITE
10
0.5015748031496063
20
1.7188976377952756
40
0.0049212598425197
0
CIRCLE
8
WHITE
10
0.4110236220472441
20
1.3448818897637795
40
0.0049212598425197
0
CIRCLE
8
WHITE
10
0.5488188976377952
20
1.4826771653543307
40
0.0049212598425197
0
CIRCLE
8
WHITE
10
0.6866141732283464
20
0.4275590551181102
40
0.0049212598425197
0
CIRCLE
8
WHITE
10
0.8440944881889764
20
0.8606299212598425
40
0.0049212598425197
0
CIRCLE
8
WHITE
10
0.5094488188976378
20
0.5811023622047244
40
0.0049212598425197
0
CIRCLE
8
WHITE
10
0.5511811023622047
20
1.8673228346456692
40
0.0039370078740157
0
CIRCLE
8
WHITE
10
0.5448818897637795
20
1.2622047244094488
40
0.0049212598425197
0
CIRCLE
8
WHITE
10
0.3602362204724409
20
1.2366141732283464
40
0.0039370078740157
0
CIRCLE
8
WHITE
10
0.5492125984251969
20
0.2889763779527559
40
0.0039370078740157
0
CIRCLE
8
WHITE
10
0.7456692913385826
20
1.7110236220472441
40
0.0049212598425197
0
CIRCLE
8
WHITE
10
0.6118110236220472
20
1.7267716535433071
40
0.0049212598425197
0
CIRCLE
8
WHITE
10
0.7456692913385826
20
1.4826771653543307
40
0.0049212598425197
0
CIRCLE
8
WHITE
10
0.7496062992125984
20
1.2267716535433071
40
0.0049212598425197
0
CIRCLE
8
WHITE
10
0.4468503937007874
20
1.0720472440944881
40
0.0039370078740157
0
CIRCLE
8
WHITE
10
0.2220472440944882
20
0.9472440944881889
40
0.0049212598425197
0
CIRCLE
8
WHITE
10
0.6531496062992126
20
0.2889763779527559
40
0.0039370078740157
0
CIRCLE
8
WHITE
10
0.5133858267716536
20
0.8015748031496063
40
0.0049212598425197
0
CIRCLE
8
WHITE
10
0.6787401574803149
20
1.6598425196850393
40
0.0049212598425197
0
CIRCLE
8
WHITE
10
0.5448818897637795
20
0.4433070866141732
40
0.0049212598425197
0
CIRCLE
8
WHITE
10
0.2220472440944882
20
1.2937007874015747
40
0.0049212598425197
0
CIRCLE
8
WHITE
10
0.6157480314960629
20
0.7740157480314961
40
0.0049212598425197
0
CIRCLE
8
WHITE
10
0.3480314960629921
20
1.6401574803149606
40
0.0049212598425197
0
CIRCLE
8
WHITE
10
0.7496062992125984
20
0.8921259842519684
40
0.0049212598425197
0
CIRCLE
8
WHITE
10
0.2850393700787401
20
1.4748031496062992
40
0.0049212598425197
0
CIRCLE
8
WHITE
10
0.1905511811023622
20
1.1362204724409448
40
0.0049212598425197
0
CIRCLE
8
WHITE
10
0.4622047244094488
20
1.573228346456693
40
0.0049212598425197
0
CIRCLE
8
WHITE
10
0.8440944881889764
20
1.6204724409448819
40
0.0049212598425197
0
CIRCLE
8
WHITE
10
0.7456692913385826
20
1.5929133858267717
40
0.0049212598425197
0
CIRCLE
8
WHITE
10
0.4492125984251968
20
1.4062992125984253
40
0.0039370078740157
0
CIRCLE
8
WHITE
10
0.694488188976378
20
0.3881889763779527
40
0.0049212598425197
0
CIRCLE
8
WHITE
10
0.889763779527559
20
1.4039370078740157
40
0.0039370078740157
0
CIRCLE
8
WHITE
10
0.552755905511811
20
0.3330708661417323
40
0.0049212598425197
0
CIRCLE
8
WHITE
10
0.
20
1.9775590551181101
40
0.0068897637795276
0
CIRCLE
8
WHITE
10
1.2
20
0.0031496062992126
40
0.0068897637795276
0
CIRCLE
8
WHITE
10
0.
20
0.0031496062992126
40
0.0068897637795276
0
CIRCLE
8
WHITE
10
1.2
20
1.9775590551181101
40
0.0068897637795276
0
CIRCLE
8
WHITE
10
0.889763779527559
20
2.0283464566929132
40
0.0068897637795276
0
CIRCLE
8
WHITE
10
0.889763779527559
20
1.9283464566929134
40
0.0068897637795276
0
CIRCLE
8
WHITE
10
0.7897637795275591
20
2.0283464566929132
40
0.0068897637795276
0
CIRCLE
8
WHITE
10
0.7897637795275591
20
1.9283464566929134
40
0.0068897637795276
0
CIRCLE
8
WHITE
10
0.6897637795275591
20
2.0283464566929132
40
0.0068897637795276
0
CIRCLE
8
WHITE
10
0.6897637795275591
20
1.9283464566929134
40
0.0068897637795276
0
CIRCLE
8
WHITE
10
0.5897637795275591
20
2.0283464566929132
40
0.0068897637795276
0
CIRCLE
8
WHITE
10
0.5897637795275591
20
1.9283464566929134
40
0.0068897637795276
0
CIRCLE
8
WHITE
10
0.4897637795275591
20
2.0283464566929132
40
0.0068897637795276
0
CIRCLE
8
WHITE
10
0.4897637795275591
20
1.9283464566929134
40
0.0068897637795276
0
CIRCLE
8
WHITE
10
0.389763779527559
20
2.0283464566929132
40
0.0068897637795276
0
CIRCLE
8
WHITE
10
0.389763779527559
20
1.9283464566929134
40
0.0068897637795276
0
CIRCLE
8
WHITE
10
0.2897637795275591
20
2.0283464566929132
40
0.0068897637795276
0
CIRCLE
8
WHITE
10
0.2897637795275591
20
1.9283464566929134
40
0.0068897637795276
  0
ENDSEC
  0
EOF
