  0
SECTION
  2
HEADER
  9
$ANGBASE
  50
0.0
  9
$ANGDIR
  70
1
  9
$MEASUREMENT
  70
0
  9
$INSUNITS
  70
1
  0
ENDSEC
  0
SECTION
  2
TABLES
  0
TABLE
  2
LTYPE
  70
4
  0
LTYPE
  5
40F
  2
CONTINUOUS
  70
0
  3
Solid line
  72
65
  73
0
  40
0.0
  0
LTYPE
  5
410
  2
DASHDOT
 70
0
  3
Dash Dot ____ _ ____ _
 72
65
 73
4
 40
2.0
 49
1.25
 49
-0.25
 49
0.25
 49
-0.25
  0
LTYPE
  5
411
  2
DASHED
 70
0
  3
Dashed __ __ __ __ __
 72
65
 73
2
 40
0.75
 49
0.5
 49
-0.25
  0
LTYPE
  5
43B
  2
DOTTED
 70
0
  3
Dotted .  .  .  .
 72
65
 73
2
 40
0.2
 49
0.0
 49
-0.2
  0
ENDTAB
  0
TABLE
  2
STYLE
  70
4
  0
STYLE
  2
KICAD
  70
0
  40
0
  41
1
  42
1
  50
0
  71
0
  3
isocp.shx
  0
STYLE
  2
KICADB
  70
0
  40
0
  41
1
  42
1
  50
0
  71
0
  3
isocp.shx
  0
STYLE
  2
KICADI
  70
0
  40
0
  41
1
  42
1
  50
15
  71
0
  3
isocp.shx
  0
STYLE
  2
KICADBI
  70
0
  40
0
  41
1
  42
1
  50
15
  71
0
  3
isocp.shx
  0
ENDTAB
  0
TABLE
  2
LAYER
  70
1
  0
LAYER
  2
BLACK
  70
0
  62
250
  6
CONTINUOUS
  0
ENDTAB
  0
ENDSEC
  0
SECTION
  2
ENTITIES
0
LINE
8
BLACK
6
CONTINUOUS
10
0.0197842125984252
20
0.119591062992126
11
0.032697125984252
21
0.1166437795275591
0
LINE
8
BLACK
6
CONTINUOUS
10
0.032697125984252
20
0.1166437795275591
11
0.0451988188976378
21
0.1122692519685039
0
LINE
8
BLACK
6
CONTINUOUS
10
0.0451988188976378
20
0.1122692519685039
11
0.0571321653543307
21
0.1065224409448819
0
LINE
8
BLACK
6
CONTINUOUS
10
0.0571321653543307
20
0.1065224409448819
11
0.0683470078740157
21
0.0994757086614173
0
LINE
8
BLACK
6
CONTINUOUS
10
0.0683470078740157
20
0.0994757086614173
11
0.0787023622047244
21
0.0912175590551181
0
LINE
8
BLACK
6
CONTINUOUS
10
0.0787023622047244
20
0.0912175590551181
11
0.0880679527559055
21
0.081851968503937
0
LINE
8
BLACK
6
CONTINUOUS
10
0.0880679527559055
20
0.081851968503937
11
0.0963261023622047
21
0.0714966141732283
0
LINE
8
BLACK
6
CONTINUOUS
10
0.0963261023622047
20
0.0714966141732283
11
0.1033728346456693
21
0.0602817716535433
0
LINE
8
BLACK
6
CONTINUOUS
10
0.1033728346456693
20
0.0602817716535433
11
0.1091196456692913
21
0.0483484251968504
0
LINE
8
BLACK
6
CONTINUOUS
10
0.1091196456692913
20
0.0483484251968504
11
0.1134941732283465
21
0.0358467322834646
0
LINE
8
BLACK
6
CONTINUOUS
10
0.1134941732283465
20
0.0358467322834646
11
0.1164414566929134
21
0.0229338188976378
0
LINE
8
BLACK
6
CONTINUOUS
10
0.1164414566929134
20
0.0229338188976378
11
0.1179244094488189
21
0.0097720866141732
0
LINE
8
BLACK
6
CONTINUOUS
10
0.1179244094488189
20
0.0097720866141732
11
0.1179244094488189
21
-0.003472874015748
0
LINE
8
BLACK
6
CONTINUOUS
10
0.1179244094488189
20
-0.003472874015748
11
0.1164414566929134
21
-0.0166346062992126
0
LINE
8
BLACK
6
CONTINUOUS
10
0.1164414566929134
20
-0.0166346062992126
11
0.1134941732283465
21
-0.0295475196850394
0
LINE
8
BLACK
6
CONTINUOUS
10
0.1134941732283465
20
-0.0295475196850394
11
0.1091196456692913
21
-0.0420492125984252
0
LINE
8
BLACK
6
CONTINUOUS
10
0.1091196456692913
20
-0.0420492125984252
11
0.1033728346456693
21
-0.0539825590551181
0
LINE
8
BLACK
6
CONTINUOUS
10
0.1033728346456693
20
-0.0539825590551181
11
0.0963261023622047
21
-0.0651974015748032
0
LINE
8
BLACK
6
CONTINUOUS
10
0.0963261023622047
20
-0.0651974015748032
11
0.0880679527559055
21
-0.0755527559055118
0
LINE
8
BLACK
6
CONTINUOUS
10
0.0880679527559055
20
-0.0755527559055118
11
0.0787023622047244
21
-0.0849183464566929
0
LINE
8
BLACK
6
CONTINUOUS
10
0.0787023622047244
20
-0.0849183464566929
11
0.0683470078740157
21
-0.0931764960629921
0
LINE
8
BLACK
6
CONTINUOUS
10
0.0683470078740157
20
-0.0931764960629921
11
0.0571321653543307
21
-0.1002232283464567
0
LINE
8
BLACK
6
CONTINUOUS
10
0.0571321653543307
20
-0.1002232283464567
11
0.0451988188976378
21
-0.1059700393700787
0
LINE
8
BLACK
6
CONTINUOUS
10
0.0451988188976378
20
-0.1059700393700787
11
0.032697125984252
21
-0.1103445669291339
0
LINE
8
BLACK
6
CONTINUOUS
10
0.032697125984252
20
-0.1103445669291339
11
0.0197842125984252
21
-0.1132918503937008
0
LINE
8
BLACK
6
CONTINUOUS
10
0.0197842125984252
20
-0.1132918503937008
11
0.0066224803149606
21
-0.1147748031496063
0
LINE
8
BLACK
6
CONTINUOUS
10
0.0066224803149606
20
-0.1147748031496063
11
-0.0066224803149606
21
-0.1147748031496063
0
LINE
8
BLACK
6
CONTINUOUS
10
-0.0066224803149606
20
-0.1147748031496063
11
-0.0197842125984252
21
-0.1132918503937008
0
LINE
8
BLACK
6
CONTINUOUS
10
-0.0197842125984252
20
-0.1132918503937008
11
-0.032697125984252
21
-0.1103445669291339
0
LINE
8
BLACK
6
CONTINUOUS
10
-0.032697125984252
20
-0.1103445669291339
11
-0.0451988188976378
21
-0.1059700393700787
0
LINE
8
BLACK
6
CONTINUOUS
10
-0.0451988188976378
20
-0.1059700393700787
11
-0.0571321653543307
21
-0.1002232283464567
0
LINE
8
BLACK
6
CONTINUOUS
10
-0.0571321653543307
20
-0.1002232283464567
11
-0.0683470078740157
21
-0.0931764960629921
0
LINE
8
BLACK
6
CONTINUOUS
10
-0.0683470078740157
20
-0.0931764960629921
11
-0.0787023622047244
21
-0.0849183464566929
0
LINE
8
BLACK
6
CONTINUOUS
10
-0.0787023622047244
20
-0.0849183464566929
11
-0.0880679527559055
21
-0.0755527559055118
0
LINE
8
BLACK
6
CONTINUOUS
10
-0.0880679527559055
20
-0.0755527559055118
11
-0.0963261023622047
21
-0.0651974015748032
0
LINE
8
BLACK
6
CONTINUOUS
10
-0.0963261023622047
20
-0.0651974015748032
11
-0.1033728346456693
21
-0.0539825590551181
0
LINE
8
BLACK
6
CONTINUOUS
10
-0.1033728346456693
20
-0.0539825590551181
11
-0.1091196456692913
21
-0.0420492125984252
0
LINE
8
BLACK
6
CONTINUOUS
10
-0.1091196456692913
20
-0.0420492125984252
11
-0.1134941732283465
21
-0.0295475196850394
0
LINE
8
BLACK
6
CONTINUOUS
10
-0.1134941732283465
20
-0.0295475196850394
11
-0.1164414566929134
21
-0.0166346062992126
0
LINE
8
BLACK
6
CONTINUOUS
10
-0.1164414566929134
20
-0.0166346062992126
11
-0.1179244094488189
21
-0.003472874015748
0
LINE
8
BLACK
6
CONTINUOUS
10
-0.1179244094488189
20
-0.003472874015748
11
-0.1179244094488189
21
0.0097720866141732
0
LINE
8
BLACK
6
CONTINUOUS
10
-0.1179244094488189
20
0.0097720866141732
11
-0.1164414566929134
21
0.0229338188976378
0
LINE
8
BLACK
6
CONTINUOUS
10
-0.1164414566929134
20
0.0229338188976378
11
-0.1134941732283465
21
0.0358467322834646
0
LINE
8
BLACK
6
CONTINUOUS
10
-0.1134941732283465
20
0.0358467322834646
11
-0.1091196456692913
21
0.0483484251968504
0
LINE
8
BLACK
6
CONTINUOUS
10
-0.1091196456692913
20
0.0483484251968504
11
-0.1033728346456693
21
0.0602817716535433
0
LINE
8
BLACK
6
CONTINUOUS
10
-0.1033728346456693
20
0.0602817716535433
11
-0.0963261023622047
21
0.0714966141732283
0
LINE
8
BLACK
6
CONTINUOUS
10
-0.0963261023622047
20
0.0714966141732283
11
-0.0880679527559055
21
0.081851968503937
0
LINE
8
BLACK
6
CONTINUOUS
10
-0.0880679527559055
20
0.081851968503937
11
-0.0787023622047244
21
0.0912175590551181
0
LINE
8
BLACK
6
CONTINUOUS
10
-0.0787023622047244
20
0.0912175590551181
11
-0.0683470078740157
21
0.0994757086614173
0
LINE
8
BLACK
6
CONTINUOUS
10
-0.0683470078740157
20
0.0994757086614173
11
-0.0571321653543307
21
0.1065224409448819
0
LINE
8
BLACK
6
CONTINUOUS
10
-0.0571321653543307
20
0.1065224409448819
11
-0.0451988188976378
21
0.1122692519685039
0
LINE
8
BLACK
6
CONTINUOUS
10
-0.0451988188976378
20
0.1122692519685039
11
-0.032697125984252
21
0.1166437795275591
0
LINE
8
BLACK
6
CONTINUOUS
10
-0.032697125984252
20
0.1166437795275591
11
-0.0197842125984252
21
0.119591062992126
0
LINE
8
BLACK
6
CONTINUOUS
10
-0.0197842125984252
20
0.119591062992126
11
-0.0066224803149606
21
0.1210740157480315
0
LINE
8
BLACK
6
CONTINUOUS
10
-0.0066224803149606
20
0.1210740157480315
11
0.0066224803149606
21
0.1210740157480315
0
LINE
8
BLACK
6
CONTINUOUS
10
0.0066224803149606
20
0.1210740157480315
11
0.0197842125984252
21
0.119591062992126
0
LINE
8
BLACK
6
CONTINUOUS
10
1.2197842125984251
20
0.119591062992126
11
1.2326971259842519
21
0.1166437795275591
0
LINE
8
BLACK
6
CONTINUOUS
10
1.2326971259842519
20
0.1166437795275591
11
1.2451988188976377
21
0.1122692519685039
0
LINE
8
BLACK
6
CONTINUOUS
10
1.2451988188976377
20
0.1122692519685039
11
1.2571321653543306
21
0.1065224409448819
0
LINE
8
BLACK
6
CONTINUOUS
10
1.2571321653543306
20
0.1065224409448819
11
1.2683470078740158
21
0.0994757086614173
0
LINE
8
BLACK
6
CONTINUOUS
10
1.2683470078740158
20
0.0994757086614173
11
1.2787023622047244
21
0.0912175590551181
0
LINE
8
BLACK
6
CONTINUOUS
10
1.2787023622047244
20
0.0912175590551181
11
1.2880679527559056
21
0.081851968503937
0
LINE
8
BLACK
6
CONTINUOUS
10
1.2880679527559056
20
0.081851968503937
11
1.2963261023622048
21
0.0714966141732283
0
LINE
8
BLACK
6
CONTINUOUS
10
1.2963261023622048
20
0.0714966141732283
11
1.3033728346456692
21
0.0602817716535433
0
LINE
8
BLACK
6
CONTINUOUS
10
1.3033728346456692
20
0.0602817716535433
11
1.3091196456692913
21
0.0483484251968504
0
LINE
8
BLACK
6
CONTINUOUS
10
1.3091196456692913
20
0.0483484251968504
11
1.3134941732283465
21
0.0358467322834646
0
LINE
8
BLACK
6
CONTINUOUS
10
1.3134941732283465
20
0.0358467322834646
11
1.3164414566929135
21
0.0229338188976378
0
LINE
8
BLACK
6
CONTINUOUS
10
1.3164414566929135
20
0.0229338188976378
11
1.3179244094488189
21
0.0097720866141732
0
LINE
8
BLACK
6
CONTINUOUS
10
1.3179244094488189
20
0.0097720866141732
11
1.3179244094488189
21
-0.003472874015748
0
LINE
8
BLACK
6
CONTINUOUS
10
1.3179244094488189
20
-0.003472874015748
11
1.3164414566929135
21
-0.0166346062992126
0
LINE
8
BLACK
6
CONTINUOUS
10
1.3164414566929135
20
-0.0166346062992126
11
1.3134941732283465
21
-0.0295475196850394
0
LINE
8
BLACK
6
CONTINUOUS
10
1.3134941732283465
20
-0.0295475196850394
11
1.3091196456692913
21
-0.0420492125984252
0
LINE
8
BLACK
6
CONTINUOUS
10
1.3091196456692913
20
-0.0420492125984252
11
1.3033728346456692
21
-0.0539825590551181
0
LINE
8
BLACK
6
CONTINUOUS
10
1.3033728346456692
20
-0.0539825590551181
11
1.2963261023622048
21
-0.0651974015748032
0
LINE
8
BLACK
6
CONTINUOUS
10
1.2963261023622048
20
-0.0651974015748032
11
1.2880679527559056
21
-0.0755527559055118
0
LINE
8
BLACK
6
CONTINUOUS
10
1.2880679527559056
20
-0.0755527559055118
11
1.2787023622047244
21
-0.0849183464566929
0
LINE
8
BLACK
6
CONTINUOUS
10
1.2787023622047244
20
-0.0849183464566929
11
1.2683470078740158
21
-0.0931764960629921
0
LINE
8
BLACK
6
CONTINUOUS
10
1.2683470078740158
20
-0.0931764960629921
11
1.2571321653543306
21
-0.1002232283464567
0
LINE
8
BLACK
6
CONTINUOUS
10
1.2571321653543306
20
-0.1002232283464567
11
1.2451988188976377
21
-0.1059700393700787
0
LINE
8
BLACK
6
CONTINUOUS
10
1.2451988188976377
20
-0.1059700393700787
11
1.2326971259842519
21
-0.1103445669291339
0
LINE
8
BLACK
6
CONTINUOUS
10
1.2326971259842519
20
-0.1103445669291339
11
1.2197842125984251
21
-0.1132918503937008
0
LINE
8
BLACK
6
CONTINUOUS
10
1.2197842125984251
20
-0.1132918503937008
11
1.2066224803149606
21
-0.1147748031496063
0
LINE
8
BLACK
6
CONTINUOUS
10
1.2066224803149606
20
-0.1147748031496063
11
1.1933775196850394
21
-0.1147748031496063
0
LINE
8
BLACK
6
CONTINUOUS
10
1.1933775196850394
20
-0.1147748031496063
11
1.1802157874015748
21
-0.1132918503937008
0
LINE
8
BLACK
6
CONTINUOUS
10
1.1802157874015748
20
-0.1132918503937008
11
1.1673028740157481
21
-0.1103445669291339
0
LINE
8
BLACK
6
CONTINUOUS
10
1.1673028740157481
20
-0.1103445669291339
11
1.1548011811023622
21
-0.1059700393700787
0
LINE
8
BLACK
6
CONTINUOUS
10
1.1548011811023622
20
-0.1059700393700787
11
1.1428678346456693
21
-0.1002232283464567
0
LINE
8
BLACK
6
CONTINUOUS
10
1.1428678346456693
20
-0.1002232283464567
11
1.1316529921259841
21
-0.0931764960629921
0
LINE
8
BLACK
6
CONTINUOUS
10
1.1316529921259841
20
-0.0931764960629921
11
1.1212976377952755
21
-0.0849183464566929
0
LINE
8
BLACK
6
CONTINUOUS
10
1.1212976377952755
20
-0.0849183464566929
11
1.1119320472440946
21
-0.0755527559055118
0
LINE
8
BLACK
6
CONTINUOUS
10
1.1119320472440946
20
-0.0755527559055118
11
1.1036738976377953
21
-0.0651974015748032
0
LINE
8
BLACK
6
CONTINUOUS
10
1.1036738976377953
20
-0.0651974015748032
11
1.0966271653543307
21
-0.0539825590551181
0
LINE
8
BLACK
6
CONTINUOUS
10
1.0966271653543307
20
-0.0539825590551181
11
1.0908803543307086
21
-0.0420492125984252
0
LINE
8
BLACK
6
CONTINUOUS
10
1.0908803543307086
20
-0.0420492125984252
11
1.0865058267716534
21
-0.0295475196850394
0
LINE
8
BLACK
6
CONTINUOUS
10
1.0865058267716534
20
-0.0295475196850394
11
1.0835585433070867
21
-0.0166346062992126
0
LINE
8
BLACK
6
CONTINUOUS
10
1.0835585433070867
20
-0.0166346062992126
11
1.0820755905511812
21
-0.003472874015748
0
LINE
8
BLACK
6
CONTINUOUS
10
1.0820755905511812
20
-0.003472874015748
11
1.0820755905511812
21
0.0097720866141732
0
LINE
8
BLACK
6
CONTINUOUS
10
1.0820755905511812
20
0.0097720866141732
11
1.0835585433070867
21
0.0229338188976378
0
LINE
8
BLACK
6
CONTINUOUS
10
1.0835585433070867
20
0.0229338188976378
11
1.0865058267716534
21
0.0358467322834646
0
LINE
8
BLACK
6
CONTINUOUS
10
1.0865058267716534
20
0.0358467322834646
11
1.0908803543307086
21
0.0483484251968504
0
LINE
8
BLACK
6
CONTINUOUS
10
1.0908803543307086
20
0.0483484251968504
11
1.0966271653543307
21
0.0602817716535433
0
LINE
8
BLACK
6
CONTINUOUS
10
1.0966271653543307
20
0.0602817716535433
11
1.1036738976377953
21
0.0714966141732283
0
LINE
8
BLACK
6
CONTINUOUS
10
1.1036738976377953
20
0.0714966141732283
11
1.1119320472440946
21
0.081851968503937
0
LINE
8
BLACK
6
CONTINUOUS
10
1.1119320472440946
20
0.081851968503937
11
1.1212976377952755
21
0.0912175590551181
0
LINE
8
BLACK
6
CONTINUOUS
10
1.1212976377952755
20
0.0912175590551181
11
1.1316529921259841
21
0.0994757086614173
0
LINE
8
BLACK
6
CONTINUOUS
10
1.1316529921259841
20
0.0994757086614173
11
1.1428678346456693
21
0.1065224409448819
0
LINE
8
BLACK
6
CONTINUOUS
10
1.1428678346456693
20
0.1065224409448819
11
1.1548011811023622
21
0.1122692519685039
0
LINE
8
BLACK
6
CONTINUOUS
10
1.1548011811023622
20
0.1122692519685039
11
1.1673028740157481
21
0.1166437795275591
0
LINE
8
BLACK
6
CONTINUOUS
10
1.1673028740157481
20
0.1166437795275591
11
1.1802157874015748
21
0.119591062992126
0
LINE
8
BLACK
6
CONTINUOUS
10
1.1802157874015748
20
0.119591062992126
11
1.1933775196850394
21
0.1210740157480315
0
LINE
8
BLACK
6
CONTINUOUS
10
1.1933775196850394
20
0.1210740157480315
11
1.2066224803149606
21
0.1210740157480315
0
LINE
8
BLACK
6
CONTINUOUS
10
1.2066224803149606
20
0.1210740157480315
11
1.2197842125984251
21
0.119591062992126
0
LINE
8
BLACK
6
CONTINUOUS
10
0.5145669291338583
20
0.284251968503937
11
0.4988188976377952
21
0.284251968503937
0
LINE
8
BLACK
6
CONTINUOUS
10
0.4988188976377952
20
0.284251968503937
11
0.4988188976377952
21
0.3511811023622047
0
LINE
8
BLACK
6
CONTINUOUS
10
0.4988188976377952
20
0.3511811023622047
11
0.5145669291338583
21
0.3511811023622047
0
LINE
8
BLACK
6
CONTINUOUS
10
0.5145669291338583
20
0.3511811023622047
11
0.5145669291338583
21
0.284251968503937
0
LINE
8
BLACK
6
CONTINUOUS
10
0.705511811023622
20
0.284251968503937
11
0.6897637795275591
21
0.284251968503937
0
LINE
8
BLACK
6
CONTINUOUS
10
0.6897637795275591
20
0.284251968503937
11
0.6897637795275591
21
0.3511811023622047
0
LINE
8
BLACK
6
CONTINUOUS
10
0.6897637795275591
20
0.3511811023622047
11
0.705511811023622
21
0.3511811023622047
0
LINE
8
BLACK
6
CONTINUOUS
10
0.705511811023622
20
0.3511811023622047
11
0.705511811023622
21
0.284251968503937
0
LINE
8
BLACK
6
CONTINUOUS
10
0.5362204724409448
20
0.3570866141732283
11
0.5263779527559055
21
0.3570866141732283
0
LINE
8
BLACK
6
CONTINUOUS
10
0.5263779527559055
20
0.3570866141732283
11
0.5263779527559055
21
0.3807086614173228
0
LINE
8
BLACK
6
CONTINUOUS
10
0.5263779527559055
20
0.3807086614173228
11
0.5362204724409448
21
0.3807086614173228
0
LINE
8
BLACK
6
CONTINUOUS
10
0.5362204724409448
20
0.3807086614173228
11
0.5362204724409448
21
0.3570866141732283
0
LINE
8
BLACK
6
CONTINUOUS
10
0.5519685039370079
20
0.3570866141732283
11
0.5421259842519685
21
0.3570866141732283
0
LINE
8
BLACK
6
CONTINUOUS
10
0.5421259842519685
20
0.3570866141732283
11
0.5421259842519685
21
0.3807086614173228
0
LINE
8
BLACK
6
CONTINUOUS
10
0.5421259842519685
20
0.3807086614173228
11
0.5519685039370079
21
0.3807086614173228
0
LINE
8
BLACK
6
CONTINUOUS
10
0.5519685039370079
20
0.3807086614173228
11
0.5519685039370079
21
0.3570866141732283
0
LINE
8
BLACK
6
CONTINUOUS
10
0.5677165354330709
20
0.3570866141732283
11
0.5578740157480315
21
0.3570866141732283
0
LINE
8
BLACK
6
CONTINUOUS
10
0.5578740157480315
20
0.3570866141732283
11
0.5578740157480315
21
0.3807086614173228
0
LINE
8
BLACK
6
CONTINUOUS
10
0.5578740157480315
20
0.3807086614173228
11
0.5677165354330709
21
0.3807086614173228
0
LINE
8
BLACK
6
CONTINUOUS
10
0.5677165354330709
20
0.3807086614173228
11
0.5677165354330709
21
0.3570866141732283
0
LINE
8
BLACK
6
CONTINUOUS
10
0.5834645669291338
20
0.3570866141732283
11
0.5736220472440945
21
0.3570866141732283
0
LINE
8
BLACK
6
CONTINUOUS
10
0.5736220472440945
20
0.3570866141732283
11
0.5736220472440945
21
0.3807086614173228
0
LINE
8
BLACK
6
CONTINUOUS
10
0.5736220472440945
20
0.3807086614173228
11
0.5834645669291338
21
0.3807086614173228
0
LINE
8
BLACK
6
CONTINUOUS
10
0.5834645669291338
20
0.3807086614173228
11
0.5834645669291338
21
0.3570866141732283
0
LINE
8
BLACK
6
CONTINUOUS
10
0.5992125984251968
20
0.3570866141732283
11
0.5893700787401575
21
0.3570866141732283
0
LINE
8
BLACK
6
CONTINUOUS
10
0.5893700787401575
20
0.3570866141732283
11
0.5893700787401575
21
0.3807086614173228
0
LINE
8
BLACK
6
CONTINUOUS
10
0.5893700787401575
20
0.3807086614173228
11
0.5992125984251968
21
0.3807086614173228
0
LINE
8
BLACK
6
CONTINUOUS
10
0.5992125984251968
20
0.3807086614173228
11
0.5992125984251968
21
0.3570866141732283
0
LINE
8
BLACK
6
CONTINUOUS
10
0.6149606299212599
20
0.3570866141732283
11
0.6051181102362204
21
0.3570866141732283
0
LINE
8
BLACK
6
CONTINUOUS
10
0.6051181102362204
20
0.3570866141732283
11
0.6051181102362204
21
0.3807086614173228
0
LINE
8
BLACK
6
CONTINUOUS
10
0.6051181102362204
20
0.3807086614173228
11
0.6149606299212599
21
0.3807086614173228
0
LINE
8
BLACK
6
CONTINUOUS
10
0.6149606299212599
20
0.3807086614173228
11
0.6149606299212599
21
0.3570866141732283
0
LINE
8
BLACK
6
CONTINUOUS
10
0.6307086614173228
20
0.3570866141732283
11
0.6208661417322835
21
0.3570866141732283
0
LINE
8
BLACK
6
CONTINUOUS
10
0.6208661417322835
20
0.3570866141732283
11
0.6208661417322835
21
0.3807086614173228
0
LINE
8
BLACK
6
CONTINUOUS
10
0.6208661417322835
20
0.3807086614173228
11
0.6307086614173228
21
0.3807086614173228
0
LINE
8
BLACK
6
CONTINUOUS
10
0.6307086614173228
20
0.3807086614173228
11
0.6307086614173228
21
0.3570866141732283
0
LINE
8
BLACK
6
CONTINUOUS
10
0.6464566929133858
20
0.3570866141732283
11
0.6366141732283465
21
0.3570866141732283
0
LINE
8
BLACK
6
CONTINUOUS
10
0.6366141732283465
20
0.3570866141732283
11
0.6366141732283465
21
0.3807086614173228
0
LINE
8
BLACK
6
CONTINUOUS
10
0.6366141732283465
20
0.3807086614173228
11
0.6464566929133858
21
0.3807086614173228
0
LINE
8
BLACK
6
CONTINUOUS
10
0.6464566929133858
20
0.3807086614173228
11
0.6464566929133858
21
0.3570866141732283
0
LINE
8
BLACK
6
CONTINUOUS
10
0.6622047244094488
20
0.3570866141732283
11
0.6523622047244094
21
0.3570866141732283
0
LINE
8
BLACK
6
CONTINUOUS
10
0.6523622047244094
20
0.3570866141732283
11
0.6523622047244094
21
0.3807086614173228
0
LINE
8
BLACK
6
CONTINUOUS
10
0.6523622047244094
20
0.3807086614173228
11
0.6622047244094488
21
0.3807086614173228
0
LINE
8
BLACK
6
CONTINUOUS
10
0.6622047244094488
20
0.3807086614173228
11
0.6622047244094488
21
0.3570866141732283
0
LINE
8
BLACK
6
CONTINUOUS
10
0.6779527559055119
20
0.3570866141732283
11
0.6681102362204724
21
0.3570866141732283
0
LINE
8
BLACK
6
CONTINUOUS
10
0.6681102362204724
20
0.3570866141732283
11
0.6681102362204724
21
0.3807086614173228
0
LINE
8
BLACK
6
CONTINUOUS
10
0.6681102362204724
20
0.3807086614173228
11
0.6779527559055119
21
0.3807086614173228
0
LINE
8
BLACK
6
CONTINUOUS
10
0.6779527559055119
20
0.3807086614173228
11
0.6779527559055119
21
0.3570866141732283
0
LINE
8
BLACK
6
CONTINUOUS
10
0.8245583070866142
20
0.4332184645669291
11
0.8274321653543307
21
0.4312982283464567
0
LINE
8
BLACK
6
CONTINUOUS
10
0.8274321653543307
20
0.4312982283464567
11
0.8399596456692913
21
0.4187707480314961
0
LINE
8
BLACK
6
CONTINUOUS
10
0.8399596456692913
20
0.4187707480314961
11
0.8418798818897638
21
0.4158968897637795
0
LINE
8
BLACK
6
CONTINUOUS
10
0.8418798818897638
20
0.4158968897637795
11
0.8425541732283465
21
0.4125070078740157
0
LINE
8
BLACK
6
CONTINUOUS
10
0.8425541732283465
20
0.4125070078740157
11
0.8418798818897638
21
0.4091170866141732
0
LINE
8
BLACK
6
CONTINUOUS
10
0.8418798818897638
20
0.4091170866141732
11
0.8399596456692913
21
0.4062432677165354
0
LINE
8
BLACK
6
CONTINUOUS
10
0.8399596456692913
20
0.4062432677165354
11
0.8260401968503936
21
0.3923238188976378
0
LINE
8
BLACK
6
CONTINUOUS
10
0.8260401968503936
20
0.3923238188976378
11
0.8231663779527559
21
0.3904035826771654
0
LINE
8
BLACK
6
CONTINUOUS
10
0.8231663779527559
20
0.3904035826771654
11
0.8197764566929133
21
0.3897292913385827
0
LINE
8
BLACK
6
CONTINUOUS
10
0.8197764566929133
20
0.3897292913385827
11
0.8163865748031496
21
0.3904035826771654
0
LINE
8
BLACK
6
CONTINUOUS
10
0.8163865748031496
20
0.3904035826771654
11
0.813512716535433
21
0.3923238188976378
0
LINE
8
BLACK
6
CONTINUOUS
10
0.813512716535433
20
0.3923238188976378
11
0.8009852362204725
21
0.4048512992125984
0
LINE
8
BLACK
6
CONTINUOUS
10
0.8009852362204725
20
0.4048512992125984
11
0.799065
21
0.407725157480315
0
LINE
8
BLACK
6
CONTINUOUS
10
0.799065
20
0.407725157480315
11
0.7983907086614173
21
0.4111150393700787
0
LINE
8
BLACK
6
CONTINUOUS
10
0.7983907086614173
20
0.4111150393700787
11
0.799065
21
0.4145049606299213
0
LINE
8
BLACK
6
CONTINUOUS
10
0.799065
20
0.4145049606299213
11
0.8009852362204725
21
0.417378779527559
0
LINE
8
BLACK
6
CONTINUOUS
10
0.8009852362204725
20
0.417378779527559
11
0.8149046850393701
21
0.4312982283464567
0
LINE
8
BLACK
6
CONTINUOUS
10
0.8149046850393701
20
0.4312982283464567
11
0.8177785039370079
21
0.4332184645669291
0
LINE
8
BLACK
6
CONTINUOUS
10
0.8177785039370079
20
0.4332184645669291
11
0.8211684251968504
21
0.4338927559055118
0
LINE
8
BLACK
6
CONTINUOUS
10
0.8211684251968504
20
0.4338927559055118
11
0.8245583070866142
21
0.4332184645669291
0
LINE
8
BLACK
6
CONTINUOUS
10
0.7814080708661417
20
0.4763687007874016
11
0.7842819291338583
21
0.4744484645669291
0
LINE
8
BLACK
6
CONTINUOUS
10
0.7842819291338583
20
0.4744484645669291
11
0.7968094094488188
21
0.4619209842519685
0
LINE
8
BLACK
6
CONTINUOUS
10
0.7968094094488188
20
0.4619209842519685
11
0.7987296456692913
21
0.459047125984252
0
LINE
8
BLACK
6
CONTINUOUS
10
0.7987296456692913
20
0.459047125984252
11
0.799403937007874
21
0.4556572440944882
0
LINE
8
BLACK
6
CONTINUOUS
10
0.799403937007874
20
0.4556572440944882
11
0.7987296456692913
21
0.4522673228346457
0
LINE
8
BLACK
6
CONTINUOUS
10
0.7987296456692913
20
0.4522673228346457
11
0.7968094094488188
21
0.4493935039370079
0
LINE
8
BLACK
6
CONTINUOUS
10
0.7968094094488188
20
0.4493935039370079
11
0.7828899606299212
21
0.4354740551181102
0
LINE
8
BLACK
6
CONTINUOUS
10
0.7828899606299212
20
0.4354740551181102
11
0.7800161417322834
21
0.4335538188976378
0
LINE
8
BLACK
6
CONTINUOUS
10
0.7800161417322834
20
0.4335538188976378
11
0.7766262204724409
21
0.4328795275590551
0
LINE
8
BLACK
6
CONTINUOUS
10
0.7766262204724409
20
0.4328795275590551
11
0.7732363385826772
21
0.4335538188976378
0
LINE
8
BLACK
6
CONTINUOUS
10
0.7732363385826772
20
0.4335538188976378
11
0.7703624803149606
21
0.4354740551181102
0
LINE
8
BLACK
6
CONTINUOUS
10
0.7703624803149606
20
0.4354740551181102
11
0.757835
21
0.4480015354330709
0
LINE
8
BLACK
6
CONTINUOUS
10
0.757835
20
0.4480015354330709
11
0.7559147637795275
21
0.4508753937007874
0
LINE
8
BLACK
6
CONTINUOUS
10
0.7559147637795275
20
0.4508753937007874
11
0.7552404724409448
21
0.4542652755905512
0
LINE
8
BLACK
6
CONTINUOUS
10
0.7552404724409448
20
0.4542652755905512
11
0.7559147637795275
21
0.4576551968503937
0
LINE
8
BLACK
6
CONTINUOUS
10
0.7559147637795275
20
0.4576551968503937
11
0.757835
21
0.4605290157480315
0
LINE
8
BLACK
6
CONTINUOUS
10
0.757835
20
0.4605290157480315
11
0.7717544488188977
21
0.4744484645669291
0
LINE
8
BLACK
6
CONTINUOUS
10
0.7717544488188977
20
0.4744484645669291
11
0.7746282677165354
21
0.4763687007874016
0
LINE
8
BLACK
6
CONTINUOUS
10
0.7746282677165354
20
0.4763687007874016
11
0.778018188976378
21
0.4770429921259842
0
LINE
8
BLACK
6
CONTINUOUS
10
0.778018188976378
20
0.4770429921259842
11
0.7814080708661417
21
0.4763687007874016
0
LINE
8
BLACK
6
CONTINUOUS
10
0.4326771653543307
20
1.0200787401574802
11
0.4917322834645669
21
1.0200787401574802
0
LINE
8
BLACK
6
CONTINUOUS
10
0.4917322834645669
20
1.0200787401574802
11
0.5133858267716536
21
1.0200787401574802
0
LINE
8
BLACK
6
CONTINUOUS
10
0.5133858267716536
20
1.0200787401574802
11
0.5133858267716536
21
1.0199103149606299
0
LINE
8
BLACK
6
CONTINUOUS
10
0.5133858267716536
20
1.0199103149606299
11
0.5159552362204725
21
1.0199103149606299
0
LINE
8
BLACK
6
CONTINUOUS
10
0.5159552362204725
20
1.0199103149606299
11
0.5209189763779527
21
1.0185803149606298
0
LINE
8
BLACK
6
CONTINUOUS
10
0.5209189763779527
20
1.0185803149606298
11
0.5253693307086614
21
1.0160109055118109
0
LINE
8
BLACK
6
CONTINUOUS
10
0.5253693307086614
20
1.0160109055118109
11
0.529003031496063
21
1.0123772047244095
0
LINE
8
BLACK
6
CONTINUOUS
10
0.529003031496063
20
1.0123772047244095
11
0.5315724409448819
21
1.0079268503937007
0
LINE
8
BLACK
6
CONTINUOUS
10
0.5315724409448819
20
1.0079268503937007
11
0.5329024409448819
21
1.0029631102362204
0
LINE
8
BLACK
6
CONTINUOUS
10
0.5329024409448819
20
1.0029631102362204
11
0.5329024409448819
21
1.0003937007874015
0
LINE
8
BLACK
6
CONTINUOUS
10
0.5329024409448819
20
1.0003937007874015
11
0.5330708661417323
21
1.0003937007874015
0
LINE
8
BLACK
6
CONTINUOUS
10
0.5330708661417323
20
1.0003937007874015
11
0.5330708661417323
21
0.9807086614173228
0
LINE
8
BLACK
6
CONTINUOUS
10
0.5330708661417323
20
0.9807086614173228
11
0.5329024409448819
21
0.9807086614173228
0
LINE
8
BLACK
6
CONTINUOUS
10
0.5329024409448819
20
0.9807086614173228
11
0.5329024409448819
21
0.9781392519685039
0
LINE
8
BLACK
6
CONTINUOUS
10
0.5329024409448819
20
0.9781392519685039
11
0.5315724409448819
21
0.9731755118110236
0
LINE
8
BLACK
6
CONTINUOUS
10
0.5315724409448819
20
0.9731755118110236
11
0.529003031496063
21
0.968725157480315
0
LINE
8
BLACK
6
CONTINUOUS
10
0.529003031496063
20
0.968725157480315
11
0.5253693307086614
21
0.9650914566929134
0
LINE
8
BLACK
6
CONTINUOUS
10
0.5253693307086614
20
0.9650914566929134
11
0.5209189763779527
21
0.9625220472440945
0
LINE
8
BLACK
6
CONTINUOUS
10
0.5209189763779527
20
0.9625220472440945
11
0.5159552362204725
21
0.9611920472440945
0
LINE
8
BLACK
6
CONTINUOUS
10
0.5159552362204725
20
0.9611920472440945
11
0.5133858267716536
21
0.9611920472440945
0
LINE
8
BLACK
6
CONTINUOUS
10
0.5133858267716536
20
0.9611920472440945
11
0.5133858267716536
21
0.9610236220472441
0
LINE
8
BLACK
6
CONTINUOUS
10
0.5133858267716536
20
0.9610236220472441
11
0.4917322834645669
21
0.9610236220472441
0
LINE
8
BLACK
6
CONTINUOUS
10
0.4917322834645669
20
0.9610236220472441
11
0.4818897637795275
21
0.9610236220472441
0
LINE
8
BLACK
6
CONTINUOUS
10
0.4818897637795275
20
0.9610236220472441
11
0.4425196850393701
21
0.9610236220472441
0
LINE
8
BLACK
6
CONTINUOUS
10
0.4425196850393701
20
0.9610236220472441
11
0.4326771653543307
21
0.9610236220472441
0
LINE
8
BLACK
6
CONTINUOUS
10
0.4326771653543307
20
0.9610236220472441
11
0.4110236220472441
21
0.9610236220472441
0
LINE
8
BLACK
6
CONTINUOUS
10
0.4110236220472441
20
0.9610236220472441
11
0.4110236220472441
21
0.9611920472440945
0
LINE
8
BLACK
6
CONTINUOUS
10
0.4110236220472441
20
0.9611920472440945
11
0.4084542125984252
21
0.9611920472440945
0
LINE
8
BLACK
6
CONTINUOUS
10
0.4084542125984252
20
0.9611920472440945
11
0.4034904724409449
21
0.9625220472440945
0
LINE
8
BLACK
6
CONTINUOUS
10
0.4034904724409449
20
0.9625220472440945
11
0.3990401181102362
21
0.9650914566929134
0
LINE
8
BLACK
6
CONTINUOUS
10
0.3990401181102362
20
0.9650914566929134
11
0.3954064173228347
21
0.968725157480315
0
LINE
8
BLACK
6
CONTINUOUS
10
0.3954064173228347
20
0.968725157480315
11
0.3928370078740158
21
0.9731755118110236
0
LINE
8
BLACK
6
CONTINUOUS
10
0.3928370078740158
20
0.9731755118110236
11
0.3915070078740158
21
0.9781392519685039
0
LINE
8
BLACK
6
CONTINUOUS
10
0.3915070078740158
20
0.9781392519685039
11
0.3915070078740158
21
0.9807086614173228
0
LINE
8
BLACK
6
CONTINUOUS
10
0.3915070078740158
20
0.9807086614173228
11
0.3913385826771654
21
0.9807086614173228
0
LINE
8
BLACK
6
CONTINUOUS
10
0.3913385826771654
20
0.9807086614173228
11
0.3913385826771654
21
1.0003937007874015
0
LINE
8
BLACK
6
CONTINUOUS
10
0.3913385826771654
20
1.0003937007874015
11
0.3915070078740158
21
1.0003937007874015
0
LINE
8
BLACK
6
CONTINUOUS
10
0.3915070078740158
20
1.0003937007874015
11
0.3915070078740158
21
1.0029631102362204
0
LINE
8
BLACK
6
CONTINUOUS
10
0.3915070078740158
20
1.0029631102362204
11
0.3928370078740158
21
1.0079268503937007
0
LINE
8
BLACK
6
CONTINUOUS
10
0.3928370078740158
20
1.0079268503937007
11
0.3954064173228347
21
1.0123772047244095
0
LINE
8
BLACK
6
CONTINUOUS
10
0.3954064173228347
20
1.0123772047244095
11
0.3990401181102362
21
1.0160109055118109
0
LINE
8
BLACK
6
CONTINUOUS
10
0.3990401181102362
20
1.0160109055118109
11
0.4034904724409449
21
1.0185803149606298
0
LINE
8
BLACK
6
CONTINUOUS
10
0.4034904724409449
20
1.0185803149606298
11
0.4084542125984252
21
1.0199103149606299
0
LINE
8
BLACK
6
CONTINUOUS
10
0.4084542125984252
20
1.0199103149606299
11
0.4110236220472441
21
1.0199103149606299
0
LINE
8
BLACK
6
CONTINUOUS
10
0.4110236220472441
20
1.0199103149606299
11
0.4110236220472441
21
1.0200787401574802
0
LINE
8
BLACK
6
CONTINUOUS
10
0.4110236220472441
20
1.0200787401574802
11
0.4326771653543307
21
1.0200787401574802
0
LINE
8
BLACK
6
CONTINUOUS
10
0.1671694488188976
20
1.0058217716535434
11
0.1700432677165354
21
1.0039015354330709
0
LINE
8
BLACK
6
CONTINUOUS
10
0.1700432677165354
20
1.0039015354330709
11
0.1719635039370079
21
1.0010277165354331
0
LINE
8
BLACK
6
CONTINUOUS
10
0.1719635039370079
20
1.0010277165354331
11
0.1726377952755906
21
0.9976377952755905
0
LINE
8
BLACK
6
CONTINUOUS
10
0.1726377952755906
20
0.9976377952755905
11
0.1726377952755906
21
0.9799212598425197
0
LINE
8
BLACK
6
CONTINUOUS
10
0.1726377952755906
20
0.9799212598425197
11
0.1719635039370079
21
0.9765313385826772
0
LINE
8
BLACK
6
CONTINUOUS
10
0.1719635039370079
20
0.9765313385826772
11
0.1700432677165354
21
0.9736575196850393
0
LINE
8
BLACK
6
CONTINUOUS
10
0.1700432677165354
20
0.9736575196850393
11
0.1671694488188976
21
0.9717372834645669
0
LINE
8
BLACK
6
CONTINUOUS
10
0.1671694488188976
20
0.9717372834645669
11
0.1637795275590551
21
0.9710629921259842
0
LINE
8
BLACK
6
CONTINUOUS
10
0.1637795275590551
20
0.9710629921259842
11
0.1440944881889764
21
0.9710629921259842
0
LINE
8
BLACK
6
CONTINUOUS
10
0.1440944881889764
20
0.9710629921259842
11
0.1407045669291339
21
0.9717372834645669
0
LINE
8
BLACK
6
CONTINUOUS
10
0.1407045669291339
20
0.9717372834645669
11
0.1378307480314961
21
0.9736575196850393
0
LINE
8
BLACK
6
CONTINUOUS
10
0.1378307480314961
20
0.9736575196850393
11
0.1359105118110236
21
0.9765313385826772
0
LINE
8
BLACK
6
CONTINUOUS
10
0.1359105118110236
20
0.9765313385826772
11
0.1352362204724409
21
0.9799212598425197
0
LINE
8
BLACK
6
CONTINUOUS
10
0.1352362204724409
20
0.9799212598425197
11
0.1352362204724409
21
0.9976377952755905
0
LINE
8
BLACK
6
CONTINUOUS
10
0.1352362204724409
20
0.9976377952755905
11
0.1359105118110236
21
1.0010277165354331
0
LINE
8
BLACK
6
CONTINUOUS
10
0.1359105118110236
20
1.0010277165354331
11
0.1378307480314961
21
1.0039015354330709
0
LINE
8
BLACK
6
CONTINUOUS
10
0.1378307480314961
20
1.0039015354330709
11
0.1407045669291339
21
1.0058217716535434
0
LINE
8
BLACK
6
CONTINUOUS
10
0.1407045669291339
20
1.0058217716535434
11
0.1440944881889764
21
1.006496062992126
0
LINE
8
BLACK
6
CONTINUOUS
10
0.1440944881889764
20
1.006496062992126
11
0.1637795275590551
21
1.006496062992126
0
LINE
8
BLACK
6
CONTINUOUS
10
0.1637795275590551
20
1.006496062992126
11
0.1671694488188976
21
1.0058217716535434
0
LINE
8
BLACK
6
CONTINUOUS
10
0.2707298031496063
20
1.0102274015748032
11
0.2732842913385827
21
1.0085205118110236
0
LINE
8
BLACK
6
CONTINUOUS
10
0.2732842913385827
20
1.0085205118110236
11
0.2749911811023622
21
1.0059660236220471
0
LINE
8
BLACK
6
CONTINUOUS
10
0.2749911811023622
20
1.0059660236220471
11
0.2755905511811024
21
1.0029527559055118
0
LINE
8
BLACK
6
CONTINUOUS
10
0.2755905511811024
20
1.0029527559055118
11
0.2755905511811024
21
0.9812992125984251
0
LINE
8
BLACK
6
CONTINUOUS
10
0.2755905511811024
20
0.9812992125984251
11
0.2749911811023622
21
0.9782859448818897
0
LINE
8
BLACK
6
CONTINUOUS
10
0.2749911811023622
20
0.9782859448818897
11
0.2732842913385827
21
0.9757314566929134
0
LINE
8
BLACK
6
CONTINUOUS
10
0.2732842913385827
20
0.9757314566929134
11
0.2707298031496063
21
0.9740245669291339
0
LINE
8
BLACK
6
CONTINUOUS
10
0.2707298031496063
20
0.9740245669291339
11
0.2677165354330708
21
0.9734251968503936
0
LINE
8
BLACK
6
CONTINUOUS
10
0.2677165354330708
20
0.9734251968503936
11
0.2519685039370079
21
0.9734251968503936
0
LINE
8
BLACK
6
CONTINUOUS
10
0.2519685039370079
20
0.9734251968503936
11
0.2489552362204724
21
0.9740245669291339
0
LINE
8
BLACK
6
CONTINUOUS
10
0.2489552362204724
20
0.9740245669291339
11
0.2464007480314961
21
0.9757314566929134
0
LINE
8
BLACK
6
CONTINUOUS
10
0.2464007480314961
20
0.9757314566929134
11
0.2446938582677165
21
0.9782859448818897
0
LINE
8
BLACK
6
CONTINUOUS
10
0.2446938582677165
20
0.9782859448818897
11
0.2440944881889764
21
0.9812992125984251
0
LINE
8
BLACK
6
CONTINUOUS
10
0.2440944881889764
20
0.9812992125984251
11
0.2440944881889764
21
1.0029527559055118
0
LINE
8
BLACK
6
CONTINUOUS
10
0.2440944881889764
20
1.0029527559055118
11
0.2446938582677165
21
1.0059660236220471
0
LINE
8
BLACK
6
CONTINUOUS
10
0.2446938582677165
20
1.0059660236220471
11
0.2464007480314961
21
1.0085205118110236
0
LINE
8
BLACK
6
CONTINUOUS
10
0.2464007480314961
20
1.0085205118110236
11
0.2489552362204724
21
1.0102274015748032
0
LINE
8
BLACK
6
CONTINUOUS
10
0.2489552362204724
20
1.0102274015748032
11
0.2519685039370079
21
1.0108267716535433
0
LINE
8
BLACK
6
CONTINUOUS
10
0.2519685039370079
20
1.0108267716535433
11
0.2677165354330708
21
1.0108267716535433
0
LINE
8
BLACK
6
CONTINUOUS
10
0.2677165354330708
20
1.0108267716535433
11
0.2707298031496063
21
1.0102274015748032
0
LINE
8
BLACK
6
CONTINUOUS
10
0.3356904330708662
20
1.0102274015748032
11
0.3382449212598425
21
1.0085205118110236
0
LINE
8
BLACK
6
CONTINUOUS
10
0.3382449212598425
20
1.0085205118110236
11
0.339951811023622
21
1.0059660236220471
0
LINE
8
BLACK
6
CONTINUOUS
10
0.339951811023622
20
1.0059660236220471
11
0.3405511811023622
21
1.0029527559055118
0
LINE
8
BLACK
6
CONTINUOUS
10
0.3405511811023622
20
1.0029527559055118
11
0.3405511811023622
21
0.9812992125984251
0
LINE
8
BLACK
6
CONTINUOUS
10
0.3405511811023622
20
0.9812992125984251
11
0.339951811023622
21
0.9782859448818897
0
LINE
8
BLACK
6
CONTINUOUS
10
0.339951811023622
20
0.9782859448818897
11
0.3382449212598425
21
0.9757314566929134
0
LINE
8
BLACK
6
CONTINUOUS
10
0.3382449212598425
20
0.9757314566929134
11
0.3356904330708662
21
0.9740245669291339
0
LINE
8
BLACK
6
CONTINUOUS
10
0.3356904330708662
20
0.9740245669291339
11
0.3326771653543307
21
0.9734251968503936
0
LINE
8
BLACK
6
CONTINUOUS
10
0.3326771653543307
20
0.9734251968503936
11
0.3169291338582677
21
0.9734251968503936
0
LINE
8
BLACK
6
CONTINUOUS
10
0.3169291338582677
20
0.9734251968503936
11
0.3139158661417323
21
0.9740245669291339
0
LINE
8
BLACK
6
CONTINUOUS
10
0.3139158661417323
20
0.9740245669291339
11
0.3113613779527559
21
0.9757314566929134
0
LINE
8
BLACK
6
CONTINUOUS
10
0.3113613779527559
20
0.9757314566929134
11
0.3096544881889764
21
0.9782859448818897
0
LINE
8
BLACK
6
CONTINUOUS
10
0.3096544881889764
20
0.9782859448818897
11
0.3090551181102362
21
0.9812992125984251
0
LINE
8
BLACK
6
CONTINUOUS
10
0.3090551181102362
20
0.9812992125984251
11
0.3090551181102362
21
1.0029527559055118
0
LINE
8
BLACK
6
CONTINUOUS
10
0.3090551181102362
20
1.0029527559055118
11
0.3096544881889764
21
1.0059660236220471
0
LINE
8
BLACK
6
CONTINUOUS
10
0.3096544881889764
20
1.0059660236220471
11
0.3113613779527559
21
1.0085205118110236
0
LINE
8
BLACK
6
CONTINUOUS
10
0.3113613779527559
20
1.0085205118110236
11
0.3139158661417323
21
1.0102274015748032
0
LINE
8
BLACK
6
CONTINUOUS
10
0.3139158661417323
20
1.0102274015748032
11
0.3169291338582677
21
1.0108267716535433
0
LINE
8
BLACK
6
CONTINUOUS
10
0.3169291338582677
20
1.0108267716535433
11
0.3326771653543307
21
1.0108267716535433
0
LINE
8
BLACK
6
CONTINUOUS
10
0.3326771653543307
20
1.0108267716535433
11
0.3356904330708662
21
1.0102274015748032
0
LINE
8
BLACK
6
CONTINUOUS
10
0.1671694488188976
20
1.0668453937007873
11
0.1700432677165354
21
1.0649251574803149
0
LINE
8
BLACK
6
CONTINUOUS
10
0.1700432677165354
20
1.0649251574803149
11
0.1719635039370079
21
1.0620513385826771
0
LINE
8
BLACK
6
CONTINUOUS
10
0.1719635039370079
20
1.0620513385826771
11
0.1726377952755906
21
1.0586614173228346
0
LINE
8
BLACK
6
CONTINUOUS
10
0.1726377952755906
20
1.0586614173228346
11
0.1726377952755906
21
1.0409448818897638
0
LINE
8
BLACK
6
CONTINUOUS
10
0.1726377952755906
20
1.0409448818897638
11
0.1719635039370079
21
1.0375549606299213
0
LINE
8
BLACK
6
CONTINUOUS
10
0.1719635039370079
20
1.0375549606299213
11
0.1700432677165354
21
1.0346811417322834
0
LINE
8
BLACK
6
CONTINUOUS
10
0.1700432677165354
20
1.0346811417322834
11
0.1671694488188976
21
1.032760905511811
0
LINE
8
BLACK
6
CONTINUOUS
10
0.1671694488188976
20
1.032760905511811
11
0.1637795275590551
21
1.0320866141732283
0
LINE
8
BLACK
6
CONTINUOUS
10
0.1637795275590551
20
1.0320866141732283
11
0.1440944881889764
21
1.0320866141732283
0
LINE
8
BLACK
6
CONTINUOUS
10
0.1440944881889764
20
1.0320866141732283
11
0.1407045669291339
21
1.032760905511811
0
LINE
8
BLACK
6
CONTINUOUS
10
0.1407045669291339
20
1.032760905511811
11
0.1378307480314961
21
1.0346811417322834
0
LINE
8
BLACK
6
CONTINUOUS
10
0.1378307480314961
20
1.0346811417322834
11
0.1359105118110236
21
1.0375549606299213
0
LINE
8
BLACK
6
CONTINUOUS
10
0.1359105118110236
20
1.0375549606299213
11
0.1352362204724409
21
1.0409448818897638
0
LINE
8
BLACK
6
CONTINUOUS
10
0.1352362204724409
20
1.0409448818897638
11
0.1352362204724409
21
1.0586614173228346
0
LINE
8
BLACK
6
CONTINUOUS
10
0.1352362204724409
20
1.0586614173228346
11
0.1359105118110236
21
1.0620513385826771
0
LINE
8
BLACK
6
CONTINUOUS
10
0.1359105118110236
20
1.0620513385826771
11
0.1378307480314961
21
1.0649251574803149
0
LINE
8
BLACK
6
CONTINUOUS
10
0.1378307480314961
20
1.0649251574803149
11
0.1407045669291339
21
1.0668453937007873
0
LINE
8
BLACK
6
CONTINUOUS
10
0.1407045669291339
20
1.0668453937007873
11
0.1440944881889764
21
1.06751968503937
0
LINE
8
BLACK
6
CONTINUOUS
10
0.1440944881889764
20
1.06751968503937
11
0.1637795275590551
21
1.06751968503937
0
LINE
8
BLACK
6
CONTINUOUS
10
0.1637795275590551
20
1.06751968503937
11
0.1671694488188976
21
1.0668453937007873
0
LINE
8
BLACK
6
CONTINUOUS
10
0.2752914566929134
20
1.1141174015748032
11
0.2772073228346457
21
1.1128372440944883
0
LINE
8
BLACK
6
CONTINUOUS
10
0.2772073228346457
20
1.1128372440944883
11
0.2784874803149606
21
1.1109213779527558
0
LINE
8
BLACK
6
CONTINUOUS
10
0.2784874803149606
20
1.1109213779527558
11
0.2789370078740158
21
1.1086614173228346
0
LINE
8
BLACK
6
CONTINUOUS
10
0.2789370078740158
20
1.1086614173228346
11
0.2789370078740158
21
1.0968503937007874
0
LINE
8
BLACK
6
CONTINUOUS
10
0.2789370078740158
20
1.0968503937007874
11
0.2784874803149606
21
1.094590433070866
0
LINE
8
BLACK
6
CONTINUOUS
10
0.2784874803149606
20
1.094590433070866
11
0.2772073228346457
21
1.0926745669291338
0
LINE
8
BLACK
6
CONTINUOUS
10
0.2772073228346457
20
1.0926745669291338
11
0.2752914566929134
21
1.0913944094488188
0
LINE
8
BLACK
6
CONTINUOUS
10
0.2752914566929134
20
1.0913944094488188
11
0.2730314960629921
21
1.0909448818897638
0
LINE
8
BLACK
6
CONTINUOUS
10
0.2730314960629921
20
1.0909448818897638
11
0.2326771653543307
21
1.0909448818897638
0
LINE
8
BLACK
6
CONTINUOUS
10
0.2326771653543307
20
1.0909448818897638
11
0.2304172047244094
21
1.0913944094488188
0
LINE
8
BLACK
6
CONTINUOUS
10
0.2304172047244094
20
1.0913944094488188
11
0.2285013385826772
21
1.0926745669291338
0
LINE
8
BLACK
6
CONTINUOUS
10
0.2285013385826772
20
1.0926745669291338
11
0.2272211811023622
21
1.094590433070866
0
LINE
8
BLACK
6
CONTINUOUS
10
0.2272211811023622
20
1.094590433070866
11
0.2267716535433071
21
1.0968503937007874
0
LINE
8
BLACK
6
CONTINUOUS
10
0.2267716535433071
20
1.0968503937007874
11
0.2267716535433071
21
1.1086614173228346
0
LINE
8
BLACK
6
CONTINUOUS
10
0.2267716535433071
20
1.1086614173228346
11
0.2272211811023622
21
1.1109213779527558
0
LINE
8
BLACK
6
CONTINUOUS
10
0.2272211811023622
20
1.1109213779527558
11
0.2285013385826772
21
1.1128372440944883
0
LINE
8
BLACK
6
CONTINUOUS
10
0.2285013385826772
20
1.1128372440944883
11
0.2304172047244094
21
1.1141174015748032
0
LINE
8
BLACK
6
CONTINUOUS
10
0.2304172047244094
20
1.1141174015748032
11
0.2326771653543307
21
1.1145669291338582
0
LINE
8
BLACK
6
CONTINUOUS
10
0.2326771653543307
20
1.1145669291338582
11
0.2730314960629921
21
1.1145669291338582
0
LINE
8
BLACK
6
CONTINUOUS
10
0.2730314960629921
20
1.1145669291338582
11
0.2752914566929134
21
1.1141174015748032
0
LINE
8
BLACK
6
CONTINUOUS
10
0.3648583858267717
20
1.1141174015748032
11
0.3667742519685039
21
1.1128372440944883
0
LINE
8
BLACK
6
CONTINUOUS
10
0.3667742519685039
20
1.1128372440944883
11
0.3680544094488189
21
1.1109213779527558
0
LINE
8
BLACK
6
CONTINUOUS
10
0.3680544094488189
20
1.1109213779527558
11
0.368503937007874
21
1.1086614173228346
0
LINE
8
BLACK
6
CONTINUOUS
10
0.368503937007874
20
1.1086614173228346
11
0.368503937007874
21
1.0968503937007874
0
LINE
8
BLACK
6
CONTINUOUS
10
0.368503937007874
20
1.0968503937007874
11
0.3680544094488189
21
1.094590433070866
0
LINE
8
BLACK
6
CONTINUOUS
10
0.3680544094488189
20
1.094590433070866
11
0.3667742519685039
21
1.0926745669291338
0
LINE
8
BLACK
6
CONTINUOUS
10
0.3667742519685039
20
1.0926745669291338
11
0.3648583858267717
21
1.0913944094488188
0
LINE
8
BLACK
6
CONTINUOUS
10
0.3648583858267717
20
1.0913944094488188
11
0.3625984251968504
21
1.0909448818897638
0
LINE
8
BLACK
6
CONTINUOUS
10
0.3625984251968504
20
1.0909448818897638
11
0.322244094488189
21
1.0909448818897638
0
LINE
8
BLACK
6
CONTINUOUS
10
0.322244094488189
20
1.0909448818897638
11
0.3199841338582677
21
1.0913944094488188
0
LINE
8
BLACK
6
CONTINUOUS
10
0.3199841338582677
20
1.0913944094488188
11
0.3180682677165354
21
1.0926745669291338
0
LINE
8
BLACK
6
CONTINUOUS
10
0.3180682677165354
20
1.0926745669291338
11
0.3167881102362204
21
1.094590433070866
0
LINE
8
BLACK
6
CONTINUOUS
10
0.3167881102362204
20
1.094590433070866
11
0.3163385826771654
21
1.0968503937007874
0
LINE
8
BLACK
6
CONTINUOUS
10
0.3163385826771654
20
1.0968503937007874
11
0.3163385826771654
21
1.1086614173228346
0
LINE
8
BLACK
6
CONTINUOUS
10
0.3163385826771654
20
1.1086614173228346
11
0.3167881102362204
21
1.1109213779527558
0
LINE
8
BLACK
6
CONTINUOUS
10
0.3167881102362204
20
1.1109213779527558
11
0.3180682677165354
21
1.1128372440944883
0
LINE
8
BLACK
6
CONTINUOUS
10
0.3180682677165354
20
1.1128372440944883
11
0.3199841338582677
21
1.1141174015748032
0
LINE
8
BLACK
6
CONTINUOUS
10
0.3199841338582677
20
1.1141174015748032
11
0.322244094488189
21
1.1145669291338582
0
LINE
8
BLACK
6
CONTINUOUS
10
0.322244094488189
20
1.1145669291338582
11
0.3625984251968504
21
1.1145669291338582
0
LINE
8
BLACK
6
CONTINUOUS
10
0.3625984251968504
20
1.1145669291338582
11
0.3648583858267717
21
1.1141174015748032
0
LINE
8
BLACK
6
CONTINUOUS
10
0.2752914566929134
20
1.1515189763779528
11
0.2772073228346457
21
1.1502388188976378
0
LINE
8
BLACK
6
CONTINUOUS
10
0.2772073228346457
20
1.1502388188976378
11
0.2784874803149606
21
1.1483229527559056
0
LINE
8
BLACK
6
CONTINUOUS
10
0.2784874803149606
20
1.1483229527559056
11
0.2789370078740158
21
1.1460629921259842
0
LINE
8
BLACK
6
CONTINUOUS
10
0.2789370078740158
20
1.1460629921259842
11
0.2789370078740158
21
1.1342519685039369
0
LINE
8
BLACK
6
CONTINUOUS
10
0.2789370078740158
20
1.1342519685039369
11
0.2784874803149606
21
1.1319920078740158
0
LINE
8
BLACK
6
CONTINUOUS
10
0.2784874803149606
20
1.1319920078740158
11
0.2772073228346457
21
1.1300761417322835
0
LINE
8
BLACK
6
CONTINUOUS
10
0.2772073228346457
20
1.1300761417322835
11
0.2752914566929134
21
1.1287959842519686
0
LINE
8
BLACK
6
CONTINUOUS
10
0.2752914566929134
20
1.1287959842519686
11
0.2730314960629921
21
1.1283464566929133
0
LINE
8
BLACK
6
CONTINUOUS
10
0.2730314960629921
20
1.1283464566929133
11
0.2326771653543307
21
1.1283464566929133
0
LINE
8
BLACK
6
CONTINUOUS
10
0.2326771653543307
20
1.1283464566929133
11
0.2304172047244094
21
1.1287959842519686
0
LINE
8
BLACK
6
CONTINUOUS
10
0.2304172047244094
20
1.1287959842519686
11
0.2285013385826772
21
1.1300761417322835
0
LINE
8
BLACK
6
CONTINUOUS
10
0.2285013385826772
20
1.1300761417322835
11
0.2272211811023622
21
1.1319920078740158
0
LINE
8
BLACK
6
CONTINUOUS
10
0.2272211811023622
20
1.1319920078740158
11
0.2267716535433071
21
1.1342519685039369
0
LINE
8
BLACK
6
CONTINUOUS
10
0.2267716535433071
20
1.1342519685039369
11
0.2267716535433071
21
1.1460629921259842
0
LINE
8
BLACK
6
CONTINUOUS
10
0.2267716535433071
20
1.1460629921259842
11
0.2272211811023622
21
1.1483229527559056
0
LINE
8
BLACK
6
CONTINUOUS
10
0.2272211811023622
20
1.1483229527559056
11
0.2285013385826772
21
1.1502388188976378
0
LINE
8
BLACK
6
CONTINUOUS
10
0.2285013385826772
20
1.1502388188976378
11
0.2304172047244094
21
1.1515189763779528
0
LINE
8
BLACK
6
CONTINUOUS
10
0.2304172047244094
20
1.1515189763779528
11
0.2326771653543307
21
1.1519685039370078
0
LINE
8
BLACK
6
CONTINUOUS
10
0.2326771653543307
20
1.1519685039370078
11
0.2730314960629921
21
1.1519685039370078
0
LINE
8
BLACK
6
CONTINUOUS
10
0.2730314960629921
20
1.1519685039370078
11
0.2752914566929134
21
1.1515189763779528
0
LINE
8
BLACK
6
CONTINUOUS
10
0.4323269291338583
20
1.1983414566929134
11
0.4352007480314961
21
1.1964212204724409
0
LINE
8
BLACK
6
CONTINUOUS
10
0.4352007480314961
20
1.1964212204724409
11
0.4371209842519685
21
1.1935474015748031
0
LINE
8
BLACK
6
CONTINUOUS
10
0.4371209842519685
20
1.1935474015748031
11
0.4377952755905511
21
1.1901574803149606
0
LINE
8
BLACK
6
CONTINUOUS
10
0.4377952755905511
20
1.1901574803149606
11
0.4377952755905511
21
1.1704724409448819
0
LINE
8
BLACK
6
CONTINUOUS
10
0.4377952755905511
20
1.1704724409448819
11
0.4371209842519685
21
1.1670825196850394
0
LINE
8
BLACK
6
CONTINUOUS
10
0.4371209842519685
20
1.1670825196850394
11
0.4352007480314961
21
1.1642087007874016
0
LINE
8
BLACK
6
CONTINUOUS
10
0.4352007480314961
20
1.1642087007874016
11
0.4323269291338583
21
1.1622884645669291
0
LINE
8
BLACK
6
CONTINUOUS
10
0.4323269291338583
20
1.1622884645669291
11
0.4289370078740157
21
1.1616141732283465
0
LINE
8
BLACK
6
CONTINUOUS
10
0.4289370078740157
20
1.1616141732283465
11
0.4112204724409449
21
1.1616141732283465
0
LINE
8
BLACK
6
CONTINUOUS
10
0.4112204724409449
20
1.1616141732283465
11
0.4078305511811023
21
1.1622884645669291
0
LINE
8
BLACK
6
CONTINUOUS
10
0.4078305511811023
20
1.1622884645669291
11
0.4049567322834646
21
1.1642087007874016
0
LINE
8
BLACK
6
CONTINUOUS
10
0.4049567322834646
20
1.1642087007874016
11
0.4030364960629921
21
1.1670825196850394
0
LINE
8
BLACK
6
CONTINUOUS
10
0.4030364960629921
20
1.1670825196850394
11
0.4023622047244094
21
1.1704724409448819
0
LINE
8
BLACK
6
CONTINUOUS
10
0.4023622047244094
20
1.1704724409448819
11
0.4023622047244094
21
1.1901574803149606
0
LINE
8
BLACK
6
CONTINUOUS
10
0.4023622047244094
20
1.1901574803149606
11
0.4030364960629921
21
1.1935474015748031
0
LINE
8
BLACK
6
CONTINUOUS
10
0.4030364960629921
20
1.1935474015748031
11
0.4049567322834646
21
1.1964212204724409
0
LINE
8
BLACK
6
CONTINUOUS
10
0.4049567322834646
20
1.1964212204724409
11
0.4078305511811023
21
1.1983414566929134
0
LINE
8
BLACK
6
CONTINUOUS
10
0.4078305511811023
20
1.1983414566929134
11
0.4112204724409449
21
1.199015748031496
0
LINE
8
BLACK
6
CONTINUOUS
10
0.4112204724409449
20
1.199015748031496
11
0.4289370078740157
21
1.199015748031496
0
LINE
8
BLACK
6
CONTINUOUS
10
0.4289370078740157
20
1.199015748031496
11
0.4323269291338583
21
1.1983414566929134
0
LINE
8
BLACK
6
CONTINUOUS
10
0.4933505511811023
20
1.1983414566929134
11
0.4962243700787402
21
1.1964212204724409
0
LINE
8
BLACK
6
CONTINUOUS
10
0.4962243700787402
20
1.1964212204724409
11
0.4981446062992126
21
1.1935474015748031
0
LINE
8
BLACK
6
CONTINUOUS
10
0.4981446062992126
20
1.1935474015748031
11
0.4988188976377952
21
1.1901574803149606
0
LINE
8
BLACK
6
CONTINUOUS
10
0.4988188976377952
20
1.1901574803149606
11
0.4988188976377952
21
1.1704724409448819
0
LINE
8
BLACK
6
CONTINUOUS
10
0.4988188976377952
20
1.1704724409448819
11
0.4981446062992126
21
1.1670825196850394
0
LINE
8
BLACK
6
CONTINUOUS
10
0.4981446062992126
20
1.1670825196850394
11
0.4962243700787402
21
1.1642087007874016
0
LINE
8
BLACK
6
CONTINUOUS
10
0.4962243700787402
20
1.1642087007874016
11
0.4933505511811023
21
1.1622884645669291
0
LINE
8
BLACK
6
CONTINUOUS
10
0.4933505511811023
20
1.1622884645669291
11
0.4899606299212598
21
1.1616141732283465
0
LINE
8
BLACK
6
CONTINUOUS
10
0.4899606299212598
20
1.1616141732283465
11
0.472244094488189
21
1.1616141732283465
0
LINE
8
BLACK
6
CONTINUOUS
10
0.472244094488189
20
1.1616141732283465
11
0.4688541732283464
21
1.1622884645669291
0
LINE
8
BLACK
6
CONTINUOUS
10
0.4688541732283464
20
1.1622884645669291
11
0.4659803543307087
21
1.1642087007874016
0
LINE
8
BLACK
6
CONTINUOUS
10
0.4659803543307087
20
1.1642087007874016
11
0.4640601181102362
21
1.1670825196850394
0
LINE
8
BLACK
6
CONTINUOUS
10
0.4640601181102362
20
1.1670825196850394
11
0.4633858267716535
21
1.1704724409448819
0
LINE
8
BLACK
6
CONTINUOUS
10
0.4633858267716535
20
1.1704724409448819
11
0.4633858267716535
21
1.1901574803149606
0
LINE
8
BLACK
6
CONTINUOUS
10
0.4633858267716535
20
1.1901574803149606
11
0.4640601181102362
21
1.1935474015748031
0
LINE
8
BLACK
6
CONTINUOUS
10
0.4640601181102362
20
1.1935474015748031
11
0.4659803543307087
21
1.1964212204724409
0
LINE
8
BLACK
6
CONTINUOUS
10
0.4659803543307087
20
1.1964212204724409
11
0.4688541732283464
21
1.1983414566929134
0
LINE
8
BLACK
6
CONTINUOUS
10
0.4688541732283464
20
1.1983414566929134
11
0.472244094488189
21
1.199015748031496
0
LINE
8
BLACK
6
CONTINUOUS
10
0.472244094488189
20
1.199015748031496
11
0.4899606299212598
21
1.199015748031496
0
LINE
8
BLACK
6
CONTINUOUS
10
0.4899606299212598
20
1.199015748031496
11
0.4933505511811023
21
1.1983414566929134
0
LINE
8
BLACK
6
CONTINUOUS
10
0.2752914566929134
20
1.1889205511811023
11
0.2772073228346457
21
1.1876403937007873
0
LINE
8
BLACK
6
CONTINUOUS
10
0.2772073228346457
20
1.1876403937007873
11
0.2784874803149606
21
1.1857245275590551
0
LINE
8
BLACK
6
CONTINUOUS
10
0.2784874803149606
20
1.1857245275590551
11
0.2789370078740158
21
1.1834645669291339
0
LINE
8
BLACK
6
CONTINUOUS
10
0.2789370078740158
20
1.1834645669291339
11
0.2789370078740158
21
1.1716535433070865
0
LINE
8
BLACK
6
CONTINUOUS
10
0.2789370078740158
20
1.1716535433070865
11
0.2784874803149606
21
1.1693935826771653
0
LINE
8
BLACK
6
CONTINUOUS
10
0.2784874803149606
20
1.1693935826771653
11
0.2772073228346457
21
1.1674777165354331
0
LINE
8
BLACK
6
CONTINUOUS
10
0.2772073228346457
20
1.1674777165354331
11
0.2752914566929134
21
1.1661975590551181
0
LINE
8
BLACK
6
CONTINUOUS
10
0.2752914566929134
20
1.1661975590551181
11
0.2730314960629921
21
1.1657480314960629
0
LINE
8
BLACK
6
CONTINUOUS
10
0.2730314960629921
20
1.1657480314960629
11
0.2326771653543307
21
1.1657480314960629
0
LINE
8
BLACK
6
CONTINUOUS
10
0.2326771653543307
20
1.1657480314960629
11
0.2304172047244094
21
1.1661975590551181
0
LINE
8
BLACK
6
CONTINUOUS
10
0.2304172047244094
20
1.1661975590551181
11
0.2285013385826772
21
1.1674777165354331
0
LINE
8
BLACK
6
CONTINUOUS
10
0.2285013385826772
20
1.1674777165354331
11
0.2272211811023622
21
1.1693935826771653
0
LINE
8
BLACK
6
CONTINUOUS
10
0.2272211811023622
20
1.1693935826771653
11
0.2267716535433071
21
1.1716535433070865
0
LINE
8
BLACK
6
CONTINUOUS
10
0.2267716535433071
20
1.1716535433070865
11
0.2267716535433071
21
1.1834645669291339
0
LINE
8
BLACK
6
CONTINUOUS
10
0.2267716535433071
20
1.1834645669291339
11
0.2272211811023622
21
1.1857245275590551
0
LINE
8
BLACK
6
CONTINUOUS
10
0.2272211811023622
20
1.1857245275590551
11
0.2285013385826772
21
1.1876403937007873
0
LINE
8
BLACK
6
CONTINUOUS
10
0.2285013385826772
20
1.1876403937007873
11
0.2304172047244094
21
1.1889205511811023
0
LINE
8
BLACK
6
CONTINUOUS
10
0.2304172047244094
20
1.1889205511811023
11
0.2326771653543307
21
1.1893700787401575
0
LINE
8
BLACK
6
CONTINUOUS
10
0.2326771653543307
20
1.1893700787401575
11
0.2730314960629921
21
1.1893700787401575
0
LINE
8
BLACK
6
CONTINUOUS
10
0.2730314960629921
20
1.1893700787401575
11
0.2752914566929134
21
1.1889205511811023
0
LINE
8
BLACK
6
CONTINUOUS
10
0.3648583858267717
20
1.1889205511811023
11
0.3667742519685039
21
1.1876403937007873
0
LINE
8
BLACK
6
CONTINUOUS
10
0.3667742519685039
20
1.1876403937007873
11
0.3680544094488189
21
1.1857245275590551
0
LINE
8
BLACK
6
CONTINUOUS
10
0.3680544094488189
20
1.1857245275590551
11
0.368503937007874
21
1.1834645669291339
0
LINE
8
BLACK
6
CONTINUOUS
10
0.368503937007874
20
1.1834645669291339
11
0.368503937007874
21
1.1716535433070865
0
LINE
8
BLACK
6
CONTINUOUS
10
0.368503937007874
20
1.1716535433070865
11
0.3680544094488189
21
1.1693935826771653
0
LINE
8
BLACK
6
CONTINUOUS
10
0.3680544094488189
20
1.1693935826771653
11
0.3667742519685039
21
1.1674777165354331
0
LINE
8
BLACK
6
CONTINUOUS
10
0.3667742519685039
20
1.1674777165354331
11
0.3648583858267717
21
1.1661975590551181
0
LINE
8
BLACK
6
CONTINUOUS
10
0.3648583858267717
20
1.1661975590551181
11
0.3625984251968504
21
1.1657480314960629
0
LINE
8
BLACK
6
CONTINUOUS
10
0.3625984251968504
20
1.1657480314960629
11
0.322244094488189
21
1.1657480314960629
0
LINE
8
BLACK
6
CONTINUOUS
10
0.322244094488189
20
1.1657480314960629
11
0.3199841338582677
21
1.1661975590551181
0
LINE
8
BLACK
6
CONTINUOUS
10
0.3199841338582677
20
1.1661975590551181
11
0.3180682677165354
21
1.1674777165354331
0
LINE
8
BLACK
6
CONTINUOUS
10
0.3180682677165354
20
1.1674777165354331
11
0.3167881102362204
21
1.1693935826771653
0
LINE
8
BLACK
6
CONTINUOUS
10
0.3167881102362204
20
1.1693935826771653
11
0.3163385826771654
21
1.1716535433070865
0
LINE
8
BLACK
6
CONTINUOUS
10
0.3163385826771654
20
1.1716535433070865
11
0.3163385826771654
21
1.1834645669291339
0
LINE
8
BLACK
6
CONTINUOUS
10
0.3163385826771654
20
1.1834645669291339
11
0.3167881102362204
21
1.1857245275590551
0
LINE
8
BLACK
6
CONTINUOUS
10
0.3167881102362204
20
1.1857245275590551
11
0.3180682677165354
21
1.1876403937007873
0
LINE
8
BLACK
6
CONTINUOUS
10
0.3180682677165354
20
1.1876403937007873
11
0.3199841338582677
21
1.1889205511811023
0
LINE
8
BLACK
6
CONTINUOUS
10
0.3199841338582677
20
1.1889205511811023
11
0.322244094488189
21
1.1893700787401575
0
LINE
8
BLACK
6
CONTINUOUS
10
0.322244094488189
20
1.1893700787401575
11
0.3625984251968504
21
1.1893700787401575
0
LINE
8
BLACK
6
CONTINUOUS
10
0.3625984251968504
20
1.1893700787401575
11
0.3648583858267717
21
1.1889205511811023
0
LINE
8
BLACK
6
CONTINUOUS
10
0.3953361023622047
20
1.3055029921259842
11
0.3978905905511811
21
1.3037961023622047
0
LINE
8
BLACK
6
CONTINUOUS
10
0.3978905905511811
20
1.3037961023622047
11
0.3995974803149606
21
1.3012416141732284
0
LINE
8
BLACK
6
CONTINUOUS
10
0.3995974803149606
20
1.3012416141732284
11
0.4001968503937008
21
1.2982283464566928
0
LINE
8
BLACK
6
CONTINUOUS
10
0.4001968503937008
20
1.2982283464566928
11
0.4001968503937008
21
1.2765748031496063
0
LINE
8
BLACK
6
CONTINUOUS
10
0.4001968503937008
20
1.2765748031496063
11
0.3995974803149606
21
1.2735615354330709
0
LINE
8
BLACK
6
CONTINUOUS
10
0.3995974803149606
20
1.2735615354330709
11
0.3978905905511811
21
1.2710070472440944
0
LINE
8
BLACK
6
CONTINUOUS
10
0.3978905905511811
20
1.2710070472440944
11
0.3953361023622047
21
1.2693001574803149
0
LINE
8
BLACK
6
CONTINUOUS
10
0.3953361023622047
20
1.2693001574803149
11
0.3923228346456693
21
1.2687007874015748
0
LINE
8
BLACK
6
CONTINUOUS
10
0.3923228346456693
20
1.2687007874015748
11
0.3765748031496063
21
1.2687007874015748
0
LINE
8
BLACK
6
CONTINUOUS
10
0.3765748031496063
20
1.2687007874015748
11
0.3735615354330709
21
1.2693001574803149
0
LINE
8
BLACK
6
CONTINUOUS
10
0.3735615354330709
20
1.2693001574803149
11
0.3710070472440945
21
1.2710070472440944
0
LINE
8
BLACK
6
CONTINUOUS
10
0.3710070472440945
20
1.2710070472440944
11
0.369300157480315
21
1.2735615354330709
0
LINE
8
BLACK
6
CONTINUOUS
10
0.369300157480315
20
1.2735615354330709
11
0.3687007874015748
21
1.2765748031496063
0
LINE
8
BLACK
6
CONTINUOUS
10
0.3687007874015748
20
1.2765748031496063
11
0.3687007874015748
21
1.2982283464566928
0
LINE
8
BLACK
6
CONTINUOUS
10
0.3687007874015748
20
1.2982283464566928
11
0.369300157480315
21
1.3012416141732284
0
LINE
8
BLACK
6
CONTINUOUS
10
0.369300157480315
20
1.3012416141732284
11
0.3710070472440945
21
1.3037961023622047
0
LINE
8
BLACK
6
CONTINUOUS
10
0.3710070472440945
20
1.3037961023622047
11
0.3735615354330709
21
1.3055029921259842
0
LINE
8
BLACK
6
CONTINUOUS
10
0.3735615354330709
20
1.3055029921259842
11
0.3765748031496063
21
1.3061023622047243
0
LINE
8
BLACK
6
CONTINUOUS
10
0.3765748031496063
20
1.3061023622047243
11
0.3923228346456693
21
1.3061023622047243
0
LINE
8
BLACK
6
CONTINUOUS
10
0.3923228346456693
20
1.3061023622047243
11
0.3953361023622047
21
1.3055029921259842
0
LINE
8
BLACK
6
CONTINUOUS
10
0.4602967322834646
20
1.3055029921259842
11
0.4628512204724409
21
1.3037961023622047
0
LINE
8
BLACK
6
CONTINUOUS
10
0.4628512204724409
20
1.3037961023622047
11
0.4645581102362205
21
1.3012416141732284
0
LINE
8
BLACK
6
CONTINUOUS
10
0.4645581102362205
20
1.3012416141732284
11
0.4651574803149606
21
1.2982283464566928
0
LINE
8
BLACK
6
CONTINUOUS
10
0.4651574803149606
20
1.2982283464566928
11
0.4651574803149606
21
1.2765748031496063
0
LINE
8
BLACK
6
CONTINUOUS
10
0.4651574803149606
20
1.2765748031496063
11
0.4645581102362205
21
1.2735615354330709
0
LINE
8
BLACK
6
CONTINUOUS
10
0.4645581102362205
20
1.2735615354330709
11
0.4628512204724409
21
1.2710070472440944
0
LINE
8
BLACK
6
CONTINUOUS
10
0.4628512204724409
20
1.2710070472440944
11
0.4602967322834646
21
1.2693001574803149
0
LINE
8
BLACK
6
CONTINUOUS
10
0.4602967322834646
20
1.2693001574803149
11
0.4572834645669291
21
1.2687007874015748
0
LINE
8
BLACK
6
CONTINUOUS
10
0.4572834645669291
20
1.2687007874015748
11
0.4415354330708661
21
1.2687007874015748
0
LINE
8
BLACK
6
CONTINUOUS
10
0.4415354330708661
20
1.2687007874015748
11
0.4385221653543307
21
1.2693001574803149
0
LINE
8
BLACK
6
CONTINUOUS
10
0.4385221653543307
20
1.2693001574803149
11
0.4359676771653543
21
1.2710070472440944
0
LINE
8
BLACK
6
CONTINUOUS
10
0.4359676771653543
20
1.2710070472440944
11
0.4342607874015748
21
1.2735615354330709
0
LINE
8
BLACK
6
CONTINUOUS
10
0.4342607874015748
20
1.2735615354330709
11
0.4336614173228346
21
1.2765748031496063
0
LINE
8
BLACK
6
CONTINUOUS
10
0.4336614173228346
20
1.2765748031496063
11
0.4336614173228346
21
1.2982283464566928
0
LINE
8
BLACK
6
CONTINUOUS
10
0.4336614173228346
20
1.2982283464566928
11
0.4342607874015748
21
1.3012416141732284
0
LINE
8
BLACK
6
CONTINUOUS
10
0.4342607874015748
20
1.3012416141732284
11
0.4359676771653543
21
1.3037961023622047
0
LINE
8
BLACK
6
CONTINUOUS
10
0.4359676771653543
20
1.3037961023622047
11
0.4385221653543307
21
1.3055029921259842
0
LINE
8
BLACK
6
CONTINUOUS
10
0.4385221653543307
20
1.3055029921259842
11
0.4415354330708661
21
1.3061023622047243
0
LINE
8
BLACK
6
CONTINUOUS
10
0.4415354330708661
20
1.3061023622047243
11
0.4572834645669291
21
1.3061023622047243
0
LINE
8
BLACK
6
CONTINUOUS
10
0.4572834645669291
20
1.3061023622047243
11
0.4602967322834646
21
1.3055029921259842
0
LINE
8
BLACK
6
CONTINUOUS
10
0.2869056299212598
20
1.3869520472440944
11
0.2888214960629921
21
1.3856718897637794
0
LINE
8
BLACK
6
CONTINUOUS
10
0.2888214960629921
20
1.3856718897637794
11
0.2901016535433071
21
1.3837560236220472
0
LINE
8
BLACK
6
CONTINUOUS
10
0.2901016535433071
20
1.3837560236220472
11
0.2905511811023622
21
1.381496062992126
0
LINE
8
BLACK
6
CONTINUOUS
10
0.2905511811023622
20
1.381496062992126
11
0.2905511811023622
21
1.3352362204724408
0
LINE
8
BLACK
6
CONTINUOUS
10
0.2905511811023622
20
1.3352362204724408
11
0.2901016535433071
21
1.3329762598425197
0
LINE
8
BLACK
6
CONTINUOUS
10
0.2901016535433071
20
1.3329762598425197
11
0.2888214960629921
21
1.3310603937007874
0
LINE
8
BLACK
6
CONTINUOUS
10
0.2888214960629921
20
1.3310603937007874
11
0.2869056299212598
21
1.3297802362204725
0
LINE
8
BLACK
6
CONTINUOUS
10
0.2869056299212598
20
1.3297802362204725
11
0.2846456692913386
21
1.3293307086614172
0
LINE
8
BLACK
6
CONTINUOUS
10
0.2846456692913386
20
1.3293307086614172
11
0.2728346456692913
21
1.3293307086614172
0
LINE
8
BLACK
6
CONTINUOUS
10
0.2728346456692913
20
1.3293307086614172
11
0.2705746850393701
21
1.3297802362204725
0
LINE
8
BLACK
6
CONTINUOUS
10
0.2705746850393701
20
1.3297802362204725
11
0.2686588188976378
21
1.3310603937007874
0
LINE
8
BLACK
6
CONTINUOUS
10
0.2686588188976378
20
1.3310603937007874
11
0.2673786614173228
21
1.3329762598425197
0
LINE
8
BLACK
6
CONTINUOUS
10
0.2673786614173228
20
1.3329762598425197
11
0.2669291338582677
21
1.3352362204724408
0
LINE
8
BLACK
6
CONTINUOUS
10
0.2669291338582677
20
1.3352362204724408
11
0.2669291338582677
21
1.381496062992126
0
LINE
8
BLACK
6
CONTINUOUS
10
0.2669291338582677
20
1.381496062992126
11
0.2673786614173228
21
1.3837560236220472
0
LINE
8
BLACK
6
CONTINUOUS
10
0.2673786614173228
20
1.3837560236220472
11
0.2686588188976378
21
1.3856718897637794
0
LINE
8
BLACK
6
CONTINUOUS
10
0.2686588188976378
20
1.3856718897637794
11
0.2705746850393701
21
1.3869520472440944
0
LINE
8
BLACK
6
CONTINUOUS
10
0.2705746850393701
20
1.3869520472440944
11
0.2728346456692913
21
1.3874015748031496
0
LINE
8
BLACK
6
CONTINUOUS
10
0.2728346456692913
20
1.3874015748031496
11
0.2846456692913386
21
1.3874015748031496
0
LINE
8
BLACK
6
CONTINUOUS
10
0.2846456692913386
20
1.3874015748031496
11
0.2869056299212598
21
1.3869520472440944
0
LINE
8
BLACK
6
CONTINUOUS
10
0.2495040551181102
20
1.4607709448818897
11
0.2514199212598425
21
1.4594907874015748
0
LINE
8
BLACK
6
CONTINUOUS
10
0.2514199212598425
20
1.4594907874015748
11
0.2527000787401575
21
1.4575749212598426
0
LINE
8
BLACK
6
CONTINUOUS
10
0.2527000787401575
20
1.4575749212598426
11
0.2531496062992126
21
1.4553149606299212
0
LINE
8
BLACK
6
CONTINUOUS
10
0.2531496062992126
20
1.4553149606299212
11
0.2531496062992126
21
1.4090551181102362
0
LINE
8
BLACK
6
CONTINUOUS
10
0.2531496062992126
20
1.4090551181102362
11
0.2527000787401575
21
1.406795157480315
0
LINE
8
BLACK
6
CONTINUOUS
10
0.2527000787401575
20
1.406795157480315
11
0.2514199212598425
21
1.4048792913385826
0
LINE
8
BLACK
6
CONTINUOUS
10
0.2514199212598425
20
1.4048792913385826
11
0.2495040551181102
21
1.4035991338582676
0
LINE
8
BLACK
6
CONTINUOUS
10
0.2495040551181102
20
1.4035991338582676
11
0.247244094488189
21
1.4031496062992126
0
LINE
8
BLACK
6
CONTINUOUS
10
0.247244094488189
20
1.4031496062992126
11
0.2354330708661417
21
1.4031496062992126
0
LINE
8
BLACK
6
CONTINUOUS
10
0.2354330708661417
20
1.4031496062992126
11
0.2331731102362205
21
1.4035991338582676
0
LINE
8
BLACK
6
CONTINUOUS
10
0.2331731102362205
20
1.4035991338582676
11
0.2312572440944882
21
1.4048792913385826
0
LINE
8
BLACK
6
CONTINUOUS
10
0.2312572440944882
20
1.4048792913385826
11
0.2299770866141732
21
1.406795157480315
0
LINE
8
BLACK
6
CONTINUOUS
10
0.2299770866141732
20
1.406795157480315
11
0.2295275590551181
21
1.4090551181102362
0
LINE
8
BLACK
6
CONTINUOUS
10
0.2295275590551181
20
1.4090551181102362
11
0.2295275590551181
21
1.4553149606299212
0
LINE
8
BLACK
6
CONTINUOUS
10
0.2295275590551181
20
1.4553149606299212
11
0.2299770866141732
21
1.4575749212598426
0
LINE
8
BLACK
6
CONTINUOUS
10
0.2299770866141732
20
1.4575749212598426
11
0.2312572440944882
21
1.4594907874015748
0
LINE
8
BLACK
6
CONTINUOUS
10
0.2312572440944882
20
1.4594907874015748
11
0.2331731102362205
21
1.4607709448818897
0
LINE
8
BLACK
6
CONTINUOUS
10
0.2331731102362205
20
1.4607709448818897
11
0.2354330708661417
21
1.4612204724409448
0
LINE
8
BLACK
6
CONTINUOUS
10
0.2354330708661417
20
1.4612204724409448
11
0.247244094488189
21
1.4612204724409448
0
LINE
8
BLACK
6
CONTINUOUS
10
0.247244094488189
20
1.4612204724409448
11
0.2495040551181102
21
1.4607709448818897
0
LINE
8
BLACK
6
CONTINUOUS
10
0.3243072047244094
20
1.4607709448818897
11
0.3262230708661417
21
1.4594907874015748
0
LINE
8
BLACK
6
CONTINUOUS
10
0.3262230708661417
20
1.4594907874015748
11
0.3275032283464567
21
1.4575749212598426
0
LINE
8
BLACK
6
CONTINUOUS
10
0.3275032283464567
20
1.4575749212598426
11
0.3279527559055118
21
1.4553149606299212
0
LINE
8
BLACK
6
CONTINUOUS
10
0.3279527559055118
20
1.4553149606299212
11
0.3279527559055118
21
1.4090551181102362
0
LINE
8
BLACK
6
CONTINUOUS
10
0.3279527559055118
20
1.4090551181102362
11
0.3275032283464567
21
1.406795157480315
0
LINE
8
BLACK
6
CONTINUOUS
10
0.3275032283464567
20
1.406795157480315
11
0.3262230708661417
21
1.4048792913385826
0
LINE
8
BLACK
6
CONTINUOUS
10
0.3262230708661417
20
1.4048792913385826
11
0.3243072047244094
21
1.4035991338582676
0
LINE
8
BLACK
6
CONTINUOUS
10
0.3243072047244094
20
1.4035991338582676
11
0.3220472440944882
21
1.4031496062992126
0
LINE
8
BLACK
6
CONTINUOUS
10
0.3220472440944882
20
1.4031496062992126
11
0.3102362204724409
21
1.4031496062992126
0
LINE
8
BLACK
6
CONTINUOUS
10
0.3102362204724409
20
1.4031496062992126
11
0.3079762598425197
21
1.4035991338582676
0
LINE
8
BLACK
6
CONTINUOUS
10
0.3079762598425197
20
1.4035991338582676
11
0.3060603937007874
21
1.4048792913385826
0
LINE
8
BLACK
6
CONTINUOUS
10
0.3060603937007874
20
1.4048792913385826
11
0.3047802362204725
21
1.406795157480315
0
LINE
8
BLACK
6
CONTINUOUS
10
0.3047802362204725
20
1.406795157480315
11
0.3043307086614173
21
1.4090551181102362
0
LINE
8
BLACK
6
CONTINUOUS
10
0.3043307086614173
20
1.4090551181102362
11
0.3043307086614173
21
1.4553149606299212
0
LINE
8
BLACK
6
CONTINUOUS
10
0.3043307086614173
20
1.4553149606299212
11
0.3047802362204725
21
1.4575749212598426
0
LINE
8
BLACK
6
CONTINUOUS
10
0.3047802362204725
20
1.4575749212598426
11
0.3060603937007874
21
1.4594907874015748
0
LINE
8
BLACK
6
CONTINUOUS
10
0.3060603937007874
20
1.4594907874015748
11
0.3079762598425197
21
1.4607709448818897
0
LINE
8
BLACK
6
CONTINUOUS
10
0.3079762598425197
20
1.4607709448818897
11
0.3102362204724409
21
1.4612204724409448
0
LINE
8
BLACK
6
CONTINUOUS
10
0.3102362204724409
20
1.4612204724409448
11
0.3220472440944882
21
1.4612204724409448
0
LINE
8
BLACK
6
CONTINUOUS
10
0.3220472440944882
20
1.4612204724409448
11
0.3243072047244094
21
1.4607709448818897
0
LINE
8
BLACK
6
CONTINUOUS
10
0.1835250787401575
20
1.5452667716535433
11
0.1860795669291339
21
1.5435598818897638
0
LINE
8
BLACK
6
CONTINUOUS
10
0.1860795669291339
20
1.5435598818897638
11
0.1877864566929134
21
1.5410053937007873
0
LINE
8
BLACK
6
CONTINUOUS
10
0.1877864566929134
20
1.5410053937007873
11
0.1883858267716536
21
1.5379921259842519
0
LINE
8
BLACK
6
CONTINUOUS
10
0.1883858267716536
20
1.5379921259842519
11
0.1883858267716536
21
1.5163385826771654
0
LINE
8
BLACK
6
CONTINUOUS
10
0.1883858267716536
20
1.5163385826771654
11
0.1877864566929134
21
1.5133253149606298
0
LINE
8
BLACK
6
CONTINUOUS
10
0.1877864566929134
20
1.5133253149606298
11
0.1860795669291339
21
1.5107708267716535
0
LINE
8
BLACK
6
CONTINUOUS
10
0.1860795669291339
20
1.5107708267716535
11
0.1835250787401575
21
1.509063937007874
0
LINE
8
BLACK
6
CONTINUOUS
10
0.1835250787401575
20
1.509063937007874
11
0.180511811023622
21
1.5084645669291339
0
LINE
8
BLACK
6
CONTINUOUS
10
0.180511811023622
20
1.5084645669291339
11
0.1647637795275591
21
1.5084645669291339
0
LINE
8
BLACK
6
CONTINUOUS
10
0.1647637795275591
20
1.5084645669291339
11
0.1617505118110236
21
1.509063937007874
0
LINE
8
BLACK
6
CONTINUOUS
10
0.1617505118110236
20
1.509063937007874
11
0.1591960236220472
21
1.5107708267716535
0
LINE
8
BLACK
6
CONTINUOUS
10
0.1591960236220472
20
1.5107708267716535
11
0.1574891338582677
21
1.5133253149606298
0
LINE
8
BLACK
6
CONTINUOUS
10
0.1574891338582677
20
1.5133253149606298
11
0.1568897637795276
21
1.5163385826771654
0
LINE
8
BLACK
6
CONTINUOUS
10
0.1568897637795276
20
1.5163385826771654
11
0.1568897637795276
21
1.5379921259842519
0
LINE
8
BLACK
6
CONTINUOUS
10
0.1568897637795276
20
1.5379921259842519
11
0.1574891338582677
21
1.5410053937007873
0
LINE
8
BLACK
6
CONTINUOUS
10
0.1574891338582677
20
1.5410053937007873
11
0.1591960236220472
21
1.5435598818897638
0
LINE
8
BLACK
6
CONTINUOUS
10
0.1591960236220472
20
1.5435598818897638
11
0.1617505118110236
21
1.5452667716535433
0
LINE
8
BLACK
6
CONTINUOUS
10
0.1617505118110236
20
1.5452667716535433
11
0.1647637795275591
21
1.5458661417322834
0
LINE
8
BLACK
6
CONTINUOUS
10
0.1647637795275591
20
1.5458661417322834
11
0.180511811023622
21
1.5458661417322834
0
LINE
8
BLACK
6
CONTINUOUS
10
0.180511811023622
20
1.5458661417322834
11
0.1835250787401575
21
1.5452667716535433
0
LINE
8
BLACK
6
CONTINUOUS
10
0.2484857086614173
20
1.5452667716535433
11
0.2510401968503937
21
1.5435598818897638
0
LINE
8
BLACK
6
CONTINUOUS
10
0.2510401968503937
20
1.5435598818897638
11
0.2527470866141732
21
1.5410053937007873
0
LINE
8
BLACK
6
CONTINUOUS
10
0.2527470866141732
20
1.5410053937007873
11
0.2533464566929134
21
1.5379921259842519
0
LINE
8
BLACK
6
CONTINUOUS
10
0.2533464566929134
20
1.5379921259842519
11
0.2533464566929134
21
1.5163385826771654
0
LINE
8
BLACK
6
CONTINUOUS
10
0.2533464566929134
20
1.5163385826771654
11
0.2527470866141732
21
1.5133253149606298
0
LINE
8
BLACK
6
CONTINUOUS
10
0.2527470866141732
20
1.5133253149606298
11
0.2510401968503937
21
1.5107708267716535
0
LINE
8
BLACK
6
CONTINUOUS
10
0.2510401968503937
20
1.5107708267716535
11
0.2484857086614173
21
1.509063937007874
0
LINE
8
BLACK
6
CONTINUOUS
10
0.2484857086614173
20
1.509063937007874
11
0.2454724409448819
21
1.5084645669291339
0
LINE
8
BLACK
6
CONTINUOUS
10
0.2454724409448819
20
1.5084645669291339
11
0.2297244094488189
21
1.5084645669291339
0
LINE
8
BLACK
6
CONTINUOUS
10
0.2297244094488189
20
1.5084645669291339
11
0.2267111417322835
21
1.509063937007874
0
LINE
8
BLACK
6
CONTINUOUS
10
0.2267111417322835
20
1.509063937007874
11
0.2241566535433071
21
1.5107708267716535
0
LINE
8
BLACK
6
CONTINUOUS
10
0.2241566535433071
20
1.5107708267716535
11
0.2224497637795275
21
1.5133253149606298
0
LINE
8
BLACK
6
CONTINUOUS
10
0.2224497637795275
20
1.5133253149606298
11
0.2218503937007874
21
1.5163385826771654
0
LINE
8
BLACK
6
CONTINUOUS
10
0.2218503937007874
20
1.5163385826771654
11
0.2218503937007874
21
1.5379921259842519
0
LINE
8
BLACK
6
CONTINUOUS
10
0.2218503937007874
20
1.5379921259842519
11
0.2224497637795275
21
1.5410053937007873
0
LINE
8
BLACK
6
CONTINUOUS
10
0.2224497637795275
20
1.5410053937007873
11
0.2241566535433071
21
1.5435598818897638
0
LINE
8
BLACK
6
CONTINUOUS
10
0.2241566535433071
20
1.5435598818897638
11
0.2267111417322835
21
1.5452667716535433
0
LINE
8
BLACK
6
CONTINUOUS
10
0.2267111417322835
20
1.5452667716535433
11
0.2297244094488189
21
1.5458661417322834
0
LINE
8
BLACK
6
CONTINUOUS
10
0.2297244094488189
20
1.5458661417322834
11
0.2454724409448819
21
1.5458661417322834
0
LINE
8
BLACK
6
CONTINUOUS
10
0.2454724409448819
20
1.5458661417322834
11
0.2484857086614173
21
1.5452667716535433
0
LINE
8
BLACK
6
CONTINUOUS
10
0.3055723228346456
20
1.5452667716535433
11
0.308126811023622
21
1.5435598818897638
0
LINE
8
BLACK
6
CONTINUOUS
10
0.308126811023622
20
1.5435598818897638
11
0.3098337007874016
21
1.5410053937007873
0
LINE
8
BLACK
6
CONTINUOUS
10
0.3098337007874016
20
1.5410053937007873
11
0.3104330708661417
21
1.5379921259842519
0
LINE
8
BLACK
6
CONTINUOUS
10
0.3104330708661417
20
1.5379921259842519
11
0.3104330708661417
21
1.5163385826771654
0
LINE
8
BLACK
6
CONTINUOUS
10
0.3104330708661417
20
1.5163385826771654
11
0.3098337007874016
21
1.5133253149606298
0
LINE
8
BLACK
6
CONTINUOUS
10
0.3098337007874016
20
1.5133253149606298
11
0.308126811023622
21
1.5107708267716535
0
LINE
8
BLACK
6
CONTINUOUS
10
0.308126811023622
20
1.5107708267716535
11
0.3055723228346456
21
1.509063937007874
0
LINE
8
BLACK
6
CONTINUOUS
10
0.3055723228346456
20
1.509063937007874
11
0.3025590551181102
21
1.5084645669291339
0
LINE
8
BLACK
6
CONTINUOUS
10
0.3025590551181102
20
1.5084645669291339
11
0.2868110236220472
21
1.5084645669291339
0
LINE
8
BLACK
6
CONTINUOUS
10
0.2868110236220472
20
1.5084645669291339
11
0.2837977559055118
21
1.509063937007874
0
LINE
8
BLACK
6
CONTINUOUS
10
0.2837977559055118
20
1.509063937007874
11
0.2812432677165354
21
1.5107708267716535
0
LINE
8
BLACK
6
CONTINUOUS
10
0.2812432677165354
20
1.5107708267716535
11
0.2795363779527559
21
1.5133253149606298
0
LINE
8
BLACK
6
CONTINUOUS
10
0.2795363779527559
20
1.5133253149606298
11
0.2789370078740158
21
1.5163385826771654
0
LINE
8
BLACK
6
CONTINUOUS
10
0.2789370078740158
20
1.5163385826771654
11
0.2789370078740158
21
1.5379921259842519
0
LINE
8
BLACK
6
CONTINUOUS
10
0.2789370078740158
20
1.5379921259842519
11
0.2795363779527559
21
1.5410053937007873
0
LINE
8
BLACK
6
CONTINUOUS
10
0.2795363779527559
20
1.5410053937007873
11
0.2812432677165354
21
1.5435598818897638
0
LINE
8
BLACK
6
CONTINUOUS
10
0.2812432677165354
20
1.5435598818897638
11
0.2837977559055118
21
1.5452667716535433
0
LINE
8
BLACK
6
CONTINUOUS
10
0.2837977559055118
20
1.5452667716535433
11
0.2868110236220472
21
1.5458661417322834
0
LINE
8
BLACK
6
CONTINUOUS
10
0.2868110236220472
20
1.5458661417322834
11
0.3025590551181102
21
1.5458661417322834
0
LINE
8
BLACK
6
CONTINUOUS
10
0.3025590551181102
20
1.5458661417322834
11
0.3055723228346456
21
1.5452667716535433
0
LINE
8
BLACK
6
CONTINUOUS
10
0.3705329527559055
20
1.5452667716535433
11
0.3730874409448819
21
1.5435598818897638
0
LINE
8
BLACK
6
CONTINUOUS
10
0.3730874409448819
20
1.5435598818897638
11
0.3747943307086614
21
1.5410053937007873
0
LINE
8
BLACK
6
CONTINUOUS
10
0.3747943307086614
20
1.5410053937007873
11
0.3753937007874016
21
1.5379921259842519
0
LINE
8
BLACK
6
CONTINUOUS
10
0.3753937007874016
20
1.5379921259842519
11
0.3753937007874016
21
1.5163385826771654
0
LINE
8
BLACK
6
CONTINUOUS
10
0.3753937007874016
20
1.5163385826771654
11
0.3747943307086614
21
1.5133253149606298
0
LINE
8
BLACK
6
CONTINUOUS
10
0.3747943307086614
20
1.5133253149606298
11
0.3730874409448819
21
1.5107708267716535
0
LINE
8
BLACK
6
CONTINUOUS
10
0.3730874409448819
20
1.5107708267716535
11
0.3705329527559055
21
1.509063937007874
0
LINE
8
BLACK
6
CONTINUOUS
10
0.3705329527559055
20
1.509063937007874
11
0.36751968503937
21
1.5084645669291339
0
LINE
8
BLACK
6
CONTINUOUS
10
0.36751968503937
20
1.5084645669291339
11
0.3517716535433071
21
1.5084645669291339
0
LINE
8
BLACK
6
CONTINUOUS
10
0.3517716535433071
20
1.5084645669291339
11
0.3487583858267717
21
1.509063937007874
0
LINE
8
BLACK
6
CONTINUOUS
10
0.3487583858267717
20
1.509063937007874
11
0.3462038976377952
21
1.5107708267716535
0
LINE
8
BLACK
6
CONTINUOUS
10
0.3462038976377952
20
1.5107708267716535
11
0.3444970078740157
21
1.5133253149606298
0
LINE
8
BLACK
6
CONTINUOUS
10
0.3444970078740157
20
1.5133253149606298
11
0.3438976377952756
21
1.5163385826771654
0
LINE
8
BLACK
6
CONTINUOUS
10
0.3438976377952756
20
1.5163385826771654
11
0.3438976377952756
21
1.5379921259842519
0
LINE
8
BLACK
6
CONTINUOUS
10
0.3438976377952756
20
1.5379921259842519
11
0.3444970078740157
21
1.5410053937007873
0
LINE
8
BLACK
6
CONTINUOUS
10
0.3444970078740157
20
1.5410053937007873
11
0.3462038976377952
21
1.5435598818897638
0
LINE
8
BLACK
6
CONTINUOUS
10
0.3462038976377952
20
1.5435598818897638
11
0.3487583858267717
21
1.5452667716535433
0
LINE
8
BLACK
6
CONTINUOUS
10
0.3487583858267717
20
1.5452667716535433
11
0.3517716535433071
21
1.5458661417322834
0
LINE
8
BLACK
6
CONTINUOUS
10
0.3517716535433071
20
1.5458661417322834
11
0.36751968503937
21
1.5458661417322834
0
LINE
8
BLACK
6
CONTINUOUS
10
0.36751968503937
20
1.5458661417322834
11
0.3705329527559055
21
1.5452667716535433
0
LINE
8
BLACK
6
CONTINUOUS
10
0.4947455511811024
20
1.630699842519685
11
0.4973000393700787
21
1.6289929527559055
0
LINE
8
BLACK
6
CONTINUOUS
10
0.4973000393700787
20
1.6289929527559055
11
0.4990069291338582
21
1.6264384645669292
0
LINE
8
BLACK
6
CONTINUOUS
10
0.4990069291338582
20
1.6264384645669292
11
0.4996062992125984
21
1.6234251968503937
0
LINE
8
BLACK
6
CONTINUOUS
10
0.4996062992125984
20
1.6234251968503937
11
0.4996062992125984
21
1.6017716535433071
0
LINE
8
BLACK
6
CONTINUOUS
10
0.4996062992125984
20
1.6017716535433071
11
0.4990069291338582
21
1.5987583858267715
0
LINE
8
BLACK
6
CONTINUOUS
10
0.4990069291338582
20
1.5987583858267715
11
0.4973000393700787
21
1.5962038976377952
0
LINE
8
BLACK
6
CONTINUOUS
10
0.4973000393700787
20
1.5962038976377952
11
0.4947455511811024
21
1.5944970078740157
0
LINE
8
BLACK
6
CONTINUOUS
10
0.4947455511811024
20
1.5944970078740157
11
0.4917322834645669
21
1.5938976377952756
0
LINE
8
BLACK
6
CONTINUOUS
10
0.4917322834645669
20
1.5938976377952756
11
0.4759842519685039
21
1.5938976377952756
0
LINE
8
BLACK
6
CONTINUOUS
10
0.4759842519685039
20
1.5938976377952756
11
0.4729709842519685
21
1.5944970078740157
0
LINE
8
BLACK
6
CONTINUOUS
10
0.4729709842519685
20
1.5944970078740157
11
0.4704164960629921
21
1.5962038976377952
0
LINE
8
BLACK
6
CONTINUOUS
10
0.4704164960629921
20
1.5962038976377952
11
0.4687096062992126
21
1.5987583858267715
0
LINE
8
BLACK
6
CONTINUOUS
10
0.4687096062992126
20
1.5987583858267715
11
0.4681102362204724
21
1.6017716535433071
0
LINE
8
BLACK
6
CONTINUOUS
10
0.4681102362204724
20
1.6017716535433071
11
0.4681102362204724
21
1.6234251968503937
0
LINE
8
BLACK
6
CONTINUOUS
10
0.4681102362204724
20
1.6234251968503937
11
0.4687096062992126
21
1.6264384645669292
0
LINE
8
BLACK
6
CONTINUOUS
10
0.4687096062992126
20
1.6264384645669292
11
0.4704164960629921
21
1.6289929527559055
0
LINE
8
BLACK
6
CONTINUOUS
10
0.4704164960629921
20
1.6289929527559055
11
0.4729709842519685
21
1.630699842519685
0
LINE
8
BLACK
6
CONTINUOUS
10
0.4729709842519685
20
1.630699842519685
11
0.4759842519685039
21
1.6312992125984251
0
LINE
8
BLACK
6
CONTINUOUS
10
0.4759842519685039
20
1.6312992125984251
11
0.4917322834645669
21
1.6312992125984251
0
LINE
8
BLACK
6
CONTINUOUS
10
0.4917322834645669
20
1.6312992125984251
11
0.4947455511811024
21
1.630699842519685
0
LINE
8
BLACK
6
CONTINUOUS
10
0.5597061811023621
20
1.630699842519685
11
0.5622606692913386
21
1.6289929527559055
0
LINE
8
BLACK
6
CONTINUOUS
10
0.5622606692913386
20
1.6289929527559055
11
0.5639675590551181
21
1.6264384645669292
0
LINE
8
BLACK
6
CONTINUOUS
10
0.5639675590551181
20
1.6264384645669292
11
0.5645669291338583
21
1.6234251968503937
0
LINE
8
BLACK
6
CONTINUOUS
10
0.5645669291338583
20
1.6234251968503937
11
0.5645669291338583
21
1.6017716535433071
0
LINE
8
BLACK
6
CONTINUOUS
10
0.5645669291338583
20
1.6017716535433071
11
0.5639675590551181
21
1.5987583858267715
0
LINE
8
BLACK
6
CONTINUOUS
10
0.5639675590551181
20
1.5987583858267715
11
0.5622606692913386
21
1.5962038976377952
0
LINE
8
BLACK
6
CONTINUOUS
10
0.5622606692913386
20
1.5962038976377952
11
0.5597061811023621
21
1.5944970078740157
0
LINE
8
BLACK
6
CONTINUOUS
10
0.5597061811023621
20
1.5944970078740157
11
0.5566929133858267
21
1.5938976377952756
0
LINE
8
BLACK
6
CONTINUOUS
10
0.5566929133858267
20
1.5938976377952756
11
0.5409448818897638
21
1.5938976377952756
0
LINE
8
BLACK
6
CONTINUOUS
10
0.5409448818897638
20
1.5938976377952756
11
0.5379316141732283
21
1.5944970078740157
0
LINE
8
BLACK
6
CONTINUOUS
10
0.5379316141732283
20
1.5944970078740157
11
0.5353771259842519
21
1.5962038976377952
0
LINE
8
BLACK
6
CONTINUOUS
10
0.5353771259842519
20
1.5962038976377952
11
0.5336702362204724
21
1.5987583858267715
0
LINE
8
BLACK
6
CONTINUOUS
10
0.5336702362204724
20
1.5987583858267715
11
0.5330708661417323
21
1.6017716535433071
0
LINE
8
BLACK
6
CONTINUOUS
10
0.5330708661417323
20
1.6017716535433071
11
0.5330708661417323
21
1.6234251968503937
0
LINE
8
BLACK
6
CONTINUOUS
10
0.5330708661417323
20
1.6234251968503937
11
0.5336702362204724
21
1.6264384645669292
0
LINE
8
BLACK
6
CONTINUOUS
10
0.5336702362204724
20
1.6264384645669292
11
0.5353771259842519
21
1.6289929527559055
0
LINE
8
BLACK
6
CONTINUOUS
10
0.5353771259842519
20
1.6289929527559055
11
0.5379316141732283
21
1.630699842519685
0
LINE
8
BLACK
6
CONTINUOUS
10
0.5379316141732283
20
1.630699842519685
11
0.5409448818897638
21
1.6312992125984251
0
LINE
8
BLACK
6
CONTINUOUS
10
0.5409448818897638
20
1.6312992125984251
11
0.5566929133858267
21
1.6312992125984251
0
LINE
8
BLACK
6
CONTINUOUS
10
0.5566929133858267
20
1.6312992125984251
11
0.5597061811023621
21
1.630699842519685
0
LINE
8
BLACK
6
CONTINUOUS
10
0.9006340157480315
20
1.7526721653543307
11
0.9035078346456693
21
1.7507519291338582
0
LINE
8
BLACK
6
CONTINUOUS
10
0.9035078346456693
20
1.7507519291338582
11
0.9054280708661417
21
1.7478781102362204
0
LINE
8
BLACK
6
CONTINUOUS
10
0.9054280708661417
20
1.7478781102362204
11
0.9061023622047244
21
1.7444881889763779
0
LINE
8
BLACK
6
CONTINUOUS
10
0.9061023622047244
20
1.7444881889763779
11
0.9061023622047244
21
1.7248031496062992
0
LINE
8
BLACK
6
CONTINUOUS
10
0.9061023622047244
20
1.7248031496062992
11
0.9054280708661417
21
1.7214132283464567
0
LINE
8
BLACK
6
CONTINUOUS
10
0.9054280708661417
20
1.7214132283464567
11
0.9035078346456693
21
1.7185394094488189
0
LINE
8
BLACK
6
CONTINUOUS
10
0.9035078346456693
20
1.7185394094488189
11
0.9006340157480315
21
1.7166191732283465
0
LINE
8
BLACK
6
CONTINUOUS
10
0.9006340157480315
20
1.7166191732283465
11
0.897244094488189
21
1.7159448818897638
0
LINE
8
BLACK
6
CONTINUOUS
10
0.897244094488189
20
1.7159448818897638
11
0.879527559055118
21
1.7159448818897638
0
LINE
8
BLACK
6
CONTINUOUS
10
0.879527559055118
20
1.7159448818897638
11
0.8761376377952755
21
1.7166191732283465
0
LINE
8
BLACK
6
CONTINUOUS
10
0.8761376377952755
20
1.7166191732283465
11
0.8732638188976378
21
1.7185394094488189
0
LINE
8
BLACK
6
CONTINUOUS
10
0.8732638188976378
20
1.7185394094488189
11
0.8713435826771654
21
1.7214132283464567
0
LINE
8
BLACK
6
CONTINUOUS
10
0.8713435826771654
20
1.7214132283464567
11
0.8706692913385826
21
1.7248031496062992
0
LINE
8
BLACK
6
CONTINUOUS
10
0.8706692913385826
20
1.7248031496062992
11
0.8706692913385826
21
1.7444881889763779
0
LINE
8
BLACK
6
CONTINUOUS
10
0.8706692913385826
20
1.7444881889763779
11
0.8713435826771654
21
1.7478781102362204
0
LINE
8
BLACK
6
CONTINUOUS
10
0.8713435826771654
20
1.7478781102362204
11
0.8732638188976378
21
1.7507519291338582
0
LINE
8
BLACK
6
CONTINUOUS
10
0.8732638188976378
20
1.7507519291338582
11
0.8761376377952755
21
1.7526721653543307
0
LINE
8
BLACK
6
CONTINUOUS
10
0.8761376377952755
20
1.7526721653543307
11
0.879527559055118
21
1.7533464566929133
0
LINE
8
BLACK
6
CONTINUOUS
10
0.879527559055118
20
1.7533464566929133
11
0.897244094488189
21
1.7533464566929133
0
LINE
8
BLACK
6
CONTINUOUS
10
0.897244094488189
20
1.7533464566929133
11
0.9006340157480315
21
1.7526721653543307
0
LINE
8
BLACK
6
CONTINUOUS
10
0.9616576377952756
20
1.7526721653543307
11
0.9645314566929134
21
1.7507519291338582
0
LINE
8
BLACK
6
CONTINUOUS
10
0.9645314566929134
20
1.7507519291338582
11
0.9664516929133858
21
1.7478781102362204
0
LINE
8
BLACK
6
CONTINUOUS
10
0.9664516929133858
20
1.7478781102362204
11
0.9671259842519685
21
1.7444881889763779
0
LINE
8
BLACK
6
CONTINUOUS
10
0.9671259842519685
20
1.7444881889763779
11
0.9671259842519685
21
1.7248031496062992
0
LINE
8
BLACK
6
CONTINUOUS
10
0.9671259842519685
20
1.7248031496062992
11
0.9664516929133858
21
1.7214132283464567
0
LINE
8
BLACK
6
CONTINUOUS
10
0.9664516929133858
20
1.7214132283464567
11
0.9645314566929134
21
1.7185394094488189
0
LINE
8
BLACK
6
CONTINUOUS
10
0.9645314566929134
20
1.7185394094488189
11
0.9616576377952756
21
1.7166191732283465
0
LINE
8
BLACK
6
CONTINUOUS
10
0.9616576377952756
20
1.7166191732283465
11
0.9582677165354331
21
1.7159448818897638
0
LINE
8
BLACK
6
CONTINUOUS
10
0.9582677165354331
20
1.7159448818897638
11
0.9405511811023621
21
1.7159448818897638
0
LINE
8
BLACK
6
CONTINUOUS
10
0.9405511811023621
20
1.7159448818897638
11
0.9371612598425196
21
1.7166191732283465
0
LINE
8
BLACK
6
CONTINUOUS
10
0.9371612598425196
20
1.7166191732283465
11
0.9342874409448819
21
1.7185394094488189
0
LINE
8
BLACK
6
CONTINUOUS
10
0.9342874409448819
20
1.7185394094488189
11
0.9323672047244095
21
1.7214132283464567
0
LINE
8
BLACK
6
CONTINUOUS
10
0.9323672047244095
20
1.7214132283464567
11
0.9316929133858267
21
1.7248031496062992
0
LINE
8
BLACK
6
CONTINUOUS
10
0.9316929133858267
20
1.7248031496062992
11
0.9316929133858267
21
1.7444881889763779
0
LINE
8
BLACK
6
CONTINUOUS
10
0.9316929133858267
20
1.7444881889763779
11
0.9323672047244095
21
1.7478781102362204
0
LINE
8
BLACK
6
CONTINUOUS
10
0.9323672047244095
20
1.7478781102362204
11
0.9342874409448819
21
1.7507519291338582
0
LINE
8
BLACK
6
CONTINUOUS
10
0.9342874409448819
20
1.7507519291338582
11
0.9371612598425196
21
1.7526721653543307
0
LINE
8
BLACK
6
CONTINUOUS
10
0.9371612598425196
20
1.7526721653543307
11
0.9405511811023621
21
1.7533464566929133
0
LINE
8
BLACK
6
CONTINUOUS
10
0.9405511811023621
20
1.7533464566929133
11
0.9582677165354331
21
1.7533464566929133
0
LINE
8
BLACK
6
CONTINUOUS
10
0.9582677165354331
20
1.7533464566929133
11
0.9616576377952756
21
1.7526721653543307
0
LINE
8
BLACK
6
CONTINUOUS
10
0.9069161811023622
20
1.8382271653543307
11
0.9101093307086614
21
1.8360935826771654
0
LINE
8
BLACK
6
CONTINUOUS
10
0.9101093307086614
20
1.8360935826771654
11
0.9122429133858267
21
1.832900433070866
0
LINE
8
BLACK
6
CONTINUOUS
10
0.9122429133858267
20
1.832900433070866
11
0.9129921259842519
21
1.8291338582677166
0
LINE
8
BLACK
6
CONTINUOUS
10
0.9129921259842519
20
1.8291338582677166
11
0.9129921259842519
21
1.8055118110236219
0
LINE
8
BLACK
6
CONTINUOUS
10
0.9129921259842519
20
1.8055118110236219
11
0.9122429133858267
21
1.8017452362204724
0
LINE
8
BLACK
6
CONTINUOUS
10
0.9122429133858267
20
1.8017452362204724
11
0.9101093307086614
21
1.7985520866141731
0
LINE
8
BLACK
6
CONTINUOUS
10
0.9101093307086614
20
1.7985520866141731
11
0.9069161811023622
21
1.7964185039370077
0
LINE
8
BLACK
6
CONTINUOUS
10
0.9069161811023622
20
1.7964185039370077
11
0.9031496062992126
21
1.7956692913385826
0
LINE
8
BLACK
6
CONTINUOUS
10
0.9031496062992126
20
1.7956692913385826
11
0.879527559055118
21
1.7956692913385826
0
LINE
8
BLACK
6
CONTINUOUS
10
0.879527559055118
20
1.7956692913385826
11
0.8757609842519685
21
1.7964185039370077
0
LINE
8
BLACK
6
CONTINUOUS
10
0.8757609842519685
20
1.7964185039370077
11
0.8725678346456692
21
1.7985520866141731
0
LINE
8
BLACK
6
CONTINUOUS
10
0.8725678346456692
20
1.7985520866141731
11
0.8704342519685039
21
1.8017452362204724
0
LINE
8
BLACK
6
CONTINUOUS
10
0.8704342519685039
20
1.8017452362204724
11
0.8696850393700787
21
1.8055118110236219
0
LINE
8
BLACK
6
CONTINUOUS
10
0.8696850393700787
20
1.8055118110236219
11
0.8696850393700787
21
1.8291338582677166
0
LINE
8
BLACK
6
CONTINUOUS
10
0.8696850393700787
20
1.8291338582677166
11
0.8704342519685039
21
1.832900433070866
0
LINE
8
BLACK
6
CONTINUOUS
10
0.8704342519685039
20
1.832900433070866
11
0.8725678346456692
21
1.8360935826771654
0
LINE
8
BLACK
6
CONTINUOUS
10
0.8725678346456692
20
1.8360935826771654
11
0.8757609842519685
21
1.8382271653543307
0
LINE
8
BLACK
6
CONTINUOUS
10
0.8757609842519685
20
1.8382271653543307
11
0.879527559055118
21
1.8389763779527559
0
LINE
8
BLACK
6
CONTINUOUS
10
0.879527559055118
20
1.8389763779527559
11
0.9031496062992126
21
1.8389763779527559
0
LINE
8
BLACK
6
CONTINUOUS
10
0.9031496062992126
20
1.8389763779527559
11
0.9069161811023622
21
1.8382271653543307
0
LINE
8
BLACK
6
CONTINUOUS
10
1.017152401574803
20
1.8382271653543307
11
1.0203455511811024
21
1.8360935826771654
0
LINE
8
BLACK
6
CONTINUOUS
10
1.0203455511811024
20
1.8360935826771654
11
1.0224791338582677
21
1.832900433070866
0
LINE
8
BLACK
6
CONTINUOUS
10
1.0224791338582677
20
1.832900433070866
11
1.0232283464566929
21
1.8291338582677166
0
LINE
8
BLACK
6
CONTINUOUS
10
1.0232283464566929
20
1.8291338582677166
11
1.0232283464566929
21
1.8055118110236219
0
LINE
8
BLACK
6
CONTINUOUS
10
1.0232283464566929
20
1.8055118110236219
11
1.0224791338582677
21
1.8017452362204724
0
LINE
8
BLACK
6
CONTINUOUS
10
1.0224791338582677
20
1.8017452362204724
11
1.0203455511811024
21
1.7985520866141731
0
LINE
8
BLACK
6
CONTINUOUS
10
1.0203455511811024
20
1.7985520866141731
11
1.017152401574803
21
1.7964185039370077
0
LINE
8
BLACK
6
CONTINUOUS
10
1.017152401574803
20
1.7964185039370077
11
1.0133858267716536
21
1.7956692913385826
0
LINE
8
BLACK
6
CONTINUOUS
10
1.0133858267716536
20
1.7956692913385826
11
0.989763779527559
21
1.7956692913385826
0
LINE
8
BLACK
6
CONTINUOUS
10
0.989763779527559
20
1.7956692913385826
11
0.9859972047244094
21
1.7964185039370077
0
LINE
8
BLACK
6
CONTINUOUS
10
0.9859972047244094
20
1.7964185039370077
11
0.9828040551181102
21
1.7985520866141731
0
LINE
8
BLACK
6
CONTINUOUS
10
0.9828040551181102
20
1.7985520866141731
11
0.9806704724409449
21
1.8017452362204724
0
LINE
8
BLACK
6
CONTINUOUS
10
0.9806704724409449
20
1.8017452362204724
11
0.9799212598425197
21
1.8055118110236219
0
LINE
8
BLACK
6
CONTINUOUS
10
0.9799212598425197
20
1.8055118110236219
11
0.9799212598425197
21
1.8291338582677166
0
LINE
8
BLACK
6
CONTINUOUS
10
0.9799212598425197
20
1.8291338582677166
11
0.9806704724409449
21
1.832900433070866
0
LINE
8
BLACK
6
CONTINUOUS
10
0.9806704724409449
20
1.832900433070866
11
0.9828040551181102
21
1.8360935826771654
0
LINE
8
BLACK
6
CONTINUOUS
10
0.9828040551181102
20
1.8360935826771654
11
0.9859972047244094
21
1.8382271653543307
0
LINE
8
BLACK
6
CONTINUOUS
10
0.9859972047244094
20
1.8382271653543307
11
0.989763779527559
21
1.8389763779527559
0
LINE
8
BLACK
6
CONTINUOUS
10
0.989763779527559
20
1.8389763779527559
11
1.0133858267716536
21
1.8389763779527559
0
LINE
8
BLACK
6
CONTINUOUS
10
1.0133858267716536
20
1.8389763779527559
11
1.017152401574803
21
1.8382271653543307
0
LINE
8
BLACK
6
CONTINUOUS
10
0.0197842125984252
20
2.0940005118110236
11
0.032697125984252
21
2.0910532283464565
0
LINE
8
BLACK
6
CONTINUOUS
10
0.032697125984252
20
2.0910532283464565
11
0.0451988188976378
21
2.0866787007874015
0
LINE
8
BLACK
6
CONTINUOUS
10
0.0451988188976378
20
2.0866787007874015
11
0.0571321653543307
21
2.0809318897637796
0
LINE
8
BLACK
6
CONTINUOUS
10
0.0571321653543307
20
2.0809318897637796
11
0.0683470078740157
21
2.0738851574803148
0
LINE
8
BLACK
6
CONTINUOUS
10
0.0683470078740157
20
2.0738851574803148
11
0.0787023622047244
21
2.0656270078740158
0
LINE
8
BLACK
6
CONTINUOUS
10
0.0787023622047244
20
2.0656270078740158
11
0.0880679527559055
21
2.0562614173228346
0
LINE
8
BLACK
6
CONTINUOUS
10
0.0880679527559055
20
2.0562614173228346
11
0.0963261023622047
21
2.0459060629921257
0
LINE
8
BLACK
6
CONTINUOUS
10
0.0963261023622047
20
2.0459060629921257
11
0.1033728346456693
21
2.0346912204724408
0
LINE
8
BLACK
6
CONTINUOUS
10
0.1033728346456693
20
2.0346912204724408
11
0.1091196456692913
21
2.0227578740157481
0
LINE
8
BLACK
6
CONTINUOUS
10
0.1091196456692913
20
2.0227578740157481
11
0.1134941732283465
21
2.010256181102362
0
LINE
8
BLACK
6
CONTINUOUS
10
0.1134941732283465
20
2.010256181102362
11
0.1164414566929134
21
1.9973432677165355
0
LINE
8
BLACK
6
CONTINUOUS
10
0.1164414566929134
20
1.9973432677165355
11
0.1179244094488189
21
1.9841815354330707
0
LINE
8
BLACK
6
CONTINUOUS
10
0.1179244094488189
20
1.9841815354330707
11
0.1179244094488189
21
1.9709365748031495
0
LINE
8
BLACK
6
CONTINUOUS
10
0.1179244094488189
20
1.9709365748031495
11
0.1164414566929134
21
1.957774842519685
0
LINE
8
BLACK
6
CONTINUOUS
10
0.1164414566929134
20
1.957774842519685
11
0.1134941732283465
21
1.9448619291338582
0
LINE
8
BLACK
6
CONTINUOUS
10
0.1134941732283465
20
1.9448619291338582
11
0.1091196456692913
21
1.9323602362204724
0
LINE
8
BLACK
6
CONTINUOUS
10
0.1091196456692913
20
1.9323602362204724
11
0.1033728346456693
21
1.9204268897637795
0
LINE
8
BLACK
6
CONTINUOUS
10
0.1033728346456693
20
1.9204268897637795
11
0.0963261023622047
21
1.9092120472440945
0
LINE
8
BLACK
6
CONTINUOUS
10
0.0963261023622047
20
1.9092120472440945
11
0.0880679527559055
21
1.8988566929133859
0
LINE
8
BLACK
6
CONTINUOUS
10
0.0880679527559055
20
1.8988566929133859
11
0.0787023622047244
21
1.8894911023622047
0
LINE
8
BLACK
6
CONTINUOUS
10
0.0787023622047244
20
1.8894911023622047
11
0.0683470078740157
21
1.8812329527559055
0
LINE
8
BLACK
6
CONTINUOUS
10
0.0683470078740157
20
1.8812329527559055
11
0.0571321653543307
21
1.8741862204724409
0
LINE
8
BLACK
6
CONTINUOUS
10
0.0571321653543307
20
1.8741862204724409
11
0.0451988188976378
21
1.8684394094488188
0
LINE
8
BLACK
6
CONTINUOUS
10
0.0451988188976378
20
1.8684394094488188
11
0.032697125984252
21
1.8640648818897638
0
LINE
8
BLACK
6
CONTINUOUS
10
0.032697125984252
20
1.8640648818897638
11
0.0197842125984252
21
1.8611175984251969
0
LINE
8
BLACK
6
CONTINUOUS
10
0.0197842125984252
20
1.8611175984251969
11
0.0066224803149606
21
1.8596346456692914
0
LINE
8
BLACK
6
CONTINUOUS
10
0.0066224803149606
20
1.8596346456692914
11
-0.0066224803149606
21
1.8596346456692914
0
LINE
8
BLACK
6
CONTINUOUS
10
-0.0066224803149606
20
1.8596346456692914
11
-0.0197842125984252
21
1.8611175984251969
0
LINE
8
BLACK
6
CONTINUOUS
10
-0.0197842125984252
20
1.8611175984251969
11
-0.032697125984252
21
1.8640648818897638
0
LINE
8
BLACK
6
CONTINUOUS
10
-0.032697125984252
20
1.8640648818897638
11
-0.0451988188976378
21
1.8684394094488188
0
LINE
8
BLACK
6
CONTINUOUS
10
-0.0451988188976378
20
1.8684394094488188
11
-0.0571321653543307
21
1.8741862204724409
0
LINE
8
BLACK
6
CONTINUOUS
10
-0.0571321653543307
20
1.8741862204724409
11
-0.0683470078740157
21
1.8812329527559055
0
LINE
8
BLACK
6
CONTINUOUS
10
-0.0683470078740157
20
1.8812329527559055
11
-0.0787023622047244
21
1.8894911023622047
0
LINE
8
BLACK
6
CONTINUOUS
10
-0.0787023622047244
20
1.8894911023622047
11
-0.0880679527559055
21
1.8988566929133859
0
LINE
8
BLACK
6
CONTINUOUS
10
-0.0880679527559055
20
1.8988566929133859
11
-0.0963261023622047
21
1.9092120472440945
0
LINE
8
BLACK
6
CONTINUOUS
10
-0.0963261023622047
20
1.9092120472440945
11
-0.1033728346456693
21
1.9204268897637795
0
LINE
8
BLACK
6
CONTINUOUS
10
-0.1033728346456693
20
1.9204268897637795
11
-0.1091196456692913
21
1.9323602362204724
0
LINE
8
BLACK
6
CONTINUOUS
10
-0.1091196456692913
20
1.9323602362204724
11
-0.1134941732283465
21
1.9448619291338582
0
LINE
8
BLACK
6
CONTINUOUS
10
-0.1134941732283465
20
1.9448619291338582
11
-0.1164414566929134
21
1.957774842519685
0
LINE
8
BLACK
6
CONTINUOUS
10
-0.1164414566929134
20
1.957774842519685
11
-0.1179244094488189
21
1.9709365748031495
0
LINE
8
BLACK
6
CONTINUOUS
10
-0.1179244094488189
20
1.9709365748031495
11
-0.1179244094488189
21
1.9841815354330707
0
LINE
8
BLACK
6
CONTINUOUS
10
-0.1179244094488189
20
1.9841815354330707
11
-0.1164414566929134
21
1.9973432677165355
0
LINE
8
BLACK
6
CONTINUOUS
10
-0.1164414566929134
20
1.9973432677165355
11
-0.1134941732283465
21
2.010256181102362
0
LINE
8
BLACK
6
CONTINUOUS
10
-0.1134941732283465
20
2.010256181102362
11
-0.1091196456692913
21
2.0227578740157481
0
LINE
8
BLACK
6
CONTINUOUS
10
-0.1091196456692913
20
2.0227578740157481
11
-0.1033728346456693
21
2.0346912204724408
0
LINE
8
BLACK
6
CONTINUOUS
10
-0.1033728346456693
20
2.0346912204724408
11
-0.0963261023622047
21
2.0459060629921257
0
LINE
8
BLACK
6
CONTINUOUS
10
-0.0963261023622047
20
2.0459060629921257
11
-0.0880679527559055
21
2.0562614173228346
0
LINE
8
BLACK
6
CONTINUOUS
10
-0.0880679527559055
20
2.0562614173228346
11
-0.0787023622047244
21
2.0656270078740158
0
LINE
8
BLACK
6
CONTINUOUS
10
-0.0787023622047244
20
2.0656270078740158
11
-0.0683470078740157
21
2.0738851574803148
0
LINE
8
BLACK
6
CONTINUOUS
10
-0.0683470078740157
20
2.0738851574803148
11
-0.0571321653543307
21
2.0809318897637796
0
LINE
8
BLACK
6
CONTINUOUS
10
-0.0571321653543307
20
2.0809318897637796
11
-0.0451988188976378
21
2.0866787007874015
0
LINE
8
BLACK
6
CONTINUOUS
10
-0.0451988188976378
20
2.0866787007874015
11
-0.032697125984252
21
2.0910532283464565
0
LINE
8
BLACK
6
CONTINUOUS
10
-0.032697125984252
20
2.0910532283464565
11
-0.0197842125984252
21
2.0940005118110236
0
LINE
8
BLACK
6
CONTINUOUS
10
-0.0197842125984252
20
2.0940005118110236
11
-0.0066224803149606
21
2.0954834645669291
0
LINE
8
BLACK
6
CONTINUOUS
10
-0.0066224803149606
20
2.0954834645669291
11
0.0066224803149606
21
2.0954834645669291
0
LINE
8
BLACK
6
CONTINUOUS
10
0.0066224803149606
20
2.0954834645669291
11
0.0197842125984252
21
2.0940005118110236
0
LINE
8
BLACK
6
CONTINUOUS
10
1.2197842125984251
20
2.0940005118110236
11
1.2326971259842519
21
2.0910532283464565
0
LINE
8
BLACK
6
CONTINUOUS
10
1.2326971259842519
20
2.0910532283464565
11
1.2451988188976377
21
2.0866787007874015
0
LINE
8
BLACK
6
CONTINUOUS
10
1.2451988188976377
20
2.0866787007874015
11
1.2571321653543306
21
2.0809318897637796
0
LINE
8
BLACK
6
CONTINUOUS
10
1.2571321653543306
20
2.0809318897637796
11
1.2683470078740158
21
2.0738851574803148
0
LINE
8
BLACK
6
CONTINUOUS
10
1.2683470078740158
20
2.0738851574803148
11
1.2787023622047244
21
2.0656270078740158
0
LINE
8
BLACK
6
CONTINUOUS
10
1.2787023622047244
20
2.0656270078740158
11
1.2880679527559056
21
2.0562614173228346
0
LINE
8
BLACK
6
CONTINUOUS
10
1.2880679527559056
20
2.0562614173228346
11
1.2963261023622048
21
2.0459060629921257
0
LINE
8
BLACK
6
CONTINUOUS
10
1.2963261023622048
20
2.0459060629921257
11
1.3033728346456692
21
2.0346912204724408
0
LINE
8
BLACK
6
CONTINUOUS
10
1.3033728346456692
20
2.0346912204724408
11
1.3091196456692913
21
2.0227578740157481
0
LINE
8
BLACK
6
CONTINUOUS
10
1.3091196456692913
20
2.0227578740157481
11
1.3134941732283465
21
2.010256181102362
0
LINE
8
BLACK
6
CONTINUOUS
10
1.3134941732283465
20
2.010256181102362
11
1.3164414566929135
21
1.9973432677165355
0
LINE
8
BLACK
6
CONTINUOUS
10
1.3164414566929135
20
1.9973432677165355
11
1.3179244094488189
21
1.9841815354330707
0
LINE
8
BLACK
6
CONTINUOUS
10
1.3179244094488189
20
1.9841815354330707
11
1.3179244094488189
21
1.9709365748031495
0
LINE
8
BLACK
6
CONTINUOUS
10
1.3179244094488189
20
1.9709365748031495
11
1.3164414566929135
21
1.957774842519685
0
LINE
8
BLACK
6
CONTINUOUS
10
1.3164414566929135
20
1.957774842519685
11
1.3134941732283465
21
1.9448619291338582
0
LINE
8
BLACK
6
CONTINUOUS
10
1.3134941732283465
20
1.9448619291338582
11
1.3091196456692913
21
1.9323602362204724
0
LINE
8
BLACK
6
CONTINUOUS
10
1.3091196456692913
20
1.9323602362204724
11
1.3033728346456692
21
1.9204268897637795
0
LINE
8
BLACK
6
CONTINUOUS
10
1.3033728346456692
20
1.9204268897637795
11
1.2963261023622048
21
1.9092120472440945
0
LINE
8
BLACK
6
CONTINUOUS
10
1.2963261023622048
20
1.9092120472440945
11
1.2880679527559056
21
1.8988566929133859
0
LINE
8
BLACK
6
CONTINUOUS
10
1.2880679527559056
20
1.8988566929133859
11
1.2787023622047244
21
1.8894911023622047
0
LINE
8
BLACK
6
CONTINUOUS
10
1.2787023622047244
20
1.8894911023622047
11
1.2683470078740158
21
1.8812329527559055
0
LINE
8
BLACK
6
CONTINUOUS
10
1.2683470078740158
20
1.8812329527559055
11
1.2571321653543306
21
1.8741862204724409
0
LINE
8
BLACK
6
CONTINUOUS
10
1.2571321653543306
20
1.8741862204724409
11
1.2451988188976377
21
1.8684394094488188
0
LINE
8
BLACK
6
CONTINUOUS
10
1.2451988188976377
20
1.8684394094488188
11
1.2326971259842519
21
1.8640648818897638
0
LINE
8
BLACK
6
CONTINUOUS
10
1.2326971259842519
20
1.8640648818897638
11
1.2197842125984251
21
1.8611175984251969
0
LINE
8
BLACK
6
CONTINUOUS
10
1.2197842125984251
20
1.8611175984251969
11
1.2066224803149606
21
1.8596346456692914
0
LINE
8
BLACK
6
CONTINUOUS
10
1.2066224803149606
20
1.8596346456692914
11
1.1933775196850394
21
1.8596346456692914
0
LINE
8
BLACK
6
CONTINUOUS
10
1.1933775196850394
20
1.8596346456692914
11
1.1802157874015748
21
1.8611175984251969
0
LINE
8
BLACK
6
CONTINUOUS
10
1.1802157874015748
20
1.8611175984251969
11
1.1673028740157481
21
1.8640648818897638
0
LINE
8
BLACK
6
CONTINUOUS
10
1.1673028740157481
20
1.8640648818897638
11
1.1548011811023622
21
1.8684394094488188
0
LINE
8
BLACK
6
CONTINUOUS
10
1.1548011811023622
20
1.8684394094488188
11
1.1428678346456693
21
1.8741862204724409
0
LINE
8
BLACK
6
CONTINUOUS
10
1.1428678346456693
20
1.8741862204724409
11
1.1316529921259841
21
1.8812329527559055
0
LINE
8
BLACK
6
CONTINUOUS
10
1.1316529921259841
20
1.8812329527559055
11
1.1212976377952755
21
1.8894911023622047
0
LINE
8
BLACK
6
CONTINUOUS
10
1.1212976377952755
20
1.8894911023622047
11
1.1119320472440946
21
1.8988566929133859
0
LINE
8
BLACK
6
CONTINUOUS
10
1.1119320472440946
20
1.8988566929133859
11
1.1036738976377953
21
1.9092120472440945
0
LINE
8
BLACK
6
CONTINUOUS
10
1.1036738976377953
20
1.9092120472440945
11
1.0966271653543307
21
1.9204268897637795
0
LINE
8
BLACK
6
CONTINUOUS
10
1.0966271653543307
20
1.9204268897637795
11
1.0908803543307086
21
1.9323602362204724
0
LINE
8
BLACK
6
CONTINUOUS
10
1.0908803543307086
20
1.9323602362204724
11
1.0865058267716534
21
1.9448619291338582
0
LINE
8
BLACK
6
CONTINUOUS
10
1.0865058267716534
20
1.9448619291338582
11
1.0835585433070867
21
1.957774842519685
0
LINE
8
BLACK
6
CONTINUOUS
10
1.0835585433070867
20
1.957774842519685
11
1.0820755905511812
21
1.9709365748031495
0
LINE
8
BLACK
6
CONTINUOUS
10
1.0820755905511812
20
1.9709365748031495
11
1.0820755905511812
21
1.9841815354330707
0
LINE
8
BLACK
6
CONTINUOUS
10
1.0820755905511812
20
1.9841815354330707
11
1.0835585433070867
21
1.9973432677165355
0
LINE
8
BLACK
6
CONTINUOUS
10
1.0835585433070867
20
1.9973432677165355
11
1.0865058267716534
21
2.010256181102362
0
LINE
8
BLACK
6
CONTINUOUS
10
1.0865058267716534
20
2.010256181102362
11
1.0908803543307086
21
2.0227578740157481
0
LINE
8
BLACK
6
CONTINUOUS
10
1.0908803543307086
20
2.0227578740157481
11
1.0966271653543307
21
2.0346912204724408
0
LINE
8
BLACK
6
CONTINUOUS
10
1.0966271653543307
20
2.0346912204724408
11
1.1036738976377953
21
2.0459060629921257
0
LINE
8
BLACK
6
CONTINUOUS
10
1.1036738976377953
20
2.0459060629921257
11
1.1119320472440946
21
2.0562614173228346
0
LINE
8
BLACK
6
CONTINUOUS
10
1.1119320472440946
20
2.0562614173228346
11
1.1212976377952755
21
2.0656270078740158
0
LINE
8
BLACK
6
CONTINUOUS
10
1.1212976377952755
20
2.0656270078740158
11
1.1316529921259841
21
2.0738851574803148
0
LINE
8
BLACK
6
CONTINUOUS
10
1.1316529921259841
20
2.0738851574803148
11
1.1428678346456693
21
2.0809318897637796
0
LINE
8
BLACK
6
CONTINUOUS
10
1.1428678346456693
20
2.0809318897637796
11
1.1548011811023622
21
2.0866787007874015
0
LINE
8
BLACK
6
CONTINUOUS
10
1.1548011811023622
20
2.0866787007874015
11
1.1673028740157481
21
2.0910532283464565
0
LINE
8
BLACK
6
CONTINUOUS
10
1.1673028740157481
20
2.0910532283464565
11
1.1802157874015748
21
2.0940005118110236
0
LINE
8
BLACK
6
CONTINUOUS
10
1.1802157874015748
20
2.0940005118110236
11
1.1933775196850394
21
2.0954834645669291
0
LINE
8
BLACK
6
CONTINUOUS
10
1.1933775196850394
20
2.0954834645669291
11
1.2066224803149606
21
2.0954834645669291
0
LINE
8
BLACK
6
CONTINUOUS
10
1.2066224803149606
20
2.0954834645669291
11
1.2197842125984251
21
2.0940005118110236
0
LINE
8
BLACK
6
CONTINUOUS
10
0.319763779527559
20
1.8983464566929134
11
0.259763779527559
21
1.8983464566929134
0
LINE
8
BLACK
6
CONTINUOUS
10
0.259763779527559
20
1.8983464566929134
11
0.259763779527559
21
1.9583464566929134
0
LINE
8
BLACK
6
CONTINUOUS
10
0.259763779527559
20
1.9583464566929134
11
0.319763779527559
21
1.9583464566929134
0
LINE
8
BLACK
6
CONTINUOUS
10
0.319763779527559
20
1.9583464566929134
11
0.319763779527559
21
1.8983464566929134
0
LINE
8
BLACK
6
CONTINUOUS
10
0.4197637795275591
20
1.8983464566929134
11
0.3597637795275591
21
1.8983464566929134
0
LINE
8
BLACK
6
CONTINUOUS
10
0.3597637795275591
20
1.8983464566929134
11
0.3597637795275591
21
1.9583464566929134
0
LINE
8
BLACK
6
CONTINUOUS
10
0.3597637795275591
20
1.9583464566929134
11
0.4197637795275591
21
1.9583464566929134
0
LINE
8
BLACK
6
CONTINUOUS
10
0.4197637795275591
20
1.9583464566929134
11
0.4197637795275591
21
1.8983464566929134
0
LINE
8
BLACK
6
CONTINUOUS
10
0.519763779527559
20
1.8983464566929134
11
0.459763779527559
21
1.8983464566929134
0
LINE
8
BLACK
6
CONTINUOUS
10
0.459763779527559
20
1.8983464566929134
11
0.459763779527559
21
1.9583464566929134
0
LINE
8
BLACK
6
CONTINUOUS
10
0.459763779527559
20
1.9583464566929134
11
0.519763779527559
21
1.9583464566929134
0
LINE
8
BLACK
6
CONTINUOUS
10
0.519763779527559
20
1.9583464566929134
11
0.519763779527559
21
1.8983464566929134
0
LINE
8
BLACK
6
CONTINUOUS
10
0.619763779527559
20
1.8983464566929134
11
0.5597637795275591
21
1.8983464566929134
0
LINE
8
BLACK
6
CONTINUOUS
10
0.5597637795275591
20
1.8983464566929134
11
0.5597637795275591
21
1.9583464566929134
0
LINE
8
BLACK
6
CONTINUOUS
10
0.5597637795275591
20
1.9583464566929134
11
0.619763779527559
21
1.9583464566929134
0
LINE
8
BLACK
6
CONTINUOUS
10
0.619763779527559
20
1.9583464566929134
11
0.619763779527559
21
1.8983464566929134
0
LINE
8
BLACK
6
CONTINUOUS
10
0.719763779527559
20
1.8983464566929134
11
0.659763779527559
21
1.8983464566929134
0
LINE
8
BLACK
6
CONTINUOUS
10
0.659763779527559
20
1.8983464566929134
11
0.659763779527559
21
1.9583464566929134
0
LINE
8
BLACK
6
CONTINUOUS
10
0.659763779527559
20
1.9583464566929134
11
0.719763779527559
21
1.9583464566929134
0
LINE
8
BLACK
6
CONTINUOUS
10
0.719763779527559
20
1.9583464566929134
11
0.719763779527559
21
1.8983464566929134
0
LINE
8
BLACK
6
CONTINUOUS
10
0.8197637795275591
20
1.8983464566929134
11
0.759763779527559
21
1.8983464566929134
0
LINE
8
BLACK
6
CONTINUOUS
10
0.759763779527559
20
1.8983464566929134
11
0.759763779527559
21
1.9583464566929134
0
LINE
8
BLACK
6
CONTINUOUS
10
0.759763779527559
20
1.9583464566929134
11
0.8197637795275591
21
1.9583464566929134
0
LINE
8
BLACK
6
CONTINUOUS
10
0.8197637795275591
20
1.9583464566929134
11
0.8197637795275591
21
1.8983464566929134
0
LINE
8
BLACK
6
CONTINUOUS
10
0.9197637795275591
20
1.8983464566929134
11
0.859763779527559
21
1.8983464566929134
0
LINE
8
BLACK
6
CONTINUOUS
10
0.859763779527559
20
1.8983464566929134
11
0.859763779527559
21
1.9583464566929134
0
LINE
8
BLACK
6
CONTINUOUS
10
0.859763779527559
20
1.9583464566929134
11
0.9197637795275591
21
1.9583464566929134
0
LINE
8
BLACK
6
CONTINUOUS
10
0.9197637795275591
20
1.9583464566929134
11
0.9197637795275591
21
1.8983464566929134
0
LINE
8
BLACK
6
CONTINUOUS
10
0.319763779527559
20
1.9983464566929134
11
0.259763779527559
21
1.9983464566929134
0
LINE
8
BLACK
6
CONTINUOUS
10
0.259763779527559
20
1.9983464566929134
11
0.259763779527559
21
2.0583464566929135
0
LINE
8
BLACK
6
CONTINUOUS
10
0.259763779527559
20
2.0583464566929135
11
0.319763779527559
21
2.0583464566929135
0
LINE
8
BLACK
6
CONTINUOUS
10
0.319763779527559
20
2.0583464566929135
11
0.319763779527559
21
1.9983464566929134
0
LINE
8
BLACK
6
CONTINUOUS
10
0.4197637795275591
20
1.9983464566929134
11
0.3597637795275591
21
1.9983464566929134
0
LINE
8
BLACK
6
CONTINUOUS
10
0.3597637795275591
20
1.9983464566929134
11
0.3597637795275591
21
2.0583464566929135
0
LINE
8
BLACK
6
CONTINUOUS
10
0.3597637795275591
20
2.0583464566929135
11
0.4197637795275591
21
2.0583464566929135
0
LINE
8
BLACK
6
CONTINUOUS
10
0.4197637795275591
20
2.0583464566929135
11
0.4197637795275591
21
1.9983464566929134
0
LINE
8
BLACK
6
CONTINUOUS
10
0.519763779527559
20
1.9983464566929134
11
0.459763779527559
21
1.9983464566929134
0
LINE
8
BLACK
6
CONTINUOUS
10
0.459763779527559
20
1.9983464566929134
11
0.459763779527559
21
2.0583464566929135
0
LINE
8
BLACK
6
CONTINUOUS
10
0.459763779527559
20
2.0583464566929135
11
0.519763779527559
21
2.0583464566929135
0
LINE
8
BLACK
6
CONTINUOUS
10
0.519763779527559
20
2.0583464566929135
11
0.519763779527559
21
1.9983464566929134
0
LINE
8
BLACK
6
CONTINUOUS
10
0.619763779527559
20
1.9983464566929134
11
0.5597637795275591
21
1.9983464566929134
0
LINE
8
BLACK
6
CONTINUOUS
10
0.5597637795275591
20
1.9983464566929134
11
0.5597637795275591
21
2.0583464566929135
0
LINE
8
BLACK
6
CONTINUOUS
10
0.5597637795275591
20
2.0583464566929135
11
0.619763779527559
21
2.0583464566929135
0
LINE
8
BLACK
6
CONTINUOUS
10
0.619763779527559
20
2.0583464566929135
11
0.619763779527559
21
1.9983464566929134
0
LINE
8
BLACK
6
CONTINUOUS
10
0.719763779527559
20
1.9983464566929134
11
0.659763779527559
21
1.9983464566929134
0
LINE
8
BLACK
6
CONTINUOUS
10
0.659763779527559
20
1.9983464566929134
11
0.659763779527559
21
2.0583464566929135
0
LINE
8
BLACK
6
CONTINUOUS
10
0.659763779527559
20
2.0583464566929135
11
0.719763779527559
21
2.0583464566929135
0
LINE
8
BLACK
6
CONTINUOUS
10
0.719763779527559
20
2.0583464566929135
11
0.719763779527559
21
1.9983464566929134
0
LINE
8
BLACK
6
CONTINUOUS
10
0.8197637795275591
20
1.9983464566929134
11
0.759763779527559
21
1.9983464566929134
0
LINE
8
BLACK
6
CONTINUOUS
10
0.759763779527559
20
1.9983464566929134
11
0.759763779527559
21
2.0583464566929135
0
LINE
8
BLACK
6
CONTINUOUS
10
0.759763779527559
20
2.0583464566929135
11
0.8197637795275591
21
2.0583464566929135
0
LINE
8
BLACK
6
CONTINUOUS
10
0.8197637795275591
20
2.0583464566929135
11
0.8197637795275591
21
1.9983464566929134
0
LINE
8
BLACK
6
CONTINUOUS
10
0.9197637795275591
20
1.9983464566929134
11
0.859763779527559
21
1.9983464566929134
0
LINE
8
BLACK
6
CONTINUOUS
10
0.859763779527559
20
1.9983464566929134
11
0.859763779527559
21
2.0583464566929135
0
LINE
8
BLACK
6
CONTINUOUS
10
0.859763779527559
20
2.0583464566929135
11
0.9197637795275591
21
2.0583464566929135
0
LINE
8
BLACK
6
CONTINUOUS
10
0.9197637795275591
20
2.0583464566929135
11
0.9197637795275591
21
1.9983464566929134
0
CIRCLE
8
BLACK
10
0.
20
1.9775590551181101
40
0.0068897637795276
0
CIRCLE
8
BLACK
10
1.2
20
0.0031496062992126
40
0.0068897637795276
0
CIRCLE
8
BLACK
10
0.
20
0.0031496062992126
40
0.0068897637795276
0
CIRCLE
8
BLACK
10
1.2
20
1.9775590551181101
40
0.0068897637795276
0
CIRCLE
8
BLACK
10
0.889763779527559
20
2.0283464566929132
40
0.0068897637795276
0
CIRCLE
8
BLACK
10
0.889763779527559
20
1.9283464566929134
40
0.0068897637795276
0
CIRCLE
8
BLACK
10
0.7897637795275591
20
2.0283464566929132
40
0.0068897637795276
0
CIRCLE
8
BLACK
10
0.7897637795275591
20
1.9283464566929134
40
0.0068897637795276
0
CIRCLE
8
BLACK
10
0.6897637795275591
20
2.0283464566929132
40
0.0068897637795276
0
CIRCLE
8
BLACK
10
0.6897637795275591
20
1.9283464566929134
40
0.0068897637795276
0
CIRCLE
8
BLACK
10
0.5897637795275591
20
2.0283464566929132
40
0.0068897637795276
0
CIRCLE
8
BLACK
10
0.5897637795275591
20
1.9283464566929134
40
0.0068897637795276
0
CIRCLE
8
BLACK
10
0.4897637795275591
20
2.0283464566929132
40
0.0068897637795276
0
CIRCLE
8
BLACK
10
0.4897637795275591
20
1.9283464566929134
40
0.0068897637795276
0
CIRCLE
8
BLACK
10
0.389763779527559
20
2.0283464566929132
40
0.0068897637795276
0
CIRCLE
8
BLACK
10
0.389763779527559
20
1.9283464566929134
40
0.0068897637795276
0
CIRCLE
8
BLACK
10
0.2897637795275591
20
2.0283464566929132
40
0.0068897637795276
0
CIRCLE
8
BLACK
10
0.2897637795275591
20
1.9283464566929134
40
0.0068897637795276
0
CIRCLE
8
WHITE
10
0.
20
1.9775590551181101
40
0.0068897637795276
0
CIRCLE
8
WHITE
10
1.2
20
0.0031496062992126
40
0.0068897637795276
0
CIRCLE
8
WHITE
10
0.
20
0.0031496062992126
40
0.0068897637795276
0
CIRCLE
8
WHITE
10
1.2
20
1.9775590551181101
40
0.0068897637795276
0
CIRCLE
8
WHITE
10
0.889763779527559
20
2.0283464566929132
40
0.0068897637795276
0
CIRCLE
8
WHITE
10
0.889763779527559
20
1.9283464566929134
40
0.0068897637795276
0
CIRCLE
8
WHITE
10
0.7897637795275591
20
2.0283464566929132
40
0.0068897637795276
0
CIRCLE
8
WHITE
10
0.7897637795275591
20
1.9283464566929134
40
0.0068897637795276
0
CIRCLE
8
WHITE
10
0.6897637795275591
20
2.0283464566929132
40
0.0068897637795276
0
CIRCLE
8
WHITE
10
0.6897637795275591
20
1.9283464566929134
40
0.0068897637795276
0
CIRCLE
8
WHITE
10
0.5897637795275591
20
2.0283464566929132
40
0.0068897637795276
0
CIRCLE
8
WHITE
10
0.5897637795275591
20
1.9283464566929134
40
0.0068897637795276
0
CIRCLE
8
WHITE
10
0.4897637795275591
20
2.0283464566929132
40
0.0068897637795276
0
CIRCLE
8
WHITE
10
0.4897637795275591
20
1.9283464566929134
40
0.0068897637795276
0
CIRCLE
8
WHITE
10
0.389763779527559
20
2.0283464566929132
40
0.0068897637795276
0
CIRCLE
8
WHITE
10
0.389763779527559
20
1.9283464566929134
40
0.0068897637795276
0
CIRCLE
8
WHITE
10
0.2897637795275591
20
2.0283464566929132
40
0.0068897637795276
0
CIRCLE
8
WHITE
10
0.2897637795275591
20
1.9283464566929134
40
0.0068897637795276
  0
ENDSEC
  0
EOF
