  0
SECTION
  2
HEADER
  9
$ANGBASE
  50
0.0
  9
$ANGDIR
  70
1
  9
$MEASUREMENT
  70
0
  0
ENDSEC
  0
SECTION
  2
TABLES
  0
TABLE
  2
LTYPE
  70
4
  0
LTYPE
  5
40F
  2
CONTINUOUS
  70
0
  3
Solid line
  72
65
  73
0
  40
0.0
  0
LTYPE
  5
410
  2
DASHDOT
 70
0
  3
Dash Dot ____ _ ____ _
 72
65
 73
4
 40
2.0
 49
1.25
 49
-0.25
 49
0.25
 49
-0.25
  0
LTYPE
  5
411
  2
DASHED
 70
0
  3
Dashed __ __ __ __ __
 72
65
 73
2
 40
0.75
 49
0.5
 49
-0.25
  0
LTYPE
  5
43B
  2
DOTTED
 70
0
  3
Dotted .  .  .  .
 72
65
 73
2
 40
0.2
 49
0.0
 49
-0.2
  0
ENDTAB
  0
TABLE
  2
STYLE
  70
4
  0
STYLE
  2
KICAD
  70
0
  40
0
  41
1
  42
1
  50
0
  71
0
  3
isocp.shx
  0
STYLE
  2
KICADB
  70
0
  40
0
  41
1
  42
1
  50
0
  71
0
  3
isocp.shx
  0
STYLE
  2
KICADI
  70
0
  40
0
  41
1
  42
1
  50
15
  71
0
  3
isocp.shx
  0
STYLE
  2
KICADBI
  70
0
  40
0
  41
1
  42
1
  50
15
  71
0
  3
isocp.shx
  0
ENDTAB
  0
TABLE
  2
LAYER
  70
1
  0
LAYER
  2
BLACK
  70
0
  62
7
  6
CONTINUOUS
  0
ENDTAB
  0
ENDSEC
  0
SECTION
  2
ENTITIES
0
LINE
8
BLACK
6
CONTINUOUS
10
0.7247861023622048
20
0.569806968503937
11
0.7253187795275591
21
0.5692742913385826
0
LINE
8
BLACK
6
CONTINUOUS
10
0.7253187795275591
20
0.5692742913385826
11
0.7253937007874015
21
0.5688976377952756
0
LINE
8
BLACK
6
CONTINUOUS
10
0.7253937007874015
20
0.5688976377952756
11
0.7253937007874015
21
0.4523622047244094
0
LINE
8
BLACK
6
CONTINUOUS
10
0.7253937007874015
20
0.4523622047244094
11
0.7253187795275591
21
0.4519855511811023
0
LINE
8
BLACK
6
CONTINUOUS
10
0.7253187795275591
20
0.4519855511811023
11
0.7247861023622048
21
0.451452874015748
0
LINE
8
BLACK
6
CONTINUOUS
10
0.7247861023622048
20
0.451452874015748
11
0.7244094488188976
21
0.4513779527559055
0
LINE
8
BLACK
6
CONTINUOUS
10
0.7244094488188976
20
0.4513779527559055
11
0.6669291338582677
21
0.4513779527559055
0
LINE
8
BLACK
6
CONTINUOUS
10
0.6669291338582677
20
0.4513779527559055
11
0.6665524803149606
21
0.451452874015748
0
LINE
8
BLACK
6
CONTINUOUS
10
0.6665524803149606
20
0.451452874015748
11
0.6660198031496063
21
0.4519855511811023
0
LINE
8
BLACK
6
CONTINUOUS
10
0.6660198031496063
20
0.4519855511811023
11
0.6659448818897638
21
0.4523622047244094
0
LINE
8
BLACK
6
CONTINUOUS
10
0.6659448818897638
20
0.4523622047244094
11
0.6659448818897638
21
0.5688976377952756
0
LINE
8
BLACK
6
CONTINUOUS
10
0.6659448818897638
20
0.5688976377952756
11
0.6660198031496063
21
0.5692742913385826
0
LINE
8
BLACK
6
CONTINUOUS
10
0.6660198031496063
20
0.5692742913385826
11
0.6665524803149606
21
0.569806968503937
0
LINE
8
BLACK
6
CONTINUOUS
10
0.6665524803149606
20
0.569806968503937
11
0.6669291338582677
21
0.5698818897637795
0
LINE
8
BLACK
6
CONTINUOUS
10
0.6669291338582677
20
0.5698818897637795
11
0.7244094488188976
21
0.5698818897637795
0
LINE
8
BLACK
6
CONTINUOUS
10
0.7244094488188976
20
0.5698818897637795
11
0.7247861023622048
21
0.569806968503937
0
LINE
8
BLACK
6
CONTINUOUS
10
0.6679133858267716
20
0.5679133858267716
11
0.6679133858267716
21
0.4533464566929134
0
LINE
8
BLACK
6
CONTINUOUS
10
0.6679133858267716
20
0.4533464566929134
11
0.7234251968503936
21
0.4533464566929134
0
LINE
8
BLACK
6
CONTINUOUS
10
0.7234251968503936
20
0.4533464566929134
11
0.7234251968503936
21
0.5679133858267716
0
LINE
8
BLACK
6
CONTINUOUS
10
0.7234251968503936
20
0.5679133858267716
11
0.6679133858267716
21
0.5679133858267716
0
LINE
8
BLACK
6
CONTINUOUS
10
0.1830538188976378
20
1.0784683858267716
11
0.1835864960629921
21
1.0779357086614172
0
LINE
8
BLACK
6
CONTINUOUS
10
0.1835864960629921
20
1.0779357086614172
11
0.1836614173228346
21
1.0775590551181102
0
LINE
8
BLACK
6
CONTINUOUS
10
0.1836614173228346
20
1.0775590551181102
11
0.1836614173228346
21
0.9610236220472441
0
LINE
8
BLACK
6
CONTINUOUS
10
0.1836614173228346
20
0.9610236220472441
11
0.1835864960629921
21
0.9606469685039369
0
LINE
8
BLACK
6
CONTINUOUS
10
0.1835864960629921
20
0.9606469685039369
11
0.1830538188976378
21
0.9601142913385826
0
LINE
8
BLACK
6
CONTINUOUS
10
0.1830538188976378
20
0.9601142913385826
11
0.1826771653543307
21
0.9600393700787402
0
LINE
8
BLACK
6
CONTINUOUS
10
0.1826771653543307
20
0.9600393700787402
11
0.1251968503937008
21
0.9600393700787402
0
LINE
8
BLACK
6
CONTINUOUS
10
0.1251968503937008
20
0.9600393700787402
11
0.1248201968503937
21
0.9601142913385826
0
LINE
8
BLACK
6
CONTINUOUS
10
0.1248201968503937
20
0.9601142913385826
11
0.1242875196850394
21
0.9606469685039369
0
LINE
8
BLACK
6
CONTINUOUS
10
0.1242875196850394
20
0.9606469685039369
11
0.1242125984251968
21
0.9610236220472441
0
LINE
8
BLACK
6
CONTINUOUS
10
0.1242125984251968
20
0.9610236220472441
11
0.1242125984251968
21
1.0775590551181102
0
LINE
8
BLACK
6
CONTINUOUS
10
0.1242125984251968
20
1.0775590551181102
11
0.1242875196850394
21
1.0779357086614172
0
LINE
8
BLACK
6
CONTINUOUS
10
0.1242875196850394
20
1.0779357086614172
11
0.1248201968503937
21
1.0784683858267716
0
LINE
8
BLACK
6
CONTINUOUS
10
0.1248201968503937
20
1.0784683858267716
11
0.1251968503937008
21
1.0785433070866142
0
LINE
8
BLACK
6
CONTINUOUS
10
0.1251968503937008
20
1.0785433070866142
11
0.1826771653543307
21
1.0785433070866142
0
LINE
8
BLACK
6
CONTINUOUS
10
0.1826771653543307
20
1.0785433070866142
11
0.1830538188976378
21
1.0784683858267716
0
LINE
8
BLACK
6
CONTINUOUS
10
0.1261811023622047
20
1.0765748031496063
11
0.1261811023622047
21
0.9620078740157481
0
LINE
8
BLACK
6
CONTINUOUS
10
0.1261811023622047
20
0.9620078740157481
11
0.1816929133858268
21
0.9620078740157481
0
LINE
8
BLACK
6
CONTINUOUS
10
0.1816929133858268
20
0.9620078740157481
11
0.1816929133858268
21
1.0765748031496063
0
LINE
8
BLACK
6
CONTINUOUS
10
0.1816929133858268
20
1.0765748031496063
11
0.1261811023622047
21
1.0765748031496063
0
LINE
8
BLACK
6
CONTINUOUS
10
0.3509672047244095
20
1.0217754724409449
11
0.3514998818897638
21
1.0212427952755905
0
LINE
8
BLACK
6
CONTINUOUS
10
0.3514998818897638
20
1.0212427952755905
11
0.3515748031496063
21
1.0208661417322835
0
LINE
8
BLACK
6
CONTINUOUS
10
0.3515748031496063
20
1.0208661417322835
11
0.3515748031496063
21
0.9633858267716535
0
LINE
8
BLACK
6
CONTINUOUS
10
0.3515748031496063
20
0.9633858267716535
11
0.3514998818897638
21
0.9630091732283464
0
LINE
8
BLACK
6
CONTINUOUS
10
0.3514998818897638
20
0.9630091732283464
11
0.3509672047244095
21
0.9624764960629921
0
LINE
8
BLACK
6
CONTINUOUS
10
0.3509672047244095
20
0.9624764960629921
11
0.3505905511811023
21
0.9624015748031496
0
LINE
8
BLACK
6
CONTINUOUS
10
0.3505905511811023
20
0.9624015748031496
11
0.2340551181102362
21
0.9624015748031496
0
LINE
8
BLACK
6
CONTINUOUS
10
0.2340551181102362
20
0.9624015748031496
11
0.2336784645669291
21
0.9624764960629921
0
LINE
8
BLACK
6
CONTINUOUS
10
0.2336784645669291
20
0.9624764960629921
11
0.2331457874015748
21
0.9630091732283464
0
LINE
8
BLACK
6
CONTINUOUS
10
0.2331457874015748
20
0.9630091732283464
11
0.2330708661417323
21
0.9633858267716535
0
LINE
8
BLACK
6
CONTINUOUS
10
0.2330708661417323
20
0.9633858267716535
11
0.2330708661417323
21
1.0208661417322835
0
LINE
8
BLACK
6
CONTINUOUS
10
0.2330708661417323
20
1.0208661417322835
11
0.2331457874015748
21
1.0212427952755905
0
LINE
8
BLACK
6
CONTINUOUS
10
0.2331457874015748
20
1.0212427952755905
11
0.2336784645669291
21
1.0217754724409449
0
LINE
8
BLACK
6
CONTINUOUS
10
0.2336784645669291
20
1.0217754724409449
11
0.2340551181102362
21
1.0218503937007875
0
LINE
8
BLACK
6
CONTINUOUS
10
0.2340551181102362
20
1.0218503937007875
11
0.3505905511811023
21
1.0218503937007875
0
LINE
8
BLACK
6
CONTINUOUS
10
0.3505905511811023
20
1.0218503937007875
11
0.3509672047244095
21
1.0217754724409449
0
LINE
8
BLACK
6
CONTINUOUS
10
0.2350393700787402
20
1.0198818897637796
11
0.2350393700787402
21
0.9643700787401575
0
LINE
8
BLACK
6
CONTINUOUS
10
0.2350393700787402
20
0.9643700787401575
11
0.3496062992125984
21
0.9643700787401575
0
LINE
8
BLACK
6
CONTINUOUS
10
0.3496062992125984
20
0.9643700787401575
11
0.3496062992125984
21
1.0198818897637796
0
LINE
8
BLACK
6
CONTINUOUS
10
0.3496062992125984
20
1.0198818897637796
11
0.2350393700787402
21
1.0198818897637796
0
LINE
8
BLACK
6
CONTINUOUS
10
0.5767546062992126
20
1.0831927952755904
11
0.5772872834645669
21
1.0826601181102362
0
LINE
8
BLACK
6
CONTINUOUS
10
0.5772872834645669
20
1.0826601181102362
11
0.5773622047244095
21
1.082283464566929
0
LINE
8
BLACK
6
CONTINUOUS
10
0.5773622047244095
20
1.082283464566929
11
0.5773622047244095
21
0.9657480314960629
0
LINE
8
BLACK
6
CONTINUOUS
10
0.5773622047244095
20
0.9657480314960629
11
0.5772872834645669
21
0.9653713779527558
0
LINE
8
BLACK
6
CONTINUOUS
10
0.5772872834645669
20
0.9653713779527558
11
0.5767546062992126
21
0.9648387007874015
0
LINE
8
BLACK
6
CONTINUOUS
10
0.5767546062992126
20
0.9648387007874015
11
0.5763779527559055
21
0.964763779527559
0
LINE
8
BLACK
6
CONTINUOUS
10
0.5763779527559055
20
0.964763779527559
11
0.5188976377952755
21
0.964763779527559
0
LINE
8
BLACK
6
CONTINUOUS
10
0.5188976377952755
20
0.964763779527559
11
0.5185209842519685
21
0.9648387007874015
0
LINE
8
BLACK
6
CONTINUOUS
10
0.5185209842519685
20
0.9648387007874015
11
0.5179883070866141
21
0.9653713779527558
0
LINE
8
BLACK
6
CONTINUOUS
10
0.5179883070866141
20
0.9653713779527558
11
0.5179133858267716
21
0.9657480314960629
0
LINE
8
BLACK
6
CONTINUOUS
10
0.5179133858267716
20
0.9657480314960629
11
0.5179133858267716
21
1.082283464566929
0
LINE
8
BLACK
6
CONTINUOUS
10
0.5179133858267716
20
1.082283464566929
11
0.5179883070866141
21
1.0826601181102362
0
LINE
8
BLACK
6
CONTINUOUS
10
0.5179883070866141
20
1.0826601181102362
11
0.5185209842519685
21
1.0831927952755904
0
LINE
8
BLACK
6
CONTINUOUS
10
0.5185209842519685
20
1.0831927952755904
11
0.5188976377952755
21
1.083267716535433
0
LINE
8
BLACK
6
CONTINUOUS
10
0.5188976377952755
20
1.083267716535433
11
0.5763779527559055
21
1.083267716535433
0
LINE
8
BLACK
6
CONTINUOUS
10
0.5763779527559055
20
1.083267716535433
11
0.5767546062992126
21
1.0831927952755904
0
LINE
8
BLACK
6
CONTINUOUS
10
0.5198818897637795
20
1.0812992125984251
11
0.5198818897637795
21
0.9667322834645669
0
LINE
8
BLACK
6
CONTINUOUS
10
0.5198818897637795
20
0.9667322834645669
11
0.5753937007874016
21
0.9667322834645669
0
LINE
8
BLACK
6
CONTINUOUS
10
0.5753937007874016
20
0.9667322834645669
11
0.5753937007874016
21
1.0812992125984251
0
LINE
8
BLACK
6
CONTINUOUS
10
0.5753937007874016
20
1.0812992125984251
11
0.5198818897637795
21
1.0812992125984251
0
LINE
8
BLACK
6
CONTINUOUS
10
0.339353031496063
20
1.2079959448818898
11
0.3398857086614173
21
1.2074632677165353
0
LINE
8
BLACK
6
CONTINUOUS
10
0.3398857086614173
20
1.2074632677165353
11
0.3399606299212599
21
1.2070866141732284
0
LINE
8
BLACK
6
CONTINUOUS
10
0.3399606299212599
20
1.2070866141732284
11
0.3399606299212599
21
1.2001968503937008
0
LINE
8
BLACK
6
CONTINUOUS
10
0.3399606299212599
20
1.2001968503937008
11
0.3783464566929134
21
1.2001968503937008
0
LINE
8
BLACK
6
CONTINUOUS
10
0.3783464566929134
20
1.2001968503937008
11
0.3787231102362205
21
1.2001219291338583
0
LINE
8
BLACK
6
CONTINUOUS
10
0.3787231102362205
20
1.2001219291338583
11
0.3792557874015748
21
1.1995892519685039
0
LINE
8
BLACK
6
CONTINUOUS
10
0.3792557874015748
20
1.1995892519685039
11
0.3793307086614173
21
1.1992125984251969
0
LINE
8
BLACK
6
CONTINUOUS
10
0.3793307086614173
20
1.1992125984251969
11
0.3793307086614173
21
1.155511811023622
0
LINE
8
BLACK
6
CONTINUOUS
10
0.3793307086614173
20
1.155511811023622
11
0.3792557874015748
21
1.155135157480315
0
LINE
8
BLACK
6
CONTINUOUS
10
0.3792557874015748
20
1.155135157480315
11
0.3787231102362205
21
1.1546024803149606
0
LINE
8
BLACK
6
CONTINUOUS
10
0.3787231102362205
20
1.1546024803149606
11
0.3783464566929134
21
1.1545275590551181
0
LINE
8
BLACK
6
CONTINUOUS
10
0.3783464566929134
20
1.1545275590551181
11
0.3399606299212599
21
1.1545275590551181
0
LINE
8
BLACK
6
CONTINUOUS
10
0.3399606299212599
20
1.1545275590551181
11
0.3399606299212599
21
1.1257874015748031
0
LINE
8
BLACK
6
CONTINUOUS
10
0.3399606299212599
20
1.1257874015748031
11
0.3783464566929134
21
1.1257874015748031
0
LINE
8
BLACK
6
CONTINUOUS
10
0.3783464566929134
20
1.1257874015748031
11
0.3787231102362205
21
1.1257124803149605
0
LINE
8
BLACK
6
CONTINUOUS
10
0.3787231102362205
20
1.1257124803149605
11
0.3792557874015748
21
1.1251798031496063
0
LINE
8
BLACK
6
CONTINUOUS
10
0.3792557874015748
20
1.1251798031496063
11
0.3793307086614173
21
1.1248031496062991
0
LINE
8
BLACK
6
CONTINUOUS
10
0.3793307086614173
20
1.1248031496062991
11
0.3793307086614173
21
1.0811023622047244
0
LINE
8
BLACK
6
CONTINUOUS
10
0.3793307086614173
20
1.0811023622047244
11
0.3792557874015748
21
1.0807257086614173
0
LINE
8
BLACK
6
CONTINUOUS
10
0.3792557874015748
20
1.0807257086614173
11
0.3787231102362205
21
1.080193031496063
0
LINE
8
BLACK
6
CONTINUOUS
10
0.3787231102362205
20
1.080193031496063
11
0.3783464566929134
21
1.0801181102362205
0
LINE
8
BLACK
6
CONTINUOUS
10
0.3783464566929134
20
1.0801181102362205
11
0.3399606299212599
21
1.0801181102362205
0
LINE
8
BLACK
6
CONTINUOUS
10
0.3399606299212599
20
1.0801181102362205
11
0.3399606299212599
21
1.073228346456693
0
LINE
8
BLACK
6
CONTINUOUS
10
0.3399606299212599
20
1.073228346456693
11
0.3398857086614173
21
1.0728516929133858
0
LINE
8
BLACK
6
CONTINUOUS
10
0.3398857086614173
20
1.0728516929133858
11
0.339353031496063
21
1.0723190157480316
0
LINE
8
BLACK
6
CONTINUOUS
10
0.339353031496063
20
1.0723190157480316
11
0.3389763779527559
21
1.072244094488189
0
LINE
8
BLACK
6
CONTINUOUS
10
0.3389763779527559
20
1.072244094488189
11
0.2562992125984252
21
1.072244094488189
0
LINE
8
BLACK
6
CONTINUOUS
10
0.2562992125984252
20
1.072244094488189
11
0.2559225590551181
21
1.0723190157480316
0
LINE
8
BLACK
6
CONTINUOUS
10
0.2559225590551181
20
1.0723190157480316
11
0.2553898818897637
21
1.0728516929133858
0
LINE
8
BLACK
6
CONTINUOUS
10
0.2553898818897637
20
1.0728516929133858
11
0.2553149606299213
21
1.073228346456693
0
LINE
8
BLACK
6
CONTINUOUS
10
0.2553149606299213
20
1.073228346456693
11
0.2553149606299213
21
1.0801181102362205
0
LINE
8
BLACK
6
CONTINUOUS
10
0.2553149606299213
20
1.0801181102362205
11
0.2169291338582677
21
1.0801181102362205
0
LINE
8
BLACK
6
CONTINUOUS
10
0.2169291338582677
20
1.0801181102362205
11
0.2165524803149606
21
1.080193031496063
0
LINE
8
BLACK
6
CONTINUOUS
10
0.2165524803149606
20
1.080193031496063
11
0.2160198031496063
21
1.0807257086614173
0
LINE
8
BLACK
6
CONTINUOUS
10
0.2160198031496063
20
1.0807257086614173
11
0.2159448818897638
21
1.0811023622047244
0
LINE
8
BLACK
6
CONTINUOUS
10
0.2159448818897638
20
1.0811023622047244
11
0.2159448818897638
21
1.1992125984251969
0
LINE
8
BLACK
6
CONTINUOUS
10
0.2159448818897638
20
1.1992125984251969
11
0.2160198031496063
21
1.1995892519685039
0
LINE
8
BLACK
6
CONTINUOUS
10
0.2160198031496063
20
1.1995892519685039
11
0.2165524803149606
21
1.2001219291338583
0
LINE
8
BLACK
6
CONTINUOUS
10
0.2165524803149606
20
1.2001219291338583
11
0.2169291338582677
21
1.2001968503937008
0
LINE
8
BLACK
6
CONTINUOUS
10
0.2169291338582677
20
1.2001968503937008
11
0.2553149606299213
21
1.2001968503937008
0
LINE
8
BLACK
6
CONTINUOUS
10
0.2553149606299213
20
1.2001968503937008
11
0.2553149606299213
21
1.2070866141732284
0
LINE
8
BLACK
6
CONTINUOUS
10
0.2553149606299213
20
1.2070866141732284
11
0.2553898818897637
21
1.2074632677165353
0
LINE
8
BLACK
6
CONTINUOUS
10
0.2553898818897637
20
1.2074632677165353
11
0.2559225590551181
21
1.2079959448818898
0
LINE
8
BLACK
6
CONTINUOUS
10
0.2559225590551181
20
1.2079959448818898
11
0.2562992125984252
21
1.2080708661417323
0
LINE
8
BLACK
6
CONTINUOUS
10
0.2562992125984252
20
1.2080708661417323
11
0.3389763779527559
21
1.2080708661417323
0
LINE
8
BLACK
6
CONTINUOUS
10
0.3389763779527559
20
1.2080708661417323
11
0.339353031496063
21
1.2079959448818898
0
LINE
8
BLACK
6
CONTINUOUS
10
0.2572834645669291
20
1.2061023622047244
11
0.2572834645669291
21
1.1992125984251969
0
LINE
8
BLACK
6
CONTINUOUS
10
0.2572834645669291
20
1.1992125984251969
11
0.2572085433070866
21
1.1988359448818897
0
LINE
8
BLACK
6
CONTINUOUS
10
0.2572085433070866
20
1.1988359448818897
11
0.2566758661417323
21
1.1983032677165355
0
LINE
8
BLACK
6
CONTINUOUS
10
0.2566758661417323
20
1.1983032677165355
11
0.2562992125984252
21
1.198228346456693
0
LINE
8
BLACK
6
CONTINUOUS
10
0.2562992125984252
20
1.198228346456693
11
0.2179133858267716
21
1.198228346456693
0
LINE
8
BLACK
6
CONTINUOUS
10
0.2179133858267716
20
1.198228346456693
11
0.2179133858267716
21
1.0820866141732284
0
LINE
8
BLACK
6
CONTINUOUS
10
0.2179133858267716
20
1.0820866141732284
11
0.2562992125984252
21
1.0820866141732284
0
LINE
8
BLACK
6
CONTINUOUS
10
0.2562992125984252
20
1.0820866141732284
11
0.2566758661417323
21
1.0820116929133858
0
LINE
8
BLACK
6
CONTINUOUS
10
0.2566758661417323
20
1.0820116929133858
11
0.2572085433070866
21
1.0814790157480314
0
LINE
8
BLACK
6
CONTINUOUS
10
0.2572085433070866
20
1.0814790157480314
11
0.2572834645669291
21
1.0811023622047244
0
LINE
8
BLACK
6
CONTINUOUS
10
0.2572834645669291
20
1.0811023622047244
11
0.2572834645669291
21
1.0742125984251969
0
LINE
8
BLACK
6
CONTINUOUS
10
0.2572834645669291
20
1.0742125984251969
11
0.3379921259842519
21
1.0742125984251969
0
LINE
8
BLACK
6
CONTINUOUS
10
0.3379921259842519
20
1.0742125984251969
11
0.3379921259842519
21
1.0811023622047244
0
LINE
8
BLACK
6
CONTINUOUS
10
0.3379921259842519
20
1.0811023622047244
11
0.3380670472440945
21
1.0814790157480314
0
LINE
8
BLACK
6
CONTINUOUS
10
0.3380670472440945
20
1.0814790157480314
11
0.3385997244094488
21
1.0820116929133858
0
LINE
8
BLACK
6
CONTINUOUS
10
0.3385997244094488
20
1.0820116929133858
11
0.3389763779527559
21
1.0820866141732284
0
LINE
8
BLACK
6
CONTINUOUS
10
0.3389763779527559
20
1.0820866141732284
11
0.3773622047244095
21
1.0820866141732284
0
LINE
8
BLACK
6
CONTINUOUS
10
0.3773622047244095
20
1.0820866141732284
11
0.3773622047244095
21
1.1238188976377952
0
LINE
8
BLACK
6
CONTINUOUS
10
0.3773622047244095
20
1.1238188976377952
11
0.3389763779527559
21
1.1238188976377952
0
LINE
8
BLACK
6
CONTINUOUS
10
0.3389763779527559
20
1.1238188976377952
11
0.3385997244094488
21
1.1238938188976377
0
LINE
8
BLACK
6
CONTINUOUS
10
0.3385997244094488
20
1.1238938188976377
11
0.3380670472440945
21
1.1244264960629922
0
LINE
8
BLACK
6
CONTINUOUS
10
0.3380670472440945
20
1.1244264960629922
11
0.3379921259842519
21
1.1248031496062991
0
LINE
8
BLACK
6
CONTINUOUS
10
0.3379921259842519
20
1.1248031496062991
11
0.3379921259842519
21
1.155511811023622
0
LINE
8
BLACK
6
CONTINUOUS
10
0.3379921259842519
20
1.155511811023622
11
0.3380670472440945
21
1.1558884645669292
0
LINE
8
BLACK
6
CONTINUOUS
10
0.3380670472440945
20
1.1558884645669292
11
0.3385997244094488
21
1.1564211417322834
0
LINE
8
BLACK
6
CONTINUOUS
10
0.3385997244094488
20
1.1564211417322834
11
0.3389763779527559
21
1.1564960629921259
0
LINE
8
BLACK
6
CONTINUOUS
10
0.3389763779527559
20
1.1564960629921259
11
0.3773622047244095
21
1.1564960629921259
0
LINE
8
BLACK
6
CONTINUOUS
10
0.3773622047244095
20
1.1564960629921259
11
0.3773622047244095
21
1.198228346456693
0
LINE
8
BLACK
6
CONTINUOUS
10
0.3773622047244095
20
1.198228346456693
11
0.3389763779527559
21
1.198228346456693
0
LINE
8
BLACK
6
CONTINUOUS
10
0.3389763779527559
20
1.198228346456693
11
0.3385997244094488
21
1.1983032677165355
0
LINE
8
BLACK
6
CONTINUOUS
10
0.3385997244094488
20
1.1983032677165355
11
0.3380670472440945
21
1.1988359448818897
0
LINE
8
BLACK
6
CONTINUOUS
10
0.3380670472440945
20
1.1988359448818897
11
0.3379921259842519
21
1.1992125984251969
0
LINE
8
BLACK
6
CONTINUOUS
10
0.3379921259842519
20
1.1992125984251969
11
0.3379921259842519
21
1.2061023622047244
0
LINE
8
BLACK
6
CONTINUOUS
10
0.3379921259842519
20
1.2061023622047244
11
0.2572834645669291
21
1.2061023622047244
0
LINE
8
BLACK
6
CONTINUOUS
10
0.5092349212598425
20
1.2099644488188976
11
0.5097675984251968
21
1.2094317716535432
0
LINE
8
BLACK
6
CONTINUOUS
10
0.5097675984251968
20
1.2094317716535432
11
0.5098425196850394
21
1.2090551181102362
0
LINE
8
BLACK
6
CONTINUOUS
10
0.5098425196850394
20
1.2090551181102362
11
0.5098425196850394
21
1.1515748031496063
0
LINE
8
BLACK
6
CONTINUOUS
10
0.5098425196850394
20
1.1515748031496063
11
0.5097675984251968
21
1.1511981496062993
0
LINE
8
BLACK
6
CONTINUOUS
10
0.5097675984251968
20
1.1511981496062993
11
0.5092349212598425
21
1.1506654724409449
0
LINE
8
BLACK
6
CONTINUOUS
10
0.5092349212598425
20
1.1506654724409449
11
0.5088582677165354
21
1.1505905511811023
0
LINE
8
BLACK
6
CONTINUOUS
10
0.5088582677165354
20
1.1505905511811023
11
0.3923228346456693
21
1.1505905511811023
0
LINE
8
BLACK
6
CONTINUOUS
10
0.3923228346456693
20
1.1505905511811023
11
0.3919461811023622
21
1.1506654724409449
0
LINE
8
BLACK
6
CONTINUOUS
10
0.3919461811023622
20
1.1506654724409449
11
0.3914135039370079
21
1.1511981496062993
0
LINE
8
BLACK
6
CONTINUOUS
10
0.3914135039370079
20
1.1511981496062993
11
0.3913385826771654
21
1.1515748031496063
0
LINE
8
BLACK
6
CONTINUOUS
10
0.3913385826771654
20
1.1515748031496063
11
0.3913385826771654
21
1.2090551181102362
0
LINE
8
BLACK
6
CONTINUOUS
10
0.3913385826771654
20
1.2090551181102362
11
0.3914135039370079
21
1.2094317716535432
0
LINE
8
BLACK
6
CONTINUOUS
10
0.3914135039370079
20
1.2094317716535432
11
0.3919461811023622
21
1.2099644488188976
0
LINE
8
BLACK
6
CONTINUOUS
10
0.3919461811023622
20
1.2099644488188976
11
0.3923228346456693
21
1.2100393700787402
0
LINE
8
BLACK
6
CONTINUOUS
10
0.3923228346456693
20
1.2100393700787402
11
0.5088582677165354
21
1.2100393700787402
0
LINE
8
BLACK
6
CONTINUOUS
10
0.5088582677165354
20
1.2100393700787402
11
0.5092349212598425
21
1.2099644488188976
0
LINE
8
BLACK
6
CONTINUOUS
10
0.3933070866141732
20
1.2080708661417323
11
0.3933070866141732
21
1.1525590551181102
0
LINE
8
BLACK
6
CONTINUOUS
10
0.3933070866141732
20
1.1525590551181102
11
0.5078740157480315
21
1.1525590551181102
0
LINE
8
BLACK
6
CONTINUOUS
10
0.5078740157480315
20
1.1525590551181102
11
0.5078740157480315
21
1.2080708661417323
0
LINE
8
BLACK
6
CONTINUOUS
10
0.5078740157480315
20
1.2080708661417323
11
0.3933070866141732
21
1.2080708661417323
0
LINE
8
BLACK
6
CONTINUOUS
10
0.4755735039370079
20
1.3170510629921259
11
0.4761061811023622
21
1.3165183858267717
0
LINE
8
BLACK
6
CONTINUOUS
10
0.4761061811023622
20
1.3165183858267717
11
0.4761811023622047
21
1.3161417322834645
0
LINE
8
BLACK
6
CONTINUOUS
10
0.4761811023622047
20
1.3161417322834645
11
0.4761811023622047
21
1.2586614173228345
0
LINE
8
BLACK
6
CONTINUOUS
10
0.4761811023622047
20
1.2586614173228345
11
0.4761061811023622
21
1.2582847637795276
0
LINE
8
BLACK
6
CONTINUOUS
10
0.4761061811023622
20
1.2582847637795276
11
0.4755735039370079
21
1.2577520866141731
0
LINE
8
BLACK
6
CONTINUOUS
10
0.4755735039370079
20
1.2577520866141731
11
0.4751968503937008
21
1.2576771653543306
0
LINE
8
BLACK
6
CONTINUOUS
10
0.4751968503937008
20
1.2576771653543306
11
0.3586614173228346
21
1.2576771653543306
0
LINE
8
BLACK
6
CONTINUOUS
10
0.3586614173228346
20
1.2576771653543306
11
0.3582847637795276
21
1.2577520866141731
0
LINE
8
BLACK
6
CONTINUOUS
10
0.3582847637795276
20
1.2577520866141731
11
0.3577520866141732
21
1.2582847637795276
0
LINE
8
BLACK
6
CONTINUOUS
10
0.3577520866141732
20
1.2582847637795276
11
0.3576771653543307
21
1.2586614173228345
0
LINE
8
BLACK
6
CONTINUOUS
10
0.3576771653543307
20
1.2586614173228345
11
0.3576771653543307
21
1.3161417322834645
0
LINE
8
BLACK
6
CONTINUOUS
10
0.3576771653543307
20
1.3161417322834645
11
0.3577520866141732
21
1.3165183858267717
0
LINE
8
BLACK
6
CONTINUOUS
10
0.3577520866141732
20
1.3165183858267717
11
0.3582847637795276
21
1.3170510629921259
0
LINE
8
BLACK
6
CONTINUOUS
10
0.3582847637795276
20
1.3170510629921259
11
0.3586614173228346
21
1.3171259842519685
0
LINE
8
BLACK
6
CONTINUOUS
10
0.3586614173228346
20
1.3171259842519685
11
0.4751968503937008
21
1.3171259842519685
0
LINE
8
BLACK
6
CONTINUOUS
10
0.4751968503937008
20
1.3171259842519685
11
0.4755735039370079
21
1.3170510629921259
0
LINE
8
BLACK
6
CONTINUOUS
10
0.3596456692913386
20
1.3151574803149606
11
0.3596456692913386
21
1.2596456692913385
0
LINE
8
BLACK
6
CONTINUOUS
10
0.3596456692913386
20
1.2596456692913385
11
0.4742125984251969
21
1.2596456692913385
0
LINE
8
BLACK
6
CONTINUOUS
10
0.4742125984251969
20
1.2596456692913385
11
0.4742125984251969
21
1.3151574803149606
0
LINE
8
BLACK
6
CONTINUOUS
10
0.4742125984251969
20
1.3151574803149606
11
0.3596456692913386
21
1.3151574803149606
0
LINE
8
BLACK
6
CONTINUOUS
10
0.2637624803149606
20
1.4721691732283464
11
0.264295157480315
21
1.4716364960629922
0
LINE
8
BLACK
6
CONTINUOUS
10
0.264295157480315
20
1.4716364960629922
11
0.2643700787401575
21
1.471259842519685
0
LINE
8
BLACK
6
CONTINUOUS
10
0.2643700787401575
20
1.471259842519685
11
0.2643700787401575
21
1.4316929133858267
0
LINE
8
BLACK
6
CONTINUOUS
10
0.2643700787401575
20
1.4316929133858267
11
0.2931102362204724
21
1.4316929133858267
0
LINE
8
BLACK
6
CONTINUOUS
10
0.2931102362204724
20
1.4316929133858267
11
0.2931102362204724
21
1.471259842519685
0
LINE
8
BLACK
6
CONTINUOUS
10
0.2931102362204724
20
1.471259842519685
11
0.2931851574803149
21
1.4716364960629922
0
LINE
8
BLACK
6
CONTINUOUS
10
0.2931851574803149
20
1.4716364960629922
11
0.2937178346456693
21
1.4721691732283464
0
LINE
8
BLACK
6
CONTINUOUS
10
0.2937178346456693
20
1.4721691732283464
11
0.2940944881889764
21
1.4722440944881889
0
LINE
8
BLACK
6
CONTINUOUS
10
0.2940944881889764
20
1.4722440944881889
11
0.3377952755905512
21
1.4722440944881889
0
LINE
8
BLACK
6
CONTINUOUS
10
0.3377952755905512
20
1.4722440944881889
11
0.3381719291338582
21
1.4721691732283464
0
LINE
8
BLACK
6
CONTINUOUS
10
0.3381719291338582
20
1.4721691732283464
11
0.3387046062992126
21
1.4716364960629922
0
LINE
8
BLACK
6
CONTINUOUS
10
0.3387046062992126
20
1.4716364960629922
11
0.3387795275590551
21
1.471259842519685
0
LINE
8
BLACK
6
CONTINUOUS
10
0.3387795275590551
20
1.471259842519685
11
0.3387795275590551
21
1.4316929133858267
0
LINE
8
BLACK
6
CONTINUOUS
10
0.3387795275590551
20
1.4316929133858267
11
0.3456692913385827
21
1.4316929133858267
0
LINE
8
BLACK
6
CONTINUOUS
10
0.3456692913385827
20
1.4316929133858267
11
0.3460459448818898
21
1.4316179921259842
0
LINE
8
BLACK
6
CONTINUOUS
10
0.3460459448818898
20
1.4316179921259842
11
0.3465786220472441
21
1.43108531496063
0
LINE
8
BLACK
6
CONTINUOUS
10
0.3465786220472441
20
1.43108531496063
11
0.3466535433070866
21
1.4307086614173228
0
LINE
8
BLACK
6
CONTINUOUS
10
0.3466535433070866
20
1.4307086614173228
11
0.3466535433070866
21
1.3598425196850394
0
LINE
8
BLACK
6
CONTINUOUS
10
0.3466535433070866
20
1.3598425196850394
11
0.3465786220472441
21
1.3594658661417323
0
LINE
8
BLACK
6
CONTINUOUS
10
0.3465786220472441
20
1.3594658661417323
11
0.3460459448818898
21
1.3589331889763778
0
LINE
8
BLACK
6
CONTINUOUS
10
0.3460459448818898
20
1.3589331889763778
11
0.3456692913385827
21
1.3588582677165355
0
LINE
8
BLACK
6
CONTINUOUS
10
0.3456692913385827
20
1.3588582677165355
11
0.3013779527559055
21
1.3588582677165355
0
LINE
8
BLACK
6
CONTINUOUS
10
0.3013779527559055
20
1.3588582677165355
11
0.3013779527559055
21
1.3192913385826772
0
LINE
8
BLACK
6
CONTINUOUS
10
0.3013779527559055
20
1.3192913385826772
11
0.301303031496063
21
1.31891468503937
0
LINE
8
BLACK
6
CONTINUOUS
10
0.301303031496063
20
1.31891468503937
11
0.3007703543307086
21
1.3183820078740158
0
LINE
8
BLACK
6
CONTINUOUS
10
0.3007703543307086
20
1.3183820078740158
11
0.3003937007874016
21
1.3183070866141733
0
LINE
8
BLACK
6
CONTINUOUS
10
0.3003937007874016
20
1.3183070866141733
11
0.2570866141732284
21
1.3183070866141733
0
LINE
8
BLACK
6
CONTINUOUS
10
0.2570866141732284
20
1.3183070866141733
11
0.2567099606299212
21
1.3183820078740158
0
LINE
8
BLACK
6
CONTINUOUS
10
0.2567099606299212
20
1.3183820078740158
11
0.2561772834645669
21
1.31891468503937
0
LINE
8
BLACK
6
CONTINUOUS
10
0.2561772834645669
20
1.31891468503937
11
0.2561023622047244
21
1.3192913385826772
0
LINE
8
BLACK
6
CONTINUOUS
10
0.2561023622047244
20
1.3192913385826772
11
0.2561023622047244
21
1.3588582677165355
0
LINE
8
BLACK
6
CONTINUOUS
10
0.2561023622047244
20
1.3588582677165355
11
0.2118110236220472
21
1.3588582677165355
0
LINE
8
BLACK
6
CONTINUOUS
10
0.2118110236220472
20
1.3588582677165355
11
0.2114343700787402
21
1.3589331889763778
0
LINE
8
BLACK
6
CONTINUOUS
10
0.2114343700787402
20
1.3589331889763778
11
0.2109016929133858
21
1.3594658661417323
0
LINE
8
BLACK
6
CONTINUOUS
10
0.2109016929133858
20
1.3594658661417323
11
0.2108267716535433
21
1.3598425196850394
0
LINE
8
BLACK
6
CONTINUOUS
10
0.2108267716535433
20
1.3598425196850394
11
0.2108267716535433
21
1.4307086614173228
0
LINE
8
BLACK
6
CONTINUOUS
10
0.2108267716535433
20
1.4307086614173228
11
0.2109016929133858
21
1.43108531496063
0
LINE
8
BLACK
6
CONTINUOUS
10
0.2109016929133858
20
1.43108531496063
11
0.2114343700787402
21
1.4316179921259842
0
LINE
8
BLACK
6
CONTINUOUS
10
0.2114343700787402
20
1.4316179921259842
11
0.2118110236220472
21
1.4316929133858267
0
LINE
8
BLACK
6
CONTINUOUS
10
0.2118110236220472
20
1.4316929133858267
11
0.2187007874015748
21
1.4316929133858267
0
LINE
8
BLACK
6
CONTINUOUS
10
0.2187007874015748
20
1.4316929133858267
11
0.2187007874015748
21
1.471259842519685
0
LINE
8
BLACK
6
CONTINUOUS
10
0.2187007874015748
20
1.471259842519685
11
0.2187757086614173
21
1.4716364960629922
0
LINE
8
BLACK
6
CONTINUOUS
10
0.2187757086614173
20
1.4716364960629922
11
0.2193083858267716
21
1.4721691732283464
0
LINE
8
BLACK
6
CONTINUOUS
10
0.2193083858267716
20
1.4721691732283464
11
0.2196850393700787
21
1.4722440944881889
0
LINE
8
BLACK
6
CONTINUOUS
10
0.2196850393700787
20
1.4722440944881889
11
0.2633858267716536
21
1.4722440944881889
0
LINE
8
BLACK
6
CONTINUOUS
10
0.2633858267716536
20
1.4722440944881889
11
0.2637624803149606
21
1.4721691732283464
0
LINE
8
BLACK
6
CONTINUOUS
10
0.2206692913385827
20
1.4702755905511811
11
0.2206692913385827
21
1.4307086614173228
0
LINE
8
BLACK
6
CONTINUOUS
10
0.2206692913385827
20
1.4307086614173228
11
0.2205943700787402
21
1.4303320078740158
0
LINE
8
BLACK
6
CONTINUOUS
10
0.2205943700787402
20
1.4303320078740158
11
0.2200616929133858
21
1.4297993307086614
0
LINE
8
BLACK
6
CONTINUOUS
10
0.2200616929133858
20
1.4297993307086614
11
0.2196850393700787
21
1.4297244094488188
0
LINE
8
BLACK
6
CONTINUOUS
10
0.2196850393700787
20
1.4297244094488188
11
0.2127952755905512
21
1.4297244094488188
0
LINE
8
BLACK
6
CONTINUOUS
10
0.2127952755905512
20
1.4297244094488188
11
0.2127952755905512
21
1.3608267716535434
0
LINE
8
BLACK
6
CONTINUOUS
10
0.2127952755905512
20
1.3608267716535434
11
0.2570866141732284
21
1.3608267716535434
0
LINE
8
BLACK
6
CONTINUOUS
10
0.2570866141732284
20
1.3608267716535434
11
0.2574632677165354
21
1.3607518503937008
0
LINE
8
BLACK
6
CONTINUOUS
10
0.2574632677165354
20
1.3607518503937008
11
0.2579959448818898
21
1.3602191732283464
0
LINE
8
BLACK
6
CONTINUOUS
10
0.2579959448818898
20
1.3602191732283464
11
0.2580708661417323
21
1.3598425196850394
0
LINE
8
BLACK
6
CONTINUOUS
10
0.2580708661417323
20
1.3598425196850394
11
0.2580708661417323
21
1.3202755905511812
0
LINE
8
BLACK
6
CONTINUOUS
10
0.2580708661417323
20
1.3202755905511812
11
0.2994094488188976
21
1.3202755905511812
0
LINE
8
BLACK
6
CONTINUOUS
10
0.2994094488188976
20
1.3202755905511812
11
0.2994094488188976
21
1.3598425196850394
0
LINE
8
BLACK
6
CONTINUOUS
10
0.2994094488188976
20
1.3598425196850394
11
0.2994843700787401
21
1.3602191732283464
0
LINE
8
BLACK
6
CONTINUOUS
10
0.2994843700787401
20
1.3602191732283464
11
0.3000170472440945
21
1.3607518503937008
0
LINE
8
BLACK
6
CONTINUOUS
10
0.3000170472440945
20
1.3607518503937008
11
0.3003937007874016
21
1.3608267716535434
0
LINE
8
BLACK
6
CONTINUOUS
10
0.3003937007874016
20
1.3608267716535434
11
0.3446850393700787
21
1.3608267716535434
0
LINE
8
BLACK
6
CONTINUOUS
10
0.3446850393700787
20
1.3608267716535434
11
0.3446850393700787
21
1.4297244094488188
0
LINE
8
BLACK
6
CONTINUOUS
10
0.3446850393700787
20
1.4297244094488188
11
0.3377952755905512
21
1.4297244094488188
0
LINE
8
BLACK
6
CONTINUOUS
10
0.3377952755905512
20
1.4297244094488188
11
0.3374186220472441
21
1.4297993307086614
0
LINE
8
BLACK
6
CONTINUOUS
10
0.3374186220472441
20
1.4297993307086614
11
0.3368859448818898
21
1.4303320078740158
0
LINE
8
BLACK
6
CONTINUOUS
10
0.3368859448818898
20
1.4303320078740158
11
0.3368110236220472
21
1.4307086614173228
0
LINE
8
BLACK
6
CONTINUOUS
10
0.3368110236220472
20
1.4307086614173228
11
0.3368110236220472
21
1.4702755905511811
0
LINE
8
BLACK
6
CONTINUOUS
10
0.3368110236220472
20
1.4702755905511811
11
0.2950787401574803
21
1.4702755905511811
0
LINE
8
BLACK
6
CONTINUOUS
10
0.2950787401574803
20
1.4702755905511811
11
0.2950787401574803
21
1.4307086614173228
0
LINE
8
BLACK
6
CONTINUOUS
10
0.2950787401574803
20
1.4307086614173228
11
0.2950038188976378
21
1.4303320078740158
0
LINE
8
BLACK
6
CONTINUOUS
10
0.2950038188976378
20
1.4303320078740158
11
0.2944711417322834
21
1.4297993307086614
0
LINE
8
BLACK
6
CONTINUOUS
10
0.2944711417322834
20
1.4297993307086614
11
0.2940944881889764
21
1.4297244094488188
0
LINE
8
BLACK
6
CONTINUOUS
10
0.2940944881889764
20
1.4297244094488188
11
0.2633858267716536
21
1.4297244094488188
0
LINE
8
BLACK
6
CONTINUOUS
10
0.2633858267716536
20
1.4297244094488188
11
0.2630091732283464
21
1.4297993307086614
0
LINE
8
BLACK
6
CONTINUOUS
10
0.2630091732283464
20
1.4297993307086614
11
0.2624764960629921
21
1.4303320078740158
0
LINE
8
BLACK
6
CONTINUOUS
10
0.2624764960629921
20
1.4303320078740158
11
0.2624015748031496
21
1.4307086614173228
0
LINE
8
BLACK
6
CONTINUOUS
10
0.2624015748031496
20
1.4307086614173228
11
0.2624015748031496
21
1.4702755905511811
0
LINE
8
BLACK
6
CONTINUOUS
10
0.2624015748031496
20
1.4702755905511811
11
0.2206692913385827
21
1.4702755905511811
0
LINE
8
BLACK
6
CONTINUOUS
10
0.2637624803149606
20
1.556814842519685
11
0.264295157480315
21
1.5562821653543306
0
LINE
8
BLACK
6
CONTINUOUS
10
0.264295157480315
20
1.5562821653543306
11
0.2643700787401575
21
1.5559055118110237
0
LINE
8
BLACK
6
CONTINUOUS
10
0.2643700787401575
20
1.5559055118110237
11
0.2643700787401575
21
1.4984251968503937
0
LINE
8
BLACK
6
CONTINUOUS
10
0.2643700787401575
20
1.4984251968503937
11
0.264295157480315
21
1.4980485433070865
0
LINE
8
BLACK
6
CONTINUOUS
10
0.264295157480315
20
1.4980485433070865
11
0.2637624803149606
21
1.4975158661417323
0
LINE
8
BLACK
6
CONTINUOUS
10
0.2637624803149606
20
1.4975158661417323
11
0.2633858267716536
21
1.4974409448818897
0
LINE
8
BLACK
6
CONTINUOUS
10
0.2633858267716536
20
1.4974409448818897
11
0.1468503937007874
21
1.4974409448818897
0
LINE
8
BLACK
6
CONTINUOUS
10
0.1468503937007874
20
1.4974409448818897
11
0.1464737401574803
21
1.4975158661417323
0
LINE
8
BLACK
6
CONTINUOUS
10
0.1464737401574803
20
1.4975158661417323
11
0.145941062992126
21
1.4980485433070865
0
LINE
8
BLACK
6
CONTINUOUS
10
0.145941062992126
20
1.4980485433070865
11
0.1458661417322835
21
1.4984251968503937
0
LINE
8
BLACK
6
CONTINUOUS
10
0.1458661417322835
20
1.4984251968503937
11
0.1458661417322835
21
1.5559055118110237
0
LINE
8
BLACK
6
CONTINUOUS
10
0.1458661417322835
20
1.5559055118110237
11
0.145941062992126
21
1.5562821653543306
0
LINE
8
BLACK
6
CONTINUOUS
10
0.145941062992126
20
1.5562821653543306
11
0.1464737401574803
21
1.556814842519685
0
LINE
8
BLACK
6
CONTINUOUS
10
0.1464737401574803
20
1.556814842519685
11
0.1468503937007874
21
1.5568897637795276
0
LINE
8
BLACK
6
CONTINUOUS
10
0.1468503937007874
20
1.5568897637795276
11
0.2633858267716536
21
1.5568897637795276
0
LINE
8
BLACK
6
CONTINUOUS
10
0.2633858267716536
20
1.5568897637795276
11
0.2637624803149606
21
1.556814842519685
0
LINE
8
BLACK
6
CONTINUOUS
10
0.1478346456692913
20
1.5549212598425197
11
0.1478346456692913
21
1.4994094488188976
0
LINE
8
BLACK
6
CONTINUOUS
10
0.1478346456692913
20
1.4994094488188976
11
0.2624015748031496
21
1.4994094488188976
0
LINE
8
BLACK
6
CONTINUOUS
10
0.2624015748031496
20
1.4994094488188976
11
0.2624015748031496
21
1.5549212598425197
0
LINE
8
BLACK
6
CONTINUOUS
10
0.2624015748031496
20
1.5549212598425197
11
0.1478346456692913
21
1.5549212598425197
0
LINE
8
BLACK
6
CONTINUOUS
10
0.3858097244094488
20
1.556814842519685
11
0.3863424015748032
21
1.5562821653543306
0
LINE
8
BLACK
6
CONTINUOUS
10
0.3863424015748032
20
1.5562821653543306
11
0.3864173228346456
21
1.5559055118110237
0
LINE
8
BLACK
6
CONTINUOUS
10
0.3864173228346456
20
1.5559055118110237
11
0.3864173228346456
21
1.4984251968503937
0
LINE
8
BLACK
6
CONTINUOUS
10
0.3864173228346456
20
1.4984251968503937
11
0.3863424015748032
21
1.4980485433070865
0
LINE
8
BLACK
6
CONTINUOUS
10
0.3863424015748032
20
1.4980485433070865
11
0.3858097244094488
21
1.4975158661417323
0
LINE
8
BLACK
6
CONTINUOUS
10
0.3858097244094488
20
1.4975158661417323
11
0.3854330708661417
21
1.4974409448818897
0
LINE
8
BLACK
6
CONTINUOUS
10
0.3854330708661417
20
1.4974409448818897
11
0.2688976377952756
21
1.4974409448818897
0
LINE
8
BLACK
6
CONTINUOUS
10
0.2688976377952756
20
1.4974409448818897
11
0.2685209842519685
21
1.4975158661417323
0
LINE
8
BLACK
6
CONTINUOUS
10
0.2685209842519685
20
1.4975158661417323
11
0.2679883070866141
21
1.4980485433070865
0
LINE
8
BLACK
6
CONTINUOUS
10
0.2679883070866141
20
1.4980485433070865
11
0.2679133858267717
21
1.4984251968503937
0
LINE
8
BLACK
6
CONTINUOUS
10
0.2679133858267717
20
1.4984251968503937
11
0.2679133858267717
21
1.5559055118110237
0
LINE
8
BLACK
6
CONTINUOUS
10
0.2679133858267717
20
1.5559055118110237
11
0.2679883070866141
21
1.5562821653543306
0
LINE
8
BLACK
6
CONTINUOUS
10
0.2679883070866141
20
1.5562821653543306
11
0.2685209842519685
21
1.556814842519685
0
LINE
8
BLACK
6
CONTINUOUS
10
0.2685209842519685
20
1.556814842519685
11
0.2688976377952756
21
1.5568897637795276
0
LINE
8
BLACK
6
CONTINUOUS
10
0.2688976377952756
20
1.5568897637795276
11
0.3854330708661417
21
1.5568897637795276
0
LINE
8
BLACK
6
CONTINUOUS
10
0.3854330708661417
20
1.5568897637795276
11
0.3858097244094488
21
1.556814842519685
0
LINE
8
BLACK
6
CONTINUOUS
10
0.2698818897637795
20
1.5549212598425197
11
0.2698818897637795
21
1.4994094488188976
0
LINE
8
BLACK
6
CONTINUOUS
10
0.2698818897637795
20
1.4994094488188976
11
0.3844488188976378
21
1.4994094488188976
0
LINE
8
BLACK
6
CONTINUOUS
10
0.3844488188976378
20
1.4994094488188976
11
0.3844488188976378
21
1.5549212598425197
0
LINE
8
BLACK
6
CONTINUOUS
10
0.3844488188976378
20
1.5549212598425197
11
0.2698818897637795
21
1.5549212598425197
0
CIRCLE
8
BLACK
10
0.
20
1.9775590551181101
40
0.0068897637795276
0
CIRCLE
8
BLACK
10
1.2
20
0.0031496062992126
40
0.0068897637795276
0
CIRCLE
8
BLACK
10
0.
20
0.0031496062992126
40
0.0068897637795276
0
CIRCLE
8
BLACK
10
1.2
20
1.9775590551181101
40
0.0068897637795276
0
CIRCLE
8
BLACK
10
0.889763779527559
20
2.0283464566929132
40
0.0068897637795276
0
CIRCLE
8
BLACK
10
0.889763779527559
20
1.9283464566929134
40
0.0068897637795276
0
CIRCLE
8
BLACK
10
0.7897637795275591
20
2.0283464566929132
40
0.0068897637795276
0
CIRCLE
8
BLACK
10
0.7897637795275591
20
1.9283464566929134
40
0.0068897637795276
0
CIRCLE
8
BLACK
10
0.6897637795275591
20
2.0283464566929132
40
0.0068897637795276
0
CIRCLE
8
BLACK
10
0.6897637795275591
20
1.9283464566929134
40
0.0068897637795276
0
CIRCLE
8
BLACK
10
0.5897637795275591
20
2.0283464566929132
40
0.0068897637795276
0
CIRCLE
8
BLACK
10
0.5897637795275591
20
1.9283464566929134
40
0.0068897637795276
0
CIRCLE
8
BLACK
10
0.4897637795275591
20
2.0283464566929132
40
0.0068897637795276
0
CIRCLE
8
BLACK
10
0.4897637795275591
20
1.9283464566929134
40
0.0068897637795276
0
CIRCLE
8
BLACK
10
0.389763779527559
20
2.0283464566929132
40
0.0068897637795276
0
CIRCLE
8
BLACK
10
0.389763779527559
20
1.9283464566929134
40
0.0068897637795276
0
CIRCLE
8
BLACK
10
0.2897637795275591
20
2.0283464566929132
40
0.0068897637795276
0
CIRCLE
8
BLACK
10
0.2897637795275591
20
1.9283464566929134
40
0.0068897637795276
0
CIRCLE
8
BLACK
10
0.
20
1.9775590551181101
40
0.0068897637795276
0
CIRCLE
8
BLACK
10
1.2
20
0.0031496062992126
40
0.0068897637795276
0
CIRCLE
8
BLACK
10
0.
20
0.0031496062992126
40
0.0068897637795276
0
CIRCLE
8
BLACK
10
1.2
20
1.9775590551181101
40
0.0068897637795276
0
CIRCLE
8
BLACK
10
0.889763779527559
20
2.0283464566929132
40
0.0068897637795276
0
CIRCLE
8
BLACK
10
0.889763779527559
20
1.9283464566929134
40
0.0068897637795276
0
CIRCLE
8
BLACK
10
0.7897637795275591
20
2.0283464566929132
40
0.0068897637795276
0
CIRCLE
8
BLACK
10
0.7897637795275591
20
1.9283464566929134
40
0.0068897637795276
0
CIRCLE
8
BLACK
10
0.6897637795275591
20
2.0283464566929132
40
0.0068897637795276
0
CIRCLE
8
BLACK
10
0.6897637795275591
20
1.9283464566929134
40
0.0068897637795276
0
CIRCLE
8
BLACK
10
0.5897637795275591
20
2.0283464566929132
40
0.0068897637795276
0
CIRCLE
8
BLACK
10
0.5897637795275591
20
1.9283464566929134
40
0.0068897637795276
0
CIRCLE
8
BLACK
10
0.4897637795275591
20
2.0283464566929132
40
0.0068897637795276
0
CIRCLE
8
BLACK
10
0.4897637795275591
20
1.9283464566929134
40
0.0068897637795276
0
CIRCLE
8
BLACK
10
0.389763779527559
20
2.0283464566929132
40
0.0068897637795276
0
CIRCLE
8
BLACK
10
0.389763779527559
20
1.9283464566929134
40
0.0068897637795276
0
CIRCLE
8
BLACK
10
0.2897637795275591
20
2.0283464566929132
40
0.0068897637795276
0
CIRCLE
8
BLACK
10
0.2897637795275591
20
1.9283464566929134
40
0.0068897637795276
  0
ENDSEC
  0
EOF
