  0
SECTION
  2
HEADER
  9
$ANGBASE
  50
0.0
  9
$ANGDIR
  70
1
  9
$MEASUREMENT
  70
0
  0
ENDSEC
  0
SECTION
  2
TABLES
  0
TABLE
  2
LTYPE
  70
4
  0
LTYPE
  5
40F
  2
CONTINUOUS
  70
0
  3
Solid line
  72
65
  73
0
  40
0.0
  0
LTYPE
  5
410
  2
DASHDOT
 70
0
  3
Dash Dot ____ _ ____ _
 72
65
 73
4
 40
2.0
 49
1.25
 49
-0.25
 49
0.25
 49
-0.25
  0
LTYPE
  5
411
  2
DASHED
 70
0
  3
Dashed __ __ __ __ __
 72
65
 73
2
 40
0.75
 49
0.5
 49
-0.25
  0
LTYPE
  5
43B
  2
DOTTED
 70
0
  3
Dotted .  .  .  .
 72
65
 73
2
 40
0.2
 49
0.0
 49
-0.2
  0
ENDTAB
  0
TABLE
  2
STYLE
  70
4
  0
STYLE
  2
KICAD
  70
0
  40
0
  41
1
  42
1
  50
0
  71
0
  3
isocp.shx
  0
STYLE
  2
KICADB
  70
0
  40
0
  41
1
  42
1
  50
0
  71
0
  3
isocp.shx
  0
STYLE
  2
KICADI
  70
0
  40
0
  41
1
  42
1
  50
15
  71
0
  3
isocp.shx
  0
STYLE
  2
KICADBI
  70
0
  40
0
  41
1
  42
1
  50
15
  71
0
  3
isocp.shx
  0
ENDTAB
  0
TABLE
  2
LAYER
  70
1
  0
LAYER
  2
BLACK
  70
0
  62
7
  6
CONTINUOUS
  0
ENDTAB
  0
ENDSEC
  0
SECTION
  2
ENTITIES
0
LINE
8
BLACK
6
CONTINUOUS
10
0.5145669291338583
20
0.284251968503937
11
0.4988188976377952
21
0.284251968503937
0
LINE
8
BLACK
6
CONTINUOUS
10
0.4988188976377952
20
0.284251968503937
11
0.4988188976377952
21
0.3511811023622047
0
LINE
8
BLACK
6
CONTINUOUS
10
0.4988188976377952
20
0.3511811023622047
11
0.5145669291338583
21
0.3511811023622047
0
LINE
8
BLACK
6
CONTINUOUS
10
0.5145669291338583
20
0.3511811023622047
11
0.5145669291338583
21
0.284251968503937
0
LINE
8
BLACK
6
CONTINUOUS
10
0.705511811023622
20
0.284251968503937
11
0.6897637795275591
21
0.284251968503937
0
LINE
8
BLACK
6
CONTINUOUS
10
0.6897637795275591
20
0.284251968503937
11
0.6897637795275591
21
0.3511811023622047
0
LINE
8
BLACK
6
CONTINUOUS
10
0.6897637795275591
20
0.3511811023622047
11
0.705511811023622
21
0.3511811023622047
0
LINE
8
BLACK
6
CONTINUOUS
10
0.705511811023622
20
0.3511811023622047
11
0.705511811023622
21
0.284251968503937
0
LINE
8
BLACK
6
CONTINUOUS
10
0.5362204724409448
20
0.3570866141732283
11
0.5263779527559055
21
0.3570866141732283
0
LINE
8
BLACK
6
CONTINUOUS
10
0.5263779527559055
20
0.3570866141732283
11
0.5263779527559055
21
0.3807086614173228
0
LINE
8
BLACK
6
CONTINUOUS
10
0.5263779527559055
20
0.3807086614173228
11
0.5362204724409448
21
0.3807086614173228
0
LINE
8
BLACK
6
CONTINUOUS
10
0.5362204724409448
20
0.3807086614173228
11
0.5362204724409448
21
0.3570866141732283
0
LINE
8
BLACK
6
CONTINUOUS
10
0.5519685039370079
20
0.3570866141732283
11
0.5421259842519685
21
0.3570866141732283
0
LINE
8
BLACK
6
CONTINUOUS
10
0.5421259842519685
20
0.3570866141732283
11
0.5421259842519685
21
0.3807086614173228
0
LINE
8
BLACK
6
CONTINUOUS
10
0.5421259842519685
20
0.3807086614173228
11
0.5519685039370079
21
0.3807086614173228
0
LINE
8
BLACK
6
CONTINUOUS
10
0.5519685039370079
20
0.3807086614173228
11
0.5519685039370079
21
0.3570866141732283
0
LINE
8
BLACK
6
CONTINUOUS
10
0.5677165354330709
20
0.3570866141732283
11
0.5578740157480315
21
0.3570866141732283
0
LINE
8
BLACK
6
CONTINUOUS
10
0.5578740157480315
20
0.3570866141732283
11
0.5578740157480315
21
0.3807086614173228
0
LINE
8
BLACK
6
CONTINUOUS
10
0.5578740157480315
20
0.3807086614173228
11
0.5677165354330709
21
0.3807086614173228
0
LINE
8
BLACK
6
CONTINUOUS
10
0.5677165354330709
20
0.3807086614173228
11
0.5677165354330709
21
0.3570866141732283
0
LINE
8
BLACK
6
CONTINUOUS
10
0.5834645669291338
20
0.3570866141732283
11
0.5736220472440945
21
0.3570866141732283
0
LINE
8
BLACK
6
CONTINUOUS
10
0.5736220472440945
20
0.3570866141732283
11
0.5736220472440945
21
0.3807086614173228
0
LINE
8
BLACK
6
CONTINUOUS
10
0.5736220472440945
20
0.3807086614173228
11
0.5834645669291338
21
0.3807086614173228
0
LINE
8
BLACK
6
CONTINUOUS
10
0.5834645669291338
20
0.3807086614173228
11
0.5834645669291338
21
0.3570866141732283
0
LINE
8
BLACK
6
CONTINUOUS
10
0.5992125984251968
20
0.3570866141732283
11
0.5893700787401575
21
0.3570866141732283
0
LINE
8
BLACK
6
CONTINUOUS
10
0.5893700787401575
20
0.3570866141732283
11
0.5893700787401575
21
0.3807086614173228
0
LINE
8
BLACK
6
CONTINUOUS
10
0.5893700787401575
20
0.3807086614173228
11
0.5992125984251968
21
0.3807086614173228
0
LINE
8
BLACK
6
CONTINUOUS
10
0.5992125984251968
20
0.3807086614173228
11
0.5992125984251968
21
0.3570866141732283
0
LINE
8
BLACK
6
CONTINUOUS
10
0.6149606299212599
20
0.3570866141732283
11
0.6051181102362204
21
0.3570866141732283
0
LINE
8
BLACK
6
CONTINUOUS
10
0.6051181102362204
20
0.3570866141732283
11
0.6051181102362204
21
0.3807086614173228
0
LINE
8
BLACK
6
CONTINUOUS
10
0.6051181102362204
20
0.3807086614173228
11
0.6149606299212599
21
0.3807086614173228
0
LINE
8
BLACK
6
CONTINUOUS
10
0.6149606299212599
20
0.3807086614173228
11
0.6149606299212599
21
0.3570866141732283
0
LINE
8
BLACK
6
CONTINUOUS
10
0.6307086614173228
20
0.3570866141732283
11
0.6208661417322835
21
0.3570866141732283
0
LINE
8
BLACK
6
CONTINUOUS
10
0.6208661417322835
20
0.3570866141732283
11
0.6208661417322835
21
0.3807086614173228
0
LINE
8
BLACK
6
CONTINUOUS
10
0.6208661417322835
20
0.3807086614173228
11
0.6307086614173228
21
0.3807086614173228
0
LINE
8
BLACK
6
CONTINUOUS
10
0.6307086614173228
20
0.3807086614173228
11
0.6307086614173228
21
0.3570866141732283
0
LINE
8
BLACK
6
CONTINUOUS
10
0.6464566929133858
20
0.3570866141732283
11
0.6366141732283465
21
0.3570866141732283
0
LINE
8
BLACK
6
CONTINUOUS
10
0.6366141732283465
20
0.3570866141732283
11
0.6366141732283465
21
0.3807086614173228
0
LINE
8
BLACK
6
CONTINUOUS
10
0.6366141732283465
20
0.3807086614173228
11
0.6464566929133858
21
0.3807086614173228
0
LINE
8
BLACK
6
CONTINUOUS
10
0.6464566929133858
20
0.3807086614173228
11
0.6464566929133858
21
0.3570866141732283
0
LINE
8
BLACK
6
CONTINUOUS
10
0.6622047244094488
20
0.3570866141732283
11
0.6523622047244094
21
0.3570866141732283
0
LINE
8
BLACK
6
CONTINUOUS
10
0.6523622047244094
20
0.3570866141732283
11
0.6523622047244094
21
0.3807086614173228
0
LINE
8
BLACK
6
CONTINUOUS
10
0.6523622047244094
20
0.3807086614173228
11
0.6622047244094488
21
0.3807086614173228
0
LINE
8
BLACK
6
CONTINUOUS
10
0.6622047244094488
20
0.3807086614173228
11
0.6622047244094488
21
0.3570866141732283
0
LINE
8
BLACK
6
CONTINUOUS
10
0.6779527559055119
20
0.3570866141732283
11
0.6681102362204724
21
0.3570866141732283
0
LINE
8
BLACK
6
CONTINUOUS
10
0.6681102362204724
20
0.3570866141732283
11
0.6681102362204724
21
0.3807086614173228
0
LINE
8
BLACK
6
CONTINUOUS
10
0.6681102362204724
20
0.3807086614173228
11
0.6779527559055119
21
0.3807086614173228
0
LINE
8
BLACK
6
CONTINUOUS
10
0.6779527559055119
20
0.3807086614173228
11
0.6779527559055119
21
0.3570866141732283
0
LINE
8
BLACK
6
CONTINUOUS
10
0.7089017322834645
20
0.4971603543307087
11
0.7117755511811024
21
0.4952401181102362
0
LINE
8
BLACK
6
CONTINUOUS
10
0.7117755511811024
20
0.4952401181102362
11
0.7136957874015748
21
0.4923662992125984
0
LINE
8
BLACK
6
CONTINUOUS
10
0.7136957874015748
20
0.4923662992125984
11
0.7143700787401575
21
0.4889763779527559
0
LINE
8
BLACK
6
CONTINUOUS
10
0.7143700787401575
20
0.4889763779527559
11
0.7143700787401575
21
0.471259842519685
0
LINE
8
BLACK
6
CONTINUOUS
10
0.7143700787401575
20
0.471259842519685
11
0.7136957874015748
21
0.4678699212598425
0
LINE
8
BLACK
6
CONTINUOUS
10
0.7136957874015748
20
0.4678699212598425
11
0.7117755511811024
21
0.4649961023622047
0
LINE
8
BLACK
6
CONTINUOUS
10
0.7117755511811024
20
0.4649961023622047
11
0.7089017322834645
21
0.4630758661417323
0
LINE
8
BLACK
6
CONTINUOUS
10
0.7089017322834645
20
0.4630758661417323
11
0.705511811023622
21
0.4624015748031496
0
LINE
8
BLACK
6
CONTINUOUS
10
0.705511811023622
20
0.4624015748031496
11
0.6858267716535433
21
0.4624015748031496
0
LINE
8
BLACK
6
CONTINUOUS
10
0.6858267716535433
20
0.4624015748031496
11
0.6824368503937007
21
0.4630758661417323
0
LINE
8
BLACK
6
CONTINUOUS
10
0.6824368503937007
20
0.4630758661417323
11
0.679563031496063
21
0.4649961023622047
0
LINE
8
BLACK
6
CONTINUOUS
10
0.679563031496063
20
0.4649961023622047
11
0.6776427952755906
21
0.4678699212598425
0
LINE
8
BLACK
6
CONTINUOUS
10
0.6776427952755906
20
0.4678699212598425
11
0.6769685039370078
21
0.471259842519685
0
LINE
8
BLACK
6
CONTINUOUS
10
0.6769685039370078
20
0.471259842519685
11
0.6769685039370078
21
0.4889763779527559
0
LINE
8
BLACK
6
CONTINUOUS
10
0.6769685039370078
20
0.4889763779527559
11
0.6776427952755906
21
0.4923662992125984
0
LINE
8
BLACK
6
CONTINUOUS
10
0.6776427952755906
20
0.4923662992125984
11
0.679563031496063
21
0.4952401181102362
0
LINE
8
BLACK
6
CONTINUOUS
10
0.679563031496063
20
0.4952401181102362
11
0.6824368503937007
21
0.4971603543307087
0
LINE
8
BLACK
6
CONTINUOUS
10
0.6824368503937007
20
0.4971603543307087
11
0.6858267716535433
21
0.4978346456692913
0
LINE
8
BLACK
6
CONTINUOUS
10
0.6858267716535433
20
0.4978346456692913
11
0.705511811023622
21
0.4978346456692913
0
LINE
8
BLACK
6
CONTINUOUS
10
0.705511811023622
20
0.4978346456692913
11
0.7089017322834645
21
0.4971603543307087
0
LINE
8
BLACK
6
CONTINUOUS
10
0.7089017322834645
20
0.5581839763779527
11
0.7117755511811024
21
0.5562637401574803
0
LINE
8
BLACK
6
CONTINUOUS
10
0.7117755511811024
20
0.5562637401574803
11
0.7136957874015748
21
0.5533899212598425
0
LINE
8
BLACK
6
CONTINUOUS
10
0.7136957874015748
20
0.5533899212598425
11
0.7143700787401575
21
0.5499999999999999
0
LINE
8
BLACK
6
CONTINUOUS
10
0.7143700787401575
20
0.5499999999999999
11
0.7143700787401575
21
0.5322834645669291
0
LINE
8
BLACK
6
CONTINUOUS
10
0.7143700787401575
20
0.5322834645669291
11
0.7136957874015748
21
0.5288935433070866
0
LINE
8
BLACK
6
CONTINUOUS
10
0.7136957874015748
20
0.5288935433070866
11
0.7117755511811024
21
0.5260197244094488
0
LINE
8
BLACK
6
CONTINUOUS
10
0.7117755511811024
20
0.5260197244094488
11
0.7089017322834645
21
0.5240994881889763
0
LINE
8
BLACK
6
CONTINUOUS
10
0.7089017322834645
20
0.5240994881889763
11
0.705511811023622
21
0.5234251968503937
0
LINE
8
BLACK
6
CONTINUOUS
10
0.705511811023622
20
0.5234251968503937
11
0.6858267716535433
21
0.5234251968503937
0
LINE
8
BLACK
6
CONTINUOUS
10
0.6858267716535433
20
0.5234251968503937
11
0.6824368503937007
21
0.5240994881889763
0
LINE
8
BLACK
6
CONTINUOUS
10
0.6824368503937007
20
0.5240994881889763
11
0.679563031496063
21
0.5260197244094488
0
LINE
8
BLACK
6
CONTINUOUS
10
0.679563031496063
20
0.5260197244094488
11
0.6776427952755906
21
0.5288935433070866
0
LINE
8
BLACK
6
CONTINUOUS
10
0.6776427952755906
20
0.5288935433070866
11
0.6769685039370078
21
0.5322834645669291
0
LINE
8
BLACK
6
CONTINUOUS
10
0.6769685039370078
20
0.5322834645669291
11
0.6769685039370078
21
0.5499999999999999
0
LINE
8
BLACK
6
CONTINUOUS
10
0.6769685039370078
20
0.5499999999999999
11
0.6776427952755906
21
0.5533899212598425
0
LINE
8
BLACK
6
CONTINUOUS
10
0.6776427952755906
20
0.5533899212598425
11
0.679563031496063
21
0.5562637401574803
0
LINE
8
BLACK
6
CONTINUOUS
10
0.679563031496063
20
0.5562637401574803
11
0.6824368503937007
21
0.5581839763779527
0
LINE
8
BLACK
6
CONTINUOUS
10
0.6824368503937007
20
0.5581839763779527
11
0.6858267716535433
21
0.5588582677165355
0
LINE
8
BLACK
6
CONTINUOUS
10
0.6858267716535433
20
0.5588582677165355
11
0.705511811023622
21
0.5588582677165355
0
LINE
8
BLACK
6
CONTINUOUS
10
0.705511811023622
20
0.5588582677165355
11
0.7089017322834645
21
0.5581839763779527
0
LINE
8
BLACK
6
CONTINUOUS
10
0.1671694488188976
20
1.0058217716535434
11
0.1700432677165354
21
1.0039015354330709
0
LINE
8
BLACK
6
CONTINUOUS
10
0.1700432677165354
20
1.0039015354330709
11
0.1719635039370079
21
1.0010277165354331
0
LINE
8
BLACK
6
CONTINUOUS
10
0.1719635039370079
20
1.0010277165354331
11
0.1726377952755906
21
0.9976377952755905
0
LINE
8
BLACK
6
CONTINUOUS
10
0.1726377952755906
20
0.9976377952755905
11
0.1726377952755906
21
0.9799212598425197
0
LINE
8
BLACK
6
CONTINUOUS
10
0.1726377952755906
20
0.9799212598425197
11
0.1719635039370079
21
0.9765313385826772
0
LINE
8
BLACK
6
CONTINUOUS
10
0.1719635039370079
20
0.9765313385826772
11
0.1700432677165354
21
0.9736575196850393
0
LINE
8
BLACK
6
CONTINUOUS
10
0.1700432677165354
20
0.9736575196850393
11
0.1671694488188976
21
0.9717372834645669
0
LINE
8
BLACK
6
CONTINUOUS
10
0.1671694488188976
20
0.9717372834645669
11
0.1637795275590551
21
0.9710629921259842
0
LINE
8
BLACK
6
CONTINUOUS
10
0.1637795275590551
20
0.9710629921259842
11
0.1440944881889764
21
0.9710629921259842
0
LINE
8
BLACK
6
CONTINUOUS
10
0.1440944881889764
20
0.9710629921259842
11
0.1407045669291339
21
0.9717372834645669
0
LINE
8
BLACK
6
CONTINUOUS
10
0.1407045669291339
20
0.9717372834645669
11
0.1378307480314961
21
0.9736575196850393
0
LINE
8
BLACK
6
CONTINUOUS
10
0.1378307480314961
20
0.9736575196850393
11
0.1359105118110236
21
0.9765313385826772
0
LINE
8
BLACK
6
CONTINUOUS
10
0.1359105118110236
20
0.9765313385826772
11
0.1352362204724409
21
0.9799212598425197
0
LINE
8
BLACK
6
CONTINUOUS
10
0.1352362204724409
20
0.9799212598425197
11
0.1352362204724409
21
0.9976377952755905
0
LINE
8
BLACK
6
CONTINUOUS
10
0.1352362204724409
20
0.9976377952755905
11
0.1359105118110236
21
1.0010277165354331
0
LINE
8
BLACK
6
CONTINUOUS
10
0.1359105118110236
20
1.0010277165354331
11
0.1378307480314961
21
1.0039015354330709
0
LINE
8
BLACK
6
CONTINUOUS
10
0.1378307480314961
20
1.0039015354330709
11
0.1407045669291339
21
1.0058217716535434
0
LINE
8
BLACK
6
CONTINUOUS
10
0.1407045669291339
20
1.0058217716535434
11
0.1440944881889764
21
1.006496062992126
0
LINE
8
BLACK
6
CONTINUOUS
10
0.1440944881889764
20
1.006496062992126
11
0.1637795275590551
21
1.006496062992126
0
LINE
8
BLACK
6
CONTINUOUS
10
0.1637795275590551
20
1.006496062992126
11
0.1671694488188976
21
1.0058217716535434
0
LINE
8
BLACK
6
CONTINUOUS
10
0.2707298031496063
20
1.0102274015748032
11
0.2732842913385827
21
1.0085205118110236
0
LINE
8
BLACK
6
CONTINUOUS
10
0.2732842913385827
20
1.0085205118110236
11
0.2749911811023622
21
1.0059660236220471
0
LINE
8
BLACK
6
CONTINUOUS
10
0.2749911811023622
20
1.0059660236220471
11
0.2755905511811024
21
1.0029527559055118
0
LINE
8
BLACK
6
CONTINUOUS
10
0.2755905511811024
20
1.0029527559055118
11
0.2755905511811024
21
0.9812992125984251
0
LINE
8
BLACK
6
CONTINUOUS
10
0.2755905511811024
20
0.9812992125984251
11
0.2749911811023622
21
0.9782859448818897
0
LINE
8
BLACK
6
CONTINUOUS
10
0.2749911811023622
20
0.9782859448818897
11
0.2732842913385827
21
0.9757314566929134
0
LINE
8
BLACK
6
CONTINUOUS
10
0.2732842913385827
20
0.9757314566929134
11
0.2707298031496063
21
0.9740245669291339
0
LINE
8
BLACK
6
CONTINUOUS
10
0.2707298031496063
20
0.9740245669291339
11
0.2677165354330708
21
0.9734251968503936
0
LINE
8
BLACK
6
CONTINUOUS
10
0.2677165354330708
20
0.9734251968503936
11
0.2519685039370079
21
0.9734251968503936
0
LINE
8
BLACK
6
CONTINUOUS
10
0.2519685039370079
20
0.9734251968503936
11
0.2489552362204724
21
0.9740245669291339
0
LINE
8
BLACK
6
CONTINUOUS
10
0.2489552362204724
20
0.9740245669291339
11
0.2464007480314961
21
0.9757314566929134
0
LINE
8
BLACK
6
CONTINUOUS
10
0.2464007480314961
20
0.9757314566929134
11
0.2446938582677165
21
0.9782859448818897
0
LINE
8
BLACK
6
CONTINUOUS
10
0.2446938582677165
20
0.9782859448818897
11
0.2440944881889764
21
0.9812992125984251
0
LINE
8
BLACK
6
CONTINUOUS
10
0.2440944881889764
20
0.9812992125984251
11
0.2440944881889764
21
1.0029527559055118
0
LINE
8
BLACK
6
CONTINUOUS
10
0.2440944881889764
20
1.0029527559055118
11
0.2446938582677165
21
1.0059660236220471
0
LINE
8
BLACK
6
CONTINUOUS
10
0.2446938582677165
20
1.0059660236220471
11
0.2464007480314961
21
1.0085205118110236
0
LINE
8
BLACK
6
CONTINUOUS
10
0.2464007480314961
20
1.0085205118110236
11
0.2489552362204724
21
1.0102274015748032
0
LINE
8
BLACK
6
CONTINUOUS
10
0.2489552362204724
20
1.0102274015748032
11
0.2519685039370079
21
1.0108267716535433
0
LINE
8
BLACK
6
CONTINUOUS
10
0.2519685039370079
20
1.0108267716535433
11
0.2677165354330708
21
1.0108267716535433
0
LINE
8
BLACK
6
CONTINUOUS
10
0.2677165354330708
20
1.0108267716535433
11
0.2707298031496063
21
1.0102274015748032
0
LINE
8
BLACK
6
CONTINUOUS
10
0.3356904330708662
20
1.0102274015748032
11
0.3382449212598425
21
1.0085205118110236
0
LINE
8
BLACK
6
CONTINUOUS
10
0.3382449212598425
20
1.0085205118110236
11
0.339951811023622
21
1.0059660236220471
0
LINE
8
BLACK
6
CONTINUOUS
10
0.339951811023622
20
1.0059660236220471
11
0.3405511811023622
21
1.0029527559055118
0
LINE
8
BLACK
6
CONTINUOUS
10
0.3405511811023622
20
1.0029527559055118
11
0.3405511811023622
21
0.9812992125984251
0
LINE
8
BLACK
6
CONTINUOUS
10
0.3405511811023622
20
0.9812992125984251
11
0.339951811023622
21
0.9782859448818897
0
LINE
8
BLACK
6
CONTINUOUS
10
0.339951811023622
20
0.9782859448818897
11
0.3382449212598425
21
0.9757314566929134
0
LINE
8
BLACK
6
CONTINUOUS
10
0.3382449212598425
20
0.9757314566929134
11
0.3356904330708662
21
0.9740245669291339
0
LINE
8
BLACK
6
CONTINUOUS
10
0.3356904330708662
20
0.9740245669291339
11
0.3326771653543307
21
0.9734251968503936
0
LINE
8
BLACK
6
CONTINUOUS
10
0.3326771653543307
20
0.9734251968503936
11
0.3169291338582677
21
0.9734251968503936
0
LINE
8
BLACK
6
CONTINUOUS
10
0.3169291338582677
20
0.9734251968503936
11
0.3139158661417323
21
0.9740245669291339
0
LINE
8
BLACK
6
CONTINUOUS
10
0.3139158661417323
20
0.9740245669291339
11
0.3113613779527559
21
0.9757314566929134
0
LINE
8
BLACK
6
CONTINUOUS
10
0.3113613779527559
20
0.9757314566929134
11
0.3096544881889764
21
0.9782859448818897
0
LINE
8
BLACK
6
CONTINUOUS
10
0.3096544881889764
20
0.9782859448818897
11
0.3090551181102362
21
0.9812992125984251
0
LINE
8
BLACK
6
CONTINUOUS
10
0.3090551181102362
20
0.9812992125984251
11
0.3090551181102362
21
1.0029527559055118
0
LINE
8
BLACK
6
CONTINUOUS
10
0.3090551181102362
20
1.0029527559055118
11
0.3096544881889764
21
1.0059660236220471
0
LINE
8
BLACK
6
CONTINUOUS
10
0.3096544881889764
20
1.0059660236220471
11
0.3113613779527559
21
1.0085205118110236
0
LINE
8
BLACK
6
CONTINUOUS
10
0.3113613779527559
20
1.0085205118110236
11
0.3139158661417323
21
1.0102274015748032
0
LINE
8
BLACK
6
CONTINUOUS
10
0.3139158661417323
20
1.0102274015748032
11
0.3169291338582677
21
1.0108267716535433
0
LINE
8
BLACK
6
CONTINUOUS
10
0.3169291338582677
20
1.0108267716535433
11
0.3326771653543307
21
1.0108267716535433
0
LINE
8
BLACK
6
CONTINUOUS
10
0.3326771653543307
20
1.0108267716535433
11
0.3356904330708662
21
1.0102274015748032
0
LINE
8
BLACK
6
CONTINUOUS
10
0.1671694488188976
20
1.0668453937007873
11
0.1700432677165354
21
1.0649251574803149
0
LINE
8
BLACK
6
CONTINUOUS
10
0.1700432677165354
20
1.0649251574803149
11
0.1719635039370079
21
1.0620513385826771
0
LINE
8
BLACK
6
CONTINUOUS
10
0.1719635039370079
20
1.0620513385826771
11
0.1726377952755906
21
1.0586614173228346
0
LINE
8
BLACK
6
CONTINUOUS
10
0.1726377952755906
20
1.0586614173228346
11
0.1726377952755906
21
1.0409448818897638
0
LINE
8
BLACK
6
CONTINUOUS
10
0.1726377952755906
20
1.0409448818897638
11
0.1719635039370079
21
1.0375549606299213
0
LINE
8
BLACK
6
CONTINUOUS
10
0.1719635039370079
20
1.0375549606299213
11
0.1700432677165354
21
1.0346811417322834
0
LINE
8
BLACK
6
CONTINUOUS
10
0.1700432677165354
20
1.0346811417322834
11
0.1671694488188976
21
1.032760905511811
0
LINE
8
BLACK
6
CONTINUOUS
10
0.1671694488188976
20
1.032760905511811
11
0.1637795275590551
21
1.0320866141732283
0
LINE
8
BLACK
6
CONTINUOUS
10
0.1637795275590551
20
1.0320866141732283
11
0.1440944881889764
21
1.0320866141732283
0
LINE
8
BLACK
6
CONTINUOUS
10
0.1440944881889764
20
1.0320866141732283
11
0.1407045669291339
21
1.032760905511811
0
LINE
8
BLACK
6
CONTINUOUS
10
0.1407045669291339
20
1.032760905511811
11
0.1378307480314961
21
1.0346811417322834
0
LINE
8
BLACK
6
CONTINUOUS
10
0.1378307480314961
20
1.0346811417322834
11
0.1359105118110236
21
1.0375549606299213
0
LINE
8
BLACK
6
CONTINUOUS
10
0.1359105118110236
20
1.0375549606299213
11
0.1352362204724409
21
1.0409448818897638
0
LINE
8
BLACK
6
CONTINUOUS
10
0.1352362204724409
20
1.0409448818897638
11
0.1352362204724409
21
1.0586614173228346
0
LINE
8
BLACK
6
CONTINUOUS
10
0.1352362204724409
20
1.0586614173228346
11
0.1359105118110236
21
1.0620513385826771
0
LINE
8
BLACK
6
CONTINUOUS
10
0.1359105118110236
20
1.0620513385826771
11
0.1378307480314961
21
1.0649251574803149
0
LINE
8
BLACK
6
CONTINUOUS
10
0.1378307480314961
20
1.0649251574803149
11
0.1407045669291339
21
1.0668453937007873
0
LINE
8
BLACK
6
CONTINUOUS
10
0.1407045669291339
20
1.0668453937007873
11
0.1440944881889764
21
1.06751968503937
0
LINE
8
BLACK
6
CONTINUOUS
10
0.1440944881889764
20
1.06751968503937
11
0.1637795275590551
21
1.06751968503937
0
LINE
8
BLACK
6
CONTINUOUS
10
0.1637795275590551
20
1.06751968503937
11
0.1671694488188976
21
1.0668453937007873
0
LINE
8
BLACK
6
CONTINUOUS
10
0.2752914566929134
20
1.1141174015748032
11
0.2772073228346457
21
1.1128372440944883
0
LINE
8
BLACK
6
CONTINUOUS
10
0.2772073228346457
20
1.1128372440944883
11
0.2784874803149606
21
1.1109213779527558
0
LINE
8
BLACK
6
CONTINUOUS
10
0.2784874803149606
20
1.1109213779527558
11
0.2789370078740158
21
1.1086614173228346
0
LINE
8
BLACK
6
CONTINUOUS
10
0.2789370078740158
20
1.1086614173228346
11
0.2789370078740158
21
1.0968503937007874
0
LINE
8
BLACK
6
CONTINUOUS
10
0.2789370078740158
20
1.0968503937007874
11
0.2784874803149606
21
1.094590433070866
0
LINE
8
BLACK
6
CONTINUOUS
10
0.2784874803149606
20
1.094590433070866
11
0.2772073228346457
21
1.0926745669291338
0
LINE
8
BLACK
6
CONTINUOUS
10
0.2772073228346457
20
1.0926745669291338
11
0.2752914566929134
21
1.0913944094488188
0
LINE
8
BLACK
6
CONTINUOUS
10
0.2752914566929134
20
1.0913944094488188
11
0.2730314960629921
21
1.0909448818897638
0
LINE
8
BLACK
6
CONTINUOUS
10
0.2730314960629921
20
1.0909448818897638
11
0.2326771653543307
21
1.0909448818897638
0
LINE
8
BLACK
6
CONTINUOUS
10
0.2326771653543307
20
1.0909448818897638
11
0.2304172047244094
21
1.0913944094488188
0
LINE
8
BLACK
6
CONTINUOUS
10
0.2304172047244094
20
1.0913944094488188
11
0.2285013385826772
21
1.0926745669291338
0
LINE
8
BLACK
6
CONTINUOUS
10
0.2285013385826772
20
1.0926745669291338
11
0.2272211811023622
21
1.094590433070866
0
LINE
8
BLACK
6
CONTINUOUS
10
0.2272211811023622
20
1.094590433070866
11
0.2267716535433071
21
1.0968503937007874
0
LINE
8
BLACK
6
CONTINUOUS
10
0.2267716535433071
20
1.0968503937007874
11
0.2267716535433071
21
1.1086614173228346
0
LINE
8
BLACK
6
CONTINUOUS
10
0.2267716535433071
20
1.1086614173228346
11
0.2272211811023622
21
1.1109213779527558
0
LINE
8
BLACK
6
CONTINUOUS
10
0.2272211811023622
20
1.1109213779527558
11
0.2285013385826772
21
1.1128372440944883
0
LINE
8
BLACK
6
CONTINUOUS
10
0.2285013385826772
20
1.1128372440944883
11
0.2304172047244094
21
1.1141174015748032
0
LINE
8
BLACK
6
CONTINUOUS
10
0.2304172047244094
20
1.1141174015748032
11
0.2326771653543307
21
1.1145669291338582
0
LINE
8
BLACK
6
CONTINUOUS
10
0.2326771653543307
20
1.1145669291338582
11
0.2730314960629921
21
1.1145669291338582
0
LINE
8
BLACK
6
CONTINUOUS
10
0.2730314960629921
20
1.1145669291338582
11
0.2752914566929134
21
1.1141174015748032
0
LINE
8
BLACK
6
CONTINUOUS
10
0.3648583858267717
20
1.1141174015748032
11
0.3667742519685039
21
1.1128372440944883
0
LINE
8
BLACK
6
CONTINUOUS
10
0.3667742519685039
20
1.1128372440944883
11
0.3680544094488189
21
1.1109213779527558
0
LINE
8
BLACK
6
CONTINUOUS
10
0.3680544094488189
20
1.1109213779527558
11
0.368503937007874
21
1.1086614173228346
0
LINE
8
BLACK
6
CONTINUOUS
10
0.368503937007874
20
1.1086614173228346
11
0.368503937007874
21
1.0968503937007874
0
LINE
8
BLACK
6
CONTINUOUS
10
0.368503937007874
20
1.0968503937007874
11
0.3680544094488189
21
1.094590433070866
0
LINE
8
BLACK
6
CONTINUOUS
10
0.3680544094488189
20
1.094590433070866
11
0.3667742519685039
21
1.0926745669291338
0
LINE
8
BLACK
6
CONTINUOUS
10
0.3667742519685039
20
1.0926745669291338
11
0.3648583858267717
21
1.0913944094488188
0
LINE
8
BLACK
6
CONTINUOUS
10
0.3648583858267717
20
1.0913944094488188
11
0.3625984251968504
21
1.0909448818897638
0
LINE
8
BLACK
6
CONTINUOUS
10
0.3625984251968504
20
1.0909448818897638
11
0.322244094488189
21
1.0909448818897638
0
LINE
8
BLACK
6
CONTINUOUS
10
0.322244094488189
20
1.0909448818897638
11
0.3199841338582677
21
1.0913944094488188
0
LINE
8
BLACK
6
CONTINUOUS
10
0.3199841338582677
20
1.0913944094488188
11
0.3180682677165354
21
1.0926745669291338
0
LINE
8
BLACK
6
CONTINUOUS
10
0.3180682677165354
20
1.0926745669291338
11
0.3167881102362204
21
1.094590433070866
0
LINE
8
BLACK
6
CONTINUOUS
10
0.3167881102362204
20
1.094590433070866
11
0.3163385826771654
21
1.0968503937007874
0
LINE
8
BLACK
6
CONTINUOUS
10
0.3163385826771654
20
1.0968503937007874
11
0.3163385826771654
21
1.1086614173228346
0
LINE
8
BLACK
6
CONTINUOUS
10
0.3163385826771654
20
1.1086614173228346
11
0.3167881102362204
21
1.1109213779527558
0
LINE
8
BLACK
6
CONTINUOUS
10
0.3167881102362204
20
1.1109213779527558
11
0.3180682677165354
21
1.1128372440944883
0
LINE
8
BLACK
6
CONTINUOUS
10
0.3180682677165354
20
1.1128372440944883
11
0.3199841338582677
21
1.1141174015748032
0
LINE
8
BLACK
6
CONTINUOUS
10
0.3199841338582677
20
1.1141174015748032
11
0.322244094488189
21
1.1145669291338582
0
LINE
8
BLACK
6
CONTINUOUS
10
0.322244094488189
20
1.1145669291338582
11
0.3625984251968504
21
1.1145669291338582
0
LINE
8
BLACK
6
CONTINUOUS
10
0.3625984251968504
20
1.1145669291338582
11
0.3648583858267717
21
1.1141174015748032
0
LINE
8
BLACK
6
CONTINUOUS
10
0.2752914566929134
20
1.1515189763779528
11
0.2772073228346457
21
1.1502388188976378
0
LINE
8
BLACK
6
CONTINUOUS
10
0.2772073228346457
20
1.1502388188976378
11
0.2784874803149606
21
1.1483229527559056
0
LINE
8
BLACK
6
CONTINUOUS
10
0.2784874803149606
20
1.1483229527559056
11
0.2789370078740158
21
1.1460629921259842
0
LINE
8
BLACK
6
CONTINUOUS
10
0.2789370078740158
20
1.1460629921259842
11
0.2789370078740158
21
1.1342519685039369
0
LINE
8
BLACK
6
CONTINUOUS
10
0.2789370078740158
20
1.1342519685039369
11
0.2784874803149606
21
1.1319920078740158
0
LINE
8
BLACK
6
CONTINUOUS
10
0.2784874803149606
20
1.1319920078740158
11
0.2772073228346457
21
1.1300761417322835
0
LINE
8
BLACK
6
CONTINUOUS
10
0.2772073228346457
20
1.1300761417322835
11
0.2752914566929134
21
1.1287959842519686
0
LINE
8
BLACK
6
CONTINUOUS
10
0.2752914566929134
20
1.1287959842519686
11
0.2730314960629921
21
1.1283464566929133
0
LINE
8
BLACK
6
CONTINUOUS
10
0.2730314960629921
20
1.1283464566929133
11
0.2326771653543307
21
1.1283464566929133
0
LINE
8
BLACK
6
CONTINUOUS
10
0.2326771653543307
20
1.1283464566929133
11
0.2304172047244094
21
1.1287959842519686
0
LINE
8
BLACK
6
CONTINUOUS
10
0.2304172047244094
20
1.1287959842519686
11
0.2285013385826772
21
1.1300761417322835
0
LINE
8
BLACK
6
CONTINUOUS
10
0.2285013385826772
20
1.1300761417322835
11
0.2272211811023622
21
1.1319920078740158
0
LINE
8
BLACK
6
CONTINUOUS
10
0.2272211811023622
20
1.1319920078740158
11
0.2267716535433071
21
1.1342519685039369
0
LINE
8
BLACK
6
CONTINUOUS
10
0.2267716535433071
20
1.1342519685039369
11
0.2267716535433071
21
1.1460629921259842
0
LINE
8
BLACK
6
CONTINUOUS
10
0.2267716535433071
20
1.1460629921259842
11
0.2272211811023622
21
1.1483229527559056
0
LINE
8
BLACK
6
CONTINUOUS
10
0.2272211811023622
20
1.1483229527559056
11
0.2285013385826772
21
1.1502388188976378
0
LINE
8
BLACK
6
CONTINUOUS
10
0.2285013385826772
20
1.1502388188976378
11
0.2304172047244094
21
1.1515189763779528
0
LINE
8
BLACK
6
CONTINUOUS
10
0.2304172047244094
20
1.1515189763779528
11
0.2326771653543307
21
1.1519685039370078
0
LINE
8
BLACK
6
CONTINUOUS
10
0.2326771653543307
20
1.1519685039370078
11
0.2730314960629921
21
1.1519685039370078
0
LINE
8
BLACK
6
CONTINUOUS
10
0.2730314960629921
20
1.1519685039370078
11
0.2752914566929134
21
1.1515189763779528
0
LINE
8
BLACK
6
CONTINUOUS
10
0.4323269291338583
20
1.1983414566929134
11
0.4352007480314961
21
1.1964212204724409
0
LINE
8
BLACK
6
CONTINUOUS
10
0.4352007480314961
20
1.1964212204724409
11
0.4371209842519685
21
1.1935474015748031
0
LINE
8
BLACK
6
CONTINUOUS
10
0.4371209842519685
20
1.1935474015748031
11
0.4377952755905511
21
1.1901574803149606
0
LINE
8
BLACK
6
CONTINUOUS
10
0.4377952755905511
20
1.1901574803149606
11
0.4377952755905511
21
1.1704724409448819
0
LINE
8
BLACK
6
CONTINUOUS
10
0.4377952755905511
20
1.1704724409448819
11
0.4371209842519685
21
1.1670825196850394
0
LINE
8
BLACK
6
CONTINUOUS
10
0.4371209842519685
20
1.1670825196850394
11
0.4352007480314961
21
1.1642087007874016
0
LINE
8
BLACK
6
CONTINUOUS
10
0.4352007480314961
20
1.1642087007874016
11
0.4323269291338583
21
1.1622884645669291
0
LINE
8
BLACK
6
CONTINUOUS
10
0.4323269291338583
20
1.1622884645669291
11
0.4289370078740157
21
1.1616141732283465
0
LINE
8
BLACK
6
CONTINUOUS
10
0.4289370078740157
20
1.1616141732283465
11
0.4112204724409449
21
1.1616141732283465
0
LINE
8
BLACK
6
CONTINUOUS
10
0.4112204724409449
20
1.1616141732283465
11
0.4078305511811023
21
1.1622884645669291
0
LINE
8
BLACK
6
CONTINUOUS
10
0.4078305511811023
20
1.1622884645669291
11
0.4049567322834646
21
1.1642087007874016
0
LINE
8
BLACK
6
CONTINUOUS
10
0.4049567322834646
20
1.1642087007874016
11
0.4030364960629921
21
1.1670825196850394
0
LINE
8
BLACK
6
CONTINUOUS
10
0.4030364960629921
20
1.1670825196850394
11
0.4023622047244094
21
1.1704724409448819
0
LINE
8
BLACK
6
CONTINUOUS
10
0.4023622047244094
20
1.1704724409448819
11
0.4023622047244094
21
1.1901574803149606
0
LINE
8
BLACK
6
CONTINUOUS
10
0.4023622047244094
20
1.1901574803149606
11
0.4030364960629921
21
1.1935474015748031
0
LINE
8
BLACK
6
CONTINUOUS
10
0.4030364960629921
20
1.1935474015748031
11
0.4049567322834646
21
1.1964212204724409
0
LINE
8
BLACK
6
CONTINUOUS
10
0.4049567322834646
20
1.1964212204724409
11
0.4078305511811023
21
1.1983414566929134
0
LINE
8
BLACK
6
CONTINUOUS
10
0.4078305511811023
20
1.1983414566929134
11
0.4112204724409449
21
1.199015748031496
0
LINE
8
BLACK
6
CONTINUOUS
10
0.4112204724409449
20
1.199015748031496
11
0.4289370078740157
21
1.199015748031496
0
LINE
8
BLACK
6
CONTINUOUS
10
0.4289370078740157
20
1.199015748031496
11
0.4323269291338583
21
1.1983414566929134
0
LINE
8
BLACK
6
CONTINUOUS
10
0.4933505511811023
20
1.1983414566929134
11
0.4962243700787402
21
1.1964212204724409
0
LINE
8
BLACK
6
CONTINUOUS
10
0.4962243700787402
20
1.1964212204724409
11
0.4981446062992126
21
1.1935474015748031
0
LINE
8
BLACK
6
CONTINUOUS
10
0.4981446062992126
20
1.1935474015748031
11
0.4988188976377952
21
1.1901574803149606
0
LINE
8
BLACK
6
CONTINUOUS
10
0.4988188976377952
20
1.1901574803149606
11
0.4988188976377952
21
1.1704724409448819
0
LINE
8
BLACK
6
CONTINUOUS
10
0.4988188976377952
20
1.1704724409448819
11
0.4981446062992126
21
1.1670825196850394
0
LINE
8
BLACK
6
CONTINUOUS
10
0.4981446062992126
20
1.1670825196850394
11
0.4962243700787402
21
1.1642087007874016
0
LINE
8
BLACK
6
CONTINUOUS
10
0.4962243700787402
20
1.1642087007874016
11
0.4933505511811023
21
1.1622884645669291
0
LINE
8
BLACK
6
CONTINUOUS
10
0.4933505511811023
20
1.1622884645669291
11
0.4899606299212598
21
1.1616141732283465
0
LINE
8
BLACK
6
CONTINUOUS
10
0.4899606299212598
20
1.1616141732283465
11
0.472244094488189
21
1.1616141732283465
0
LINE
8
BLACK
6
CONTINUOUS
10
0.472244094488189
20
1.1616141732283465
11
0.4688541732283464
21
1.1622884645669291
0
LINE
8
BLACK
6
CONTINUOUS
10
0.4688541732283464
20
1.1622884645669291
11
0.4659803543307087
21
1.1642087007874016
0
LINE
8
BLACK
6
CONTINUOUS
10
0.4659803543307087
20
1.1642087007874016
11
0.4640601181102362
21
1.1670825196850394
0
LINE
8
BLACK
6
CONTINUOUS
10
0.4640601181102362
20
1.1670825196850394
11
0.4633858267716535
21
1.1704724409448819
0
LINE
8
BLACK
6
CONTINUOUS
10
0.4633858267716535
20
1.1704724409448819
11
0.4633858267716535
21
1.1901574803149606
0
LINE
8
BLACK
6
CONTINUOUS
10
0.4633858267716535
20
1.1901574803149606
11
0.4640601181102362
21
1.1935474015748031
0
LINE
8
BLACK
6
CONTINUOUS
10
0.4640601181102362
20
1.1935474015748031
11
0.4659803543307087
21
1.1964212204724409
0
LINE
8
BLACK
6
CONTINUOUS
10
0.4659803543307087
20
1.1964212204724409
11
0.4688541732283464
21
1.1983414566929134
0
LINE
8
BLACK
6
CONTINUOUS
10
0.4688541732283464
20
1.1983414566929134
11
0.472244094488189
21
1.199015748031496
0
LINE
8
BLACK
6
CONTINUOUS
10
0.472244094488189
20
1.199015748031496
11
0.4899606299212598
21
1.199015748031496
0
LINE
8
BLACK
6
CONTINUOUS
10
0.4899606299212598
20
1.199015748031496
11
0.4933505511811023
21
1.1983414566929134
0
LINE
8
BLACK
6
CONTINUOUS
10
0.2752914566929134
20
1.1889205511811023
11
0.2772073228346457
21
1.1876403937007873
0
LINE
8
BLACK
6
CONTINUOUS
10
0.2772073228346457
20
1.1876403937007873
11
0.2784874803149606
21
1.1857245275590551
0
LINE
8
BLACK
6
CONTINUOUS
10
0.2784874803149606
20
1.1857245275590551
11
0.2789370078740158
21
1.1834645669291339
0
LINE
8
BLACK
6
CONTINUOUS
10
0.2789370078740158
20
1.1834645669291339
11
0.2789370078740158
21
1.1716535433070865
0
LINE
8
BLACK
6
CONTINUOUS
10
0.2789370078740158
20
1.1716535433070865
11
0.2784874803149606
21
1.1693935826771653
0
LINE
8
BLACK
6
CONTINUOUS
10
0.2784874803149606
20
1.1693935826771653
11
0.2772073228346457
21
1.1674777165354331
0
LINE
8
BLACK
6
CONTINUOUS
10
0.2772073228346457
20
1.1674777165354331
11
0.2752914566929134
21
1.1661975590551181
0
LINE
8
BLACK
6
CONTINUOUS
10
0.2752914566929134
20
1.1661975590551181
11
0.2730314960629921
21
1.1657480314960629
0
LINE
8
BLACK
6
CONTINUOUS
10
0.2730314960629921
20
1.1657480314960629
11
0.2326771653543307
21
1.1657480314960629
0
LINE
8
BLACK
6
CONTINUOUS
10
0.2326771653543307
20
1.1657480314960629
11
0.2304172047244094
21
1.1661975590551181
0
LINE
8
BLACK
6
CONTINUOUS
10
0.2304172047244094
20
1.1661975590551181
11
0.2285013385826772
21
1.1674777165354331
0
LINE
8
BLACK
6
CONTINUOUS
10
0.2285013385826772
20
1.1674777165354331
11
0.2272211811023622
21
1.1693935826771653
0
LINE
8
BLACK
6
CONTINUOUS
10
0.2272211811023622
20
1.1693935826771653
11
0.2267716535433071
21
1.1716535433070865
0
LINE
8
BLACK
6
CONTINUOUS
10
0.2267716535433071
20
1.1716535433070865
11
0.2267716535433071
21
1.1834645669291339
0
LINE
8
BLACK
6
CONTINUOUS
10
0.2267716535433071
20
1.1834645669291339
11
0.2272211811023622
21
1.1857245275590551
0
LINE
8
BLACK
6
CONTINUOUS
10
0.2272211811023622
20
1.1857245275590551
11
0.2285013385826772
21
1.1876403937007873
0
LINE
8
BLACK
6
CONTINUOUS
10
0.2285013385826772
20
1.1876403937007873
11
0.2304172047244094
21
1.1889205511811023
0
LINE
8
BLACK
6
CONTINUOUS
10
0.2304172047244094
20
1.1889205511811023
11
0.2326771653543307
21
1.1893700787401575
0
LINE
8
BLACK
6
CONTINUOUS
10
0.2326771653543307
20
1.1893700787401575
11
0.2730314960629921
21
1.1893700787401575
0
LINE
8
BLACK
6
CONTINUOUS
10
0.2730314960629921
20
1.1893700787401575
11
0.2752914566929134
21
1.1889205511811023
0
LINE
8
BLACK
6
CONTINUOUS
10
0.3648583858267717
20
1.1889205511811023
11
0.3667742519685039
21
1.1876403937007873
0
LINE
8
BLACK
6
CONTINUOUS
10
0.3667742519685039
20
1.1876403937007873
11
0.3680544094488189
21
1.1857245275590551
0
LINE
8
BLACK
6
CONTINUOUS
10
0.3680544094488189
20
1.1857245275590551
11
0.368503937007874
21
1.1834645669291339
0
LINE
8
BLACK
6
CONTINUOUS
10
0.368503937007874
20
1.1834645669291339
11
0.368503937007874
21
1.1716535433070865
0
LINE
8
BLACK
6
CONTINUOUS
10
0.368503937007874
20
1.1716535433070865
11
0.3680544094488189
21
1.1693935826771653
0
LINE
8
BLACK
6
CONTINUOUS
10
0.3680544094488189
20
1.1693935826771653
11
0.3667742519685039
21
1.1674777165354331
0
LINE
8
BLACK
6
CONTINUOUS
10
0.3667742519685039
20
1.1674777165354331
11
0.3648583858267717
21
1.1661975590551181
0
LINE
8
BLACK
6
CONTINUOUS
10
0.3648583858267717
20
1.1661975590551181
11
0.3625984251968504
21
1.1657480314960629
0
LINE
8
BLACK
6
CONTINUOUS
10
0.3625984251968504
20
1.1657480314960629
11
0.322244094488189
21
1.1657480314960629
0
LINE
8
BLACK
6
CONTINUOUS
10
0.322244094488189
20
1.1657480314960629
11
0.3199841338582677
21
1.1661975590551181
0
LINE
8
BLACK
6
CONTINUOUS
10
0.3199841338582677
20
1.1661975590551181
11
0.3180682677165354
21
1.1674777165354331
0
LINE
8
BLACK
6
CONTINUOUS
10
0.3180682677165354
20
1.1674777165354331
11
0.3167881102362204
21
1.1693935826771653
0
LINE
8
BLACK
6
CONTINUOUS
10
0.3167881102362204
20
1.1693935826771653
11
0.3163385826771654
21
1.1716535433070865
0
LINE
8
BLACK
6
CONTINUOUS
10
0.3163385826771654
20
1.1716535433070865
11
0.3163385826771654
21
1.1834645669291339
0
LINE
8
BLACK
6
CONTINUOUS
10
0.3163385826771654
20
1.1834645669291339
11
0.3167881102362204
21
1.1857245275590551
0
LINE
8
BLACK
6
CONTINUOUS
10
0.3167881102362204
20
1.1857245275590551
11
0.3180682677165354
21
1.1876403937007873
0
LINE
8
BLACK
6
CONTINUOUS
10
0.3180682677165354
20
1.1876403937007873
11
0.3199841338582677
21
1.1889205511811023
0
LINE
8
BLACK
6
CONTINUOUS
10
0.3199841338582677
20
1.1889205511811023
11
0.322244094488189
21
1.1893700787401575
0
LINE
8
BLACK
6
CONTINUOUS
10
0.322244094488189
20
1.1893700787401575
11
0.3625984251968504
21
1.1893700787401575
0
LINE
8
BLACK
6
CONTINUOUS
10
0.3625984251968504
20
1.1893700787401575
11
0.3648583858267717
21
1.1889205511811023
0
LINE
8
BLACK
6
CONTINUOUS
10
0.3953361023622047
20
1.3055029921259842
11
0.3978905905511811
21
1.3037961023622047
0
LINE
8
BLACK
6
CONTINUOUS
10
0.3978905905511811
20
1.3037961023622047
11
0.3995974803149606
21
1.3012416141732284
0
LINE
8
BLACK
6
CONTINUOUS
10
0.3995974803149606
20
1.3012416141732284
11
0.4001968503937008
21
1.2982283464566928
0
LINE
8
BLACK
6
CONTINUOUS
10
0.4001968503937008
20
1.2982283464566928
11
0.4001968503937008
21
1.2765748031496063
0
LINE
8
BLACK
6
CONTINUOUS
10
0.4001968503937008
20
1.2765748031496063
11
0.3995974803149606
21
1.2735615354330709
0
LINE
8
BLACK
6
CONTINUOUS
10
0.3995974803149606
20
1.2735615354330709
11
0.3978905905511811
21
1.2710070472440944
0
LINE
8
BLACK
6
CONTINUOUS
10
0.3978905905511811
20
1.2710070472440944
11
0.3953361023622047
21
1.2693001574803149
0
LINE
8
BLACK
6
CONTINUOUS
10
0.3953361023622047
20
1.2693001574803149
11
0.3923228346456693
21
1.2687007874015748
0
LINE
8
BLACK
6
CONTINUOUS
10
0.3923228346456693
20
1.2687007874015748
11
0.3765748031496063
21
1.2687007874015748
0
LINE
8
BLACK
6
CONTINUOUS
10
0.3765748031496063
20
1.2687007874015748
11
0.3735615354330709
21
1.2693001574803149
0
LINE
8
BLACK
6
CONTINUOUS
10
0.3735615354330709
20
1.2693001574803149
11
0.3710070472440945
21
1.2710070472440944
0
LINE
8
BLACK
6
CONTINUOUS
10
0.3710070472440945
20
1.2710070472440944
11
0.369300157480315
21
1.2735615354330709
0
LINE
8
BLACK
6
CONTINUOUS
10
0.369300157480315
20
1.2735615354330709
11
0.3687007874015748
21
1.2765748031496063
0
LINE
8
BLACK
6
CONTINUOUS
10
0.3687007874015748
20
1.2765748031496063
11
0.3687007874015748
21
1.2982283464566928
0
LINE
8
BLACK
6
CONTINUOUS
10
0.3687007874015748
20
1.2982283464566928
11
0.369300157480315
21
1.3012416141732284
0
LINE
8
BLACK
6
CONTINUOUS
10
0.369300157480315
20
1.3012416141732284
11
0.3710070472440945
21
1.3037961023622047
0
LINE
8
BLACK
6
CONTINUOUS
10
0.3710070472440945
20
1.3037961023622047
11
0.3735615354330709
21
1.3055029921259842
0
LINE
8
BLACK
6
CONTINUOUS
10
0.3735615354330709
20
1.3055029921259842
11
0.3765748031496063
21
1.3061023622047243
0
LINE
8
BLACK
6
CONTINUOUS
10
0.3765748031496063
20
1.3061023622047243
11
0.3923228346456693
21
1.3061023622047243
0
LINE
8
BLACK
6
CONTINUOUS
10
0.3923228346456693
20
1.3061023622047243
11
0.3953361023622047
21
1.3055029921259842
0
LINE
8
BLACK
6
CONTINUOUS
10
0.4602967322834646
20
1.3055029921259842
11
0.4628512204724409
21
1.3037961023622047
0
LINE
8
BLACK
6
CONTINUOUS
10
0.4628512204724409
20
1.3037961023622047
11
0.4645581102362205
21
1.3012416141732284
0
LINE
8
BLACK
6
CONTINUOUS
10
0.4645581102362205
20
1.3012416141732284
11
0.4651574803149606
21
1.2982283464566928
0
LINE
8
BLACK
6
CONTINUOUS
10
0.4651574803149606
20
1.2982283464566928
11
0.4651574803149606
21
1.2765748031496063
0
LINE
8
BLACK
6
CONTINUOUS
10
0.4651574803149606
20
1.2765748031496063
11
0.4645581102362205
21
1.2735615354330709
0
LINE
8
BLACK
6
CONTINUOUS
10
0.4645581102362205
20
1.2735615354330709
11
0.4628512204724409
21
1.2710070472440944
0
LINE
8
BLACK
6
CONTINUOUS
10
0.4628512204724409
20
1.2710070472440944
11
0.4602967322834646
21
1.2693001574803149
0
LINE
8
BLACK
6
CONTINUOUS
10
0.4602967322834646
20
1.2693001574803149
11
0.4572834645669291
21
1.2687007874015748
0
LINE
8
BLACK
6
CONTINUOUS
10
0.4572834645669291
20
1.2687007874015748
11
0.4415354330708661
21
1.2687007874015748
0
LINE
8
BLACK
6
CONTINUOUS
10
0.4415354330708661
20
1.2687007874015748
11
0.4385221653543307
21
1.2693001574803149
0
LINE
8
BLACK
6
CONTINUOUS
10
0.4385221653543307
20
1.2693001574803149
11
0.4359676771653543
21
1.2710070472440944
0
LINE
8
BLACK
6
CONTINUOUS
10
0.4359676771653543
20
1.2710070472440944
11
0.4342607874015748
21
1.2735615354330709
0
LINE
8
BLACK
6
CONTINUOUS
10
0.4342607874015748
20
1.2735615354330709
11
0.4336614173228346
21
1.2765748031496063
0
LINE
8
BLACK
6
CONTINUOUS
10
0.4336614173228346
20
1.2765748031496063
11
0.4336614173228346
21
1.2982283464566928
0
LINE
8
BLACK
6
CONTINUOUS
10
0.4336614173228346
20
1.2982283464566928
11
0.4342607874015748
21
1.3012416141732284
0
LINE
8
BLACK
6
CONTINUOUS
10
0.4342607874015748
20
1.3012416141732284
11
0.4359676771653543
21
1.3037961023622047
0
LINE
8
BLACK
6
CONTINUOUS
10
0.4359676771653543
20
1.3037961023622047
11
0.4385221653543307
21
1.3055029921259842
0
LINE
8
BLACK
6
CONTINUOUS
10
0.4385221653543307
20
1.3055029921259842
11
0.4415354330708661
21
1.3061023622047243
0
LINE
8
BLACK
6
CONTINUOUS
10
0.4415354330708661
20
1.3061023622047243
11
0.4572834645669291
21
1.3061023622047243
0
LINE
8
BLACK
6
CONTINUOUS
10
0.4572834645669291
20
1.3061023622047243
11
0.4602967322834646
21
1.3055029921259842
0
LINE
8
BLACK
6
CONTINUOUS
10
0.2869056299212598
20
1.3869520472440944
11
0.2888214960629921
21
1.3856718897637794
0
LINE
8
BLACK
6
CONTINUOUS
10
0.2888214960629921
20
1.3856718897637794
11
0.2901016535433071
21
1.3837560236220472
0
LINE
8
BLACK
6
CONTINUOUS
10
0.2901016535433071
20
1.3837560236220472
11
0.2905511811023622
21
1.381496062992126
0
LINE
8
BLACK
6
CONTINUOUS
10
0.2905511811023622
20
1.381496062992126
11
0.2905511811023622
21
1.3352362204724408
0
LINE
8
BLACK
6
CONTINUOUS
10
0.2905511811023622
20
1.3352362204724408
11
0.2901016535433071
21
1.3329762598425197
0
LINE
8
BLACK
6
CONTINUOUS
10
0.2901016535433071
20
1.3329762598425197
11
0.2888214960629921
21
1.3310603937007874
0
LINE
8
BLACK
6
CONTINUOUS
10
0.2888214960629921
20
1.3310603937007874
11
0.2869056299212598
21
1.3297802362204725
0
LINE
8
BLACK
6
CONTINUOUS
10
0.2869056299212598
20
1.3297802362204725
11
0.2846456692913386
21
1.3293307086614172
0
LINE
8
BLACK
6
CONTINUOUS
10
0.2846456692913386
20
1.3293307086614172
11
0.2728346456692913
21
1.3293307086614172
0
LINE
8
BLACK
6
CONTINUOUS
10
0.2728346456692913
20
1.3293307086614172
11
0.2705746850393701
21
1.3297802362204725
0
LINE
8
BLACK
6
CONTINUOUS
10
0.2705746850393701
20
1.3297802362204725
11
0.2686588188976378
21
1.3310603937007874
0
LINE
8
BLACK
6
CONTINUOUS
10
0.2686588188976378
20
1.3310603937007874
11
0.2673786614173228
21
1.3329762598425197
0
LINE
8
BLACK
6
CONTINUOUS
10
0.2673786614173228
20
1.3329762598425197
11
0.2669291338582677
21
1.3352362204724408
0
LINE
8
BLACK
6
CONTINUOUS
10
0.2669291338582677
20
1.3352362204724408
11
0.2669291338582677
21
1.381496062992126
0
LINE
8
BLACK
6
CONTINUOUS
10
0.2669291338582677
20
1.381496062992126
11
0.2673786614173228
21
1.3837560236220472
0
LINE
8
BLACK
6
CONTINUOUS
10
0.2673786614173228
20
1.3837560236220472
11
0.2686588188976378
21
1.3856718897637794
0
LINE
8
BLACK
6
CONTINUOUS
10
0.2686588188976378
20
1.3856718897637794
11
0.2705746850393701
21
1.3869520472440944
0
LINE
8
BLACK
6
CONTINUOUS
10
0.2705746850393701
20
1.3869520472440944
11
0.2728346456692913
21
1.3874015748031496
0
LINE
8
BLACK
6
CONTINUOUS
10
0.2728346456692913
20
1.3874015748031496
11
0.2846456692913386
21
1.3874015748031496
0
LINE
8
BLACK
6
CONTINUOUS
10
0.2846456692913386
20
1.3874015748031496
11
0.2869056299212598
21
1.3869520472440944
0
LINE
8
BLACK
6
CONTINUOUS
10
0.2495040551181102
20
1.4607709448818897
11
0.2514199212598425
21
1.4594907874015748
0
LINE
8
BLACK
6
CONTINUOUS
10
0.2514199212598425
20
1.4594907874015748
11
0.2527000787401575
21
1.4575749212598426
0
LINE
8
BLACK
6
CONTINUOUS
10
0.2527000787401575
20
1.4575749212598426
11
0.2531496062992126
21
1.4553149606299212
0
LINE
8
BLACK
6
CONTINUOUS
10
0.2531496062992126
20
1.4553149606299212
11
0.2531496062992126
21
1.4090551181102362
0
LINE
8
BLACK
6
CONTINUOUS
10
0.2531496062992126
20
1.4090551181102362
11
0.2527000787401575
21
1.406795157480315
0
LINE
8
BLACK
6
CONTINUOUS
10
0.2527000787401575
20
1.406795157480315
11
0.2514199212598425
21
1.4048792913385826
0
LINE
8
BLACK
6
CONTINUOUS
10
0.2514199212598425
20
1.4048792913385826
11
0.2495040551181102
21
1.4035991338582676
0
LINE
8
BLACK
6
CONTINUOUS
10
0.2495040551181102
20
1.4035991338582676
11
0.247244094488189
21
1.4031496062992126
0
LINE
8
BLACK
6
CONTINUOUS
10
0.247244094488189
20
1.4031496062992126
11
0.2354330708661417
21
1.4031496062992126
0
LINE
8
BLACK
6
CONTINUOUS
10
0.2354330708661417
20
1.4031496062992126
11
0.2331731102362205
21
1.4035991338582676
0
LINE
8
BLACK
6
CONTINUOUS
10
0.2331731102362205
20
1.4035991338582676
11
0.2312572440944882
21
1.4048792913385826
0
LINE
8
BLACK
6
CONTINUOUS
10
0.2312572440944882
20
1.4048792913385826
11
0.2299770866141732
21
1.406795157480315
0
LINE
8
BLACK
6
CONTINUOUS
10
0.2299770866141732
20
1.406795157480315
11
0.2295275590551181
21
1.4090551181102362
0
LINE
8
BLACK
6
CONTINUOUS
10
0.2295275590551181
20
1.4090551181102362
11
0.2295275590551181
21
1.4553149606299212
0
LINE
8
BLACK
6
CONTINUOUS
10
0.2295275590551181
20
1.4553149606299212
11
0.2299770866141732
21
1.4575749212598426
0
LINE
8
BLACK
6
CONTINUOUS
10
0.2299770866141732
20
1.4575749212598426
11
0.2312572440944882
21
1.4594907874015748
0
LINE
8
BLACK
6
CONTINUOUS
10
0.2312572440944882
20
1.4594907874015748
11
0.2331731102362205
21
1.4607709448818897
0
LINE
8
BLACK
6
CONTINUOUS
10
0.2331731102362205
20
1.4607709448818897
11
0.2354330708661417
21
1.4612204724409448
0
LINE
8
BLACK
6
CONTINUOUS
10
0.2354330708661417
20
1.4612204724409448
11
0.247244094488189
21
1.4612204724409448
0
LINE
8
BLACK
6
CONTINUOUS
10
0.247244094488189
20
1.4612204724409448
11
0.2495040551181102
21
1.4607709448818897
0
LINE
8
BLACK
6
CONTINUOUS
10
0.3243072047244094
20
1.4607709448818897
11
0.3262230708661417
21
1.4594907874015748
0
LINE
8
BLACK
6
CONTINUOUS
10
0.3262230708661417
20
1.4594907874015748
11
0.3275032283464567
21
1.4575749212598426
0
LINE
8
BLACK
6
CONTINUOUS
10
0.3275032283464567
20
1.4575749212598426
11
0.3279527559055118
21
1.4553149606299212
0
LINE
8
BLACK
6
CONTINUOUS
10
0.3279527559055118
20
1.4553149606299212
11
0.3279527559055118
21
1.4090551181102362
0
LINE
8
BLACK
6
CONTINUOUS
10
0.3279527559055118
20
1.4090551181102362
11
0.3275032283464567
21
1.406795157480315
0
LINE
8
BLACK
6
CONTINUOUS
10
0.3275032283464567
20
1.406795157480315
11
0.3262230708661417
21
1.4048792913385826
0
LINE
8
BLACK
6
CONTINUOUS
10
0.3262230708661417
20
1.4048792913385826
11
0.3243072047244094
21
1.4035991338582676
0
LINE
8
BLACK
6
CONTINUOUS
10
0.3243072047244094
20
1.4035991338582676
11
0.3220472440944882
21
1.4031496062992126
0
LINE
8
BLACK
6
CONTINUOUS
10
0.3220472440944882
20
1.4031496062992126
11
0.3102362204724409
21
1.4031496062992126
0
LINE
8
BLACK
6
CONTINUOUS
10
0.3102362204724409
20
1.4031496062992126
11
0.3079762598425197
21
1.4035991338582676
0
LINE
8
BLACK
6
CONTINUOUS
10
0.3079762598425197
20
1.4035991338582676
11
0.3060603937007874
21
1.4048792913385826
0
LINE
8
BLACK
6
CONTINUOUS
10
0.3060603937007874
20
1.4048792913385826
11
0.3047802362204725
21
1.406795157480315
0
LINE
8
BLACK
6
CONTINUOUS
10
0.3047802362204725
20
1.406795157480315
11
0.3043307086614173
21
1.4090551181102362
0
LINE
8
BLACK
6
CONTINUOUS
10
0.3043307086614173
20
1.4090551181102362
11
0.3043307086614173
21
1.4553149606299212
0
LINE
8
BLACK
6
CONTINUOUS
10
0.3043307086614173
20
1.4553149606299212
11
0.3047802362204725
21
1.4575749212598426
0
LINE
8
BLACK
6
CONTINUOUS
10
0.3047802362204725
20
1.4575749212598426
11
0.3060603937007874
21
1.4594907874015748
0
LINE
8
BLACK
6
CONTINUOUS
10
0.3060603937007874
20
1.4594907874015748
11
0.3079762598425197
21
1.4607709448818897
0
LINE
8
BLACK
6
CONTINUOUS
10
0.3079762598425197
20
1.4607709448818897
11
0.3102362204724409
21
1.4612204724409448
0
LINE
8
BLACK
6
CONTINUOUS
10
0.3102362204724409
20
1.4612204724409448
11
0.3220472440944882
21
1.4612204724409448
0
LINE
8
BLACK
6
CONTINUOUS
10
0.3220472440944882
20
1.4612204724409448
11
0.3243072047244094
21
1.4607709448818897
0
LINE
8
BLACK
6
CONTINUOUS
10
0.1835250787401575
20
1.5452667716535433
11
0.1860795669291339
21
1.5435598818897638
0
LINE
8
BLACK
6
CONTINUOUS
10
0.1860795669291339
20
1.5435598818897638
11
0.1877864566929134
21
1.5410053937007873
0
LINE
8
BLACK
6
CONTINUOUS
10
0.1877864566929134
20
1.5410053937007873
11
0.1883858267716536
21
1.5379921259842519
0
LINE
8
BLACK
6
CONTINUOUS
10
0.1883858267716536
20
1.5379921259842519
11
0.1883858267716536
21
1.5163385826771654
0
LINE
8
BLACK
6
CONTINUOUS
10
0.1883858267716536
20
1.5163385826771654
11
0.1877864566929134
21
1.5133253149606298
0
LINE
8
BLACK
6
CONTINUOUS
10
0.1877864566929134
20
1.5133253149606298
11
0.1860795669291339
21
1.5107708267716535
0
LINE
8
BLACK
6
CONTINUOUS
10
0.1860795669291339
20
1.5107708267716535
11
0.1835250787401575
21
1.509063937007874
0
LINE
8
BLACK
6
CONTINUOUS
10
0.1835250787401575
20
1.509063937007874
11
0.180511811023622
21
1.5084645669291339
0
LINE
8
BLACK
6
CONTINUOUS
10
0.180511811023622
20
1.5084645669291339
11
0.1647637795275591
21
1.5084645669291339
0
LINE
8
BLACK
6
CONTINUOUS
10
0.1647637795275591
20
1.5084645669291339
11
0.1617505118110236
21
1.509063937007874
0
LINE
8
BLACK
6
CONTINUOUS
10
0.1617505118110236
20
1.509063937007874
11
0.1591960236220472
21
1.5107708267716535
0
LINE
8
BLACK
6
CONTINUOUS
10
0.1591960236220472
20
1.5107708267716535
11
0.1574891338582677
21
1.5133253149606298
0
LINE
8
BLACK
6
CONTINUOUS
10
0.1574891338582677
20
1.5133253149606298
11
0.1568897637795276
21
1.5163385826771654
0
LINE
8
BLACK
6
CONTINUOUS
10
0.1568897637795276
20
1.5163385826771654
11
0.1568897637795276
21
1.5379921259842519
0
LINE
8
BLACK
6
CONTINUOUS
10
0.1568897637795276
20
1.5379921259842519
11
0.1574891338582677
21
1.5410053937007873
0
LINE
8
BLACK
6
CONTINUOUS
10
0.1574891338582677
20
1.5410053937007873
11
0.1591960236220472
21
1.5435598818897638
0
LINE
8
BLACK
6
CONTINUOUS
10
0.1591960236220472
20
1.5435598818897638
11
0.1617505118110236
21
1.5452667716535433
0
LINE
8
BLACK
6
CONTINUOUS
10
0.1617505118110236
20
1.5452667716535433
11
0.1647637795275591
21
1.5458661417322834
0
LINE
8
BLACK
6
CONTINUOUS
10
0.1647637795275591
20
1.5458661417322834
11
0.180511811023622
21
1.5458661417322834
0
LINE
8
BLACK
6
CONTINUOUS
10
0.180511811023622
20
1.5458661417322834
11
0.1835250787401575
21
1.5452667716535433
0
LINE
8
BLACK
6
CONTINUOUS
10
0.2484857086614173
20
1.5452667716535433
11
0.2510401968503937
21
1.5435598818897638
0
LINE
8
BLACK
6
CONTINUOUS
10
0.2510401968503937
20
1.5435598818897638
11
0.2527470866141732
21
1.5410053937007873
0
LINE
8
BLACK
6
CONTINUOUS
10
0.2527470866141732
20
1.5410053937007873
11
0.2533464566929134
21
1.5379921259842519
0
LINE
8
BLACK
6
CONTINUOUS
10
0.2533464566929134
20
1.5379921259842519
11
0.2533464566929134
21
1.5163385826771654
0
LINE
8
BLACK
6
CONTINUOUS
10
0.2533464566929134
20
1.5163385826771654
11
0.2527470866141732
21
1.5133253149606298
0
LINE
8
BLACK
6
CONTINUOUS
10
0.2527470866141732
20
1.5133253149606298
11
0.2510401968503937
21
1.5107708267716535
0
LINE
8
BLACK
6
CONTINUOUS
10
0.2510401968503937
20
1.5107708267716535
11
0.2484857086614173
21
1.509063937007874
0
LINE
8
BLACK
6
CONTINUOUS
10
0.2484857086614173
20
1.509063937007874
11
0.2454724409448819
21
1.5084645669291339
0
LINE
8
BLACK
6
CONTINUOUS
10
0.2454724409448819
20
1.5084645669291339
11
0.2297244094488189
21
1.5084645669291339
0
LINE
8
BLACK
6
CONTINUOUS
10
0.2297244094488189
20
1.5084645669291339
11
0.2267111417322835
21
1.509063937007874
0
LINE
8
BLACK
6
CONTINUOUS
10
0.2267111417322835
20
1.509063937007874
11
0.2241566535433071
21
1.5107708267716535
0
LINE
8
BLACK
6
CONTINUOUS
10
0.2241566535433071
20
1.5107708267716535
11
0.2224497637795275
21
1.5133253149606298
0
LINE
8
BLACK
6
CONTINUOUS
10
0.2224497637795275
20
1.5133253149606298
11
0.2218503937007874
21
1.5163385826771654
0
LINE
8
BLACK
6
CONTINUOUS
10
0.2218503937007874
20
1.5163385826771654
11
0.2218503937007874
21
1.5379921259842519
0
LINE
8
BLACK
6
CONTINUOUS
10
0.2218503937007874
20
1.5379921259842519
11
0.2224497637795275
21
1.5410053937007873
0
LINE
8
BLACK
6
CONTINUOUS
10
0.2224497637795275
20
1.5410053937007873
11
0.2241566535433071
21
1.5435598818897638
0
LINE
8
BLACK
6
CONTINUOUS
10
0.2241566535433071
20
1.5435598818897638
11
0.2267111417322835
21
1.5452667716535433
0
LINE
8
BLACK
6
CONTINUOUS
10
0.2267111417322835
20
1.5452667716535433
11
0.2297244094488189
21
1.5458661417322834
0
LINE
8
BLACK
6
CONTINUOUS
10
0.2297244094488189
20
1.5458661417322834
11
0.2454724409448819
21
1.5458661417322834
0
LINE
8
BLACK
6
CONTINUOUS
10
0.2454724409448819
20
1.5458661417322834
11
0.2484857086614173
21
1.5452667716535433
0
LINE
8
BLACK
6
CONTINUOUS
10
0.3055723228346456
20
1.5452667716535433
11
0.308126811023622
21
1.5435598818897638
0
LINE
8
BLACK
6
CONTINUOUS
10
0.308126811023622
20
1.5435598818897638
11
0.3098337007874016
21
1.5410053937007873
0
LINE
8
BLACK
6
CONTINUOUS
10
0.3098337007874016
20
1.5410053937007873
11
0.3104330708661417
21
1.5379921259842519
0
LINE
8
BLACK
6
CONTINUOUS
10
0.3104330708661417
20
1.5379921259842519
11
0.3104330708661417
21
1.5163385826771654
0
LINE
8
BLACK
6
CONTINUOUS
10
0.3104330708661417
20
1.5163385826771654
11
0.3098337007874016
21
1.5133253149606298
0
LINE
8
BLACK
6
CONTINUOUS
10
0.3098337007874016
20
1.5133253149606298
11
0.308126811023622
21
1.5107708267716535
0
LINE
8
BLACK
6
CONTINUOUS
10
0.308126811023622
20
1.5107708267716535
11
0.3055723228346456
21
1.509063937007874
0
LINE
8
BLACK
6
CONTINUOUS
10
0.3055723228346456
20
1.509063937007874
11
0.3025590551181102
21
1.5084645669291339
0
LINE
8
BLACK
6
CONTINUOUS
10
0.3025590551181102
20
1.5084645669291339
11
0.2868110236220472
21
1.5084645669291339
0
LINE
8
BLACK
6
CONTINUOUS
10
0.2868110236220472
20
1.5084645669291339
11
0.2837977559055118
21
1.509063937007874
0
LINE
8
BLACK
6
CONTINUOUS
10
0.2837977559055118
20
1.509063937007874
11
0.2812432677165354
21
1.5107708267716535
0
LINE
8
BLACK
6
CONTINUOUS
10
0.2812432677165354
20
1.5107708267716535
11
0.2795363779527559
21
1.5133253149606298
0
LINE
8
BLACK
6
CONTINUOUS
10
0.2795363779527559
20
1.5133253149606298
11
0.2789370078740158
21
1.5163385826771654
0
LINE
8
BLACK
6
CONTINUOUS
10
0.2789370078740158
20
1.5163385826771654
11
0.2789370078740158
21
1.5379921259842519
0
LINE
8
BLACK
6
CONTINUOUS
10
0.2789370078740158
20
1.5379921259842519
11
0.2795363779527559
21
1.5410053937007873
0
LINE
8
BLACK
6
CONTINUOUS
10
0.2795363779527559
20
1.5410053937007873
11
0.2812432677165354
21
1.5435598818897638
0
LINE
8
BLACK
6
CONTINUOUS
10
0.2812432677165354
20
1.5435598818897638
11
0.2837977559055118
21
1.5452667716535433
0
LINE
8
BLACK
6
CONTINUOUS
10
0.2837977559055118
20
1.5452667716535433
11
0.2868110236220472
21
1.5458661417322834
0
LINE
8
BLACK
6
CONTINUOUS
10
0.2868110236220472
20
1.5458661417322834
11
0.3025590551181102
21
1.5458661417322834
0
LINE
8
BLACK
6
CONTINUOUS
10
0.3025590551181102
20
1.5458661417322834
11
0.3055723228346456
21
1.5452667716535433
0
LINE
8
BLACK
6
CONTINUOUS
10
0.3705329527559055
20
1.5452667716535433
11
0.3730874409448819
21
1.5435598818897638
0
LINE
8
BLACK
6
CONTINUOUS
10
0.3730874409448819
20
1.5435598818897638
11
0.3747943307086614
21
1.5410053937007873
0
LINE
8
BLACK
6
CONTINUOUS
10
0.3747943307086614
20
1.5410053937007873
11
0.3753937007874016
21
1.5379921259842519
0
LINE
8
BLACK
6
CONTINUOUS
10
0.3753937007874016
20
1.5379921259842519
11
0.3753937007874016
21
1.5163385826771654
0
LINE
8
BLACK
6
CONTINUOUS
10
0.3753937007874016
20
1.5163385826771654
11
0.3747943307086614
21
1.5133253149606298
0
LINE
8
BLACK
6
CONTINUOUS
10
0.3747943307086614
20
1.5133253149606298
11
0.3730874409448819
21
1.5107708267716535
0
LINE
8
BLACK
6
CONTINUOUS
10
0.3730874409448819
20
1.5107708267716535
11
0.3705329527559055
21
1.509063937007874
0
LINE
8
BLACK
6
CONTINUOUS
10
0.3705329527559055
20
1.509063937007874
11
0.36751968503937
21
1.5084645669291339
0
LINE
8
BLACK
6
CONTINUOUS
10
0.36751968503937
20
1.5084645669291339
11
0.3517716535433071
21
1.5084645669291339
0
LINE
8
BLACK
6
CONTINUOUS
10
0.3517716535433071
20
1.5084645669291339
11
0.3487583858267717
21
1.509063937007874
0
LINE
8
BLACK
6
CONTINUOUS
10
0.3487583858267717
20
1.509063937007874
11
0.3462038976377952
21
1.5107708267716535
0
LINE
8
BLACK
6
CONTINUOUS
10
0.3462038976377952
20
1.5107708267716535
11
0.3444970078740157
21
1.5133253149606298
0
LINE
8
BLACK
6
CONTINUOUS
10
0.3444970078740157
20
1.5133253149606298
11
0.3438976377952756
21
1.5163385826771654
0
LINE
8
BLACK
6
CONTINUOUS
10
0.3438976377952756
20
1.5163385826771654
11
0.3438976377952756
21
1.5379921259842519
0
LINE
8
BLACK
6
CONTINUOUS
10
0.3438976377952756
20
1.5379921259842519
11
0.3444970078740157
21
1.5410053937007873
0
LINE
8
BLACK
6
CONTINUOUS
10
0.3444970078740157
20
1.5410053937007873
11
0.3462038976377952
21
1.5435598818897638
0
LINE
8
BLACK
6
CONTINUOUS
10
0.3462038976377952
20
1.5435598818897638
11
0.3487583858267717
21
1.5452667716535433
0
LINE
8
BLACK
6
CONTINUOUS
10
0.3487583858267717
20
1.5452667716535433
11
0.3517716535433071
21
1.5458661417322834
0
LINE
8
BLACK
6
CONTINUOUS
10
0.3517716535433071
20
1.5458661417322834
11
0.36751968503937
21
1.5458661417322834
0
LINE
8
BLACK
6
CONTINUOUS
10
0.36751968503937
20
1.5458661417322834
11
0.3705329527559055
21
1.5452667716535433
0
CIRCLE
8
BLACK
10
0.
20
1.9775590551181101
40
0.0068897637795276
0
CIRCLE
8
BLACK
10
1.2
20
0.0031496062992126
40
0.0068897637795276
0
CIRCLE
8
BLACK
10
0.
20
0.0031496062992126
40
0.0068897637795276
0
CIRCLE
8
BLACK
10
1.2
20
1.9775590551181101
40
0.0068897637795276
0
CIRCLE
8
BLACK
10
0.889763779527559
20
2.0283464566929132
40
0.0068897637795276
0
CIRCLE
8
BLACK
10
0.889763779527559
20
1.9283464566929134
40
0.0068897637795276
0
CIRCLE
8
BLACK
10
0.7897637795275591
20
2.0283464566929132
40
0.0068897637795276
0
CIRCLE
8
BLACK
10
0.7897637795275591
20
1.9283464566929134
40
0.0068897637795276
0
CIRCLE
8
BLACK
10
0.6897637795275591
20
2.0283464566929132
40
0.0068897637795276
0
CIRCLE
8
BLACK
10
0.6897637795275591
20
1.9283464566929134
40
0.0068897637795276
0
CIRCLE
8
BLACK
10
0.5897637795275591
20
2.0283464566929132
40
0.0068897637795276
0
CIRCLE
8
BLACK
10
0.5897637795275591
20
1.9283464566929134
40
0.0068897637795276
0
CIRCLE
8
BLACK
10
0.4897637795275591
20
2.0283464566929132
40
0.0068897637795276
0
CIRCLE
8
BLACK
10
0.4897637795275591
20
1.9283464566929134
40
0.0068897637795276
0
CIRCLE
8
BLACK
10
0.389763779527559
20
2.0283464566929132
40
0.0068897637795276
0
CIRCLE
8
BLACK
10
0.389763779527559
20
1.9283464566929134
40
0.0068897637795276
0
CIRCLE
8
BLACK
10
0.2897637795275591
20
2.0283464566929132
40
0.0068897637795276
0
CIRCLE
8
BLACK
10
0.2897637795275591
20
1.9283464566929134
40
0.0068897637795276
  0
ENDSEC
  0
EOF
