  0
SECTION
  2
HEADER
  9
$ANGBASE
  50
0.0
  9
$ANGDIR
  70
1
  9
$MEASUREMENT
  70
0
  0
ENDSEC
  0
SECTION
  2
TABLES
  0
TABLE
  2
LTYPE
  70
4
  0
LTYPE
  5
40F
  2
CONTINUOUS
  70
0
  3
Solid line
  72
65
  73
0
  40
0.0
  0
LTYPE
  5
410
  2
DASHDOT
 70
0
  3
Dash Dot ____ _ ____ _
 72
65
 73
4
 40
2.0
 49
1.25
 49
-0.25
 49
0.25
 49
-0.25
  0
LTYPE
  5
411
  2
DASHED
 70
0
  3
Dashed __ __ __ __ __
 72
65
 73
2
 40
0.75
 49
0.5
 49
-0.25
  0
LTYPE
  5
43B
  2
DOTTED
 70
0
  3
Dotted .  .  .  .
 72
65
 73
2
 40
0.2
 49
0.0
 49
-0.2
  0
ENDTAB
  0
TABLE
  2
STYLE
  70
4
  0
STYLE
  2
KICAD
  70
0
  40
0
  41
1
  42
1
  50
0
  71
0
  3
isocp.shx
  0
STYLE
  2
KICADB
  70
0
  40
0
  41
1
  42
1
  50
0
  71
0
  3
isocp.shx
  0
STYLE
  2
KICADI
  70
0
  40
0
  41
1
  42
1
  50
15
  71
0
  3
isocp.shx
  0
STYLE
  2
KICADBI
  70
0
  40
0
  41
1
  42
1
  50
15
  71
0
  3
isocp.shx
  0
ENDTAB
  0
TABLE
  2
LAYER
  70
1
  0
LAYER
  2
BLACK
  70
0
  62
7
  6
CONTINUOUS
  0
ENDTAB
  0
ENDSEC
  0
SECTION
  2
ENTITIES
0
LINE
8
BLACK
6
CONTINUOUS
10
0.8972270472440945
20
0.3103581496062992
11
0.8977597244094488
21
0.3098254724409449
0
LINE
8
BLACK
6
CONTINUOUS
10
0.8977597244094488
20
0.3098254724409449
11
0.8978346456692913
21
0.3094488188976378
0
LINE
8
BLACK
6
CONTINUOUS
10
0.8978346456692913
20
0.3094488188976378
11
0.8978346456692913
21
0.2519685039370079
0
LINE
8
BLACK
6
CONTINUOUS
10
0.8978346456692913
20
0.2519685039370079
11
0.8977597244094488
21
0.2515918503937008
0
LINE
8
BLACK
6
CONTINUOUS
10
0.8977597244094488
20
0.2515918503937008
11
0.8972270472440945
21
0.2510591732283465
0
LINE
8
BLACK
6
CONTINUOUS
10
0.8972270472440945
20
0.2510591732283465
11
0.8968503937007873
21
0.2509842519685039
0
LINE
8
BLACK
6
CONTINUOUS
10
0.8968503937007873
20
0.2509842519685039
11
0.7803149606299212
21
0.2509842519685039
0
LINE
8
BLACK
6
CONTINUOUS
10
0.7803149606299212
20
0.2509842519685039
11
0.7799383070866142
21
0.2510591732283465
0
LINE
8
BLACK
6
CONTINUOUS
10
0.7799383070866142
20
0.2510591732283465
11
0.7794056299212598
21
0.2515918503937008
0
LINE
8
BLACK
6
CONTINUOUS
10
0.7794056299212598
20
0.2515918503937008
11
0.7793307086614173
21
0.2519685039370079
0
LINE
8
BLACK
6
CONTINUOUS
10
0.7793307086614173
20
0.2519685039370079
11
0.7793307086614173
21
0.3094488188976378
0
LINE
8
BLACK
6
CONTINUOUS
10
0.7793307086614173
20
0.3094488188976378
11
0.7794056299212598
21
0.3098254724409449
0
LINE
8
BLACK
6
CONTINUOUS
10
0.7794056299212598
20
0.3098254724409449
11
0.7799383070866142
21
0.3103581496062992
0
LINE
8
BLACK
6
CONTINUOUS
10
0.7799383070866142
20
0.3103581496062992
11
0.7803149606299212
21
0.3104330708661417
0
LINE
8
BLACK
6
CONTINUOUS
10
0.7803149606299212
20
0.3104330708661417
11
0.8968503937007873
21
0.3104330708661417
0
LINE
8
BLACK
6
CONTINUOUS
10
0.8968503937007873
20
0.3104330708661417
11
0.8972270472440945
21
0.3103581496062992
0
LINE
8
BLACK
6
CONTINUOUS
10
0.7812992125984252
20
0.3084645669291339
11
0.7812992125984252
21
0.2529527559055118
0
LINE
8
BLACK
6
CONTINUOUS
10
0.7812992125984252
20
0.2529527559055118
11
0.8958661417322834
21
0.2529527559055118
0
LINE
8
BLACK
6
CONTINUOUS
10
0.8958661417322834
20
0.2529527559055118
11
0.8958661417322834
21
0.3084645669291339
0
LINE
8
BLACK
6
CONTINUOUS
10
0.8958661417322834
20
0.3084645669291339
11
0.7812992125984252
21
0.3084645669291339
0
LINE
8
BLACK
6
CONTINUOUS
10
1.0405341338582677
20
0.3123266535433071
11
1.0410668110236221
21
0.3117939763779528
0
LINE
8
BLACK
6
CONTINUOUS
10
1.0410668110236221
20
0.3117939763779528
11
1.0411417322834646
21
0.3114173228346457
0
LINE
8
BLACK
6
CONTINUOUS
10
1.0411417322834646
20
0.3114173228346457
11
1.0411417322834646
21
0.2539370078740157
0
LINE
8
BLACK
6
CONTINUOUS
10
1.0411417322834646
20
0.2539370078740157
11
1.0410668110236221
21
0.2535603543307087
0
LINE
8
BLACK
6
CONTINUOUS
10
1.0410668110236221
20
0.2535603543307087
11
1.0405341338582677
21
0.2530276771653543
0
LINE
8
BLACK
6
CONTINUOUS
10
1.0405341338582677
20
0.2530276771653543
11
1.0401574803149607
21
0.2529527559055118
0
LINE
8
BLACK
6
CONTINUOUS
10
1.0401574803149607
20
0.2529527559055118
11
0.9236220472440945
21
0.2529527559055118
0
LINE
8
BLACK
6
CONTINUOUS
10
0.9236220472440945
20
0.2529527559055118
11
0.9232453937007874
21
0.2530276771653543
0
LINE
8
BLACK
6
CONTINUOUS
10
0.9232453937007874
20
0.2530276771653543
11
0.9227127165354331
21
0.2535603543307087
0
LINE
8
BLACK
6
CONTINUOUS
10
0.9227127165354331
20
0.2535603543307087
11
0.9226377952755905
21
0.2539370078740157
0
LINE
8
BLACK
6
CONTINUOUS
10
0.9226377952755905
20
0.2539370078740157
11
0.9226377952755905
21
0.3114173228346457
0
LINE
8
BLACK
6
CONTINUOUS
10
0.9226377952755905
20
0.3114173228346457
11
0.9227127165354331
21
0.3117939763779528
0
LINE
8
BLACK
6
CONTINUOUS
10
0.9227127165354331
20
0.3117939763779528
11
0.9232453937007874
21
0.3123266535433071
0
LINE
8
BLACK
6
CONTINUOUS
10
0.9232453937007874
20
0.3123266535433071
11
0.9236220472440945
21
0.3124015748031496
0
LINE
8
BLACK
6
CONTINUOUS
10
0.9236220472440945
20
0.3124015748031496
11
1.0401574803149607
21
0.3124015748031496
0
LINE
8
BLACK
6
CONTINUOUS
10
1.0401574803149607
20
0.3124015748031496
11
1.0405341338582677
21
0.3123266535433071
0
LINE
8
BLACK
6
CONTINUOUS
10
0.9246062992125984
20
0.3104330708661417
11
0.9246062992125984
21
0.2549212598425197
0
LINE
8
BLACK
6
CONTINUOUS
10
0.9246062992125984
20
0.2549212598425197
11
1.0391732283464568
21
0.2549212598425197
0
LINE
8
BLACK
6
CONTINUOUS
10
1.0391732283464568
20
0.2549212598425197
11
1.0391732283464568
21
0.3104330708661417
0
LINE
8
BLACK
6
CONTINUOUS
10
1.0391732283464568
20
0.3104330708661417
11
0.9246062992125984
21
0.3104330708661417
0
LINE
8
BLACK
6
CONTINUOUS
10
0.5509672047244094
20
0.3965786220472441
11
0.5514998818897637
21
0.3960459448818898
0
LINE
8
BLACK
6
CONTINUOUS
10
0.5514998818897637
20
0.3960459448818898
11
0.5515748031496063
21
0.3956692913385826
0
LINE
8
BLACK
6
CONTINUOUS
10
0.5515748031496063
20
0.3956692913385826
11
0.5515748031496063
21
0.3381889763779528
0
LINE
8
BLACK
6
CONTINUOUS
10
0.5515748031496063
20
0.3381889763779528
11
0.5514998818897637
21
0.3378123228346457
0
LINE
8
BLACK
6
CONTINUOUS
10
0.5514998818897637
20
0.3378123228346457
11
0.5509672047244094
21
0.3372796456692913
0
LINE
8
BLACK
6
CONTINUOUS
10
0.5509672047244094
20
0.3372796456692913
11
0.5505905511811023
21
0.3372047244094488
0
LINE
8
BLACK
6
CONTINUOUS
10
0.5505905511811023
20
0.3372047244094488
11
0.4340551181102362
21
0.3372047244094488
0
LINE
8
BLACK
6
CONTINUOUS
10
0.4340551181102362
20
0.3372047244094488
11
0.4336784645669291
21
0.3372796456692913
0
LINE
8
BLACK
6
CONTINUOUS
10
0.4336784645669291
20
0.3372796456692913
11
0.4331457874015748
21
0.3378123228346457
0
LINE
8
BLACK
6
CONTINUOUS
10
0.4331457874015748
20
0.3378123228346457
11
0.4330708661417323
21
0.3381889763779528
0
LINE
8
BLACK
6
CONTINUOUS
10
0.4330708661417323
20
0.3381889763779528
11
0.4330708661417323
21
0.3956692913385826
0
LINE
8
BLACK
6
CONTINUOUS
10
0.4330708661417323
20
0.3956692913385826
11
0.4331457874015748
21
0.3960459448818898
0
LINE
8
BLACK
6
CONTINUOUS
10
0.4331457874015748
20
0.3960459448818898
11
0.4336784645669291
21
0.3965786220472441
0
LINE
8
BLACK
6
CONTINUOUS
10
0.4336784645669291
20
0.3965786220472441
11
0.4340551181102362
21
0.3966535433070866
0
LINE
8
BLACK
6
CONTINUOUS
10
0.4340551181102362
20
0.3966535433070866
11
0.5505905511811023
21
0.3966535433070866
0
LINE
8
BLACK
6
CONTINUOUS
10
0.5505905511811023
20
0.3966535433070866
11
0.5509672047244094
21
0.3965786220472441
0
LINE
8
BLACK
6
CONTINUOUS
10
0.4350393700787402
20
0.3946850393700787
11
0.4350393700787402
21
0.3391732283464567
0
LINE
8
BLACK
6
CONTINUOUS
10
0.4350393700787402
20
0.3391732283464567
11
0.5496062992125984
21
0.3391732283464567
0
LINE
8
BLACK
6
CONTINUOUS
10
0.5496062992125984
20
0.3391732283464567
11
0.5496062992125984
21
0.3946850393700787
0
LINE
8
BLACK
6
CONTINUOUS
10
0.5496062992125984
20
0.3946850393700787
11
0.4350393700787402
21
0.3946850393700787
0
LINE
8
BLACK
6
CONTINUOUS
10
0.8794120866141732
20
0.5056337401574803
11
0.8799447637795276
21
0.505101062992126
0
LINE
8
BLACK
6
CONTINUOUS
10
0.8799447637795276
20
0.505101062992126
11
0.88001968503937
21
0.5047244094488189
0
LINE
8
BLACK
6
CONTINUOUS
10
0.88001968503937
20
0.5047244094488189
11
0.88001968503937
21
0.4978346456692913
0
LINE
8
BLACK
6
CONTINUOUS
10
0.88001968503937
20
0.4978346456692913
11
0.9184055118110236
21
0.4978346456692913
0
LINE
8
BLACK
6
CONTINUOUS
10
0.9184055118110236
20
0.4978346456692913
11
0.9187821653543307
21
0.4977597244094488
0
LINE
8
BLACK
6
CONTINUOUS
10
0.9187821653543307
20
0.4977597244094488
11
0.919314842519685
21
0.4972270472440945
0
LINE
8
BLACK
6
CONTINUOUS
10
0.919314842519685
20
0.4972270472440945
11
0.9193897637795275
21
0.4968503937007874
0
LINE
8
BLACK
6
CONTINUOUS
10
0.9193897637795275
20
0.4968503937007874
11
0.9193897637795275
21
0.378740157480315
0
LINE
8
BLACK
6
CONTINUOUS
10
0.9193897637795275
20
0.378740157480315
11
0.919314842519685
21
0.3783635039370079
0
LINE
8
BLACK
6
CONTINUOUS
10
0.919314842519685
20
0.3783635039370079
11
0.9187821653543307
21
0.3778308267716535
0
LINE
8
BLACK
6
CONTINUOUS
10
0.9187821653543307
20
0.3778308267716535
11
0.9184055118110236
21
0.377755905511811
0
LINE
8
BLACK
6
CONTINUOUS
10
0.9184055118110236
20
0.377755905511811
11
0.88001968503937
21
0.377755905511811
0
LINE
8
BLACK
6
CONTINUOUS
10
0.88001968503937
20
0.377755905511811
11
0.88001968503937
21
0.3708661417322834
0
LINE
8
BLACK
6
CONTINUOUS
10
0.88001968503937
20
0.3708661417322834
11
0.8799447637795276
21
0.3704894881889764
0
LINE
8
BLACK
6
CONTINUOUS
10
0.8799447637795276
20
0.3704894881889764
11
0.8794120866141732
21
0.369956811023622
0
LINE
8
BLACK
6
CONTINUOUS
10
0.8794120866141732
20
0.369956811023622
11
0.8790354330708661
21
0.3698818897637795
0
LINE
8
BLACK
6
CONTINUOUS
10
0.8790354330708661
20
0.3698818897637795
11
0.7963582677165354
21
0.3698818897637795
0
LINE
8
BLACK
6
CONTINUOUS
10
0.7963582677165354
20
0.3698818897637795
11
0.7959816141732283
21
0.369956811023622
0
LINE
8
BLACK
6
CONTINUOUS
10
0.7959816141732283
20
0.369956811023622
11
0.795448937007874
21
0.3704894881889764
0
LINE
8
BLACK
6
CONTINUOUS
10
0.795448937007874
20
0.3704894881889764
11
0.7953740157480315
21
0.3708661417322834
0
LINE
8
BLACK
6
CONTINUOUS
10
0.7953740157480315
20
0.3708661417322834
11
0.7953740157480315
21
0.377755905511811
0
LINE
8
BLACK
6
CONTINUOUS
10
0.7953740157480315
20
0.377755905511811
11
0.756988188976378
21
0.377755905511811
0
LINE
8
BLACK
6
CONTINUOUS
10
0.756988188976378
20
0.377755905511811
11
0.7566115354330708
21
0.3778308267716535
0
LINE
8
BLACK
6
CONTINUOUS
10
0.7566115354330708
20
0.3778308267716535
11
0.7560788582677165
21
0.3783635039370079
0
LINE
8
BLACK
6
CONTINUOUS
10
0.7560788582677165
20
0.3783635039370079
11
0.756003937007874
21
0.378740157480315
0
LINE
8
BLACK
6
CONTINUOUS
10
0.756003937007874
20
0.378740157480315
11
0.756003937007874
21
0.4224409448818898
0
LINE
8
BLACK
6
CONTINUOUS
10
0.756003937007874
20
0.4224409448818898
11
0.7560788582677165
21
0.4228175984251968
0
LINE
8
BLACK
6
CONTINUOUS
10
0.7560788582677165
20
0.4228175984251968
11
0.7566115354330708
21
0.4233502755905512
0
LINE
8
BLACK
6
CONTINUOUS
10
0.7566115354330708
20
0.4233502755905512
11
0.756988188976378
21
0.4234251968503937
0
LINE
8
BLACK
6
CONTINUOUS
10
0.756988188976378
20
0.4234251968503937
11
0.7953740157480315
21
0.4234251968503937
0
LINE
8
BLACK
6
CONTINUOUS
10
0.7953740157480315
20
0.4234251968503937
11
0.7953740157480315
21
0.4521653543307086
0
LINE
8
BLACK
6
CONTINUOUS
10
0.7953740157480315
20
0.4521653543307086
11
0.756988188976378
21
0.4521653543307086
0
LINE
8
BLACK
6
CONTINUOUS
10
0.756988188976378
20
0.4521653543307086
11
0.7566115354330708
21
0.4522402755905512
0
LINE
8
BLACK
6
CONTINUOUS
10
0.7566115354330708
20
0.4522402755905512
11
0.7560788582677165
21
0.4527729527559055
0
LINE
8
BLACK
6
CONTINUOUS
10
0.7560788582677165
20
0.4527729527559055
11
0.756003937007874
21
0.4531496062992126
0
LINE
8
BLACK
6
CONTINUOUS
10
0.756003937007874
20
0.4531496062992126
11
0.756003937007874
21
0.4968503937007874
0
LINE
8
BLACK
6
CONTINUOUS
10
0.756003937007874
20
0.4968503937007874
11
0.7560788582677165
21
0.4972270472440945
0
LINE
8
BLACK
6
CONTINUOUS
10
0.7560788582677165
20
0.4972270472440945
11
0.7566115354330708
21
0.4977597244094488
0
LINE
8
BLACK
6
CONTINUOUS
10
0.7566115354330708
20
0.4977597244094488
11
0.756988188976378
21
0.4978346456692913
0
LINE
8
BLACK
6
CONTINUOUS
10
0.756988188976378
20
0.4978346456692913
11
0.7953740157480315
21
0.4978346456692913
0
LINE
8
BLACK
6
CONTINUOUS
10
0.7953740157480315
20
0.4978346456692913
11
0.7953740157480315
21
0.5047244094488189
0
LINE
8
BLACK
6
CONTINUOUS
10
0.7953740157480315
20
0.5047244094488189
11
0.795448937007874
21
0.505101062992126
0
LINE
8
BLACK
6
CONTINUOUS
10
0.795448937007874
20
0.505101062992126
11
0.7959816141732283
21
0.5056337401574803
0
LINE
8
BLACK
6
CONTINUOUS
10
0.7959816141732283
20
0.5056337401574803
11
0.7963582677165354
21
0.5057086614173228
0
LINE
8
BLACK
6
CONTINUOUS
10
0.7963582677165354
20
0.5057086614173228
11
0.8790354330708661
21
0.5057086614173228
0
LINE
8
BLACK
6
CONTINUOUS
10
0.8790354330708661
20
0.5057086614173228
11
0.8794120866141732
21
0.5056337401574803
0
LINE
8
BLACK
6
CONTINUOUS
10
0.7973425196850393
20
0.503740157480315
11
0.7973425196850393
21
0.4968503937007874
0
LINE
8
BLACK
6
CONTINUOUS
10
0.7973425196850393
20
0.4968503937007874
11
0.7972675984251968
21
0.4964737401574803
0
LINE
8
BLACK
6
CONTINUOUS
10
0.7972675984251968
20
0.4964737401574803
11
0.7967349212598425
21
0.495941062992126
0
LINE
8
BLACK
6
CONTINUOUS
10
0.7967349212598425
20
0.495941062992126
11
0.7963582677165354
21
0.4958661417322834
0
LINE
8
BLACK
6
CONTINUOUS
10
0.7963582677165354
20
0.4958661417322834
11
0.7579724409448819
21
0.4958661417322834
0
LINE
8
BLACK
6
CONTINUOUS
10
0.7579724409448819
20
0.4958661417322834
11
0.7579724409448819
21
0.4541338582677165
0
LINE
8
BLACK
6
CONTINUOUS
10
0.7579724409448819
20
0.4541338582677165
11
0.7963582677165354
21
0.4541338582677165
0
LINE
8
BLACK
6
CONTINUOUS
10
0.7963582677165354
20
0.4541338582677165
11
0.7967349212598425
21
0.454058937007874
0
LINE
8
BLACK
6
CONTINUOUS
10
0.7967349212598425
20
0.454058937007874
11
0.7972675984251968
21
0.4535262598425197
0
LINE
8
BLACK
6
CONTINUOUS
10
0.7972675984251968
20
0.4535262598425197
11
0.7973425196850393
21
0.4531496062992126
0
LINE
8
BLACK
6
CONTINUOUS
10
0.7973425196850393
20
0.4531496062992126
11
0.7973425196850393
21
0.4224409448818898
0
LINE
8
BLACK
6
CONTINUOUS
10
0.7973425196850393
20
0.4224409448818898
11
0.7972675984251968
21
0.4220642913385826
0
LINE
8
BLACK
6
CONTINUOUS
10
0.7972675984251968
20
0.4220642913385826
11
0.7967349212598425
21
0.4215316141732283
0
LINE
8
BLACK
6
CONTINUOUS
10
0.7967349212598425
20
0.4215316141732283
11
0.7963582677165354
21
0.4214566929133858
0
LINE
8
BLACK
6
CONTINUOUS
10
0.7963582677165354
20
0.4214566929133858
11
0.7579724409448819
21
0.4214566929133858
0
LINE
8
BLACK
6
CONTINUOUS
10
0.7579724409448819
20
0.4214566929133858
11
0.7579724409448819
21
0.3797244094488189
0
LINE
8
BLACK
6
CONTINUOUS
10
0.7579724409448819
20
0.3797244094488189
11
0.7963582677165354
21
0.3797244094488189
0
LINE
8
BLACK
6
CONTINUOUS
10
0.7963582677165354
20
0.3797244094488189
11
0.7967349212598425
21
0.3796494881889764
0
LINE
8
BLACK
6
CONTINUOUS
10
0.7967349212598425
20
0.3796494881889764
11
0.7972675984251968
21
0.379116811023622
0
LINE
8
BLACK
6
CONTINUOUS
10
0.7972675984251968
20
0.379116811023622
11
0.7973425196850393
21
0.378740157480315
0
LINE
8
BLACK
6
CONTINUOUS
10
0.7973425196850393
20
0.378740157480315
11
0.7973425196850393
21
0.3718503937007874
0
LINE
8
BLACK
6
CONTINUOUS
10
0.7973425196850393
20
0.3718503937007874
11
0.8780511811023621
21
0.3718503937007874
0
LINE
8
BLACK
6
CONTINUOUS
10
0.8780511811023621
20
0.3718503937007874
11
0.8780511811023621
21
0.378740157480315
0
LINE
8
BLACK
6
CONTINUOUS
10
0.8780511811023621
20
0.378740157480315
11
0.8781261023622047
21
0.379116811023622
0
LINE
8
BLACK
6
CONTINUOUS
10
0.8781261023622047
20
0.379116811023622
11
0.878658779527559
21
0.3796494881889764
0
LINE
8
BLACK
6
CONTINUOUS
10
0.878658779527559
20
0.3796494881889764
11
0.8790354330708661
21
0.3797244094488189
0
LINE
8
BLACK
6
CONTINUOUS
10
0.8790354330708661
20
0.3797244094488189
11
0.9174212598425197
21
0.3797244094488189
0
LINE
8
BLACK
6
CONTINUOUS
10
0.9174212598425197
20
0.3797244094488189
11
0.9174212598425197
21
0.4958661417322834
0
LINE
8
BLACK
6
CONTINUOUS
10
0.9174212598425197
20
0.4958661417322834
11
0.8790354330708661
21
0.4958661417322834
0
LINE
8
BLACK
6
CONTINUOUS
10
0.8790354330708661
20
0.4958661417322834
11
0.878658779527559
21
0.495941062992126
0
LINE
8
BLACK
6
CONTINUOUS
10
0.878658779527559
20
0.495941062992126
11
0.8781261023622047
21
0.4964737401574803
0
LINE
8
BLACK
6
CONTINUOUS
10
0.8781261023622047
20
0.4964737401574803
11
0.8780511811023621
21
0.4968503937007874
0
LINE
8
BLACK
6
CONTINUOUS
10
0.8780511811023621
20
0.4968503937007874
11
0.8780511811023621
21
0.503740157480315
0
LINE
8
BLACK
6
CONTINUOUS
10
0.8780511811023621
20
0.503740157480315
11
0.7973425196850393
21
0.503740157480315
0
LINE
8
BLACK
6
CONTINUOUS
10
1.0259672047244095
20
0.501303031496063
11
1.0264998818897637
21
0.5007703543307086
0
LINE
8
BLACK
6
CONTINUOUS
10
1.0264998818897637
20
0.5007703543307086
11
1.0265748031496063
21
0.5003937007874015
0
LINE
8
BLACK
6
CONTINUOUS
10
1.0265748031496063
20
0.5003937007874015
11
1.0265748031496063
21
0.3838582677165354
0
LINE
8
BLACK
6
CONTINUOUS
10
1.0265748031496063
20
0.3838582677165354
11
1.0264998818897637
21
0.3834816141732283
0
LINE
8
BLACK
6
CONTINUOUS
10
1.0264998818897637
20
0.3834816141732283
11
1.0259672047244095
21
0.382948937007874
0
LINE
8
BLACK
6
CONTINUOUS
10
1.0259672047244095
20
0.382948937007874
11
1.0255905511811023
21
0.3828740157480315
0
LINE
8
BLACK
6
CONTINUOUS
10
1.0255905511811023
20
0.3828740157480315
11
0.9681102362204724
21
0.3828740157480315
0
LINE
8
BLACK
6
CONTINUOUS
10
0.9681102362204724
20
0.3828740157480315
11
0.9677335826771654
21
0.382948937007874
0
LINE
8
BLACK
6
CONTINUOUS
10
0.9677335826771654
20
0.382948937007874
11
0.967200905511811
21
0.3834816141732283
0
LINE
8
BLACK
6
CONTINUOUS
10
0.967200905511811
20
0.3834816141732283
11
0.9671259842519685
21
0.3838582677165354
0
LINE
8
BLACK
6
CONTINUOUS
10
0.9671259842519685
20
0.3838582677165354
11
0.9671259842519685
21
0.5003937007874015
0
LINE
8
BLACK
6
CONTINUOUS
10
0.9671259842519685
20
0.5003937007874015
11
0.967200905511811
21
0.5007703543307086
0
LINE
8
BLACK
6
CONTINUOUS
10
0.967200905511811
20
0.5007703543307086
11
0.9677335826771654
21
0.501303031496063
0
LINE
8
BLACK
6
CONTINUOUS
10
0.9677335826771654
20
0.501303031496063
11
0.9681102362204724
21
0.5013779527559055
0
LINE
8
BLACK
6
CONTINUOUS
10
0.9681102362204724
20
0.5013779527559055
11
1.0255905511811023
21
0.5013779527559055
0
LINE
8
BLACK
6
CONTINUOUS
10
1.0255905511811023
20
0.5013779527559055
11
1.0259672047244095
21
0.501303031496063
0
LINE
8
BLACK
6
CONTINUOUS
10
0.9690944881889764
20
0.4994094488188976
11
0.9690944881889764
21
0.3848425196850394
0
LINE
8
BLACK
6
CONTINUOUS
10
0.9690944881889764
20
0.3848425196850394
11
1.0246062992125984
21
0.3848425196850394
0
LINE
8
BLACK
6
CONTINUOUS
10
1.0246062992125984
20
0.3848425196850394
11
1.0246062992125984
21
0.4994094488188976
0
LINE
8
BLACK
6
CONTINUOUS
10
1.0246062992125984
20
0.4994094488188976
11
0.9690944881889764
21
0.4994094488188976
0
LINE
8
BLACK
6
CONTINUOUS
10
0.8574632677165354
20
0.5839801968503937
11
0.8579959448818898
21
0.5834475196850394
0
LINE
8
BLACK
6
CONTINUOUS
10
0.8579959448818898
20
0.5834475196850394
11
0.8580708661417322
21
0.5830708661417323
0
LINE
8
BLACK
6
CONTINUOUS
10
0.8580708661417322
20
0.5830708661417323
11
0.8580708661417322
21
0.5255905511811023
0
LINE
8
BLACK
6
CONTINUOUS
10
0.8580708661417322
20
0.5255905511811023
11
0.8579959448818898
21
0.5252138976377952
0
LINE
8
BLACK
6
CONTINUOUS
10
0.8579959448818898
20
0.5252138976377952
11
0.8574632677165354
21
0.5246812204724409
0
LINE
8
BLACK
6
CONTINUOUS
10
0.8574632677165354
20
0.5246812204724409
11
0.8570866141732283
21
0.5246062992125984
0
LINE
8
BLACK
6
CONTINUOUS
10
0.8570866141732283
20
0.5246062992125984
11
0.7405511811023622
21
0.5246062992125984
0
LINE
8
BLACK
6
CONTINUOUS
10
0.7405511811023622
20
0.5246062992125984
11
0.7401745275590551
21
0.5246812204724409
0
LINE
8
BLACK
6
CONTINUOUS
10
0.7401745275590551
20
0.5246812204724409
11
0.7396418503937008
21
0.5252138976377952
0
LINE
8
BLACK
6
CONTINUOUS
10
0.7396418503937008
20
0.5252138976377952
11
0.7395669291338582
21
0.5255905511811023
0
LINE
8
BLACK
6
CONTINUOUS
10
0.7395669291338582
20
0.5255905511811023
11
0.7395669291338582
21
0.5830708661417323
0
LINE
8
BLACK
6
CONTINUOUS
10
0.7395669291338582
20
0.5830708661417323
11
0.7396418503937008
21
0.5834475196850394
0
LINE
8
BLACK
6
CONTINUOUS
10
0.7396418503937008
20
0.5834475196850394
11
0.7401745275590551
21
0.5839801968503937
0
LINE
8
BLACK
6
CONTINUOUS
10
0.7401745275590551
20
0.5839801968503937
11
0.7405511811023622
21
0.5840551181102362
0
LINE
8
BLACK
6
CONTINUOUS
10
0.7405511811023622
20
0.5840551181102362
11
0.8570866141732283
21
0.5840551181102362
0
LINE
8
BLACK
6
CONTINUOUS
10
0.8570866141732283
20
0.5840551181102362
11
0.8574632677165354
21
0.5839801968503937
0
LINE
8
BLACK
6
CONTINUOUS
10
0.7415354330708661
20
0.5820866141732284
11
0.7415354330708661
21
0.5265748031496063
0
LINE
8
BLACK
6
CONTINUOUS
10
0.7415354330708661
20
0.5265748031496063
11
0.8561023622047244
21
0.5265748031496063
0
LINE
8
BLACK
6
CONTINUOUS
10
0.8561023622047244
20
0.5265748031496063
11
0.8561023622047244
21
0.5820866141732284
0
LINE
8
BLACK
6
CONTINUOUS
10
0.8561023622047244
20
0.5820866141732284
11
0.7415354330708661
21
0.5820866141732284
0
LINE
8
BLACK
6
CONTINUOUS
10
0.9872861023622047
20
0.7099644488188976
11
0.987818779527559
21
0.7094317716535433
0
LINE
8
BLACK
6
CONTINUOUS
10
0.987818779527559
20
0.7094317716535433
11
0.9878937007874016
21
0.7090551181102362
0
LINE
8
BLACK
6
CONTINUOUS
10
0.9878937007874016
20
0.7090551181102362
11
0.9878937007874016
21
0.7021653543307086
0
LINE
8
BLACK
6
CONTINUOUS
10
0.9878937007874016
20
0.7021653543307086
11
1.0274606299212599
21
0.7021653543307086
0
LINE
8
BLACK
6
CONTINUOUS
10
1.0274606299212599
20
0.7021653543307086
11
1.0278372834645668
21
0.7020904330708662
0
LINE
8
BLACK
6
CONTINUOUS
10
1.0278372834645668
20
0.7020904330708662
11
1.0283699606299213
21
0.7015577559055118
0
LINE
8
BLACK
6
CONTINUOUS
10
1.0283699606299213
20
0.7015577559055118
11
1.0284448818897638
21
0.7011811023622047
0
LINE
8
BLACK
6
CONTINUOUS
10
1.0284448818897638
20
0.7011811023622047
11
1.0284448818897638
21
0.6574803149606299
0
LINE
8
BLACK
6
CONTINUOUS
10
1.0284448818897638
20
0.6574803149606299
11
1.0283699606299213
21
0.6571036614173228
0
LINE
8
BLACK
6
CONTINUOUS
10
1.0283699606299213
20
0.6571036614173228
11
1.0278372834645668
21
0.6565709842519685
0
LINE
8
BLACK
6
CONTINUOUS
10
1.0278372834645668
20
0.6565709842519685
11
1.0274606299212599
21
0.6564960629921259
0
LINE
8
BLACK
6
CONTINUOUS
10
1.0274606299212599
20
0.6564960629921259
11
0.9878937007874016
21
0.6564960629921259
0
LINE
8
BLACK
6
CONTINUOUS
10
0.9878937007874016
20
0.6564960629921259
11
0.9878937007874016
21
0.627755905511811
0
LINE
8
BLACK
6
CONTINUOUS
10
0.9878937007874016
20
0.627755905511811
11
1.0274606299212599
21
0.627755905511811
0
LINE
8
BLACK
6
CONTINUOUS
10
1.0274606299212599
20
0.627755905511811
11
1.0278372834645668
21
0.6276809842519685
0
LINE
8
BLACK
6
CONTINUOUS
10
1.0278372834645668
20
0.6276809842519685
11
1.0283699606299213
21
0.6271483070866142
0
LINE
8
BLACK
6
CONTINUOUS
10
1.0283699606299213
20
0.6271483070866142
11
1.0284448818897638
21
0.6267716535433071
0
LINE
8
BLACK
6
CONTINUOUS
10
1.0284448818897638
20
0.6267716535433071
11
1.0284448818897638
21
0.5830708661417323
0
LINE
8
BLACK
6
CONTINUOUS
10
1.0284448818897638
20
0.5830708661417323
11
1.0283699606299213
21
0.5826942125984251
0
LINE
8
BLACK
6
CONTINUOUS
10
1.0283699606299213
20
0.5826942125984251
11
1.0278372834645668
21
0.5821615354330708
0
LINE
8
BLACK
6
CONTINUOUS
10
1.0278372834645668
20
0.5821615354330708
11
1.0274606299212599
21
0.5820866141732284
0
LINE
8
BLACK
6
CONTINUOUS
10
1.0274606299212599
20
0.5820866141732284
11
0.9878937007874016
21
0.5820866141732284
0
LINE
8
BLACK
6
CONTINUOUS
10
0.9878937007874016
20
0.5820866141732284
11
0.9878937007874016
21
0.5751968503937007
0
LINE
8
BLACK
6
CONTINUOUS
10
0.9878937007874016
20
0.5751968503937007
11
0.987818779527559
21
0.5748201968503936
0
LINE
8
BLACK
6
CONTINUOUS
10
0.987818779527559
20
0.5748201968503936
11
0.9872861023622047
21
0.5742875196850393
0
LINE
8
BLACK
6
CONTINUOUS
10
0.9872861023622047
20
0.5742875196850393
11
0.9869094488188976
21
0.5742125984251968
0
LINE
8
BLACK
6
CONTINUOUS
10
0.9869094488188976
20
0.5742125984251968
11
0.9160433070866142
21
0.5742125984251968
0
LINE
8
BLACK
6
CONTINUOUS
10
0.9160433070866142
20
0.5742125984251968
11
0.9156666535433071
21
0.5742875196850393
0
LINE
8
BLACK
6
CONTINUOUS
10
0.9156666535433071
20
0.5742875196850393
11
0.9151339763779527
21
0.5748201968503936
0
LINE
8
BLACK
6
CONTINUOUS
10
0.9151339763779527
20
0.5748201968503936
11
0.9150590551181103
21
0.5751968503937007
0
LINE
8
BLACK
6
CONTINUOUS
10
0.9150590551181103
20
0.5751968503937007
11
0.9150590551181103
21
0.6194881889763779
0
LINE
8
BLACK
6
CONTINUOUS
10
0.9150590551181103
20
0.6194881889763779
11
0.875492125984252
21
0.6194881889763779
0
LINE
8
BLACK
6
CONTINUOUS
10
0.875492125984252
20
0.6194881889763779
11
0.8751154724409449
21
0.6195631102362205
0
LINE
8
BLACK
6
CONTINUOUS
10
0.8751154724409449
20
0.6195631102362205
11
0.8745827952755906
21
0.6200957874015748
0
LINE
8
BLACK
6
CONTINUOUS
10
0.8745827952755906
20
0.6200957874015748
11
0.874507874015748
21
0.6204724409448819
0
LINE
8
BLACK
6
CONTINUOUS
10
0.874507874015748
20
0.6204724409448819
11
0.874507874015748
21
0.6637795275590551
0
LINE
8
BLACK
6
CONTINUOUS
10
0.874507874015748
20
0.6637795275590551
11
0.8745827952755906
21
0.6641561811023622
0
LINE
8
BLACK
6
CONTINUOUS
10
0.8745827952755906
20
0.6641561811023622
11
0.8751154724409449
21
0.6646888582677165
0
LINE
8
BLACK
6
CONTINUOUS
10
0.8751154724409449
20
0.6646888582677165
11
0.875492125984252
21
0.6647637795275591
0
LINE
8
BLACK
6
CONTINUOUS
10
0.875492125984252
20
0.6647637795275591
11
0.9150590551181103
21
0.6647637795275591
0
LINE
8
BLACK
6
CONTINUOUS
10
0.9150590551181103
20
0.6647637795275591
11
0.9150590551181103
21
0.7090551181102362
0
LINE
8
BLACK
6
CONTINUOUS
10
0.9150590551181103
20
0.7090551181102362
11
0.9151339763779527
21
0.7094317716535433
0
LINE
8
BLACK
6
CONTINUOUS
10
0.9151339763779527
20
0.7094317716535433
11
0.9156666535433071
21
0.7099644488188976
0
LINE
8
BLACK
6
CONTINUOUS
10
0.9156666535433071
20
0.7099644488188976
11
0.9160433070866142
21
0.7100393700787402
0
LINE
8
BLACK
6
CONTINUOUS
10
0.9160433070866142
20
0.7100393700787402
11
0.9869094488188976
21
0.7100393700787402
0
LINE
8
BLACK
6
CONTINUOUS
10
0.9869094488188976
20
0.7100393700787402
11
0.9872861023622047
21
0.7099644488188976
0
LINE
8
BLACK
6
CONTINUOUS
10
0.9170275590551181
20
0.7080708661417323
11
0.9170275590551181
21
0.6637795275590551
0
LINE
8
BLACK
6
CONTINUOUS
10
0.9170275590551181
20
0.6637795275590551
11
0.9169526377952756
21
0.663402874015748
0
LINE
8
BLACK
6
CONTINUOUS
10
0.9169526377952756
20
0.663402874015748
11
0.9164199606299213
21
0.6628701968503937
0
LINE
8
BLACK
6
CONTINUOUS
10
0.9164199606299213
20
0.6628701968503937
11
0.9160433070866142
21
0.6627952755905512
0
LINE
8
BLACK
6
CONTINUOUS
10
0.9160433070866142
20
0.6627952755905512
11
0.8764763779527559
21
0.6627952755905512
0
LINE
8
BLACK
6
CONTINUOUS
10
0.8764763779527559
20
0.6627952755905512
11
0.8764763779527559
21
0.6214566929133858
0
LINE
8
BLACK
6
CONTINUOUS
10
0.8764763779527559
20
0.6214566929133858
11
0.9160433070866142
21
0.6214566929133858
0
LINE
8
BLACK
6
CONTINUOUS
10
0.9160433070866142
20
0.6214566929133858
11
0.9164199606299213
21
0.6213817716535432
0
LINE
8
BLACK
6
CONTINUOUS
10
0.9164199606299213
20
0.6213817716535432
11
0.9169526377952756
21
0.6208490944881889
0
LINE
8
BLACK
6
CONTINUOUS
10
0.9169526377952756
20
0.6208490944881889
11
0.9170275590551181
21
0.6204724409448819
0
LINE
8
BLACK
6
CONTINUOUS
10
0.9170275590551181
20
0.6204724409448819
11
0.9170275590551181
21
0.5761811023622048
0
LINE
8
BLACK
6
CONTINUOUS
10
0.9170275590551181
20
0.5761811023622048
11
0.9859251968503937
21
0.5761811023622048
0
LINE
8
BLACK
6
CONTINUOUS
10
0.9859251968503937
20
0.5761811023622048
11
0.9859251968503937
21
0.5830708661417323
0
LINE
8
BLACK
6
CONTINUOUS
10
0.9859251968503937
20
0.5830708661417323
11
0.9860001181102362
21
0.5834475196850394
0
LINE
8
BLACK
6
CONTINUOUS
10
0.9860001181102362
20
0.5834475196850394
11
0.9865327952755906
21
0.5839801968503937
0
LINE
8
BLACK
6
CONTINUOUS
10
0.9865327952755906
20
0.5839801968503937
11
0.9869094488188976
21
0.5840551181102362
0
LINE
8
BLACK
6
CONTINUOUS
10
0.9869094488188976
20
0.5840551181102362
11
1.0264763779527559
21
0.5840551181102362
0
LINE
8
BLACK
6
CONTINUOUS
10
1.0264763779527559
20
0.5840551181102362
11
1.0264763779527559
21
0.6257874015748032
0
LINE
8
BLACK
6
CONTINUOUS
10
1.0264763779527559
20
0.6257874015748032
11
0.9869094488188976
21
0.6257874015748032
0
LINE
8
BLACK
6
CONTINUOUS
10
0.9869094488188976
20
0.6257874015748032
11
0.9865327952755906
21
0.6258623228346456
0
LINE
8
BLACK
6
CONTINUOUS
10
0.9865327952755906
20
0.6258623228346456
11
0.9860001181102362
21
0.626395
0
LINE
8
BLACK
6
CONTINUOUS
10
0.9860001181102362
20
0.626395
11
0.9859251968503937
21
0.6267716535433071
0
LINE
8
BLACK
6
CONTINUOUS
10
0.9859251968503937
20
0.6267716535433071
11
0.9859251968503937
21
0.6574803149606299
0
LINE
8
BLACK
6
CONTINUOUS
10
0.9859251968503937
20
0.6574803149606299
11
0.9860001181102362
21
0.657856968503937
0
LINE
8
BLACK
6
CONTINUOUS
10
0.9860001181102362
20
0.657856968503937
11
0.9865327952755906
21
0.6583896456692914
0
LINE
8
BLACK
6
CONTINUOUS
10
0.9865327952755906
20
0.6583896456692914
11
0.9869094488188976
21
0.6584645669291338
0
LINE
8
BLACK
6
CONTINUOUS
10
0.9869094488188976
20
0.6584645669291338
11
1.0264763779527559
21
0.6584645669291338
0
LINE
8
BLACK
6
CONTINUOUS
10
1.0264763779527559
20
0.6584645669291338
11
1.0264763779527559
21
0.7001968503937007
0
LINE
8
BLACK
6
CONTINUOUS
10
1.0264763779527559
20
0.7001968503937007
11
0.9869094488188976
21
0.7001968503937007
0
LINE
8
BLACK
6
CONTINUOUS
10
0.9869094488188976
20
0.7001968503937007
11
0.9865327952755906
21
0.7002717716535433
0
LINE
8
BLACK
6
CONTINUOUS
10
0.9865327952755906
20
0.7002717716535433
11
0.9860001181102362
21
0.7008044488188976
0
LINE
8
BLACK
6
CONTINUOUS
10
0.9860001181102362
20
0.7008044488188976
11
0.9859251968503937
21
0.7011811023622047
0
LINE
8
BLACK
6
CONTINUOUS
10
0.9859251968503937
20
0.7011811023622047
11
0.9859251968503937
21
0.7080708661417323
0
LINE
8
BLACK
6
CONTINUOUS
10
0.9859251968503937
20
0.7080708661417323
11
0.9170275590551181
21
0.7080708661417323
0
LINE
8
BLACK
6
CONTINUOUS
10
0.8574632677165354
20
0.6729565748031496
11
0.8579959448818898
21
0.6724238976377953
0
LINE
8
BLACK
6
CONTINUOUS
10
0.8579959448818898
20
0.6724238976377953
11
0.8580708661417322
21
0.6720472440944881
0
LINE
8
BLACK
6
CONTINUOUS
10
0.8580708661417322
20
0.6720472440944881
11
0.8580708661417322
21
0.6145669291338582
0
LINE
8
BLACK
6
CONTINUOUS
10
0.8580708661417322
20
0.6145669291338582
11
0.8579959448818898
21
0.6141902755905512
0
LINE
8
BLACK
6
CONTINUOUS
10
0.8579959448818898
20
0.6141902755905512
11
0.8574632677165354
21
0.6136575984251968
0
LINE
8
BLACK
6
CONTINUOUS
10
0.8574632677165354
20
0.6136575984251968
11
0.8570866141732283
21
0.6135826771653543
0
LINE
8
BLACK
6
CONTINUOUS
10
0.8570866141732283
20
0.6135826771653543
11
0.7405511811023622
21
0.6135826771653543
0
LINE
8
BLACK
6
CONTINUOUS
10
0.7405511811023622
20
0.6135826771653543
11
0.7401745275590551
21
0.6136575984251968
0
LINE
8
BLACK
6
CONTINUOUS
10
0.7401745275590551
20
0.6136575984251968
11
0.7396418503937008
21
0.6141902755905512
0
LINE
8
BLACK
6
CONTINUOUS
10
0.7396418503937008
20
0.6141902755905512
11
0.7395669291338582
21
0.6145669291338582
0
LINE
8
BLACK
6
CONTINUOUS
10
0.7395669291338582
20
0.6145669291338582
11
0.7395669291338582
21
0.6720472440944881
0
LINE
8
BLACK
6
CONTINUOUS
10
0.7395669291338582
20
0.6720472440944881
11
0.7396418503937008
21
0.6724238976377953
0
LINE
8
BLACK
6
CONTINUOUS
10
0.7396418503937008
20
0.6724238976377953
11
0.7401745275590551
21
0.6729565748031496
0
LINE
8
BLACK
6
CONTINUOUS
10
0.7401745275590551
20
0.6729565748031496
11
0.7405511811023622
21
0.6730314960629921
0
LINE
8
BLACK
6
CONTINUOUS
10
0.7405511811023622
20
0.6730314960629921
11
0.8570866141732283
21
0.6730314960629921
0
LINE
8
BLACK
6
CONTINUOUS
10
0.8570866141732283
20
0.6730314960629921
11
0.8574632677165354
21
0.6729565748031496
0
LINE
8
BLACK
6
CONTINUOUS
10
0.7415354330708661
20
0.6710629921259842
11
0.7415354330708661
21
0.6155511811023622
0
LINE
8
BLACK
6
CONTINUOUS
10
0.7415354330708661
20
0.6155511811023622
11
0.8561023622047244
21
0.6155511811023622
0
LINE
8
BLACK
6
CONTINUOUS
10
0.8561023622047244
20
0.6155511811023622
11
0.8561023622047244
21
0.6710629921259842
0
LINE
8
BLACK
6
CONTINUOUS
10
0.8561023622047244
20
0.6710629921259842
11
0.7415354330708661
21
0.6710629921259842
0
LINE
8
BLACK
6
CONTINUOUS
10
1.0121876771653544
20
0.8272872834645669
11
1.0127203543307086
21
0.8267546062992126
0
LINE
8
BLACK
6
CONTINUOUS
10
1.0127203543307086
20
0.8267546062992126
11
1.0127952755905512
21
0.8263779527559055
0
LINE
8
BLACK
6
CONTINUOUS
10
1.0127952755905512
20
0.8263779527559055
11
1.0127952755905512
21
0.7688976377952755
0
LINE
8
BLACK
6
CONTINUOUS
10
1.0127952755905512
20
0.7688976377952755
11
1.0127203543307086
21
0.7685209842519685
0
LINE
8
BLACK
6
CONTINUOUS
10
1.0127203543307086
20
0.7685209842519685
11
1.0121876771653544
21
0.7679883070866141
0
LINE
8
BLACK
6
CONTINUOUS
10
1.0121876771653544
20
0.7679883070866141
11
1.0118110236220472
21
0.7679133858267716
0
LINE
8
BLACK
6
CONTINUOUS
10
1.0118110236220472
20
0.7679133858267716
11
0.8952755905511811
21
0.7679133858267716
0
LINE
8
BLACK
6
CONTINUOUS
10
0.8952755905511811
20
0.7679133858267716
11
0.894898937007874
21
0.7679883070866141
0
LINE
8
BLACK
6
CONTINUOUS
10
0.894898937007874
20
0.7679883070866141
11
0.8943662598425197
21
0.7685209842519685
0
LINE
8
BLACK
6
CONTINUOUS
10
0.8943662598425197
20
0.7685209842519685
11
0.8942913385826772
21
0.7688976377952755
0
LINE
8
BLACK
6
CONTINUOUS
10
0.8942913385826772
20
0.7688976377952755
11
0.8942913385826772
21
0.8263779527559055
0
LINE
8
BLACK
6
CONTINUOUS
10
0.8942913385826772
20
0.8263779527559055
11
0.8943662598425197
21
0.8267546062992126
0
LINE
8
BLACK
6
CONTINUOUS
10
0.8943662598425197
20
0.8267546062992126
11
0.894898937007874
21
0.8272872834645669
0
LINE
8
BLACK
6
CONTINUOUS
10
0.894898937007874
20
0.8272872834645669
11
0.8952755905511811
21
0.8273622047244095
0
LINE
8
BLACK
6
CONTINUOUS
10
0.8952755905511811
20
0.8273622047244095
11
1.0118110236220472
21
0.8273622047244095
0
LINE
8
BLACK
6
CONTINUOUS
10
1.0118110236220472
20
0.8273622047244095
11
1.0121876771653544
21
0.8272872834645669
0
LINE
8
BLACK
6
CONTINUOUS
10
0.896259842519685
20
0.8253937007874016
11
0.896259842519685
21
0.7698818897637795
0
LINE
8
BLACK
6
CONTINUOUS
10
0.896259842519685
20
0.7698818897637795
11
1.0108267716535433
21
0.7698818897637795
0
LINE
8
BLACK
6
CONTINUOUS
10
1.0108267716535433
20
0.7698818897637795
11
1.0108267716535433
21
0.8253937007874016
0
LINE
8
BLACK
6
CONTINUOUS
10
1.0108267716535433
20
0.8253937007874016
11
0.896259842519685
21
0.8253937007874016
0
CIRCLE
8
BLACK
10
0.
20
1.2
40
0.0068897637795276
0
CIRCLE
8
BLACK
10
1.2
20
0.
40
0.0068897637795276
0
CIRCLE
8
BLACK
10
0.
20
0.
40
0.0068897637795276
0
CIRCLE
8
BLACK
10
1.2
20
1.2
40
0.0068897637795276
0
CIRCLE
8
BLACK
10
0.2897637795275591
20
1.1507874015748032
40
0.0068897637795276
0
CIRCLE
8
BLACK
10
0.2897637795275591
20
1.2507874015748031
40
0.0068897637795276
0
CIRCLE
8
BLACK
10
0.389763779527559
20
1.1507874015748032
40
0.0068897637795276
0
CIRCLE
8
BLACK
10
0.389763779527559
20
1.2507874015748031
40
0.0068897637795276
0
CIRCLE
8
BLACK
10
0.4897637795275591
20
1.1507874015748032
40
0.0068897637795276
0
CIRCLE
8
BLACK
10
0.4897637795275591
20
1.2507874015748031
40
0.0068897637795276
0
CIRCLE
8
BLACK
10
0.5897637795275591
20
1.1507874015748032
40
0.0068897637795276
0
CIRCLE
8
BLACK
10
0.5897637795275591
20
1.2507874015748031
40
0.0068897637795276
0
CIRCLE
8
BLACK
10
0.6897637795275591
20
1.1507874015748032
40
0.0068897637795276
0
CIRCLE
8
BLACK
10
0.6897637795275591
20
1.2507874015748031
40
0.0068897637795276
0
CIRCLE
8
BLACK
10
0.7897637795275591
20
1.1507874015748032
40
0.0068897637795276
0
CIRCLE
8
BLACK
10
0.7897637795275591
20
1.2507874015748031
40
0.0068897637795276
0
CIRCLE
8
BLACK
10
0.889763779527559
20
1.1507874015748032
40
0.0068897637795276
0
CIRCLE
8
BLACK
10
0.889763779527559
20
1.2507874015748031
40
0.0068897637795276
0
CIRCLE
8
BLACK
10
0.
20
1.2
40
0.0068897637795276
0
CIRCLE
8
BLACK
10
1.2
20
0.
40
0.0068897637795276
0
CIRCLE
8
BLACK
10
0.
20
0.
40
0.0068897637795276
0
CIRCLE
8
BLACK
10
1.2
20
1.2
40
0.0068897637795276
0
CIRCLE
8
BLACK
10
0.2897637795275591
20
1.1507874015748032
40
0.0068897637795276
0
CIRCLE
8
BLACK
10
0.2897637795275591
20
1.2507874015748031
40
0.0068897637795276
0
CIRCLE
8
BLACK
10
0.389763779527559
20
1.1507874015748032
40
0.0068897637795276
0
CIRCLE
8
BLACK
10
0.389763779527559
20
1.2507874015748031
40
0.0068897637795276
0
CIRCLE
8
BLACK
10
0.4897637795275591
20
1.1507874015748032
40
0.0068897637795276
0
CIRCLE
8
BLACK
10
0.4897637795275591
20
1.2507874015748031
40
0.0068897637795276
0
CIRCLE
8
BLACK
10
0.5897637795275591
20
1.1507874015748032
40
0.0068897637795276
0
CIRCLE
8
BLACK
10
0.5897637795275591
20
1.2507874015748031
40
0.0068897637795276
0
CIRCLE
8
BLACK
10
0.6897637795275591
20
1.1507874015748032
40
0.0068897637795276
0
CIRCLE
8
BLACK
10
0.6897637795275591
20
1.2507874015748031
40
0.0068897637795276
0
CIRCLE
8
BLACK
10
0.7897637795275591
20
1.1507874015748032
40
0.0068897637795276
0
CIRCLE
8
BLACK
10
0.7897637795275591
20
1.2507874015748031
40
0.0068897637795276
0
CIRCLE
8
BLACK
10
0.889763779527559
20
1.1507874015748032
40
0.0068897637795276
0
CIRCLE
8
BLACK
10
0.889763779527559
20
1.2507874015748031
40
0.0068897637795276
  0
ENDSEC
  0
EOF
