  0
SECTION
  2
HEADER
  9
$ANGBASE
  50
0.0
  9
$ANGDIR
  70
1
  9
$MEASUREMENT
  70
0
  0
ENDSEC
  0
SECTION
  2
TABLES
  0
TABLE
  2
LTYPE
  70
4
  0
LTYPE
  5
40F
  2
CONTINUOUS
  70
0
  3
Solid line
  72
65
  73
0
  40
0.0
  0
LTYPE
  5
410
  2
DASHDOT
 70
0
  3
Dash Dot ____ _ ____ _
 72
65
 73
4
 40
2.0
 49
1.25
 49
-0.25
 49
0.25
 49
-0.25
  0
LTYPE
  5
411
  2
DASHED
 70
0
  3
Dashed __ __ __ __ __
 72
65
 73
2
 40
0.75
 49
0.5
 49
-0.25
  0
LTYPE
  5
43B
  2
DOTTED
 70
0
  3
Dotted .  .  .  .
 72
65
 73
2
 40
0.2
 49
0.0
 49
-0.2
  0
ENDTAB
  0
TABLE
  2
STYLE
  70
4
  0
STYLE
  2
KICAD
  70
0
  40
0
  41
1
  42
1
  50
0
  71
0
  3
isocp.shx
  0
STYLE
  2
KICADB
  70
0
  40
0
  41
1
  42
1
  50
0
  71
0
  3
isocp.shx
  0
STYLE
  2
KICADI
  70
0
  40
0
  41
1
  42
1
  50
15
  71
0
  3
isocp.shx
  0
STYLE
  2
KICADBI
  70
0
  40
0
  41
1
  42
1
  50
15
  71
0
  3
isocp.shx
  0
ENDTAB
  0
TABLE
  2
LAYER
  70
1
  0
LAYER
  2
BLACK
  70
0
  62
7
  6
CONTINUOUS
  0
ENDTAB
  0
ENDSEC
  0
SECTION
  2
ENTITIES
0
LINE
8
BLACK
6
CONTINUOUS
10
0.4673057874015748
20
0.4394920078740157
11
0.4678384645669291
21
0.4389593307086614
0
LINE
8
BLACK
6
CONTINUOUS
10
0.4678384645669291
20
0.4389593307086614
11
0.4679133858267717
21
0.4385826771653543
0
LINE
8
BLACK
6
CONTINUOUS
10
0.4679133858267717
20
0.4385826771653543
11
0.4679133858267717
21
0.3614173228346457
0
LINE
8
BLACK
6
CONTINUOUS
10
0.4679133858267717
20
0.3614173228346457
11
0.4678384645669291
21
0.3610406692913386
0
LINE
8
BLACK
6
CONTINUOUS
10
0.4678384645669291
20
0.3610406692913386
11
0.4673057874015748
21
0.3605079921259842
0
LINE
8
BLACK
6
CONTINUOUS
10
0.4673057874015748
20
0.3605079921259842
11
0.4669291338582677
21
0.3604330708661417
0
LINE
8
BLACK
6
CONTINUOUS
10
0.4669291338582677
20
0.3604330708661417
11
0.3330708661417323
21
0.3604330708661417
0
LINE
8
BLACK
6
CONTINUOUS
10
0.3330708661417323
20
0.3604330708661417
11
0.3326942125984252
21
0.3605079921259842
0
LINE
8
BLACK
6
CONTINUOUS
10
0.3326942125984252
20
0.3605079921259842
11
0.3321615354330709
21
0.3610406692913386
0
LINE
8
BLACK
6
CONTINUOUS
10
0.3321615354330709
20
0.3610406692913386
11
0.3320866141732283
21
0.3614173228346457
0
LINE
8
BLACK
6
CONTINUOUS
10
0.3320866141732283
20
0.3614173228346457
11
0.3320866141732283
21
0.4385826771653543
0
LINE
8
BLACK
6
CONTINUOUS
10
0.3320866141732283
20
0.4385826771653543
11
0.3321615354330709
21
0.4389593307086614
0
LINE
8
BLACK
6
CONTINUOUS
10
0.3321615354330709
20
0.4389593307086614
11
0.3326942125984252
21
0.4394920078740157
0
LINE
8
BLACK
6
CONTINUOUS
10
0.3326942125984252
20
0.4394920078740157
11
0.3330708661417323
21
0.4395669291338583
0
LINE
8
BLACK
6
CONTINUOUS
10
0.3330708661417323
20
0.4395669291338583
11
0.4669291338582677
21
0.4395669291338583
0
LINE
8
BLACK
6
CONTINUOUS
10
0.4669291338582677
20
0.4395669291338583
11
0.4673057874015748
21
0.4394920078740157
0
LINE
8
BLACK
6
CONTINUOUS
10
0.3340551181102362
20
0.4375984251968504
11
0.3340551181102362
21
0.3624015748031496
0
LINE
8
BLACK
6
CONTINUOUS
10
0.3340551181102362
20
0.3624015748031496
11
0.4659448818897638
21
0.3624015748031496
0
LINE
8
BLACK
6
CONTINUOUS
10
0.4659448818897638
20
0.3624015748031496
11
0.4659448818897638
21
0.4375984251968504
0
LINE
8
BLACK
6
CONTINUOUS
10
0.4659448818897638
20
0.4375984251968504
11
0.3340551181102362
21
0.4375984251968504
0
LINE
8
BLACK
6
CONTINUOUS
10
0.9381719291338583
20
0.714210905511811
11
0.9387046062992126
21
0.7136782283464567
0
LINE
8
BLACK
6
CONTINUOUS
10
0.9387046062992126
20
0.7136782283464567
11
0.9387795275590551
21
0.7133015748031496
0
LINE
8
BLACK
6
CONTINUOUS
10
0.9387795275590551
20
0.7133015748031496
11
0.9387795275590551
21
0.5755062992125984
0
LINE
8
BLACK
6
CONTINUOUS
10
0.9387795275590551
20
0.5755062992125984
11
0.9387046062992126
21
0.5751296456692914
0
LINE
8
BLACK
6
CONTINUOUS
10
0.9387046062992126
20
0.5751296456692914
11
0.9381719291338583
21
0.574596968503937
0
LINE
8
BLACK
6
CONTINUOUS
10
0.9381719291338583
20
0.574596968503937
11
0.9377952755905512
21
0.5745220472440945
0
LINE
8
BLACK
6
CONTINUOUS
10
0.9377952755905512
20
0.5745220472440945
11
0.6622047244094488
21
0.5745220472440945
0
LINE
8
BLACK
6
CONTINUOUS
10
0.6622047244094488
20
0.5745220472440945
11
0.6618280708661417
21
0.574596968503937
0
LINE
8
BLACK
6
CONTINUOUS
10
0.6618280708661417
20
0.574596968503937
11
0.6612953937007874
21
0.5751296456692914
0
LINE
8
BLACK
6
CONTINUOUS
10
0.6612953937007874
20
0.5751296456692914
11
0.6612204724409448
21
0.5755062992125984
0
LINE
8
BLACK
6
CONTINUOUS
10
0.6612204724409448
20
0.5755062992125984
11
0.6612204724409448
21
0.7133015748031496
0
LINE
8
BLACK
6
CONTINUOUS
10
0.6612204724409448
20
0.7133015748031496
11
0.6612953937007874
21
0.7136782283464567
0
LINE
8
BLACK
6
CONTINUOUS
10
0.6612953937007874
20
0.7136782283464567
11
0.6618280708661417
21
0.714210905511811
0
LINE
8
BLACK
6
CONTINUOUS
10
0.6618280708661417
20
0.714210905511811
11
0.6622047244094488
21
0.7142858267716535
0
LINE
8
BLACK
6
CONTINUOUS
10
0.6622047244094488
20
0.7142858267716535
11
0.9377952755905512
21
0.7142858267716535
0
LINE
8
BLACK
6
CONTINUOUS
10
0.9377952755905512
20
0.7142858267716535
11
0.9381719291338583
21
0.714210905511811
0
LINE
8
BLACK
6
CONTINUOUS
10
0.6631889763779527
20
0.7123173228346457
11
0.6631889763779527
21
0.5764905511811024
0
LINE
8
BLACK
6
CONTINUOUS
10
0.6631889763779527
20
0.5764905511811024
11
0.9368110236220473
21
0.5764905511811024
0
LINE
8
BLACK
6
CONTINUOUS
10
0.9368110236220473
20
0.5764905511811024
11
0.9368110236220473
21
0.7123173228346457
0
LINE
8
BLACK
6
CONTINUOUS
10
0.9368110236220473
20
0.7123173228346457
11
0.6631889763779527
21
0.7123173228346457
0
LINE
8
BLACK
6
CONTINUOUS
10
0.4673057874015748
20
1.0572085433070866
11
0.4678384645669291
21
1.0566758661417324
0
LINE
8
BLACK
6
CONTINUOUS
10
0.4678384645669291
20
1.0566758661417324
11
0.4679133858267717
21
1.0562992125984252
0
LINE
8
BLACK
6
CONTINUOUS
10
0.4679133858267717
20
1.0562992125984252
11
0.4679133858267717
21
0.9791338582677165
0
LINE
8
BLACK
6
CONTINUOUS
10
0.4679133858267717
20
0.9791338582677165
11
0.4678384645669291
21
0.9787572047244094
0
LINE
8
BLACK
6
CONTINUOUS
10
0.4678384645669291
20
0.9787572047244094
11
0.4673057874015748
21
0.9782245275590551
0
LINE
8
BLACK
6
CONTINUOUS
10
0.4673057874015748
20
0.9782245275590551
11
0.4669291338582677
21
0.9781496062992125
0
LINE
8
BLACK
6
CONTINUOUS
10
0.4669291338582677
20
0.9781496062992125
11
0.3330708661417323
21
0.9781496062992125
0
LINE
8
BLACK
6
CONTINUOUS
10
0.3330708661417323
20
0.9781496062992125
11
0.3326942125984252
21
0.9782245275590551
0
LINE
8
BLACK
6
CONTINUOUS
10
0.3326942125984252
20
0.9782245275590551
11
0.3321615354330709
21
0.9787572047244094
0
LINE
8
BLACK
6
CONTINUOUS
10
0.3321615354330709
20
0.9787572047244094
11
0.3320866141732283
21
0.9791338582677165
0
LINE
8
BLACK
6
CONTINUOUS
10
0.3320866141732283
20
0.9791338582677165
11
0.3320866141732283
21
1.0562992125984252
0
LINE
8
BLACK
6
CONTINUOUS
10
0.3320866141732283
20
1.0562992125984252
11
0.3321615354330709
21
1.0566758661417324
0
LINE
8
BLACK
6
CONTINUOUS
10
0.3321615354330709
20
1.0566758661417324
11
0.3326942125984252
21
1.0572085433070866
0
LINE
8
BLACK
6
CONTINUOUS
10
0.3326942125984252
20
1.0572085433070866
11
0.3330708661417323
21
1.0572834645669291
0
LINE
8
BLACK
6
CONTINUOUS
10
0.3330708661417323
20
1.0572834645669291
11
0.4669291338582677
21
1.0572834645669291
0
LINE
8
BLACK
6
CONTINUOUS
10
0.4669291338582677
20
1.0572834645669291
11
0.4673057874015748
21
1.0572085433070866
0
LINE
8
BLACK
6
CONTINUOUS
10
0.3340551181102362
20
1.0553149606299213
11
0.3340551181102362
21
0.9801181102362204
0
LINE
8
BLACK
6
CONTINUOUS
10
0.3340551181102362
20
0.9801181102362204
11
0.4659448818897638
21
0.9801181102362204
0
LINE
8
BLACK
6
CONTINUOUS
10
0.4659448818897638
20
0.9801181102362204
11
0.4659448818897638
21
1.0553149606299213
0
LINE
8
BLACK
6
CONTINUOUS
10
0.4659448818897638
20
1.0553149606299213
11
0.3340551181102362
21
1.0553149606299213
0
CIRCLE
8
BLACK
10
0.
20
1.2
40
0.0068897637795276
0
CIRCLE
8
BLACK
10
1.2
20
0.
40
0.0068897637795276
0
CIRCLE
8
BLACK
10
1.25
20
0.5
40
0.0068897637795276
0
CIRCLE
8
BLACK
10
1.1499999999999999
20
0.5
40
0.0068897637795276
0
CIRCLE
8
BLACK
10
1.25
20
0.6
40
0.0068897637795276
0
CIRCLE
8
BLACK
10
1.1499999999999999
20
0.6
40
0.0068897637795276
0
CIRCLE
8
BLACK
10
1.25
20
0.7
40
0.0068897637795276
0
CIRCLE
8
BLACK
10
1.1499999999999999
20
0.7
40
0.0068897637795276
0
CIRCLE
8
BLACK
10
0.
20
0.
40
0.0068897637795276
0
CIRCLE
8
BLACK
10
1.2
20
1.2
40
0.0068897637795276
0
CIRCLE
8
BLACK
10
0.
20
1.2
40
0.0068897637795276
0
CIRCLE
8
BLACK
10
1.2
20
0.
40
0.0068897637795276
0
CIRCLE
8
BLACK
10
1.25
20
0.5
40
0.0068897637795276
0
CIRCLE
8
BLACK
10
1.1499999999999999
20
0.5
40
0.0068897637795276
0
CIRCLE
8
BLACK
10
1.25
20
0.6
40
0.0068897637795276
0
CIRCLE
8
BLACK
10
1.1499999999999999
20
0.6
40
0.0068897637795276
0
CIRCLE
8
BLACK
10
1.25
20
0.7
40
0.0068897637795276
0
CIRCLE
8
BLACK
10
1.1499999999999999
20
0.7
40
0.0068897637795276
0
CIRCLE
8
BLACK
10
0.
20
0.
40
0.0068897637795276
0
CIRCLE
8
BLACK
10
1.2
20
1.2
40
0.0068897637795276
  0
ENDSEC
  0
EOF
