  0
SECTION
  2
HEADER
  9
$ANGBASE
  50
0.0
  9
$ANGDIR
  70
1
  9
$MEASUREMENT
  70
0
  0
ENDSEC
  0
SECTION
  2
TABLES
  0
TABLE
  2
LTYPE
  70
4
  0
LTYPE
  5
40F
  2
CONTINUOUS
  70
0
  3
Solid line
  72
65
  73
0
  40
0.0
  0
LTYPE
  5
410
  2
DASHDOT
 70
0
  3
Dash Dot ____ _ ____ _
 72
65
 73
4
 40
2.0
 49
1.25
 49
-0.25
 49
0.25
 49
-0.25
  0
LTYPE
  5
411
  2
DASHED
 70
0
  3
Dashed __ __ __ __ __
 72
65
 73
2
 40
0.75
 49
0.5
 49
-0.25
  0
LTYPE
  5
43B
  2
DOTTED
 70
0
  3
Dotted .  .  .  .
 72
65
 73
2
 40
0.2
 49
0.0
 49
-0.2
  0
ENDTAB
  0
TABLE
  2
STYLE
  70
4
  0
STYLE
  2
KICAD
  70
0
  40
0
  41
1
  42
1
  50
0
  71
0
  3
isocp.shx
  0
STYLE
  2
KICADB
  70
0
  40
0
  41
1
  42
1
  50
0
  71
0
  3
isocp.shx
  0
STYLE
  2
KICADI
  70
0
  40
0
  41
1
  42
1
  50
15
  71
0
  3
isocp.shx
  0
STYLE
  2
KICADBI
  70
0
  40
0
  41
1
  42
1
  50
15
  71
0
  3
isocp.shx
  0
ENDTAB
  0
TABLE
  2
LAYER
  70
1
  0
LAYER
  2
BLACK
  70
0
  62
7
  6
CONTINUOUS
  0
ENDTAB
  0
ENDSEC
  0
SECTION
  2
ENTITIES
0
LINE
8
BLACK
6
CONTINUOUS
10
1.3005760629921259
20
0.7528960236220472
11
1.3016404724409449
21
0.7524551181102362
0
LINE
8
BLACK
6
CONTINUOUS
10
1.3016404724409449
20
0.7524551181102362
11
1.3024551181102362
21
0.7516404724409449
0
LINE
8
BLACK
6
CONTINUOUS
10
1.3024551181102362
20
0.7516404724409449
11
1.3028960236220473
21
0.750576062992126
0
LINE
8
BLACK
6
CONTINUOUS
10
1.3028960236220473
20
0.750576062992126
11
1.3029527559055119
21
0.75
0
LINE
8
BLACK
6
CONTINUOUS
10
1.3029527559055119
20
0.75
11
1.3029527559055119
21
0.45
0
LINE
8
BLACK
6
CONTINUOUS
10
1.3029527559055119
20
0.45
11
1.3028960236220473
21
0.449423937007874
0
LINE
8
BLACK
6
CONTINUOUS
10
1.3028960236220473
20
0.449423937007874
11
1.3024551181102362
21
0.4483595275590551
0
LINE
8
BLACK
6
CONTINUOUS
10
1.3024551181102362
20
0.4483595275590551
11
1.3016404724409449
21
0.4475448818897638
0
LINE
8
BLACK
6
CONTINUOUS
10
1.3016404724409449
20
0.4475448818897638
11
1.3005760629921259
21
0.4471039763779527
0
LINE
8
BLACK
6
CONTINUOUS
10
1.3005760629921259
20
0.4471039763779527
11
1.3
21
0.4470472440944882
0
LINE
8
BLACK
6
CONTINUOUS
10
1.3
20
0.4470472440944882
11
1.0999999999999999
21
0.4470472440944882
0
LINE
8
BLACK
6
CONTINUOUS
10
1.0999999999999999
20
0.4470472440944882
11
1.099423937007874
21
0.4471039763779527
0
LINE
8
BLACK
6
CONTINUOUS
10
1.099423937007874
20
0.4471039763779527
11
1.0983595275590552
21
0.4475448818897638
0
LINE
8
BLACK
6
CONTINUOUS
10
1.0983595275590552
20
0.4475448818897638
11
1.0975448818897637
21
0.4483595275590551
0
LINE
8
BLACK
6
CONTINUOUS
10
1.0975448818897637
20
0.4483595275590551
11
1.0971039763779526
21
0.449423937007874
0
LINE
8
BLACK
6
CONTINUOUS
10
1.0971039763779526
20
0.449423937007874
11
1.0970472440944881
21
0.45
0
LINE
8
BLACK
6
CONTINUOUS
10
1.0970472440944881
20
0.45
11
1.0970472440944881
21
0.75
0
LINE
8
BLACK
6
CONTINUOUS
10
1.0970472440944881
20
0.75
11
1.0971039763779526
21
0.750576062992126
0
LINE
8
BLACK
6
CONTINUOUS
10
1.0971039763779526
20
0.750576062992126
11
1.0975448818897637
21
0.7516404724409449
0
LINE
8
BLACK
6
CONTINUOUS
10
1.0975448818897637
20
0.7516404724409449
11
1.0983595275590552
21
0.7524551181102362
0
LINE
8
BLACK
6
CONTINUOUS
10
1.0983595275590552
20
0.7524551181102362
11
1.099423937007874
21
0.7528960236220472
0
LINE
8
BLACK
6
CONTINUOUS
10
1.099423937007874
20
0.7528960236220472
11
1.0999999999999999
21
0.7529527559055118
0
LINE
8
BLACK
6
CONTINUOUS
10
1.0999999999999999
20
0.7529527559055118
11
1.3
21
0.7529527559055118
0
LINE
8
BLACK
6
CONTINUOUS
10
1.3
20
0.7529527559055118
11
1.3005760629921259
21
0.7528960236220472
0
LINE
8
BLACK
6
CONTINUOUS
10
1.1029527559055119
20
0.7470472440944882
11
1.1029527559055119
21
0.4529527559055118
0
LINE
8
BLACK
6
CONTINUOUS
10
1.1029527559055119
20
0.4529527559055118
11
1.2970472440944882
21
0.4529527559055118
0
LINE
8
BLACK
6
CONTINUOUS
10
1.2970472440944882
20
0.4529527559055118
11
1.2970472440944882
21
0.7470472440944882
0
LINE
8
BLACK
6
CONTINUOUS
10
1.2970472440944882
20
0.7470472440944882
11
1.1029527559055119
21
0.7470472440944882
0
CIRCLE
8
BLACK
10
0.
20
1.2
40
0.0068897637795276
0
CIRCLE
8
BLACK
10
1.2
20
0.
40
0.0068897637795276
0
CIRCLE
8
BLACK
10
1.25
20
0.5
40
0.0068897637795276
0
CIRCLE
8
BLACK
10
1.1499999999999999
20
0.5
40
0.0068897637795276
0
CIRCLE
8
BLACK
10
1.25
20
0.6
40
0.0068897637795276
0
CIRCLE
8
BLACK
10
1.1499999999999999
20
0.6
40
0.0068897637795276
0
CIRCLE
8
BLACK
10
1.25
20
0.7
40
0.0068897637795276
0
CIRCLE
8
BLACK
10
1.1499999999999999
20
0.7
40
0.0068897637795276
0
CIRCLE
8
BLACK
10
0.
20
0.
40
0.0068897637795276
0
CIRCLE
8
BLACK
10
1.2
20
1.2
40
0.0068897637795276
0
CIRCLE
8
BLACK
10
0.
20
1.2
40
0.0068897637795276
0
CIRCLE
8
BLACK
10
1.2
20
0.
40
0.0068897637795276
0
CIRCLE
8
BLACK
10
1.25
20
0.5
40
0.0068897637795276
0
CIRCLE
8
BLACK
10
1.1499999999999999
20
0.5
40
0.0068897637795276
0
CIRCLE
8
BLACK
10
1.25
20
0.6
40
0.0068897637795276
0
CIRCLE
8
BLACK
10
1.1499999999999999
20
0.6
40
0.0068897637795276
0
CIRCLE
8
BLACK
10
1.25
20
0.7
40
0.0068897637795276
0
CIRCLE
8
BLACK
10
1.1499999999999999
20
0.7
40
0.0068897637795276
0
CIRCLE
8
BLACK
10
0.
20
0.
40
0.0068897637795276
0
CIRCLE
8
BLACK
10
1.2
20
1.2
40
0.0068897637795276
  0
ENDSEC
  0
EOF
