  0
SECTION
  2
HEADER
  9
$ANGBASE
  50
0.0
  9
$ANGDIR
  70
1
  9
$MEASUREMENT
  70
0
  0
ENDSEC
  0
SECTION
  2
TABLES
  0
TABLE
  2
LTYPE
  70
4
  0
LTYPE
  5
40F
  2
CONTINUOUS
  70
0
  3
Solid line
  72
65
  73
0
  40
0.0
  0
LTYPE
  5
410
  2
DASHDOT
 70
0
  3
Dash Dot ____ _ ____ _
 72
65
 73
4
 40
2.0
 49
1.25
 49
-0.25
 49
0.25
 49
-0.25
  0
LTYPE
  5
411
  2
DASHED
 70
0
  3
Dashed __ __ __ __ __
 72
65
 73
2
 40
0.75
 49
0.5
 49
-0.25
  0
LTYPE
  5
43B
  2
DOTTED
 70
0
  3
Dotted .  .  .  .
 72
65
 73
2
 40
0.2
 49
0.0
 49
-0.2
  0
ENDTAB
  0
TABLE
  2
STYLE
  70
4
  0
STYLE
  2
KICAD
  70
0
  40
0
  41
1
  42
1
  50
0
  71
0
  3
isocp.shx
  0
STYLE
  2
KICADB
  70
0
  40
0
  41
1
  42
1
  50
0
  71
0
  3
isocp.shx
  0
STYLE
  2
KICADI
  70
0
  40
0
  41
1
  42
1
  50
15
  71
0
  3
isocp.shx
  0
STYLE
  2
KICADBI
  70
0
  40
0
  41
1
  42
1
  50
15
  71
0
  3
isocp.shx
  0
ENDTAB
  0
TABLE
  2
LAYER
  70
1
  0
LAYER
  2
BLACK
  70
0
  62
7
  6
CONTINUOUS
  0
ENDTAB
  0
ENDSEC
  0
SECTION
  2
ENTITIES
0
LINE
8
BLACK
6
CONTINUOUS
10
0.0197842125984252
20
0.1164414566929134
11
0.032697125984252
21
0.1134941732283465
0
LINE
8
BLACK
6
CONTINUOUS
10
0.032697125984252
20
0.1134941732283465
11
0.0451988188976378
21
0.1091196456692913
0
LINE
8
BLACK
6
CONTINUOUS
10
0.0451988188976378
20
0.1091196456692913
11
0.0571321653543307
21
0.1033728346456693
0
LINE
8
BLACK
6
CONTINUOUS
10
0.0571321653543307
20
0.1033728346456693
11
0.0683470078740157
21
0.0963261023622047
0
LINE
8
BLACK
6
CONTINUOUS
10
0.0683470078740157
20
0.0963261023622047
11
0.0787023622047244
21
0.0880679527559055
0
LINE
8
BLACK
6
CONTINUOUS
10
0.0787023622047244
20
0.0880679527559055
11
0.0880679527559055
21
0.0787023622047244
0
LINE
8
BLACK
6
CONTINUOUS
10
0.0880679527559055
20
0.0787023622047244
11
0.0963261023622047
21
0.0683470078740157
0
LINE
8
BLACK
6
CONTINUOUS
10
0.0963261023622047
20
0.0683470078740157
11
0.1033728346456693
21
0.0571321653543307
0
LINE
8
BLACK
6
CONTINUOUS
10
0.1033728346456693
20
0.0571321653543307
11
0.1091196456692913
21
0.0451988188976378
0
LINE
8
BLACK
6
CONTINUOUS
10
0.1091196456692913
20
0.0451988188976378
11
0.1134941732283465
21
0.032697125984252
0
LINE
8
BLACK
6
CONTINUOUS
10
0.1134941732283465
20
0.032697125984252
11
0.1164414566929134
21
0.0197842125984252
0
LINE
8
BLACK
6
CONTINUOUS
10
0.1164414566929134
20
0.0197842125984252
11
0.1179244094488189
21
0.0066224803149606
0
LINE
8
BLACK
6
CONTINUOUS
10
0.1179244094488189
20
0.0066224803149606
11
0.1179244094488189
21
-0.0066224803149606
0
LINE
8
BLACK
6
CONTINUOUS
10
0.1179244094488189
20
-0.0066224803149606
11
0.1164414566929134
21
-0.0197842125984252
0
LINE
8
BLACK
6
CONTINUOUS
10
0.1164414566929134
20
-0.0197842125984252
11
0.1134941732283465
21
-0.032697125984252
0
LINE
8
BLACK
6
CONTINUOUS
10
0.1134941732283465
20
-0.032697125984252
11
0.1091196456692913
21
-0.0451988188976378
0
LINE
8
BLACK
6
CONTINUOUS
10
0.1091196456692913
20
-0.0451988188976378
11
0.1033728346456693
21
-0.0571321653543307
0
LINE
8
BLACK
6
CONTINUOUS
10
0.1033728346456693
20
-0.0571321653543307
11
0.0963261023622047
21
-0.0683470078740157
0
LINE
8
BLACK
6
CONTINUOUS
10
0.0963261023622047
20
-0.0683470078740157
11
0.0880679527559055
21
-0.0787023622047244
0
LINE
8
BLACK
6
CONTINUOUS
10
0.0880679527559055
20
-0.0787023622047244
11
0.0787023622047244
21
-0.0880679527559055
0
LINE
8
BLACK
6
CONTINUOUS
10
0.0787023622047244
20
-0.0880679527559055
11
0.0683470078740157
21
-0.0963261023622047
0
LINE
8
BLACK
6
CONTINUOUS
10
0.0683470078740157
20
-0.0963261023622047
11
0.0571321653543307
21
-0.1033728346456693
0
LINE
8
BLACK
6
CONTINUOUS
10
0.0571321653543307
20
-0.1033728346456693
11
0.0451988188976378
21
-0.1091196456692913
0
LINE
8
BLACK
6
CONTINUOUS
10
0.0451988188976378
20
-0.1091196456692913
11
0.032697125984252
21
-0.1134941732283465
0
LINE
8
BLACK
6
CONTINUOUS
10
0.032697125984252
20
-0.1134941732283465
11
0.0197842125984252
21
-0.1164414566929134
0
LINE
8
BLACK
6
CONTINUOUS
10
0.0197842125984252
20
-0.1164414566929134
11
0.0066224803149606
21
-0.1179244094488189
0
LINE
8
BLACK
6
CONTINUOUS
10
0.0066224803149606
20
-0.1179244094488189
11
-0.0066224803149606
21
-0.1179244094488189
0
LINE
8
BLACK
6
CONTINUOUS
10
-0.0066224803149606
20
-0.1179244094488189
11
-0.0197842125984252
21
-0.1164414566929134
0
LINE
8
BLACK
6
CONTINUOUS
10
-0.0197842125984252
20
-0.1164414566929134
11
-0.032697125984252
21
-0.1134941732283465
0
LINE
8
BLACK
6
CONTINUOUS
10
-0.032697125984252
20
-0.1134941732283465
11
-0.0451988188976378
21
-0.1091196456692913
0
LINE
8
BLACK
6
CONTINUOUS
10
-0.0451988188976378
20
-0.1091196456692913
11
-0.0571321653543307
21
-0.1033728346456693
0
LINE
8
BLACK
6
CONTINUOUS
10
-0.0571321653543307
20
-0.1033728346456693
11
-0.0683470078740157
21
-0.0963261023622047
0
LINE
8
BLACK
6
CONTINUOUS
10
-0.0683470078740157
20
-0.0963261023622047
11
-0.0787023622047244
21
-0.0880679527559055
0
LINE
8
BLACK
6
CONTINUOUS
10
-0.0787023622047244
20
-0.0880679527559055
11
-0.0880679527559055
21
-0.0787023622047244
0
LINE
8
BLACK
6
CONTINUOUS
10
-0.0880679527559055
20
-0.0787023622047244
11
-0.0963261023622047
21
-0.0683470078740157
0
LINE
8
BLACK
6
CONTINUOUS
10
-0.0963261023622047
20
-0.0683470078740157
11
-0.1033728346456693
21
-0.0571321653543307
0
LINE
8
BLACK
6
CONTINUOUS
10
-0.1033728346456693
20
-0.0571321653543307
11
-0.1091196456692913
21
-0.0451988188976378
0
LINE
8
BLACK
6
CONTINUOUS
10
-0.1091196456692913
20
-0.0451988188976378
11
-0.1134941732283465
21
-0.032697125984252
0
LINE
8
BLACK
6
CONTINUOUS
10
-0.1134941732283465
20
-0.032697125984252
11
-0.1164414566929134
21
-0.0197842125984252
0
LINE
8
BLACK
6
CONTINUOUS
10
-0.1164414566929134
20
-0.0197842125984252
11
-0.1179244094488189
21
-0.0066224803149606
0
LINE
8
BLACK
6
CONTINUOUS
10
-0.1179244094488189
20
-0.0066224803149606
11
-0.1179244094488189
21
0.0066224803149606
0
LINE
8
BLACK
6
CONTINUOUS
10
-0.1179244094488189
20
0.0066224803149606
11
-0.1164414566929134
21
0.0197842125984252
0
LINE
8
BLACK
6
CONTINUOUS
10
-0.1164414566929134
20
0.0197842125984252
11
-0.1134941732283465
21
0.032697125984252
0
LINE
8
BLACK
6
CONTINUOUS
10
-0.1134941732283465
20
0.032697125984252
11
-0.1091196456692913
21
0.0451988188976378
0
LINE
8
BLACK
6
CONTINUOUS
10
-0.1091196456692913
20
0.0451988188976378
11
-0.1033728346456693
21
0.0571321653543307
0
LINE
8
BLACK
6
CONTINUOUS
10
-0.1033728346456693
20
0.0571321653543307
11
-0.0963261023622047
21
0.0683470078740157
0
LINE
8
BLACK
6
CONTINUOUS
10
-0.0963261023622047
20
0.0683470078740157
11
-0.0880679527559055
21
0.0787023622047244
0
LINE
8
BLACK
6
CONTINUOUS
10
-0.0880679527559055
20
0.0787023622047244
11
-0.0787023622047244
21
0.0880679527559055
0
LINE
8
BLACK
6
CONTINUOUS
10
-0.0787023622047244
20
0.0880679527559055
11
-0.0683470078740157
21
0.0963261023622047
0
LINE
8
BLACK
6
CONTINUOUS
10
-0.0683470078740157
20
0.0963261023622047
11
-0.0571321653543307
21
0.1033728346456693
0
LINE
8
BLACK
6
CONTINUOUS
10
-0.0571321653543307
20
0.1033728346456693
11
-0.0451988188976378
21
0.1091196456692913
0
LINE
8
BLACK
6
CONTINUOUS
10
-0.0451988188976378
20
0.1091196456692913
11
-0.032697125984252
21
0.1134941732283465
0
LINE
8
BLACK
6
CONTINUOUS
10
-0.032697125984252
20
0.1134941732283465
11
-0.0197842125984252
21
0.1164414566929134
0
LINE
8
BLACK
6
CONTINUOUS
10
-0.0197842125984252
20
0.1164414566929134
11
-0.0066224803149606
21
0.1179244094488189
0
LINE
8
BLACK
6
CONTINUOUS
10
-0.0066224803149606
20
0.1179244094488189
11
0.0066224803149606
21
0.1179244094488189
0
LINE
8
BLACK
6
CONTINUOUS
10
0.0066224803149606
20
0.1179244094488189
11
0.0197842125984252
21
0.1164414566929134
0
LINE
8
BLACK
6
CONTINUOUS
10
1.2197842125984251
20
0.1164414566929134
11
1.2326971259842519
21
0.1134941732283465
0
LINE
8
BLACK
6
CONTINUOUS
10
1.2326971259842519
20
0.1134941732283465
11
1.2451988188976377
21
0.1091196456692913
0
LINE
8
BLACK
6
CONTINUOUS
10
1.2451988188976377
20
0.1091196456692913
11
1.2571321653543306
21
0.1033728346456693
0
LINE
8
BLACK
6
CONTINUOUS
10
1.2571321653543306
20
0.1033728346456693
11
1.2683470078740158
21
0.0963261023622047
0
LINE
8
BLACK
6
CONTINUOUS
10
1.2683470078740158
20
0.0963261023622047
11
1.2787023622047244
21
0.0880679527559055
0
LINE
8
BLACK
6
CONTINUOUS
10
1.2787023622047244
20
0.0880679527559055
11
1.2880679527559056
21
0.0787023622047244
0
LINE
8
BLACK
6
CONTINUOUS
10
1.2880679527559056
20
0.0787023622047244
11
1.2963261023622048
21
0.0683470078740157
0
LINE
8
BLACK
6
CONTINUOUS
10
1.2963261023622048
20
0.0683470078740157
11
1.3033728346456692
21
0.0571321653543307
0
LINE
8
BLACK
6
CONTINUOUS
10
1.3033728346456692
20
0.0571321653543307
11
1.3091196456692913
21
0.0451988188976378
0
LINE
8
BLACK
6
CONTINUOUS
10
1.3091196456692913
20
0.0451988188976378
11
1.3134941732283465
21
0.032697125984252
0
LINE
8
BLACK
6
CONTINUOUS
10
1.3134941732283465
20
0.032697125984252
11
1.3164414566929135
21
0.0197842125984252
0
LINE
8
BLACK
6
CONTINUOUS
10
1.3164414566929135
20
0.0197842125984252
11
1.3179244094488189
21
0.0066224803149606
0
LINE
8
BLACK
6
CONTINUOUS
10
1.3179244094488189
20
0.0066224803149606
11
1.3179244094488189
21
-0.0066224803149606
0
LINE
8
BLACK
6
CONTINUOUS
10
1.3179244094488189
20
-0.0066224803149606
11
1.3164414566929135
21
-0.0197842125984252
0
LINE
8
BLACK
6
CONTINUOUS
10
1.3164414566929135
20
-0.0197842125984252
11
1.3134941732283465
21
-0.032697125984252
0
LINE
8
BLACK
6
CONTINUOUS
10
1.3134941732283465
20
-0.032697125984252
11
1.3091196456692913
21
-0.0451988188976378
0
LINE
8
BLACK
6
CONTINUOUS
10
1.3091196456692913
20
-0.0451988188976378
11
1.3033728346456692
21
-0.0571321653543307
0
LINE
8
BLACK
6
CONTINUOUS
10
1.3033728346456692
20
-0.0571321653543307
11
1.2963261023622048
21
-0.0683470078740157
0
LINE
8
BLACK
6
CONTINUOUS
10
1.2963261023622048
20
-0.0683470078740157
11
1.2880679527559056
21
-0.0787023622047244
0
LINE
8
BLACK
6
CONTINUOUS
10
1.2880679527559056
20
-0.0787023622047244
11
1.2787023622047244
21
-0.0880679527559055
0
LINE
8
BLACK
6
CONTINUOUS
10
1.2787023622047244
20
-0.0880679527559055
11
1.2683470078740158
21
-0.0963261023622047
0
LINE
8
BLACK
6
CONTINUOUS
10
1.2683470078740158
20
-0.0963261023622047
11
1.2571321653543306
21
-0.1033728346456693
0
LINE
8
BLACK
6
CONTINUOUS
10
1.2571321653543306
20
-0.1033728346456693
11
1.2451988188976377
21
-0.1091196456692913
0
LINE
8
BLACK
6
CONTINUOUS
10
1.2451988188976377
20
-0.1091196456692913
11
1.2326971259842519
21
-0.1134941732283465
0
LINE
8
BLACK
6
CONTINUOUS
10
1.2326971259842519
20
-0.1134941732283465
11
1.2197842125984251
21
-0.1164414566929134
0
LINE
8
BLACK
6
CONTINUOUS
10
1.2197842125984251
20
-0.1164414566929134
11
1.2066224803149606
21
-0.1179244094488189
0
LINE
8
BLACK
6
CONTINUOUS
10
1.2066224803149606
20
-0.1179244094488189
11
1.1933775196850394
21
-0.1179244094488189
0
LINE
8
BLACK
6
CONTINUOUS
10
1.1933775196850394
20
-0.1179244094488189
11
1.1802157874015748
21
-0.1164414566929134
0
LINE
8
BLACK
6
CONTINUOUS
10
1.1802157874015748
20
-0.1164414566929134
11
1.1673028740157481
21
-0.1134941732283465
0
LINE
8
BLACK
6
CONTINUOUS
10
1.1673028740157481
20
-0.1134941732283465
11
1.1548011811023622
21
-0.1091196456692913
0
LINE
8
BLACK
6
CONTINUOUS
10
1.1548011811023622
20
-0.1091196456692913
11
1.1428678346456693
21
-0.1033728346456693
0
LINE
8
BLACK
6
CONTINUOUS
10
1.1428678346456693
20
-0.1033728346456693
11
1.1316529921259841
21
-0.0963261023622047
0
LINE
8
BLACK
6
CONTINUOUS
10
1.1316529921259841
20
-0.0963261023622047
11
1.1212976377952755
21
-0.0880679527559055
0
LINE
8
BLACK
6
CONTINUOUS
10
1.1212976377952755
20
-0.0880679527559055
11
1.1119320472440946
21
-0.0787023622047244
0
LINE
8
BLACK
6
CONTINUOUS
10
1.1119320472440946
20
-0.0787023622047244
11
1.1036738976377953
21
-0.0683470078740157
0
LINE
8
BLACK
6
CONTINUOUS
10
1.1036738976377953
20
-0.0683470078740157
11
1.0966271653543307
21
-0.0571321653543307
0
LINE
8
BLACK
6
CONTINUOUS
10
1.0966271653543307
20
-0.0571321653543307
11
1.0908803543307086
21
-0.0451988188976378
0
LINE
8
BLACK
6
CONTINUOUS
10
1.0908803543307086
20
-0.0451988188976378
11
1.0865058267716534
21
-0.032697125984252
0
LINE
8
BLACK
6
CONTINUOUS
10
1.0865058267716534
20
-0.032697125984252
11
1.0835585433070867
21
-0.0197842125984252
0
LINE
8
BLACK
6
CONTINUOUS
10
1.0835585433070867
20
-0.0197842125984252
11
1.0820755905511812
21
-0.0066224803149606
0
LINE
8
BLACK
6
CONTINUOUS
10
1.0820755905511812
20
-0.0066224803149606
11
1.0820755905511812
21
0.0066224803149606
0
LINE
8
BLACK
6
CONTINUOUS
10
1.0820755905511812
20
0.0066224803149606
11
1.0835585433070867
21
0.0197842125984252
0
LINE
8
BLACK
6
CONTINUOUS
10
1.0835585433070867
20
0.0197842125984252
11
1.0865058267716534
21
0.032697125984252
0
LINE
8
BLACK
6
CONTINUOUS
10
1.0865058267716534
20
0.032697125984252
11
1.0908803543307086
21
0.0451988188976378
0
LINE
8
BLACK
6
CONTINUOUS
10
1.0908803543307086
20
0.0451988188976378
11
1.0966271653543307
21
0.0571321653543307
0
LINE
8
BLACK
6
CONTINUOUS
10
1.0966271653543307
20
0.0571321653543307
11
1.1036738976377953
21
0.0683470078740157
0
LINE
8
BLACK
6
CONTINUOUS
10
1.1036738976377953
20
0.0683470078740157
11
1.1119320472440946
21
0.0787023622047244
0
LINE
8
BLACK
6
CONTINUOUS
10
1.1119320472440946
20
0.0787023622047244
11
1.1212976377952755
21
0.0880679527559055
0
LINE
8
BLACK
6
CONTINUOUS
10
1.1212976377952755
20
0.0880679527559055
11
1.1316529921259841
21
0.0963261023622047
0
LINE
8
BLACK
6
CONTINUOUS
10
1.1316529921259841
20
0.0963261023622047
11
1.1428678346456693
21
0.1033728346456693
0
LINE
8
BLACK
6
CONTINUOUS
10
1.1428678346456693
20
0.1033728346456693
11
1.1548011811023622
21
0.1091196456692913
0
LINE
8
BLACK
6
CONTINUOUS
10
1.1548011811023622
20
0.1091196456692913
11
1.1673028740157481
21
0.1134941732283465
0
LINE
8
BLACK
6
CONTINUOUS
10
1.1673028740157481
20
0.1134941732283465
11
1.1802157874015748
21
0.1164414566929134
0
LINE
8
BLACK
6
CONTINUOUS
10
1.1802157874015748
20
0.1164414566929134
11
1.1933775196850394
21
0.1179244094488189
0
LINE
8
BLACK
6
CONTINUOUS
10
1.1933775196850394
20
0.1179244094488189
11
1.2066224803149606
21
0.1179244094488189
0
LINE
8
BLACK
6
CONTINUOUS
10
1.2066224803149606
20
0.1179244094488189
11
1.2197842125984251
21
0.1164414566929134
0
LINE
8
BLACK
6
CONTINUOUS
10
1.1799999999999999
20
0.47
11
1.1199999999999999
21
0.47
0
LINE
8
BLACK
6
CONTINUOUS
10
1.1199999999999999
20
0.47
11
1.1199999999999999
21
0.53
0
LINE
8
BLACK
6
CONTINUOUS
10
1.1199999999999999
20
0.53
11
1.1799999999999999
21
0.53
0
LINE
8
BLACK
6
CONTINUOUS
10
1.1799999999999999
20
0.53
11
1.1799999999999999
21
0.47
0
LINE
8
BLACK
6
CONTINUOUS
10
1.28
20
0.47
11
1.22
21
0.47
0
LINE
8
BLACK
6
CONTINUOUS
10
1.22
20
0.47
11
1.22
21
0.53
0
LINE
8
BLACK
6
CONTINUOUS
10
1.22
20
0.53
11
1.28
21
0.53
0
LINE
8
BLACK
6
CONTINUOUS
10
1.28
20
0.53
11
1.28
21
0.47
0
LINE
8
BLACK
6
CONTINUOUS
10
1.1799999999999999
20
0.57
11
1.1199999999999999
21
0.57
0
LINE
8
BLACK
6
CONTINUOUS
10
1.1199999999999999
20
0.57
11
1.1199999999999999
21
0.63
0
LINE
8
BLACK
6
CONTINUOUS
10
1.1199999999999999
20
0.63
11
1.1799999999999999
21
0.63
0
LINE
8
BLACK
6
CONTINUOUS
10
1.1799999999999999
20
0.63
11
1.1799999999999999
21
0.57
0
LINE
8
BLACK
6
CONTINUOUS
10
1.28
20
0.57
11
1.22
21
0.57
0
LINE
8
BLACK
6
CONTINUOUS
10
1.22
20
0.57
11
1.22
21
0.63
0
LINE
8
BLACK
6
CONTINUOUS
10
1.22
20
0.63
11
1.28
21
0.63
0
LINE
8
BLACK
6
CONTINUOUS
10
1.28
20
0.63
11
1.28
21
0.57
0
LINE
8
BLACK
6
CONTINUOUS
10
1.1799999999999999
20
0.67
11
1.1199999999999999
21
0.67
0
LINE
8
BLACK
6
CONTINUOUS
10
1.1199999999999999
20
0.67
11
1.1199999999999999
21
0.73
0
LINE
8
BLACK
6
CONTINUOUS
10
1.1199999999999999
20
0.73
11
1.1799999999999999
21
0.73
0
LINE
8
BLACK
6
CONTINUOUS
10
1.1799999999999999
20
0.73
11
1.1799999999999999
21
0.67
0
LINE
8
BLACK
6
CONTINUOUS
10
1.28
20
0.67
11
1.22
21
0.67
0
LINE
8
BLACK
6
CONTINUOUS
10
1.22
20
0.67
11
1.22
21
0.73
0
LINE
8
BLACK
6
CONTINUOUS
10
1.22
20
0.73
11
1.28
21
0.73
0
LINE
8
BLACK
6
CONTINUOUS
10
1.28
20
0.73
11
1.28
21
0.67
0
LINE
8
BLACK
6
CONTINUOUS
10
0.0197842125984252
20
1.3164414566929135
11
0.032697125984252
21
1.3134941732283465
0
LINE
8
BLACK
6
CONTINUOUS
10
0.032697125984252
20
1.3134941732283465
11
0.0451988188976378
21
1.3091196456692913
0
LINE
8
BLACK
6
CONTINUOUS
10
0.0451988188976378
20
1.3091196456692913
11
0.0571321653543307
21
1.3033728346456692
0
LINE
8
BLACK
6
CONTINUOUS
10
0.0571321653543307
20
1.3033728346456692
11
0.0683470078740157
21
1.2963261023622048
0
LINE
8
BLACK
6
CONTINUOUS
10
0.0683470078740157
20
1.2963261023622048
11
0.0787023622047244
21
1.2880679527559056
0
LINE
8
BLACK
6
CONTINUOUS
10
0.0787023622047244
20
1.2880679527559056
11
0.0880679527559055
21
1.2787023622047244
0
LINE
8
BLACK
6
CONTINUOUS
10
0.0880679527559055
20
1.2787023622047244
11
0.0963261023622047
21
1.2683470078740158
0
LINE
8
BLACK
6
CONTINUOUS
10
0.0963261023622047
20
1.2683470078740158
11
0.1033728346456693
21
1.2571321653543306
0
LINE
8
BLACK
6
CONTINUOUS
10
0.1033728346456693
20
1.2571321653543306
11
0.1091196456692913
21
1.2451988188976377
0
LINE
8
BLACK
6
CONTINUOUS
10
0.1091196456692913
20
1.2451988188976377
11
0.1134941732283465
21
1.2326971259842519
0
LINE
8
BLACK
6
CONTINUOUS
10
0.1134941732283465
20
1.2326971259842519
11
0.1164414566929134
21
1.2197842125984251
0
LINE
8
BLACK
6
CONTINUOUS
10
0.1164414566929134
20
1.2197842125984251
11
0.1179244094488189
21
1.2066224803149606
0
LINE
8
BLACK
6
CONTINUOUS
10
0.1179244094488189
20
1.2066224803149606
11
0.1179244094488189
21
1.1933775196850394
0
LINE
8
BLACK
6
CONTINUOUS
10
0.1179244094488189
20
1.1933775196850394
11
0.1164414566929134
21
1.1802157874015748
0
LINE
8
BLACK
6
CONTINUOUS
10
0.1164414566929134
20
1.1802157874015748
11
0.1134941732283465
21
1.1673028740157481
0
LINE
8
BLACK
6
CONTINUOUS
10
0.1134941732283465
20
1.1673028740157481
11
0.1091196456692913
21
1.1548011811023622
0
LINE
8
BLACK
6
CONTINUOUS
10
0.1091196456692913
20
1.1548011811023622
11
0.1033728346456693
21
1.1428678346456693
0
LINE
8
BLACK
6
CONTINUOUS
10
0.1033728346456693
20
1.1428678346456693
11
0.0963261023622047
21
1.1316529921259841
0
LINE
8
BLACK
6
CONTINUOUS
10
0.0963261023622047
20
1.1316529921259841
11
0.0880679527559055
21
1.1212976377952755
0
LINE
8
BLACK
6
CONTINUOUS
10
0.0880679527559055
20
1.1212976377952755
11
0.0787023622047244
21
1.1119320472440946
0
LINE
8
BLACK
6
CONTINUOUS
10
0.0787023622047244
20
1.1119320472440946
11
0.0683470078740157
21
1.1036738976377953
0
LINE
8
BLACK
6
CONTINUOUS
10
0.0683470078740157
20
1.1036738976377953
11
0.0571321653543307
21
1.0966271653543307
0
LINE
8
BLACK
6
CONTINUOUS
10
0.0571321653543307
20
1.0966271653543307
11
0.0451988188976378
21
1.0908803543307086
0
LINE
8
BLACK
6
CONTINUOUS
10
0.0451988188976378
20
1.0908803543307086
11
0.032697125984252
21
1.0865058267716534
0
LINE
8
BLACK
6
CONTINUOUS
10
0.032697125984252
20
1.0865058267716534
11
0.0197842125984252
21
1.0835585433070867
0
LINE
8
BLACK
6
CONTINUOUS
10
0.0197842125984252
20
1.0835585433070867
11
0.0066224803149606
21
1.0820755905511812
0
LINE
8
BLACK
6
CONTINUOUS
10
0.0066224803149606
20
1.0820755905511812
11
-0.0066224803149606
21
1.0820755905511812
0
LINE
8
BLACK
6
CONTINUOUS
10
-0.0066224803149606
20
1.0820755905511812
11
-0.0197842125984252
21
1.0835585433070867
0
LINE
8
BLACK
6
CONTINUOUS
10
-0.0197842125984252
20
1.0835585433070867
11
-0.032697125984252
21
1.0865058267716534
0
LINE
8
BLACK
6
CONTINUOUS
10
-0.032697125984252
20
1.0865058267716534
11
-0.0451988188976378
21
1.0908803543307086
0
LINE
8
BLACK
6
CONTINUOUS
10
-0.0451988188976378
20
1.0908803543307086
11
-0.0571321653543307
21
1.0966271653543307
0
LINE
8
BLACK
6
CONTINUOUS
10
-0.0571321653543307
20
1.0966271653543307
11
-0.0683470078740157
21
1.1036738976377953
0
LINE
8
BLACK
6
CONTINUOUS
10
-0.0683470078740157
20
1.1036738976377953
11
-0.0787023622047244
21
1.1119320472440946
0
LINE
8
BLACK
6
CONTINUOUS
10
-0.0787023622047244
20
1.1119320472440946
11
-0.0880679527559055
21
1.1212976377952755
0
LINE
8
BLACK
6
CONTINUOUS
10
-0.0880679527559055
20
1.1212976377952755
11
-0.0963261023622047
21
1.1316529921259841
0
LINE
8
BLACK
6
CONTINUOUS
10
-0.0963261023622047
20
1.1316529921259841
11
-0.1033728346456693
21
1.1428678346456693
0
LINE
8
BLACK
6
CONTINUOUS
10
-0.1033728346456693
20
1.1428678346456693
11
-0.1091196456692913
21
1.1548011811023622
0
LINE
8
BLACK
6
CONTINUOUS
10
-0.1091196456692913
20
1.1548011811023622
11
-0.1134941732283465
21
1.1673028740157481
0
LINE
8
BLACK
6
CONTINUOUS
10
-0.1134941732283465
20
1.1673028740157481
11
-0.1164414566929134
21
1.1802157874015748
0
LINE
8
BLACK
6
CONTINUOUS
10
-0.1164414566929134
20
1.1802157874015748
11
-0.1179244094488189
21
1.1933775196850394
0
LINE
8
BLACK
6
CONTINUOUS
10
-0.1179244094488189
20
1.1933775196850394
11
-0.1179244094488189
21
1.2066224803149606
0
LINE
8
BLACK
6
CONTINUOUS
10
-0.1179244094488189
20
1.2066224803149606
11
-0.1164414566929134
21
1.2197842125984251
0
LINE
8
BLACK
6
CONTINUOUS
10
-0.1164414566929134
20
1.2197842125984251
11
-0.1134941732283465
21
1.2326971259842519
0
LINE
8
BLACK
6
CONTINUOUS
10
-0.1134941732283465
20
1.2326971259842519
11
-0.1091196456692913
21
1.2451988188976377
0
LINE
8
BLACK
6
CONTINUOUS
10
-0.1091196456692913
20
1.2451988188976377
11
-0.1033728346456693
21
1.2571321653543306
0
LINE
8
BLACK
6
CONTINUOUS
10
-0.1033728346456693
20
1.2571321653543306
11
-0.0963261023622047
21
1.2683470078740158
0
LINE
8
BLACK
6
CONTINUOUS
10
-0.0963261023622047
20
1.2683470078740158
11
-0.0880679527559055
21
1.2787023622047244
0
LINE
8
BLACK
6
CONTINUOUS
10
-0.0880679527559055
20
1.2787023622047244
11
-0.0787023622047244
21
1.2880679527559056
0
LINE
8
BLACK
6
CONTINUOUS
10
-0.0787023622047244
20
1.2880679527559056
11
-0.0683470078740157
21
1.2963261023622048
0
LINE
8
BLACK
6
CONTINUOUS
10
-0.0683470078740157
20
1.2963261023622048
11
-0.0571321653543307
21
1.3033728346456692
0
LINE
8
BLACK
6
CONTINUOUS
10
-0.0571321653543307
20
1.3033728346456692
11
-0.0451988188976378
21
1.3091196456692913
0
LINE
8
BLACK
6
CONTINUOUS
10
-0.0451988188976378
20
1.3091196456692913
11
-0.032697125984252
21
1.3134941732283465
0
LINE
8
BLACK
6
CONTINUOUS
10
-0.032697125984252
20
1.3134941732283465
11
-0.0197842125984252
21
1.3164414566929135
0
LINE
8
BLACK
6
CONTINUOUS
10
-0.0197842125984252
20
1.3164414566929135
11
-0.0066224803149606
21
1.3179244094488189
0
LINE
8
BLACK
6
CONTINUOUS
10
-0.0066224803149606
20
1.3179244094488189
11
0.0066224803149606
21
1.3179244094488189
0
LINE
8
BLACK
6
CONTINUOUS
10
0.0066224803149606
20
1.3179244094488189
11
0.0197842125984252
21
1.3164414566929135
0
LINE
8
BLACK
6
CONTINUOUS
10
1.2197842125984251
20
1.3164414566929135
11
1.2326971259842519
21
1.3134941732283465
0
LINE
8
BLACK
6
CONTINUOUS
10
1.2326971259842519
20
1.3134941732283465
11
1.2451988188976377
21
1.3091196456692913
0
LINE
8
BLACK
6
CONTINUOUS
10
1.2451988188976377
20
1.3091196456692913
11
1.2571321653543306
21
1.3033728346456692
0
LINE
8
BLACK
6
CONTINUOUS
10
1.2571321653543306
20
1.3033728346456692
11
1.2683470078740158
21
1.2963261023622048
0
LINE
8
BLACK
6
CONTINUOUS
10
1.2683470078740158
20
1.2963261023622048
11
1.2787023622047244
21
1.2880679527559056
0
LINE
8
BLACK
6
CONTINUOUS
10
1.2787023622047244
20
1.2880679527559056
11
1.2880679527559056
21
1.2787023622047244
0
LINE
8
BLACK
6
CONTINUOUS
10
1.2880679527559056
20
1.2787023622047244
11
1.2963261023622048
21
1.2683470078740158
0
LINE
8
BLACK
6
CONTINUOUS
10
1.2963261023622048
20
1.2683470078740158
11
1.3033728346456692
21
1.2571321653543306
0
LINE
8
BLACK
6
CONTINUOUS
10
1.3033728346456692
20
1.2571321653543306
11
1.3091196456692913
21
1.2451988188976377
0
LINE
8
BLACK
6
CONTINUOUS
10
1.3091196456692913
20
1.2451988188976377
11
1.3134941732283465
21
1.2326971259842519
0
LINE
8
BLACK
6
CONTINUOUS
10
1.3134941732283465
20
1.2326971259842519
11
1.3164414566929135
21
1.2197842125984251
0
LINE
8
BLACK
6
CONTINUOUS
10
1.3164414566929135
20
1.2197842125984251
11
1.3179244094488189
21
1.2066224803149606
0
LINE
8
BLACK
6
CONTINUOUS
10
1.3179244094488189
20
1.2066224803149606
11
1.3179244094488189
21
1.1933775196850394
0
LINE
8
BLACK
6
CONTINUOUS
10
1.3179244094488189
20
1.1933775196850394
11
1.3164414566929135
21
1.1802157874015748
0
LINE
8
BLACK
6
CONTINUOUS
10
1.3164414566929135
20
1.1802157874015748
11
1.3134941732283465
21
1.1673028740157481
0
LINE
8
BLACK
6
CONTINUOUS
10
1.3134941732283465
20
1.1673028740157481
11
1.3091196456692913
21
1.1548011811023622
0
LINE
8
BLACK
6
CONTINUOUS
10
1.3091196456692913
20
1.1548011811023622
11
1.3033728346456692
21
1.1428678346456693
0
LINE
8
BLACK
6
CONTINUOUS
10
1.3033728346456692
20
1.1428678346456693
11
1.2963261023622048
21
1.1316529921259841
0
LINE
8
BLACK
6
CONTINUOUS
10
1.2963261023622048
20
1.1316529921259841
11
1.2880679527559056
21
1.1212976377952755
0
LINE
8
BLACK
6
CONTINUOUS
10
1.2880679527559056
20
1.1212976377952755
11
1.2787023622047244
21
1.1119320472440946
0
LINE
8
BLACK
6
CONTINUOUS
10
1.2787023622047244
20
1.1119320472440946
11
1.2683470078740158
21
1.1036738976377953
0
LINE
8
BLACK
6
CONTINUOUS
10
1.2683470078740158
20
1.1036738976377953
11
1.2571321653543306
21
1.0966271653543307
0
LINE
8
BLACK
6
CONTINUOUS
10
1.2571321653543306
20
1.0966271653543307
11
1.2451988188976377
21
1.0908803543307086
0
LINE
8
BLACK
6
CONTINUOUS
10
1.2451988188976377
20
1.0908803543307086
11
1.2326971259842519
21
1.0865058267716534
0
LINE
8
BLACK
6
CONTINUOUS
10
1.2326971259842519
20
1.0865058267716534
11
1.2197842125984251
21
1.0835585433070867
0
LINE
8
BLACK
6
CONTINUOUS
10
1.2197842125984251
20
1.0835585433070867
11
1.2066224803149606
21
1.0820755905511812
0
LINE
8
BLACK
6
CONTINUOUS
10
1.2066224803149606
20
1.0820755905511812
11
1.1933775196850394
21
1.0820755905511812
0
LINE
8
BLACK
6
CONTINUOUS
10
1.1933775196850394
20
1.0820755905511812
11
1.1802157874015748
21
1.0835585433070867
0
LINE
8
BLACK
6
CONTINUOUS
10
1.1802157874015748
20
1.0835585433070867
11
1.1673028740157481
21
1.0865058267716534
0
LINE
8
BLACK
6
CONTINUOUS
10
1.1673028740157481
20
1.0865058267716534
11
1.1548011811023622
21
1.0908803543307086
0
LINE
8
BLACK
6
CONTINUOUS
10
1.1548011811023622
20
1.0908803543307086
11
1.1428678346456693
21
1.0966271653543307
0
LINE
8
BLACK
6
CONTINUOUS
10
1.1428678346456693
20
1.0966271653543307
11
1.1316529921259841
21
1.1036738976377953
0
LINE
8
BLACK
6
CONTINUOUS
10
1.1316529921259841
20
1.1036738976377953
11
1.1212976377952755
21
1.1119320472440946
0
LINE
8
BLACK
6
CONTINUOUS
10
1.1212976377952755
20
1.1119320472440946
11
1.1119320472440946
21
1.1212976377952755
0
LINE
8
BLACK
6
CONTINUOUS
10
1.1119320472440946
20
1.1212976377952755
11
1.1036738976377953
21
1.1316529921259841
0
LINE
8
BLACK
6
CONTINUOUS
10
1.1036738976377953
20
1.1316529921259841
11
1.0966271653543307
21
1.1428678346456693
0
LINE
8
BLACK
6
CONTINUOUS
10
1.0966271653543307
20
1.1428678346456693
11
1.0908803543307086
21
1.1548011811023622
0
LINE
8
BLACK
6
CONTINUOUS
10
1.0908803543307086
20
1.1548011811023622
11
1.0865058267716534
21
1.1673028740157481
0
LINE
8
BLACK
6
CONTINUOUS
10
1.0865058267716534
20
1.1673028740157481
11
1.0835585433070867
21
1.1802157874015748
0
LINE
8
BLACK
6
CONTINUOUS
10
1.0835585433070867
20
1.1802157874015748
11
1.0820755905511812
21
1.1933775196850394
0
LINE
8
BLACK
6
CONTINUOUS
10
1.0820755905511812
20
1.1933775196850394
11
1.0820755905511812
21
1.2066224803149606
0
LINE
8
BLACK
6
CONTINUOUS
10
1.0820755905511812
20
1.2066224803149606
11
1.0835585433070867
21
1.2197842125984251
0
LINE
8
BLACK
6
CONTINUOUS
10
1.0835585433070867
20
1.2197842125984251
11
1.0865058267716534
21
1.2326971259842519
0
LINE
8
BLACK
6
CONTINUOUS
10
1.0865058267716534
20
1.2326971259842519
11
1.0908803543307086
21
1.2451988188976377
0
LINE
8
BLACK
6
CONTINUOUS
10
1.0908803543307086
20
1.2451988188976377
11
1.0966271653543307
21
1.2571321653543306
0
LINE
8
BLACK
6
CONTINUOUS
10
1.0966271653543307
20
1.2571321653543306
11
1.1036738976377953
21
1.2683470078740158
0
LINE
8
BLACK
6
CONTINUOUS
10
1.1036738976377953
20
1.2683470078740158
11
1.1119320472440946
21
1.2787023622047244
0
LINE
8
BLACK
6
CONTINUOUS
10
1.1119320472440946
20
1.2787023622047244
11
1.1212976377952755
21
1.2880679527559056
0
LINE
8
BLACK
6
CONTINUOUS
10
1.1212976377952755
20
1.2880679527559056
11
1.1316529921259841
21
1.2963261023622048
0
LINE
8
BLACK
6
CONTINUOUS
10
1.1316529921259841
20
1.2963261023622048
11
1.1428678346456693
21
1.3033728346456692
0
LINE
8
BLACK
6
CONTINUOUS
10
1.1428678346456693
20
1.3033728346456692
11
1.1548011811023622
21
1.3091196456692913
0
LINE
8
BLACK
6
CONTINUOUS
10
1.1548011811023622
20
1.3091196456692913
11
1.1673028740157481
21
1.3134941732283465
0
LINE
8
BLACK
6
CONTINUOUS
10
1.1673028740157481
20
1.3134941732283465
11
1.1802157874015748
21
1.3164414566929135
0
LINE
8
BLACK
6
CONTINUOUS
10
1.1802157874015748
20
1.3164414566929135
11
1.1933775196850394
21
1.3179244094488189
0
LINE
8
BLACK
6
CONTINUOUS
10
1.1933775196850394
20
1.3179244094488189
11
1.2066224803149606
21
1.3179244094488189
0
LINE
8
BLACK
6
CONTINUOUS
10
1.2066224803149606
20
1.3179244094488189
11
1.2197842125984251
21
1.3164414566929135
0
CIRCLE
8
BLACK
10
0.
20
1.2
40
0.0068897637795276
0
CIRCLE
8
BLACK
10
1.2
20
0.
40
0.0068897637795276
0
CIRCLE
8
BLACK
10
1.25
20
0.5
40
0.0068897637795276
0
CIRCLE
8
BLACK
10
1.1499999999999999
20
0.5
40
0.0068897637795276
0
CIRCLE
8
BLACK
10
1.25
20
0.6
40
0.0068897637795276
0
CIRCLE
8
BLACK
10
1.1499999999999999
20
0.6
40
0.0068897637795276
0
CIRCLE
8
BLACK
10
1.25
20
0.7
40
0.0068897637795276
0
CIRCLE
8
BLACK
10
1.1499999999999999
20
0.7
40
0.0068897637795276
0
CIRCLE
8
BLACK
10
0.
20
0.
40
0.0068897637795276
0
CIRCLE
8
BLACK
10
1.2
20
1.2
40
0.0068897637795276
0
CIRCLE
8
WHITE
10
0.
20
1.2
40
0.0068897637795276
0
CIRCLE
8
WHITE
10
1.2
20
0.
40
0.0068897637795276
0
CIRCLE
8
WHITE
10
1.25
20
0.5
40
0.0068897637795276
0
CIRCLE
8
WHITE
10
1.1499999999999999
20
0.5
40
0.0068897637795276
0
CIRCLE
8
WHITE
10
1.25
20
0.6
40
0.0068897637795276
0
CIRCLE
8
WHITE
10
1.1499999999999999
20
0.6
40
0.0068897637795276
0
CIRCLE
8
WHITE
10
1.25
20
0.7
40
0.0068897637795276
0
CIRCLE
8
WHITE
10
1.1499999999999999
20
0.7
40
0.0068897637795276
0
CIRCLE
8
WHITE
10
0.
20
0.
40
0.0068897637795276
0
CIRCLE
8
WHITE
10
1.2
20
1.2
40
0.0068897637795276
  0
ENDSEC
  0
EOF
