  0
SECTION
  2
HEADER
  9
$ANGBASE
  50
0.0
  9
$ANGDIR
  70
1
  9
$MEASUREMENT
  70
0
  9
$INSUNITS
  70
1
  0
ENDSEC
  0
SECTION
  2
TABLES
  0
TABLE
  2
LTYPE
  70
4
  0
LTYPE
  5
40F
  2
CONTINUOUS
  70
0
  3
Solid line
  72
65
  73
0
  40
0.0
  0
LTYPE
  5
410
  2
DASHDOT
 70
0
  3
Dash Dot ____ _ ____ _
 72
65
 73
4
 40
2.0
 49
1.25
 49
-0.25
 49
0.25
 49
-0.25
  0
LTYPE
  5
411
  2
DASHED
 70
0
  3
Dashed __ __ __ __ __
 72
65
 73
2
 40
0.75
 49
0.5
 49
-0.25
  0
LTYPE
  5
43B
  2
DOTTED
 70
0
  3
Dotted .  .  .  .
 72
65
 73
2
 40
0.2
 49
0.0
 49
-0.2
  0
ENDTAB
  0
TABLE
  2
STYLE
  70
4
  0
STYLE
  2
KICAD
  70
0
  40
0
  41
1
  42
1
  50
0
  71
0
  3
isocp.shx
  0
STYLE
  2
KICADB
  70
0
  40
0
  41
1
  42
1
  50
0
  71
0
  3
isocp.shx
  0
STYLE
  2
KICADI
  70
0
  40
0
  41
1
  42
1
  50
15
  71
0
  3
isocp.shx
  0
STYLE
  2
KICADBI
  70
0
  40
0
  41
1
  42
1
  50
15
  71
0
  3
isocp.shx
  0
ENDTAB
  0
TABLE
  2
LAYER
  70
1
  0
LAYER
  2
BLACK
  70
0
  62
250
  6
CONTINUOUS
  0
ENDTAB
  0
ENDSEC
  0
SECTION
  2
ENTITIES
0
LINE
8
BLACK
6
CONTINUOUS
10
0.0197842125984252
20
0.119591062992126
11
0.032697125984252
21
0.1166437795275591
0
LINE
8
BLACK
6
CONTINUOUS
10
0.032697125984252
20
0.1166437795275591
11
0.0451988188976378
21
0.1122692519685039
0
LINE
8
BLACK
6
CONTINUOUS
10
0.0451988188976378
20
0.1122692519685039
11
0.0571321653543307
21
0.1065224409448819
0
LINE
8
BLACK
6
CONTINUOUS
10
0.0571321653543307
20
0.1065224409448819
11
0.0683470078740157
21
0.0994757086614173
0
LINE
8
BLACK
6
CONTINUOUS
10
0.0683470078740157
20
0.0994757086614173
11
0.0787023622047244
21
0.0912175590551181
0
LINE
8
BLACK
6
CONTINUOUS
10
0.0787023622047244
20
0.0912175590551181
11
0.0880679527559055
21
0.081851968503937
0
LINE
8
BLACK
6
CONTINUOUS
10
0.0880679527559055
20
0.081851968503937
11
0.0963261023622047
21
0.0714966141732283
0
LINE
8
BLACK
6
CONTINUOUS
10
0.0963261023622047
20
0.0714966141732283
11
0.1033728346456693
21
0.0602817716535433
0
LINE
8
BLACK
6
CONTINUOUS
10
0.1033728346456693
20
0.0602817716535433
11
0.1091196456692913
21
0.0483484251968504
0
LINE
8
BLACK
6
CONTINUOUS
10
0.1091196456692913
20
0.0483484251968504
11
0.1134941732283465
21
0.0358467322834646
0
LINE
8
BLACK
6
CONTINUOUS
10
0.1134941732283465
20
0.0358467322834646
11
0.1164414566929134
21
0.0229338188976378
0
LINE
8
BLACK
6
CONTINUOUS
10
0.1164414566929134
20
0.0229338188976378
11
0.1179244094488189
21
0.0097720866141732
0
LINE
8
BLACK
6
CONTINUOUS
10
0.1179244094488189
20
0.0097720866141732
11
0.1179244094488189
21
-0.003472874015748
0
LINE
8
BLACK
6
CONTINUOUS
10
0.1179244094488189
20
-0.003472874015748
11
0.1164414566929134
21
-0.0166346062992126
0
LINE
8
BLACK
6
CONTINUOUS
10
0.1164414566929134
20
-0.0166346062992126
11
0.1134941732283465
21
-0.0295475196850394
0
LINE
8
BLACK
6
CONTINUOUS
10
0.1134941732283465
20
-0.0295475196850394
11
0.1091196456692913
21
-0.0420492125984252
0
LINE
8
BLACK
6
CONTINUOUS
10
0.1091196456692913
20
-0.0420492125984252
11
0.1033728346456693
21
-0.0539825590551181
0
LINE
8
BLACK
6
CONTINUOUS
10
0.1033728346456693
20
-0.0539825590551181
11
0.0963261023622047
21
-0.0651974015748032
0
LINE
8
BLACK
6
CONTINUOUS
10
0.0963261023622047
20
-0.0651974015748032
11
0.0880679527559055
21
-0.0755527559055118
0
LINE
8
BLACK
6
CONTINUOUS
10
0.0880679527559055
20
-0.0755527559055118
11
0.0787023622047244
21
-0.0849183464566929
0
LINE
8
BLACK
6
CONTINUOUS
10
0.0787023622047244
20
-0.0849183464566929
11
0.0683470078740157
21
-0.0931764960629921
0
LINE
8
BLACK
6
CONTINUOUS
10
0.0683470078740157
20
-0.0931764960629921
11
0.0571321653543307
21
-0.1002232283464567
0
LINE
8
BLACK
6
CONTINUOUS
10
0.0571321653543307
20
-0.1002232283464567
11
0.0451988188976378
21
-0.1059700393700787
0
LINE
8
BLACK
6
CONTINUOUS
10
0.0451988188976378
20
-0.1059700393700787
11
0.032697125984252
21
-0.1103445669291339
0
LINE
8
BLACK
6
CONTINUOUS
10
0.032697125984252
20
-0.1103445669291339
11
0.0197842125984252
21
-0.1132918503937008
0
LINE
8
BLACK
6
CONTINUOUS
10
0.0197842125984252
20
-0.1132918503937008
11
0.0066224803149606
21
-0.1147748031496063
0
LINE
8
BLACK
6
CONTINUOUS
10
0.0066224803149606
20
-0.1147748031496063
11
-0.0066224803149606
21
-0.1147748031496063
0
LINE
8
BLACK
6
CONTINUOUS
10
-0.0066224803149606
20
-0.1147748031496063
11
-0.0197842125984252
21
-0.1132918503937008
0
LINE
8
BLACK
6
CONTINUOUS
10
-0.0197842125984252
20
-0.1132918503937008
11
-0.032697125984252
21
-0.1103445669291339
0
LINE
8
BLACK
6
CONTINUOUS
10
-0.032697125984252
20
-0.1103445669291339
11
-0.0451988188976378
21
-0.1059700393700787
0
LINE
8
BLACK
6
CONTINUOUS
10
-0.0451988188976378
20
-0.1059700393700787
11
-0.0571321653543307
21
-0.1002232283464567
0
LINE
8
BLACK
6
CONTINUOUS
10
-0.0571321653543307
20
-0.1002232283464567
11
-0.0683470078740157
21
-0.0931764960629921
0
LINE
8
BLACK
6
CONTINUOUS
10
-0.0683470078740157
20
-0.0931764960629921
11
-0.0787023622047244
21
-0.0849183464566929
0
LINE
8
BLACK
6
CONTINUOUS
10
-0.0787023622047244
20
-0.0849183464566929
11
-0.0880679527559055
21
-0.0755527559055118
0
LINE
8
BLACK
6
CONTINUOUS
10
-0.0880679527559055
20
-0.0755527559055118
11
-0.0963261023622047
21
-0.0651974015748032
0
LINE
8
BLACK
6
CONTINUOUS
10
-0.0963261023622047
20
-0.0651974015748032
11
-0.1033728346456693
21
-0.0539825590551181
0
LINE
8
BLACK
6
CONTINUOUS
10
-0.1033728346456693
20
-0.0539825590551181
11
-0.1091196456692913
21
-0.0420492125984252
0
LINE
8
BLACK
6
CONTINUOUS
10
-0.1091196456692913
20
-0.0420492125984252
11
-0.1134941732283465
21
-0.0295475196850394
0
LINE
8
BLACK
6
CONTINUOUS
10
-0.1134941732283465
20
-0.0295475196850394
11
-0.1164414566929134
21
-0.0166346062992126
0
LINE
8
BLACK
6
CONTINUOUS
10
-0.1164414566929134
20
-0.0166346062992126
11
-0.1179244094488189
21
-0.003472874015748
0
LINE
8
BLACK
6
CONTINUOUS
10
-0.1179244094488189
20
-0.003472874015748
11
-0.1179244094488189
21
0.0097720866141732
0
LINE
8
BLACK
6
CONTINUOUS
10
-0.1179244094488189
20
0.0097720866141732
11
-0.1164414566929134
21
0.0229338188976378
0
LINE
8
BLACK
6
CONTINUOUS
10
-0.1164414566929134
20
0.0229338188976378
11
-0.1134941732283465
21
0.0358467322834646
0
LINE
8
BLACK
6
CONTINUOUS
10
-0.1134941732283465
20
0.0358467322834646
11
-0.1091196456692913
21
0.0483484251968504
0
LINE
8
BLACK
6
CONTINUOUS
10
-0.1091196456692913
20
0.0483484251968504
11
-0.1033728346456693
21
0.0602817716535433
0
LINE
8
BLACK
6
CONTINUOUS
10
-0.1033728346456693
20
0.0602817716535433
11
-0.0963261023622047
21
0.0714966141732283
0
LINE
8
BLACK
6
CONTINUOUS
10
-0.0963261023622047
20
0.0714966141732283
11
-0.0880679527559055
21
0.081851968503937
0
LINE
8
BLACK
6
CONTINUOUS
10
-0.0880679527559055
20
0.081851968503937
11
-0.0787023622047244
21
0.0912175590551181
0
LINE
8
BLACK
6
CONTINUOUS
10
-0.0787023622047244
20
0.0912175590551181
11
-0.0683470078740157
21
0.0994757086614173
0
LINE
8
BLACK
6
CONTINUOUS
10
-0.0683470078740157
20
0.0994757086614173
11
-0.0571321653543307
21
0.1065224409448819
0
LINE
8
BLACK
6
CONTINUOUS
10
-0.0571321653543307
20
0.1065224409448819
11
-0.0451988188976378
21
0.1122692519685039
0
LINE
8
BLACK
6
CONTINUOUS
10
-0.0451988188976378
20
0.1122692519685039
11
-0.032697125984252
21
0.1166437795275591
0
LINE
8
BLACK
6
CONTINUOUS
10
-0.032697125984252
20
0.1166437795275591
11
-0.0197842125984252
21
0.119591062992126
0
LINE
8
BLACK
6
CONTINUOUS
10
-0.0197842125984252
20
0.119591062992126
11
-0.0066224803149606
21
0.1210740157480315
0
LINE
8
BLACK
6
CONTINUOUS
10
-0.0066224803149606
20
0.1210740157480315
11
0.0066224803149606
21
0.1210740157480315
0
LINE
8
BLACK
6
CONTINUOUS
10
0.0066224803149606
20
0.1210740157480315
11
0.0197842125984252
21
0.119591062992126
0
LINE
8
BLACK
6
CONTINUOUS
10
1.2197842125984251
20
0.119591062992126
11
1.2326971259842519
21
0.1166437795275591
0
LINE
8
BLACK
6
CONTINUOUS
10
1.2326971259842519
20
0.1166437795275591
11
1.2451988188976377
21
0.1122692519685039
0
LINE
8
BLACK
6
CONTINUOUS
10
1.2451988188976377
20
0.1122692519685039
11
1.2571321653543306
21
0.1065224409448819
0
LINE
8
BLACK
6
CONTINUOUS
10
1.2571321653543306
20
0.1065224409448819
11
1.2683470078740158
21
0.0994757086614173
0
LINE
8
BLACK
6
CONTINUOUS
10
1.2683470078740158
20
0.0994757086614173
11
1.2787023622047244
21
0.0912175590551181
0
LINE
8
BLACK
6
CONTINUOUS
10
1.2787023622047244
20
0.0912175590551181
11
1.2880679527559056
21
0.081851968503937
0
LINE
8
BLACK
6
CONTINUOUS
10
1.2880679527559056
20
0.081851968503937
11
1.2963261023622048
21
0.0714966141732283
0
LINE
8
BLACK
6
CONTINUOUS
10
1.2963261023622048
20
0.0714966141732283
11
1.3033728346456692
21
0.0602817716535433
0
LINE
8
BLACK
6
CONTINUOUS
10
1.3033728346456692
20
0.0602817716535433
11
1.3091196456692913
21
0.0483484251968504
0
LINE
8
BLACK
6
CONTINUOUS
10
1.3091196456692913
20
0.0483484251968504
11
1.3134941732283465
21
0.0358467322834646
0
LINE
8
BLACK
6
CONTINUOUS
10
1.3134941732283465
20
0.0358467322834646
11
1.3164414566929135
21
0.0229338188976378
0
LINE
8
BLACK
6
CONTINUOUS
10
1.3164414566929135
20
0.0229338188976378
11
1.3179244094488189
21
0.0097720866141732
0
LINE
8
BLACK
6
CONTINUOUS
10
1.3179244094488189
20
0.0097720866141732
11
1.3179244094488189
21
-0.003472874015748
0
LINE
8
BLACK
6
CONTINUOUS
10
1.3179244094488189
20
-0.003472874015748
11
1.3164414566929135
21
-0.0166346062992126
0
LINE
8
BLACK
6
CONTINUOUS
10
1.3164414566929135
20
-0.0166346062992126
11
1.3134941732283465
21
-0.0295475196850394
0
LINE
8
BLACK
6
CONTINUOUS
10
1.3134941732283465
20
-0.0295475196850394
11
1.3091196456692913
21
-0.0420492125984252
0
LINE
8
BLACK
6
CONTINUOUS
10
1.3091196456692913
20
-0.0420492125984252
11
1.3033728346456692
21
-0.0539825590551181
0
LINE
8
BLACK
6
CONTINUOUS
10
1.3033728346456692
20
-0.0539825590551181
11
1.2963261023622048
21
-0.0651974015748032
0
LINE
8
BLACK
6
CONTINUOUS
10
1.2963261023622048
20
-0.0651974015748032
11
1.2880679527559056
21
-0.0755527559055118
0
LINE
8
BLACK
6
CONTINUOUS
10
1.2880679527559056
20
-0.0755527559055118
11
1.2787023622047244
21
-0.0849183464566929
0
LINE
8
BLACK
6
CONTINUOUS
10
1.2787023622047244
20
-0.0849183464566929
11
1.2683470078740158
21
-0.0931764960629921
0
LINE
8
BLACK
6
CONTINUOUS
10
1.2683470078740158
20
-0.0931764960629921
11
1.2571321653543306
21
-0.1002232283464567
0
LINE
8
BLACK
6
CONTINUOUS
10
1.2571321653543306
20
-0.1002232283464567
11
1.2451988188976377
21
-0.1059700393700787
0
LINE
8
BLACK
6
CONTINUOUS
10
1.2451988188976377
20
-0.1059700393700787
11
1.2326971259842519
21
-0.1103445669291339
0
LINE
8
BLACK
6
CONTINUOUS
10
1.2326971259842519
20
-0.1103445669291339
11
1.2197842125984251
21
-0.1132918503937008
0
LINE
8
BLACK
6
CONTINUOUS
10
1.2197842125984251
20
-0.1132918503937008
11
1.2066224803149606
21
-0.1147748031496063
0
LINE
8
BLACK
6
CONTINUOUS
10
1.2066224803149606
20
-0.1147748031496063
11
1.1933775196850394
21
-0.1147748031496063
0
LINE
8
BLACK
6
CONTINUOUS
10
1.1933775196850394
20
-0.1147748031496063
11
1.1802157874015748
21
-0.1132918503937008
0
LINE
8
BLACK
6
CONTINUOUS
10
1.1802157874015748
20
-0.1132918503937008
11
1.1673028740157481
21
-0.1103445669291339
0
LINE
8
BLACK
6
CONTINUOUS
10
1.1673028740157481
20
-0.1103445669291339
11
1.1548011811023622
21
-0.1059700393700787
0
LINE
8
BLACK
6
CONTINUOUS
10
1.1548011811023622
20
-0.1059700393700787
11
1.1428678346456693
21
-0.1002232283464567
0
LINE
8
BLACK
6
CONTINUOUS
10
1.1428678346456693
20
-0.1002232283464567
11
1.1316529921259841
21
-0.0931764960629921
0
LINE
8
BLACK
6
CONTINUOUS
10
1.1316529921259841
20
-0.0931764960629921
11
1.1212976377952755
21
-0.0849183464566929
0
LINE
8
BLACK
6
CONTINUOUS
10
1.1212976377952755
20
-0.0849183464566929
11
1.1119320472440946
21
-0.0755527559055118
0
LINE
8
BLACK
6
CONTINUOUS
10
1.1119320472440946
20
-0.0755527559055118
11
1.1036738976377953
21
-0.0651974015748032
0
LINE
8
BLACK
6
CONTINUOUS
10
1.1036738976377953
20
-0.0651974015748032
11
1.0966271653543307
21
-0.0539825590551181
0
LINE
8
BLACK
6
CONTINUOUS
10
1.0966271653543307
20
-0.0539825590551181
11
1.0908803543307086
21
-0.0420492125984252
0
LINE
8
BLACK
6
CONTINUOUS
10
1.0908803543307086
20
-0.0420492125984252
11
1.0865058267716534
21
-0.0295475196850394
0
LINE
8
BLACK
6
CONTINUOUS
10
1.0865058267716534
20
-0.0295475196850394
11
1.0835585433070867
21
-0.0166346062992126
0
LINE
8
BLACK
6
CONTINUOUS
10
1.0835585433070867
20
-0.0166346062992126
11
1.0820755905511812
21
-0.003472874015748
0
LINE
8
BLACK
6
CONTINUOUS
10
1.0820755905511812
20
-0.003472874015748
11
1.0820755905511812
21
0.0097720866141732
0
LINE
8
BLACK
6
CONTINUOUS
10
1.0820755905511812
20
0.0097720866141732
11
1.0835585433070867
21
0.0229338188976378
0
LINE
8
BLACK
6
CONTINUOUS
10
1.0835585433070867
20
0.0229338188976378
11
1.0865058267716534
21
0.0358467322834646
0
LINE
8
BLACK
6
CONTINUOUS
10
1.0865058267716534
20
0.0358467322834646
11
1.0908803543307086
21
0.0483484251968504
0
LINE
8
BLACK
6
CONTINUOUS
10
1.0908803543307086
20
0.0483484251968504
11
1.0966271653543307
21
0.0602817716535433
0
LINE
8
BLACK
6
CONTINUOUS
10
1.0966271653543307
20
0.0602817716535433
11
1.1036738976377953
21
0.0714966141732283
0
LINE
8
BLACK
6
CONTINUOUS
10
1.1036738976377953
20
0.0714966141732283
11
1.1119320472440946
21
0.081851968503937
0
LINE
8
BLACK
6
CONTINUOUS
10
1.1119320472440946
20
0.081851968503937
11
1.1212976377952755
21
0.0912175590551181
0
LINE
8
BLACK
6
CONTINUOUS
10
1.1212976377952755
20
0.0912175590551181
11
1.1316529921259841
21
0.0994757086614173
0
LINE
8
BLACK
6
CONTINUOUS
10
1.1316529921259841
20
0.0994757086614173
11
1.1428678346456693
21
0.1065224409448819
0
LINE
8
BLACK
6
CONTINUOUS
10
1.1428678346456693
20
0.1065224409448819
11
1.1548011811023622
21
0.1122692519685039
0
LINE
8
BLACK
6
CONTINUOUS
10
1.1548011811023622
20
0.1122692519685039
11
1.1673028740157481
21
0.1166437795275591
0
LINE
8
BLACK
6
CONTINUOUS
10
1.1673028740157481
20
0.1166437795275591
11
1.1802157874015748
21
0.119591062992126
0
LINE
8
BLACK
6
CONTINUOUS
10
1.1802157874015748
20
0.119591062992126
11
1.1933775196850394
21
0.1210740157480315
0
LINE
8
BLACK
6
CONTINUOUS
10
1.1933775196850394
20
0.1210740157480315
11
1.2066224803149606
21
0.1210740157480315
0
LINE
8
BLACK
6
CONTINUOUS
10
1.2066224803149606
20
0.1210740157480315
11
1.2197842125984251
21
0.119591062992126
0
LINE
8
BLACK
6
CONTINUOUS
10
0.0197842125984252
20
2.0940005118110236
11
0.032697125984252
21
2.0910532283464565
0
LINE
8
BLACK
6
CONTINUOUS
10
0.032697125984252
20
2.0910532283464565
11
0.0451988188976378
21
2.0866787007874015
0
LINE
8
BLACK
6
CONTINUOUS
10
0.0451988188976378
20
2.0866787007874015
11
0.0571321653543307
21
2.0809318897637796
0
LINE
8
BLACK
6
CONTINUOUS
10
0.0571321653543307
20
2.0809318897637796
11
0.0683470078740157
21
2.0738851574803148
0
LINE
8
BLACK
6
CONTINUOUS
10
0.0683470078740157
20
2.0738851574803148
11
0.0787023622047244
21
2.0656270078740158
0
LINE
8
BLACK
6
CONTINUOUS
10
0.0787023622047244
20
2.0656270078740158
11
0.0880679527559055
21
2.0562614173228346
0
LINE
8
BLACK
6
CONTINUOUS
10
0.0880679527559055
20
2.0562614173228346
11
0.0963261023622047
21
2.0459060629921257
0
LINE
8
BLACK
6
CONTINUOUS
10
0.0963261023622047
20
2.0459060629921257
11
0.1033728346456693
21
2.0346912204724408
0
LINE
8
BLACK
6
CONTINUOUS
10
0.1033728346456693
20
2.0346912204724408
11
0.1091196456692913
21
2.0227578740157481
0
LINE
8
BLACK
6
CONTINUOUS
10
0.1091196456692913
20
2.0227578740157481
11
0.1134941732283465
21
2.010256181102362
0
LINE
8
BLACK
6
CONTINUOUS
10
0.1134941732283465
20
2.010256181102362
11
0.1164414566929134
21
1.9973432677165355
0
LINE
8
BLACK
6
CONTINUOUS
10
0.1164414566929134
20
1.9973432677165355
11
0.1179244094488189
21
1.9841815354330707
0
LINE
8
BLACK
6
CONTINUOUS
10
0.1179244094488189
20
1.9841815354330707
11
0.1179244094488189
21
1.9709365748031495
0
LINE
8
BLACK
6
CONTINUOUS
10
0.1179244094488189
20
1.9709365748031495
11
0.1164414566929134
21
1.957774842519685
0
LINE
8
BLACK
6
CONTINUOUS
10
0.1164414566929134
20
1.957774842519685
11
0.1134941732283465
21
1.9448619291338582
0
LINE
8
BLACK
6
CONTINUOUS
10
0.1134941732283465
20
1.9448619291338582
11
0.1091196456692913
21
1.9323602362204724
0
LINE
8
BLACK
6
CONTINUOUS
10
0.1091196456692913
20
1.9323602362204724
11
0.1033728346456693
21
1.9204268897637795
0
LINE
8
BLACK
6
CONTINUOUS
10
0.1033728346456693
20
1.9204268897637795
11
0.0963261023622047
21
1.9092120472440945
0
LINE
8
BLACK
6
CONTINUOUS
10
0.0963261023622047
20
1.9092120472440945
11
0.0880679527559055
21
1.8988566929133859
0
LINE
8
BLACK
6
CONTINUOUS
10
0.0880679527559055
20
1.8988566929133859
11
0.0787023622047244
21
1.8894911023622047
0
LINE
8
BLACK
6
CONTINUOUS
10
0.0787023622047244
20
1.8894911023622047
11
0.0683470078740157
21
1.8812329527559055
0
LINE
8
BLACK
6
CONTINUOUS
10
0.0683470078740157
20
1.8812329527559055
11
0.0571321653543307
21
1.8741862204724409
0
LINE
8
BLACK
6
CONTINUOUS
10
0.0571321653543307
20
1.8741862204724409
11
0.0451988188976378
21
1.8684394094488188
0
LINE
8
BLACK
6
CONTINUOUS
10
0.0451988188976378
20
1.8684394094488188
11
0.032697125984252
21
1.8640648818897638
0
LINE
8
BLACK
6
CONTINUOUS
10
0.032697125984252
20
1.8640648818897638
11
0.0197842125984252
21
1.8611175984251969
0
LINE
8
BLACK
6
CONTINUOUS
10
0.0197842125984252
20
1.8611175984251969
11
0.0066224803149606
21
1.8596346456692914
0
LINE
8
BLACK
6
CONTINUOUS
10
0.0066224803149606
20
1.8596346456692914
11
-0.0066224803149606
21
1.8596346456692914
0
LINE
8
BLACK
6
CONTINUOUS
10
-0.0066224803149606
20
1.8596346456692914
11
-0.0197842125984252
21
1.8611175984251969
0
LINE
8
BLACK
6
CONTINUOUS
10
-0.0197842125984252
20
1.8611175984251969
11
-0.032697125984252
21
1.8640648818897638
0
LINE
8
BLACK
6
CONTINUOUS
10
-0.032697125984252
20
1.8640648818897638
11
-0.0451988188976378
21
1.8684394094488188
0
LINE
8
BLACK
6
CONTINUOUS
10
-0.0451988188976378
20
1.8684394094488188
11
-0.0571321653543307
21
1.8741862204724409
0
LINE
8
BLACK
6
CONTINUOUS
10
-0.0571321653543307
20
1.8741862204724409
11
-0.0683470078740157
21
1.8812329527559055
0
LINE
8
BLACK
6
CONTINUOUS
10
-0.0683470078740157
20
1.8812329527559055
11
-0.0787023622047244
21
1.8894911023622047
0
LINE
8
BLACK
6
CONTINUOUS
10
-0.0787023622047244
20
1.8894911023622047
11
-0.0880679527559055
21
1.8988566929133859
0
LINE
8
BLACK
6
CONTINUOUS
10
-0.0880679527559055
20
1.8988566929133859
11
-0.0963261023622047
21
1.9092120472440945
0
LINE
8
BLACK
6
CONTINUOUS
10
-0.0963261023622047
20
1.9092120472440945
11
-0.1033728346456693
21
1.9204268897637795
0
LINE
8
BLACK
6
CONTINUOUS
10
-0.1033728346456693
20
1.9204268897637795
11
-0.1091196456692913
21
1.9323602362204724
0
LINE
8
BLACK
6
CONTINUOUS
10
-0.1091196456692913
20
1.9323602362204724
11
-0.1134941732283465
21
1.9448619291338582
0
LINE
8
BLACK
6
CONTINUOUS
10
-0.1134941732283465
20
1.9448619291338582
11
-0.1164414566929134
21
1.957774842519685
0
LINE
8
BLACK
6
CONTINUOUS
10
-0.1164414566929134
20
1.957774842519685
11
-0.1179244094488189
21
1.9709365748031495
0
LINE
8
BLACK
6
CONTINUOUS
10
-0.1179244094488189
20
1.9709365748031495
11
-0.1179244094488189
21
1.9841815354330707
0
LINE
8
BLACK
6
CONTINUOUS
10
-0.1179244094488189
20
1.9841815354330707
11
-0.1164414566929134
21
1.9973432677165355
0
LINE
8
BLACK
6
CONTINUOUS
10
-0.1164414566929134
20
1.9973432677165355
11
-0.1134941732283465
21
2.010256181102362
0
LINE
8
BLACK
6
CONTINUOUS
10
-0.1134941732283465
20
2.010256181102362
11
-0.1091196456692913
21
2.0227578740157481
0
LINE
8
BLACK
6
CONTINUOUS
10
-0.1091196456692913
20
2.0227578740157481
11
-0.1033728346456693
21
2.0346912204724408
0
LINE
8
BLACK
6
CONTINUOUS
10
-0.1033728346456693
20
2.0346912204724408
11
-0.0963261023622047
21
2.0459060629921257
0
LINE
8
BLACK
6
CONTINUOUS
10
-0.0963261023622047
20
2.0459060629921257
11
-0.0880679527559055
21
2.0562614173228346
0
LINE
8
BLACK
6
CONTINUOUS
10
-0.0880679527559055
20
2.0562614173228346
11
-0.0787023622047244
21
2.0656270078740158
0
LINE
8
BLACK
6
CONTINUOUS
10
-0.0787023622047244
20
2.0656270078740158
11
-0.0683470078740157
21
2.0738851574803148
0
LINE
8
BLACK
6
CONTINUOUS
10
-0.0683470078740157
20
2.0738851574803148
11
-0.0571321653543307
21
2.0809318897637796
0
LINE
8
BLACK
6
CONTINUOUS
10
-0.0571321653543307
20
2.0809318897637796
11
-0.0451988188976378
21
2.0866787007874015
0
LINE
8
BLACK
6
CONTINUOUS
10
-0.0451988188976378
20
2.0866787007874015
11
-0.032697125984252
21
2.0910532283464565
0
LINE
8
BLACK
6
CONTINUOUS
10
-0.032697125984252
20
2.0910532283464565
11
-0.0197842125984252
21
2.0940005118110236
0
LINE
8
BLACK
6
CONTINUOUS
10
-0.0197842125984252
20
2.0940005118110236
11
-0.0066224803149606
21
2.0954834645669291
0
LINE
8
BLACK
6
CONTINUOUS
10
-0.0066224803149606
20
2.0954834645669291
11
0.0066224803149606
21
2.0954834645669291
0
LINE
8
BLACK
6
CONTINUOUS
10
0.0066224803149606
20
2.0954834645669291
11
0.0197842125984252
21
2.0940005118110236
0
LINE
8
BLACK
6
CONTINUOUS
10
1.2197842125984251
20
2.0940005118110236
11
1.2326971259842519
21
2.0910532283464565
0
LINE
8
BLACK
6
CONTINUOUS
10
1.2326971259842519
20
2.0910532283464565
11
1.2451988188976377
21
2.0866787007874015
0
LINE
8
BLACK
6
CONTINUOUS
10
1.2451988188976377
20
2.0866787007874015
11
1.2571321653543306
21
2.0809318897637796
0
LINE
8
BLACK
6
CONTINUOUS
10
1.2571321653543306
20
2.0809318897637796
11
1.2683470078740158
21
2.0738851574803148
0
LINE
8
BLACK
6
CONTINUOUS
10
1.2683470078740158
20
2.0738851574803148
11
1.2787023622047244
21
2.0656270078740158
0
LINE
8
BLACK
6
CONTINUOUS
10
1.2787023622047244
20
2.0656270078740158
11
1.2880679527559056
21
2.0562614173228346
0
LINE
8
BLACK
6
CONTINUOUS
10
1.2880679527559056
20
2.0562614173228346
11
1.2963261023622048
21
2.0459060629921257
0
LINE
8
BLACK
6
CONTINUOUS
10
1.2963261023622048
20
2.0459060629921257
11
1.3033728346456692
21
2.0346912204724408
0
LINE
8
BLACK
6
CONTINUOUS
10
1.3033728346456692
20
2.0346912204724408
11
1.3091196456692913
21
2.0227578740157481
0
LINE
8
BLACK
6
CONTINUOUS
10
1.3091196456692913
20
2.0227578740157481
11
1.3134941732283465
21
2.010256181102362
0
LINE
8
BLACK
6
CONTINUOUS
10
1.3134941732283465
20
2.010256181102362
11
1.3164414566929135
21
1.9973432677165355
0
LINE
8
BLACK
6
CONTINUOUS
10
1.3164414566929135
20
1.9973432677165355
11
1.3179244094488189
21
1.9841815354330707
0
LINE
8
BLACK
6
CONTINUOUS
10
1.3179244094488189
20
1.9841815354330707
11
1.3179244094488189
21
1.9709365748031495
0
LINE
8
BLACK
6
CONTINUOUS
10
1.3179244094488189
20
1.9709365748031495
11
1.3164414566929135
21
1.957774842519685
0
LINE
8
BLACK
6
CONTINUOUS
10
1.3164414566929135
20
1.957774842519685
11
1.3134941732283465
21
1.9448619291338582
0
LINE
8
BLACK
6
CONTINUOUS
10
1.3134941732283465
20
1.9448619291338582
11
1.3091196456692913
21
1.9323602362204724
0
LINE
8
BLACK
6
CONTINUOUS
10
1.3091196456692913
20
1.9323602362204724
11
1.3033728346456692
21
1.9204268897637795
0
LINE
8
BLACK
6
CONTINUOUS
10
1.3033728346456692
20
1.9204268897637795
11
1.2963261023622048
21
1.9092120472440945
0
LINE
8
BLACK
6
CONTINUOUS
10
1.2963261023622048
20
1.9092120472440945
11
1.2880679527559056
21
1.8988566929133859
0
LINE
8
BLACK
6
CONTINUOUS
10
1.2880679527559056
20
1.8988566929133859
11
1.2787023622047244
21
1.8894911023622047
0
LINE
8
BLACK
6
CONTINUOUS
10
1.2787023622047244
20
1.8894911023622047
11
1.2683470078740158
21
1.8812329527559055
0
LINE
8
BLACK
6
CONTINUOUS
10
1.2683470078740158
20
1.8812329527559055
11
1.2571321653543306
21
1.8741862204724409
0
LINE
8
BLACK
6
CONTINUOUS
10
1.2571321653543306
20
1.8741862204724409
11
1.2451988188976377
21
1.8684394094488188
0
LINE
8
BLACK
6
CONTINUOUS
10
1.2451988188976377
20
1.8684394094488188
11
1.2326971259842519
21
1.8640648818897638
0
LINE
8
BLACK
6
CONTINUOUS
10
1.2326971259842519
20
1.8640648818897638
11
1.2197842125984251
21
1.8611175984251969
0
LINE
8
BLACK
6
CONTINUOUS
10
1.2197842125984251
20
1.8611175984251969
11
1.2066224803149606
21
1.8596346456692914
0
LINE
8
BLACK
6
CONTINUOUS
10
1.2066224803149606
20
1.8596346456692914
11
1.1933775196850394
21
1.8596346456692914
0
LINE
8
BLACK
6
CONTINUOUS
10
1.1933775196850394
20
1.8596346456692914
11
1.1802157874015748
21
1.8611175984251969
0
LINE
8
BLACK
6
CONTINUOUS
10
1.1802157874015748
20
1.8611175984251969
11
1.1673028740157481
21
1.8640648818897638
0
LINE
8
BLACK
6
CONTINUOUS
10
1.1673028740157481
20
1.8640648818897638
11
1.1548011811023622
21
1.8684394094488188
0
LINE
8
BLACK
6
CONTINUOUS
10
1.1548011811023622
20
1.8684394094488188
11
1.1428678346456693
21
1.8741862204724409
0
LINE
8
BLACK
6
CONTINUOUS
10
1.1428678346456693
20
1.8741862204724409
11
1.1316529921259841
21
1.8812329527559055
0
LINE
8
BLACK
6
CONTINUOUS
10
1.1316529921259841
20
1.8812329527559055
11
1.1212976377952755
21
1.8894911023622047
0
LINE
8
BLACK
6
CONTINUOUS
10
1.1212976377952755
20
1.8894911023622047
11
1.1119320472440946
21
1.8988566929133859
0
LINE
8
BLACK
6
CONTINUOUS
10
1.1119320472440946
20
1.8988566929133859
11
1.1036738976377953
21
1.9092120472440945
0
LINE
8
BLACK
6
CONTINUOUS
10
1.1036738976377953
20
1.9092120472440945
11
1.0966271653543307
21
1.9204268897637795
0
LINE
8
BLACK
6
CONTINUOUS
10
1.0966271653543307
20
1.9204268897637795
11
1.0908803543307086
21
1.9323602362204724
0
LINE
8
BLACK
6
CONTINUOUS
10
1.0908803543307086
20
1.9323602362204724
11
1.0865058267716534
21
1.9448619291338582
0
LINE
8
BLACK
6
CONTINUOUS
10
1.0865058267716534
20
1.9448619291338582
11
1.0835585433070867
21
1.957774842519685
0
LINE
8
BLACK
6
CONTINUOUS
10
1.0835585433070867
20
1.957774842519685
11
1.0820755905511812
21
1.9709365748031495
0
LINE
8
BLACK
6
CONTINUOUS
10
1.0820755905511812
20
1.9709365748031495
11
1.0820755905511812
21
1.9841815354330707
0
LINE
8
BLACK
6
CONTINUOUS
10
1.0820755905511812
20
1.9841815354330707
11
1.0835585433070867
21
1.9973432677165355
0
LINE
8
BLACK
6
CONTINUOUS
10
1.0835585433070867
20
1.9973432677165355
11
1.0865058267716534
21
2.010256181102362
0
LINE
8
BLACK
6
CONTINUOUS
10
1.0865058267716534
20
2.010256181102362
11
1.0908803543307086
21
2.0227578740157481
0
LINE
8
BLACK
6
CONTINUOUS
10
1.0908803543307086
20
2.0227578740157481
11
1.0966271653543307
21
2.0346912204724408
0
LINE
8
BLACK
6
CONTINUOUS
10
1.0966271653543307
20
2.0346912204724408
11
1.1036738976377953
21
2.0459060629921257
0
LINE
8
BLACK
6
CONTINUOUS
10
1.1036738976377953
20
2.0459060629921257
11
1.1119320472440946
21
2.0562614173228346
0
LINE
8
BLACK
6
CONTINUOUS
10
1.1119320472440946
20
2.0562614173228346
11
1.1212976377952755
21
2.0656270078740158
0
LINE
8
BLACK
6
CONTINUOUS
10
1.1212976377952755
20
2.0656270078740158
11
1.1316529921259841
21
2.0738851574803148
0
LINE
8
BLACK
6
CONTINUOUS
10
1.1316529921259841
20
2.0738851574803148
11
1.1428678346456693
21
2.0809318897637796
0
LINE
8
BLACK
6
CONTINUOUS
10
1.1428678346456693
20
2.0809318897637796
11
1.1548011811023622
21
2.0866787007874015
0
LINE
8
BLACK
6
CONTINUOUS
10
1.1548011811023622
20
2.0866787007874015
11
1.1673028740157481
21
2.0910532283464565
0
LINE
8
BLACK
6
CONTINUOUS
10
1.1673028740157481
20
2.0910532283464565
11
1.1802157874015748
21
2.0940005118110236
0
LINE
8
BLACK
6
CONTINUOUS
10
1.1802157874015748
20
2.0940005118110236
11
1.1933775196850394
21
2.0954834645669291
0
LINE
8
BLACK
6
CONTINUOUS
10
1.1933775196850394
20
2.0954834645669291
11
1.2066224803149606
21
2.0954834645669291
0
LINE
8
BLACK
6
CONTINUOUS
10
1.2066224803149606
20
2.0954834645669291
11
1.2197842125984251
21
2.0940005118110236
0
LINE
8
BLACK
6
CONTINUOUS
10
0.319763779527559
20
1.8983464566929134
11
0.259763779527559
21
1.8983464566929134
0
LINE
8
BLACK
6
CONTINUOUS
10
0.259763779527559
20
1.8983464566929134
11
0.259763779527559
21
1.9583464566929134
0
LINE
8
BLACK
6
CONTINUOUS
10
0.259763779527559
20
1.9583464566929134
11
0.319763779527559
21
1.9583464566929134
0
LINE
8
BLACK
6
CONTINUOUS
10
0.319763779527559
20
1.9583464566929134
11
0.319763779527559
21
1.8983464566929134
0
LINE
8
BLACK
6
CONTINUOUS
10
0.4197637795275591
20
1.8983464566929134
11
0.3597637795275591
21
1.8983464566929134
0
LINE
8
BLACK
6
CONTINUOUS
10
0.3597637795275591
20
1.8983464566929134
11
0.3597637795275591
21
1.9583464566929134
0
LINE
8
BLACK
6
CONTINUOUS
10
0.3597637795275591
20
1.9583464566929134
11
0.4197637795275591
21
1.9583464566929134
0
LINE
8
BLACK
6
CONTINUOUS
10
0.4197637795275591
20
1.9583464566929134
11
0.4197637795275591
21
1.8983464566929134
0
LINE
8
BLACK
6
CONTINUOUS
10
0.519763779527559
20
1.8983464566929134
11
0.459763779527559
21
1.8983464566929134
0
LINE
8
BLACK
6
CONTINUOUS
10
0.459763779527559
20
1.8983464566929134
11
0.459763779527559
21
1.9583464566929134
0
LINE
8
BLACK
6
CONTINUOUS
10
0.459763779527559
20
1.9583464566929134
11
0.519763779527559
21
1.9583464566929134
0
LINE
8
BLACK
6
CONTINUOUS
10
0.519763779527559
20
1.9583464566929134
11
0.519763779527559
21
1.8983464566929134
0
LINE
8
BLACK
6
CONTINUOUS
10
0.619763779527559
20
1.8983464566929134
11
0.5597637795275591
21
1.8983464566929134
0
LINE
8
BLACK
6
CONTINUOUS
10
0.5597637795275591
20
1.8983464566929134
11
0.5597637795275591
21
1.9583464566929134
0
LINE
8
BLACK
6
CONTINUOUS
10
0.5597637795275591
20
1.9583464566929134
11
0.619763779527559
21
1.9583464566929134
0
LINE
8
BLACK
6
CONTINUOUS
10
0.619763779527559
20
1.9583464566929134
11
0.619763779527559
21
1.8983464566929134
0
LINE
8
BLACK
6
CONTINUOUS
10
0.719763779527559
20
1.8983464566929134
11
0.659763779527559
21
1.8983464566929134
0
LINE
8
BLACK
6
CONTINUOUS
10
0.659763779527559
20
1.8983464566929134
11
0.659763779527559
21
1.9583464566929134
0
LINE
8
BLACK
6
CONTINUOUS
10
0.659763779527559
20
1.9583464566929134
11
0.719763779527559
21
1.9583464566929134
0
LINE
8
BLACK
6
CONTINUOUS
10
0.719763779527559
20
1.9583464566929134
11
0.719763779527559
21
1.8983464566929134
0
LINE
8
BLACK
6
CONTINUOUS
10
0.8197637795275591
20
1.8983464566929134
11
0.759763779527559
21
1.8983464566929134
0
LINE
8
BLACK
6
CONTINUOUS
10
0.759763779527559
20
1.8983464566929134
11
0.759763779527559
21
1.9583464566929134
0
LINE
8
BLACK
6
CONTINUOUS
10
0.759763779527559
20
1.9583464566929134
11
0.8197637795275591
21
1.9583464566929134
0
LINE
8
BLACK
6
CONTINUOUS
10
0.8197637795275591
20
1.9583464566929134
11
0.8197637795275591
21
1.8983464566929134
0
LINE
8
BLACK
6
CONTINUOUS
10
0.9197637795275591
20
1.8983464566929134
11
0.859763779527559
21
1.8983464566929134
0
LINE
8
BLACK
6
CONTINUOUS
10
0.859763779527559
20
1.8983464566929134
11
0.859763779527559
21
1.9583464566929134
0
LINE
8
BLACK
6
CONTINUOUS
10
0.859763779527559
20
1.9583464566929134
11
0.9197637795275591
21
1.9583464566929134
0
LINE
8
BLACK
6
CONTINUOUS
10
0.9197637795275591
20
1.9583464566929134
11
0.9197637795275591
21
1.8983464566929134
0
LINE
8
BLACK
6
CONTINUOUS
10
0.319763779527559
20
1.9983464566929134
11
0.259763779527559
21
1.9983464566929134
0
LINE
8
BLACK
6
CONTINUOUS
10
0.259763779527559
20
1.9983464566929134
11
0.259763779527559
21
2.0583464566929135
0
LINE
8
BLACK
6
CONTINUOUS
10
0.259763779527559
20
2.0583464566929135
11
0.319763779527559
21
2.0583464566929135
0
LINE
8
BLACK
6
CONTINUOUS
10
0.319763779527559
20
2.0583464566929135
11
0.319763779527559
21
1.9983464566929134
0
LINE
8
BLACK
6
CONTINUOUS
10
0.4197637795275591
20
1.9983464566929134
11
0.3597637795275591
21
1.9983464566929134
0
LINE
8
BLACK
6
CONTINUOUS
10
0.3597637795275591
20
1.9983464566929134
11
0.3597637795275591
21
2.0583464566929135
0
LINE
8
BLACK
6
CONTINUOUS
10
0.3597637795275591
20
2.0583464566929135
11
0.4197637795275591
21
2.0583464566929135
0
LINE
8
BLACK
6
CONTINUOUS
10
0.4197637795275591
20
2.0583464566929135
11
0.4197637795275591
21
1.9983464566929134
0
LINE
8
BLACK
6
CONTINUOUS
10
0.519763779527559
20
1.9983464566929134
11
0.459763779527559
21
1.9983464566929134
0
LINE
8
BLACK
6
CONTINUOUS
10
0.459763779527559
20
1.9983464566929134
11
0.459763779527559
21
2.0583464566929135
0
LINE
8
BLACK
6
CONTINUOUS
10
0.459763779527559
20
2.0583464566929135
11
0.519763779527559
21
2.0583464566929135
0
LINE
8
BLACK
6
CONTINUOUS
10
0.519763779527559
20
2.0583464566929135
11
0.519763779527559
21
1.9983464566929134
0
LINE
8
BLACK
6
CONTINUOUS
10
0.619763779527559
20
1.9983464566929134
11
0.5597637795275591
21
1.9983464566929134
0
LINE
8
BLACK
6
CONTINUOUS
10
0.5597637795275591
20
1.9983464566929134
11
0.5597637795275591
21
2.0583464566929135
0
LINE
8
BLACK
6
CONTINUOUS
10
0.5597637795275591
20
2.0583464566929135
11
0.619763779527559
21
2.0583464566929135
0
LINE
8
BLACK
6
CONTINUOUS
10
0.619763779527559
20
2.0583464566929135
11
0.619763779527559
21
1.9983464566929134
0
LINE
8
BLACK
6
CONTINUOUS
10
0.719763779527559
20
1.9983464566929134
11
0.659763779527559
21
1.9983464566929134
0
LINE
8
BLACK
6
CONTINUOUS
10
0.659763779527559
20
1.9983464566929134
11
0.659763779527559
21
2.0583464566929135
0
LINE
8
BLACK
6
CONTINUOUS
10
0.659763779527559
20
2.0583464566929135
11
0.719763779527559
21
2.0583464566929135
0
LINE
8
BLACK
6
CONTINUOUS
10
0.719763779527559
20
2.0583464566929135
11
0.719763779527559
21
1.9983464566929134
0
LINE
8
BLACK
6
CONTINUOUS
10
0.8197637795275591
20
1.9983464566929134
11
0.759763779527559
21
1.9983464566929134
0
LINE
8
BLACK
6
CONTINUOUS
10
0.759763779527559
20
1.9983464566929134
11
0.759763779527559
21
2.0583464566929135
0
LINE
8
BLACK
6
CONTINUOUS
10
0.759763779527559
20
2.0583464566929135
11
0.8197637795275591
21
2.0583464566929135
0
LINE
8
BLACK
6
CONTINUOUS
10
0.8197637795275591
20
2.0583464566929135
11
0.8197637795275591
21
1.9983464566929134
0
LINE
8
BLACK
6
CONTINUOUS
10
0.9197637795275591
20
1.9983464566929134
11
0.859763779527559
21
1.9983464566929134
0
LINE
8
BLACK
6
CONTINUOUS
10
0.859763779527559
20
1.9983464566929134
11
0.859763779527559
21
2.0583464566929135
0
LINE
8
BLACK
6
CONTINUOUS
10
0.859763779527559
20
2.0583464566929135
11
0.9197637795275591
21
2.0583464566929135
0
LINE
8
BLACK
6
CONTINUOUS
10
0.9197637795275591
20
2.0583464566929135
11
0.9197637795275591
21
1.9983464566929134
0
CIRCLE
8
BLACK
10
0.
20
1.9775590551181101
40
0.0068897637795276
0
CIRCLE
8
BLACK
10
1.2
20
0.0031496062992126
40
0.0068897637795276
0
CIRCLE
8
BLACK
10
0.
20
0.0031496062992126
40
0.0068897637795276
0
CIRCLE
8
BLACK
10
1.2
20
1.9775590551181101
40
0.0068897637795276
0
CIRCLE
8
BLACK
10
0.889763779527559
20
2.0283464566929132
40
0.0068897637795276
0
CIRCLE
8
BLACK
10
0.889763779527559
20
1.9283464566929134
40
0.0068897637795276
0
CIRCLE
8
BLACK
10
0.7897637795275591
20
2.0283464566929132
40
0.0068897637795276
0
CIRCLE
8
BLACK
10
0.7897637795275591
20
1.9283464566929134
40
0.0068897637795276
0
CIRCLE
8
BLACK
10
0.6897637795275591
20
2.0283464566929132
40
0.0068897637795276
0
CIRCLE
8
BLACK
10
0.6897637795275591
20
1.9283464566929134
40
0.0068897637795276
0
CIRCLE
8
BLACK
10
0.5897637795275591
20
2.0283464566929132
40
0.0068897637795276
0
CIRCLE
8
BLACK
10
0.5897637795275591
20
1.9283464566929134
40
0.0068897637795276
0
CIRCLE
8
BLACK
10
0.4897637795275591
20
2.0283464566929132
40
0.0068897637795276
0
CIRCLE
8
BLACK
10
0.4897637795275591
20
1.9283464566929134
40
0.0068897637795276
0
CIRCLE
8
BLACK
10
0.389763779527559
20
2.0283464566929132
40
0.0068897637795276
0
CIRCLE
8
BLACK
10
0.389763779527559
20
1.9283464566929134
40
0.0068897637795276
0
CIRCLE
8
BLACK
10
0.2897637795275591
20
2.0283464566929132
40
0.0068897637795276
0
CIRCLE
8
BLACK
10
0.2897637795275591
20
1.9283464566929134
40
0.0068897637795276
0
CIRCLE
8
WHITE
10
0.
20
1.9775590551181101
40
0.0068897637795276
0
CIRCLE
8
WHITE
10
1.2
20
0.0031496062992126
40
0.0068897637795276
0
CIRCLE
8
WHITE
10
0.
20
0.0031496062992126
40
0.0068897637795276
0
CIRCLE
8
WHITE
10
1.2
20
1.9775590551181101
40
0.0068897637795276
0
CIRCLE
8
WHITE
10
0.889763779527559
20
2.0283464566929132
40
0.0068897637795276
0
CIRCLE
8
WHITE
10
0.889763779527559
20
1.9283464566929134
40
0.0068897637795276
0
CIRCLE
8
WHITE
10
0.7897637795275591
20
2.0283464566929132
40
0.0068897637795276
0
CIRCLE
8
WHITE
10
0.7897637795275591
20
1.9283464566929134
40
0.0068897637795276
0
CIRCLE
8
WHITE
10
0.6897637795275591
20
2.0283464566929132
40
0.0068897637795276
0
CIRCLE
8
WHITE
10
0.6897637795275591
20
1.9283464566929134
40
0.0068897637795276
0
CIRCLE
8
WHITE
10
0.5897637795275591
20
2.0283464566929132
40
0.0068897637795276
0
CIRCLE
8
WHITE
10
0.5897637795275591
20
1.9283464566929134
40
0.0068897637795276
0
CIRCLE
8
WHITE
10
0.4897637795275591
20
2.0283464566929132
40
0.0068897637795276
0
CIRCLE
8
WHITE
10
0.4897637795275591
20
1.9283464566929134
40
0.0068897637795276
0
CIRCLE
8
WHITE
10
0.389763779527559
20
2.0283464566929132
40
0.0068897637795276
0
CIRCLE
8
WHITE
10
0.389763779527559
20
1.9283464566929134
40
0.0068897637795276
0
CIRCLE
8
WHITE
10
0.2897637795275591
20
2.0283464566929132
40
0.0068897637795276
0
CIRCLE
8
WHITE
10
0.2897637795275591
20
1.9283464566929134
40
0.0068897637795276
  0
ENDSEC
  0
EOF
