  0
SECTION
  2
HEADER
  9
$ANGBASE
  50
0.0
  9
$ANGDIR
  70
1
  9
$MEASUREMENT
  70
0
  0
ENDSEC
  0
SECTION
  2
TABLES
  0
TABLE
  2
LTYPE
  70
4
  0
LTYPE
  5
40F
  2
CONTINUOUS
  70
0
  3
Solid line
  72
65
  73
0
  40
0.0
  0
LTYPE
  5
410
  2
DASHDOT
 70
0
  3
Dash Dot ____ _ ____ _
 72
65
 73
4
 40
2.0
 49
1.25
 49
-0.25
 49
0.25
 49
-0.25
  0
LTYPE
  5
411
  2
DASHED
 70
0
  3
Dashed __ __ __ __ __
 72
65
 73
2
 40
0.75
 49
0.5
 49
-0.25
  0
LTYPE
  5
43B
  2
DOTTED
 70
0
  3
Dotted .  .  .  .
 72
65
 73
2
 40
0.2
 49
0.0
 49
-0.2
  0
ENDTAB
  0
TABLE
  2
STYLE
  70
4
  0
STYLE
  2
KICAD
  70
0
  40
0
  41
1
  42
1
  50
0
  71
0
  3
isocp.shx
  0
STYLE
  2
KICADB
  70
0
  40
0
  41
1
  42
1
  50
0
  71
0
  3
isocp.shx
  0
STYLE
  2
KICADI
  70
0
  40
0
  41
1
  42
1
  50
15
  71
0
  3
isocp.shx
  0
STYLE
  2
KICADBI
  70
0
  40
0
  41
1
  42
1
  50
15
  71
0
  3
isocp.shx
  0
ENDTAB
  0
TABLE
  2
LAYER
  70
1
  0
LAYER
  2
BLACK
  70
0
  62
7
  6
CONTINUOUS
  0
ENDTAB
  0
ENDSEC
  0
SECTION
  2
ENTITIES
0
LINE
8
BLACK
6
CONTINUOUS
10
0.6821961023622047
20
1.4146156692913385
11
0.6846944094488189
21
1.4121173622047243
0
LINE
8
BLACK
6
CONTINUOUS
10
0.6846944094488189
20
1.4121173622047243
11
0.6860464960629921
21
1.408853188976378
0
LINE
8
BLACK
6
CONTINUOUS
10
0.6860464960629921
20
1.408853188976378
11
0.6860464960629921
21
1.4053200393700787
0
LINE
8
BLACK
6
CONTINUOUS
10
0.6860464960629921
20
1.4053200393700787
11
0.6846944094488189
21
1.4020558661417322
0
LINE
8
BLACK
6
CONTINUOUS
10
0.6846944094488189
20
1.4020558661417322
11
0.6821961023622047
21
1.3995575590551181
0
LINE
8
BLACK
6
CONTINUOUS
10
0.6821961023622047
20
1.3995575590551181
11
0.6789319291338582
21
1.398205472440945
0
LINE
8
BLACK
6
CONTINUOUS
10
0.6789319291338582
20
1.398205472440945
11
0.675398779527559
21
1.398205472440945
0
LINE
8
BLACK
6
CONTINUOUS
10
0.675398779527559
20
1.398205472440945
11
0.6721346062992126
21
1.3995575590551181
0
LINE
8
BLACK
6
CONTINUOUS
10
0.6721346062992126
20
1.3995575590551181
11
0.6696362992125984
21
1.4020558661417322
0
LINE
8
BLACK
6
CONTINUOUS
10
0.6696362992125984
20
1.4020558661417322
11
0.669427874015748
21
1.4025590551181102
0
LINE
8
BLACK
6
CONTINUOUS
10
0.669427874015748
20
1.4025590551181102
11
0.4572762598425197
21
1.4025590551181102
0
LINE
8
BLACK
6
CONTINUOUS
10
0.4572762598425197
20
1.4025590551181102
11
0.4567416535433071
21
1.4012684645669291
0
LINE
8
BLACK
6
CONTINUOUS
10
0.4567416535433071
20
1.4012684645669291
11
0.4542433464566929
21
1.3987701574803149
0
LINE
8
BLACK
6
CONTINUOUS
10
0.4542433464566929
20
1.3987701574803149
11
0.4509791732283465
21
1.3974180708661417
0
LINE
8
BLACK
6
CONTINUOUS
10
0.4509791732283465
20
1.3974180708661417
11
0.4474460236220472
21
1.3974180708661417
0
LINE
8
BLACK
6
CONTINUOUS
10
0.4474460236220472
20
1.3974180708661417
11
0.4441818503937008
21
1.3987701574803149
0
LINE
8
BLACK
6
CONTINUOUS
10
0.4441818503937008
20
1.3987701574803149
11
0.4416835433070866
21
1.4012684645669291
0
LINE
8
BLACK
6
CONTINUOUS
10
0.4416835433070866
20
1.4012684645669291
11
0.4403314566929134
21
1.4045326377952756
0
LINE
8
BLACK
6
CONTINUOUS
10
0.4403314566929134
20
1.4045326377952756
11
0.4403314566929134
21
1.4080657874015747
0
LINE
8
BLACK
6
CONTINUOUS
10
0.4403314566929134
20
1.4080657874015747
11
0.4416835433070866
21
1.4113299606299212
0
LINE
8
BLACK
6
CONTINUOUS
10
0.4416835433070866
20
1.4113299606299212
11
0.4441818503937008
21
1.4138282677165355
0
LINE
8
BLACK
6
CONTINUOUS
10
0.4441818503937008
20
1.4138282677165355
11
0.4474460236220472
21
1.4151803543307087
0
LINE
8
BLACK
6
CONTINUOUS
10
0.4474460236220472
20
1.4151803543307087
11
0.4509791732283465
21
1.4151803543307087
0
LINE
8
BLACK
6
CONTINUOUS
10
0.4509791732283465
20
1.4151803543307087
11
0.4542433464566929
21
1.4138282677165355
0
LINE
8
BLACK
6
CONTINUOUS
10
0.4542433464566929
20
1.4138282677165355
11
0.4567416535433071
21
1.4113299606299212
0
LINE
8
BLACK
6
CONTINUOUS
10
0.4567416535433071
20
1.4113299606299212
11
0.4579285433070866
21
1.4084645669291338
0
LINE
8
BLACK
6
CONTINUOUS
10
0.4579285433070866
20
1.4084645669291338
11
0.6682842125984252
21
1.4084645669291338
0
LINE
8
BLACK
6
CONTINUOUS
10
0.6682842125984252
20
1.4084645669291338
11
0.6682842125984252
21
1.408853188976378
0
LINE
8
BLACK
6
CONTINUOUS
10
0.6682842125984252
20
1.408853188976378
11
0.6696362992125984
21
1.4121173622047243
0
LINE
8
BLACK
6
CONTINUOUS
10
0.6696362992125984
20
1.4121173622047243
11
0.6721346062992126
21
1.4146156692913385
0
LINE
8
BLACK
6
CONTINUOUS
10
0.6721346062992126
20
1.4146156692913385
11
0.675398779527559
21
1.4159677559055117
0
LINE
8
BLACK
6
CONTINUOUS
10
0.675398779527559
20
1.4159677559055117
11
0.6789319291338582
21
1.4159677559055117
0
LINE
8
BLACK
6
CONTINUOUS
10
0.6789319291338582
20
1.4159677559055117
11
0.6821961023622047
21
1.4146156692913385
0
LINE
8
BLACK
6
CONTINUOUS
10
0.4197637795275591
20
1.8983464566929134
11
0.3597637795275591
21
1.8983464566929134
0
LINE
8
BLACK
6
CONTINUOUS
10
0.3597637795275591
20
1.8983464566929134
11
0.3597637795275591
21
1.9583464566929134
0
LINE
8
BLACK
6
CONTINUOUS
10
0.3597637795275591
20
1.9583464566929134
11
0.4197637795275591
21
1.9583464566929134
0
LINE
8
BLACK
6
CONTINUOUS
10
0.4197637795275591
20
1.9583464566929134
11
0.4197637795275591
21
1.8983464566929134
0
LINE
8
BLACK
6
CONTINUOUS
10
0.519763779527559
20
1.8983464566929134
11
0.459763779527559
21
1.8983464566929134
0
LINE
8
BLACK
6
CONTINUOUS
10
0.459763779527559
20
1.8983464566929134
11
0.459763779527559
21
1.9583464566929134
0
LINE
8
BLACK
6
CONTINUOUS
10
0.459763779527559
20
1.9583464566929134
11
0.519763779527559
21
1.9583464566929134
0
LINE
8
BLACK
6
CONTINUOUS
10
0.519763779527559
20
1.9583464566929134
11
0.519763779527559
21
1.8983464566929134
0
LINE
8
BLACK
6
CONTINUOUS
10
0.619763779527559
20
1.8983464566929134
11
0.5597637795275591
21
1.8983464566929134
0
LINE
8
BLACK
6
CONTINUOUS
10
0.5597637795275591
20
1.8983464566929134
11
0.5597637795275591
21
1.9583464566929134
0
LINE
8
BLACK
6
CONTINUOUS
10
0.5597637795275591
20
1.9583464566929134
11
0.619763779527559
21
1.9583464566929134
0
LINE
8
BLACK
6
CONTINUOUS
10
0.619763779527559
20
1.9583464566929134
11
0.619763779527559
21
1.8983464566929134
0
LINE
8
BLACK
6
CONTINUOUS
10
0.719763779527559
20
1.8983464566929134
11
0.659763779527559
21
1.8983464566929134
0
LINE
8
BLACK
6
CONTINUOUS
10
0.659763779527559
20
1.8983464566929134
11
0.659763779527559
21
1.9583464566929134
0
LINE
8
BLACK
6
CONTINUOUS
10
0.659763779527559
20
1.9583464566929134
11
0.719763779527559
21
1.9583464566929134
0
LINE
8
BLACK
6
CONTINUOUS
10
0.719763779527559
20
1.9583464566929134
11
0.719763779527559
21
1.8983464566929134
0
LINE
8
BLACK
6
CONTINUOUS
10
0.8197637795275591
20
1.8983464566929134
11
0.759763779527559
21
1.8983464566929134
0
LINE
8
BLACK
6
CONTINUOUS
10
0.759763779527559
20
1.8983464566929134
11
0.759763779527559
21
1.9583464566929134
0
LINE
8
BLACK
6
CONTINUOUS
10
0.759763779527559
20
1.9583464566929134
11
0.8197637795275591
21
1.9583464566929134
0
LINE
8
BLACK
6
CONTINUOUS
10
0.8197637795275591
20
1.9583464566929134
11
0.8197637795275591
21
1.8983464566929134
0
LINE
8
BLACK
6
CONTINUOUS
10
0.9197637795275591
20
1.8983464566929134
11
0.859763779527559
21
1.8983464566929134
0
LINE
8
BLACK
6
CONTINUOUS
10
0.859763779527559
20
1.8983464566929134
11
0.859763779527559
21
1.9583464566929134
0
LINE
8
BLACK
6
CONTINUOUS
10
0.859763779527559
20
1.9583464566929134
11
0.9197637795275591
21
1.9583464566929134
0
LINE
8
BLACK
6
CONTINUOUS
10
0.9197637795275591
20
1.9583464566929134
11
0.9197637795275591
21
1.8983464566929134
0
LINE
8
BLACK
6
CONTINUOUS
10
0.4197637795275591
20
1.9983464566929134
11
0.3597637795275591
21
1.9983464566929134
0
LINE
8
BLACK
6
CONTINUOUS
10
0.3597637795275591
20
1.9983464566929134
11
0.3597637795275591
21
2.0583464566929135
0
LINE
8
BLACK
6
CONTINUOUS
10
0.3597637795275591
20
2.0583464566929135
11
0.4197637795275591
21
2.0583464566929135
0
LINE
8
BLACK
6
CONTINUOUS
10
0.4197637795275591
20
2.0583464566929135
11
0.4197637795275591
21
1.9983464566929134
0
LINE
8
BLACK
6
CONTINUOUS
10
0.519763779527559
20
1.9983464566929134
11
0.459763779527559
21
1.9983464566929134
0
LINE
8
BLACK
6
CONTINUOUS
10
0.459763779527559
20
1.9983464566929134
11
0.459763779527559
21
2.0583464566929135
0
LINE
8
BLACK
6
CONTINUOUS
10
0.459763779527559
20
2.0583464566929135
11
0.519763779527559
21
2.0583464566929135
0
LINE
8
BLACK
6
CONTINUOUS
10
0.519763779527559
20
2.0583464566929135
11
0.519763779527559
21
1.9983464566929134
0
LINE
8
BLACK
6
CONTINUOUS
10
0.619763779527559
20
1.9983464566929134
11
0.5597637795275591
21
1.9983464566929134
0
LINE
8
BLACK
6
CONTINUOUS
10
0.5597637795275591
20
1.9983464566929134
11
0.5597637795275591
21
2.0583464566929135
0
LINE
8
BLACK
6
CONTINUOUS
10
0.5597637795275591
20
2.0583464566929135
11
0.619763779527559
21
2.0583464566929135
0
LINE
8
BLACK
6
CONTINUOUS
10
0.619763779527559
20
2.0583464566929135
11
0.619763779527559
21
1.9983464566929134
0
LINE
8
BLACK
6
CONTINUOUS
10
0.719763779527559
20
1.9983464566929134
11
0.659763779527559
21
1.9983464566929134
0
LINE
8
BLACK
6
CONTINUOUS
10
0.659763779527559
20
1.9983464566929134
11
0.659763779527559
21
2.0583464566929135
0
LINE
8
BLACK
6
CONTINUOUS
10
0.659763779527559
20
2.0583464566929135
11
0.719763779527559
21
2.0583464566929135
0
LINE
8
BLACK
6
CONTINUOUS
10
0.719763779527559
20
2.0583464566929135
11
0.719763779527559
21
1.9983464566929134
0
LINE
8
BLACK
6
CONTINUOUS
10
0.8197637795275591
20
1.9983464566929134
11
0.759763779527559
21
1.9983464566929134
0
LINE
8
BLACK
6
CONTINUOUS
10
0.759763779527559
20
1.9983464566929134
11
0.759763779527559
21
2.0583464566929135
0
LINE
8
BLACK
6
CONTINUOUS
10
0.759763779527559
20
2.0583464566929135
11
0.8197637795275591
21
2.0583464566929135
0
LINE
8
BLACK
6
CONTINUOUS
10
0.8197637795275591
20
2.0583464566929135
11
0.8197637795275591
21
1.9983464566929134
0
LINE
8
BLACK
6
CONTINUOUS
10
0.9197637795275591
20
1.9983464566929134
11
0.859763779527559
21
1.9983464566929134
0
LINE
8
BLACK
6
CONTINUOUS
10
0.859763779527559
20
1.9983464566929134
11
0.859763779527559
21
2.0583464566929135
0
LINE
8
BLACK
6
CONTINUOUS
10
0.859763779527559
20
2.0583464566929135
11
0.9197637795275591
21
2.0583464566929135
0
LINE
8
BLACK
6
CONTINUOUS
10
0.9197637795275591
20
2.0583464566929135
11
0.9197637795275591
21
1.9983464566929134
0
LINE
8
BLACK
6
CONTINUOUS
10
1.401281062992126
20
2.1661541338582677
11
1.4030824409448819
21
2.1640752362204725
0
LINE
8
BLACK
6
CONTINUOUS
10
1.4030824409448819
20
2.1640752362204725
11
1.403523622047244
21
2.162047244094488
0
LINE
8
BLACK
6
CONTINUOUS
10
1.403523622047244
20
2.162047244094488
11
1.403523622047244
21
-0.1840944881889764
0
LINE
8
BLACK
6
CONTINUOUS
10
1.403523622047244
20
-0.1840944881889764
11
1.402748622047244
21
-0.1867338188976378
0
LINE
8
BLACK
6
CONTINUOUS
10
1.402748622047244
20
-0.1867338188976378
11
1.4006697244094488
21
-0.1885351968503937
0
LINE
8
BLACK
6
CONTINUOUS
10
1.4006697244094488
20
-0.1885351968503937
11
1.3986417322834646
21
-0.1889763779527559
0
LINE
8
BLACK
6
CONTINUOUS
10
1.3986417322834646
20
-0.1889763779527559
11
-0.1845920472440945
21
-0.1889763779527559
0
LINE
8
BLACK
6
CONTINUOUS
10
-0.1845920472440945
20
-0.1889763779527559
11
-0.1857511417322835
21
-0.1886360236220472
0
LINE
8
BLACK
6
CONTINUOUS
10
-0.1857511417322835
20
-0.1886360236220472
11
-0.1869316929133858
21
-0.1883792125984252
0
LINE
8
BLACK
6
CONTINUOUS
10
-0.1869316929133858
20
-0.1883792125984252
11
-0.1871291732283465
21
-0.1882313779527559
0
LINE
8
BLACK
6
CONTINUOUS
10
-0.1871291732283465
20
-0.1882313779527559
11
-0.1872313779527559
21
-0.1882013779527559
0
LINE
8
BLACK
6
CONTINUOUS
10
-0.1872313779527559
20
-0.1882013779527559
11
-0.1880440551181102
21
-0.1875464960629921
0
LINE
8
BLACK
6
CONTINUOUS
10
-0.1880440551181102
20
-0.1875464960629921
11
-0.1881567322834646
21
-0.1874338188976378
0
LINE
8
BLACK
6
CONTINUOUS
10
-0.1881567322834646
20
-0.1874338188976378
11
-0.1894750393700787
21
-0.1850195275590551
0
LINE
8
BLACK
6
CONTINUOUS
10
-0.1894750393700787
20
-0.1850195275590551
11
-0.1895866141732283
21
-0.183981811023622
0
LINE
8
BLACK
6
CONTINUOUS
10
-0.1895866141732283
20
-0.183981811023622
11
-0.1895866141732283
21
0.0102364173228346
0
LINE
8
BLACK
6
CONTINUOUS
10
-0.1895866141732283
20
0.0102364173228346
11
-0.1895866141732283
21
1.409163031496063
0
LINE
8
BLACK
6
CONTINUOUS
10
-0.1895866141732283
20
1.409163031496063
11
-0.1895866141732283
21
2.060230118110236
0
LINE
8
BLACK
6
CONTINUOUS
10
-0.1895866141732283
20
2.060230118110236
11
-0.1895866141732283
21
2.162047244094488
0
LINE
8
BLACK
6
CONTINUOUS
10
-0.1895866141732283
20
2.162047244094488
11
-0.1888116141732283
21
2.1646865748031496
0
LINE
8
BLACK
6
CONTINUOUS
10
-0.1888116141732283
20
2.1646865748031496
11
-0.1867327165354331
21
2.1664879527559053
0
LINE
8
BLACK
6
CONTINUOUS
10
-0.1867327165354331
20
2.1664879527559053
11
-0.1847047244094488
21
2.1669291338582677
0
LINE
8
BLACK
6
CONTINUOUS
10
-0.1847047244094488
20
2.1669291338582677
11
1.3986417322834646
21
2.1669291338582677
0
LINE
8
BLACK
6
CONTINUOUS
10
1.3986417322834646
20
2.1669291338582677
11
1.401281062992126
21
2.1661541338582677
0
LINE
8
BLACK
6
CONTINUOUS
10
0.8226374803149606
20
0.0734451968503937
11
0.3743966929133858
21
0.0734451968503937
0
LINE
8
BLACK
6
CONTINUOUS
10
0.3743966929133858
20
0.0734451968503937
11
0.3650292519685039
21
0.0720333070866142
0
LINE
8
BLACK
6
CONTINUOUS
10
0.3650292519685039
20
0.0720333070866142
11
0.3650290157480315
21
0.0720332283464567
0
LINE
8
BLACK
6
CONTINUOUS
10
0.3650290157480315
20
0.0720332283464567
11
0.3559761023622047
21
0.0692407480314961
0
LINE
8
BLACK
6
CONTINUOUS
10
0.3559761023622047
20
0.0692407480314961
11
0.3474410236220473
21
0.0651305118110236
0
LINE
8
BLACK
6
CONTINUOUS
10
0.3474410236220473
20
0.0651305118110236
11
0.3474409842519685
21
0.0651304724409449
0
LINE
8
BLACK
6
CONTINUOUS
10
0.3474409842519685
20
0.0651304724409449
11
0.3396131496062992
21
0.0597935826771654
0
LINE
8
BLACK
6
CONTINUOUS
10
0.3396131496062992
20
0.0597935826771654
11
0.3326685826771654
21
0.05335
0
LINE
8
BLACK
6
CONTINUOUS
10
0.3326685826771654
20
0.05335
11
0.3267616929133858
21
0.0459429527559055
0
LINE
8
BLACK
6
CONTINUOUS
10
0.3267616929133858
20
0.0459429527559055
11
0.3220248425196851
21
0.0377385039370079
0
LINE
8
BLACK
6
CONTINUOUS
10
0.3220248425196851
20
0.0377385039370079
11
0.318563779527559
21
0.0289198818897638
0
LINE
8
BLACK
6
CONTINUOUS
10
0.318563779527559
20
0.0289198818897638
11
0.3185635433070866
21
0.0289191338582677
0
LINE
8
BLACK
6
CONTINUOUS
10
0.3185635433070866
20
0.0289191338582677
11
0.3164555511811024
21
0.0196833070866142
0
LINE
8
BLACK
6
CONTINUOUS
10
0.3164555511811024
20
0.0196833070866142
11
0.3164555118110236
21
0.0196831102362205
0
LINE
8
BLACK
6
CONTINUOUS
10
0.3164555118110236
20
0.0196831102362205
11
0.3157476377952756
21
0.0102364173228346
0
LINE
8
BLACK
6
CONTINUOUS
10
0.3157476377952756
20
0.0102364173228346
11
0.3157476377952756
21
0.010236062992126
0
LINE
8
BLACK
6
CONTINUOUS
10
0.3157476377952756
20
0.010236062992126
11
0.3164555118110236
21
0.0007893700787402
0
LINE
8
BLACK
6
CONTINUOUS
10
0.3164555118110236
20
0.0007893700787402
11
0.3164555511811024
21
0.0007891732283465
0
LINE
8
BLACK
6
CONTINUOUS
10
0.3164555511811024
20
0.0007891732283465
11
0.3185635433070866
21
-0.0084466535433071
0
LINE
8
BLACK
6
CONTINUOUS
10
0.3185635433070866
20
-0.0084466535433071
11
0.3185636220472441
21
-0.0084470078740157
0
LINE
8
BLACK
6
CONTINUOUS
10
0.3185636220472441
20
-0.0084470078740157
11
0.3185637007874016
21
-0.0084472047244094
0
LINE
8
BLACK
6
CONTINUOUS
10
0.3185637007874016
20
-0.0084472047244094
11
0.3220248425196851
21
-0.0172660236220472
0
LINE
8
BLACK
6
CONTINUOUS
10
0.3220248425196851
20
-0.0172660236220472
11
0.3267616929133858
21
-0.0254705118110236
0
LINE
8
BLACK
6
CONTINUOUS
10
0.3267616929133858
20
-0.0254705118110236
11
0.3315325196850394
21
-0.0314529527559055
0
LINE
8
BLACK
6
CONTINUOUS
10
0.3315325196850394
20
-0.0314529527559055
11
0.3326685826771654
21
-0.0328775196850394
0
LINE
8
BLACK
6
CONTINUOUS
10
0.3326685826771654
20
-0.0328775196850394
11
0.3354876377952756
21
-0.035493188976378
0
LINE
8
BLACK
6
CONTINUOUS
10
0.3354876377952756
20
-0.035493188976378
11
0.3396131889763779
21
-0.0393211417322835
0
LINE
8
BLACK
6
CONTINUOUS
10
0.3396131889763779
20
-0.0393211417322835
11
0.347440748031496
21
-0.044657874015748
0
LINE
8
BLACK
6
CONTINUOUS
10
0.347440748031496
20
-0.044657874015748
11
0.3474409448818898
21
-0.0446579527559055
0
LINE
8
BLACK
6
CONTINUOUS
10
0.3474409448818898
20
-0.0446579527559055
11
0.3474409842519685
21
-0.0446579921259843
0
LINE
8
BLACK
6
CONTINUOUS
10
0.3474409842519685
20
-0.0446579921259843
11
0.3474410236220473
21
-0.044658031496063
0
LINE
8
BLACK
6
CONTINUOUS
10
0.3474410236220473
20
-0.044658031496063
11
0.3501618897637795
21
-0.0459683070866142
0
LINE
8
BLACK
6
CONTINUOUS
10
0.3501618897637795
20
-0.0459683070866142
11
0.3559761023622047
21
-0.0487682677165354
0
LINE
8
BLACK
6
CONTINUOUS
10
0.3559761023622047
20
-0.0487682677165354
11
0.3559761417322835
21
-0.0487682677165354
0
LINE
8
BLACK
6
CONTINUOUS
10
0.3559761417322835
20
-0.0487682677165354
11
0.3559762598425197
21
-0.0487683464566929
0
LINE
8
BLACK
6
CONTINUOUS
10
0.3559762598425197
20
-0.0487683464566929
11
0.365029094488189
21
-0.0515607874015748
0
LINE
8
BLACK
6
CONTINUOUS
10
0.365029094488189
20
-0.0515607874015748
11
0.3650291338582677
21
-0.0515607874015748
0
LINE
8
BLACK
6
CONTINUOUS
10
0.3650291338582677
20
-0.0515607874015748
11
0.3650292519685039
21
-0.0515608267716535
0
LINE
8
BLACK
6
CONTINUOUS
10
0.3650292519685039
20
-0.0515608267716535
11
0.3743966929133858
21
-0.0529727165354331
0
LINE
8
BLACK
6
CONTINUOUS
10
0.3743966929133858
20
-0.0529727165354331
11
0.3743968897637795
21
-0.0529727165354331
0
LINE
8
BLACK
6
CONTINUOUS
10
0.3743968897637795
20
-0.0529727165354331
11
0.3743970078740158
21
-0.0529727559055118
0
LINE
8
BLACK
6
CONTINUOUS
10
0.3743970078740158
20
-0.0529727559055118
11
0.3789626377952756
21
-0.0529727559055118
0
LINE
8
BLACK
6
CONTINUOUS
10
0.3789626377952756
20
-0.0529727559055118
11
0.8225031496062992
21
-0.0529727559055118
0
LINE
8
BLACK
6
CONTINUOUS
10
0.8225031496062992
20
-0.0529727559055118
11
0.8226374803149606
21
-0.0529727559055118
0
LINE
8
BLACK
6
CONTINUOUS
10
0.8226374803149606
20
-0.0529727559055118
11
0.8273743700787402
21
-0.0529727952755905
0
LINE
8
BLACK
6
CONTINUOUS
10
0.8273743700787402
20
-0.0529727952755905
11
0.8299943700787401
21
-0.052577874015748
0
LINE
8
BLACK
6
CONTINUOUS
10
0.8299943700787401
20
-0.052577874015748
11
0.8367420866141733
21
-0.0515608661417323
0
LINE
8
BLACK
6
CONTINUOUS
10
0.8367420866141733
20
-0.0515608661417323
11
0.8367421259842519
21
-0.0515608267716535
0
LINE
8
BLACK
6
CONTINUOUS
10
0.8367421259842519
20
-0.0515608267716535
11
0.8367422834645669
21
-0.0515608267716535
0
LINE
8
BLACK
6
CONTINUOUS
10
0.8367422834645669
20
-0.0515608267716535
11
0.845795157480315
21
-0.0487684251968504
0
LINE
8
BLACK
6
CONTINUOUS
10
0.845795157480315
20
-0.0487684251968504
11
0.8543307086614172
21
-0.0446579527559055
0
LINE
8
BLACK
6
CONTINUOUS
10
0.8543307086614172
20
-0.0446579527559055
11
0.8621583070866141
21
-0.0393212204724409
0
LINE
8
BLACK
6
CONTINUOUS
10
0.8621583070866141
20
-0.0393212204724409
11
0.8691030708661417
21
-0.0328774803149606
0
LINE
8
BLACK
6
CONTINUOUS
10
0.8691030708661417
20
-0.0328774803149606
11
0.8750098818897638
21
-0.0254705905511811
0
LINE
8
BLACK
6
CONTINUOUS
10
0.8750098818897638
20
-0.0254705905511811
11
0.8797467716535433
21
-0.0172661023622047
0
LINE
8
BLACK
6
CONTINUOUS
10
0.8797467716535433
20
-0.0172661023622047
11
0.8832079133858267
21
-0.0084472440944882
0
LINE
8
BLACK
6
CONTINUOUS
10
0.8832079133858267
20
-0.0084472440944882
11
0.8853160236220472
21
0.0007889763779528
0
LINE
8
BLACK
6
CONTINUOUS
10
0.8853160236220472
20
0.0007889763779528
11
0.8860240157480315
21
0.0102362204724409
0
LINE
8
BLACK
6
CONTINUOUS
10
0.8860240157480315
20
0.0102362204724409
11
0.8853160236220472
21
0.0196834645669291
0
LINE
8
BLACK
6
CONTINUOUS
10
0.8853160236220472
20
0.0196834645669291
11
0.8832079133858267
21
0.0289196850393701
0
LINE
8
BLACK
6
CONTINUOUS
10
0.8832079133858267
20
0.0289196850393701
11
0.8797467716535433
21
0.0377385433070866
0
LINE
8
BLACK
6
CONTINUOUS
10
0.8797467716535433
20
0.0377385433070866
11
0.8750098818897638
21
0.045943031496063
0
LINE
8
BLACK
6
CONTINUOUS
10
0.8750098818897638
20
0.045943031496063
11
0.8691030708661417
21
0.0533499212598425
0
LINE
8
BLACK
6
CONTINUOUS
10
0.8691030708661417
20
0.0533499212598425
11
0.8621583070866141
21
0.0597936614173228
0
LINE
8
BLACK
6
CONTINUOUS
10
0.8621583070866141
20
0.0597936614173228
11
0.8543307086614172
21
0.0651303937007874
0
LINE
8
BLACK
6
CONTINUOUS
10
0.8543307086614172
20
0.0651303937007874
11
0.8543303937007873
21
0.0651305905511811
0
LINE
8
BLACK
6
CONTINUOUS
10
0.8543303937007873
20
0.0651305905511811
11
0.8457953543307086
21
0.0692407874015748
0
LINE
8
BLACK
6
CONTINUOUS
10
0.8457953543307086
20
0.0692407874015748
11
0.8457946062992125
21
0.069241062992126
0
LINE
8
BLACK
6
CONTINUOUS
10
0.8457946062992125
20
0.069241062992126
11
0.8367424803149606
21
0.0720332283464567
0
LINE
8
BLACK
6
CONTINUOUS
10
0.8367424803149606
20
0.0720332283464567
11
0.8367420866141733
21
0.0720333464566929
0
LINE
8
BLACK
6
CONTINUOUS
10
0.8367420866141733
20
0.0720333464566929
11
0.8273744881889764
21
0.0734452362204724
0
LINE
8
BLACK
6
CONTINUOUS
10
0.8273744881889764
20
0.0734452362204724
11
0.8273743700787402
21
0.0734452362204724
0
LINE
8
BLACK
6
CONTINUOUS
10
0.8273743700787402
20
0.0734452362204724
11
0.8226374803149606
21
0.0734451968503937
0
LINE
8
BLACK
6
CONTINUOUS
10
0.4201377952755905
20
1.403435433070866
11
0.4212550393700787
21
1.3978187401574802
0
LINE
8
BLACK
6
CONTINUOUS
10
0.4212550393700787
20
1.3978187401574802
11
0.4212551181102362
21
1.3978184251968504
0
LINE
8
BLACK
6
CONTINUOUS
10
0.4212551181102362
20
1.3978184251968504
11
0.423446811023622
21
1.3925272047244095
0
LINE
8
BLACK
6
CONTINUOUS
10
0.423446811023622
20
1.3925272047244095
11
0.4266287007874016
21
1.3877651181102362
0
LINE
8
BLACK
6
CONTINUOUS
10
0.4266287007874016
20
1.3877651181102362
11
0.4306784645669291
21
1.3837153543307086
0
LINE
8
BLACK
6
CONTINUOUS
10
0.4306784645669291
20
1.3837153543307086
11
0.4324384645669291
21
1.3825393700787401
0
LINE
8
BLACK
6
CONTINUOUS
10
0.4324384645669291
20
1.3825393700787401
11
0.4354405118110236
21
1.3805334645669292
0
LINE
8
BLACK
6
CONTINUOUS
10
0.4354405118110236
20
1.3805334645669292
11
0.440731811023622
21
1.3783417322834646
0
LINE
8
BLACK
6
CONTINUOUS
10
0.440731811023622
20
1.3783417322834646
11
0.446348779527559
21
1.3772244488188976
0
LINE
8
BLACK
6
CONTINUOUS
10
0.446348779527559
20
1.3772244488188976
11
0.4463488976377953
21
1.3772244094488189
0
LINE
8
BLACK
6
CONTINUOUS
10
0.4463488976377953
20
1.3772244094488189
11
0.4463489763779527
21
1.3772244094488189
0
LINE
8
BLACK
6
CONTINUOUS
10
0.4463489763779527
20
1.3772244094488189
11
0.4520762992125984
21
1.3772244094488189
0
LINE
8
BLACK
6
CONTINUOUS
10
0.4520762992125984
20
1.3772244094488189
11
0.4520763385826772
21
1.3772244488188976
0
LINE
8
BLACK
6
CONTINUOUS
10
0.4520763385826772
20
1.3772244488188976
11
0.4576933858267717
21
1.3783417322834646
0
LINE
8
BLACK
6
CONTINUOUS
10
0.4576933858267717
20
1.3783417322834646
11
0.4629846850393701
21
1.3805334645669292
0
LINE
8
BLACK
6
CONTINUOUS
10
0.4629846850393701
20
1.3805334645669292
11
0.4647553937007874
21
1.381716653543307
0
LINE
8
BLACK
6
CONTINUOUS
10
0.4647553937007874
20
1.381716653543307
11
0.4673804724409449
21
1.3825385826771652
0
LINE
8
BLACK
6
CONTINUOUS
10
0.4673804724409449
20
1.3825385826771652
11
0.4674676377952756
21
1.3825393700787401
0
LINE
8
BLACK
6
CONTINUOUS
10
0.4674676377952756
20
1.3825393700787401
11
0.6600887007874016
21
1.3825393700787401
0
LINE
8
BLACK
6
CONTINUOUS
10
0.6600887007874016
20
1.3825393700787401
11
0.662728031496063
21
1.3817643700787401
0
LINE
8
BLACK
6
CONTINUOUS
10
0.662728031496063
20
1.3817643700787401
11
0.662800905511811
21
1.3817166141732282
0
LINE
8
BLACK
6
CONTINUOUS
10
0.662800905511811
20
1.3817166141732282
11
0.6633927952755906
21
1.3813211417322835
0
LINE
8
BLACK
6
CONTINUOUS
10
0.6633927952755906
20
1.3813211417322835
11
0.6633931889763779
21
1.381320905511811
0
LINE
8
BLACK
6
CONTINUOUS
10
0.6633931889763779
20
1.381320905511811
11
0.6633932677165354
21
1.3813208661417322
0
LINE
8
BLACK
6
CONTINUOUS
10
0.6633932677165354
20
1.3813208661417322
11
0.6686845669291338
21
1.3791291338582676
0
LINE
8
BLACK
6
CONTINUOUS
10
0.6686845669291338
20
1.3791291338582676
11
0.6726429133858267
21
1.3783417716535433
0
LINE
8
BLACK
6
CONTINUOUS
10
0.6726429133858267
20
1.3783417716535433
11
0.6743015354330708
21
1.3780118503937007
0
LINE
8
BLACK
6
CONTINUOUS
10
0.6743015354330708
20
1.3780118503937007
11
0.6743016535433071
21
1.3780118110236219
0
LINE
8
BLACK
6
CONTINUOUS
10
0.6743016535433071
20
1.3780118110236219
11
0.6743017322834646
21
1.3780118110236219
0
LINE
8
BLACK
6
CONTINUOUS
10
0.6743017322834646
20
1.3780118110236219
11
0.6800290551181102
21
1.3780118110236219
0
LINE
8
BLACK
6
CONTINUOUS
10
0.6800290551181102
20
1.3780118110236219
11
0.6800290944881889
21
1.3780118503937007
0
LINE
8
BLACK
6
CONTINUOUS
10
0.6800290944881889
20
1.3780118503937007
11
0.6856461417322834
21
1.3791291338582676
0
LINE
8
BLACK
6
CONTINUOUS
10
0.6856461417322834
20
1.3791291338582676
11
0.6909374409448819
21
1.3813208661417322
0
LINE
8
BLACK
6
CONTINUOUS
10
0.6909374409448819
20
1.3813208661417322
11
0.6956994488188977
21
1.3845027559055119
0
LINE
8
BLACK
6
CONTINUOUS
10
0.6956994488188977
20
1.3845027559055119
11
0.6997492125984252
21
1.3885525196850392
0
LINE
8
BLACK
6
CONTINUOUS
10
0.6997492125984252
20
1.3885525196850392
11
0.7029311023622047
21
1.393314527559055
0
LINE
8
BLACK
6
CONTINUOUS
10
0.7029311023622047
20
1.393314527559055
11
0.7051228346456693
21
1.3986058267716535
0
LINE
8
BLACK
6
CONTINUOUS
10
0.7051228346456693
20
1.3986058267716535
11
0.706240157480315
21
1.4042229921259841
0
LINE
8
BLACK
6
CONTINUOUS
10
0.706240157480315
20
1.4042229921259841
11
0.706240157480315
21
1.4099502362204723
0
LINE
8
BLACK
6
CONTINUOUS
10
0.706240157480315
20
1.4099502362204723
11
0.706240157480315
21
1.4099503543307086
0
LINE
8
BLACK
6
CONTINUOUS
10
0.706240157480315
20
1.4099503543307086
11
0.7062401181102362
21
1.4099504330708661
0
LINE
8
BLACK
6
CONTINUOUS
10
0.7062401181102362
20
1.4099504330708661
11
0.7051228346456693
21
1.4155674015748032
0
LINE
8
BLACK
6
CONTINUOUS
10
0.7051228346456693
20
1.4155674015748032
11
0.7029311023622047
21
1.4208587007874016
0
LINE
8
BLACK
6
CONTINUOUS
10
0.7029311023622047
20
1.4208587007874016
11
0.7002753149606299
21
1.4248333464566929
0
LINE
8
BLACK
6
CONTINUOUS
10
0.7002753149606299
20
1.4248333464566929
11
0.6997492125984252
21
1.425620748031496
0
LINE
8
BLACK
6
CONTINUOUS
10
0.6997492125984252
20
1.425620748031496
11
0.6956994488188977
21
1.4296705118110236
0
LINE
8
BLACK
6
CONTINUOUS
10
0.6956994488188977
20
1.4296705118110236
11
0.6921157874015748
21
1.4320649999999999
0
LINE
8
BLACK
6
CONTINUOUS
10
0.6921157874015748
20
1.4320649999999999
11
0.6909374409448819
21
1.4328523622047245
0
LINE
8
BLACK
6
CONTINUOUS
10
0.6909374409448819
20
1.4328523622047245
11
0.6856461417322834
21
1.435044094488189
0
LINE
8
BLACK
6
CONTINUOUS
10
0.6856461417322834
20
1.435044094488189
11
0.6856458267716535
21
1.4350441732283463
0
LINE
8
BLACK
6
CONTINUOUS
10
0.6856458267716535
20
1.4350441732283463
11
0.6800290944881889
21
1.4361614173228345
0
LINE
8
BLACK
6
CONTINUOUS
10
0.6800290944881889
20
1.4361614173228345
11
0.6800289763779528
21
1.4361614173228345
0
LINE
8
BLACK
6
CONTINUOUS
10
0.6800289763779528
20
1.4361614173228345
11
0.6743017322834646
21
1.4361614173228345
0
LINE
8
BLACK
6
CONTINUOUS
10
0.6743017322834646
20
1.4361614173228345
11
0.6743016141732283
21
1.4361614173228345
0
LINE
8
BLACK
6
CONTINUOUS
10
0.6743016141732283
20
1.4361614173228345
11
0.6686848425196851
21
1.4350441732283463
0
LINE
8
BLACK
6
CONTINUOUS
10
0.6686848425196851
20
1.4350441732283463
11
0.6686845275590551
21
1.435044094488189
0
LINE
8
BLACK
6
CONTINUOUS
10
0.6686845275590551
20
1.435044094488189
11
0.6633933070866141
21
1.4328524015748032
0
LINE
8
BLACK
6
CONTINUOUS
10
0.6633933070866141
20
1.4328524015748032
11
0.6586312204724409
21
1.4296705118110236
0
LINE
8
BLACK
6
CONTINUOUS
10
0.6586312204724409
20
1.4296705118110236
11
0.658536062992126
21
1.4295923622047244
0
LINE
8
BLACK
6
CONTINUOUS
10
0.658536062992126
20
1.4295923622047244
11
0.6584764173228347
21
1.4295670472440944
0
LINE
8
BLACK
6
CONTINUOUS
10
0.6584764173228347
20
1.4295670472440944
11
0.6584318503937008
21
1.4295372440944882
0
LINE
8
BLACK
6
CONTINUOUS
10
0.6584318503937008
20
1.4295372440944882
11
0.6584261811023622
21
1.4295457086614174
0
LINE
8
BLACK
6
CONTINUOUS
10
0.6584261811023622
20
1.4295457086614174
11
0.6560041338582677
21
1.4285170866141732
0
LINE
8
BLACK
6
CONTINUOUS
10
0.6560041338582677
20
1.4285170866141732
11
0.6554390551181102
21
1.4284842519685039
0
LINE
8
BLACK
6
CONTINUOUS
10
0.6554390551181102
20
1.4284842519685039
11
0.4698244881889764
21
1.4284842519685039
0
LINE
8
BLACK
6
CONTINUOUS
10
0.4698244881889764
20
1.4284842519685039
11
0.467185157480315
21
1.4292592519685039
0
LINE
8
BLACK
6
CONTINUOUS
10
0.467185157480315
20
1.4292592519685039
11
0.4671122440944882
21
1.4293070078740158
0
LINE
8
BLACK
6
CONTINUOUS
10
0.4671122440944882
20
1.4293070078740158
11
0.4653896456692913
21
1.4304580314960629
0
LINE
8
BLACK
6
CONTINUOUS
10
0.4653896456692913
20
1.4304580314960629
11
0.4629846850393701
21
1.4320649606299212
0
LINE
8
BLACK
6
CONTINUOUS
10
0.4629846850393701
20
1.4320649606299212
11
0.4610836220472441
21
1.4328524015748032
0
LINE
8
BLACK
6
CONTINUOUS
10
0.4610836220472441
20
1.4328524015748032
11
0.4576933858267717
21
1.4342566929133858
0
LINE
8
BLACK
6
CONTINUOUS
10
0.4576933858267717
20
1.4342566929133858
11
0.4576930708661417
21
1.4342567716535433
0
LINE
8
BLACK
6
CONTINUOUS
10
0.4576930708661417
20
1.4342567716535433
11
0.4520763385826772
21
1.4353740157480315
0
LINE
8
BLACK
6
CONTINUOUS
10
0.4520763385826772
20
1.4353740157480315
11
0.4520762204724409
21
1.4353740157480315
0
LINE
8
BLACK
6
CONTINUOUS
10
0.4520762204724409
20
1.4353740157480315
11
0.4463489763779527
21
1.4353740157480315
0
LINE
8
BLACK
6
CONTINUOUS
10
0.4463489763779527
20
1.4353740157480315
11
0.4463488582677165
21
1.4353740157480315
0
LINE
8
BLACK
6
CONTINUOUS
10
0.4463488582677165
20
1.4353740157480315
11
0.4407320866141732
21
1.4342567716535433
0
LINE
8
BLACK
6
CONTINUOUS
10
0.4407320866141732
20
1.4342567716535433
11
0.4407317716535433
21
1.4342566929133858
0
LINE
8
BLACK
6
CONTINUOUS
10
0.4407317716535433
20
1.4342566929133858
11
0.4354405511811024
21
1.4320649999999999
0
LINE
8
BLACK
6
CONTINUOUS
10
0.4354405511811024
20
1.4320649999999999
11
0.4306784645669291
21
1.4288831102362205
0
LINE
8
BLACK
6
CONTINUOUS
10
0.4306784645669291
20
1.4288831102362205
11
0.4266287007874016
21
1.4248333464566929
0
LINE
8
BLACK
6
CONTINUOUS
10
0.4266287007874016
20
1.4248333464566929
11
0.423446811023622
21
1.4200712598425196
0
LINE
8
BLACK
6
CONTINUOUS
10
0.423446811023622
20
1.4200712598425196
11
0.4212551181102362
21
1.4147800393700787
0
LINE
8
BLACK
6
CONTINUOUS
10
0.4212551181102362
20
1.4147800393700787
11
0.4212550393700787
21
1.4147797244094489
0
LINE
8
BLACK
6
CONTINUOUS
10
0.4212550393700787
20
1.4147797244094489
11
0.4201377952755905
21
1.409163031496063
0
LINE
8
BLACK
6
CONTINUOUS
10
0.4201377952755905
20
1.409163031496063
11
0.4201377952755905
21
1.403435433070866
0
LINE
8
BLACK
6
CONTINUOUS
10
0.3554644488188976
20
2.0781098031496064
11
0.3554643700787402
21
2.0781098031496064
0
LINE
8
BLACK
6
CONTINUOUS
10
0.3554643700787402
20
2.0781098031496064
11
0.3500706692913386
21
2.0760979921259843
0
LINE
8
BLACK
6
CONTINUOUS
10
0.3500706692913386
20
2.0760979921259843
11
0.3496742519685039
21
2.075801220472441
0
LINE
8
BLACK
6
CONTINUOUS
10
0.3496742519685039
20
2.075801220472441
11
0.3454621653543307
21
2.0726480708661419
0
LINE
8
BLACK
6
CONTINUOUS
10
0.3454621653543307
20
2.0726480708661419
11
0.345462125984252
21
2.0726480314960631
0
LINE
8
BLACK
6
CONTINUOUS
10
0.345462125984252
20
2.0726480314960631
11
0.3454620866141732
21
2.0726479921259844
0
LINE
8
BLACK
6
CONTINUOUS
10
0.3454620866141732
20
2.0726479921259844
11
0.343462874015748
21
2.0699774015748029
0
LINE
8
BLACK
6
CONTINUOUS
10
0.343462874015748
20
2.0699774015748029
11
0.341260748031496
21
2.0683289370078741
0
LINE
8
BLACK
6
CONTINUOUS
10
0.341260748031496
20
2.0683289370078741
11
0.3385170078740157
21
2.0681327165354331
0
LINE
8
BLACK
6
CONTINUOUS
10
0.3385170078740157
20
2.0681327165354331
11
0.3361027165354331
21
2.0694510629921261
0
LINE
8
BLACK
6
CONTINUOUS
10
0.3361027165354331
20
2.0694510629921261
11
0.3356466141732283
21
2.0699774015748029
0
LINE
8
BLACK
6
CONTINUOUS
10
0.3356466141732283
20
2.0699774015748029
11
0.3338262204724409
21
2.0724090944881888
0
LINE
8
BLACK
6
CONTINUOUS
10
0.3338262204724409
20
2.0724090944881888
11
0.329295
21
2.075801220472441
0
LINE
8
BLACK
6
CONTINUOUS
10
0.329295
20
2.075801220472441
11
0.3292947244094488
21
2.075801377952756
0
LINE
8
BLACK
6
CONTINUOUS
10
0.3292947244094488
20
2.075801377952756
11
0.3239912992125984
21
2.0777794094488189
0
LINE
8
BLACK
6
CONTINUOUS
10
0.3239912992125984
20
2.0777794094488189
11
0.3239910236220472
21
2.0777794881889764
0
LINE
8
BLACK
6
CONTINUOUS
10
0.3239910236220472
20
2.0777794881889764
11
0.3216474015748031
21
2.0780314960629922
0
LINE
8
BLACK
6
CONTINUOUS
10
0.3216474015748031
20
2.0780314960629922
11
0.2996062992125984
21
2.0780314960629922
0
LINE
8
BLACK
6
CONTINUOUS
10
0.2996062992125984
20
2.0780314960629922
11
0.2996062992125984
21
2.0583464566929135
0
LINE
8
BLACK
6
CONTINUOUS
10
0.2996062992125984
20
2.0583464566929135
11
0.319763779527559
21
2.0583464566929135
0
LINE
8
BLACK
6
CONTINUOUS
10
0.319763779527559
20
2.0583464566929135
11
0.319763779527559
21
1.9983464566929134
0
LINE
8
BLACK
6
CONTINUOUS
10
0.319763779527559
20
1.9983464566929134
11
0.2996062992125984
21
1.9983464566929134
0
LINE
8
BLACK
6
CONTINUOUS
10
0.2996062992125984
20
1.9983464566929134
11
0.2996062992125984
21
1.9583464566929134
0
LINE
8
BLACK
6
CONTINUOUS
10
0.2996062992125984
20
1.9583464566929134
11
0.319763779527559
21
1.9583464566929134
0
LINE
8
BLACK
6
CONTINUOUS
10
0.319763779527559
20
1.9583464566929134
11
0.319763779527559
21
1.8983464566929134
0
LINE
8
BLACK
6
CONTINUOUS
10
0.319763779527559
20
1.8983464566929134
11
0.2996062992125984
21
1.8983464566929134
0
LINE
8
BLACK
6
CONTINUOUS
10
0.2996062992125984
20
1.8983464566929134
11
0.2996062992125984
21
1.8786614173228346
0
LINE
8
BLACK
6
CONTINUOUS
10
0.2996062992125984
20
1.8786614173228346
11
0.3216467716535433
21
1.8786614173228346
0
LINE
8
BLACK
6
CONTINUOUS
10
0.3216467716535433
20
1.8786614173228346
11
0.3216474015748031
21
1.8786614566929134
0
LINE
8
BLACK
6
CONTINUOUS
10
0.3216474015748031
20
1.8786614566929134
11
0.3239910236220472
21
1.878913464566929
0
LINE
8
BLACK
6
CONTINUOUS
10
0.3239910236220472
20
1.878913464566929
11
0.3239912992125984
21
1.8789135433070865
0
LINE
8
BLACK
6
CONTINUOUS
10
0.3239912992125984
20
1.8789135433070865
11
0.3292947244094488
21
1.8808915748031496
0
LINE
8
BLACK
6
CONTINUOUS
10
0.3292947244094488
20
1.8808915748031496
11
0.329295
21
1.8808917322834646
0
LINE
8
BLACK
6
CONTINUOUS
10
0.329295
20
1.8808917322834646
11
0.3338262598425197
21
1.8842838582677164
0
LINE
8
BLACK
6
CONTINUOUS
10
0.3338262598425197
20
1.8842838582677164
11
0.3338262992125984
21
1.8842838976377951
0
LINE
8
BLACK
6
CONTINUOUS
10
0.3338262992125984
20
1.8842838976377951
11
0.3356466141732283
21
1.8867155118110235
0
LINE
8
BLACK
6
CONTINUOUS
10
0.3356466141732283
20
1.8867155118110235
11
0.3378487007874016
21
1.8883640157480315
0
LINE
8
BLACK
6
CONTINUOUS
10
0.3378487007874016
20
1.8883640157480315
11
0.3405924803149606
21
1.8885602362204723
0
LINE
8
BLACK
6
CONTINUOUS
10
0.3405924803149606
20
1.8885602362204723
11
0.3430067716535433
21
1.8872419291338582
0
LINE
8
BLACK
6
CONTINUOUS
10
0.3430067716535433
20
1.8872419291338582
11
0.3434627559055118
21
1.886715748031496
0
LINE
8
BLACK
6
CONTINUOUS
10
0.3434627559055118
20
1.886715748031496
11
0.3454621653543307
21
1.884044842519685
0
LINE
8
BLACK
6
CONTINUOUS
10
0.3454621653543307
20
1.884044842519685
11
0.3500707086614173
21
1.8805949212598425
0
LINE
8
BLACK
6
CONTINUOUS
10
0.3500707086614173
20
1.8805949212598425
11
0.3545786220472441
21
1.8789135433070865
0
LINE
8
BLACK
6
CONTINUOUS
10
0.3545786220472441
20
1.8789135433070865
11
0.3552544488188976
21
1.8786614566929134
0
LINE
8
BLACK
6
CONTINUOUS
10
0.3552544488188976
20
1.8786614566929134
11
0.3554645275590551
21
1.8785831102362205
0
LINE
8
BLACK
6
CONTINUOUS
10
0.3554645275590551
20
1.8785831102362205
11
0.3565374015748031
21
1.8784677952755906
0
LINE
8
BLACK
6
CONTINUOUS
10
0.3565374015748031
20
1.8784677952755906
11
0.3578482283464567
21
1.878326811023622
0
LINE
8
BLACK
6
CONTINUOUS
10
0.3578482283464567
20
1.878326811023622
11
0.3578488976377953
21
1.8783267716535432
0
LINE
8
BLACK
6
CONTINUOUS
10
0.3578488976377953
20
1.8783267716535432
11
0.4216786614173228
21
1.8783267716535432
0
LINE
8
BLACK
6
CONTINUOUS
10
0.4216786614173228
20
1.8783267716535432
11
0.4216792913385827
21
1.878326811023622
0
LINE
8
BLACK
6
CONTINUOUS
10
0.4216792913385827
20
1.878326811023622
11
0.422743779527559
21
1.8784412992125983
0
LINE
8
BLACK
6
CONTINUOUS
10
0.422743779527559
20
1.8784412992125983
11
0.424063031496063
21
1.8785831102362205
0
LINE
8
BLACK
6
CONTINUOUS
10
0.424063031496063
20
1.8785831102362205
11
0.4242731102362204
21
1.8786614566929134
0
LINE
8
BLACK
6
CONTINUOUS
10
0.4242731102362204
20
1.8786614566929134
11
0.424948937007874
21
1.8789135433070865
0
LINE
8
BLACK
6
CONTINUOUS
10
0.424948937007874
20
1.8789135433070865
11
0.4294568503937008
21
1.8805949212598425
0
LINE
8
BLACK
6
CONTINUOUS
10
0.4294568503937008
20
1.8805949212598425
11
0.4340653937007874
21
1.884044842519685
0
LINE
8
BLACK
6
CONTINUOUS
10
0.4340653937007874
20
1.884044842519685
11
0.4358556692913386
21
1.8864363779527558
0
LINE
8
BLACK
6
CONTINUOUS
10
0.4358556692913386
20
1.8864363779527558
11
0.4380577559055118
21
1.8880848031496063
0
LINE
8
BLACK
6
CONTINUOUS
10
0.4380577559055118
20
1.8880848031496063
11
0.4408015354330709
21
1.8882810236220473
0
LINE
8
BLACK
6
CONTINUOUS
10
0.4408015354330709
20
1.8882810236220473
11
0.4432158267716536
21
1.886962716535433
0
LINE
8
BLACK
6
CONTINUOUS
10
0.4432158267716536
20
1.886962716535433
11
0.4436717716535433
21
1.8864365354330708
0
LINE
8
BLACK
6
CONTINUOUS
10
0.4436717716535433
20
1.8864365354330708
11
0.4454621653543307
21
1.884044842519685
0
LINE
8
BLACK
6
CONTINUOUS
10
0.4454621653543307
20
1.884044842519685
11
0.4500707086614173
21
1.8805949212598425
0
LINE
8
BLACK
6
CONTINUOUS
10
0.4500707086614173
20
1.8805949212598425
11
0.4545786220472441
21
1.8789135433070865
0
LINE
8
BLACK
6
CONTINUOUS
10
0.4545786220472441
20
1.8789135433070865
11
0.4552544488188977
21
1.8786614566929134
0
LINE
8
BLACK
6
CONTINUOUS
10
0.4552544488188977
20
1.8786614566929134
11
0.4554645275590551
21
1.8785831102362205
0
LINE
8
BLACK
6
CONTINUOUS
10
0.4554645275590551
20
1.8785831102362205
11
0.4565374015748032
21
1.8784677952755906
0
LINE
8
BLACK
6
CONTINUOUS
10
0.4565374015748032
20
1.8784677952755906
11
0.4578482283464567
21
1.878326811023622
0
LINE
8
BLACK
6
CONTINUOUS
10
0.4578482283464567
20
1.878326811023622
11
0.4578488976377952
21
1.8783267716535432
0
LINE
8
BLACK
6
CONTINUOUS
10
0.4578488976377952
20
1.8783267716535432
11
0.5216786614173228
21
1.8783267716535432
0
LINE
8
BLACK
6
CONTINUOUS
10
0.5216786614173228
20
1.8783267716535432
11
0.5216792913385827
21
1.878326811023622
0
LINE
8
BLACK
6
CONTINUOUS
10
0.5216792913385827
20
1.878326811023622
11
0.522743779527559
21
1.8784412992125983
0
LINE
8
BLACK
6
CONTINUOUS
10
0.522743779527559
20
1.8784412992125983
11
0.5240630314960629
21
1.8785831102362205
0
LINE
8
BLACK
6
CONTINUOUS
10
0.5240630314960629
20
1.8785831102362205
11
0.5242731102362205
21
1.8786614566929134
0
LINE
8
BLACK
6
CONTINUOUS
10
0.5242731102362205
20
1.8786614566929134
11
0.524948937007874
21
1.8789135433070865
0
LINE
8
BLACK
6
CONTINUOUS
10
0.524948937007874
20
1.8789135433070865
11
0.5294568503937008
21
1.8805949212598425
0
LINE
8
BLACK
6
CONTINUOUS
10
0.5294568503937008
20
1.8805949212598425
11
0.5340653937007874
21
1.884044842519685
0
LINE
8
BLACK
6
CONTINUOUS
10
0.5340653937007874
20
1.884044842519685
11
0.5358556692913385
21
1.8864363779527558
0
LINE
8
BLACK
6
CONTINUOUS
10
0.5358556692913385
20
1.8864363779527558
11
0.5380577559055117
21
1.8880848031496063
0
LINE
8
BLACK
6
CONTINUOUS
10
0.5380577559055117
20
1.8880848031496063
11
0.5408015354330709
21
1.8882810236220473
0
LINE
8
BLACK
6
CONTINUOUS
10
0.5408015354330709
20
1.8882810236220473
11
0.5432158267716535
21
1.886962716535433
0
LINE
8
BLACK
6
CONTINUOUS
10
0.5432158267716535
20
1.886962716535433
11
0.5436717716535433
21
1.8864365354330708
0
LINE
8
BLACK
6
CONTINUOUS
10
0.5436717716535433
20
1.8864365354330708
11
0.5454621653543307
21
1.884044842519685
0
LINE
8
BLACK
6
CONTINUOUS
10
0.5454621653543307
20
1.884044842519685
11
0.5500707086614173
21
1.8805949212598425
0
LINE
8
BLACK
6
CONTINUOUS
10
0.5500707086614173
20
1.8805949212598425
11
0.5545786220472441
21
1.8789135433070865
0
LINE
8
BLACK
6
CONTINUOUS
10
0.5545786220472441
20
1.8789135433070865
11
0.5552544488188976
21
1.8786614566929134
0
LINE
8
BLACK
6
CONTINUOUS
10
0.5552544488188976
20
1.8786614566929134
11
0.5554645275590551
21
1.8785831102362205
0
LINE
8
BLACK
6
CONTINUOUS
10
0.5554645275590551
20
1.8785831102362205
11
0.5565374015748031
21
1.8784677952755906
0
LINE
8
BLACK
6
CONTINUOUS
10
0.5565374015748031
20
1.8784677952755906
11
0.5578482283464566
21
1.878326811023622
0
LINE
8
BLACK
6
CONTINUOUS
10
0.5578482283464566
20
1.878326811023622
11
0.5578488976377952
21
1.8783267716535432
0
LINE
8
BLACK
6
CONTINUOUS
10
0.5578488976377952
20
1.8783267716535432
11
0.6216786614173229
21
1.8783267716535432
0
LINE
8
BLACK
6
CONTINUOUS
10
0.6216786614173229
20
1.8783267716535432
11
0.6216792913385827
21
1.878326811023622
0
LINE
8
BLACK
6
CONTINUOUS
10
0.6216792913385827
20
1.878326811023622
11
0.622743779527559
21
1.8784412992125983
0
LINE
8
BLACK
6
CONTINUOUS
10
0.622743779527559
20
1.8784412992125983
11
0.624063031496063
21
1.8785831102362205
0
LINE
8
BLACK
6
CONTINUOUS
10
0.624063031496063
20
1.8785831102362205
11
0.6242731102362205
21
1.8786614566929134
0
LINE
8
BLACK
6
CONTINUOUS
10
0.6242731102362205
20
1.8786614566929134
11
0.624948937007874
21
1.8789135433070865
0
LINE
8
BLACK
6
CONTINUOUS
10
0.624948937007874
20
1.8789135433070865
11
0.6294568503937008
21
1.8805949212598425
0
LINE
8
BLACK
6
CONTINUOUS
10
0.6294568503937008
20
1.8805949212598425
11
0.6340653937007874
21
1.884044842519685
0
LINE
8
BLACK
6
CONTINUOUS
10
0.6340653937007874
20
1.884044842519685
11
0.6358556692913385
21
1.8864363779527558
0
LINE
8
BLACK
6
CONTINUOUS
10
0.6358556692913385
20
1.8864363779527558
11
0.6380577559055118
21
1.8880848031496063
0
LINE
8
BLACK
6
CONTINUOUS
10
0.6380577559055118
20
1.8880848031496063
11
0.6408015354330708
21
1.8882810236220473
0
LINE
8
BLACK
6
CONTINUOUS
10
0.6408015354330708
20
1.8882810236220473
11
0.6432158267716536
21
1.886962716535433
0
LINE
8
BLACK
6
CONTINUOUS
10
0.6432158267716536
20
1.886962716535433
11
0.6436717716535433
21
1.8864365354330708
0
LINE
8
BLACK
6
CONTINUOUS
10
0.6436717716535433
20
1.8864365354330708
11
0.6454621653543307
21
1.884044842519685
0
LINE
8
BLACK
6
CONTINUOUS
10
0.6454621653543307
20
1.884044842519685
11
0.6500707086614174
21
1.8805949212598425
0
LINE
8
BLACK
6
CONTINUOUS
10
0.6500707086614174
20
1.8805949212598425
11
0.654578622047244
21
1.8789135433070865
0
LINE
8
BLACK
6
CONTINUOUS
10
0.654578622047244
20
1.8789135433070865
11
0.6552544488188976
21
1.8786614566929134
0
LINE
8
BLACK
6
CONTINUOUS
10
0.6552544488188976
20
1.8786614566929134
11
0.6554645275590552
21
1.8785831102362205
0
LINE
8
BLACK
6
CONTINUOUS
10
0.6554645275590552
20
1.8785831102362205
11
0.6565374015748031
21
1.8784677952755906
0
LINE
8
BLACK
6
CONTINUOUS
10
0.6565374015748031
20
1.8784677952755906
11
0.6578482283464567
21
1.878326811023622
0
LINE
8
BLACK
6
CONTINUOUS
10
0.6578482283464567
20
1.878326811023622
11
0.6578488976377953
21
1.8783267716535432
0
LINE
8
BLACK
6
CONTINUOUS
10
0.6578488976377953
20
1.8783267716535432
11
0.7216786614173228
21
1.8783267716535432
0
LINE
8
BLACK
6
CONTINUOUS
10
0.7216786614173228
20
1.8783267716535432
11
0.7216792913385827
21
1.878326811023622
0
LINE
8
BLACK
6
CONTINUOUS
10
0.7216792913385827
20
1.878326811023622
11
0.7227437795275591
21
1.8784412992125983
0
LINE
8
BLACK
6
CONTINUOUS
10
0.7227437795275591
20
1.8784412992125983
11
0.724063031496063
21
1.8785831102362205
0
LINE
8
BLACK
6
CONTINUOUS
10
0.724063031496063
20
1.8785831102362205
11
0.7242731102362204
21
1.8786614566929134
0
LINE
8
BLACK
6
CONTINUOUS
10
0.7242731102362204
20
1.8786614566929134
11
0.724948937007874
21
1.8789135433070865
0
LINE
8
BLACK
6
CONTINUOUS
10
0.724948937007874
20
1.8789135433070865
11
0.7294568503937008
21
1.8805949212598425
0
LINE
8
BLACK
6
CONTINUOUS
10
0.7294568503937008
20
1.8805949212598425
11
0.7340653937007874
21
1.884044842519685
0
LINE
8
BLACK
6
CONTINUOUS
10
0.7340653937007874
20
1.884044842519685
11
0.7358556692913386
21
1.8864363779527558
0
LINE
8
BLACK
6
CONTINUOUS
10
0.7358556692913386
20
1.8864363779527558
11
0.7380577559055118
21
1.8880848031496063
0
LINE
8
BLACK
6
CONTINUOUS
10
0.7380577559055118
20
1.8880848031496063
11
0.7408015354330708
21
1.8882810236220473
0
LINE
8
BLACK
6
CONTINUOUS
10
0.7408015354330708
20
1.8882810236220473
11
0.7432158267716535
21
1.886962716535433
0
LINE
8
BLACK
6
CONTINUOUS
10
0.7432158267716535
20
1.886962716535433
11
0.7436717716535433
21
1.8864365354330708
0
LINE
8
BLACK
6
CONTINUOUS
10
0.7436717716535433
20
1.8864365354330708
11
0.7454621653543307
21
1.884044842519685
0
LINE
8
BLACK
6
CONTINUOUS
10
0.7454621653543307
20
1.884044842519685
11
0.7500707086614173
21
1.8805949212598425
0
LINE
8
BLACK
6
CONTINUOUS
10
0.7500707086614173
20
1.8805949212598425
11
0.7545786220472441
21
1.8789135433070865
0
LINE
8
BLACK
6
CONTINUOUS
10
0.7545786220472441
20
1.8789135433070865
11
0.7552544488188976
21
1.8786614566929134
0
LINE
8
BLACK
6
CONTINUOUS
10
0.7552544488188976
20
1.8786614566929134
11
0.7554645275590551
21
1.8785831102362205
0
LINE
8
BLACK
6
CONTINUOUS
10
0.7554645275590551
20
1.8785831102362205
11
0.7565374015748031
21
1.8784677952755906
0
LINE
8
BLACK
6
CONTINUOUS
10
0.7565374015748031
20
1.8784677952755906
11
0.7578482283464567
21
1.878326811023622
0
LINE
8
BLACK
6
CONTINUOUS
10
0.7578482283464567
20
1.878326811023622
11
0.7578488976377953
21
1.8783267716535432
0
LINE
8
BLACK
6
CONTINUOUS
10
0.7578488976377953
20
1.8783267716535432
11
0.8216786614173228
21
1.8783267716535432
0
LINE
8
BLACK
6
CONTINUOUS
10
0.8216786614173228
20
1.8783267716535432
11
0.8216792913385826
21
1.878326811023622
0
LINE
8
BLACK
6
CONTINUOUS
10
0.8216792913385826
20
1.878326811023622
11
0.8227437795275591
21
1.8784412992125983
0
LINE
8
BLACK
6
CONTINUOUS
10
0.8227437795275591
20
1.8784412992125983
11
0.824063031496063
21
1.8785831102362205
0
LINE
8
BLACK
6
CONTINUOUS
10
0.824063031496063
20
1.8785831102362205
11
0.8242731102362204
21
1.8786614566929134
0
LINE
8
BLACK
6
CONTINUOUS
10
0.8242731102362204
20
1.8786614566929134
11
0.824948937007874
21
1.8789135433070865
0
LINE
8
BLACK
6
CONTINUOUS
10
0.824948937007874
20
1.8789135433070865
11
0.8294568503937008
21
1.8805949212598425
0
LINE
8
BLACK
6
CONTINUOUS
10
0.8294568503937008
20
1.8805949212598425
11
0.8340653937007874
21
1.884044842519685
0
LINE
8
BLACK
6
CONTINUOUS
10
0.8340653937007874
20
1.884044842519685
11
0.8358556692913386
21
1.8864363779527558
0
LINE
8
BLACK
6
CONTINUOUS
10
0.8358556692913386
20
1.8864363779527558
11
0.8380577559055118
21
1.8880848031496063
0
LINE
8
BLACK
6
CONTINUOUS
10
0.8380577559055118
20
1.8880848031496063
11
0.8408015354330709
21
1.8882810236220473
0
LINE
8
BLACK
6
CONTINUOUS
10
0.8408015354330709
20
1.8882810236220473
11
0.8432158267716535
21
1.886962716535433
0
LINE
8
BLACK
6
CONTINUOUS
10
0.8432158267716535
20
1.886962716535433
11
0.8436717716535432
21
1.8864365354330708
0
LINE
8
BLACK
6
CONTINUOUS
10
0.8436717716535432
20
1.8864365354330708
11
0.8454621653543307
21
1.884044842519685
0
LINE
8
BLACK
6
CONTINUOUS
10
0.8454621653543307
20
1.884044842519685
11
0.8500707086614173
21
1.8805949212598425
0
LINE
8
BLACK
6
CONTINUOUS
10
0.8500707086614173
20
1.8805949212598425
11
0.8545786220472441
21
1.8789135433070865
0
LINE
8
BLACK
6
CONTINUOUS
10
0.8545786220472441
20
1.8789135433070865
11
0.8552544488188977
21
1.8786614566929134
0
LINE
8
BLACK
6
CONTINUOUS
10
0.8552544488188977
20
1.8786614566929134
11
0.8554645275590551
21
1.8785831102362205
0
LINE
8
BLACK
6
CONTINUOUS
10
0.8554645275590551
20
1.8785831102362205
11
0.8565374015748032
21
1.8784677952755906
0
LINE
8
BLACK
6
CONTINUOUS
10
0.8565374015748032
20
1.8784677952755906
11
0.8578482283464567
21
1.878326811023622
0
LINE
8
BLACK
6
CONTINUOUS
10
0.8578482283464567
20
1.878326811023622
11
0.8578488976377953
21
1.8783267716535432
0
LINE
8
BLACK
6
CONTINUOUS
10
0.8578488976377953
20
1.8783267716535432
11
0.9216786614173228
21
1.8783267716535432
0
LINE
8
BLACK
6
CONTINUOUS
10
0.9216786614173228
20
1.8783267716535432
11
0.9216792913385826
21
1.878326811023622
0
LINE
8
BLACK
6
CONTINUOUS
10
0.9216792913385826
20
1.878326811023622
11
0.922743779527559
21
1.8784412992125983
0
LINE
8
BLACK
6
CONTINUOUS
10
0.922743779527559
20
1.8784412992125983
11
0.9240630314960629
21
1.8785831102362205
0
LINE
8
BLACK
6
CONTINUOUS
10
0.9240630314960629
20
1.8785831102362205
11
0.9242731102362205
21
1.8786614566929134
0
LINE
8
BLACK
6
CONTINUOUS
10
0.9242731102362205
20
1.8786614566929134
11
0.924948937007874
21
1.8789135433070865
0
LINE
8
BLACK
6
CONTINUOUS
10
0.924948937007874
20
1.8789135433070865
11
0.9294568503937007
21
1.8805949212598425
0
LINE
8
BLACK
6
CONTINUOUS
10
0.9294568503937007
20
1.8805949212598425
11
0.9340653937007873
21
1.884044842519685
0
LINE
8
BLACK
6
CONTINUOUS
10
0.9340653937007873
20
1.884044842519685
11
0.9375153149606299
21
1.8886533858267716
0
LINE
8
BLACK
6
CONTINUOUS
10
0.9375153149606299
20
1.8886533858267716
11
0.9395271259842519
21
1.8940472047244095
0
LINE
8
BLACK
6
CONTINUOUS
10
0.9395271259842519
20
1.8940472047244095
11
0.939668937007874
21
1.8953664566929134
0
LINE
8
BLACK
6
CONTINUOUS
10
0.939668937007874
20
1.8953664566929134
11
0.9397834251968503
21
1.8964309448818897
0
LINE
8
BLACK
6
CONTINUOUS
10
0.9397834251968503
20
1.8964309448818897
11
0.9397834645669291
21
1.8964316141732283
0
LINE
8
BLACK
6
CONTINUOUS
10
0.9397834645669291
20
1.8964316141732283
11
0.9397834645669291
21
1.960261338582677
0
LINE
8
BLACK
6
CONTINUOUS
10
0.9397834645669291
20
1.960261338582677
11
0.9397834251968503
21
1.9602620078740156
0
LINE
8
BLACK
6
CONTINUOUS
10
0.9397834251968503
20
1.9602620078740156
11
0.9396518503937008
21
1.9614854330708662
0
LINE
8
BLACK
6
CONTINUOUS
10
0.9396518503937008
20
1.9614854330708662
11
0.9395271259842519
21
1.9626457086614173
0
LINE
8
BLACK
6
CONTINUOUS
10
0.9395271259842519
20
1.9626457086614173
11
0.9375153149606299
21
1.968039527559055
0
LINE
8
BLACK
6
CONTINUOUS
10
0.9375153149606299
20
1.968039527559055
11
0.9340653937007873
21
1.9726480708661416
0
LINE
8
BLACK
6
CONTINUOUS
10
0.9340653937007873
20
1.9726480708661416
11
0.9316738582677165
21
1.9744383858267716
0
LINE
8
BLACK
6
CONTINUOUS
10
0.9316738582677165
20
1.9744383858267716
11
0.9300254330708662
21
1.976640433070866
0
LINE
8
BLACK
6
CONTINUOUS
10
0.9300254330708662
20
1.976640433070866
11
0.9298292125984252
21
1.9793842125984251
0
LINE
8
BLACK
6
CONTINUOUS
10
0.9298292125984252
20
1.9793842125984251
11
0.9311475196850394
21
1.9817985039370078
0
LINE
8
BLACK
6
CONTINUOUS
10
0.9311475196850394
20
1.9817985039370078
11
0.9316738582677165
21
1.9822545669291338
0
LINE
8
BLACK
6
CONTINUOUS
10
0.9316738582677165
20
1.9822545669291338
11
0.9340653937007873
21
1.984044842519685
0
LINE
8
BLACK
6
CONTINUOUS
10
0.9340653937007873
20
1.984044842519685
11
0.9375153149606299
21
1.9886533858267716
0
LINE
8
BLACK
6
CONTINUOUS
10
0.9375153149606299
20
1.9886533858267716
11
0.9395271259842519
21
1.9940472047244093
0
LINE
8
BLACK
6
CONTINUOUS
10
0.9395271259842519
20
1.9940472047244093
11
0.939668937007874
21
1.9953664566929132
0
LINE
8
BLACK
6
CONTINUOUS
10
0.939668937007874
20
1.9953664566929132
11
0.9397834251968503
21
1.9964309448818898
0
LINE
8
BLACK
6
CONTINUOUS
10
0.9397834251968503
20
1.9964309448818898
11
0.9397834645669291
21
1.9964316141732283
0
LINE
8
BLACK
6
CONTINUOUS
10
0.9397834645669291
20
1.9964316141732283
11
0.9397834645669291
21
2.0602613385826771
0
LINE
8
BLACK
6
CONTINUOUS
10
0.9397834645669291
20
2.0602613385826771
11
0.9397834251968503
21
2.0602620078740159
0
LINE
8
BLACK
6
CONTINUOUS
10
0.9397834251968503
20
2.0602620078740159
11
0.9396518503937008
21
2.0614854330708661
0
LINE
8
BLACK
6
CONTINUOUS
10
0.9396518503937008
20
2.0614854330708661
11
0.9395271259842519
21
2.0626457086614174
0
LINE
8
BLACK
6
CONTINUOUS
10
0.9395271259842519
20
2.0626457086614174
11
0.9375153149606299
21
2.0680395275590553
0
LINE
8
BLACK
6
CONTINUOUS
10
0.9375153149606299
20
2.0680395275590553
11
0.9340653937007873
21
2.0726480708661419
0
LINE
8
BLACK
6
CONTINUOUS
10
0.9340653937007873
20
2.0726480708661419
11
0.9294568503937007
21
2.0760979921259843
0
LINE
8
BLACK
6
CONTINUOUS
10
0.9294568503937007
20
2.0760979921259843
11
0.9240631102362205
21
2.0781098031496064
0
LINE
8
BLACK
6
CONTINUOUS
10
0.9240631102362205
20
2.0781098031496064
11
0.9216792913385826
21
2.0783661417322836
0
LINE
8
BLACK
6
CONTINUOUS
10
0.9216792913385826
20
2.0783661417322836
11
0.9216786614173228
21
2.0783661417322836
0
LINE
8
BLACK
6
CONTINUOUS
10
0.9216786614173228
20
2.0783661417322836
11
0.8578488976377953
21
2.0783661417322836
0
LINE
8
BLACK
6
CONTINUOUS
10
0.8578488976377953
20
2.0783661417322836
11
0.8578482283464567
21
2.0783661417322836
0
LINE
8
BLACK
6
CONTINUOUS
10
0.8578482283464567
20
2.0783661417322836
11
0.8554644488188976
21
2.0781098031496064
0
LINE
8
BLACK
6
CONTINUOUS
10
0.8554644488188976
20
2.0781098031496064
11
0.8554643700787401
21
2.0781098031496064
0
LINE
8
BLACK
6
CONTINUOUS
10
0.8554643700787401
20
2.0781098031496064
11
0.8500706692913386
21
2.0760979921259843
0
LINE
8
BLACK
6
CONTINUOUS
10
0.8500706692913386
20
2.0760979921259843
11
0.8454620472440945
21
2.0726479921259844
0
LINE
8
BLACK
6
CONTINUOUS
10
0.8454620472440945
20
2.0726479921259844
11
0.8436718897637795
21
2.0702566141732284
0
LINE
8
BLACK
6
CONTINUOUS
10
0.8436718897637795
20
2.0702566141732284
11
0.8414697637795275
21
2.0686081496062991
0
LINE
8
BLACK
6
CONTINUOUS
10
0.8414697637795275
20
2.0686081496062991
11
0.8387260236220472
21
2.0684119291338581
0
LINE
8
BLACK
6
CONTINUOUS
10
0.8387260236220472
20
2.0684119291338581
11
0.8363117322834646
21
2.0697302755905511
0
LINE
8
BLACK
6
CONTINUOUS
10
0.8363117322834646
20
2.0697302755905511
11
0.8358556692913386
21
2.0702566141732284
0
LINE
8
BLACK
6
CONTINUOUS
10
0.8358556692913386
20
2.0702566141732284
11
0.8340654724409449
21
2.0726479921259844
0
LINE
8
BLACK
6
CONTINUOUS
10
0.8340654724409449
20
2.0726479921259844
11
0.8340653937007874
21
2.0726480314960631
0
LINE
8
BLACK
6
CONTINUOUS
10
0.8340653937007874
20
2.0726480314960631
11
0.8340653937007874
21
2.0726480708661419
0
LINE
8
BLACK
6
CONTINUOUS
10
0.8340653937007874
20
2.0726480708661419
11
0.8294568503937008
21
2.0760979921259843
0
LINE
8
BLACK
6
CONTINUOUS
10
0.8294568503937008
20
2.0760979921259843
11
0.8240631102362205
21
2.0781098031496064
0
LINE
8
BLACK
6
CONTINUOUS
10
0.8240631102362205
20
2.0781098031496064
11
0.8216792913385826
21
2.0783661417322836
0
LINE
8
BLACK
6
CONTINUOUS
10
0.8216792913385826
20
2.0783661417322836
11
0.8216786614173228
21
2.0783661417322836
0
LINE
8
BLACK
6
CONTINUOUS
10
0.8216786614173228
20
2.0783661417322836
11
0.7578488976377953
21
2.0783661417322836
0
LINE
8
BLACK
6
CONTINUOUS
10
0.7578488976377953
20
2.0783661417322836
11
0.7578482283464567
21
2.0783661417322836
0
LINE
8
BLACK
6
CONTINUOUS
10
0.7578482283464567
20
2.0783661417322836
11
0.7554644488188976
21
2.0781098031496064
0
LINE
8
BLACK
6
CONTINUOUS
10
0.7554644488188976
20
2.0781098031496064
11
0.7554643700787401
21
2.0781098031496064
0
LINE
8
BLACK
6
CONTINUOUS
10
0.7554643700787401
20
2.0781098031496064
11
0.7500706692913386
21
2.0760979921259843
0
LINE
8
BLACK
6
CONTINUOUS
10
0.7500706692913386
20
2.0760979921259843
11
0.7454620472440945
21
2.0726479921259844
0
LINE
8
BLACK
6
CONTINUOUS
10
0.7454620472440945
20
2.0726479921259844
11
0.7436718897637795
21
2.0702566141732284
0
LINE
8
BLACK
6
CONTINUOUS
10
0.7436718897637795
20
2.0702566141732284
11
0.7414697637795276
21
2.0686081496062991
0
LINE
8
BLACK
6
CONTINUOUS
10
0.7414697637795276
20
2.0686081496062991
11
0.7387260236220472
21
2.0684119291338581
0
LINE
8
BLACK
6
CONTINUOUS
10
0.7387260236220472
20
2.0684119291338581
11
0.7363117322834646
21
2.0697302755905511
0
LINE
8
BLACK
6
CONTINUOUS
10
0.7363117322834646
20
2.0697302755905511
11
0.7358556692913386
21
2.0702566141732284
0
LINE
8
BLACK
6
CONTINUOUS
10
0.7358556692913386
20
2.0702566141732284
11
0.7340654724409449
21
2.0726479921259844
0
LINE
8
BLACK
6
CONTINUOUS
10
0.7340654724409449
20
2.0726479921259844
11
0.7340653937007874
21
2.0726480314960631
0
LINE
8
BLACK
6
CONTINUOUS
10
0.7340653937007874
20
2.0726480314960631
11
0.7340653937007874
21
2.0726480708661419
0
LINE
8
BLACK
6
CONTINUOUS
10
0.7340653937007874
20
2.0726480708661419
11
0.7294568503937008
21
2.0760979921259843
0
LINE
8
BLACK
6
CONTINUOUS
10
0.7294568503937008
20
2.0760979921259843
11
0.7240631102362205
21
2.0781098031496064
0
LINE
8
BLACK
6
CONTINUOUS
10
0.7240631102362205
20
2.0781098031496064
11
0.7216792913385827
21
2.0783661417322836
0
LINE
8
BLACK
6
CONTINUOUS
10
0.7216792913385827
20
2.0783661417322836
11
0.7216786614173228
21
2.0783661417322836
0
LINE
8
BLACK
6
CONTINUOUS
10
0.7216786614173228
20
2.0783661417322836
11
0.6578488976377953
21
2.0783661417322836
0
LINE
8
BLACK
6
CONTINUOUS
10
0.6578488976377953
20
2.0783661417322836
11
0.6578482283464567
21
2.0783661417322836
0
LINE
8
BLACK
6
CONTINUOUS
10
0.6578482283464567
20
2.0783661417322836
11
0.6554644488188976
21
2.0781098031496064
0
LINE
8
BLACK
6
CONTINUOUS
10
0.6554644488188976
20
2.0781098031496064
11
0.6554643700787401
21
2.0781098031496064
0
LINE
8
BLACK
6
CONTINUOUS
10
0.6554643700787401
20
2.0781098031496064
11
0.6500706692913386
21
2.0760979921259843
0
LINE
8
BLACK
6
CONTINUOUS
10
0.6500706692913386
20
2.0760979921259843
11
0.6454620472440945
21
2.0726479921259844
0
LINE
8
BLACK
6
CONTINUOUS
10
0.6454620472440945
20
2.0726479921259844
11
0.6436718897637795
21
2.0702566141732284
0
LINE
8
BLACK
6
CONTINUOUS
10
0.6436718897637795
20
2.0702566141732284
11
0.6414697637795276
21
2.0686081496062991
0
LINE
8
BLACK
6
CONTINUOUS
10
0.6414697637795276
20
2.0686081496062991
11
0.6387260236220472
21
2.0684119291338581
0
LINE
8
BLACK
6
CONTINUOUS
10
0.6387260236220472
20
2.0684119291338581
11
0.6363117322834646
21
2.0697302755905511
0
LINE
8
BLACK
6
CONTINUOUS
10
0.6363117322834646
20
2.0697302755905511
11
0.6358556692913385
21
2.0702566141732284
0
LINE
8
BLACK
6
CONTINUOUS
10
0.6358556692913385
20
2.0702566141732284
11
0.6340654724409449
21
2.0726479921259844
0
LINE
8
BLACK
6
CONTINUOUS
10
0.6340654724409449
20
2.0726479921259844
11
0.6340653937007874
21
2.0726480314960631
0
LINE
8
BLACK
6
CONTINUOUS
10
0.6340653937007874
20
2.0726480314960631
11
0.6340653937007874
21
2.0726480708661419
0
LINE
8
BLACK
6
CONTINUOUS
10
0.6340653937007874
20
2.0726480708661419
11
0.6294568503937008
21
2.0760979921259843
0
LINE
8
BLACK
6
CONTINUOUS
10
0.6294568503937008
20
2.0760979921259843
11
0.6240631102362204
21
2.0781098031496064
0
LINE
8
BLACK
6
CONTINUOUS
10
0.6240631102362204
20
2.0781098031496064
11
0.6216792913385827
21
2.0783661417322836
0
LINE
8
BLACK
6
CONTINUOUS
10
0.6216792913385827
20
2.0783661417322836
11
0.6216786614173229
21
2.0783661417322836
0
LINE
8
BLACK
6
CONTINUOUS
10
0.6216786614173229
20
2.0783661417322836
11
0.5578488976377952
21
2.0783661417322836
0
LINE
8
BLACK
6
CONTINUOUS
10
0.5578488976377952
20
2.0783661417322836
11
0.5578482283464566
21
2.0783661417322836
0
LINE
8
BLACK
6
CONTINUOUS
10
0.5578482283464566
20
2.0783661417322836
11
0.5554644488188977
21
2.0781098031496064
0
LINE
8
BLACK
6
CONTINUOUS
10
0.5554644488188977
20
2.0781098031496064
11
0.5554643700787402
21
2.0781098031496064
0
LINE
8
BLACK
6
CONTINUOUS
10
0.5554643700787402
20
2.0781098031496064
11
0.5500706692913385
21
2.0760979921259843
0
LINE
8
BLACK
6
CONTINUOUS
10
0.5500706692913385
20
2.0760979921259843
11
0.5454620472440945
21
2.0726479921259844
0
LINE
8
BLACK
6
CONTINUOUS
10
0.5454620472440945
20
2.0726479921259844
11
0.5436718897637796
21
2.0702566141732284
0
LINE
8
BLACK
6
CONTINUOUS
10
0.5436718897637796
20
2.0702566141732284
11
0.5414697637795276
21
2.0686081496062991
0
LINE
8
BLACK
6
CONTINUOUS
10
0.5414697637795276
20
2.0686081496062991
11
0.5387260236220472
21
2.0684119291338581
0
LINE
8
BLACK
6
CONTINUOUS
10
0.5387260236220472
20
2.0684119291338581
11
0.5363117322834645
21
2.0697302755905511
0
LINE
8
BLACK
6
CONTINUOUS
10
0.5363117322834645
20
2.0697302755905511
11
0.5358556692913385
21
2.0702566141732284
0
LINE
8
BLACK
6
CONTINUOUS
10
0.5358556692913385
20
2.0702566141732284
11
0.5340654724409448
21
2.0726479921259844
0
LINE
8
BLACK
6
CONTINUOUS
10
0.5340654724409448
20
2.0726479921259844
11
0.5340653937007874
21
2.0726480314960631
0
LINE
8
BLACK
6
CONTINUOUS
10
0.5340653937007874
20
2.0726480314960631
11
0.5340653937007874
21
2.0726480708661419
0
LINE
8
BLACK
6
CONTINUOUS
10
0.5340653937007874
20
2.0726480708661419
11
0.5294568503937008
21
2.0760979921259843
0
LINE
8
BLACK
6
CONTINUOUS
10
0.5294568503937008
20
2.0760979921259843
11
0.5240631102362204
21
2.0781098031496064
0
LINE
8
BLACK
6
CONTINUOUS
10
0.5240631102362204
20
2.0781098031496064
11
0.5216792913385827
21
2.0783661417322836
0
LINE
8
BLACK
6
CONTINUOUS
10
0.5216792913385827
20
2.0783661417322836
11
0.5216786614173228
21
2.0783661417322836
0
LINE
8
BLACK
6
CONTINUOUS
10
0.5216786614173228
20
2.0783661417322836
11
0.4578488976377952
21
2.0783661417322836
0
LINE
8
BLACK
6
CONTINUOUS
10
0.4578488976377952
20
2.0783661417322836
11
0.4578482283464567
21
2.0783661417322836
0
LINE
8
BLACK
6
CONTINUOUS
10
0.4578482283464567
20
2.0783661417322836
11
0.4554644488188976
21
2.0781098031496064
0
LINE
8
BLACK
6
CONTINUOUS
10
0.4554644488188976
20
2.0781098031496064
11
0.4554643700787401
21
2.0781098031496064
0
LINE
8
BLACK
6
CONTINUOUS
10
0.4554643700787401
20
2.0781098031496064
11
0.4500706692913386
21
2.0760979921259843
0
LINE
8
BLACK
6
CONTINUOUS
10
0.4500706692913386
20
2.0760979921259843
11
0.4454620472440945
21
2.0726479921259844
0
LINE
8
BLACK
6
CONTINUOUS
10
0.4454620472440945
20
2.0726479921259844
11
0.4436718897637795
21
2.0702566141732284
0
LINE
8
BLACK
6
CONTINUOUS
10
0.4436718897637795
20
2.0702566141732284
11
0.4414697637795276
21
2.0686081496062991
0
LINE
8
BLACK
6
CONTINUOUS
10
0.4414697637795276
20
2.0686081496062991
11
0.4387260236220472
21
2.0684119291338581
0
LINE
8
BLACK
6
CONTINUOUS
10
0.4387260236220472
20
2.0684119291338581
11
0.4363117322834645
21
2.0697302755905511
0
LINE
8
BLACK
6
CONTINUOUS
10
0.4363117322834645
20
2.0697302755905511
11
0.4358556692913386
21
2.0702566141732284
0
LINE
8
BLACK
6
CONTINUOUS
10
0.4358556692913386
20
2.0702566141732284
11
0.4340654724409449
21
2.0726479921259844
0
LINE
8
BLACK
6
CONTINUOUS
10
0.4340654724409449
20
2.0726479921259844
11
0.4340653937007874
21
2.0726480314960631
0
LINE
8
BLACK
6
CONTINUOUS
10
0.4340653937007874
20
2.0726480314960631
11
0.4340653937007874
21
2.0726480708661419
0
LINE
8
BLACK
6
CONTINUOUS
10
0.4340653937007874
20
2.0726480708661419
11
0.4294568503937008
21
2.0760979921259843
0
LINE
8
BLACK
6
CONTINUOUS
10
0.4294568503937008
20
2.0760979921259843
11
0.4240631102362205
21
2.0781098031496064
0
LINE
8
BLACK
6
CONTINUOUS
10
0.4240631102362205
20
2.0781098031496064
11
0.4216792913385827
21
2.0783661417322836
0
LINE
8
BLACK
6
CONTINUOUS
10
0.4216792913385827
20
2.0783661417322836
11
0.4216786614173228
21
2.0783661417322836
0
LINE
8
BLACK
6
CONTINUOUS
10
0.4216786614173228
20
2.0783661417322836
11
0.3578488976377953
21
2.0783661417322836
0
LINE
8
BLACK
6
CONTINUOUS
10
0.3578488976377953
20
2.0783661417322836
11
0.3578482283464567
21
2.0783661417322836
0
LINE
8
BLACK
6
CONTINUOUS
10
0.3578482283464567
20
2.0783661417322836
11
0.3554644488188976
21
2.0781098031496064
0
LINE
8
BLACK
6
CONTINUOUS
10
0.2400787401574803
20
1.918503937007874
11
0.2400787401574803
21
1.8964628346456693
0
LINE
8
BLACK
6
CONTINUOUS
10
0.2400787401574803
20
1.8964628346456693
11
0.2403307480314961
21
1.8941192125984252
0
LINE
8
BLACK
6
CONTINUOUS
10
0.2403307480314961
20
1.8941192125984252
11
0.2403308267716535
21
1.8941189370078739
0
LINE
8
BLACK
6
CONTINUOUS
10
0.2403308267716535
20
1.8941189370078739
11
0.2423088582677165
21
1.8888155118110235
0
LINE
8
BLACK
6
CONTINUOUS
10
0.2423088582677165
20
1.8888155118110235
11
0.2423090157480315
21
1.8888152362204724
0
LINE
8
BLACK
6
CONTINUOUS
10
0.2423090157480315
20
1.8888152362204724
11
0.2457011417322835
21
1.8842839763779526
0
LINE
8
BLACK
6
CONTINUOUS
10
0.2457011417322835
20
1.8842839763779526
11
0.2457012598425197
21
1.8842838582677164
0
LINE
8
BLACK
6
CONTINUOUS
10
0.2457012598425197
20
1.8842838582677164
11
0.2502325196850393
21
1.8808917322834646
0
LINE
8
BLACK
6
CONTINUOUS
10
0.2502325196850393
20
1.8808917322834646
11
0.2502327952755906
21
1.8808915748031496
0
LINE
8
BLACK
6
CONTINUOUS
10
0.2502327952755906
20
1.8808915748031496
11
0.255536220472441
21
1.8789135433070865
0
LINE
8
BLACK
6
CONTINUOUS
10
0.255536220472441
20
1.8789135433070865
11
0.2555364960629921
21
1.878913464566929
0
LINE
8
BLACK
6
CONTINUOUS
10
0.2555364960629921
20
1.878913464566929
11
0.2578801181102362
21
1.8786614566929134
0
LINE
8
BLACK
6
CONTINUOUS
10
0.2578801181102362
20
1.8786614566929134
11
0.2578807874015748
21
1.8786614173228346
0
LINE
8
BLACK
6
CONTINUOUS
10
0.2578807874015748
20
1.8786614173228346
11
0.2799212598425197
21
1.8786614173228346
0
LINE
8
BLACK
6
CONTINUOUS
10
0.2799212598425197
20
1.8786614173228346
11
0.2799212598425197
21
1.8983464566929134
0
LINE
8
BLACK
6
CONTINUOUS
10
0.2799212598425197
20
1.8983464566929134
11
0.259763779527559
21
1.8983464566929134
0
LINE
8
BLACK
6
CONTINUOUS
10
0.259763779527559
20
1.8983464566929134
11
0.259763779527559
21
1.918503937007874
0
LINE
8
BLACK
6
CONTINUOUS
10
0.259763779527559
20
1.918503937007874
11
0.2400787401574803
21
1.918503937007874
0
LINE
8
BLACK
6
CONTINUOUS
10
0.2400787401574803
20
2.0185039370078739
11
0.2400787401574803
21
1.9964628346456692
0
LINE
8
BLACK
6
CONTINUOUS
10
0.2400787401574803
20
1.9964628346456692
11
0.2403307480314961
21
1.9941192125984251
0
LINE
8
BLACK
6
CONTINUOUS
10
0.2403307480314961
20
1.9941192125984251
11
0.2403308267716535
21
1.994118937007874
0
LINE
8
BLACK
6
CONTINUOUS
10
0.2403308267716535
20
1.994118937007874
11
0.2423088582677165
21
1.9888155118110236
0
LINE
8
BLACK
6
CONTINUOUS
10
0.2423088582677165
20
1.9888155118110236
11
0.2423090157480315
21
1.9888152362204723
0
LINE
8
BLACK
6
CONTINUOUS
10
0.2423090157480315
20
1.9888152362204723
11
0.2457011417322835
21
1.9842839763779527
0
LINE
8
BLACK
6
CONTINUOUS
10
0.2457011417322835
20
1.9842839763779527
11
0.2484120472440945
21
1.9822545669291338
0
LINE
8
BLACK
6
CONTINUOUS
10
0.2484120472440945
20
1.9822545669291338
11
0.2500604724409449
21
1.9800524409448819
0
LINE
8
BLACK
6
CONTINUOUS
10
0.2500604724409449
20
1.9800524409448819
11
0.2502566929133858
21
1.9773087007874015
0
LINE
8
BLACK
6
CONTINUOUS
10
0.2502566929133858
20
1.9773087007874015
11
0.2489383464566929
21
1.9748944094488188
0
LINE
8
BLACK
6
CONTINUOUS
10
0.2489383464566929
20
1.9748944094488188
11
0.2484120472440945
21
1.9744383464566928
0
LINE
8
BLACK
6
CONTINUOUS
10
0.2484120472440945
20
1.9744383464566928
11
0.2457011417322835
21
1.9724089763779526
0
LINE
8
BLACK
6
CONTINUOUS
10
0.2457011417322835
20
1.9724089763779526
11
0.2423090157480315
21
1.9678777165354331
0
LINE
8
BLACK
6
CONTINUOUS
10
0.2423090157480315
20
1.9678777165354331
11
0.2423088582677165
21
1.9678774409448818
0
LINE
8
BLACK
6
CONTINUOUS
10
0.2423088582677165
20
1.9678774409448818
11
0.2403308267716535
21
1.9625740157480314
0
LINE
8
BLACK
6
CONTINUOUS
10
0.2403308267716535
20
1.9625740157480314
11
0.2403307480314961
21
1.9625737401574803
0
LINE
8
BLACK
6
CONTINUOUS
10
0.2403307480314961
20
1.9625737401574803
11
0.2400787401574803
21
1.9602301181102362
0
LINE
8
BLACK
6
CONTINUOUS
10
0.2400787401574803
20
1.9602301181102362
11
0.2400787401574803
21
1.9381889763779527
0
LINE
8
BLACK
6
CONTINUOUS
10
0.2400787401574803
20
1.9381889763779527
11
0.259763779527559
21
1.9381889763779527
0
LINE
8
BLACK
6
CONTINUOUS
10
0.259763779527559
20
1.9381889763779527
11
0.259763779527559
21
1.9583464566929134
0
LINE
8
BLACK
6
CONTINUOUS
10
0.259763779527559
20
1.9583464566929134
11
0.2799212598425197
21
1.9583464566929134
0
LINE
8
BLACK
6
CONTINUOUS
10
0.2799212598425197
20
1.9583464566929134
11
0.2799212598425197
21
1.9983464566929134
0
LINE
8
BLACK
6
CONTINUOUS
10
0.2799212598425197
20
1.9983464566929134
11
0.259763779527559
21
1.9983464566929134
0
LINE
8
BLACK
6
CONTINUOUS
10
0.259763779527559
20
1.9983464566929134
11
0.259763779527559
21
2.0185039370078739
0
LINE
8
BLACK
6
CONTINUOUS
10
0.259763779527559
20
2.0185039370078739
11
0.2400787401574803
21
2.0185039370078739
0
LINE
8
BLACK
6
CONTINUOUS
10
0.2555364960629921
20
2.0777794881889764
11
0.255536220472441
21
2.0777794094488189
0
LINE
8
BLACK
6
CONTINUOUS
10
0.255536220472441
20
2.0777794094488189
11
0.2502327952755906
21
2.075801377952756
0
LINE
8
BLACK
6
CONTINUOUS
10
0.2502327952755906
20
2.075801377952756
11
0.2502325196850393
21
2.075801220472441
0
LINE
8
BLACK
6
CONTINUOUS
10
0.2502325196850393
20
2.075801220472441
11
0.2457012598425197
21
2.0724090944881888
0
LINE
8
BLACK
6
CONTINUOUS
10
0.2457012598425197
20
2.0724090944881888
11
0.2457011417322835
21
2.0724089763779525
0
LINE
8
BLACK
6
CONTINUOUS
10
0.2457011417322835
20
2.0724089763779525
11
0.2423090157480315
21
2.067877716535433
0
LINE
8
BLACK
6
CONTINUOUS
10
0.2423090157480315
20
2.067877716535433
11
0.2423088582677165
21
2.0678774409448817
0
LINE
8
BLACK
6
CONTINUOUS
10
0.2423088582677165
20
2.0678774409448817
11
0.2403308267716535
21
2.0625740157480315
0
LINE
8
BLACK
6
CONTINUOUS
10
0.2403308267716535
20
2.0625740157480315
11
0.2403307480314961
21
2.0625737401574802
0
LINE
8
BLACK
6
CONTINUOUS
10
0.2403307480314961
20
2.0625737401574802
11
0.2400787401574803
21
2.060230118110236
0
LINE
8
BLACK
6
CONTINUOUS
10
0.2400787401574803
20
2.060230118110236
11
0.2400787401574803
21
2.0381889763779526
0
LINE
8
BLACK
6
CONTINUOUS
10
0.2400787401574803
20
2.0381889763779526
11
0.259763779527559
21
2.0381889763779526
0
LINE
8
BLACK
6
CONTINUOUS
10
0.259763779527559
20
2.0381889763779526
11
0.259763779527559
21
2.0583464566929135
0
LINE
8
BLACK
6
CONTINUOUS
10
0.259763779527559
20
2.0583464566929135
11
0.2799212598425197
21
2.0583464566929135
0
LINE
8
BLACK
6
CONTINUOUS
10
0.2799212598425197
20
2.0583464566929135
11
0.2799212598425197
21
2.0780314960629922
0
LINE
8
BLACK
6
CONTINUOUS
10
0.2799212598425197
20
2.0780314960629922
11
0.2578801181102362
21
2.0780314960629922
0
LINE
8
BLACK
6
CONTINUOUS
10
0.2578801181102362
20
2.0780314960629922
11
0.2555364960629921
21
2.0777794881889764
0
CIRCLE
8
BLACK
10
0.
20
1.9775590551181101
40
0.0068897637795276
0
CIRCLE
8
BLACK
10
1.2
20
0.0031496062992126
40
0.0068897637795276
0
CIRCLE
8
BLACK
10
0.
20
0.0031496062992126
40
0.0068897637795276
0
CIRCLE
8
BLACK
10
1.2
20
1.9775590551181101
40
0.0068897637795276
0
CIRCLE
8
BLACK
10
0.889763779527559
20
2.0283464566929132
40
0.0068897637795276
0
CIRCLE
8
BLACK
10
0.889763779527559
20
1.9283464566929134
40
0.0068897637795276
0
CIRCLE
8
BLACK
10
0.7897637795275591
20
2.0283464566929132
40
0.0068897637795276
0
CIRCLE
8
BLACK
10
0.7897637795275591
20
1.9283464566929134
40
0.0068897637795276
0
CIRCLE
8
BLACK
10
0.6897637795275591
20
2.0283464566929132
40
0.0068897637795276
0
CIRCLE
8
BLACK
10
0.6897637795275591
20
1.9283464566929134
40
0.0068897637795276
0
CIRCLE
8
BLACK
10
0.5897637795275591
20
2.0283464566929132
40
0.0068897637795276
0
CIRCLE
8
BLACK
10
0.5897637795275591
20
1.9283464566929134
40
0.0068897637795276
0
CIRCLE
8
BLACK
10
0.4897637795275591
20
2.0283464566929132
40
0.0068897637795276
0
CIRCLE
8
BLACK
10
0.4897637795275591
20
1.9283464566929134
40
0.0068897637795276
0
CIRCLE
8
BLACK
10
0.389763779527559
20
2.0283464566929132
40
0.0068897637795276
0
CIRCLE
8
BLACK
10
0.389763779527559
20
1.9283464566929134
40
0.0068897637795276
0
CIRCLE
8
BLACK
10
0.2897637795275591
20
2.0283464566929132
40
0.0068897637795276
0
CIRCLE
8
BLACK
10
0.2897637795275591
20
1.9283464566929134
40
0.0068897637795276
0
CIRCLE
8
BLACK
10
0.631496062992126
20
1.8681102362204725
40
0.0039370078740157
0
CIRCLE
8
BLACK
10
0.5511811023622047
20
1.8673228346456692
40
0.0039370078740157
0
CIRCLE
8
BLACK
10
0.3602362204724409
20
1.2366141732283464
40
0.0039370078740157
0
CIRCLE
8
BLACK
10
0.5492125984251969
20
0.2889763779527559
40
0.0039370078740157
0
CIRCLE
8
BLACK
10
0.4468503937007874
20
1.0720472440944881
40
0.0039370078740157
0
CIRCLE
8
BLACK
10
0.6531496062992126
20
0.2889763779527559
40
0.0039370078740157
0
CIRCLE
8
BLACK
10
0.4492125984251968
20
1.4062992125984253
40
0.0039370078740157
0
CIRCLE
8
BLACK
10
0.6771653543307087
20
1.4070866141732283
40
0.0039370078740157
0
CIRCLE
8
WHITE
10
0.631496062992126
20
1.8681102362204725
40
0.0039370078740157
0
CIRCLE
8
WHITE
10
0.5511811023622047
20
1.8673228346456692
40
0.0039370078740157
0
CIRCLE
8
WHITE
10
0.3602362204724409
20
1.2366141732283464
40
0.0039370078740157
0
CIRCLE
8
WHITE
10
0.5492125984251969
20
0.2889763779527559
40
0.0039370078740157
0
CIRCLE
8
WHITE
10
0.4468503937007874
20
1.0720472440944881
40
0.0039370078740157
0
CIRCLE
8
WHITE
10
0.6531496062992126
20
0.2889763779527559
40
0.0039370078740157
0
CIRCLE
8
WHITE
10
0.4492125984251968
20
1.4062992125984253
40
0.0039370078740157
0
CIRCLE
8
WHITE
10
0.6771653543307087
20
1.4070866141732283
40
0.0039370078740157
0
CIRCLE
8
WHITE
10
0.
20
1.9775590551181101
40
0.0068897637795276
0
CIRCLE
8
WHITE
10
1.2
20
0.0031496062992126
40
0.0068897637795276
0
CIRCLE
8
WHITE
10
0.
20
0.0031496062992126
40
0.0068897637795276
0
CIRCLE
8
WHITE
10
1.2
20
1.9775590551181101
40
0.0068897637795276
0
CIRCLE
8
WHITE
10
0.889763779527559
20
2.0283464566929132
40
0.0068897637795276
0
CIRCLE
8
WHITE
10
0.889763779527559
20
1.9283464566929134
40
0.0068897637795276
0
CIRCLE
8
WHITE
10
0.7897637795275591
20
2.0283464566929132
40
0.0068897637795276
0
CIRCLE
8
WHITE
10
0.7897637795275591
20
1.9283464566929134
40
0.0068897637795276
0
CIRCLE
8
WHITE
10
0.6897637795275591
20
2.0283464566929132
40
0.0068897637795276
0
CIRCLE
8
WHITE
10
0.6897637795275591
20
1.9283464566929134
40
0.0068897637795276
0
CIRCLE
8
WHITE
10
0.5897637795275591
20
2.0283464566929132
40
0.0068897637795276
0
CIRCLE
8
WHITE
10
0.5897637795275591
20
1.9283464566929134
40
0.0068897637795276
0
CIRCLE
8
WHITE
10
0.4897637795275591
20
2.0283464566929132
40
0.0068897637795276
0
CIRCLE
8
WHITE
10
0.4897637795275591
20
1.9283464566929134
40
0.0068897637795276
0
CIRCLE
8
WHITE
10
0.389763779527559
20
2.0283464566929132
40
0.0068897637795276
0
CIRCLE
8
WHITE
10
0.389763779527559
20
1.9283464566929134
40
0.0068897637795276
0
CIRCLE
8
WHITE
10
0.2897637795275591
20
2.0283464566929132
40
0.0068897637795276
0
CIRCLE
8
WHITE
10
0.2897637795275591
20
1.9283464566929134
40
0.0068897637795276
  0
ENDSEC
  0
EOF
