  0
SECTION
  2
HEADER
  9
$ANGBASE
  50
0.0
  9
$ANGDIR
  70
1
  9
$MEASUREMENT
  70
0
  0
ENDSEC
  0
SECTION
  2
TABLES
  0
TABLE
  2
LTYPE
  70
4
  0
LTYPE
  5
40F
  2
CONTINUOUS
  70
0
  3
Solid line
  72
65
  73
0
  40
0.0
  0
LTYPE
  5
410
  2
DASHDOT
 70
0
  3
Dash Dot ____ _ ____ _
 72
65
 73
4
 40
2.0
 49
1.25
 49
-0.25
 49
0.25
 49
-0.25
  0
LTYPE
  5
411
  2
DASHED
 70
0
  3
Dashed __ __ __ __ __
 72
65
 73
2
 40
0.75
 49
0.5
 49
-0.25
  0
LTYPE
  5
43B
  2
DOTTED
 70
0
  3
Dotted .  .  .  .
 72
65
 73
2
 40
0.2
 49
0.0
 49
-0.2
  0
ENDTAB
  0
TABLE
  2
STYLE
  70
4
  0
STYLE
  2
KICAD
  70
0
  40
0
  41
1
  42
1
  50
0
  71
0
  3
isocp.shx
  0
STYLE
  2
KICADB
  70
0
  40
0
  41
1
  42
1
  50
0
  71
0
  3
isocp.shx
  0
STYLE
  2
KICADI
  70
0
  40
0
  41
1
  42
1
  50
15
  71
0
  3
isocp.shx
  0
STYLE
  2
KICADBI
  70
0
  40
0
  41
1
  42
1
  50
15
  71
0
  3
isocp.shx
  0
ENDTAB
  0
TABLE
  2
LAYER
  70
1
  0
LAYER
  2
BLACK
  70
0
  62
7
  6
CONTINUOUS
  0
ENDTAB
  0
ENDSEC
  0
SECTION
  2
ENTITIES
0
LINE
8
BLACK
6
CONTINUOUS
10
0.7088241732283465
20
0.2256375590551181
11
0.7098895275590551
21
0.2245722047244094
0
LINE
8
BLACK
6
CONTINUOUS
10
0.7098895275590551
20
0.2245722047244094
11
0.7100393700787402
21
0.2238188976377953
0
LINE
8
BLACK
6
CONTINUOUS
10
0.7100393700787402
20
0.2238188976377953
11
0.7100393700787402
21
0.1312992125984252
0
LINE
8
BLACK
6
CONTINUOUS
10
0.7100393700787402
20
0.1312992125984252
11
0.7098895275590551
21
0.130545905511811
0
LINE
8
BLACK
6
CONTINUOUS
10
0.7098895275590551
20
0.130545905511811
11
0.7088241732283465
21
0.1294805511811024
0
LINE
8
BLACK
6
CONTINUOUS
10
0.7088241732283465
20
0.1294805511811024
11
0.7080708661417323
21
0.1293307086614173
0
LINE
8
BLACK
6
CONTINUOUS
10
0.7080708661417323
20
0.1293307086614173
11
0.4994094488188976
21
0.1293307086614173
0
LINE
8
BLACK
6
CONTINUOUS
10
0.4994094488188976
20
0.1293307086614173
11
0.4986561417322835
21
0.1294805511811024
0
LINE
8
BLACK
6
CONTINUOUS
10
0.4986561417322835
20
0.1294805511811024
11
0.4975907874015748
21
0.130545905511811
0
LINE
8
BLACK
6
CONTINUOUS
10
0.4975907874015748
20
0.130545905511811
11
0.4974409448818898
21
0.1312992125984252
0
LINE
8
BLACK
6
CONTINUOUS
10
0.4974409448818898
20
0.1312992125984252
11
0.4974409448818898
21
0.2238188976377953
0
LINE
8
BLACK
6
CONTINUOUS
10
0.4974409448818898
20
0.2238188976377953
11
0.4975907874015748
21
0.2245722047244094
0
LINE
8
BLACK
6
CONTINUOUS
10
0.4975907874015748
20
0.2245722047244094
11
0.4986561417322835
21
0.2256375590551181
0
LINE
8
BLACK
6
CONTINUOUS
10
0.4986561417322835
20
0.2256375590551181
11
0.4994094488188976
21
0.2257874015748031
0
LINE
8
BLACK
6
CONTINUOUS
10
0.4994094488188976
20
0.2257874015748031
11
0.7080708661417323
21
0.2257874015748031
0
LINE
8
BLACK
6
CONTINUOUS
10
0.7080708661417323
20
0.2257874015748031
11
0.7088241732283465
21
0.2256375590551181
0
LINE
8
BLACK
6
CONTINUOUS
10
0.5013779527559055
20
0.2218503937007874
11
0.5013779527559055
21
0.1332677165354331
0
LINE
8
BLACK
6
CONTINUOUS
10
0.5013779527559055
20
0.1332677165354331
11
0.7061023622047244
21
0.1332677165354331
0
LINE
8
BLACK
6
CONTINUOUS
10
0.7061023622047244
20
0.1332677165354331
11
0.7061023622047244
21
0.2218503937007874
0
LINE
8
BLACK
6
CONTINUOUS
10
0.7061023622047244
20
0.2218503937007874
11
0.5013779527559055
21
0.2218503937007874
0
LINE
8
BLACK
6
CONTINUOUS
10
0.7481942519685039
20
0.2846926771653543
11
0.7492596062992126
21
0.2836273228346456
0
LINE
8
BLACK
6
CONTINUOUS
10
0.7492596062992126
20
0.2836273228346456
11
0.7494094488188976
21
0.2828740157480315
0
LINE
8
BLACK
6
CONTINUOUS
10
0.7494094488188976
20
0.2828740157480315
11
0.7494094488188976
21
0.0919291338582677
0
LINE
8
BLACK
6
CONTINUOUS
10
0.7494094488188976
20
0.0919291338582677
11
0.7492596062992126
21
0.0911758267716535
0
LINE
8
BLACK
6
CONTINUOUS
10
0.7492596062992126
20
0.0911758267716535
11
0.7481942519685039
21
0.0901104724409449
0
LINE
8
BLACK
6
CONTINUOUS
10
0.7481942519685039
20
0.0901104724409449
11
0.7474409448818897
21
0.0899606299212598
0
LINE
8
BLACK
6
CONTINUOUS
10
0.7474409448818897
20
0.0899606299212598
11
0.4600393700787401
21
0.0899606299212598
0
LINE
8
BLACK
6
CONTINUOUS
10
0.4600393700787401
20
0.0899606299212598
11
0.459286062992126
21
0.0901104724409449
0
LINE
8
BLACK
6
CONTINUOUS
10
0.459286062992126
20
0.0901104724409449
11
0.4582207086614173
21
0.0911758267716535
0
LINE
8
BLACK
6
CONTINUOUS
10
0.4582207086614173
20
0.0911758267716535
11
0.4580708661417323
21
0.0919291338582677
0
LINE
8
BLACK
6
CONTINUOUS
10
0.4580708661417323
20
0.0919291338582677
11
0.4580708661417323
21
0.2828740157480315
0
LINE
8
BLACK
6
CONTINUOUS
10
0.4580708661417323
20
0.2828740157480315
11
0.4582207086614173
21
0.2836273228346456
0
LINE
8
BLACK
6
CONTINUOUS
10
0.4582207086614173
20
0.2836273228346456
11
0.459286062992126
21
0.2846926771653543
0
LINE
8
BLACK
6
CONTINUOUS
10
0.459286062992126
20
0.2846926771653543
11
0.4600393700787401
21
0.2848425196850394
0
LINE
8
BLACK
6
CONTINUOUS
10
0.4600393700787401
20
0.2848425196850394
11
0.7474409448818897
21
0.2848425196850394
0
LINE
8
BLACK
6
CONTINUOUS
10
0.7474409448818897
20
0.2848425196850394
11
0.7481942519685039
21
0.2846926771653543
0
LINE
8
BLACK
6
CONTINUOUS
10
0.462007874015748
20
0.2809055118110236
11
0.462007874015748
21
0.0938976377952756
0
LINE
8
BLACK
6
CONTINUOUS
10
0.462007874015748
20
0.0938976377952756
11
0.7454724409448819
21
0.0938976377952756
0
LINE
8
BLACK
6
CONTINUOUS
10
0.7454724409448819
20
0.0938976377952756
11
0.7454724409448819
21
0.2809055118110236
0
LINE
8
BLACK
6
CONTINUOUS
10
0.7454724409448819
20
0.2809055118110236
11
0.462007874015748
21
0.2809055118110236
0
CIRCLE
8
BLACK
10
0.
20
1.2
40
0.0068897637795276
0
CIRCLE
8
BLACK
10
1.2
20
0.
40
0.0068897637795276
0
CIRCLE
8
BLACK
10
0.
20
0.
40
0.0068897637795276
0
CIRCLE
8
BLACK
10
1.2
20
1.2
40
0.0068897637795276
0
CIRCLE
8
BLACK
10
0.2897637795275591
20
1.1507874015748032
40
0.0068897637795276
0
CIRCLE
8
BLACK
10
0.2897637795275591
20
1.2507874015748031
40
0.0068897637795276
0
CIRCLE
8
BLACK
10
0.389763779527559
20
1.1507874015748032
40
0.0068897637795276
0
CIRCLE
8
BLACK
10
0.389763779527559
20
1.2507874015748031
40
0.0068897637795276
0
CIRCLE
8
BLACK
10
0.4897637795275591
20
1.1507874015748032
40
0.0068897637795276
0
CIRCLE
8
BLACK
10
0.4897637795275591
20
1.2507874015748031
40
0.0068897637795276
0
CIRCLE
8
BLACK
10
0.5897637795275591
20
1.1507874015748032
40
0.0068897637795276
0
CIRCLE
8
BLACK
10
0.5897637795275591
20
1.2507874015748031
40
0.0068897637795276
0
CIRCLE
8
BLACK
10
0.6897637795275591
20
1.1507874015748032
40
0.0068897637795276
0
CIRCLE
8
BLACK
10
0.6897637795275591
20
1.2507874015748031
40
0.0068897637795276
0
CIRCLE
8
BLACK
10
0.7897637795275591
20
1.1507874015748032
40
0.0068897637795276
0
CIRCLE
8
BLACK
10
0.7897637795275591
20
1.2507874015748031
40
0.0068897637795276
0
CIRCLE
8
BLACK
10
0.889763779527559
20
1.1507874015748032
40
0.0068897637795276
0
CIRCLE
8
BLACK
10
0.889763779527559
20
1.2507874015748031
40
0.0068897637795276
0
CIRCLE
8
BLACK
10
0.
20
1.2
40
0.0068897637795276
0
CIRCLE
8
BLACK
10
1.2
20
0.
40
0.0068897637795276
0
CIRCLE
8
BLACK
10
0.
20
0.
40
0.0068897637795276
0
CIRCLE
8
BLACK
10
1.2
20
1.2
40
0.0068897637795276
0
CIRCLE
8
BLACK
10
0.2897637795275591
20
1.1507874015748032
40
0.0068897637795276
0
CIRCLE
8
BLACK
10
0.2897637795275591
20
1.2507874015748031
40
0.0068897637795276
0
CIRCLE
8
BLACK
10
0.389763779527559
20
1.1507874015748032
40
0.0068897637795276
0
CIRCLE
8
BLACK
10
0.389763779527559
20
1.2507874015748031
40
0.0068897637795276
0
CIRCLE
8
BLACK
10
0.4897637795275591
20
1.1507874015748032
40
0.0068897637795276
0
CIRCLE
8
BLACK
10
0.4897637795275591
20
1.2507874015748031
40
0.0068897637795276
0
CIRCLE
8
BLACK
10
0.5897637795275591
20
1.1507874015748032
40
0.0068897637795276
0
CIRCLE
8
BLACK
10
0.5897637795275591
20
1.2507874015748031
40
0.0068897637795276
0
CIRCLE
8
BLACK
10
0.6897637795275591
20
1.1507874015748032
40
0.0068897637795276
0
CIRCLE
8
BLACK
10
0.6897637795275591
20
1.2507874015748031
40
0.0068897637795276
0
CIRCLE
8
BLACK
10
0.7897637795275591
20
1.1507874015748032
40
0.0068897637795276
0
CIRCLE
8
BLACK
10
0.7897637795275591
20
1.2507874015748031
40
0.0068897637795276
0
CIRCLE
8
BLACK
10
0.889763779527559
20
1.1507874015748032
40
0.0068897637795276
0
CIRCLE
8
BLACK
10
0.889763779527559
20
1.2507874015748031
40
0.0068897637795276
  0
ENDSEC
  0
EOF
