  0
SECTION
  2
HEADER
  9
$ANGBASE
  50
0.0
  9
$ANGDIR
  70
1
  9
$MEASUREMENT
  70
0
  0
ENDSEC
  0
SECTION
  2
TABLES
  0
TABLE
  2
LTYPE
  70
4
  0
LTYPE
  5
40F
  2
CONTINUOUS
  70
0
  3
Solid line
  72
65
  73
0
  40
0.0
  0
LTYPE
  5
410
  2
DASHDOT
 70
0
  3
Dash Dot ____ _ ____ _
 72
65
 73
4
 40
2.0
 49
1.25
 49
-0.25
 49
0.25
 49
-0.25
  0
LTYPE
  5
411
  2
DASHED
 70
0
  3
Dashed __ __ __ __ __
 72
65
 73
2
 40
0.75
 49
0.5
 49
-0.25
  0
LTYPE
  5
43B
  2
DOTTED
 70
0
  3
Dotted .  .  .  .
 72
65
 73
2
 40
0.2
 49
0.0
 49
-0.2
  0
ENDTAB
  0
TABLE
  2
STYLE
  70
4
  0
STYLE
  2
KICAD
  70
0
  40
0
  41
1
  42
1
  50
0
  71
0
  3
isocp.shx
  0
STYLE
  2
KICADB
  70
0
  40
0
  41
1
  42
1
  50
0
  71
0
  3
isocp.shx
  0
STYLE
  2
KICADI
  70
0
  40
0
  41
1
  42
1
  50
15
  71
0
  3
isocp.shx
  0
STYLE
  2
KICADBI
  70
0
  40
0
  41
1
  42
1
  50
15
  71
0
  3
isocp.shx
  0
ENDTAB
  0
TABLE
  2
LAYER
  70
1
  0
LAYER
  2
BLACK
  70
0
  62
7
  6
CONTINUOUS
  0
ENDTAB
  0
ENDSEC
  0
SECTION
  2
ENTITIES
0
LINE
8
BLACK
6
CONTINUOUS
10
0.4111894881889764
20
0.3732453937007874
11
0.4124679133858268
21
0.371966968503937
0
LINE
8
BLACK
6
CONTINUOUS
10
0.4124679133858268
20
0.371966968503937
11
0.4124679133858268
21
0.3701590157480315
0
LINE
8
BLACK
6
CONTINUOUS
10
0.4124679133858268
20
0.3701590157480315
11
0.4111894881889764
21
0.3688805905511811
0
LINE
8
BLACK
6
CONTINUOUS
10
0.4111894881889764
20
0.3688805905511811
11
0.4102855118110236
21
0.3687007874015748
0
LINE
8
BLACK
6
CONTINUOUS
10
0.4102855118110236
20
0.3687007874015748
11
0.3897144881889764
21
0.3687007874015748
0
LINE
8
BLACK
6
CONTINUOUS
10
0.3897144881889764
20
0.3687007874015748
11
0.3888105118110236
21
0.3688805905511811
0
LINE
8
BLACK
6
CONTINUOUS
10
0.3888105118110236
20
0.3688805905511811
11
0.3875320866141732
21
0.3701590157480315
0
LINE
8
BLACK
6
CONTINUOUS
10
0.3875320866141732
20
0.3701590157480315
11
0.3875320866141732
21
0.371966968503937
0
LINE
8
BLACK
6
CONTINUOUS
10
0.3875320866141732
20
0.371966968503937
11
0.3888105118110236
21
0.3732453937007874
0
LINE
8
BLACK
6
CONTINUOUS
10
0.3888105118110236
20
0.3732453937007874
11
0.3897144881889764
21
0.3734251968503937
0
LINE
8
BLACK
6
CONTINUOUS
10
0.3897144881889764
20
0.3734251968503937
11
0.4102855118110236
21
0.3734251968503937
0
LINE
8
BLACK
6
CONTINUOUS
10
0.4102855118110236
20
0.3734251968503937
11
0.4111894881889764
21
0.3732453937007874
0
LINE
8
BLACK
6
CONTINUOUS
10
0.4111894881889764
20
0.4311194094488189
11
0.4124679133858268
21
0.4298409842519685
0
LINE
8
BLACK
6
CONTINUOUS
10
0.4124679133858268
20
0.4298409842519685
11
0.4124679133858268
21
0.428033031496063
0
LINE
8
BLACK
6
CONTINUOUS
10
0.4124679133858268
20
0.428033031496063
11
0.4111894881889764
21
0.4267546062992126
0
LINE
8
BLACK
6
CONTINUOUS
10
0.4111894881889764
20
0.4267546062992126
11
0.4102855118110236
21
0.4265748031496063
0
LINE
8
BLACK
6
CONTINUOUS
10
0.4102855118110236
20
0.4265748031496063
11
0.3897144881889764
21
0.4265748031496063
0
LINE
8
BLACK
6
CONTINUOUS
10
0.3897144881889764
20
0.4265748031496063
11
0.3888105118110236
21
0.4267546062992126
0
LINE
8
BLACK
6
CONTINUOUS
10
0.3888105118110236
20
0.4267546062992126
11
0.3875320866141732
21
0.428033031496063
0
LINE
8
BLACK
6
CONTINUOUS
10
0.3875320866141732
20
0.428033031496063
11
0.3875320866141732
21
0.4298409842519685
0
LINE
8
BLACK
6
CONTINUOUS
10
0.3875320866141732
20
0.4298409842519685
11
0.3888105118110236
21
0.4311194094488189
0
LINE
8
BLACK
6
CONTINUOUS
10
0.3888105118110236
20
0.4311194094488189
11
0.3897144881889764
21
0.4312992125984252
0
LINE
8
BLACK
6
CONTINUOUS
10
0.3897144881889764
20
0.4312992125984252
11
0.4102855118110236
21
0.4312992125984252
0
LINE
8
BLACK
6
CONTINUOUS
10
0.4102855118110236
20
0.4312992125984252
11
0.4111894881889764
21
0.4311194094488189
0
LINE
8
BLACK
6
CONTINUOUS
10
0.3806016929133858
20
0.4905015748031496
11
0.3808909842519685
21
0.4905015748031496
0
LINE
8
BLACK
6
CONTINUOUS
10
0.3808909842519685
20
0.4905015748031496
11
0.381161062992126
21
0.4903897244094488
0
LINE
8
BLACK
6
CONTINUOUS
10
0.381161062992126
20
0.4903897244094488
11
0.3814477165354331
21
0.4903323622047244
0
LINE
8
BLACK
6
CONTINUOUS
10
0.3814477165354331
20
0.4903323622047244
11
0.3816880708661417
21
0.4901714173228346
0
LINE
8
BLACK
6
CONTINUOUS
10
0.3816880708661417
20
0.4901714173228346
11
0.3819553937007874
21
0.4900606692913386
0
LINE
8
BLACK
6
CONTINUOUS
10
0.3819553937007874
20
0.4900606692913386
11
0.3821620866141732
21
0.4898539763779527
0
LINE
8
BLACK
6
CONTINUOUS
10
0.3821620866141732
20
0.4898539763779527
11
0.382405
21
0.4896912992125984
0
LINE
8
BLACK
6
CONTINUOUS
10
0.382405
20
0.4896912992125984
11
0.3827679921259842
21
0.4892480708661417
0
LINE
8
BLACK
6
CONTINUOUS
10
0.3827679921259842
20
0.4892480708661417
11
0.3827700393700788
21
0.4892460236220472
0
LINE
8
BLACK
6
CONTINUOUS
10
0.3827700393700788
20
0.4892460236220472
11
0.3827703937007874
21
0.4892451574803149
0
LINE
8
BLACK
6
CONTINUOUS
10
0.3827703937007874
20
0.4892451574803149
11
0.3827717716535433
21
0.4892434645669291
0
LINE
8
BLACK
6
CONTINUOUS
10
0.3827717716535433
20
0.4892434645669291
11
0.3863590944881889
21
0.4838624409448819
0
LINE
8
BLACK
6
CONTINUOUS
10
0.3863590944881889
20
0.4838624409448819
11
0.3895630708661417
21
0.4806584645669291
0
LINE
8
BLACK
6
CONTINUOUS
10
0.3895630708661417
20
0.4806584645669291
11
0.3928840157480315
21
0.4789979921259843
0
LINE
8
BLACK
6
CONTINUOUS
10
0.3928840157480315
20
0.4789979921259843
11
0.3933738976377953
21
0.4786896456692913
0
LINE
8
BLACK
6
CONTINUOUS
10
0.3933738976377953
20
0.4786896456692913
11
0.3941287401574803
21
0.4778192519685039
0
LINE
8
BLACK
6
CONTINUOUS
10
0.3941287401574803
20
0.4778192519685039
11
0.3944930708661417
21
0.4767262992125984
0
LINE
8
BLACK
6
CONTINUOUS
10
0.3944930708661417
20
0.4767262992125984
11
0.3944114173228346
21
0.4755770866141732
0
LINE
8
BLACK
6
CONTINUOUS
10
0.3944114173228346
20
0.4755770866141732
11
0.3938961417322834
21
0.4745465748031496
0
LINE
8
BLACK
6
CONTINUOUS
10
0.3938961417322834
20
0.4745465748031496
11
0.3930257874015748
21
0.4737917322834646
0
LINE
8
BLACK
6
CONTINUOUS
10
0.3930257874015748
20
0.4737917322834646
11
0.3919327952755906
21
0.4734274015748031
0
LINE
8
BLACK
6
CONTINUOUS
10
0.3919327952755906
20
0.4734274015748031
11
0.3907835826771653
21
0.4735090551181102
0
LINE
8
BLACK
6
CONTINUOUS
10
0.3907835826771653
20
0.4735090551181102
11
0.3902429921259842
21
0.4737159448818897
0
LINE
8
BLACK
6
CONTINUOUS
10
0.3902429921259842
20
0.4737159448818897
11
0.3864934645669291
21
0.4755907086614173
0
LINE
8
BLACK
6
CONTINUOUS
10
0.3864934645669291
20
0.4755907086614173
11
0.3862456299212598
21
0.4757467322834645
0
LINE
8
BLACK
6
CONTINUOUS
10
0.3862456299212598
20
0.4757467322834645
11
0.3861735039370079
21
0.4757765748031496
0
LINE
8
BLACK
6
CONTINUOUS
10
0.3861735039370079
20
0.4757765748031496
11
0.3860923228346457
21
0.475843188976378
0
LINE
8
BLACK
6
CONTINUOUS
10
0.3860923228346457
20
0.475843188976378
11
0.3860035826771653
21
0.4758990551181102
0
LINE
8
BLACK
6
CONTINUOUS
10
0.3860035826771653
20
0.4758990551181102
11
0.3859524409448819
21
0.4759579921259842
0
LINE
8
BLACK
6
CONTINUOUS
10
0.3859524409448819
20
0.4759579921259842
11
0.385726062992126
21
0.4761438188976378
0
LINE
8
BLACK
6
CONTINUOUS
10
0.385726062992126
20
0.4761438188976378
11
0.3832676771653543
21
0.4786022047244095
0
LINE
8
BLACK
6
CONTINUOUS
10
0.3832676771653543
20
0.4786022047244095
11
0.3832676771653543
21
0.4511882283464567
0
LINE
8
BLACK
6
CONTINUOUS
10
0.3832676771653543
20
0.4511882283464567
11
0.3915635039370078
21
0.4511882283464567
0
LINE
8
BLACK
6
CONTINUOUS
10
0.3915635039370078
20
0.4511882283464567
11
0.3921395669291339
21
0.4511314960629921
0
LINE
8
BLACK
6
CONTINUOUS
10
0.3921395669291339
20
0.4511314960629921
11
0.3932039763779527
21
0.4506905905511811
0
LINE
8
BLACK
6
CONTINUOUS
10
0.3932039763779527
20
0.4506905905511811
11
0.3940186220472441
21
0.4498759448818898
0
LINE
8
BLACK
6
CONTINUOUS
10
0.3940186220472441
20
0.4498759448818898
11
0.3944595275590551
21
0.4488115354330708
0
LINE
8
BLACK
6
CONTINUOUS
10
0.3944595275590551
20
0.4488115354330708
11
0.3944595275590551
21
0.4476594094488189
0
LINE
8
BLACK
6
CONTINUOUS
10
0.3944595275590551
20
0.4476594094488189
11
0.3940186220472441
21
0.446595
0
LINE
8
BLACK
6
CONTINUOUS
10
0.3940186220472441
20
0.446595
11
0.3932039763779527
21
0.4457803543307087
0
LINE
8
BLACK
6
CONTINUOUS
10
0.3932039763779527
20
0.4457803543307087
11
0.3921395669291339
21
0.4453394488188976
0
LINE
8
BLACK
6
CONTINUOUS
10
0.3921395669291339
20
0.4453394488188976
11
0.3915635039370078
21
0.4452827165354331
0
LINE
8
BLACK
6
CONTINUOUS
10
0.3915635039370078
20
0.4452827165354331
11
0.3690663385826772
21
0.4452827165354331
0
LINE
8
BLACK
6
CONTINUOUS
10
0.3690663385826772
20
0.4452827165354331
11
0.3684902755905512
21
0.4453394488188976
0
LINE
8
BLACK
6
CONTINUOUS
10
0.3684902755905512
20
0.4453394488188976
11
0.3674258661417323
21
0.4457803543307087
0
LINE
8
BLACK
6
CONTINUOUS
10
0.3674258661417323
20
0.4457803543307087
11
0.3666112204724409
21
0.446595
0
LINE
8
BLACK
6
CONTINUOUS
10
0.3666112204724409
20
0.446595
11
0.3661703149606299
21
0.4476594094488189
0
LINE
8
BLACK
6
CONTINUOUS
10
0.3661703149606299
20
0.4476594094488189
11
0.3661703149606299
21
0.4488115354330708
0
LINE
8
BLACK
6
CONTINUOUS
10
0.3661703149606299
20
0.4488115354330708
11
0.3666112204724409
21
0.4498759448818898
0
LINE
8
BLACK
6
CONTINUOUS
10
0.3666112204724409
20
0.4498759448818898
11
0.3674258661417323
21
0.4506905905511811
0
LINE
8
BLACK
6
CONTINUOUS
10
0.3674258661417323
20
0.4506905905511811
11
0.3684902755905512
21
0.4511314960629921
0
LINE
8
BLACK
6
CONTINUOUS
10
0.3684902755905512
20
0.4511314960629921
11
0.3690663385826772
21
0.4511882283464567
0
LINE
8
BLACK
6
CONTINUOUS
10
0.3690663385826772
20
0.4511882283464567
11
0.3773621653543307
21
0.4511882283464567
0
LINE
8
BLACK
6
CONTINUOUS
10
0.3773621653543307
20
0.4511882283464567
11
0.3773621653543307
21
0.4876055511811023
0
LINE
8
BLACK
6
CONTINUOUS
10
0.3773621653543307
20
0.4876055511811023
11
0.3773623622047244
21
0.4876076377952756
0
LINE
8
BLACK
6
CONTINUOUS
10
0.3773623622047244
20
0.4876076377952756
11
0.3773621653543307
21
0.4876086614173228
0
LINE
8
BLACK
6
CONTINUOUS
10
0.3773621653543307
20
0.4876086614173228
11
0.3773627559055118
21
0.4876116929133858
0
LINE
8
BLACK
6
CONTINUOUS
10
0.3773627559055118
20
0.4876116929133858
11
0.3774188976377953
21
0.4881816141732284
0
LINE
8
BLACK
6
CONTINUOUS
10
0.3774188976377953
20
0.4881816141732284
11
0.3775307480314961
21
0.4884517322834646
0
LINE
8
BLACK
6
CONTINUOUS
10
0.3775307480314961
20
0.4884517322834646
11
0.3775881102362205
21
0.4887383464566929
0
LINE
8
BLACK
6
CONTINUOUS
10
0.3775881102362205
20
0.4887383464566929
11
0.3777490551181102
21
0.4889787401574803
0
LINE
8
BLACK
6
CONTINUOUS
10
0.3777490551181102
20
0.4889787401574803
11
0.3778598031496063
21
0.4892460236220472
0
LINE
8
BLACK
6
CONTINUOUS
10
0.3778598031496063
20
0.4892460236220472
11
0.3780664960629921
21
0.4894527559055118
0
LINE
8
BLACK
6
CONTINUOUS
10
0.3780664960629921
20
0.4894527559055118
11
0.3782291732283464
21
0.4896956299212598
0
LINE
8
BLACK
6
CONTINUOUS
10
0.3782291732283464
20
0.4896956299212598
11
0.3784698818897638
21
0.4898561417322835
0
LINE
8
BLACK
6
CONTINUOUS
10
0.3784698818897638
20
0.4898561417322835
11
0.3786744488188976
21
0.4900606692913386
0
LINE
8
BLACK
6
CONTINUOUS
10
0.3786744488188976
20
0.4900606692913386
11
0.3789445275590551
21
0.4901725590551181
0
LINE
8
BLACK
6
CONTINUOUS
10
0.3789445275590551
20
0.4901725590551181
11
0.3791877952755905
21
0.4903347244094488
0
LINE
8
BLACK
6
CONTINUOUS
10
0.3791877952755905
20
0.4903347244094488
11
0.3794715748031496
21
0.4903908661417323
0
LINE
8
BLACK
6
CONTINUOUS
10
0.3794715748031496
20
0.4903908661417323
11
0.3797388582677165
21
0.4905015748031496
0
LINE
8
BLACK
6
CONTINUOUS
10
0.3797388582677165
20
0.4905015748031496
11
0.3800312598425197
21
0.4905015748031496
0
LINE
8
BLACK
6
CONTINUOUS
10
0.3800312598425197
20
0.4905015748031496
11
0.380318031496063
21
0.4905583070866142
0
LINE
8
BLACK
6
CONTINUOUS
10
0.380318031496063
20
0.4905583070866142
11
0.3806016929133858
21
0.4905015748031496
0
LINE
8
BLACK
6
CONTINUOUS
10
0.4181017716535433
20
0.4905296062992126
11
0.4181795275590551
21
0.4905351181102362
0
LINE
8
BLACK
6
CONTINUOUS
10
0.4181795275590551
20
0.4905351181102362
11
0.4182817716535433
21
0.4905118897637795
0
LINE
8
BLACK
6
CONTINUOUS
10
0.4182817716535433
20
0.4905118897637795
11
0.4183862992125984
21
0.4905015748031496
0
LINE
8
BLACK
6
CONTINUOUS
10
0.4183862992125984
20
0.4905015748031496
11
0.4184583858267716
21
0.4904717322834646
0
LINE
8
BLACK
6
CONTINUOUS
10
0.4184583858267716
20
0.4904717322834646
11
0.4187439763779527
21
0.4904067716535433
0
LINE
8
BLACK
6
CONTINUOUS
10
0.4187439763779527
20
0.4904067716535433
11
0.4243682677165354
21
0.4885320078740157
0
LINE
8
BLACK
6
CONTINUOUS
10
0.4243682677165354
20
0.4885320078740157
11
0.424896811023622
21
0.4882960236220472
0
LINE
8
BLACK
6
CONTINUOUS
10
0.424896811023622
20
0.4882960236220472
11
0.4249769291338583
21
0.4882265354330709
0
LINE
8
BLACK
6
CONTINUOUS
10
0.4249769291338583
20
0.4882265354330709
11
0.425075
21
0.488185905511811
0
LINE
8
BLACK
6
CONTINUOUS
10
0.425075
20
0.488185905511811
11
0.4255224409448819
21
0.4878187007874016
0
LINE
8
BLACK
6
CONTINUOUS
10
0.4255224409448819
20
0.4878187007874016
11
0.429271968503937
21
0.4840691732283465
0
LINE
8
BLACK
6
CONTINUOUS
10
0.429271968503937
20
0.4840691732283465
11
0.4294577952755905
21
0.4838427952755905
0
LINE
8
BLACK
6
CONTINUOUS
10
0.4294577952755905
20
0.4838427952755905
11
0.4295167322834645
21
0.4837916535433071
0
LINE
8
BLACK
6
CONTINUOUS
10
0.4295167322834645
20
0.4837916535433071
11
0.4295725984251968
21
0.4837029133858268
0
LINE
8
BLACK
6
CONTINUOUS
10
0.4295725984251968
20
0.4837029133858268
11
0.4296392125984252
21
0.4836217322834646
0
LINE
8
BLACK
6
CONTINUOUS
10
0.4296392125984252
20
0.4836217322834646
11
0.4296690551181102
21
0.4835496062992126
0
LINE
8
BLACK
6
CONTINUOUS
10
0.4296690551181102
20
0.4835496062992126
11
0.4298250787401575
21
0.4833017716535433
0
LINE
8
BLACK
6
CONTINUOUS
10
0.4298250787401575
20
0.4833017716535433
11
0.431699842519685
21
0.4795522440944882
0
LINE
8
BLACK
6
CONTINUOUS
10
0.431699842519685
20
0.4795522440944882
11
0.4317159448818897
21
0.4795101574803149
0
LINE
8
BLACK
6
CONTINUOUS
10
0.4317159448818897
20
0.4795101574803149
11
0.4317286614173228
21
0.4794929921259842
0
LINE
8
BLACK
6
CONTINUOUS
10
0.4317286614173228
20
0.4794929921259842
11
0.4318147244094488
21
0.4792520866141732
0
LINE
8
BLACK
6
CONTINUOUS
10
0.4318147244094488
20
0.4792520866141732
11
0.4319067322834645
21
0.4790116535433071
0
LINE
8
BLACK
6
CONTINUOUS
10
0.4319067322834645
20
0.4790116535433071
11
0.4319082283464567
21
0.4789903937007874
0
LINE
8
BLACK
6
CONTINUOUS
10
0.4319082283464567
20
0.4789903937007874
11
0.4319234251968504
21
0.478947874015748
0
LINE
8
BLACK
6
CONTINUOUS
10
0.4319234251968504
20
0.478947874015748
11
0.433798188976378
21
0.4714488188976378
0
LINE
8
BLACK
6
CONTINUOUS
10
0.433798188976378
20
0.4714488188976378
11
0.4338129527559055
21
0.4713489763779528
0
LINE
8
BLACK
6
CONTINUOUS
10
0.4338129527559055
20
0.4713489763779528
11
0.4338296062992126
21
0.4713087401574803
0
LINE
8
BLACK
6
CONTINUOUS
10
0.4338296062992126
20
0.4713087401574803
11
0.4338509448818897
21
0.4710917322834646
0
LINE
8
BLACK
6
CONTINUOUS
10
0.4338509448818897
20
0.4710917322834646
11
0.4338828346456693
21
0.4708762204724409
0
LINE
8
BLACK
6
CONTINUOUS
10
0.4338828346456693
20
0.4708762204724409
11
0.4338764173228347
21
0.4708332283464567
0
LINE
8
BLACK
6
CONTINUOUS
10
0.4338764173228347
20
0.4708332283464567
11
0.4338863385826772
21
0.4707326771653543
0
LINE
8
BLACK
6
CONTINUOUS
10
0.4338863385826772
20
0.4707326771653543
11
0.4338863385826772
21
0.4651083858267717
0
LINE
8
BLACK
6
CONTINUOUS
10
0.4338863385826772
20
0.4651083858267717
11
0.4338764173228347
21
0.465007874015748
0
LINE
8
BLACK
6
CONTINUOUS
10
0.4338764173228347
20
0.465007874015748
11
0.4338828346456693
21
0.464964842519685
0
LINE
8
BLACK
6
CONTINUOUS
10
0.4338828346456693
20
0.464964842519685
11
0.4338509448818897
21
0.4647493700787401
0
LINE
8
BLACK
6
CONTINUOUS
10
0.4338509448818897
20
0.4647493700787401
11
0.4338296062992126
21
0.4645323228346457
0
LINE
8
BLACK
6
CONTINUOUS
10
0.4338296062992126
20
0.4645323228346457
11
0.4338129527559055
21
0.4644921259842519
0
LINE
8
BLACK
6
CONTINUOUS
10
0.4338129527559055
20
0.4644921259842519
11
0.433798188976378
21
0.4643922440944882
0
LINE
8
BLACK
6
CONTINUOUS
10
0.433798188976378
20
0.4643922440944882
11
0.4319234251968504
21
0.4568931889763779
0
LINE
8
BLACK
6
CONTINUOUS
10
0.4319234251968504
20
0.4568931889763779
11
0.4319082283464567
21
0.4568507086614173
0
LINE
8
BLACK
6
CONTINUOUS
10
0.4319082283464567
20
0.4568507086614173
11
0.4319067322834645
21
0.4568294094488189
0
LINE
8
BLACK
6
CONTINUOUS
10
0.4319067322834645
20
0.4568294094488189
11
0.4318149606299213
21
0.4565896850393701
0
LINE
8
BLACK
6
CONTINUOUS
10
0.4318149606299213
20
0.4565896850393701
11
0.4317286614173228
21
0.4563480708661417
0
LINE
8
BLACK
6
CONTINUOUS
10
0.4317286614173228
20
0.4563480708661417
11
0.4317159448818897
21
0.4563309448818897
0
LINE
8
BLACK
6
CONTINUOUS
10
0.4317159448818897
20
0.4563309448818897
11
0.431699842519685
21
0.4562888188976378
0
LINE
8
BLACK
6
CONTINUOUS
10
0.431699842519685
20
0.4562888188976378
11
0.4298250787401575
21
0.4525392913385827
0
LINE
8
BLACK
6
CONTINUOUS
10
0.4298250787401575
20
0.4525392913385827
11
0.4296690157480315
21
0.4522914173228346
0
LINE
8
BLACK
6
CONTINUOUS
10
0.4296690157480315
20
0.4522914173228346
11
0.4296392125984252
21
0.4522193700787401
0
LINE
8
BLACK
6
CONTINUOUS
10
0.4296392125984252
20
0.4522193700787401
11
0.4295726771653543
21
0.4521383464566929
0
LINE
8
BLACK
6
CONTINUOUS
10
0.4295726771653543
20
0.4521383464566929
11
0.4295167322834645
21
0.4520494094488189
0
LINE
8
BLACK
6
CONTINUOUS
10
0.4295167322834645
20
0.4520494094488189
11
0.4294577165354331
21
0.4519982677165354
0
LINE
8
BLACK
6
CONTINUOUS
10
0.4294577165354331
20
0.4519982677165354
11
0.4292720078740158
21
0.4517719291338583
0
LINE
8
BLACK
6
CONTINUOUS
10
0.4292720078740158
20
0.4517719291338583
11
0.4255224409448819
21
0.4480223228346457
0
LINE
8
BLACK
6
CONTINUOUS
10
0.4255224409448819
20
0.4480223228346457
11
0.425075
21
0.4476551181102362
0
LINE
8
BLACK
6
CONTINUOUS
10
0.425075
20
0.4476551181102362
11
0.4249769291338583
21
0.4476145275590551
0
LINE
8
BLACK
6
CONTINUOUS
10
0.4249769291338583
20
0.4476145275590551
11
0.424896811023622
21
0.447545
0
LINE
8
BLACK
6
CONTINUOUS
10
0.424896811023622
20
0.447545
11
0.4243682677165354
21
0.4473090157480315
0
LINE
8
BLACK
6
CONTINUOUS
10
0.4243682677165354
20
0.4473090157480315
11
0.4187439763779527
21
0.4454342519685039
0
LINE
8
BLACK
6
CONTINUOUS
10
0.4187439763779527
20
0.4454342519685039
11
0.4184583858267716
21
0.4453693307086614
0
LINE
8
BLACK
6
CONTINUOUS
10
0.4184583858267716
20
0.4453693307086614
11
0.4183862992125984
21
0.4453394488188976
0
LINE
8
BLACK
6
CONTINUOUS
10
0.4183862992125984
20
0.4453394488188976
11
0.4182817716535433
21
0.4453291732283464
0
LINE
8
BLACK
6
CONTINUOUS
10
0.4182817716535433
20
0.4453291732283464
11
0.4181795275590551
21
0.445305905511811
0
LINE
8
BLACK
6
CONTINUOUS
10
0.4181795275590551
20
0.445305905511811
11
0.4181017716535433
21
0.4453114566929134
0
LINE
8
BLACK
6
CONTINUOUS
10
0.4181017716535433
20
0.4453114566929134
11
0.4178102362204724
21
0.4452827165354331
0
LINE
8
BLACK
6
CONTINUOUS
10
0.4178102362204724
20
0.4452827165354331
11
0.4140607086614173
21
0.4452827165354331
0
LINE
8
BLACK
6
CONTINUOUS
10
0.4140607086614173
20
0.4452827165354331
11
0.413769094488189
21
0.4453114566929134
0
LINE
8
BLACK
6
CONTINUOUS
10
0.413769094488189
20
0.4453114566929134
11
0.4136913779527559
21
0.445305905511811
0
LINE
8
BLACK
6
CONTINUOUS
10
0.4136913779527559
20
0.445305905511811
11
0.413589094488189
21
0.4453291732283464
0
LINE
8
BLACK
6
CONTINUOUS
10
0.413589094488189
20
0.4453291732283464
11
0.4134846456692913
21
0.4453394488188976
0
LINE
8
BLACK
6
CONTINUOUS
10
0.4134846456692913
20
0.4453394488188976
11
0.4134125590551181
21
0.4453693307086614
0
LINE
8
BLACK
6
CONTINUOUS
10
0.4134125590551181
20
0.4453693307086614
11
0.4131269291338582
21
0.4454342519685039
0
LINE
8
BLACK
6
CONTINUOUS
10
0.4131269291338582
20
0.4454342519685039
11
0.4075026771653543
21
0.4473090157480315
0
LINE
8
BLACK
6
CONTINUOUS
10
0.4075026771653543
20
0.4473090157480315
11
0.4069740944881889
21
0.447545
0
LINE
8
BLACK
6
CONTINUOUS
10
0.4069740944881889
20
0.447545
11
0.4068938976377953
21
0.4476145669291339
0
LINE
8
BLACK
6
CONTINUOUS
10
0.4068938976377953
20
0.4476145669291339
11
0.4067959448818897
21
0.4476551181102362
0
LINE
8
BLACK
6
CONTINUOUS
10
0.4067959448818897
20
0.4476551181102362
11
0.4063484645669291
21
0.4480223622047244
0
LINE
8
BLACK
6
CONTINUOUS
10
0.4063484645669291
20
0.4480223622047244
11
0.4044737007874016
21
0.4498971653543307
0
LINE
8
BLACK
6
CONTINUOUS
10
0.4044737007874016
20
0.4498971653543307
11
0.4041064960629921
21
0.4503446062992126
0
LINE
8
BLACK
6
CONTINUOUS
10
0.4041064960629921
20
0.4503446062992126
11
0.4036656299212598
21
0.4514090157480315
0
LINE
8
BLACK
6
CONTINUOUS
10
0.4036656299212598
20
0.4514090157480315
11
0.4036656299212598
21
0.4525611023622047
0
LINE
8
BLACK
6
CONTINUOUS
10
0.4036656299212598
20
0.4525611023622047
11
0.4041065354330708
21
0.4536255118110236
0
LINE
8
BLACK
6
CONTINUOUS
10
0.4041065354330708
20
0.4536255118110236
11
0.4049212204724409
21
0.4544401968503937
0
LINE
8
BLACK
6
CONTINUOUS
10
0.4049212204724409
20
0.4544401968503937
11
0.4059856299212599
21
0.454881062992126
0
LINE
8
BLACK
6
CONTINUOUS
10
0.4059856299212599
20
0.454881062992126
11
0.4071377165354331
21
0.454881062992126
0
LINE
8
BLACK
6
CONTINUOUS
10
0.4071377165354331
20
0.454881062992126
11
0.408202125984252
21
0.454440157480315
0
LINE
8
BLACK
6
CONTINUOUS
10
0.408202125984252
20
0.454440157480315
11
0.4086496062992126
21
0.4540729133858268
0
LINE
8
BLACK
6
CONTINUOUS
10
0.4086496062992126
20
0.4540729133858268
11
0.4100314566929134
21
0.4526910236220472
0
LINE
8
BLACK
6
CONTINUOUS
10
0.4100314566929134
20
0.4526910236220472
11
0.414539842519685
21
0.4511882283464567
0
LINE
8
BLACK
6
CONTINUOUS
10
0.414539842519685
20
0.4511882283464567
11
0.4173311023622047
21
0.4511882283464567
0
LINE
8
BLACK
6
CONTINUOUS
10
0.4173311023622047
20
0.4511882283464567
11
0.4218394881889764
21
0.452691062992126
0
LINE
8
BLACK
6
CONTINUOUS
10
0.4218394881889764
20
0.452691062992126
11
0.4247572834645669
21
0.4556088976377953
0
LINE
8
BLACK
6
CONTINUOUS
10
0.4247572834645669
20
0.4556088976377953
11
0.4262727952755905
21
0.4586398818897638
0
LINE
8
BLACK
6
CONTINUOUS
10
0.4262727952755905
20
0.4586398818897638
11
0.4279808267716536
21
0.4654719291338583
0
LINE
8
BLACK
6
CONTINUOUS
10
0.4279808267716536
20
0.4654719291338583
11
0.4279808267716536
21
0.4703691338582677
0
LINE
8
BLACK
6
CONTINUOUS
10
0.4279808267716536
20
0.4703691338582677
11
0.4262727952755905
21
0.4772011811023622
0
LINE
8
BLACK
6
CONTINUOUS
10
0.4262727952755905
20
0.4772011811023622
11
0.4247573228346457
21
0.4802321653543307
0
LINE
8
BLACK
6
CONTINUOUS
10
0.4247573228346457
20
0.4802321653543307
11
0.4218394881889764
21
0.48315
0
LINE
8
BLACK
6
CONTINUOUS
10
0.4218394881889764
20
0.48315
11
0.4173311023622047
21
0.4846527952755905
0
LINE
8
BLACK
6
CONTINUOUS
10
0.4173311023622047
20
0.4846527952755905
11
0.414539842519685
21
0.4846527952755905
0
LINE
8
BLACK
6
CONTINUOUS
10
0.414539842519685
20
0.4846527952755905
11
0.4100314566929134
21
0.48315
0
LINE
8
BLACK
6
CONTINUOUS
10
0.4100314566929134
20
0.48315
11
0.4086495669291338
21
0.4817681102362205
0
LINE
8
BLACK
6
CONTINUOUS
10
0.4086495669291338
20
0.4817681102362205
11
0.408202125984252
21
0.481400905511811
0
LINE
8
BLACK
6
CONTINUOUS
10
0.408202125984252
20
0.481400905511811
11
0.4071376771653543
21
0.48096
0
LINE
8
BLACK
6
CONTINUOUS
10
0.4071376771653543
20
0.48096
11
0.4059856299212599
21
0.48096
0
LINE
8
BLACK
6
CONTINUOUS
10
0.4059856299212599
20
0.48096
11
0.4049211811023622
21
0.481400905511811
0
LINE
8
BLACK
6
CONTINUOUS
10
0.4049211811023622
20
0.481400905511811
11
0.4041065354330708
21
0.4822155511811024
0
LINE
8
BLACK
6
CONTINUOUS
10
0.4041065354330708
20
0.4822155511811024
11
0.4036656299212598
21
0.48328
0
LINE
8
BLACK
6
CONTINUOUS
10
0.4036656299212598
20
0.48328
11
0.4036656299212598
21
0.4844320472440945
0
LINE
8
BLACK
6
CONTINUOUS
10
0.4036656299212598
20
0.4844320472440945
11
0.4041065354330708
21
0.4854964960629921
0
LINE
8
BLACK
6
CONTINUOUS
10
0.4041065354330708
20
0.4854964960629921
11
0.4044737401574803
21
0.485943937007874
0
LINE
8
BLACK
6
CONTINUOUS
10
0.4044737401574803
20
0.485943937007874
11
0.4063485039370079
21
0.4878187007874016
0
LINE
8
BLACK
6
CONTINUOUS
10
0.4063485039370079
20
0.4878187007874016
11
0.4067959448818897
21
0.488185905511811
0
LINE
8
BLACK
6
CONTINUOUS
10
0.4067959448818897
20
0.488185905511811
11
0.4068938976377953
21
0.4882264960629921
0
LINE
8
BLACK
6
CONTINUOUS
10
0.4068938976377953
20
0.4882264960629921
11
0.4069740944881889
21
0.4882960236220472
0
LINE
8
BLACK
6
CONTINUOUS
10
0.4069740944881889
20
0.4882960236220472
11
0.4075026771653543
21
0.4885320078740157
0
LINE
8
BLACK
6
CONTINUOUS
10
0.4075026771653543
20
0.4885320078740157
11
0.4131269291338582
21
0.4904067716535433
0
LINE
8
BLACK
6
CONTINUOUS
10
0.4131269291338582
20
0.4904067716535433
11
0.4134125590551181
21
0.4904717322834646
0
LINE
8
BLACK
6
CONTINUOUS
10
0.4134125590551181
20
0.4904717322834646
11
0.4134846456692913
21
0.4905015748031496
0
LINE
8
BLACK
6
CONTINUOUS
10
0.4134846456692913
20
0.4905015748031496
11
0.413589094488189
21
0.4905118897637795
0
LINE
8
BLACK
6
CONTINUOUS
10
0.413589094488189
20
0.4905118897637795
11
0.4136913779527559
21
0.4905351181102362
0
LINE
8
BLACK
6
CONTINUOUS
10
0.4136913779527559
20
0.4905351181102362
11
0.413769094488189
21
0.4905296062992126
0
LINE
8
BLACK
6
CONTINUOUS
10
0.413769094488189
20
0.4905296062992126
11
0.4140607086614173
21
0.4905583070866142
0
LINE
8
BLACK
6
CONTINUOUS
10
0.4140607086614173
20
0.4905583070866142
11
0.4178102362204724
21
0.4905583070866142
0
LINE
8
BLACK
6
CONTINUOUS
10
0.4178102362204724
20
0.4905583070866142
11
0.4181017716535433
21
0.4905296062992126
0
LINE
8
BLACK
6
CONTINUOUS
10
0.9347622440944882
20
0.7115469685039369
11
0.9360406692913386
21
0.7102685433070866
0
LINE
8
BLACK
6
CONTINUOUS
10
0.9360406692913386
20
0.7102685433070866
11
0.9362204724409449
21
0.7093645669291339
0
LINE
8
BLACK
6
CONTINUOUS
10
0.9362204724409449
20
0.7093645669291339
11
0.9362204724409449
21
0.5794433070866142
0
LINE
8
BLACK
6
CONTINUOUS
10
0.9362204724409449
20
0.5794433070866142
11
0.9360406692913386
21
0.5785393307086614
0
LINE
8
BLACK
6
CONTINUOUS
10
0.9360406692913386
20
0.5785393307086614
11
0.9347622440944882
21
0.577260905511811
0
LINE
8
BLACK
6
CONTINUOUS
10
0.9347622440944882
20
0.577260905511811
11
0.9338582677165355
21
0.5770811023622047
0
LINE
8
BLACK
6
CONTINUOUS
10
0.9338582677165355
20
0.5770811023622047
11
0.721259842519685
21
0.5770811023622047
0
LINE
8
BLACK
6
CONTINUOUS
10
0.721259842519685
20
0.5770811023622047
11
0.7203558661417323
21
0.577260905511811
0
LINE
8
BLACK
6
CONTINUOUS
10
0.7203558661417323
20
0.577260905511811
11
0.7190774409448819
21
0.5785393307086614
0
LINE
8
BLACK
6
CONTINUOUS
10
0.7190774409448819
20
0.5785393307086614
11
0.7190774409448819
21
0.5803472834645669
0
LINE
8
BLACK
6
CONTINUOUS
10
0.7190774409448819
20
0.5803472834645669
11
0.7203558661417323
21
0.5816257086614173
0
LINE
8
BLACK
6
CONTINUOUS
10
0.7203558661417323
20
0.5816257086614173
11
0.721259842519685
21
0.5818055118110236
0
LINE
8
BLACK
6
CONTINUOUS
10
0.721259842519685
20
0.5818055118110236
11
0.931496062992126
21
0.5818055118110236
0
LINE
8
BLACK
6
CONTINUOUS
10
0.931496062992126
20
0.5818055118110236
11
0.931496062992126
21
0.7070023622047243
0
LINE
8
BLACK
6
CONTINUOUS
10
0.931496062992126
20
0.7070023622047243
11
0.721259842519685
21
0.7070023622047243
0
LINE
8
BLACK
6
CONTINUOUS
10
0.721259842519685
20
0.7070023622047243
11
0.7203558661417323
21
0.7071821653543306
0
LINE
8
BLACK
6
CONTINUOUS
10
0.7203558661417323
20
0.7071821653543306
11
0.7190774409448819
21
0.708460590551181
0
LINE
8
BLACK
6
CONTINUOUS
10
0.7190774409448819
20
0.708460590551181
11
0.7190774409448819
21
0.7102685433070866
0
LINE
8
BLACK
6
CONTINUOUS
10
0.7190774409448819
20
0.7102685433070866
11
0.7203558661417323
21
0.7115469685039369
0
LINE
8
BLACK
6
CONTINUOUS
10
0.7203558661417323
20
0.7115469685039369
11
0.721259842519685
21
0.7117267716535433
0
LINE
8
BLACK
6
CONTINUOUS
10
0.721259842519685
20
0.7117267716535433
11
0.9338582677165355
21
0.7117267716535433
0
LINE
8
BLACK
6
CONTINUOUS
10
0.9338582677165355
20
0.7117267716535433
11
0.9347622440944882
21
0.7115469685039369
0
LINE
8
BLACK
6
CONTINUOUS
10
0.7806016929133858
20
0.7671889763779527
11
0.7808909842519685
21
0.7671889763779527
0
LINE
8
BLACK
6
CONTINUOUS
10
0.7808909842519685
20
0.7671889763779527
11
0.781161062992126
21
0.7670771259842519
0
LINE
8
BLACK
6
CONTINUOUS
10
0.781161062992126
20
0.7670771259842519
11
0.7814477165354331
21
0.7670197637795275
0
LINE
8
BLACK
6
CONTINUOUS
10
0.7814477165354331
20
0.7670197637795275
11
0.7816880708661417
21
0.7668588188976377
0
LINE
8
BLACK
6
CONTINUOUS
10
0.7816880708661417
20
0.7668588188976377
11
0.7819553937007874
21
0.7667480708661417
0
LINE
8
BLACK
6
CONTINUOUS
10
0.7819553937007874
20
0.7667480708661417
11
0.7821620866141732
21
0.7665413779527559
0
LINE
8
BLACK
6
CONTINUOUS
10
0.7821620866141732
20
0.7665413779527559
11
0.782405
21
0.7663787007874016
0
LINE
8
BLACK
6
CONTINUOUS
10
0.782405
20
0.7663787007874016
11
0.7827679921259842
21
0.7659354724409448
0
LINE
8
BLACK
6
CONTINUOUS
10
0.7827679921259842
20
0.7659354724409448
11
0.7827700393700787
21
0.7659334251968504
0
LINE
8
BLACK
6
CONTINUOUS
10
0.7827700393700787
20
0.7659334251968504
11
0.7827703937007874
21
0.7659325590551181
0
LINE
8
BLACK
6
CONTINUOUS
10
0.7827703937007874
20
0.7659325590551181
11
0.7827717716535433
21
0.7659308661417322
0
LINE
8
BLACK
6
CONTINUOUS
10
0.7827717716535433
20
0.7659308661417322
11
0.786359094488189
21
0.760549842519685
0
LINE
8
BLACK
6
CONTINUOUS
10
0.786359094488189
20
0.760549842519685
11
0.7895630708661417
21
0.7573458661417323
0
LINE
8
BLACK
6
CONTINUOUS
10
0.7895630708661417
20
0.7573458661417323
11
0.7928840157480315
21
0.7556853937007874
0
LINE
8
BLACK
6
CONTINUOUS
10
0.7928840157480315
20
0.7556853937007874
11
0.7933738976377953
21
0.7553770472440945
0
LINE
8
BLACK
6
CONTINUOUS
10
0.7933738976377953
20
0.7553770472440945
11
0.7941287401574803
21
0.754506653543307
0
LINE
8
BLACK
6
CONTINUOUS
10
0.7941287401574803
20
0.754506653543307
11
0.7944930708661417
21
0.7534137007874016
0
LINE
8
BLACK
6
CONTINUOUS
10
0.7944930708661417
20
0.7534137007874016
11
0.7944114173228346
21
0.7522644881889764
0
LINE
8
BLACK
6
CONTINUOUS
10
0.7944114173228346
20
0.7522644881889764
11
0.7938961417322834
21
0.7512339763779528
0
LINE
8
BLACK
6
CONTINUOUS
10
0.7938961417322834
20
0.7512339763779528
11
0.7930257874015748
21
0.7504791338582677
0
LINE
8
BLACK
6
CONTINUOUS
10
0.7930257874015748
20
0.7504791338582677
11
0.7919327952755906
21
0.7501148031496063
0
LINE
8
BLACK
6
CONTINUOUS
10
0.7919327952755906
20
0.7501148031496063
11
0.7907835826771653
21
0.7501964566929133
0
LINE
8
BLACK
6
CONTINUOUS
10
0.7907835826771653
20
0.7501964566929133
11
0.7902429921259843
21
0.7504033464566929
0
LINE
8
BLACK
6
CONTINUOUS
10
0.7902429921259843
20
0.7504033464566929
11
0.7864934645669291
21
0.7522781102362205
0
LINE
8
BLACK
6
CONTINUOUS
10
0.7864934645669291
20
0.7522781102362205
11
0.7862456299212598
21
0.7524341338582677
0
LINE
8
BLACK
6
CONTINUOUS
10
0.7862456299212598
20
0.7524341338582677
11
0.7861735039370079
21
0.7524639763779527
0
LINE
8
BLACK
6
CONTINUOUS
10
0.7861735039370079
20
0.7524639763779527
11
0.7860923228346457
21
0.7525305905511811
0
LINE
8
BLACK
6
CONTINUOUS
10
0.7860923228346457
20
0.7525305905511811
11
0.7860035826771653
21
0.7525864566929134
0
LINE
8
BLACK
6
CONTINUOUS
10
0.7860035826771653
20
0.7525864566929134
11
0.7859524409448819
21
0.7526453937007874
0
LINE
8
BLACK
6
CONTINUOUS
10
0.7859524409448819
20
0.7526453937007874
11
0.785726062992126
21
0.7528312204724409
0
LINE
8
BLACK
6
CONTINUOUS
10
0.785726062992126
20
0.7528312204724409
11
0.7832676771653543
21
0.7552896062992126
0
LINE
8
BLACK
6
CONTINUOUS
10
0.7832676771653543
20
0.7552896062992126
11
0.7832676771653543
21
0.7278756299212599
0
LINE
8
BLACK
6
CONTINUOUS
10
0.7832676771653543
20
0.7278756299212599
11
0.7915635039370078
21
0.7278756299212599
0
LINE
8
BLACK
6
CONTINUOUS
10
0.7915635039370078
20
0.7278756299212599
11
0.7921395669291338
21
0.7278188976377953
0
LINE
8
BLACK
6
CONTINUOUS
10
0.7921395669291338
20
0.7278188976377953
11
0.7932039763779527
21
0.7273779921259842
0
LINE
8
BLACK
6
CONTINUOUS
10
0.7932039763779527
20
0.7273779921259842
11
0.794018622047244
21
0.7265633464566928
0
LINE
8
BLACK
6
CONTINUOUS
10
0.794018622047244
20
0.7265633464566928
11
0.7944595275590551
21
0.725498937007874
0
LINE
8
BLACK
6
CONTINUOUS
10
0.7944595275590551
20
0.725498937007874
11
0.7944595275590551
21
0.7243468110236221
0
LINE
8
BLACK
6
CONTINUOUS
10
0.7944595275590551
20
0.7243468110236221
11
0.794018622047244
21
0.7232824015748032
0
LINE
8
BLACK
6
CONTINUOUS
10
0.794018622047244
20
0.7232824015748032
11
0.7932039763779527
21
0.7224677559055118
0
LINE
8
BLACK
6
CONTINUOUS
10
0.7932039763779527
20
0.7224677559055118
11
0.7921395669291338
21
0.7220268503937007
0
LINE
8
BLACK
6
CONTINUOUS
10
0.7921395669291338
20
0.7220268503937007
11
0.7915635039370078
21
0.7219701181102363
0
LINE
8
BLACK
6
CONTINUOUS
10
0.7915635039370078
20
0.7219701181102363
11
0.7690663385826771
21
0.7219701181102363
0
LINE
8
BLACK
6
CONTINUOUS
10
0.7690663385826771
20
0.7219701181102363
11
0.7684902755905512
21
0.7220268503937007
0
LINE
8
BLACK
6
CONTINUOUS
10
0.7684902755905512
20
0.7220268503937007
11
0.7674258661417322
21
0.7224677559055118
0
LINE
8
BLACK
6
CONTINUOUS
10
0.7674258661417322
20
0.7224677559055118
11
0.7666112204724409
21
0.7232824015748032
0
LINE
8
BLACK
6
CONTINUOUS
10
0.7666112204724409
20
0.7232824015748032
11
0.7661703149606299
21
0.7243468110236221
0
LINE
8
BLACK
6
CONTINUOUS
10
0.7661703149606299
20
0.7243468110236221
11
0.7661703149606299
21
0.725498937007874
0
LINE
8
BLACK
6
CONTINUOUS
10
0.7661703149606299
20
0.725498937007874
11
0.7666112204724409
21
0.7265633464566928
0
LINE
8
BLACK
6
CONTINUOUS
10
0.7666112204724409
20
0.7265633464566928
11
0.7674258661417322
21
0.7273779921259842
0
LINE
8
BLACK
6
CONTINUOUS
10
0.7674258661417322
20
0.7273779921259842
11
0.7684902755905512
21
0.7278188976377953
0
LINE
8
BLACK
6
CONTINUOUS
10
0.7684902755905512
20
0.7278188976377953
11
0.7690663385826771
21
0.7278756299212599
0
LINE
8
BLACK
6
CONTINUOUS
10
0.7690663385826771
20
0.7278756299212599
11
0.7773621653543307
21
0.7278756299212599
0
LINE
8
BLACK
6
CONTINUOUS
10
0.7773621653543307
20
0.7278756299212599
11
0.7773621653543307
21
0.7642929527559055
0
LINE
8
BLACK
6
CONTINUOUS
10
0.7773621653543307
20
0.7642929527559055
11
0.7773623622047244
21
0.7642950393700787
0
LINE
8
BLACK
6
CONTINUOUS
10
0.7773623622047244
20
0.7642950393700787
11
0.7773621653543307
21
0.7642960629921259
0
LINE
8
BLACK
6
CONTINUOUS
10
0.7773621653543307
20
0.7642960629921259
11
0.7773627559055118
21
0.764299094488189
0
LINE
8
BLACK
6
CONTINUOUS
10
0.7773627559055118
20
0.764299094488189
11
0.7774188976377953
21
0.7648690157480315
0
LINE
8
BLACK
6
CONTINUOUS
10
0.7774188976377953
20
0.7648690157480315
11
0.777530748031496
21
0.7651391338582677
0
LINE
8
BLACK
6
CONTINUOUS
10
0.777530748031496
20
0.7651391338582677
11
0.7775881102362204
21
0.7654257480314961
0
LINE
8
BLACK
6
CONTINUOUS
10
0.7775881102362204
20
0.7654257480314961
11
0.7777490551181102
21
0.7656661417322834
0
LINE
8
BLACK
6
CONTINUOUS
10
0.7777490551181102
20
0.7656661417322834
11
0.7778598031496062
21
0.7659334251968504
0
LINE
8
BLACK
6
CONTINUOUS
10
0.7778598031496062
20
0.7659334251968504
11
0.7780664960629922
21
0.7661401574803149
0
LINE
8
BLACK
6
CONTINUOUS
10
0.7780664960629922
20
0.7661401574803149
11
0.7782291732283464
21
0.766383031496063
0
LINE
8
BLACK
6
CONTINUOUS
10
0.7782291732283464
20
0.766383031496063
11
0.7784698818897637
21
0.7665435433070866
0
LINE
8
BLACK
6
CONTINUOUS
10
0.7784698818897637
20
0.7665435433070866
11
0.7786744488188976
21
0.7667480708661417
0
LINE
8
BLACK
6
CONTINUOUS
10
0.7786744488188976
20
0.7667480708661417
11
0.7789445275590551
21
0.7668599606299212
0
LINE
8
BLACK
6
CONTINUOUS
10
0.7789445275590551
20
0.7668599606299212
11
0.7791877952755906
21
0.7670221259842519
0
LINE
8
BLACK
6
CONTINUOUS
10
0.7791877952755906
20
0.7670221259842519
11
0.7794715748031495
21
0.7670782677165354
0
LINE
8
BLACK
6
CONTINUOUS
10
0.7794715748031495
20
0.7670782677165354
11
0.7797388582677165
21
0.7671889763779527
0
LINE
8
BLACK
6
CONTINUOUS
10
0.7797388582677165
20
0.7671889763779527
11
0.7800312598425196
21
0.7671889763779527
0
LINE
8
BLACK
6
CONTINUOUS
10
0.7800312598425196
20
0.7671889763779527
11
0.7803180314960629
21
0.7672457086614173
0
LINE
8
BLACK
6
CONTINUOUS
10
0.7803180314960629
20
0.7672457086614173
11
0.7806016929133858
21
0.7671889763779527
0
LINE
8
BLACK
6
CONTINUOUS
10
0.8296348818897638
20
0.7671889763779527
11
0.8306992913385827
21
0.7667480708661417
0
LINE
8
BLACK
6
CONTINUOUS
10
0.8306992913385827
20
0.7667480708661417
11
0.831513937007874
21
0.7659334251968504
0
LINE
8
BLACK
6
CONTINUOUS
10
0.831513937007874
20
0.7659334251968504
11
0.831954842519685
21
0.7648690157480315
0
LINE
8
BLACK
6
CONTINUOUS
10
0.831954842519685
20
0.7648690157480315
11
0.8320115748031496
21
0.7642929527559055
0
LINE
8
BLACK
6
CONTINUOUS
10
0.8320115748031496
20
0.7642929527559055
11
0.8320115748031496
21
0.7249228740157481
0
LINE
8
BLACK
6
CONTINUOUS
10
0.8320115748031496
20
0.7249228740157481
11
0.831954842519685
21
0.7243468110236221
0
LINE
8
BLACK
6
CONTINUOUS
10
0.831954842519685
20
0.7243468110236221
11
0.831513937007874
21
0.7232824015748032
0
LINE
8
BLACK
6
CONTINUOUS
10
0.831513937007874
20
0.7232824015748032
11
0.8306992913385827
21
0.7224677559055118
0
LINE
8
BLACK
6
CONTINUOUS
10
0.8306992913385827
20
0.7224677559055118
11
0.8296348818897638
21
0.7220268503937007
0
LINE
8
BLACK
6
CONTINUOUS
10
0.8296348818897638
20
0.7220268503937007
11
0.8290588188976378
21
0.7219701181102363
0
LINE
8
BLACK
6
CONTINUOUS
10
0.8290588188976378
20
0.7219701181102363
11
0.819685
21
0.7219701181102363
0
LINE
8
BLACK
6
CONTINUOUS
10
0.819685
20
0.7219701181102363
11
0.8193933858267717
21
0.7219988582677165
0
LINE
8
BLACK
6
CONTINUOUS
10
0.8193933858267717
20
0.7219988582677165
11
0.8193156692913386
21
0.7219933070866141
0
LINE
8
BLACK
6
CONTINUOUS
10
0.8193156692913386
20
0.7219933070866141
11
0.8192133858267716
21
0.7220165748031496
0
LINE
8
BLACK
6
CONTINUOUS
10
0.8192133858267716
20
0.7220165748031496
11
0.819108937007874
21
0.7220268503937007
0
LINE
8
BLACK
6
CONTINUOUS
10
0.819108937007874
20
0.7220268503937007
11
0.8190368503937008
21
0.7220567322834646
0
LINE
8
BLACK
6
CONTINUOUS
10
0.8190368503937008
20
0.7220567322834646
11
0.818751220472441
21
0.722121653543307
0
LINE
8
BLACK
6
CONTINUOUS
10
0.818751220472441
20
0.722121653543307
11
0.813126968503937
21
0.7239964173228346
0
LINE
8
BLACK
6
CONTINUOUS
10
0.813126968503937
20
0.7239964173228346
11
0.8125983858267717
21
0.7242324015748032
0
LINE
8
BLACK
6
CONTINUOUS
10
0.8125983858267717
20
0.7242324015748032
11
0.8125182677165355
21
0.7243018897637795
0
LINE
8
BLACK
6
CONTINUOUS
10
0.8125182677165355
20
0.7243018897637795
11
0.8124202362204724
21
0.7243424803149606
0
LINE
8
BLACK
6
CONTINUOUS
10
0.8124202362204724
20
0.7243424803149606
11
0.8119727952755905
21
0.7247097244094488
0
LINE
8
BLACK
6
CONTINUOUS
10
0.8119727952755905
20
0.7247097244094488
11
0.8082232677165354
21
0.7284592913385827
0
LINE
8
BLACK
6
CONTINUOUS
10
0.8082232677165354
20
0.7284592913385827
11
0.8080374803149606
21
0.7286856692913386
0
LINE
8
BLACK
6
CONTINUOUS
10
0.8080374803149606
20
0.7286856692913386
11
0.8079785039370079
21
0.728736811023622
0
LINE
8
BLACK
6
CONTINUOUS
10
0.8079785039370079
20
0.728736811023622
11
0.8079225196850394
21
0.728825748031496
0
LINE
8
BLACK
6
CONTINUOUS
10
0.8079225196850394
20
0.728825748031496
11
0.8078560236220472
21
0.7289067716535433
0
LINE
8
BLACK
6
CONTINUOUS
10
0.8078560236220472
20
0.7289067716535433
11
0.8078261811023622
21
0.7289788188976378
0
LINE
8
BLACK
6
CONTINUOUS
10
0.8078261811023622
20
0.7289788188976378
11
0.8076701574803149
21
0.7292266929133858
0
LINE
8
BLACK
6
CONTINUOUS
10
0.8076701574803149
20
0.7292266929133858
11
0.8057953937007873
21
0.7329762204724409
0
LINE
8
BLACK
6
CONTINUOUS
10
0.8057953937007873
20
0.7329762204724409
11
0.805779251968504
21
0.7330183464566929
0
LINE
8
BLACK
6
CONTINUOUS
10
0.805779251968504
20
0.7330183464566929
11
0.8057665748031496
21
0.7330354724409449
0
LINE
8
BLACK
6
CONTINUOUS
10
0.8057665748031496
20
0.7330354724409449
11
0.8056801181102362
21
0.7332774409448819
0
LINE
8
BLACK
6
CONTINUOUS
10
0.8056801181102362
20
0.7332774409448819
11
0.8055885039370079
21
0.7335168503937007
0
LINE
8
BLACK
6
CONTINUOUS
10
0.8055885039370079
20
0.7335168503937007
11
0.805586968503937
21
0.7335381102362205
0
LINE
8
BLACK
6
CONTINUOUS
10
0.805586968503937
20
0.7335381102362205
11
0.8055718110236221
21
0.7335805905511811
0
LINE
8
BLACK
6
CONTINUOUS
10
0.8055718110236221
20
0.7335805905511811
11
0.8036970472440945
21
0.7410796456692913
0
LINE
8
BLACK
6
CONTINUOUS
10
0.8036970472440945
20
0.7410796456692913
11
0.8036822440944882
21
0.7411795275590551
0
LINE
8
BLACK
6
CONTINUOUS
10
0.8036822440944882
20
0.7411795275590551
11
0.8036656299212598
21
0.7412197244094488
0
LINE
8
BLACK
6
CONTINUOUS
10
0.8036656299212598
20
0.7412197244094488
11
0.8036442519685039
21
0.7414367716535433
0
LINE
8
BLACK
6
CONTINUOUS
10
0.8036442519685039
20
0.7414367716535433
11
0.8036124015748032
21
0.7416522440944882
0
LINE
8
BLACK
6
CONTINUOUS
10
0.8036124015748032
20
0.7416522440944882
11
0.803618779527559
21
0.7416952755905512
0
LINE
8
BLACK
6
CONTINUOUS
10
0.803618779527559
20
0.7416952755905512
11
0.8036088976377953
21
0.7417957874015748
0
LINE
8
BLACK
6
CONTINUOUS
10
0.8036088976377953
20
0.7417957874015748
11
0.8036088976377953
21
0.7474200787401575
0
LINE
8
BLACK
6
CONTINUOUS
10
0.8036088976377953
20
0.7474200787401575
11
0.803618779527559
21
0.7475206299212598
0
LINE
8
BLACK
6
CONTINUOUS
10
0.803618779527559
20
0.7475206299212598
11
0.8036124015748032
21
0.747563622047244
0
LINE
8
BLACK
6
CONTINUOUS
10
0.8036124015748032
20
0.747563622047244
11
0.8036442519685039
21
0.7477791338582677
0
LINE
8
BLACK
6
CONTINUOUS
10
0.8036442519685039
20
0.7477791338582677
11
0.8036656299212598
21
0.7479961417322835
0
LINE
8
BLACK
6
CONTINUOUS
10
0.8036656299212598
20
0.7479961417322835
11
0.8036822440944882
21
0.7480363779527559
0
LINE
8
BLACK
6
CONTINUOUS
10
0.8036822440944882
20
0.7480363779527559
11
0.8036970472440945
21
0.7481362204724409
0
LINE
8
BLACK
6
CONTINUOUS
10
0.8036970472440945
20
0.7481362204724409
11
0.8055718110236221
21
0.7556352755905512
0
LINE
8
BLACK
6
CONTINUOUS
10
0.8055718110236221
20
0.7556352755905512
11
0.805586968503937
21
0.7556777952755905
0
LINE
8
BLACK
6
CONTINUOUS
10
0.805586968503937
20
0.7556777952755905
11
0.8055885039370079
21
0.7556990157480314
0
LINE
8
BLACK
6
CONTINUOUS
10
0.8055885039370079
20
0.7556990157480314
11
0.8056805118110236
21
0.7559394881889764
0
LINE
8
BLACK
6
CONTINUOUS
10
0.8056805118110236
20
0.7559394881889764
11
0.8057665748031496
21
0.7561803937007874
0
LINE
8
BLACK
6
CONTINUOUS
10
0.8057665748031496
20
0.7561803937007874
11
0.805779251968504
21
0.7561975590551181
0
LINE
8
BLACK
6
CONTINUOUS
10
0.805779251968504
20
0.7561975590551181
11
0.8057953937007873
21
0.7562396456692914
0
LINE
8
BLACK
6
CONTINUOUS
10
0.8057953937007873
20
0.7562396456692914
11
0.8076701574803149
21
0.7599891732283465
0
LINE
8
BLACK
6
CONTINUOUS
10
0.8076701574803149
20
0.7599891732283465
11
0.8078262204724409
21
0.7602372047244095
0
LINE
8
BLACK
6
CONTINUOUS
10
0.8078262204724409
20
0.7602372047244095
11
0.807856062992126
21
0.7603091338582677
0
LINE
8
BLACK
6
CONTINUOUS
10
0.807856062992126
20
0.7603091338582677
11
0.8079225196850394
21
0.7603901181102362
0
LINE
8
BLACK
6
CONTINUOUS
10
0.8079225196850394
20
0.7603901181102362
11
0.8079785039370079
21
0.7604790551181102
0
LINE
8
BLACK
6
CONTINUOUS
10
0.8079785039370079
20
0.7604790551181102
11
0.8080374803149606
21
0.7605302362204724
0
LINE
8
BLACK
6
CONTINUOUS
10
0.8080374803149606
20
0.7605302362204724
11
0.8082232677165354
21
0.7607565748031496
0
LINE
8
BLACK
6
CONTINUOUS
10
0.8082232677165354
20
0.7607565748031496
11
0.8119727952755905
21
0.7645061023622047
0
LINE
8
BLACK
6
CONTINUOUS
10
0.8119727952755905
20
0.7645061023622047
11
0.8124202362204724
21
0.7648733464566929
0
LINE
8
BLACK
6
CONTINUOUS
10
0.8124202362204724
20
0.7648733464566929
11
0.8125182677165355
21
0.7649139763779528
0
LINE
8
BLACK
6
CONTINUOUS
10
0.8125182677165355
20
0.7649139763779528
11
0.8125983858267717
21
0.7649834251968504
0
LINE
8
BLACK
6
CONTINUOUS
10
0.8125983858267717
20
0.7649834251968504
11
0.813126968503937
21
0.7652194094488188
0
LINE
8
BLACK
6
CONTINUOUS
10
0.813126968503937
20
0.7652194094488188
11
0.818751220472441
21
0.7670941732283464
0
LINE
8
BLACK
6
CONTINUOUS
10
0.818751220472441
20
0.7670941732283464
11
0.8190368503937008
21
0.7671591338582677
0
LINE
8
BLACK
6
CONTINUOUS
10
0.8190368503937008
20
0.7671591338582677
11
0.819108937007874
21
0.7671889763779527
0
LINE
8
BLACK
6
CONTINUOUS
10
0.819108937007874
20
0.7671889763779527
11
0.8192133858267716
21
0.7671992913385827
0
LINE
8
BLACK
6
CONTINUOUS
10
0.8192133858267716
20
0.7671992913385827
11
0.8193156692913386
21
0.7672225196850394
0
LINE
8
BLACK
6
CONTINUOUS
10
0.8193156692913386
20
0.7672225196850394
11
0.8193933858267717
21
0.7672170078740157
0
LINE
8
BLACK
6
CONTINUOUS
10
0.8193933858267717
20
0.7672170078740157
11
0.819685
21
0.7672457086614173
0
LINE
8
BLACK
6
CONTINUOUS
10
0.819685
20
0.7672457086614173
11
0.8290588188976378
21
0.7672457086614173
0
LINE
8
BLACK
6
CONTINUOUS
10
0.8290588188976378
20
0.7672457086614173
11
0.8296348818897638
21
0.7671889763779527
0
LINE
8
BLACK
6
CONTINUOUS
10
0.8156557480314961
20
0.7598374015748032
11
0.8127379133858268
21
0.7569195669291339
0
LINE
8
BLACK
6
CONTINUOUS
10
0.8127379133858268
20
0.7569195669291339
11
0.8112224015748031
21
0.7538885826771653
0
LINE
8
BLACK
6
CONTINUOUS
10
0.8112224015748031
20
0.7538885826771653
11
0.8095144094488189
21
0.7470565354330708
0
LINE
8
BLACK
6
CONTINUOUS
10
0.8095144094488189
20
0.7470565354330708
11
0.8095144094488189
21
0.7421593307086614
0
LINE
8
BLACK
6
CONTINUOUS
10
0.8095144094488189
20
0.7421593307086614
11
0.8112224015748031
21
0.7353272834645669
0
LINE
8
BLACK
6
CONTINUOUS
10
0.8112224015748031
20
0.7353272834645669
11
0.8127379133858268
21
0.7322962992125984
0
LINE
8
BLACK
6
CONTINUOUS
10
0.8127379133858268
20
0.7322962992125984
11
0.8156557480314961
21
0.7293784251968504
0
LINE
8
BLACK
6
CONTINUOUS
10
0.8156557480314961
20
0.7293784251968504
11
0.8201641338582677
21
0.7278756299212599
0
LINE
8
BLACK
6
CONTINUOUS
10
0.8201641338582677
20
0.7278756299212599
11
0.826106062992126
21
0.7278756299212599
0
LINE
8
BLACK
6
CONTINUOUS
10
0.826106062992126
20
0.7278756299212599
11
0.826106062992126
21
0.7613401968503937
0
LINE
8
BLACK
6
CONTINUOUS
10
0.826106062992126
20
0.7613401968503937
11
0.8201641338582677
21
0.7613401968503937
0
LINE
8
BLACK
6
CONTINUOUS
10
0.8201641338582677
20
0.7613401968503937
11
0.8156557480314961
21
0.7598374015748032
0
LINE
8
BLACK
6
CONTINUOUS
10
0.4111894881889764
20
0.9909619291338583
11
0.4124679133858268
21
0.9896835039370079
0
LINE
8
BLACK
6
CONTINUOUS
10
0.4124679133858268
20
0.9896835039370079
11
0.4124679133858268
21
0.9878755511811024
0
LINE
8
BLACK
6
CONTINUOUS
10
0.4124679133858268
20
0.9878755511811024
11
0.4111894881889764
21
0.986597125984252
0
LINE
8
BLACK
6
CONTINUOUS
10
0.4111894881889764
20
0.986597125984252
11
0.4102855118110236
21
0.9864173228346457
0
LINE
8
BLACK
6
CONTINUOUS
10
0.4102855118110236
20
0.9864173228346457
11
0.3897144881889764
21
0.9864173228346457
0
LINE
8
BLACK
6
CONTINUOUS
10
0.3897144881889764
20
0.9864173228346457
11
0.3888105118110236
21
0.986597125984252
0
LINE
8
BLACK
6
CONTINUOUS
10
0.3888105118110236
20
0.986597125984252
11
0.3875320866141732
21
0.9878755511811024
0
LINE
8
BLACK
6
CONTINUOUS
10
0.3875320866141732
20
0.9878755511811024
11
0.3875320866141732
21
0.9896835039370079
0
LINE
8
BLACK
6
CONTINUOUS
10
0.3875320866141732
20
0.9896835039370079
11
0.3888105118110236
21
0.9909619291338583
0
LINE
8
BLACK
6
CONTINUOUS
10
0.3888105118110236
20
0.9909619291338583
11
0.3897144881889764
21
0.9911417322834646
0
LINE
8
BLACK
6
CONTINUOUS
10
0.3897144881889764
20
0.9911417322834646
11
0.4102855118110236
21
0.9911417322834646
0
LINE
8
BLACK
6
CONTINUOUS
10
0.4102855118110236
20
0.9911417322834646
11
0.4111894881889764
21
0.9909619291338583
0
LINE
8
BLACK
6
CONTINUOUS
10
0.4111894881889764
20
1.0488359448818898
11
0.4124679133858268
21
1.0475575196850393
0
LINE
8
BLACK
6
CONTINUOUS
10
0.4124679133858268
20
1.0475575196850393
11
0.4124679133858268
21
1.0457495669291339
0
LINE
8
BLACK
6
CONTINUOUS
10
0.4124679133858268
20
1.0457495669291339
11
0.4111894881889764
21
1.0444711417322834
0
LINE
8
BLACK
6
CONTINUOUS
10
0.4111894881889764
20
1.0444711417322834
11
0.4102855118110236
21
1.0442913385826771
0
LINE
8
BLACK
6
CONTINUOUS
10
0.4102855118110236
20
1.0442913385826771
11
0.3897144881889764
21
1.0442913385826771
0
LINE
8
BLACK
6
CONTINUOUS
10
0.3897144881889764
20
1.0442913385826771
11
0.3888105118110236
21
1.0444711417322834
0
LINE
8
BLACK
6
CONTINUOUS
10
0.3888105118110236
20
1.0444711417322834
11
0.3875320866141732
21
1.0457495669291339
0
LINE
8
BLACK
6
CONTINUOUS
10
0.3875320866141732
20
1.0457495669291339
11
0.3875320866141732
21
1.0475575196850393
0
LINE
8
BLACK
6
CONTINUOUS
10
0.3875320866141732
20
1.0475575196850393
11
0.3888105118110236
21
1.0488359448818898
0
LINE
8
BLACK
6
CONTINUOUS
10
0.3888105118110236
20
1.0488359448818898
11
0.3897144881889764
21
1.0490157480314961
0
LINE
8
BLACK
6
CONTINUOUS
10
0.3897144881889764
20
1.0490157480314961
11
0.4102855118110236
21
1.0490157480314961
0
LINE
8
BLACK
6
CONTINUOUS
10
0.4102855118110236
20
1.0490157480314961
11
0.4111894881889764
21
1.0488359448818898
0
LINE
8
BLACK
6
CONTINUOUS
10
0.3865152755905512
20
1.1082181102362205
11
0.3866132677165354
21
1.1081775196850394
0
LINE
8
BLACK
6
CONTINUOUS
10
0.3866132677165354
20
1.1081775196850394
11
0.386719094488189
21
1.1081699999999999
0
LINE
8
BLACK
6
CONTINUOUS
10
0.386719094488189
20
1.1081699999999999
11
0.3872597244094488
21
1.1079631102362204
0
LINE
8
BLACK
6
CONTINUOUS
10
0.3872597244094488
20
1.1079631102362204
11
0.3910092519685039
21
1.1060883464566929
0
LINE
8
BLACK
6
CONTINUOUS
10
0.3910092519685039
20
1.1060883464566929
11
0.3912572440944882
21
1.1059322834645668
0
LINE
8
BLACK
6
CONTINUOUS
10
0.3912572440944882
20
1.1059322834645668
11
0.3913292125984252
21
1.1059024409448819
0
LINE
8
BLACK
6
CONTINUOUS
10
0.3913292125984252
20
1.1059024409448819
11
0.3914101574803149
21
1.1058359842519685
0
LINE
8
BLACK
6
CONTINUOUS
10
0.3914101574803149
20
1.1058359842519685
11
0.3914991338582677
21
1.10578
0
LINE
8
BLACK
6
CONTINUOUS
10
0.3914991338582677
20
1.10578
11
0.3915502755905512
21
1.1057210236220472
0
LINE
8
BLACK
6
CONTINUOUS
10
0.3915502755905512
20
1.1057210236220472
11
0.3917766535433071
21
1.1055352362204725
0
LINE
8
BLACK
6
CONTINUOUS
10
0.3917766535433071
20
1.1055352362204725
11
0.3936514173228347
21
1.1036604724409449
0
LINE
8
BLACK
6
CONTINUOUS
10
0.3936514173228347
20
1.1036604724409449
11
0.3940186220472441
21
1.1032130314960629
0
LINE
8
BLACK
6
CONTINUOUS
10
0.3940186220472441
20
1.1032130314960629
11
0.3944595275590551
21
1.1021486220472441
0
LINE
8
BLACK
6
CONTINUOUS
10
0.3944595275590551
20
1.1021486220472441
11
0.3944595275590551
21
1.1009965354330709
0
LINE
8
BLACK
6
CONTINUOUS
10
0.3944595275590551
20
1.1009965354330709
11
0.3940186220472441
21
1.0999321259842521
0
LINE
8
BLACK
6
CONTINUOUS
10
0.3940186220472441
20
1.0999321259842521
11
0.393203937007874
21
1.0991174409448818
0
LINE
8
BLACK
6
CONTINUOUS
10
0.393203937007874
20
1.0991174409448818
11
0.3921395275590551
21
1.0986765354330708
0
LINE
8
BLACK
6
CONTINUOUS
10
0.3921395275590551
20
1.0986765354330708
11
0.3909874409448819
21
1.0986765354330708
0
LINE
8
BLACK
6
CONTINUOUS
10
0.3909874409448819
20
1.0986765354330708
11
0.389923031496063
21
1.0991174409448818
0
LINE
8
BLACK
6
CONTINUOUS
10
0.389923031496063
20
1.0991174409448818
11
0.3894755905511811
21
1.0994846456692913
0
LINE
8
BLACK
6
CONTINUOUS
10
0.3894755905511811
20
1.0994846456692913
11
0.3879396456692913
21
1.1010205905511812
0
LINE
8
BLACK
6
CONTINUOUS
10
0.3879396456692913
20
1.1010205905511812
11
0.3852421653543307
21
1.1023693307086615
0
LINE
8
BLACK
6
CONTINUOUS
10
0.3852421653543307
20
1.1023693307086615
11
0.3772624409448819
21
1.1023693307086615
0
LINE
8
BLACK
6
CONTINUOUS
10
0.3772624409448819
20
1.1023693307086615
11
0.3745649606299212
21
1.1010205905511812
0
LINE
8
BLACK
6
CONTINUOUS
10
0.3745649606299212
20
1.1010205905511812
11
0.3733678346456693
21
1.0998234645669291
0
LINE
8
BLACK
6
CONTINUOUS
10
0.3733678346456693
20
1.0998234645669291
11
0.372019094488189
21
1.0971259842519685
0
LINE
8
BLACK
6
CONTINUOUS
10
0.372019094488189
20
1.0971259842519685
11
0.372019094488189
21
1.0945526771653542
0
LINE
8
BLACK
6
CONTINUOUS
10
0.372019094488189
20
1.0945526771653542
11
0.3735218897637795
21
1.0900442519685039
0
LINE
8
BLACK
6
CONTINUOUS
10
0.3735218897637795
20
1.0900442519685039
11
0.3955261811023622
21
1.0680399212598426
0
LINE
8
BLACK
6
CONTINUOUS
10
0.3955261811023622
20
1.0680399212598426
11
0.3958934251968504
21
1.0675924803149606
0
LINE
8
BLACK
6
CONTINUOUS
10
0.3958934251968504
20
1.0675924803149606
11
0.3963342913385827
21
1.066528031496063
0
LINE
8
BLACK
6
CONTINUOUS
10
0.3963342913385827
20
1.066528031496063
11
0.3963342913385827
21
1.0653759448818898
0
LINE
8
BLACK
6
CONTINUOUS
10
0.3963342913385827
20
1.0653759448818898
11
0.3958933858267716
21
1.0643115354330708
0
LINE
8
BLACK
6
CONTINUOUS
10
0.3958933858267716
20
1.0643115354330708
11
0.3950787401574803
21
1.0634968503937008
0
LINE
8
BLACK
6
CONTINUOUS
10
0.3950787401574803
20
1.0634968503937008
11
0.394326062992126
21
1.0631851181102363
0
LINE
8
BLACK
6
CONTINUOUS
10
0.394326062992126
20
1.0631851181102363
11
0.3940143307086614
21
1.0630559842519685
0
LINE
8
BLACK
6
CONTINUOUS
10
0.3940143307086614
20
1.0630559842519685
11
0.3934382677165355
21
1.0629992519685039
0
LINE
8
BLACK
6
CONTINUOUS
10
0.3934382677165355
20
1.0629992519685039
11
0.3690663385826772
21
1.0629992519685039
0
LINE
8
BLACK
6
CONTINUOUS
10
0.3690663385826772
20
1.0629992519685039
11
0.3684902755905512
21
1.0630559842519685
0
LINE
8
BLACK
6
CONTINUOUS
10
0.3684902755905512
20
1.0630559842519685
11
0.3674258661417323
21
1.0634968897637795
0
LINE
8
BLACK
6
CONTINUOUS
10
0.3674258661417323
20
1.0634968897637795
11
0.3666112204724409
21
1.0643115354330708
0
LINE
8
BLACK
6
CONTINUOUS
10
0.3666112204724409
20
1.0643115354330708
11
0.3661703149606299
21
1.0653759448818898
0
LINE
8
BLACK
6
CONTINUOUS
10
0.3661703149606299
20
1.0653759448818898
11
0.3661703149606299
21
1.0665280708661418
0
LINE
8
BLACK
6
CONTINUOUS
10
0.3661703149606299
20
1.0665280708661418
11
0.3666112204724409
21
1.0675924803149606
0
LINE
8
BLACK
6
CONTINUOUS
10
0.3666112204724409
20
1.0675924803149606
11
0.3674258661417323
21
1.068407125984252
0
LINE
8
BLACK
6
CONTINUOUS
10
0.3674258661417323
20
1.068407125984252
11
0.3684902755905512
21
1.0688480314960629
0
LINE
8
BLACK
6
CONTINUOUS
10
0.3684902755905512
20
1.0688480314960629
11
0.3690663385826772
21
1.0689047637795275
0
LINE
8
BLACK
6
CONTINUOUS
10
0.3690663385826772
20
1.0689047637795275
11
0.3863096850393701
21
1.0689047637795275
0
LINE
8
BLACK
6
CONTINUOUS
10
0.3863096850393701
20
1.0689047637795275
11
0.3688531889763779
21
1.0863612992125984
0
LINE
8
BLACK
6
CONTINUOUS
10
0.3688531889763779
20
1.0863612992125984
11
0.3684859842519685
21
1.0868087401574802
0
LINE
8
BLACK
6
CONTINUOUS
10
0.3684859842519685
20
1.0868087401574802
11
0.3684453543307086
21
1.086906811023622
0
LINE
8
BLACK
6
CONTINUOUS
10
0.3684453543307086
20
1.086906811023622
11
0.3683758661417323
21
1.0869869291338583
0
LINE
8
BLACK
6
CONTINUOUS
10
0.3683758661417323
20
1.0869869291338583
11
0.3681398818897638
21
1.0875154724409448
0
LINE
8
BLACK
6
CONTINUOUS
10
0.3681398818897638
20
1.0875154724409448
11
0.3662651181102362
21
1.0931397637795275
0
LINE
8
BLACK
6
CONTINUOUS
10
0.3662651181102362
20
1.0931397637795275
11
0.3662001574803149
21
1.0934253543307086
0
LINE
8
BLACK
6
CONTINUOUS
10
0.3662001574803149
20
1.0934253543307086
11
0.3661703149606299
21
1.0934974409448819
0
LINE
8
BLACK
6
CONTINUOUS
10
0.3661703149606299
20
1.0934974409448819
11
0.36616
21
1.0936019685039369
0
LINE
8
BLACK
6
CONTINUOUS
10
0.36616
20
1.0936019685039369
11
0.3661367716535433
21
1.0937042125984251
0
LINE
8
BLACK
6
CONTINUOUS
10
0.3661367716535433
20
1.0937042125984251
11
0.3661422834645669
21
1.0937819685039369
0
LINE
8
BLACK
6
CONTINUOUS
10
0.3661422834645669
20
1.0937819685039369
11
0.3661135826771654
21
1.0940735039370078
0
LINE
8
BLACK
6
CONTINUOUS
10
0.3661135826771654
20
1.0940735039370078
11
0.3661135826771654
21
1.0978230314960629
0
LINE
8
BLACK
6
CONTINUOUS
10
0.3661135826771654
20
1.0978230314960629
11
0.3661703149606299
21
1.098399094488189
0
LINE
8
BLACK
6
CONTINUOUS
10
0.3661703149606299
20
1.098399094488189
11
0.366210905511811
21
1.098497125984252
0
LINE
8
BLACK
6
CONTINUOUS
10
0.366210905511811
20
1.098497125984252
11
0.3662184251968504
21
1.0986029133858268
0
LINE
8
BLACK
6
CONTINUOUS
10
0.3662184251968504
20
1.0986029133858268
11
0.3664253149606299
21
1.0991435433070866
0
LINE
8
BLACK
6
CONTINUOUS
10
0.3664253149606299
20
1.0991435433070866
11
0.3683000787401575
21
1.1028930708661417
0
LINE
8
BLACK
6
CONTINUOUS
10
0.3683000787401575
20
1.1028930708661417
11
0.3684561417322835
21
1.1031411023622046
0
LINE
8
BLACK
6
CONTINUOUS
10
0.3684561417322835
20
1.1031411023622046
11
0.3684859842519685
21
1.1032130314960629
0
LINE
8
BLACK
6
CONTINUOUS
10
0.3684859842519685
20
1.1032130314960629
11
0.3685524409448819
21
1.1032940157480315
0
LINE
8
BLACK
6
CONTINUOUS
10
0.3685524409448819
20
1.1032940157480315
11
0.3686084251968504
21
1.1033829527559056
0
LINE
8
BLACK
6
CONTINUOUS
10
0.3686084251968504
20
1.1033829527559056
11
0.3686674015748032
21
1.1034341338582676
0
LINE
8
BLACK
6
CONTINUOUS
10
0.3686674015748032
20
1.1034341338582676
11
0.3688531889763779
21
1.1036604724409449
0
LINE
8
BLACK
6
CONTINUOUS
10
0.3688531889763779
20
1.1036604724409449
11
0.3707279527559055
21
1.1055352362204725
0
LINE
8
BLACK
6
CONTINUOUS
10
0.3707279527559055
20
1.1055352362204725
11
0.3709542913385827
21
1.1057210236220472
0
LINE
8
BLACK
6
CONTINUOUS
10
0.3709542913385827
20
1.1057210236220472
11
0.3710054724409449
21
1.10578
0
LINE
8
BLACK
6
CONTINUOUS
10
0.3710054724409449
20
1.10578
11
0.3710944094488189
21
1.1058359842519685
0
LINE
8
BLACK
6
CONTINUOUS
10
0.3710944094488189
20
1.1058359842519685
11
0.3711753937007874
21
1.1059024409448819
0
LINE
8
BLACK
6
CONTINUOUS
10
0.3711753937007874
20
1.1059024409448819
11
0.3712473228346457
21
1.1059322834645668
0
LINE
8
BLACK
6
CONTINUOUS
10
0.3712473228346457
20
1.1059322834645668
11
0.3714953543307086
21
1.1060883464566929
0
LINE
8
BLACK
6
CONTINUOUS
10
0.3714953543307086
20
1.1060883464566929
11
0.3752448818897638
21
1.1079631102362204
0
LINE
8
BLACK
6
CONTINUOUS
10
0.3752448818897638
20
1.1079631102362204
11
0.3757854724409449
21
1.1081699999999999
0
LINE
8
BLACK
6
CONTINUOUS
10
0.3757854724409449
20
1.1081699999999999
11
0.3758913385826771
21
1.1081775590551182
0
LINE
8
BLACK
6
CONTINUOUS
10
0.3758913385826771
20
1.1081775590551182
11
0.3759893307086614
21
1.1082181102362205
0
LINE
8
BLACK
6
CONTINUOUS
10
0.3759893307086614
20
1.1082181102362205
11
0.3765653937007874
21
1.1082748425196851
0
LINE
8
BLACK
6
CONTINUOUS
10
0.3765653937007874
20
1.1082748425196851
11
0.3859392125984252
21
1.1082748425196851
0
LINE
8
BLACK
6
CONTINUOUS
10
0.3859392125984252
20
1.1082748425196851
11
0.3865152755905512
21
1.1082181102362205
0
LINE
8
BLACK
6
CONTINUOUS
10
0.4181017716535433
20
1.1082461417322835
11
0.4181795275590551
21
1.1082516535433071
0
LINE
8
BLACK
6
CONTINUOUS
10
0.4181795275590551
20
1.1082516535433071
11
0.4182817716535433
21
1.1082284251968504
0
LINE
8
BLACK
6
CONTINUOUS
10
0.4182817716535433
20
1.1082284251968504
11
0.4183862992125984
21
1.1082181102362205
0
LINE
8
BLACK
6
CONTINUOUS
10
0.4183862992125984
20
1.1082181102362205
11
0.4184583858267716
21
1.1081882677165353
0
LINE
8
BLACK
6
CONTINUOUS
10
0.4184583858267716
20
1.1081882677165353
11
0.4187439763779527
21
1.1081233070866141
0
LINE
8
BLACK
6
CONTINUOUS
10
0.4187439763779527
20
1.1081233070866141
11
0.4243682677165354
21
1.1062485433070866
0
LINE
8
BLACK
6
CONTINUOUS
10
0.4243682677165354
20
1.1062485433070866
11
0.424896811023622
21
1.1060125590551182
0
LINE
8
BLACK
6
CONTINUOUS
10
0.424896811023622
20
1.1060125590551182
11
0.4249769291338583
21
1.1059430708661417
0
LINE
8
BLACK
6
CONTINUOUS
10
0.4249769291338583
20
1.1059430708661417
11
0.425075
21
1.1059024409448819
0
LINE
8
BLACK
6
CONTINUOUS
10
0.425075
20
1.1059024409448819
11
0.4255224409448819
21
1.1055352362204725
0
LINE
8
BLACK
6
CONTINUOUS
10
0.4255224409448819
20
1.1055352362204725
11
0.429271968503937
21
1.1017857086614173
0
LINE
8
BLACK
6
CONTINUOUS
10
0.429271968503937
20
1.1017857086614173
11
0.4294577952755905
21
1.1015593307086613
0
LINE
8
BLACK
6
CONTINUOUS
10
0.4294577952755905
20
1.1015593307086613
11
0.4295167322834645
21
1.101508188976378
0
LINE
8
BLACK
6
CONTINUOUS
10
0.4295167322834645
20
1.101508188976378
11
0.4295725984251968
21
1.1014194488188975
0
LINE
8
BLACK
6
CONTINUOUS
10
0.4295725984251968
20
1.1014194488188975
11
0.4296392125984252
21
1.1013382677165353
0
LINE
8
BLACK
6
CONTINUOUS
10
0.4296392125984252
20
1.1013382677165353
11
0.4296690551181102
21
1.1012661417322835
0
LINE
8
BLACK
6
CONTINUOUS
10
0.4296690551181102
20
1.1012661417322835
11
0.4298250787401575
21
1.1010183070866142
0
LINE
8
BLACK
6
CONTINUOUS
10
0.4298250787401575
20
1.1010183070866142
11
0.431699842519685
21
1.0972687795275591
0
LINE
8
BLACK
6
CONTINUOUS
10
0.431699842519685
20
1.0972687795275591
11
0.4317159448818897
21
1.0972266929133858
0
LINE
8
BLACK
6
CONTINUOUS
10
0.4317159448818897
20
1.0972266929133858
11
0.4317286614173228
21
1.097209527559055
0
LINE
8
BLACK
6
CONTINUOUS
10
0.4317286614173228
20
1.097209527559055
11
0.4318149606299213
21
1.0969679527559055
0
LINE
8
BLACK
6
CONTINUOUS
10
0.4318149606299213
20
1.0969679527559055
11
0.4319067322834645
21
1.096728188976378
0
LINE
8
BLACK
6
CONTINUOUS
10
0.4319067322834645
20
1.096728188976378
11
0.4319082283464567
21
1.0967069291338583
0
LINE
8
BLACK
6
CONTINUOUS
10
0.4319082283464567
20
1.0967069291338583
11
0.4319234251968504
21
1.0966644094488189
0
LINE
8
BLACK
6
CONTINUOUS
10
0.4319234251968504
20
1.0966644094488189
11
0.433798188976378
21
1.0891653543307087
0
LINE
8
BLACK
6
CONTINUOUS
10
0.433798188976378
20
1.0891653543307087
11
0.4338129527559055
21
1.0890655118110235
0
LINE
8
BLACK
6
CONTINUOUS
10
0.4338129527559055
20
1.0890655118110235
11
0.4338296062992126
21
1.0890252755905512
0
LINE
8
BLACK
6
CONTINUOUS
10
0.4338296062992126
20
1.0890252755905512
11
0.4338509448818897
21
1.0888082677165354
0
LINE
8
BLACK
6
CONTINUOUS
10
0.4338509448818897
20
1.0888082677165354
11
0.4338828346456693
21
1.0885927559055117
0
LINE
8
BLACK
6
CONTINUOUS
10
0.4338828346456693
20
1.0885927559055117
11
0.4338764173228347
21
1.0885497637795276
0
LINE
8
BLACK
6
CONTINUOUS
10
0.4338764173228347
20
1.0885497637795276
11
0.4338863385826772
21
1.0884492125984251
0
LINE
8
BLACK
6
CONTINUOUS
10
0.4338863385826772
20
1.0884492125984251
11
0.4338863385826772
21
1.0828249212598424
0
LINE
8
BLACK
6
CONTINUOUS
10
0.4338863385826772
20
1.0828249212598424
11
0.4338764173228347
21
1.0827244094488189
0
LINE
8
BLACK
6
CONTINUOUS
10
0.4338764173228347
20
1.0827244094488189
11
0.4338828346456693
21
1.082681377952756
0
LINE
8
BLACK
6
CONTINUOUS
10
0.4338828346456693
20
1.082681377952756
11
0.4338509448818897
21
1.0824659055118111
0
LINE
8
BLACK
6
CONTINUOUS
10
0.4338509448818897
20
1.0824659055118111
11
0.4338296062992126
21
1.0822488582677166
0
LINE
8
BLACK
6
CONTINUOUS
10
0.4338296062992126
20
1.0822488582677166
11
0.4338129527559055
21
1.0822086614173227
0
LINE
8
BLACK
6
CONTINUOUS
10
0.4338129527559055
20
1.0822086614173227
11
0.433798188976378
21
1.082108779527559
0
LINE
8
BLACK
6
CONTINUOUS
10
0.433798188976378
20
1.082108779527559
11
0.4319234251968504
21
1.0746097244094488
0
LINE
8
BLACK
6
CONTINUOUS
10
0.4319234251968504
20
1.0746097244094488
11
0.4319082283464567
21
1.0745672440944882
0
LINE
8
BLACK
6
CONTINUOUS
10
0.4319082283464567
20
1.0745672440944882
11
0.4319067322834645
21
1.0745459448818897
0
LINE
8
BLACK
6
CONTINUOUS
10
0.4319067322834645
20
1.0745459448818897
11
0.4318149606299213
21
1.074306220472441
0
LINE
8
BLACK
6
CONTINUOUS
10
0.4318149606299213
20
1.074306220472441
11
0.4317286614173228
21
1.0740646062992125
0
LINE
8
BLACK
6
CONTINUOUS
10
0.4317286614173228
20
1.0740646062992125
11
0.4317159448818897
21
1.0740474803149607
0
LINE
8
BLACK
6
CONTINUOUS
10
0.4317159448818897
20
1.0740474803149607
11
0.431699842519685
21
1.0740053543307087
0
LINE
8
BLACK
6
CONTINUOUS
10
0.431699842519685
20
1.0740053543307087
11
0.4298250787401575
21
1.0702558267716535
0
LINE
8
BLACK
6
CONTINUOUS
10
0.4298250787401575
20
1.0702558267716535
11
0.4296690157480315
21
1.0700079527559054
0
LINE
8
BLACK
6
CONTINUOUS
10
0.4296690157480315
20
1.0700079527559054
11
0.4296392125984252
21
1.0699359055118109
0
LINE
8
BLACK
6
CONTINUOUS
10
0.4296392125984252
20
1.0699359055118109
11
0.4295726771653543
21
1.0698548818897637
0
LINE
8
BLACK
6
CONTINUOUS
10
0.4295726771653543
20
1.0698548818897637
11
0.4295167322834645
21
1.0697659448818897
0
LINE
8
BLACK
6
CONTINUOUS
10
0.4295167322834645
20
1.0697659448818897
11
0.4294577165354331
21
1.0697148031496062
0
LINE
8
BLACK
6
CONTINUOUS
10
0.4294577165354331
20
1.0697148031496062
11
0.4292720078740158
21
1.0694884645669291
0
LINE
8
BLACK
6
CONTINUOUS
10
0.4292720078740158
20
1.0694884645669291
11
0.4255224409448819
21
1.0657388582677165
0
LINE
8
BLACK
6
CONTINUOUS
10
0.4255224409448819
20
1.0657388582677165
11
0.425075
21
1.0653716535433071
0
LINE
8
BLACK
6
CONTINUOUS
10
0.425075
20
1.0653716535433071
11
0.4249769291338583
21
1.065331062992126
0
LINE
8
BLACK
6
CONTINUOUS
10
0.4249769291338583
20
1.065331062992126
11
0.424896811023622
21
1.0652615354330708
0
LINE
8
BLACK
6
CONTINUOUS
10
0.424896811023622
20
1.0652615354330708
11
0.4243682677165354
21
1.0650255511811024
0
LINE
8
BLACK
6
CONTINUOUS
10
0.4243682677165354
20
1.0650255511811024
11
0.4187439763779527
21
1.0631507874015749
0
LINE
8
BLACK
6
CONTINUOUS
10
0.4187439763779527
20
1.0631507874015749
11
0.4184583858267716
21
1.0630858661417322
0
LINE
8
BLACK
6
CONTINUOUS
10
0.4184583858267716
20
1.0630858661417322
11
0.4183862992125984
21
1.0630559842519685
0
LINE
8
BLACK
6
CONTINUOUS
10
0.4183862992125984
20
1.0630559842519685
11
0.4182817716535433
21
1.0630457086614173
0
LINE
8
BLACK
6
CONTINUOUS
10
0.4182817716535433
20
1.0630457086614173
11
0.4181795275590551
21
1.0630224409448819
0
LINE
8
BLACK
6
CONTINUOUS
10
0.4181795275590551
20
1.0630224409448819
11
0.4181017716535433
21
1.0630279921259842
0
LINE
8
BLACK
6
CONTINUOUS
10
0.4181017716535433
20
1.0630279921259842
11
0.4178102362204724
21
1.0629992519685039
0
LINE
8
BLACK
6
CONTINUOUS
10
0.4178102362204724
20
1.0629992519685039
11
0.4140607086614173
21
1.0629992519685039
0
LINE
8
BLACK
6
CONTINUOUS
10
0.4140607086614173
20
1.0629992519685039
11
0.413769094488189
21
1.0630279921259842
0
LINE
8
BLACK
6
CONTINUOUS
10
0.413769094488189
20
1.0630279921259842
11
0.4136913779527559
21
1.0630224409448819
0
LINE
8
BLACK
6
CONTINUOUS
10
0.4136913779527559
20
1.0630224409448819
11
0.413589094488189
21
1.0630457086614173
0
LINE
8
BLACK
6
CONTINUOUS
10
0.413589094488189
20
1.0630457086614173
11
0.4134846456692913
21
1.0630559842519685
0
LINE
8
BLACK
6
CONTINUOUS
10
0.4134846456692913
20
1.0630559842519685
11
0.4134125590551181
21
1.0630858661417322
0
LINE
8
BLACK
6
CONTINUOUS
10
0.4134125590551181
20
1.0630858661417322
11
0.4131269291338582
21
1.0631507874015749
0
LINE
8
BLACK
6
CONTINUOUS
10
0.4131269291338582
20
1.0631507874015749
11
0.4075026771653543
21
1.0650255511811024
0
LINE
8
BLACK
6
CONTINUOUS
10
0.4075026771653543
20
1.0650255511811024
11
0.4069740944881889
21
1.0652615354330708
0
LINE
8
BLACK
6
CONTINUOUS
10
0.4069740944881889
20
1.0652615354330708
11
0.4068938976377953
21
1.0653311023622047
0
LINE
8
BLACK
6
CONTINUOUS
10
0.4068938976377953
20
1.0653311023622047
11
0.4067959448818897
21
1.0653716535433071
0
LINE
8
BLACK
6
CONTINUOUS
10
0.4067959448818897
20
1.0653716535433071
11
0.4063484645669291
21
1.0657388976377953
0
LINE
8
BLACK
6
CONTINUOUS
10
0.4063484645669291
20
1.0657388976377953
11
0.4044737007874016
21
1.0676137007874016
0
LINE
8
BLACK
6
CONTINUOUS
10
0.4044737007874016
20
1.0676137007874016
11
0.4041064960629921
21
1.0680611417322834
0
LINE
8
BLACK
6
CONTINUOUS
10
0.4041064960629921
20
1.0680611417322834
11
0.4036656299212598
21
1.0691255511811024
0
LINE
8
BLACK
6
CONTINUOUS
10
0.4036656299212598
20
1.0691255511811024
11
0.4036656299212598
21
1.0702776377952756
0
LINE
8
BLACK
6
CONTINUOUS
10
0.4036656299212598
20
1.0702776377952756
11
0.4041065354330708
21
1.0713420472440944
0
LINE
8
BLACK
6
CONTINUOUS
10
0.4041065354330708
20
1.0713420472440944
11
0.4049212204724409
21
1.0721567322834646
0
LINE
8
BLACK
6
CONTINUOUS
10
0.4049212204724409
20
1.0721567322834646
11
0.4059856299212599
21
1.0725975984251968
0
LINE
8
BLACK
6
CONTINUOUS
10
0.4059856299212599
20
1.0725975984251968
11
0.4071377165354331
21
1.0725975984251968
0
LINE
8
BLACK
6
CONTINUOUS
10
0.4071377165354331
20
1.0725975984251968
11
0.408202125984252
21
1.0721566929133859
0
LINE
8
BLACK
6
CONTINUOUS
10
0.408202125984252
20
1.0721566929133859
11
0.4086496062992126
21
1.0717894488188977
0
LINE
8
BLACK
6
CONTINUOUS
10
0.4086496062992126
20
1.0717894488188977
11
0.4100314566929134
21
1.0704075590551181
0
LINE
8
BLACK
6
CONTINUOUS
10
0.4100314566929134
20
1.0704075590551181
11
0.414539842519685
21
1.0689047637795275
0
LINE
8
BLACK
6
CONTINUOUS
10
0.414539842519685
20
1.0689047637795275
11
0.4173311023622047
21
1.0689047637795275
0
LINE
8
BLACK
6
CONTINUOUS
10
0.4173311023622047
20
1.0689047637795275
11
0.4218394881889764
21
1.0704075984251968
0
LINE
8
BLACK
6
CONTINUOUS
10
0.4218394881889764
20
1.0704075984251968
11
0.4247572834645669
21
1.0733254330708661
0
LINE
8
BLACK
6
CONTINUOUS
10
0.4247572834645669
20
1.0733254330708661
11
0.4262727952755905
21
1.0763564173228346
0
LINE
8
BLACK
6
CONTINUOUS
10
0.4262727952755905
20
1.0763564173228346
11
0.4279808267716536
21
1.0831884645669292
0
LINE
8
BLACK
6
CONTINUOUS
10
0.4279808267716536
20
1.0831884645669292
11
0.4279808267716536
21
1.0880856692913385
0
LINE
8
BLACK
6
CONTINUOUS
10
0.4279808267716536
20
1.0880856692913385
11
0.4262727952755905
21
1.0949177165354331
0
LINE
8
BLACK
6
CONTINUOUS
10
0.4262727952755905
20
1.0949177165354331
11
0.4247573228346457
21
1.0979487007874016
0
LINE
8
BLACK
6
CONTINUOUS
10
0.4247573228346457
20
1.0979487007874016
11
0.4218394881889764
21
1.1008665354330709
0
LINE
8
BLACK
6
CONTINUOUS
10
0.4218394881889764
20
1.1008665354330709
11
0.4173311023622047
21
1.1023693307086615
0
LINE
8
BLACK
6
CONTINUOUS
10
0.4173311023622047
20
1.1023693307086615
11
0.414539842519685
21
1.1023693307086615
0
LINE
8
BLACK
6
CONTINUOUS
10
0.414539842519685
20
1.1023693307086615
11
0.4100314566929134
21
1.1008665354330709
0
LINE
8
BLACK
6
CONTINUOUS
10
0.4100314566929134
20
1.1008665354330709
11
0.4086495669291338
21
1.0994846456692913
0
LINE
8
BLACK
6
CONTINUOUS
10
0.4086495669291338
20
1.0994846456692913
11
0.408202125984252
21
1.0991174409448818
0
LINE
8
BLACK
6
CONTINUOUS
10
0.408202125984252
20
1.0991174409448818
11
0.4071376771653543
21
1.0986765354330708
0
LINE
8
BLACK
6
CONTINUOUS
10
0.4071376771653543
20
1.0986765354330708
11
0.4059856299212599
21
1.0986765354330708
0
LINE
8
BLACK
6
CONTINUOUS
10
0.4059856299212599
20
1.0986765354330708
11
0.4049211811023622
21
1.0991174409448818
0
LINE
8
BLACK
6
CONTINUOUS
10
0.4049211811023622
20
1.0991174409448818
11
0.4041065354330708
21
1.0999320866141733
0
LINE
8
BLACK
6
CONTINUOUS
10
0.4041065354330708
20
1.0999320866141733
11
0.4036656299212598
21
1.1009965354330709
0
LINE
8
BLACK
6
CONTINUOUS
10
0.4036656299212598
20
1.1009965354330709
11
0.4036656299212598
21
1.1021485826771653
0
LINE
8
BLACK
6
CONTINUOUS
10
0.4036656299212598
20
1.1021485826771653
11
0.4041065354330708
21
1.1032130314960629
0
LINE
8
BLACK
6
CONTINUOUS
10
0.4041065354330708
20
1.1032130314960629
11
0.4044737401574803
21
1.1036604724409449
0
LINE
8
BLACK
6
CONTINUOUS
10
0.4044737401574803
20
1.1036604724409449
11
0.4063485039370079
21
1.1055352362204725
0
LINE
8
BLACK
6
CONTINUOUS
10
0.4063485039370079
20
1.1055352362204725
11
0.4067959448818897
21
1.1059024409448819
0
LINE
8
BLACK
6
CONTINUOUS
10
0.4067959448818897
20
1.1059024409448819
11
0.4068938976377953
21
1.105943031496063
0
LINE
8
BLACK
6
CONTINUOUS
10
0.4068938976377953
20
1.105943031496063
11
0.4069740944881889
21
1.1060125590551182
0
LINE
8
BLACK
6
CONTINUOUS
10
0.4069740944881889
20
1.1060125590551182
11
0.4075026771653543
21
1.1062485433070866
0
LINE
8
BLACK
6
CONTINUOUS
10
0.4075026771653543
20
1.1062485433070866
11
0.4131269291338582
21
1.1081233070866141
0
LINE
8
BLACK
6
CONTINUOUS
10
0.4131269291338582
20
1.1081233070866141
11
0.4134125590551181
21
1.1081882677165353
0
LINE
8
BLACK
6
CONTINUOUS
10
0.4134125590551181
20
1.1081882677165353
11
0.4134846456692913
21
1.1082181102362205
0
LINE
8
BLACK
6
CONTINUOUS
10
0.4134846456692913
20
1.1082181102362205
11
0.413589094488189
21
1.1082284251968504
0
LINE
8
BLACK
6
CONTINUOUS
10
0.413589094488189
20
1.1082284251968504
11
0.4136913779527559
21
1.1082516535433071
0
LINE
8
BLACK
6
CONTINUOUS
10
0.4136913779527559
20
1.1082516535433071
11
0.413769094488189
21
1.1082461417322835
0
LINE
8
BLACK
6
CONTINUOUS
10
0.413769094488189
20
1.1082461417322835
11
0.4140607086614173
21
1.1082748425196851
0
LINE
8
BLACK
6
CONTINUOUS
10
0.4140607086614173
20
1.1082748425196851
11
0.4178102362204724
21
1.1082748425196851
0
LINE
8
BLACK
6
CONTINUOUS
10
0.4178102362204724
20
1.1082748425196851
11
0.4181017716535433
21
1.1082461417322835
0
CIRCLE
8
BLACK
10
0.
20
1.2
40
0.0068897637795276
0
CIRCLE
8
BLACK
10
1.2
20
0.
40
0.0068897637795276
0
CIRCLE
8
BLACK
10
1.25
20
0.5
40
0.0068897637795276
0
CIRCLE
8
BLACK
10
1.1499999999999999
20
0.5
40
0.0068897637795276
0
CIRCLE
8
BLACK
10
1.25
20
0.6
40
0.0068897637795276
0
CIRCLE
8
BLACK
10
1.1499999999999999
20
0.6
40
0.0068897637795276
0
CIRCLE
8
BLACK
10
1.25
20
0.7
40
0.0068897637795276
0
CIRCLE
8
BLACK
10
1.1499999999999999
20
0.7
40
0.0068897637795276
0
CIRCLE
8
BLACK
10
0.
20
0.
40
0.0068897637795276
0
CIRCLE
8
BLACK
10
1.2
20
1.2
40
0.0068897637795276
0
CIRCLE
8
BLACK
10
0.
20
1.2
40
0.0068897637795276
0
CIRCLE
8
BLACK
10
1.2
20
0.
40
0.0068897637795276
0
CIRCLE
8
BLACK
10
1.25
20
0.5
40
0.0068897637795276
0
CIRCLE
8
BLACK
10
1.1499999999999999
20
0.5
40
0.0068897637795276
0
CIRCLE
8
BLACK
10
1.25
20
0.6
40
0.0068897637795276
0
CIRCLE
8
BLACK
10
1.1499999999999999
20
0.6
40
0.0068897637795276
0
CIRCLE
8
BLACK
10
1.25
20
0.7
40
0.0068897637795276
0
CIRCLE
8
BLACK
10
1.1499999999999999
20
0.7
40
0.0068897637795276
0
CIRCLE
8
BLACK
10
0.
20
0.
40
0.0068897637795276
0
CIRCLE
8
BLACK
10
1.2
20
1.2
40
0.0068897637795276
  0
ENDSEC
  0
EOF
