  0
SECTION
  2
HEADER
  9
$ANGBASE
  50
0.0
  9
$ANGDIR
  70
1
  9
$MEASUREMENT
  70
0
  9
$INSUNITS
  70
1
  0
ENDSEC
  0
SECTION
  2
TABLES
  0
TABLE
  2
LTYPE
  70
4
  0
LTYPE
  5
40F
  2
CONTINUOUS
  70
0
  3
Solid line
  72
65
  73
0
  40
0.0
  0
LTYPE
  5
410
  2
DASHDOT
 70
0
  3
Dash Dot ____ _ ____ _
 72
65
 73
4
 40
2.0
 49
1.25
 49
-0.25
 49
0.25
 49
-0.25
  0
LTYPE
  5
411
  2
DASHED
 70
0
  3
Dashed __ __ __ __ __
 72
65
 73
2
 40
0.75
 49
0.5
 49
-0.25
  0
LTYPE
  5
43B
  2
DOTTED
 70
0
  3
Dotted .  .  .  .
 72
65
 73
2
 40
0.2
 49
0.0
 49
-0.2
  0
ENDTAB
  0
TABLE
  2
STYLE
  70
4
  0
STYLE
  2
KICAD
  70
0
  40
0
  41
1
  42
1
  50
0
  71
0
  3
isocp.shx
  0
STYLE
  2
KICADB
  70
0
  40
0
  41
1
  42
1
  50
0
  71
0
  3
isocp.shx
  0
STYLE
  2
KICADI
  70
0
  40
0
  41
1
  42
1
  50
15
  71
0
  3
isocp.shx
  0
STYLE
  2
KICADBI
  70
0
  40
0
  41
1
  42
1
  50
15
  71
0
  3
isocp.shx
  0
ENDTAB
  0
TABLE
  2
LAYER
  70
1
  0
LAYER
  2
BLACK
  70
0
  62
250
  6
CONTINUOUS
  0
ENDTAB
  0
ENDSEC
  0
SECTION
  2
ENTITIES
0
LINE
8
BLACK
6
CONTINUOUS
10
0.0210387795275591
20
0.126975
11
0.0347705511811024
21
0.1238408267716535
0
LINE
8
BLACK
6
CONTINUOUS
10
0.0347705511811024
20
0.1238408267716535
11
0.0480650393700787
21
0.1191888582677165
0
LINE
8
BLACK
6
CONTINUOUS
10
0.0480650393700787
20
0.1191888582677165
11
0.0607550787401575
21
0.1130776771653543
0
LINE
8
BLACK
6
CONTINUOUS
10
0.0607550787401575
20
0.1130776771653543
11
0.0726811023622047
21
0.1055840551181102
0
LINE
8
BLACK
6
CONTINUOUS
10
0.0726811023622047
20
0.1055840551181102
11
0.0836931496062992
21
0.0968022440944882
0
LINE
8
BLACK
6
CONTINUOUS
10
0.0836931496062992
20
0.0968022440944882
11
0.0936526377952756
21
0.0868427559055118
0
LINE
8
BLACK
6
CONTINUOUS
10
0.0936526377952756
20
0.0868427559055118
11
0.1024344488188976
21
0.0758307086614173
0
LINE
8
BLACK
6
CONTINUOUS
10
0.1024344488188976
20
0.0758307086614173
11
0.1099280708661417
21
0.0639046850393701
0
LINE
8
BLACK
6
CONTINUOUS
10
0.1099280708661417
20
0.0639046850393701
11
0.1160392519685039
21
0.0512146456692913
0
LINE
8
BLACK
6
CONTINUOUS
10
0.1160392519685039
20
0.0512146456692913
11
0.1206912204724409
21
0.037920157480315
0
LINE
8
BLACK
6
CONTINUOUS
10
0.1206912204724409
20
0.037920157480315
11
0.1238253937007874
21
0.0241883858267717
0
LINE
8
BLACK
6
CONTINUOUS
10
0.1238253937007874
20
0.0241883858267717
11
0.1254024015748031
21
0.0101920472440945
0
LINE
8
BLACK
6
CONTINUOUS
10
0.1254024015748031
20
0.0101920472440945
11
0.1254024015748031
21
-0.0038928346456693
0
LINE
8
BLACK
6
CONTINUOUS
10
0.1254024015748031
20
-0.0038928346456693
11
0.1238253937007874
21
-0.0178891732283465
0
LINE
8
BLACK
6
CONTINUOUS
10
0.1238253937007874
20
-0.0178891732283465
11
0.1206912204724409
21
-0.0316209448818898
0
LINE
8
BLACK
6
CONTINUOUS
10
0.1206912204724409
20
-0.0316209448818898
11
0.1160392519685039
21
-0.0449154330708661
0
LINE
8
BLACK
6
CONTINUOUS
10
0.1160392519685039
20
-0.0449154330708661
11
0.1099280708661417
21
-0.0576054724409449
0
LINE
8
BLACK
6
CONTINUOUS
10
0.1099280708661417
20
-0.0576054724409449
11
0.1024344488188976
21
-0.0695314960629921
0
LINE
8
BLACK
6
CONTINUOUS
10
0.1024344488188976
20
-0.0695314960629921
11
0.0936526377952756
21
-0.0805435433070866
0
LINE
8
BLACK
6
CONTINUOUS
10
0.0936526377952756
20
-0.0805435433070866
11
0.0836931496062992
21
-0.090503031496063
0
LINE
8
BLACK
6
CONTINUOUS
10
0.0836931496062992
20
-0.090503031496063
11
0.0726811023622047
21
-0.099284842519685
0
LINE
8
BLACK
6
CONTINUOUS
10
0.0726811023622047
20
-0.099284842519685
11
0.0607550787401575
21
-0.1067784645669291
0
LINE
8
BLACK
6
CONTINUOUS
10
0.0607550787401575
20
-0.1067784645669291
11
0.0480650393700787
21
-0.1128896456692913
0
LINE
8
BLACK
6
CONTINUOUS
10
0.0480650393700787
20
-0.1128896456692913
11
0.0347705511811024
21
-0.1175416141732283
0
LINE
8
BLACK
6
CONTINUOUS
10
0.0347705511811024
20
-0.1175416141732283
11
0.0210387795275591
21
-0.1206757874015748
0
LINE
8
BLACK
6
CONTINUOUS
10
0.0210387795275591
20
-0.1206757874015748
11
0.0070424409448819
21
-0.1222527952755905
0
LINE
8
BLACK
6
CONTINUOUS
10
0.0070424409448819
20
-0.1222527952755905
11
-0.0070424409448819
21
-0.1222527952755905
0
LINE
8
BLACK
6
CONTINUOUS
10
-0.0070424409448819
20
-0.1222527952755905
11
-0.0210387795275591
21
-0.1206757874015748
0
LINE
8
BLACK
6
CONTINUOUS
10
-0.0210387795275591
20
-0.1206757874015748
11
-0.0347705511811024
21
-0.1175416141732283
0
LINE
8
BLACK
6
CONTINUOUS
10
-0.0347705511811024
20
-0.1175416141732283
11
-0.0480650393700787
21
-0.1128896456692913
0
LINE
8
BLACK
6
CONTINUOUS
10
-0.0480650393700787
20
-0.1128896456692913
11
-0.0607550787401575
21
-0.1067784645669291
0
LINE
8
BLACK
6
CONTINUOUS
10
-0.0607550787401575
20
-0.1067784645669291
11
-0.0726811023622047
21
-0.099284842519685
0
LINE
8
BLACK
6
CONTINUOUS
10
-0.0726811023622047
20
-0.099284842519685
11
-0.0836931496062992
21
-0.090503031496063
0
LINE
8
BLACK
6
CONTINUOUS
10
-0.0836931496062992
20
-0.090503031496063
11
-0.0936526377952756
21
-0.0805435433070866
0
LINE
8
BLACK
6
CONTINUOUS
10
-0.0936526377952756
20
-0.0805435433070866
11
-0.1024344488188976
21
-0.0695314960629921
0
LINE
8
BLACK
6
CONTINUOUS
10
-0.1024344488188976
20
-0.0695314960629921
11
-0.1099280708661417
21
-0.0576054724409449
0
LINE
8
BLACK
6
CONTINUOUS
10
-0.1099280708661417
20
-0.0576054724409449
11
-0.1160392519685039
21
-0.0449154330708661
0
LINE
8
BLACK
6
CONTINUOUS
10
-0.1160392519685039
20
-0.0449154330708661
11
-0.1206912204724409
21
-0.0316209448818898
0
LINE
8
BLACK
6
CONTINUOUS
10
-0.1206912204724409
20
-0.0316209448818898
11
-0.1238253937007874
21
-0.0178891732283465
0
LINE
8
BLACK
6
CONTINUOUS
10
-0.1238253937007874
20
-0.0178891732283465
11
-0.1254024015748031
21
-0.0038928346456693
0
LINE
8
BLACK
6
CONTINUOUS
10
-0.1254024015748031
20
-0.0038928346456693
11
-0.1254024015748031
21
0.0093607874015748
0
LINE
8
BLACK
6
CONTINUOUS
10
-0.1254024015748031
20
0.0093607874015748
11
-0.1254024015748031
21
0.0101920472440945
0
LINE
8
BLACK
6
CONTINUOUS
10
-0.1254024015748031
20
0.0101920472440945
11
-0.1238253937007874
21
0.0241883858267717
0
LINE
8
BLACK
6
CONTINUOUS
10
-0.1238253937007874
20
0.0241883858267717
11
-0.1206912204724409
21
0.037920157480315
0
LINE
8
BLACK
6
CONTINUOUS
10
-0.1206912204724409
20
0.037920157480315
11
-0.1160392519685039
21
0.0512146456692913
0
LINE
8
BLACK
6
CONTINUOUS
10
-0.1160392519685039
20
0.0512146456692913
11
-0.1099280708661417
21
0.0639046850393701
0
LINE
8
BLACK
6
CONTINUOUS
10
-0.1099280708661417
20
0.0639046850393701
11
-0.1024344488188976
21
0.0758307086614173
0
LINE
8
BLACK
6
CONTINUOUS
10
-0.1024344488188976
20
0.0758307086614173
11
-0.0936526377952756
21
0.0868427559055118
0
LINE
8
BLACK
6
CONTINUOUS
10
-0.0936526377952756
20
0.0868427559055118
11
-0.0836931496062992
21
0.0968022440944882
0
LINE
8
BLACK
6
CONTINUOUS
10
-0.0836931496062992
20
0.0968022440944882
11
-0.0726811023622047
21
0.1055840551181102
0
LINE
8
BLACK
6
CONTINUOUS
10
-0.0726811023622047
20
0.1055840551181102
11
-0.0607550787401575
21
0.1130776771653543
0
LINE
8
BLACK
6
CONTINUOUS
10
-0.0607550787401575
20
0.1130776771653543
11
-0.0480650393700787
21
0.1191888582677165
0
LINE
8
BLACK
6
CONTINUOUS
10
-0.0480650393700787
20
0.1191888582677165
11
-0.0347705511811024
21
0.1238408267716535
0
LINE
8
BLACK
6
CONTINUOUS
10
-0.0347705511811024
20
0.1238408267716535
11
-0.0210387795275591
21
0.126975
0
LINE
8
BLACK
6
CONTINUOUS
10
-0.0210387795275591
20
0.126975
11
-0.0070424409448819
21
0.1285520078740157
0
LINE
8
BLACK
6
CONTINUOUS
10
-0.0070424409448819
20
0.1285520078740157
11
0.0070424409448819
21
0.1285520078740157
0
LINE
8
BLACK
6
CONTINUOUS
10
0.0070424409448819
20
0.1285520078740157
11
0.0210387795275591
21
0.126975
0
LINE
8
BLACK
6
CONTINUOUS
10
-0.1106
20
-0.0030615748031496
11
-0.1092091338582677
21
-0.0154057874015748
0
LINE
8
BLACK
6
CONTINUOUS
10
-0.1092091338582677
20
-0.0154057874015748
11
-0.1064448818897638
21
-0.0275166535433071
0
LINE
8
BLACK
6
CONTINUOUS
10
-0.1064448818897638
20
-0.0275166535433071
11
-0.1023420472440945
21
-0.0392418503937008
0
LINE
8
BLACK
6
CONTINUOUS
10
-0.1023420472440945
20
-0.0392418503937008
11
-0.0969522047244094
21
-0.0504339763779528
0
LINE
8
BLACK
6
CONTINUOUS
10
-0.0969522047244094
20
-0.0504339763779528
11
-0.0903431496062992
21
-0.0609522834645669
0
LINE
8
BLACK
6
CONTINUOUS
10
-0.0903431496062992
20
-0.0609522834645669
11
-0.0825979527559055
21
-0.0706644488188976
0
LINE
8
BLACK
6
CONTINUOUS
10
-0.0825979527559055
20
-0.0706644488188976
11
-0.0738140551181102
21
-0.0794483464566929
0
LINE
8
BLACK
6
CONTINUOUS
10
-0.0738140551181102
20
-0.0794483464566929
11
-0.0641018897637795
21
-0.0871935433070866
0
LINE
8
BLACK
6
CONTINUOUS
10
-0.0641018897637795
20
-0.0871935433070866
11
-0.0535835826771654
21
-0.0938025984251969
0
LINE
8
BLACK
6
CONTINUOUS
10
-0.0535835826771654
20
-0.0938025984251969
11
-0.0423914566929134
21
-0.0991924409448819
0
LINE
8
BLACK
6
CONTINUOUS
10
-0.0423914566929134
20
-0.0991924409448819
11
-0.0306662598425197
21
-0.1032952755905512
0
LINE
8
BLACK
6
CONTINUOUS
10
-0.0306662598425197
20
-0.1032952755905512
11
-0.0185553937007874
21
-0.1060595275590551
0
LINE
8
BLACK
6
CONTINUOUS
10
-0.0185553937007874
20
-0.1060595275590551
11
-0.0062111811023622
21
-0.1074503937007874
0
LINE
8
BLACK
6
CONTINUOUS
10
-0.0062111811023622
20
-0.1074503937007874
11
0.0062111811023622
21
-0.1074503937007874
0
LINE
8
BLACK
6
CONTINUOUS
10
0.0062111811023622
20
-0.1074503937007874
11
0.0185553937007874
21
-0.1060595275590551
0
LINE
8
BLACK
6
CONTINUOUS
10
0.0185553937007874
20
-0.1060595275590551
11
0.0306662598425197
21
-0.1032952755905512
0
LINE
8
BLACK
6
CONTINUOUS
10
0.0306662598425197
20
-0.1032952755905512
11
0.0423914566929134
21
-0.0991924409448819
0
LINE
8
BLACK
6
CONTINUOUS
10
0.0423914566929134
20
-0.0991924409448819
11
0.0535835826771654
21
-0.0938025984251969
0
LINE
8
BLACK
6
CONTINUOUS
10
0.0535835826771654
20
-0.0938025984251969
11
0.0641018897637795
21
-0.0871935433070866
0
LINE
8
BLACK
6
CONTINUOUS
10
0.0641018897637795
20
-0.0871935433070866
11
0.0738140551181102
21
-0.0794483464566929
0
LINE
8
BLACK
6
CONTINUOUS
10
0.0738140551181102
20
-0.0794483464566929
11
0.0825979527559055
21
-0.0706644488188976
0
LINE
8
BLACK
6
CONTINUOUS
10
0.0825979527559055
20
-0.0706644488188976
11
0.0903431496062992
21
-0.0609522834645669
0
LINE
8
BLACK
6
CONTINUOUS
10
0.0903431496062992
20
-0.0609522834645669
11
0.0969522047244094
21
-0.0504339763779528
0
LINE
8
BLACK
6
CONTINUOUS
10
0.0969522047244094
20
-0.0504339763779528
11
0.1023420472440945
21
-0.0392418503937008
0
LINE
8
BLACK
6
CONTINUOUS
10
0.1023420472440945
20
-0.0392418503937008
11
0.1064448818897638
21
-0.0275166535433071
0
LINE
8
BLACK
6
CONTINUOUS
10
0.1064448818897638
20
-0.0275166535433071
11
0.1092091338582677
21
-0.0154057874015748
0
LINE
8
BLACK
6
CONTINUOUS
10
0.1092091338582677
20
-0.0154057874015748
11
0.1106
21
-0.0030615748031496
0
LINE
8
BLACK
6
CONTINUOUS
10
0.1106
20
-0.0030615748031496
11
0.1106
21
0.0093607874015748
0
LINE
8
BLACK
6
CONTINUOUS
10
0.1106
20
0.0093607874015748
11
0.1092091338582677
21
0.021705
0
LINE
8
BLACK
6
CONTINUOUS
10
0.1092091338582677
20
0.021705
11
0.1064448818897638
21
0.0338158661417323
0
LINE
8
BLACK
6
CONTINUOUS
10
0.1064448818897638
20
0.0338158661417323
11
0.1023420472440945
21
0.045541062992126
0
LINE
8
BLACK
6
CONTINUOUS
10
0.1023420472440945
20
0.045541062992126
11
0.0969522047244094
21
0.056733188976378
0
LINE
8
BLACK
6
CONTINUOUS
10
0.0969522047244094
20
0.056733188976378
11
0.0903431496062992
21
0.0672514960629921
0
LINE
8
BLACK
6
CONTINUOUS
10
0.0903431496062992
20
0.0672514960629921
11
0.0825979527559055
21
0.0769636614173228
0
LINE
8
BLACK
6
CONTINUOUS
10
0.0825979527559055
20
0.0769636614173228
11
0.0738140551181102
21
0.0857475590551181
0
LINE
8
BLACK
6
CONTINUOUS
10
0.0738140551181102
20
0.0857475590551181
11
0.0641018897637795
21
0.0934927559055118
0
LINE
8
BLACK
6
CONTINUOUS
10
0.0641018897637795
20
0.0934927559055118
11
0.0535835826771654
21
0.100101811023622
0
LINE
8
BLACK
6
CONTINUOUS
10
0.0535835826771654
20
0.100101811023622
11
0.0423914566929134
21
0.1054916535433071
0
LINE
8
BLACK
6
CONTINUOUS
10
0.0423914566929134
20
0.1054916535433071
11
0.0306662598425197
21
0.1095944881889764
0
LINE
8
BLACK
6
CONTINUOUS
10
0.0306662598425197
20
0.1095944881889764
11
0.0185553937007874
21
0.1123587401574803
0
LINE
8
BLACK
6
CONTINUOUS
10
0.0185553937007874
20
0.1123587401574803
11
0.0062111811023622
21
0.1137496062992126
0
LINE
8
BLACK
6
CONTINUOUS
10
0.0062111811023622
20
0.1137496062992126
11
-0.0062111811023622
21
0.1137496062992126
0
LINE
8
BLACK
6
CONTINUOUS
10
-0.0062111811023622
20
0.1137496062992126
11
-0.0185553937007874
21
0.1123587401574803
0
LINE
8
BLACK
6
CONTINUOUS
10
-0.0185553937007874
20
0.1123587401574803
11
-0.0306662598425197
21
0.1095944881889764
0
LINE
8
BLACK
6
CONTINUOUS
10
-0.0306662598425197
20
0.1095944881889764
11
-0.0423914566929134
21
0.1054916535433071
0
LINE
8
BLACK
6
CONTINUOUS
10
-0.0423914566929134
20
0.1054916535433071
11
-0.0535835826771654
21
0.100101811023622
0
LINE
8
BLACK
6
CONTINUOUS
10
-0.0535835826771654
20
0.100101811023622
11
-0.0641018897637795
21
0.0934927559055118
0
LINE
8
BLACK
6
CONTINUOUS
10
-0.0641018897637795
20
0.0934927559055118
11
-0.0738140551181102
21
0.0857475590551181
0
LINE
8
BLACK
6
CONTINUOUS
10
-0.0738140551181102
20
0.0857475590551181
11
-0.0825979527559055
21
0.0769636614173228
0
LINE
8
BLACK
6
CONTINUOUS
10
-0.0825979527559055
20
0.0769636614173228
11
-0.0903431496062992
21
0.0672514960629921
0
LINE
8
BLACK
6
CONTINUOUS
10
-0.0903431496062992
20
0.0672514960629921
11
-0.0969522047244094
21
0.056733188976378
0
LINE
8
BLACK
6
CONTINUOUS
10
-0.0969522047244094
20
0.056733188976378
11
-0.1023420472440945
21
0.045541062992126
0
LINE
8
BLACK
6
CONTINUOUS
10
-0.1023420472440945
20
0.045541062992126
11
-0.1064448818897638
21
0.0338158661417323
0
LINE
8
BLACK
6
CONTINUOUS
10
-0.1064448818897638
20
0.0338158661417323
11
-0.1092091338582677
21
0.021705
0
LINE
8
BLACK
6
CONTINUOUS
10
-0.1092091338582677
20
0.021705
11
-0.1106
21
0.0093607874015748
0
LINE
8
BLACK
6
CONTINUOUS
10
-0.1106
20
0.0093607874015748
11
-0.1106
21
-0.0030615748031496
0
LINE
8
BLACK
6
CONTINUOUS
10
1.221038779527559
20
0.126975
11
1.2347705511811022
21
0.1238408267716535
0
LINE
8
BLACK
6
CONTINUOUS
10
1.2347705511811022
20
0.1238408267716535
11
1.2480650393700787
21
0.1191888582677165
0
LINE
8
BLACK
6
CONTINUOUS
10
1.2480650393700787
20
0.1191888582677165
11
1.2607550787401574
21
0.1130776771653543
0
LINE
8
BLACK
6
CONTINUOUS
10
1.2607550787401574
20
0.1130776771653543
11
1.2726811023622047
21
0.1055840551181102
0
LINE
8
BLACK
6
CONTINUOUS
10
1.2726811023622047
20
0.1055840551181102
11
1.2836931496062991
21
0.0968022440944882
0
LINE
8
BLACK
6
CONTINUOUS
10
1.2836931496062991
20
0.0968022440944882
11
1.2936526377952755
21
0.0868427559055118
0
LINE
8
BLACK
6
CONTINUOUS
10
1.2936526377952755
20
0.0868427559055118
11
1.3024344488188977
21
0.0758307086614173
0
LINE
8
BLACK
6
CONTINUOUS
10
1.3024344488188977
20
0.0758307086614173
11
1.3099280708661416
21
0.0639046850393701
0
LINE
8
BLACK
6
CONTINUOUS
10
1.3099280708661416
20
0.0639046850393701
11
1.3160392519685038
21
0.0512146456692913
0
LINE
8
BLACK
6
CONTINUOUS
10
1.3160392519685038
20
0.0512146456692913
11
1.3206912204724408
21
0.037920157480315
0
LINE
8
BLACK
6
CONTINUOUS
10
1.3206912204724408
20
0.037920157480315
11
1.3238253937007873
21
0.0241883858267717
0
LINE
8
BLACK
6
CONTINUOUS
10
1.3238253937007873
20
0.0241883858267717
11
1.3254024015748032
21
0.0101920472440945
0
LINE
8
BLACK
6
CONTINUOUS
10
1.3254024015748032
20
0.0101920472440945
11
1.3254024015748032
21
-0.0038928346456693
0
LINE
8
BLACK
6
CONTINUOUS
10
1.3254024015748032
20
-0.0038928346456693
11
1.3238253937007873
21
-0.0178891732283465
0
LINE
8
BLACK
6
CONTINUOUS
10
1.3238253937007873
20
-0.0178891732283465
11
1.3206912204724408
21
-0.0316209448818898
0
LINE
8
BLACK
6
CONTINUOUS
10
1.3206912204724408
20
-0.0316209448818898
11
1.3160392519685038
21
-0.0449154330708661
0
LINE
8
BLACK
6
CONTINUOUS
10
1.3160392519685038
20
-0.0449154330708661
11
1.3099280708661416
21
-0.0576054724409449
0
LINE
8
BLACK
6
CONTINUOUS
10
1.3099280708661416
20
-0.0576054724409449
11
1.3024344488188977
21
-0.0695314960629921
0
LINE
8
BLACK
6
CONTINUOUS
10
1.3024344488188977
20
-0.0695314960629921
11
1.2936526377952755
21
-0.0805435433070866
0
LINE
8
BLACK
6
CONTINUOUS
10
1.2936526377952755
20
-0.0805435433070866
11
1.2836931496062991
21
-0.090503031496063
0
LINE
8
BLACK
6
CONTINUOUS
10
1.2836931496062991
20
-0.090503031496063
11
1.2726811023622047
21
-0.099284842519685
0
LINE
8
BLACK
6
CONTINUOUS
10
1.2726811023622047
20
-0.099284842519685
11
1.2607550787401574
21
-0.1067784645669291
0
LINE
8
BLACK
6
CONTINUOUS
10
1.2607550787401574
20
-0.1067784645669291
11
1.2480650393700787
21
-0.1128896456692913
0
LINE
8
BLACK
6
CONTINUOUS
10
1.2480650393700787
20
-0.1128896456692913
11
1.2347705511811022
21
-0.1175416141732283
0
LINE
8
BLACK
6
CONTINUOUS
10
1.2347705511811022
20
-0.1175416141732283
11
1.221038779527559
21
-0.1206757874015748
0
LINE
8
BLACK
6
CONTINUOUS
10
1.221038779527559
20
-0.1206757874015748
11
1.2070424409448819
21
-0.1222527952755905
0
LINE
8
BLACK
6
CONTINUOUS
10
1.2070424409448819
20
-0.1222527952755905
11
1.192957559055118
21
-0.1222527952755905
0
LINE
8
BLACK
6
CONTINUOUS
10
1.192957559055118
20
-0.1222527952755905
11
1.1789612204724409
21
-0.1206757874015748
0
LINE
8
BLACK
6
CONTINUOUS
10
1.1789612204724409
20
-0.1206757874015748
11
1.1652294488188977
21
-0.1175416141732283
0
LINE
8
BLACK
6
CONTINUOUS
10
1.1652294488188977
20
-0.1175416141732283
11
1.1519349606299212
21
-0.1128896456692913
0
LINE
8
BLACK
6
CONTINUOUS
10
1.1519349606299212
20
-0.1128896456692913
11
1.1392449212598426
21
-0.1067784645669291
0
LINE
8
BLACK
6
CONTINUOUS
10
1.1392449212598426
20
-0.1067784645669291
11
1.1273188976377952
21
-0.099284842519685
0
LINE
8
BLACK
6
CONTINUOUS
10
1.1273188976377952
20
-0.099284842519685
11
1.1163068503937008
21
-0.090503031496063
0
LINE
8
BLACK
6
CONTINUOUS
10
1.1163068503937008
20
-0.090503031496063
11
1.1063473622047244
21
-0.0805435433070866
0
LINE
8
BLACK
6
CONTINUOUS
10
1.1063473622047244
20
-0.0805435433070866
11
1.0975655511811024
21
-0.0695314960629921
0
LINE
8
BLACK
6
CONTINUOUS
10
1.0975655511811024
20
-0.0695314960629921
11
1.0900719291338583
21
-0.0576054724409449
0
LINE
8
BLACK
6
CONTINUOUS
10
1.0900719291338583
20
-0.0576054724409449
11
1.0839607480314961
21
-0.0449154330708661
0
LINE
8
BLACK
6
CONTINUOUS
10
1.0839607480314961
20
-0.0449154330708661
11
1.0793087795275591
21
-0.0316209448818898
0
LINE
8
BLACK
6
CONTINUOUS
10
1.0793087795275591
20
-0.0316209448818898
11
1.0761746062992126
21
-0.0178891732283465
0
LINE
8
BLACK
6
CONTINUOUS
10
1.0761746062992126
20
-0.0178891732283465
11
1.0745975984251968
21
-0.0038928346456693
0
LINE
8
BLACK
6
CONTINUOUS
10
1.0745975984251968
20
-0.0038928346456693
11
1.0745975984251968
21
0.0093607874015748
0
LINE
8
BLACK
6
CONTINUOUS
10
1.0745975984251968
20
0.0093607874015748
11
1.0745975984251968
21
0.0101920472440945
0
LINE
8
BLACK
6
CONTINUOUS
10
1.0745975984251968
20
0.0101920472440945
11
1.0761746062992126
21
0.0241883858267717
0
LINE
8
BLACK
6
CONTINUOUS
10
1.0761746062992126
20
0.0241883858267717
11
1.0793087795275591
21
0.037920157480315
0
LINE
8
BLACK
6
CONTINUOUS
10
1.0793087795275591
20
0.037920157480315
11
1.0839607480314961
21
0.0512146456692913
0
LINE
8
BLACK
6
CONTINUOUS
10
1.0839607480314961
20
0.0512146456692913
11
1.0900719291338583
21
0.0639046850393701
0
LINE
8
BLACK
6
CONTINUOUS
10
1.0900719291338583
20
0.0639046850393701
11
1.0975655511811024
21
0.0758307086614173
0
LINE
8
BLACK
6
CONTINUOUS
10
1.0975655511811024
20
0.0758307086614173
11
1.1063473622047244
21
0.0868427559055118
0
LINE
8
BLACK
6
CONTINUOUS
10
1.1063473622047244
20
0.0868427559055118
11
1.1163068503937008
21
0.0968022440944882
0
LINE
8
BLACK
6
CONTINUOUS
10
1.1163068503937008
20
0.0968022440944882
11
1.1273188976377952
21
0.1055840551181102
0
LINE
8
BLACK
6
CONTINUOUS
10
1.1273188976377952
20
0.1055840551181102
11
1.1392449212598426
21
0.1130776771653543
0
LINE
8
BLACK
6
CONTINUOUS
10
1.1392449212598426
20
0.1130776771653543
11
1.1519349606299212
21
0.1191888582677165
0
LINE
8
BLACK
6
CONTINUOUS
10
1.1519349606299212
20
0.1191888582677165
11
1.1652294488188977
21
0.1238408267716535
0
LINE
8
BLACK
6
CONTINUOUS
10
1.1652294488188977
20
0.1238408267716535
11
1.1789612204724409
21
0.126975
0
LINE
8
BLACK
6
CONTINUOUS
10
1.1789612204724409
20
0.126975
11
1.192957559055118
21
0.1285520078740157
0
LINE
8
BLACK
6
CONTINUOUS
10
1.192957559055118
20
0.1285520078740157
11
1.2070424409448819
21
0.1285520078740157
0
LINE
8
BLACK
6
CONTINUOUS
10
1.2070424409448819
20
0.1285520078740157
11
1.221038779527559
21
0.126975
0
LINE
8
BLACK
6
CONTINUOUS
10
1.0893999999999999
20
-0.0030615748031496
11
1.0907908661417323
21
-0.0154057874015748
0
LINE
8
BLACK
6
CONTINUOUS
10
1.0907908661417323
20
-0.0154057874015748
11
1.0935551181102361
21
-0.0275166535433071
0
LINE
8
BLACK
6
CONTINUOUS
10
1.0935551181102361
20
-0.0275166535433071
11
1.0976579527559054
21
-0.0392418503937008
0
LINE
8
BLACK
6
CONTINUOUS
10
1.0976579527559054
20
-0.0392418503937008
11
1.1030477952755906
21
-0.0504339763779528
0
LINE
8
BLACK
6
CONTINUOUS
10
1.1030477952755906
20
-0.0504339763779528
11
1.1096568503937008
21
-0.0609522834645669
0
LINE
8
BLACK
6
CONTINUOUS
10
1.1096568503937008
20
-0.0609522834645669
11
1.1174020472440944
21
-0.0706644488188976
0
LINE
8
BLACK
6
CONTINUOUS
10
1.1174020472440944
20
-0.0706644488188976
11
1.1261859448818898
21
-0.0794483464566929
0
LINE
8
BLACK
6
CONTINUOUS
10
1.1261859448818898
20
-0.0794483464566929
11
1.1358981102362204
21
-0.0871935433070866
0
LINE
8
BLACK
6
CONTINUOUS
10
1.1358981102362204
20
-0.0871935433070866
11
1.1464164173228346
21
-0.0938025984251969
0
LINE
8
BLACK
6
CONTINUOUS
10
1.1464164173228346
20
-0.0938025984251969
11
1.1576085433070866
21
-0.0991924409448819
0
LINE
8
BLACK
6
CONTINUOUS
10
1.1576085433070866
20
-0.0991924409448819
11
1.1693337401574804
21
-0.1032952755905512
0
LINE
8
BLACK
6
CONTINUOUS
10
1.1693337401574804
20
-0.1032952755905512
11
1.1814446062992126
21
-0.1060595275590551
0
LINE
8
BLACK
6
CONTINUOUS
10
1.1814446062992126
20
-0.1060595275590551
11
1.1937888188976378
21
-0.1074503937007874
0
LINE
8
BLACK
6
CONTINUOUS
10
1.1937888188976378
20
-0.1074503937007874
11
1.2062111811023621
21
-0.1074503937007874
0
LINE
8
BLACK
6
CONTINUOUS
10
1.2062111811023621
20
-0.1074503937007874
11
1.2185553937007874
21
-0.1060595275590551
0
LINE
8
BLACK
6
CONTINUOUS
10
1.2185553937007874
20
-0.1060595275590551
11
1.2306662598425198
21
-0.1032952755905512
0
LINE
8
BLACK
6
CONTINUOUS
10
1.2306662598425198
20
-0.1032952755905512
11
1.2423914566929133
21
-0.0991924409448819
0
LINE
8
BLACK
6
CONTINUOUS
10
1.2423914566929133
20
-0.0991924409448819
11
1.2535835826771653
21
-0.0938025984251969
0
LINE
8
BLACK
6
CONTINUOUS
10
1.2535835826771653
20
-0.0938025984251969
11
1.2641018897637795
21
-0.0871935433070866
0
LINE
8
BLACK
6
CONTINUOUS
10
1.2641018897637795
20
-0.0871935433070866
11
1.2738140551181103
21
-0.0794483464566929
0
LINE
8
BLACK
6
CONTINUOUS
10
1.2738140551181103
20
-0.0794483464566929
11
1.2825979527559055
21
-0.0706644488188976
0
LINE
8
BLACK
6
CONTINUOUS
10
1.2825979527559055
20
-0.0706644488188976
11
1.2903431496062991
21
-0.0609522834645669
0
LINE
8
BLACK
6
CONTINUOUS
10
1.2903431496062991
20
-0.0609522834645669
11
1.2969522047244095
21
-0.0504339763779528
0
LINE
8
BLACK
6
CONTINUOUS
10
1.2969522047244095
20
-0.0504339763779528
11
1.3023420472440945
21
-0.0392418503937008
0
LINE
8
BLACK
6
CONTINUOUS
10
1.3023420472440945
20
-0.0392418503937008
11
1.3064448818897638
21
-0.0275166535433071
0
LINE
8
BLACK
6
CONTINUOUS
10
1.3064448818897638
20
-0.0275166535433071
11
1.3092091338582676
21
-0.0154057874015748
0
LINE
8
BLACK
6
CONTINUOUS
10
1.3092091338582676
20
-0.0154057874015748
11
1.3106
21
-0.0030615748031496
0
LINE
8
BLACK
6
CONTINUOUS
10
1.3106
20
-0.0030615748031496
11
1.3106
21
0.0093607874015748
0
LINE
8
BLACK
6
CONTINUOUS
10
1.3106
20
0.0093607874015748
11
1.3092091338582676
21
0.021705
0
LINE
8
BLACK
6
CONTINUOUS
10
1.3092091338582676
20
0.021705
11
1.3064448818897638
21
0.0338158661417323
0
LINE
8
BLACK
6
CONTINUOUS
10
1.3064448818897638
20
0.0338158661417323
11
1.3023420472440945
21
0.045541062992126
0
LINE
8
BLACK
6
CONTINUOUS
10
1.3023420472440945
20
0.045541062992126
11
1.2969522047244095
21
0.056733188976378
0
LINE
8
BLACK
6
CONTINUOUS
10
1.2969522047244095
20
0.056733188976378
11
1.2903431496062991
21
0.0672514960629921
0
LINE
8
BLACK
6
CONTINUOUS
10
1.2903431496062991
20
0.0672514960629921
11
1.2825979527559055
21
0.0769636614173228
0
LINE
8
BLACK
6
CONTINUOUS
10
1.2825979527559055
20
0.0769636614173228
11
1.2738140551181103
21
0.0857475590551181
0
LINE
8
BLACK
6
CONTINUOUS
10
1.2738140551181103
20
0.0857475590551181
11
1.2641018897637795
21
0.0934927559055118
0
LINE
8
BLACK
6
CONTINUOUS
10
1.2641018897637795
20
0.0934927559055118
11
1.2535835826771653
21
0.100101811023622
0
LINE
8
BLACK
6
CONTINUOUS
10
1.2535835826771653
20
0.100101811023622
11
1.2423914566929133
21
0.1054916535433071
0
LINE
8
BLACK
6
CONTINUOUS
10
1.2423914566929133
20
0.1054916535433071
11
1.2306662598425198
21
0.1095944881889764
0
LINE
8
BLACK
6
CONTINUOUS
10
1.2306662598425198
20
0.1095944881889764
11
1.2185553937007874
21
0.1123587401574803
0
LINE
8
BLACK
6
CONTINUOUS
10
1.2185553937007874
20
0.1123587401574803
11
1.2062111811023621
21
0.1137496062992126
0
LINE
8
BLACK
6
CONTINUOUS
10
1.2062111811023621
20
0.1137496062992126
11
1.1937888188976378
21
0.1137496062992126
0
LINE
8
BLACK
6
CONTINUOUS
10
1.1937888188976378
20
0.1137496062992126
11
1.1814446062992126
21
0.1123587401574803
0
LINE
8
BLACK
6
CONTINUOUS
10
1.1814446062992126
20
0.1123587401574803
11
1.1693337401574804
21
0.1095944881889764
0
LINE
8
BLACK
6
CONTINUOUS
10
1.1693337401574804
20
0.1095944881889764
11
1.1576085433070866
21
0.1054916535433071
0
LINE
8
BLACK
6
CONTINUOUS
10
1.1576085433070866
20
0.1054916535433071
11
1.1464164173228346
21
0.100101811023622
0
LINE
8
BLACK
6
CONTINUOUS
10
1.1464164173228346
20
0.100101811023622
11
1.1358981102362204
21
0.0934927559055118
0
LINE
8
BLACK
6
CONTINUOUS
10
1.1358981102362204
20
0.0934927559055118
11
1.1261859448818898
21
0.0857475590551181
0
LINE
8
BLACK
6
CONTINUOUS
10
1.1261859448818898
20
0.0857475590551181
11
1.1174020472440944
21
0.0769636614173228
0
LINE
8
BLACK
6
CONTINUOUS
10
1.1174020472440944
20
0.0769636614173228
11
1.1096568503937008
21
0.0672514960629921
0
LINE
8
BLACK
6
CONTINUOUS
10
1.1096568503937008
20
0.0672514960629921
11
1.1030477952755906
21
0.056733188976378
0
LINE
8
BLACK
6
CONTINUOUS
10
1.1030477952755906
20
0.056733188976378
11
1.0976579527559054
21
0.045541062992126
0
LINE
8
BLACK
6
CONTINUOUS
10
1.0976579527559054
20
0.045541062992126
11
1.0935551181102361
21
0.0338158661417323
0
LINE
8
BLACK
6
CONTINUOUS
10
1.0935551181102361
20
0.0338158661417323
11
1.0907908661417323
21
0.021705
0
LINE
8
BLACK
6
CONTINUOUS
10
1.0907908661417323
20
0.021705
11
1.0893999999999999
21
0.0093607874015748
0
LINE
8
BLACK
6
CONTINUOUS
10
1.0893999999999999
20
0.0093607874015748
11
1.0893999999999999
21
-0.0030615748031496
0
LINE
8
BLACK
6
CONTINUOUS
10
0.0210387795275591
20
2.1013844488188975
11
0.0347705511811024
21
2.098250275590551
0
LINE
8
BLACK
6
CONTINUOUS
10
0.0347705511811024
20
2.098250275590551
11
0.0480650393700787
21
2.093598307086614
0
LINE
8
BLACK
6
CONTINUOUS
10
0.0480650393700787
20
2.093598307086614
11
0.0607550787401575
21
2.0874871259842518
0
LINE
8
BLACK
6
CONTINUOUS
10
0.0607550787401575
20
2.0874871259842518
11
0.0726811023622047
21
2.0799935039370077
0
LINE
8
BLACK
6
CONTINUOUS
10
0.0726811023622047
20
2.0799935039370077
11
0.0836931496062992
21
2.0712116929133857
0
LINE
8
BLACK
6
CONTINUOUS
10
0.0836931496062992
20
2.0712116929133857
11
0.0936526377952756
21
2.0612522047244095
0
LINE
8
BLACK
6
CONTINUOUS
10
0.0936526377952756
20
2.0612522047244095
11
0.1024344488188976
21
2.0502401574803151
0
LINE
8
BLACK
6
CONTINUOUS
10
0.1024344488188976
20
2.0502401574803151
11
0.1099280708661417
21
2.0383141338582678
0
LINE
8
BLACK
6
CONTINUOUS
10
0.1099280708661417
20
2.0383141338582678
11
0.1160392519685039
21
2.0256240944881889
0
LINE
8
BLACK
6
CONTINUOUS
10
0.1160392519685039
20
2.0256240944881889
11
0.1206912204724409
21
2.0123296062992124
0
LINE
8
BLACK
6
CONTINUOUS
10
0.1206912204724409
20
2.0123296062992124
11
0.1238253937007874
21
1.9985978346456692
0
LINE
8
BLACK
6
CONTINUOUS
10
0.1238253937007874
20
1.9985978346456692
11
0.1254024015748031
21
1.9846014960629921
0
LINE
8
BLACK
6
CONTINUOUS
10
0.1254024015748031
20
1.9846014960629921
11
0.1254024015748031
21
1.9705166141732282
0
LINE
8
BLACK
6
CONTINUOUS
10
0.1254024015748031
20
1.9705166141732282
11
0.1238253937007874
21
1.9565202755905511
0
LINE
8
BLACK
6
CONTINUOUS
10
0.1238253937007874
20
1.9565202755905511
11
0.1206912204724409
21
1.9427885039370079
0
LINE
8
BLACK
6
CONTINUOUS
10
0.1206912204724409
20
1.9427885039370079
11
0.1160392519685039
21
1.9294940157480314
0
LINE
8
BLACK
6
CONTINUOUS
10
0.1160392519685039
20
1.9294940157480314
11
0.1099280708661417
21
1.9168039763779527
0
LINE
8
BLACK
6
CONTINUOUS
10
0.1099280708661417
20
1.9168039763779527
11
0.1024344488188976
21
1.9048779527559054
0
LINE
8
BLACK
6
CONTINUOUS
10
0.1024344488188976
20
1.9048779527559054
11
0.0936526377952756
21
1.893865905511811
0
LINE
8
BLACK
6
CONTINUOUS
10
0.0936526377952756
20
1.893865905511811
11
0.0836931496062992
21
1.8839064173228346
0
LINE
8
BLACK
6
CONTINUOUS
10
0.0836931496062992
20
1.8839064173228346
11
0.0726811023622047
21
1.8751246062992126
0
LINE
8
BLACK
6
CONTINUOUS
10
0.0726811023622047
20
1.8751246062992126
11
0.0607550787401575
21
1.8676309842519685
0
LINE
8
BLACK
6
CONTINUOUS
10
0.0607550787401575
20
1.8676309842519685
11
0.0480650393700787
21
1.8615198031496063
0
LINE
8
BLACK
6
CONTINUOUS
10
0.0480650393700787
20
1.8615198031496063
11
0.0347705511811024
21
1.8568678346456693
0
LINE
8
BLACK
6
CONTINUOUS
10
0.0347705511811024
20
1.8568678346456693
11
0.0210387795275591
21
1.8537336614173228
0
LINE
8
BLACK
6
CONTINUOUS
10
0.0210387795275591
20
1.8537336614173228
11
0.0070424409448819
21
1.8521566535433069
0
LINE
8
BLACK
6
CONTINUOUS
10
0.0070424409448819
20
1.8521566535433069
11
-0.0070424409448819
21
1.8521566535433069
0
LINE
8
BLACK
6
CONTINUOUS
10
-0.0070424409448819
20
1.8521566535433069
11
-0.0210387795275591
21
1.8537336614173228
0
LINE
8
BLACK
6
CONTINUOUS
10
-0.0210387795275591
20
1.8537336614173228
11
-0.0347705511811024
21
1.8568678346456693
0
LINE
8
BLACK
6
CONTINUOUS
10
-0.0347705511811024
20
1.8568678346456693
11
-0.0480650393700787
21
1.8615198031496063
0
LINE
8
BLACK
6
CONTINUOUS
10
-0.0480650393700787
20
1.8615198031496063
11
-0.0607550787401575
21
1.8676309842519685
0
LINE
8
BLACK
6
CONTINUOUS
10
-0.0607550787401575
20
1.8676309842519685
11
-0.0726811023622047
21
1.8751246062992126
0
LINE
8
BLACK
6
CONTINUOUS
10
-0.0726811023622047
20
1.8751246062992126
11
-0.0836931496062992
21
1.8839064173228346
0
LINE
8
BLACK
6
CONTINUOUS
10
-0.0836931496062992
20
1.8839064173228346
11
-0.0936526377952756
21
1.893865905511811
0
LINE
8
BLACK
6
CONTINUOUS
10
-0.0936526377952756
20
1.893865905511811
11
-0.1024344488188976
21
1.9048779527559054
0
LINE
8
BLACK
6
CONTINUOUS
10
-0.1024344488188976
20
1.9048779527559054
11
-0.1099280708661417
21
1.9168039763779527
0
LINE
8
BLACK
6
CONTINUOUS
10
-0.1099280708661417
20
1.9168039763779527
11
-0.1160392519685039
21
1.9294940157480314
0
LINE
8
BLACK
6
CONTINUOUS
10
-0.1160392519685039
20
1.9294940157480314
11
-0.1206912204724409
21
1.9427885039370079
0
LINE
8
BLACK
6
CONTINUOUS
10
-0.1206912204724409
20
1.9427885039370079
11
-0.1238253937007874
21
1.9565202755905511
0
LINE
8
BLACK
6
CONTINUOUS
10
-0.1238253937007874
20
1.9565202755905511
11
-0.1254024015748031
21
1.9705166141732282
0
LINE
8
BLACK
6
CONTINUOUS
10
-0.1254024015748031
20
1.9705166141732282
11
-0.1254024015748031
21
1.9837702362204723
0
LINE
8
BLACK
6
CONTINUOUS
10
-0.1254024015748031
20
1.9837702362204723
11
-0.1254024015748031
21
1.9846014960629921
0
LINE
8
BLACK
6
CONTINUOUS
10
-0.1254024015748031
20
1.9846014960629921
11
-0.1238253937007874
21
1.9985978346456692
0
LINE
8
BLACK
6
CONTINUOUS
10
-0.1238253937007874
20
1.9985978346456692
11
-0.1206912204724409
21
2.0123296062992124
0
LINE
8
BLACK
6
CONTINUOUS
10
-0.1206912204724409
20
2.0123296062992124
11
-0.1160392519685039
21
2.0256240944881889
0
LINE
8
BLACK
6
CONTINUOUS
10
-0.1160392519685039
20
2.0256240944881889
11
-0.1099280708661417
21
2.0383141338582678
0
LINE
8
BLACK
6
CONTINUOUS
10
-0.1099280708661417
20
2.0383141338582678
11
-0.1024344488188976
21
2.0502401574803151
0
LINE
8
BLACK
6
CONTINUOUS
10
-0.1024344488188976
20
2.0502401574803151
11
-0.0936526377952756
21
2.0612522047244095
0
LINE
8
BLACK
6
CONTINUOUS
10
-0.0936526377952756
20
2.0612522047244095
11
-0.0836931496062992
21
2.0712116929133857
0
LINE
8
BLACK
6
CONTINUOUS
10
-0.0836931496062992
20
2.0712116929133857
11
-0.0726811023622047
21
2.0799935039370077
0
LINE
8
BLACK
6
CONTINUOUS
10
-0.0726811023622047
20
2.0799935039370077
11
-0.0607550787401575
21
2.0874871259842518
0
LINE
8
BLACK
6
CONTINUOUS
10
-0.0607550787401575
20
2.0874871259842518
11
-0.0480650393700787
21
2.093598307086614
0
LINE
8
BLACK
6
CONTINUOUS
10
-0.0480650393700787
20
2.093598307086614
11
-0.0347705511811024
21
2.098250275590551
0
LINE
8
BLACK
6
CONTINUOUS
10
-0.0347705511811024
20
2.098250275590551
11
-0.0210387795275591
21
2.1013844488188975
0
LINE
8
BLACK
6
CONTINUOUS
10
-0.0210387795275591
20
2.1013844488188975
11
-0.0070424409448819
21
2.1029614566929133
0
LINE
8
BLACK
6
CONTINUOUS
10
-0.0070424409448819
20
2.1029614566929133
11
0.0070424409448819
21
2.1029614566929133
0
LINE
8
BLACK
6
CONTINUOUS
10
0.0070424409448819
20
2.1029614566929133
11
0.0210387795275591
21
2.1013844488188975
0
LINE
8
BLACK
6
CONTINUOUS
10
-0.1106
20
1.971347874015748
11
-0.1092091338582677
21
1.9590036614173227
0
LINE
8
BLACK
6
CONTINUOUS
10
-0.1092091338582677
20
1.9590036614173227
11
-0.1064448818897638
21
1.9468927952755906
0
LINE
8
BLACK
6
CONTINUOUS
10
-0.1064448818897638
20
1.9468927952755906
11
-0.1023420472440945
21
1.9351675984251968
0
LINE
8
BLACK
6
CONTINUOUS
10
-0.1023420472440945
20
1.9351675984251968
11
-0.0969522047244094
21
1.9239754724409448
0
LINE
8
BLACK
6
CONTINUOUS
10
-0.0969522047244094
20
1.9239754724409448
11
-0.0903431496062992
21
1.9134571653543306
0
LINE
8
BLACK
6
CONTINUOUS
10
-0.0903431496062992
20
1.9134571653543306
11
-0.0825979527559055
21
1.903745
0
LINE
8
BLACK
6
CONTINUOUS
10
-0.0825979527559055
20
1.903745
11
-0.0738140551181102
21
1.8949611023622046
0
LINE
8
BLACK
6
CONTINUOUS
10
-0.0738140551181102
20
1.8949611023622046
11
-0.0641018897637795
21
1.887215905511811
0
LINE
8
BLACK
6
CONTINUOUS
10
-0.0641018897637795
20
1.887215905511811
11
-0.0535835826771654
21
1.8806068503937008
0
LINE
8
BLACK
6
CONTINUOUS
10
-0.0535835826771654
20
1.8806068503937008
11
-0.0423914566929134
21
1.8752170078740158
0
LINE
8
BLACK
6
CONTINUOUS
10
-0.0423914566929134
20
1.8752170078740158
11
-0.0306662598425197
21
1.8711141732283465
0
LINE
8
BLACK
6
CONTINUOUS
10
-0.0306662598425197
20
1.8711141732283465
11
-0.0185553937007874
21
1.8683499212598424
0
LINE
8
BLACK
6
CONTINUOUS
10
-0.0185553937007874
20
1.8683499212598424
11
-0.0062111811023622
21
1.8669590551181101
0
LINE
8
BLACK
6
CONTINUOUS
10
-0.0062111811023622
20
1.8669590551181101
11
0.0062111811023622
21
1.8669590551181101
0
LINE
8
BLACK
6
CONTINUOUS
10
0.0062111811023622
20
1.8669590551181101
11
0.0185553937007874
21
1.8683499212598424
0
LINE
8
BLACK
6
CONTINUOUS
10
0.0185553937007874
20
1.8683499212598424
11
0.0306662598425197
21
1.8711141732283465
0
LINE
8
BLACK
6
CONTINUOUS
10
0.0306662598425197
20
1.8711141732283465
11
0.0423914566929134
21
1.8752170078740158
0
LINE
8
BLACK
6
CONTINUOUS
10
0.0423914566929134
20
1.8752170078740158
11
0.0535835826771654
21
1.8806068503937008
0
LINE
8
BLACK
6
CONTINUOUS
10
0.0535835826771654
20
1.8806068503937008
11
0.0641018897637795
21
1.887215905511811
0
LINE
8
BLACK
6
CONTINUOUS
10
0.0641018897637795
20
1.887215905511811
11
0.0738140551181102
21
1.8949611023622046
0
LINE
8
BLACK
6
CONTINUOUS
10
0.0738140551181102
20
1.8949611023622046
11
0.0825979527559055
21
1.903745
0
LINE
8
BLACK
6
CONTINUOUS
10
0.0825979527559055
20
1.903745
11
0.0903431496062992
21
1.9134571653543306
0
LINE
8
BLACK
6
CONTINUOUS
10
0.0903431496062992
20
1.9134571653543306
11
0.0969522047244094
21
1.9239754724409448
0
LINE
8
BLACK
6
CONTINUOUS
10
0.0969522047244094
20
1.9239754724409448
11
0.1023420472440945
21
1.9351675984251968
0
LINE
8
BLACK
6
CONTINUOUS
10
0.1023420472440945
20
1.9351675984251968
11
0.1064448818897638
21
1.9468927952755906
0
LINE
8
BLACK
6
CONTINUOUS
10
0.1064448818897638
20
1.9468927952755906
11
0.1092091338582677
21
1.9590036614173227
0
LINE
8
BLACK
6
CONTINUOUS
10
0.1092091338582677
20
1.9590036614173227
11
0.1106
21
1.971347874015748
0
LINE
8
BLACK
6
CONTINUOUS
10
0.1106
20
1.971347874015748
11
0.1106
21
1.9837702362204723
0
LINE
8
BLACK
6
CONTINUOUS
10
0.1106
20
1.9837702362204723
11
0.1092091338582677
21
1.9961144488188975
0
LINE
8
BLACK
6
CONTINUOUS
10
0.1092091338582677
20
1.9961144488188975
11
0.1064448818897638
21
2.0082253149606299
0
LINE
8
BLACK
6
CONTINUOUS
10
0.1064448818897638
20
2.0082253149606299
11
0.1023420472440945
21
2.0199505118110235
0
LINE
8
BLACK
6
CONTINUOUS
10
0.1023420472440945
20
2.0199505118110235
11
0.0969522047244094
21
2.0311426377952757
0
LINE
8
BLACK
6
CONTINUOUS
10
0.0969522047244094
20
2.0311426377952757
11
0.0903431496062992
21
2.0416609448818899
0
LINE
8
BLACK
6
CONTINUOUS
10
0.0903431496062992
20
2.0416609448818899
11
0.0825979527559055
21
2.0513731102362205
0
LINE
8
BLACK
6
CONTINUOUS
10
0.0825979527559055
20
2.0513731102362205
11
0.0738140551181102
21
2.0601570078740159
0
LINE
8
BLACK
6
CONTINUOUS
10
0.0738140551181102
20
2.0601570078740159
11
0.0641018897637795
21
2.0679022047244096
0
LINE
8
BLACK
6
CONTINUOUS
10
0.0641018897637795
20
2.0679022047244096
11
0.0535835826771654
21
2.0745112598425197
0
LINE
8
BLACK
6
CONTINUOUS
10
0.0535835826771654
20
2.0745112598425197
11
0.0423914566929134
21
2.0799011023622045
0
LINE
8
BLACK
6
CONTINUOUS
10
0.0423914566929134
20
2.0799011023622045
11
0.0306662598425197
21
2.084003937007874
0
LINE
8
BLACK
6
CONTINUOUS
10
0.0306662598425197
20
2.084003937007874
11
0.0185553937007874
21
2.0867681889763778
0
LINE
8
BLACK
6
CONTINUOUS
10
0.0185553937007874
20
2.0867681889763778
11
0.0062111811023622
21
2.0881590551181102
0
LINE
8
BLACK
6
CONTINUOUS
10
0.0062111811023622
20
2.0881590551181102
11
-0.0062111811023622
21
2.0881590551181102
0
LINE
8
BLACK
6
CONTINUOUS
10
-0.0062111811023622
20
2.0881590551181102
11
-0.0185553937007874
21
2.0867681889763778
0
LINE
8
BLACK
6
CONTINUOUS
10
-0.0185553937007874
20
2.0867681889763778
11
-0.0306662598425197
21
2.084003937007874
0
LINE
8
BLACK
6
CONTINUOUS
10
-0.0306662598425197
20
2.084003937007874
11
-0.0423914566929134
21
2.0799011023622045
0
LINE
8
BLACK
6
CONTINUOUS
10
-0.0423914566929134
20
2.0799011023622045
11
-0.0535835826771654
21
2.0745112598425197
0
LINE
8
BLACK
6
CONTINUOUS
10
-0.0535835826771654
20
2.0745112598425197
11
-0.0641018897637795
21
2.0679022047244096
0
LINE
8
BLACK
6
CONTINUOUS
10
-0.0641018897637795
20
2.0679022047244096
11
-0.0738140551181102
21
2.0601570078740159
0
LINE
8
BLACK
6
CONTINUOUS
10
-0.0738140551181102
20
2.0601570078740159
11
-0.0825979527559055
21
2.0513731102362205
0
LINE
8
BLACK
6
CONTINUOUS
10
-0.0825979527559055
20
2.0513731102362205
11
-0.0903431496062992
21
2.0416609448818899
0
LINE
8
BLACK
6
CONTINUOUS
10
-0.0903431496062992
20
2.0416609448818899
11
-0.0969522047244094
21
2.0311426377952757
0
LINE
8
BLACK
6
CONTINUOUS
10
-0.0969522047244094
20
2.0311426377952757
11
-0.1023420472440945
21
2.0199505118110235
0
LINE
8
BLACK
6
CONTINUOUS
10
-0.1023420472440945
20
2.0199505118110235
11
-0.1064448818897638
21
2.0082253149606299
0
LINE
8
BLACK
6
CONTINUOUS
10
-0.1064448818897638
20
2.0082253149606299
11
-0.1092091338582677
21
1.9961144488188975
0
LINE
8
BLACK
6
CONTINUOUS
10
-0.1092091338582677
20
1.9961144488188975
11
-0.1106
21
1.9837702362204723
0
LINE
8
BLACK
6
CONTINUOUS
10
-0.1106
20
1.9837702362204723
11
-0.1106
21
1.971347874015748
0
LINE
8
BLACK
6
CONTINUOUS
10
1.221038779527559
20
2.1013844488188975
11
1.2347705511811022
21
2.098250275590551
0
LINE
8
BLACK
6
CONTINUOUS
10
1.2347705511811022
20
2.098250275590551
11
1.2480650393700787
21
2.093598307086614
0
LINE
8
BLACK
6
CONTINUOUS
10
1.2480650393700787
20
2.093598307086614
11
1.2607550787401574
21
2.0874871259842518
0
LINE
8
BLACK
6
CONTINUOUS
10
1.2607550787401574
20
2.0874871259842518
11
1.2726811023622047
21
2.0799935039370077
0
LINE
8
BLACK
6
CONTINUOUS
10
1.2726811023622047
20
2.0799935039370077
11
1.2836931496062991
21
2.0712116929133857
0
LINE
8
BLACK
6
CONTINUOUS
10
1.2836931496062991
20
2.0712116929133857
11
1.2936526377952755
21
2.0612522047244095
0
LINE
8
BLACK
6
CONTINUOUS
10
1.2936526377952755
20
2.0612522047244095
11
1.3024344488188977
21
2.0502401574803151
0
LINE
8
BLACK
6
CONTINUOUS
10
1.3024344488188977
20
2.0502401574803151
11
1.3099280708661416
21
2.0383141338582678
0
LINE
8
BLACK
6
CONTINUOUS
10
1.3099280708661416
20
2.0383141338582678
11
1.3160392519685038
21
2.0256240944881889
0
LINE
8
BLACK
6
CONTINUOUS
10
1.3160392519685038
20
2.0256240944881889
11
1.3206912204724408
21
2.0123296062992124
0
LINE
8
BLACK
6
CONTINUOUS
10
1.3206912204724408
20
2.0123296062992124
11
1.3238253937007873
21
1.9985978346456692
0
LINE
8
BLACK
6
CONTINUOUS
10
1.3238253937007873
20
1.9985978346456692
11
1.3254024015748032
21
1.9846014960629921
0
LINE
8
BLACK
6
CONTINUOUS
10
1.3254024015748032
20
1.9846014960629921
11
1.3254024015748032
21
1.9705166141732282
0
LINE
8
BLACK
6
CONTINUOUS
10
1.3254024015748032
20
1.9705166141732282
11
1.3238253937007873
21
1.9565202755905511
0
LINE
8
BLACK
6
CONTINUOUS
10
1.3238253937007873
20
1.9565202755905511
11
1.3206912204724408
21
1.9427885039370079
0
LINE
8
BLACK
6
CONTINUOUS
10
1.3206912204724408
20
1.9427885039370079
11
1.3160392519685038
21
1.9294940157480314
0
LINE
8
BLACK
6
CONTINUOUS
10
1.3160392519685038
20
1.9294940157480314
11
1.3099280708661416
21
1.9168039763779527
0
LINE
8
BLACK
6
CONTINUOUS
10
1.3099280708661416
20
1.9168039763779527
11
1.3024344488188977
21
1.9048779527559054
0
LINE
8
BLACK
6
CONTINUOUS
10
1.3024344488188977
20
1.9048779527559054
11
1.2936526377952755
21
1.893865905511811
0
LINE
8
BLACK
6
CONTINUOUS
10
1.2936526377952755
20
1.893865905511811
11
1.2836931496062991
21
1.8839064173228346
0
LINE
8
BLACK
6
CONTINUOUS
10
1.2836931496062991
20
1.8839064173228346
11
1.2726811023622047
21
1.8751246062992126
0
LINE
8
BLACK
6
CONTINUOUS
10
1.2726811023622047
20
1.8751246062992126
11
1.2607550787401574
21
1.8676309842519685
0
LINE
8
BLACK
6
CONTINUOUS
10
1.2607550787401574
20
1.8676309842519685
11
1.2480650393700787
21
1.8615198031496063
0
LINE
8
BLACK
6
CONTINUOUS
10
1.2480650393700787
20
1.8615198031496063
11
1.2347705511811022
21
1.8568678346456693
0
LINE
8
BLACK
6
CONTINUOUS
10
1.2347705511811022
20
1.8568678346456693
11
1.221038779527559
21
1.8537336614173228
0
LINE
8
BLACK
6
CONTINUOUS
10
1.221038779527559
20
1.8537336614173228
11
1.2070424409448819
21
1.8521566535433069
0
LINE
8
BLACK
6
CONTINUOUS
10
1.2070424409448819
20
1.8521566535433069
11
1.192957559055118
21
1.8521566535433069
0
LINE
8
BLACK
6
CONTINUOUS
10
1.192957559055118
20
1.8521566535433069
11
1.1789612204724409
21
1.8537336614173228
0
LINE
8
BLACK
6
CONTINUOUS
10
1.1789612204724409
20
1.8537336614173228
11
1.1652294488188977
21
1.8568678346456693
0
LINE
8
BLACK
6
CONTINUOUS
10
1.1652294488188977
20
1.8568678346456693
11
1.1519349606299212
21
1.8615198031496063
0
LINE
8
BLACK
6
CONTINUOUS
10
1.1519349606299212
20
1.8615198031496063
11
1.1392449212598426
21
1.8676309842519685
0
LINE
8
BLACK
6
CONTINUOUS
10
1.1392449212598426
20
1.8676309842519685
11
1.1273188976377952
21
1.8751246062992126
0
LINE
8
BLACK
6
CONTINUOUS
10
1.1273188976377952
20
1.8751246062992126
11
1.1163068503937008
21
1.8839064173228346
0
LINE
8
BLACK
6
CONTINUOUS
10
1.1163068503937008
20
1.8839064173228346
11
1.1063473622047244
21
1.893865905511811
0
LINE
8
BLACK
6
CONTINUOUS
10
1.1063473622047244
20
1.893865905511811
11
1.0975655511811024
21
1.9048779527559054
0
LINE
8
BLACK
6
CONTINUOUS
10
1.0975655511811024
20
1.9048779527559054
11
1.0900719291338583
21
1.9168039763779527
0
LINE
8
BLACK
6
CONTINUOUS
10
1.0900719291338583
20
1.9168039763779527
11
1.0839607480314961
21
1.9294940157480314
0
LINE
8
BLACK
6
CONTINUOUS
10
1.0839607480314961
20
1.9294940157480314
11
1.0793087795275591
21
1.9427885039370079
0
LINE
8
BLACK
6
CONTINUOUS
10
1.0793087795275591
20
1.9427885039370079
11
1.0761746062992126
21
1.9565202755905511
0
LINE
8
BLACK
6
CONTINUOUS
10
1.0761746062992126
20
1.9565202755905511
11
1.0745975984251968
21
1.9705166141732282
0
LINE
8
BLACK
6
CONTINUOUS
10
1.0745975984251968
20
1.9705166141732282
11
1.0745975984251968
21
1.9837702362204723
0
LINE
8
BLACK
6
CONTINUOUS
10
1.0745975984251968
20
1.9837702362204723
11
1.0745975984251968
21
1.9846014960629921
0
LINE
8
BLACK
6
CONTINUOUS
10
1.0745975984251968
20
1.9846014960629921
11
1.0761746062992126
21
1.9985978346456692
0
LINE
8
BLACK
6
CONTINUOUS
10
1.0761746062992126
20
1.9985978346456692
11
1.0793087795275591
21
2.0123296062992124
0
LINE
8
BLACK
6
CONTINUOUS
10
1.0793087795275591
20
2.0123296062992124
11
1.0839607480314961
21
2.0256240944881889
0
LINE
8
BLACK
6
CONTINUOUS
10
1.0839607480314961
20
2.0256240944881889
11
1.0900719291338583
21
2.0383141338582678
0
LINE
8
BLACK
6
CONTINUOUS
10
1.0900719291338583
20
2.0383141338582678
11
1.0975655511811024
21
2.0502401574803151
0
LINE
8
BLACK
6
CONTINUOUS
10
1.0975655511811024
20
2.0502401574803151
11
1.1063473622047244
21
2.0612522047244095
0
LINE
8
BLACK
6
CONTINUOUS
10
1.1063473622047244
20
2.0612522047244095
11
1.1163068503937008
21
2.0712116929133857
0
LINE
8
BLACK
6
CONTINUOUS
10
1.1163068503937008
20
2.0712116929133857
11
1.1273188976377952
21
2.0799935039370077
0
LINE
8
BLACK
6
CONTINUOUS
10
1.1273188976377952
20
2.0799935039370077
11
1.1392449212598426
21
2.0874871259842518
0
LINE
8
BLACK
6
CONTINUOUS
10
1.1392449212598426
20
2.0874871259842518
11
1.1519349606299212
21
2.093598307086614
0
LINE
8
BLACK
6
CONTINUOUS
10
1.1519349606299212
20
2.093598307086614
11
1.1652294488188977
21
2.098250275590551
0
LINE
8
BLACK
6
CONTINUOUS
10
1.1652294488188977
20
2.098250275590551
11
1.1789612204724409
21
2.1013844488188975
0
LINE
8
BLACK
6
CONTINUOUS
10
1.1789612204724409
20
2.1013844488188975
11
1.192957559055118
21
2.1029614566929133
0
LINE
8
BLACK
6
CONTINUOUS
10
1.192957559055118
20
2.1029614566929133
11
1.2070424409448819
21
2.1029614566929133
0
LINE
8
BLACK
6
CONTINUOUS
10
1.2070424409448819
20
2.1029614566929133
11
1.221038779527559
21
2.1013844488188975
0
LINE
8
BLACK
6
CONTINUOUS
10
1.0893999999999999
20
1.971347874015748
11
1.0907908661417323
21
1.9590036614173227
0
LINE
8
BLACK
6
CONTINUOUS
10
1.0907908661417323
20
1.9590036614173227
11
1.0935551181102361
21
1.9468927952755906
0
LINE
8
BLACK
6
CONTINUOUS
10
1.0935551181102361
20
1.9468927952755906
11
1.0976579527559054
21
1.9351675984251968
0
LINE
8
BLACK
6
CONTINUOUS
10
1.0976579527559054
20
1.9351675984251968
11
1.1030477952755906
21
1.9239754724409448
0
LINE
8
BLACK
6
CONTINUOUS
10
1.1030477952755906
20
1.9239754724409448
11
1.1096568503937008
21
1.9134571653543306
0
LINE
8
BLACK
6
CONTINUOUS
10
1.1096568503937008
20
1.9134571653543306
11
1.1174020472440944
21
1.903745
0
LINE
8
BLACK
6
CONTINUOUS
10
1.1174020472440944
20
1.903745
11
1.1261859448818898
21
1.8949611023622046
0
LINE
8
BLACK
6
CONTINUOUS
10
1.1261859448818898
20
1.8949611023622046
11
1.1358981102362204
21
1.887215905511811
0
LINE
8
BLACK
6
CONTINUOUS
10
1.1358981102362204
20
1.887215905511811
11
1.1464164173228346
21
1.8806068503937008
0
LINE
8
BLACK
6
CONTINUOUS
10
1.1464164173228346
20
1.8806068503937008
11
1.1576085433070866
21
1.8752170078740158
0
LINE
8
BLACK
6
CONTINUOUS
10
1.1576085433070866
20
1.8752170078740158
11
1.1693337401574804
21
1.8711141732283465
0
LINE
8
BLACK
6
CONTINUOUS
10
1.1693337401574804
20
1.8711141732283465
11
1.1814446062992126
21
1.8683499212598424
0
LINE
8
BLACK
6
CONTINUOUS
10
1.1814446062992126
20
1.8683499212598424
11
1.1937888188976378
21
1.8669590551181101
0
LINE
8
BLACK
6
CONTINUOUS
10
1.1937888188976378
20
1.8669590551181101
11
1.2062111811023621
21
1.8669590551181101
0
LINE
8
BLACK
6
CONTINUOUS
10
1.2062111811023621
20
1.8669590551181101
11
1.2185553937007874
21
1.8683499212598424
0
LINE
8
BLACK
6
CONTINUOUS
10
1.2185553937007874
20
1.8683499212598424
11
1.2306662598425198
21
1.8711141732283465
0
LINE
8
BLACK
6
CONTINUOUS
10
1.2306662598425198
20
1.8711141732283465
11
1.2423914566929133
21
1.8752170078740158
0
LINE
8
BLACK
6
CONTINUOUS
10
1.2423914566929133
20
1.8752170078740158
11
1.2535835826771653
21
1.8806068503937008
0
LINE
8
BLACK
6
CONTINUOUS
10
1.2535835826771653
20
1.8806068503937008
11
1.2641018897637795
21
1.887215905511811
0
LINE
8
BLACK
6
CONTINUOUS
10
1.2641018897637795
20
1.887215905511811
11
1.2738140551181103
21
1.8949611023622046
0
LINE
8
BLACK
6
CONTINUOUS
10
1.2738140551181103
20
1.8949611023622046
11
1.2825979527559055
21
1.903745
0
LINE
8
BLACK
6
CONTINUOUS
10
1.2825979527559055
20
1.903745
11
1.2903431496062991
21
1.9134571653543306
0
LINE
8
BLACK
6
CONTINUOUS
10
1.2903431496062991
20
1.9134571653543306
11
1.2969522047244095
21
1.9239754724409448
0
LINE
8
BLACK
6
CONTINUOUS
10
1.2969522047244095
20
1.9239754724409448
11
1.3023420472440945
21
1.9351675984251968
0
LINE
8
BLACK
6
CONTINUOUS
10
1.3023420472440945
20
1.9351675984251968
11
1.3064448818897638
21
1.9468927952755906
0
LINE
8
BLACK
6
CONTINUOUS
10
1.3064448818897638
20
1.9468927952755906
11
1.3092091338582676
21
1.9590036614173227
0
LINE
8
BLACK
6
CONTINUOUS
10
1.3092091338582676
20
1.9590036614173227
11
1.3106
21
1.971347874015748
0
LINE
8
BLACK
6
CONTINUOUS
10
1.3106
20
1.971347874015748
11
1.3106
21
1.9837702362204723
0
LINE
8
BLACK
6
CONTINUOUS
10
1.3106
20
1.9837702362204723
11
1.3092091338582676
21
1.9961144488188975
0
LINE
8
BLACK
6
CONTINUOUS
10
1.3092091338582676
20
1.9961144488188975
11
1.3064448818897638
21
2.0082253149606299
0
LINE
8
BLACK
6
CONTINUOUS
10
1.3064448818897638
20
2.0082253149606299
11
1.3023420472440945
21
2.0199505118110235
0
LINE
8
BLACK
6
CONTINUOUS
10
1.3023420472440945
20
2.0199505118110235
11
1.2969522047244095
21
2.0311426377952757
0
LINE
8
BLACK
6
CONTINUOUS
10
1.2969522047244095
20
2.0311426377952757
11
1.2903431496062991
21
2.0416609448818899
0
LINE
8
BLACK
6
CONTINUOUS
10
1.2903431496062991
20
2.0416609448818899
11
1.2825979527559055
21
2.0513731102362205
0
LINE
8
BLACK
6
CONTINUOUS
10
1.2825979527559055
20
2.0513731102362205
11
1.2738140551181103
21
2.0601570078740159
0
LINE
8
BLACK
6
CONTINUOUS
10
1.2738140551181103
20
2.0601570078740159
11
1.2641018897637795
21
2.0679022047244096
0
LINE
8
BLACK
6
CONTINUOUS
10
1.2641018897637795
20
2.0679022047244096
11
1.2535835826771653
21
2.0745112598425197
0
LINE
8
BLACK
6
CONTINUOUS
10
1.2535835826771653
20
2.0745112598425197
11
1.2423914566929133
21
2.0799011023622045
0
LINE
8
BLACK
6
CONTINUOUS
10
1.2423914566929133
20
2.0799011023622045
11
1.2306662598425198
21
2.084003937007874
0
LINE
8
BLACK
6
CONTINUOUS
10
1.2306662598425198
20
2.084003937007874
11
1.2185553937007874
21
2.0867681889763778
0
LINE
8
BLACK
6
CONTINUOUS
10
1.2185553937007874
20
2.0867681889763778
11
1.2062111811023621
21
2.0881590551181102
0
LINE
8
BLACK
6
CONTINUOUS
10
1.2062111811023621
20
2.0881590551181102
11
1.1937888188976378
21
2.0881590551181102
0
LINE
8
BLACK
6
CONTINUOUS
10
1.1937888188976378
20
2.0881590551181102
11
1.1814446062992126
21
2.0867681889763778
0
LINE
8
BLACK
6
CONTINUOUS
10
1.1814446062992126
20
2.0867681889763778
11
1.1693337401574804
21
2.084003937007874
0
LINE
8
BLACK
6
CONTINUOUS
10
1.1693337401574804
20
2.084003937007874
11
1.1576085433070866
21
2.0799011023622045
0
LINE
8
BLACK
6
CONTINUOUS
10
1.1576085433070866
20
2.0799011023622045
11
1.1464164173228346
21
2.0745112598425197
0
LINE
8
BLACK
6
CONTINUOUS
10
1.1464164173228346
20
2.0745112598425197
11
1.1358981102362204
21
2.0679022047244096
0
LINE
8
BLACK
6
CONTINUOUS
10
1.1358981102362204
20
2.0679022047244096
11
1.1261859448818898
21
2.0601570078740159
0
LINE
8
BLACK
6
CONTINUOUS
10
1.1261859448818898
20
2.0601570078740159
11
1.1174020472440944
21
2.0513731102362205
0
LINE
8
BLACK
6
CONTINUOUS
10
1.1174020472440944
20
2.0513731102362205
11
1.1096568503937008
21
2.0416609448818899
0
LINE
8
BLACK
6
CONTINUOUS
10
1.1096568503937008
20
2.0416609448818899
11
1.1030477952755906
21
2.0311426377952757
0
LINE
8
BLACK
6
CONTINUOUS
10
1.1030477952755906
20
2.0311426377952757
11
1.0976579527559054
21
2.0199505118110235
0
LINE
8
BLACK
6
CONTINUOUS
10
1.0976579527559054
20
2.0199505118110235
11
1.0935551181102361
21
2.0082253149606299
0
LINE
8
BLACK
6
CONTINUOUS
10
1.0935551181102361
20
2.0082253149606299
11
1.0907908661417323
21
1.9961144488188975
0
LINE
8
BLACK
6
CONTINUOUS
10
1.0907908661417323
20
1.9961144488188975
11
1.0893999999999999
21
1.9837702362204723
0
LINE
8
BLACK
6
CONTINUOUS
10
1.0893999999999999
20
1.9837702362204723
11
1.0893999999999999
21
1.971347874015748
0
CIRCLE
8
BLACK
10
0.
20
1.9775590551181101
40
0.0068897637795276
0
CIRCLE
8
BLACK
10
1.2
20
0.0031496062992126
40
0.0068897637795276
0
CIRCLE
8
BLACK
10
0.
20
0.0031496062992126
40
0.0068897637795276
0
CIRCLE
8
BLACK
10
1.2
20
1.9775590551181101
40
0.0068897637795276
0
CIRCLE
8
BLACK
10
0.889763779527559
20
2.0283464566929132
40
0.0068897637795276
0
CIRCLE
8
BLACK
10
0.889763779527559
20
1.9283464566929134
40
0.0068897637795276
0
CIRCLE
8
BLACK
10
0.7897637795275591
20
2.0283464566929132
40
0.0068897637795276
0
CIRCLE
8
BLACK
10
0.7897637795275591
20
1.9283464566929134
40
0.0068897637795276
0
CIRCLE
8
BLACK
10
0.6897637795275591
20
2.0283464566929132
40
0.0068897637795276
0
CIRCLE
8
BLACK
10
0.6897637795275591
20
1.9283464566929134
40
0.0068897637795276
0
CIRCLE
8
BLACK
10
0.5897637795275591
20
2.0283464566929132
40
0.0068897637795276
0
CIRCLE
8
BLACK
10
0.5897637795275591
20
1.9283464566929134
40
0.0068897637795276
0
CIRCLE
8
BLACK
10
0.4897637795275591
20
2.0283464566929132
40
0.0068897637795276
0
CIRCLE
8
BLACK
10
0.4897637795275591
20
1.9283464566929134
40
0.0068897637795276
0
CIRCLE
8
BLACK
10
0.389763779527559
20
2.0283464566929132
40
0.0068897637795276
0
CIRCLE
8
BLACK
10
0.389763779527559
20
1.9283464566929134
40
0.0068897637795276
0
CIRCLE
8
BLACK
10
0.2897637795275591
20
2.0283464566929132
40
0.0068897637795276
0
CIRCLE
8
BLACK
10
0.2897637795275591
20
1.9283464566929134
40
0.0068897637795276
0
CIRCLE
8
BLACK
10
0.
20
1.9775590551181101
40
0.0068897637795276
0
CIRCLE
8
BLACK
10
1.2
20
0.0031496062992126
40
0.0068897637795276
0
CIRCLE
8
BLACK
10
0.
20
0.0031496062992126
40
0.0068897637795276
0
CIRCLE
8
BLACK
10
1.2
20
1.9775590551181101
40
0.0068897637795276
0
CIRCLE
8
BLACK
10
0.889763779527559
20
2.0283464566929132
40
0.0068897637795276
0
CIRCLE
8
BLACK
10
0.889763779527559
20
1.9283464566929134
40
0.0068897637795276
0
CIRCLE
8
BLACK
10
0.7897637795275591
20
2.0283464566929132
40
0.0068897637795276
0
CIRCLE
8
BLACK
10
0.7897637795275591
20
1.9283464566929134
40
0.0068897637795276
0
CIRCLE
8
BLACK
10
0.6897637795275591
20
2.0283464566929132
40
0.0068897637795276
0
CIRCLE
8
BLACK
10
0.6897637795275591
20
1.9283464566929134
40
0.0068897637795276
0
CIRCLE
8
BLACK
10
0.5897637795275591
20
2.0283464566929132
40
0.0068897637795276
0
CIRCLE
8
BLACK
10
0.5897637795275591
20
1.9283464566929134
40
0.0068897637795276
0
CIRCLE
8
BLACK
10
0.4897637795275591
20
2.0283464566929132
40
0.0068897637795276
0
CIRCLE
8
BLACK
10
0.4897637795275591
20
1.9283464566929134
40
0.0068897637795276
0
CIRCLE
8
BLACK
10
0.389763779527559
20
2.0283464566929132
40
0.0068897637795276
0
CIRCLE
8
BLACK
10
0.389763779527559
20
1.9283464566929134
40
0.0068897637795276
0
CIRCLE
8
BLACK
10
0.2897637795275591
20
2.0283464566929132
40
0.0068897637795276
0
CIRCLE
8
BLACK
10
0.2897637795275591
20
1.9283464566929134
40
0.0068897637795276
  0
ENDSEC
  0
EOF
