  0
SECTION
  2
HEADER
  9
$ANGBASE
  50
0.0
  9
$ANGDIR
  70
1
  9
$MEASUREMENT
  70
0
  9
$INSUNITS
  70
1
  0
ENDSEC
  0
SECTION
  2
TABLES
  0
TABLE
  2
LTYPE
  70
4
  0
LTYPE
  5
40F
  2
CONTINUOUS
  70
0
  3
Solid line
  72
65
  73
0
  40
0.0
  0
LTYPE
  5
410
  2
DASHDOT
 70
0
  3
Dash Dot ____ _ ____ _
 72
65
 73
4
 40
2.0
 49
1.25
 49
-0.25
 49
0.25
 49
-0.25
  0
LTYPE
  5
411
  2
DASHED
 70
0
  3
Dashed __ __ __ __ __
 72
65
 73
2
 40
0.75
 49
0.5
 49
-0.25
  0
LTYPE
  5
43B
  2
DOTTED
 70
0
  3
Dotted .  .  .  .
 72
65
 73
2
 40
0.2
 49
0.0
 49
-0.2
  0
ENDTAB
  0
TABLE
  2
STYLE
  70
4
  0
STYLE
  2
KICAD
  70
0
  40
0
  41
1
  42
1
  50
0
  71
0
  3
isocp.shx
  0
STYLE
  2
KICADB
  70
0
  40
0
  41
1
  42
1
  50
0
  71
0
  3
isocp.shx
  0
STYLE
  2
KICADI
  70
0
  40
0
  41
1
  42
1
  50
15
  71
0
  3
isocp.shx
  0
STYLE
  2
KICADBI
  70
0
  40
0
  41
1
  42
1
  50
15
  71
0
  3
isocp.shx
  0
ENDTAB
  0
TABLE
  2
LAYER
  70
1
  0
LAYER
  2
BLACK
  70
0
  62
250
  6
CONTINUOUS
  0
ENDTAB
  0
ENDSEC
  0
SECTION
  2
ENTITIES
0
LINE
8
BLACK
6
CONTINUOUS
10
0.7072493700787401
20
0.3638265354330709
11
0.7083147244094488
21
0.3627611811023622
0
LINE
8
BLACK
6
CONTINUOUS
10
0.7083147244094488
20
0.3627611811023622
11
0.7084645669291338
21
0.362007874015748
0
LINE
8
BLACK
6
CONTINUOUS
10
0.7084645669291338
20
0.362007874015748
11
0.7084645669291338
21
0.2694881889763779
0
LINE
8
BLACK
6
CONTINUOUS
10
0.7084645669291338
20
0.2694881889763779
11
0.7083147244094488
21
0.2687348818897638
0
LINE
8
BLACK
6
CONTINUOUS
10
0.7083147244094488
20
0.2687348818897638
11
0.7072493700787401
21
0.2676695275590551
0
LINE
8
BLACK
6
CONTINUOUS
10
0.7072493700787401
20
0.2676695275590551
11
0.706496062992126
21
0.2675196850393701
0
LINE
8
BLACK
6
CONTINUOUS
10
0.706496062992126
20
0.2675196850393701
11
0.4978346456692913
21
0.2675196850393701
0
LINE
8
BLACK
6
CONTINUOUS
10
0.4978346456692913
20
0.2675196850393701
11
0.4970813385826772
21
0.2676695275590551
0
LINE
8
BLACK
6
CONTINUOUS
10
0.4970813385826772
20
0.2676695275590551
11
0.4960159842519685
21
0.2687348818897638
0
LINE
8
BLACK
6
CONTINUOUS
10
0.4960159842519685
20
0.2687348818897638
11
0.4958661417322834
21
0.2694881889763779
0
LINE
8
BLACK
6
CONTINUOUS
10
0.4958661417322834
20
0.2694881889763779
11
0.4958661417322834
21
0.362007874015748
0
LINE
8
BLACK
6
CONTINUOUS
10
0.4958661417322834
20
0.362007874015748
11
0.4960159842519685
21
0.3627611811023622
0
LINE
8
BLACK
6
CONTINUOUS
10
0.4960159842519685
20
0.3627611811023622
11
0.4970813385826772
21
0.3638265354330709
0
LINE
8
BLACK
6
CONTINUOUS
10
0.4970813385826772
20
0.3638265354330709
11
0.4978346456692913
21
0.3639763779527559
0
LINE
8
BLACK
6
CONTINUOUS
10
0.4978346456692913
20
0.3639763779527559
11
0.706496062992126
21
0.3639763779527559
0
LINE
8
BLACK
6
CONTINUOUS
10
0.706496062992126
20
0.3639763779527559
11
0.7072493700787401
21
0.3638265354330709
0
LINE
8
BLACK
6
CONTINUOUS
10
0.4998031496062992
20
0.3600393700787402
11
0.4998031496062992
21
0.2714566929133858
0
LINE
8
BLACK
6
CONTINUOUS
10
0.4998031496062992
20
0.2714566929133858
11
0.7045275590551181
21
0.2714566929133858
0
LINE
8
BLACK
6
CONTINUOUS
10
0.7045275590551181
20
0.2714566929133858
11
0.7045275590551181
21
0.3600393700787402
0
LINE
8
BLACK
6
CONTINUOUS
10
0.7045275590551181
20
0.3600393700787402
11
0.4998031496062992
21
0.3600393700787402
0
LINE
8
BLACK
6
CONTINUOUS
10
0.7466194488188976
20
0.4228816535433071
11
0.7476848031496063
21
0.4218162992125984
0
LINE
8
BLACK
6
CONTINUOUS
10
0.7476848031496063
20
0.4218162992125984
11
0.7478346456692914
21
0.4210629921259842
0
LINE
8
BLACK
6
CONTINUOUS
10
0.7478346456692914
20
0.4210629921259842
11
0.7478346456692914
21
0.2301181102362205
0
LINE
8
BLACK
6
CONTINUOUS
10
0.7478346456692914
20
0.2301181102362205
11
0.7476848031496063
21
0.2293648031496063
0
LINE
8
BLACK
6
CONTINUOUS
10
0.7476848031496063
20
0.2293648031496063
11
0.7466194488188976
21
0.2282994488188976
0
LINE
8
BLACK
6
CONTINUOUS
10
0.7466194488188976
20
0.2282994488188976
11
0.7458661417322835
21
0.2281496062992126
0
LINE
8
BLACK
6
CONTINUOUS
10
0.7458661417322835
20
0.2281496062992126
11
0.4584645669291338
21
0.2281496062992126
0
LINE
8
BLACK
6
CONTINUOUS
10
0.4584645669291338
20
0.2281496062992126
11
0.4577112598425197
21
0.2282994488188976
0
LINE
8
BLACK
6
CONTINUOUS
10
0.4577112598425197
20
0.2282994488188976
11
0.456645905511811
21
0.2293648031496063
0
LINE
8
BLACK
6
CONTINUOUS
10
0.456645905511811
20
0.2293648031496063
11
0.456496062992126
21
0.2301181102362205
0
LINE
8
BLACK
6
CONTINUOUS
10
0.456496062992126
20
0.2301181102362205
11
0.456496062992126
21
0.4210629921259842
0
LINE
8
BLACK
6
CONTINUOUS
10
0.456496062992126
20
0.4210629921259842
11
0.456645905511811
21
0.4218162992125984
0
LINE
8
BLACK
6
CONTINUOUS
10
0.456645905511811
20
0.4218162992125984
11
0.4577112598425197
21
0.4228816535433071
0
LINE
8
BLACK
6
CONTINUOUS
10
0.4577112598425197
20
0.4228816535433071
11
0.4584645669291338
21
0.4230314960629921
0
LINE
8
BLACK
6
CONTINUOUS
10
0.4584645669291338
20
0.4230314960629921
11
0.7458661417322835
21
0.4230314960629921
0
LINE
8
BLACK
6
CONTINUOUS
10
0.7458661417322835
20
0.4230314960629921
11
0.7466194488188976
21
0.4228816535433071
0
LINE
8
BLACK
6
CONTINUOUS
10
0.4604330708661417
20
0.4190944881889764
11
0.4604330708661417
21
0.2320866141732283
0
LINE
8
BLACK
6
CONTINUOUS
10
0.4604330708661417
20
0.2320866141732283
11
0.7438976377952756
21
0.2320866141732283
0
LINE
8
BLACK
6
CONTINUOUS
10
0.7438976377952756
20
0.2320866141732283
11
0.7438976377952756
21
0.4190944881889764
0
LINE
8
BLACK
6
CONTINUOUS
10
0.7438976377952756
20
0.4190944881889764
11
0.4604330708661417
21
0.4190944881889764
0
CIRCLE
8
BLACK
10
0.
20
1.9775590551181101
40
0.0068897637795276
0
CIRCLE
8
BLACK
10
1.2
20
0.0031496062992126
40
0.0068897637795276
0
CIRCLE
8
BLACK
10
0.
20
0.0031496062992126
40
0.0068897637795276
0
CIRCLE
8
BLACK
10
1.2
20
1.9775590551181101
40
0.0068897637795276
0
CIRCLE
8
BLACK
10
0.889763779527559
20
2.0283464566929132
40
0.0068897637795276
0
CIRCLE
8
BLACK
10
0.889763779527559
20
1.9283464566929134
40
0.0068897637795276
0
CIRCLE
8
BLACK
10
0.7897637795275591
20
2.0283464566929132
40
0.0068897637795276
0
CIRCLE
8
BLACK
10
0.7897637795275591
20
1.9283464566929134
40
0.0068897637795276
0
CIRCLE
8
BLACK
10
0.6897637795275591
20
2.0283464566929132
40
0.0068897637795276
0
CIRCLE
8
BLACK
10
0.6897637795275591
20
1.9283464566929134
40
0.0068897637795276
0
CIRCLE
8
BLACK
10
0.5897637795275591
20
2.0283464566929132
40
0.0068897637795276
0
CIRCLE
8
BLACK
10
0.5897637795275591
20
1.9283464566929134
40
0.0068897637795276
0
CIRCLE
8
BLACK
10
0.4897637795275591
20
2.0283464566929132
40
0.0068897637795276
0
CIRCLE
8
BLACK
10
0.4897637795275591
20
1.9283464566929134
40
0.0068897637795276
0
CIRCLE
8
BLACK
10
0.389763779527559
20
2.0283464566929132
40
0.0068897637795276
0
CIRCLE
8
BLACK
10
0.389763779527559
20
1.9283464566929134
40
0.0068897637795276
0
CIRCLE
8
BLACK
10
0.2897637795275591
20
2.0283464566929132
40
0.0068897637795276
0
CIRCLE
8
BLACK
10
0.2897637795275591
20
1.9283464566929134
40
0.0068897637795276
0
CIRCLE
8
BLACK
10
0.
20
1.9775590551181101
40
0.0068897637795276
0
CIRCLE
8
BLACK
10
1.2
20
0.0031496062992126
40
0.0068897637795276
0
CIRCLE
8
BLACK
10
0.
20
0.0031496062992126
40
0.0068897637795276
0
CIRCLE
8
BLACK
10
1.2
20
1.9775590551181101
40
0.0068897637795276
0
CIRCLE
8
BLACK
10
0.889763779527559
20
2.0283464566929132
40
0.0068897637795276
0
CIRCLE
8
BLACK
10
0.889763779527559
20
1.9283464566929134
40
0.0068897637795276
0
CIRCLE
8
BLACK
10
0.7897637795275591
20
2.0283464566929132
40
0.0068897637795276
0
CIRCLE
8
BLACK
10
0.7897637795275591
20
1.9283464566929134
40
0.0068897637795276
0
CIRCLE
8
BLACK
10
0.6897637795275591
20
2.0283464566929132
40
0.0068897637795276
0
CIRCLE
8
BLACK
10
0.6897637795275591
20
1.9283464566929134
40
0.0068897637795276
0
CIRCLE
8
BLACK
10
0.5897637795275591
20
2.0283464566929132
40
0.0068897637795276
0
CIRCLE
8
BLACK
10
0.5897637795275591
20
1.9283464566929134
40
0.0068897637795276
0
CIRCLE
8
BLACK
10
0.4897637795275591
20
2.0283464566929132
40
0.0068897637795276
0
CIRCLE
8
BLACK
10
0.4897637795275591
20
1.9283464566929134
40
0.0068897637795276
0
CIRCLE
8
BLACK
10
0.389763779527559
20
2.0283464566929132
40
0.0068897637795276
0
CIRCLE
8
BLACK
10
0.389763779527559
20
1.9283464566929134
40
0.0068897637795276
0
CIRCLE
8
BLACK
10
0.2897637795275591
20
2.0283464566929132
40
0.0068897637795276
0
CIRCLE
8
BLACK
10
0.2897637795275591
20
1.9283464566929134
40
0.0068897637795276
  0
ENDSEC
  0
EOF
