  0
SECTION
  2
HEADER
  9
$ANGBASE
  50
0.0
  9
$ANGDIR
  70
1
  9
$MEASUREMENT
  70
0
  0
ENDSEC
  0
SECTION
  2
TABLES
  0
TABLE
  2
LTYPE
  70
4
  0
LTYPE
  5
40F
  2
CONTINUOUS
  70
0
  3
Solid line
  72
65
  73
0
  40
0.0
  0
LTYPE
  5
410
  2
DASHDOT
 70
0
  3
Dash Dot ____ _ ____ _
 72
65
 73
4
 40
2.0
 49
1.25
 49
-0.25
 49
0.25
 49
-0.25
  0
LTYPE
  5
411
  2
DASHED
 70
0
  3
Dashed __ __ __ __ __
 72
65
 73
2
 40
0.75
 49
0.5
 49
-0.25
  0
LTYPE
  5
43B
  2
DOTTED
 70
0
  3
Dotted .  .  .  .
 72
65
 73
2
 40
0.2
 49
0.0
 49
-0.2
  0
ENDTAB
  0
TABLE
  2
STYLE
  70
4
  0
STYLE
  2
KICAD
  70
0
  40
0
  41
1
  42
1
  50
0
  71
0
  3
isocp.shx
  0
STYLE
  2
KICADB
  70
0
  40
0
  41
1
  42
1
  50
0
  71
0
  3
isocp.shx
  0
STYLE
  2
KICADI
  70
0
  40
0
  41
1
  42
1
  50
15
  71
0
  3
isocp.shx
  0
STYLE
  2
KICADBI
  70
0
  40
0
  41
1
  42
1
  50
15
  71
0
  3
isocp.shx
  0
ENDTAB
  0
TABLE
  2
LAYER
  70
1
  0
LAYER
  2
BLACK
  70
0
  62
7
  6
CONTINUOUS
  0
ENDTAB
  0
ENDSEC
  0
SECTION
  2
ENTITIES
0
LINE
8
BLACK
6
CONTINUOUS
10
0.0210387795275591
20
0.1238253937007874
11
0.0347705511811024
21
0.1206912204724409
0
LINE
8
BLACK
6
CONTINUOUS
10
0.0347705511811024
20
0.1206912204724409
11
0.0480650393700787
21
0.1160392519685039
0
LINE
8
BLACK
6
CONTINUOUS
10
0.0480650393700787
20
0.1160392519685039
11
0.0607550787401575
21
0.1099280708661417
0
LINE
8
BLACK
6
CONTINUOUS
10
0.0607550787401575
20
0.1099280708661417
11
0.0726811023622047
21
0.1024344488188976
0
LINE
8
BLACK
6
CONTINUOUS
10
0.0726811023622047
20
0.1024344488188976
11
0.0836931496062992
21
0.0936526377952756
0
LINE
8
BLACK
6
CONTINUOUS
10
0.0836931496062992
20
0.0936526377952756
11
0.0936526377952756
21
0.0836931496062992
0
LINE
8
BLACK
6
CONTINUOUS
10
0.0936526377952756
20
0.0836931496062992
11
0.1024344488188976
21
0.0726811023622047
0
LINE
8
BLACK
6
CONTINUOUS
10
0.1024344488188976
20
0.0726811023622047
11
0.1099280708661417
21
0.0607550787401575
0
LINE
8
BLACK
6
CONTINUOUS
10
0.1099280708661417
20
0.0607550787401575
11
0.1160392519685039
21
0.0480650393700787
0
LINE
8
BLACK
6
CONTINUOUS
10
0.1160392519685039
20
0.0480650393700787
11
0.1206912204724409
21
0.0347705511811024
0
LINE
8
BLACK
6
CONTINUOUS
10
0.1206912204724409
20
0.0347705511811024
11
0.1238253937007874
21
0.0210387795275591
0
LINE
8
BLACK
6
CONTINUOUS
10
0.1238253937007874
20
0.0210387795275591
11
0.1254024015748031
21
0.0070424409448819
0
LINE
8
BLACK
6
CONTINUOUS
10
0.1254024015748031
20
0.0070424409448819
11
0.1254024015748031
21
-0.0070424409448819
0
LINE
8
BLACK
6
CONTINUOUS
10
0.1254024015748031
20
-0.0070424409448819
11
0.1238253937007874
21
-0.0210387795275591
0
LINE
8
BLACK
6
CONTINUOUS
10
0.1238253937007874
20
-0.0210387795275591
11
0.1206912204724409
21
-0.0347705511811024
0
LINE
8
BLACK
6
CONTINUOUS
10
0.1206912204724409
20
-0.0347705511811024
11
0.1160392519685039
21
-0.0480650393700787
0
LINE
8
BLACK
6
CONTINUOUS
10
0.1160392519685039
20
-0.0480650393700787
11
0.1099280708661417
21
-0.0607550787401575
0
LINE
8
BLACK
6
CONTINUOUS
10
0.1099280708661417
20
-0.0607550787401575
11
0.1024344488188976
21
-0.0726811023622047
0
LINE
8
BLACK
6
CONTINUOUS
10
0.1024344488188976
20
-0.0726811023622047
11
0.0936526377952756
21
-0.0836931496062992
0
LINE
8
BLACK
6
CONTINUOUS
10
0.0936526377952756
20
-0.0836931496062992
11
0.0836931496062992
21
-0.0936526377952756
0
LINE
8
BLACK
6
CONTINUOUS
10
0.0836931496062992
20
-0.0936526377952756
11
0.0726811023622047
21
-0.1024344488188976
0
LINE
8
BLACK
6
CONTINUOUS
10
0.0726811023622047
20
-0.1024344488188976
11
0.0607550787401575
21
-0.1099280708661417
0
LINE
8
BLACK
6
CONTINUOUS
10
0.0607550787401575
20
-0.1099280708661417
11
0.0480650393700787
21
-0.1160392519685039
0
LINE
8
BLACK
6
CONTINUOUS
10
0.0480650393700787
20
-0.1160392519685039
11
0.0347705511811024
21
-0.1206912204724409
0
LINE
8
BLACK
6
CONTINUOUS
10
0.0347705511811024
20
-0.1206912204724409
11
0.0210387795275591
21
-0.1238253937007874
0
LINE
8
BLACK
6
CONTINUOUS
10
0.0210387795275591
20
-0.1238253937007874
11
0.0070424409448819
21
-0.1254024015748031
0
LINE
8
BLACK
6
CONTINUOUS
10
0.0070424409448819
20
-0.1254024015748031
11
-0.0070424409448819
21
-0.1254024015748031
0
LINE
8
BLACK
6
CONTINUOUS
10
-0.0070424409448819
20
-0.1254024015748031
11
-0.0210387795275591
21
-0.1238253937007874
0
LINE
8
BLACK
6
CONTINUOUS
10
-0.0210387795275591
20
-0.1238253937007874
11
-0.0347705511811024
21
-0.1206912204724409
0
LINE
8
BLACK
6
CONTINUOUS
10
-0.0347705511811024
20
-0.1206912204724409
11
-0.0480650393700787
21
-0.1160392519685039
0
LINE
8
BLACK
6
CONTINUOUS
10
-0.0480650393700787
20
-0.1160392519685039
11
-0.0607550787401575
21
-0.1099280708661417
0
LINE
8
BLACK
6
CONTINUOUS
10
-0.0607550787401575
20
-0.1099280708661417
11
-0.0726811023622047
21
-0.1024344488188976
0
LINE
8
BLACK
6
CONTINUOUS
10
-0.0726811023622047
20
-0.1024344488188976
11
-0.0836931496062992
21
-0.0936526377952756
0
LINE
8
BLACK
6
CONTINUOUS
10
-0.0836931496062992
20
-0.0936526377952756
11
-0.0936526377952756
21
-0.0836931496062992
0
LINE
8
BLACK
6
CONTINUOUS
10
-0.0936526377952756
20
-0.0836931496062992
11
-0.1024344488188976
21
-0.0726811023622047
0
LINE
8
BLACK
6
CONTINUOUS
10
-0.1024344488188976
20
-0.0726811023622047
11
-0.1099280708661417
21
-0.0607550787401575
0
LINE
8
BLACK
6
CONTINUOUS
10
-0.1099280708661417
20
-0.0607550787401575
11
-0.1160392519685039
21
-0.0480650393700787
0
LINE
8
BLACK
6
CONTINUOUS
10
-0.1160392519685039
20
-0.0480650393700787
11
-0.1206912204724409
21
-0.0347705511811024
0
LINE
8
BLACK
6
CONTINUOUS
10
-0.1206912204724409
20
-0.0347705511811024
11
-0.1238253937007874
21
-0.0210387795275591
0
LINE
8
BLACK
6
CONTINUOUS
10
-0.1238253937007874
20
-0.0210387795275591
11
-0.1254024015748031
21
-0.0070424409448819
0
LINE
8
BLACK
6
CONTINUOUS
10
-0.1254024015748031
20
-0.0070424409448819
11
-0.1254024015748031
21
0.0062111811023622
0
LINE
8
BLACK
6
CONTINUOUS
10
-0.1254024015748031
20
0.0062111811023622
11
-0.1254024015748031
21
0.0070424409448819
0
LINE
8
BLACK
6
CONTINUOUS
10
-0.1254024015748031
20
0.0070424409448819
11
-0.1238253937007874
21
0.0210387795275591
0
LINE
8
BLACK
6
CONTINUOUS
10
-0.1238253937007874
20
0.0210387795275591
11
-0.1206912204724409
21
0.0347705511811024
0
LINE
8
BLACK
6
CONTINUOUS
10
-0.1206912204724409
20
0.0347705511811024
11
-0.1160392519685039
21
0.0480650393700787
0
LINE
8
BLACK
6
CONTINUOUS
10
-0.1160392519685039
20
0.0480650393700787
11
-0.1099280708661417
21
0.0607550787401575
0
LINE
8
BLACK
6
CONTINUOUS
10
-0.1099280708661417
20
0.0607550787401575
11
-0.1024344488188976
21
0.0726811023622047
0
LINE
8
BLACK
6
CONTINUOUS
10
-0.1024344488188976
20
0.0726811023622047
11
-0.0936526377952756
21
0.0836931496062992
0
LINE
8
BLACK
6
CONTINUOUS
10
-0.0936526377952756
20
0.0836931496062992
11
-0.0836931496062992
21
0.0936526377952756
0
LINE
8
BLACK
6
CONTINUOUS
10
-0.0836931496062992
20
0.0936526377952756
11
-0.0726811023622047
21
0.1024344488188976
0
LINE
8
BLACK
6
CONTINUOUS
10
-0.0726811023622047
20
0.1024344488188976
11
-0.0607550787401575
21
0.1099280708661417
0
LINE
8
BLACK
6
CONTINUOUS
10
-0.0607550787401575
20
0.1099280708661417
11
-0.0480650393700787
21
0.1160392519685039
0
LINE
8
BLACK
6
CONTINUOUS
10
-0.0480650393700787
20
0.1160392519685039
11
-0.0347705511811024
21
0.1206912204724409
0
LINE
8
BLACK
6
CONTINUOUS
10
-0.0347705511811024
20
0.1206912204724409
11
-0.0210387795275591
21
0.1238253937007874
0
LINE
8
BLACK
6
CONTINUOUS
10
-0.0210387795275591
20
0.1238253937007874
11
-0.0070424409448819
21
0.1254024015748031
0
LINE
8
BLACK
6
CONTINUOUS
10
-0.0070424409448819
20
0.1254024015748031
11
0.0070424409448819
21
0.1254024015748031
0
LINE
8
BLACK
6
CONTINUOUS
10
0.0070424409448819
20
0.1254024015748031
11
0.0210387795275591
21
0.1238253937007874
0
LINE
8
BLACK
6
CONTINUOUS
10
-0.1106
20
-0.0062111811023622
11
-0.1092091338582677
21
-0.0185553937007874
0
LINE
8
BLACK
6
CONTINUOUS
10
-0.1092091338582677
20
-0.0185553937007874
11
-0.1064448818897638
21
-0.0306662598425197
0
LINE
8
BLACK
6
CONTINUOUS
10
-0.1064448818897638
20
-0.0306662598425197
11
-0.1023420472440945
21
-0.0423914566929134
0
LINE
8
BLACK
6
CONTINUOUS
10
-0.1023420472440945
20
-0.0423914566929134
11
-0.0969522047244094
21
-0.0535835826771654
0
LINE
8
BLACK
6
CONTINUOUS
10
-0.0969522047244094
20
-0.0535835826771654
11
-0.0903431496062992
21
-0.0641018897637795
0
LINE
8
BLACK
6
CONTINUOUS
10
-0.0903431496062992
20
-0.0641018897637795
11
-0.0825979527559055
21
-0.0738140551181102
0
LINE
8
BLACK
6
CONTINUOUS
10
-0.0825979527559055
20
-0.0738140551181102
11
-0.0738140551181102
21
-0.0825979527559055
0
LINE
8
BLACK
6
CONTINUOUS
10
-0.0738140551181102
20
-0.0825979527559055
11
-0.0641018897637795
21
-0.0903431496062992
0
LINE
8
BLACK
6
CONTINUOUS
10
-0.0641018897637795
20
-0.0903431496062992
11
-0.0535835826771654
21
-0.0969522047244094
0
LINE
8
BLACK
6
CONTINUOUS
10
-0.0535835826771654
20
-0.0969522047244094
11
-0.0423914566929134
21
-0.1023420472440945
0
LINE
8
BLACK
6
CONTINUOUS
10
-0.0423914566929134
20
-0.1023420472440945
11
-0.0306662598425197
21
-0.1064448818897638
0
LINE
8
BLACK
6
CONTINUOUS
10
-0.0306662598425197
20
-0.1064448818897638
11
-0.0185553937007874
21
-0.1092091338582677
0
LINE
8
BLACK
6
CONTINUOUS
10
-0.0185553937007874
20
-0.1092091338582677
11
-0.0062111811023622
21
-0.1106
0
LINE
8
BLACK
6
CONTINUOUS
10
-0.0062111811023622
20
-0.1106
11
0.0062111811023622
21
-0.1106
0
LINE
8
BLACK
6
CONTINUOUS
10
0.0062111811023622
20
-0.1106
11
0.0185553937007874
21
-0.1092091338582677
0
LINE
8
BLACK
6
CONTINUOUS
10
0.0185553937007874
20
-0.1092091338582677
11
0.0306662598425197
21
-0.1064448818897638
0
LINE
8
BLACK
6
CONTINUOUS
10
0.0306662598425197
20
-0.1064448818897638
11
0.0423914566929134
21
-0.1023420472440945
0
LINE
8
BLACK
6
CONTINUOUS
10
0.0423914566929134
20
-0.1023420472440945
11
0.0535835826771654
21
-0.0969522047244094
0
LINE
8
BLACK
6
CONTINUOUS
10
0.0535835826771654
20
-0.0969522047244094
11
0.0641018897637795
21
-0.0903431496062992
0
LINE
8
BLACK
6
CONTINUOUS
10
0.0641018897637795
20
-0.0903431496062992
11
0.0738140551181102
21
-0.0825979527559055
0
LINE
8
BLACK
6
CONTINUOUS
10
0.0738140551181102
20
-0.0825979527559055
11
0.0825979527559055
21
-0.0738140551181102
0
LINE
8
BLACK
6
CONTINUOUS
10
0.0825979527559055
20
-0.0738140551181102
11
0.0903431496062992
21
-0.0641018897637795
0
LINE
8
BLACK
6
CONTINUOUS
10
0.0903431496062992
20
-0.0641018897637795
11
0.0969522047244094
21
-0.0535835826771654
0
LINE
8
BLACK
6
CONTINUOUS
10
0.0969522047244094
20
-0.0535835826771654
11
0.1023420472440945
21
-0.0423914566929134
0
LINE
8
BLACK
6
CONTINUOUS
10
0.1023420472440945
20
-0.0423914566929134
11
0.1064448818897638
21
-0.0306662598425197
0
LINE
8
BLACK
6
CONTINUOUS
10
0.1064448818897638
20
-0.0306662598425197
11
0.1092091338582677
21
-0.0185553937007874
0
LINE
8
BLACK
6
CONTINUOUS
10
0.1092091338582677
20
-0.0185553937007874
11
0.1106
21
-0.0062111811023622
0
LINE
8
BLACK
6
CONTINUOUS
10
0.1106
20
-0.0062111811023622
11
0.1106
21
0.0062111811023622
0
LINE
8
BLACK
6
CONTINUOUS
10
0.1106
20
0.0062111811023622
11
0.1092091338582677
21
0.0185553937007874
0
LINE
8
BLACK
6
CONTINUOUS
10
0.1092091338582677
20
0.0185553937007874
11
0.1064448818897638
21
0.0306662598425197
0
LINE
8
BLACK
6
CONTINUOUS
10
0.1064448818897638
20
0.0306662598425197
11
0.1023420472440945
21
0.0423914566929134
0
LINE
8
BLACK
6
CONTINUOUS
10
0.1023420472440945
20
0.0423914566929134
11
0.0969522047244094
21
0.0535835826771654
0
LINE
8
BLACK
6
CONTINUOUS
10
0.0969522047244094
20
0.0535835826771654
11
0.0903431496062992
21
0.0641018897637795
0
LINE
8
BLACK
6
CONTINUOUS
10
0.0903431496062992
20
0.0641018897637795
11
0.0825979527559055
21
0.0738140551181102
0
LINE
8
BLACK
6
CONTINUOUS
10
0.0825979527559055
20
0.0738140551181102
11
0.0738140551181102
21
0.0825979527559055
0
LINE
8
BLACK
6
CONTINUOUS
10
0.0738140551181102
20
0.0825979527559055
11
0.0641018897637795
21
0.0903431496062992
0
LINE
8
BLACK
6
CONTINUOUS
10
0.0641018897637795
20
0.0903431496062992
11
0.0535835826771654
21
0.0969522047244094
0
LINE
8
BLACK
6
CONTINUOUS
10
0.0535835826771654
20
0.0969522047244094
11
0.0423914566929134
21
0.1023420472440945
0
LINE
8
BLACK
6
CONTINUOUS
10
0.0423914566929134
20
0.1023420472440945
11
0.0306662598425197
21
0.1064448818897638
0
LINE
8
BLACK
6
CONTINUOUS
10
0.0306662598425197
20
0.1064448818897638
11
0.0185553937007874
21
0.1092091338582677
0
LINE
8
BLACK
6
CONTINUOUS
10
0.0185553937007874
20
0.1092091338582677
11
0.0062111811023622
21
0.1106
0
LINE
8
BLACK
6
CONTINUOUS
10
0.0062111811023622
20
0.1106
11
-0.0062111811023622
21
0.1106
0
LINE
8
BLACK
6
CONTINUOUS
10
-0.0062111811023622
20
0.1106
11
-0.0185553937007874
21
0.1092091338582677
0
LINE
8
BLACK
6
CONTINUOUS
10
-0.0185553937007874
20
0.1092091338582677
11
-0.0306662598425197
21
0.1064448818897638
0
LINE
8
BLACK
6
CONTINUOUS
10
-0.0306662598425197
20
0.1064448818897638
11
-0.0423914566929134
21
0.1023420472440945
0
LINE
8
BLACK
6
CONTINUOUS
10
-0.0423914566929134
20
0.1023420472440945
11
-0.0535835826771654
21
0.0969522047244094
0
LINE
8
BLACK
6
CONTINUOUS
10
-0.0535835826771654
20
0.0969522047244094
11
-0.0641018897637795
21
0.0903431496062992
0
LINE
8
BLACK
6
CONTINUOUS
10
-0.0641018897637795
20
0.0903431496062992
11
-0.0738140551181102
21
0.0825979527559055
0
LINE
8
BLACK
6
CONTINUOUS
10
-0.0738140551181102
20
0.0825979527559055
11
-0.0825979527559055
21
0.0738140551181102
0
LINE
8
BLACK
6
CONTINUOUS
10
-0.0825979527559055
20
0.0738140551181102
11
-0.0903431496062992
21
0.0641018897637795
0
LINE
8
BLACK
6
CONTINUOUS
10
-0.0903431496062992
20
0.0641018897637795
11
-0.0969522047244094
21
0.0535835826771654
0
LINE
8
BLACK
6
CONTINUOUS
10
-0.0969522047244094
20
0.0535835826771654
11
-0.1023420472440945
21
0.0423914566929134
0
LINE
8
BLACK
6
CONTINUOUS
10
-0.1023420472440945
20
0.0423914566929134
11
-0.1064448818897638
21
0.0306662598425197
0
LINE
8
BLACK
6
CONTINUOUS
10
-0.1064448818897638
20
0.0306662598425197
11
-0.1092091338582677
21
0.0185553937007874
0
LINE
8
BLACK
6
CONTINUOUS
10
-0.1092091338582677
20
0.0185553937007874
11
-0.1106
21
0.0062111811023622
0
LINE
8
BLACK
6
CONTINUOUS
10
-0.1106
20
0.0062111811023622
11
-0.1106
21
-0.0062111811023622
0
LINE
8
BLACK
6
CONTINUOUS
10
1.221038779527559
20
0.1238253937007874
11
1.2347705511811022
21
0.1206912204724409
0
LINE
8
BLACK
6
CONTINUOUS
10
1.2347705511811022
20
0.1206912204724409
11
1.2480650393700787
21
0.1160392519685039
0
LINE
8
BLACK
6
CONTINUOUS
10
1.2480650393700787
20
0.1160392519685039
11
1.2607550787401574
21
0.1099280708661417
0
LINE
8
BLACK
6
CONTINUOUS
10
1.2607550787401574
20
0.1099280708661417
11
1.2726811023622047
21
0.1024344488188976
0
LINE
8
BLACK
6
CONTINUOUS
10
1.2726811023622047
20
0.1024344488188976
11
1.2836931496062991
21
0.0936526377952756
0
LINE
8
BLACK
6
CONTINUOUS
10
1.2836931496062991
20
0.0936526377952756
11
1.2936526377952755
21
0.0836931496062992
0
LINE
8
BLACK
6
CONTINUOUS
10
1.2936526377952755
20
0.0836931496062992
11
1.3024344488188977
21
0.0726811023622047
0
LINE
8
BLACK
6
CONTINUOUS
10
1.3024344488188977
20
0.0726811023622047
11
1.3099280708661416
21
0.0607550787401575
0
LINE
8
BLACK
6
CONTINUOUS
10
1.3099280708661416
20
0.0607550787401575
11
1.3160392519685038
21
0.0480650393700787
0
LINE
8
BLACK
6
CONTINUOUS
10
1.3160392519685038
20
0.0480650393700787
11
1.3206912204724408
21
0.0347705511811024
0
LINE
8
BLACK
6
CONTINUOUS
10
1.3206912204724408
20
0.0347705511811024
11
1.3238253937007873
21
0.0210387795275591
0
LINE
8
BLACK
6
CONTINUOUS
10
1.3238253937007873
20
0.0210387795275591
11
1.3254024015748032
21
0.0070424409448819
0
LINE
8
BLACK
6
CONTINUOUS
10
1.3254024015748032
20
0.0070424409448819
11
1.3254024015748032
21
-0.0070424409448819
0
LINE
8
BLACK
6
CONTINUOUS
10
1.3254024015748032
20
-0.0070424409448819
11
1.3238253937007873
21
-0.0210387795275591
0
LINE
8
BLACK
6
CONTINUOUS
10
1.3238253937007873
20
-0.0210387795275591
11
1.3206912204724408
21
-0.0347705511811024
0
LINE
8
BLACK
6
CONTINUOUS
10
1.3206912204724408
20
-0.0347705511811024
11
1.3160392519685038
21
-0.0480650393700787
0
LINE
8
BLACK
6
CONTINUOUS
10
1.3160392519685038
20
-0.0480650393700787
11
1.3099280708661416
21
-0.0607550787401575
0
LINE
8
BLACK
6
CONTINUOUS
10
1.3099280708661416
20
-0.0607550787401575
11
1.3024344488188977
21
-0.0726811023622047
0
LINE
8
BLACK
6
CONTINUOUS
10
1.3024344488188977
20
-0.0726811023622047
11
1.2936526377952755
21
-0.0836931496062992
0
LINE
8
BLACK
6
CONTINUOUS
10
1.2936526377952755
20
-0.0836931496062992
11
1.2836931496062991
21
-0.0936526377952756
0
LINE
8
BLACK
6
CONTINUOUS
10
1.2836931496062991
20
-0.0936526377952756
11
1.2726811023622047
21
-0.1024344488188976
0
LINE
8
BLACK
6
CONTINUOUS
10
1.2726811023622047
20
-0.1024344488188976
11
1.2607550787401574
21
-0.1099280708661417
0
LINE
8
BLACK
6
CONTINUOUS
10
1.2607550787401574
20
-0.1099280708661417
11
1.2480650393700787
21
-0.1160392519685039
0
LINE
8
BLACK
6
CONTINUOUS
10
1.2480650393700787
20
-0.1160392519685039
11
1.2347705511811022
21
-0.1206912204724409
0
LINE
8
BLACK
6
CONTINUOUS
10
1.2347705511811022
20
-0.1206912204724409
11
1.221038779527559
21
-0.1238253937007874
0
LINE
8
BLACK
6
CONTINUOUS
10
1.221038779527559
20
-0.1238253937007874
11
1.2070424409448819
21
-0.1254024015748031
0
LINE
8
BLACK
6
CONTINUOUS
10
1.2070424409448819
20
-0.1254024015748031
11
1.192957559055118
21
-0.1254024015748031
0
LINE
8
BLACK
6
CONTINUOUS
10
1.192957559055118
20
-0.1254024015748031
11
1.1789612204724409
21
-0.1238253937007874
0
LINE
8
BLACK
6
CONTINUOUS
10
1.1789612204724409
20
-0.1238253937007874
11
1.1652294488188977
21
-0.1206912204724409
0
LINE
8
BLACK
6
CONTINUOUS
10
1.1652294488188977
20
-0.1206912204724409
11
1.1519349606299212
21
-0.1160392519685039
0
LINE
8
BLACK
6
CONTINUOUS
10
1.1519349606299212
20
-0.1160392519685039
11
1.1392449212598426
21
-0.1099280708661417
0
LINE
8
BLACK
6
CONTINUOUS
10
1.1392449212598426
20
-0.1099280708661417
11
1.1273188976377952
21
-0.1024344488188976
0
LINE
8
BLACK
6
CONTINUOUS
10
1.1273188976377952
20
-0.1024344488188976
11
1.1163068503937008
21
-0.0936526377952756
0
LINE
8
BLACK
6
CONTINUOUS
10
1.1163068503937008
20
-0.0936526377952756
11
1.1063473622047244
21
-0.0836931496062992
0
LINE
8
BLACK
6
CONTINUOUS
10
1.1063473622047244
20
-0.0836931496062992
11
1.0975655511811024
21
-0.0726811023622047
0
LINE
8
BLACK
6
CONTINUOUS
10
1.0975655511811024
20
-0.0726811023622047
11
1.0900719291338583
21
-0.0607550787401575
0
LINE
8
BLACK
6
CONTINUOUS
10
1.0900719291338583
20
-0.0607550787401575
11
1.0839607480314961
21
-0.0480650393700787
0
LINE
8
BLACK
6
CONTINUOUS
10
1.0839607480314961
20
-0.0480650393700787
11
1.0793087795275591
21
-0.0347705511811024
0
LINE
8
BLACK
6
CONTINUOUS
10
1.0793087795275591
20
-0.0347705511811024
11
1.0761746062992126
21
-0.0210387795275591
0
LINE
8
BLACK
6
CONTINUOUS
10
1.0761746062992126
20
-0.0210387795275591
11
1.0745975984251968
21
-0.0070424409448819
0
LINE
8
BLACK
6
CONTINUOUS
10
1.0745975984251968
20
-0.0070424409448819
11
1.0745975984251968
21
0.0062111811023622
0
LINE
8
BLACK
6
CONTINUOUS
10
1.0745975984251968
20
0.0062111811023622
11
1.0745975984251968
21
0.0070424409448819
0
LINE
8
BLACK
6
CONTINUOUS
10
1.0745975984251968
20
0.0070424409448819
11
1.0761746062992126
21
0.0210387795275591
0
LINE
8
BLACK
6
CONTINUOUS
10
1.0761746062992126
20
0.0210387795275591
11
1.0793087795275591
21
0.0347705511811024
0
LINE
8
BLACK
6
CONTINUOUS
10
1.0793087795275591
20
0.0347705511811024
11
1.0839607480314961
21
0.0480650393700787
0
LINE
8
BLACK
6
CONTINUOUS
10
1.0839607480314961
20
0.0480650393700787
11
1.0900719291338583
21
0.0607550787401575
0
LINE
8
BLACK
6
CONTINUOUS
10
1.0900719291338583
20
0.0607550787401575
11
1.0975655511811024
21
0.0726811023622047
0
LINE
8
BLACK
6
CONTINUOUS
10
1.0975655511811024
20
0.0726811023622047
11
1.1063473622047244
21
0.0836931496062992
0
LINE
8
BLACK
6
CONTINUOUS
10
1.1063473622047244
20
0.0836931496062992
11
1.1163068503937008
21
0.0936526377952756
0
LINE
8
BLACK
6
CONTINUOUS
10
1.1163068503937008
20
0.0936526377952756
11
1.1273188976377952
21
0.1024344488188976
0
LINE
8
BLACK
6
CONTINUOUS
10
1.1273188976377952
20
0.1024344488188976
11
1.1392449212598426
21
0.1099280708661417
0
LINE
8
BLACK
6
CONTINUOUS
10
1.1392449212598426
20
0.1099280708661417
11
1.1519349606299212
21
0.1160392519685039
0
LINE
8
BLACK
6
CONTINUOUS
10
1.1519349606299212
20
0.1160392519685039
11
1.1652294488188977
21
0.1206912204724409
0
LINE
8
BLACK
6
CONTINUOUS
10
1.1652294488188977
20
0.1206912204724409
11
1.1789612204724409
21
0.1238253937007874
0
LINE
8
BLACK
6
CONTINUOUS
10
1.1789612204724409
20
0.1238253937007874
11
1.192957559055118
21
0.1254024015748031
0
LINE
8
BLACK
6
CONTINUOUS
10
1.192957559055118
20
0.1254024015748031
11
1.2070424409448819
21
0.1254024015748031
0
LINE
8
BLACK
6
CONTINUOUS
10
1.2070424409448819
20
0.1254024015748031
11
1.221038779527559
21
0.1238253937007874
0
LINE
8
BLACK
6
CONTINUOUS
10
1.0893999999999999
20
-0.0062111811023622
11
1.0907908661417323
21
-0.0185553937007874
0
LINE
8
BLACK
6
CONTINUOUS
10
1.0907908661417323
20
-0.0185553937007874
11
1.0935551181102361
21
-0.0306662598425197
0
LINE
8
BLACK
6
CONTINUOUS
10
1.0935551181102361
20
-0.0306662598425197
11
1.0976579527559054
21
-0.0423914566929134
0
LINE
8
BLACK
6
CONTINUOUS
10
1.0976579527559054
20
-0.0423914566929134
11
1.1030477952755906
21
-0.0535835826771654
0
LINE
8
BLACK
6
CONTINUOUS
10
1.1030477952755906
20
-0.0535835826771654
11
1.1096568503937008
21
-0.0641018897637795
0
LINE
8
BLACK
6
CONTINUOUS
10
1.1096568503937008
20
-0.0641018897637795
11
1.1174020472440944
21
-0.0738140551181102
0
LINE
8
BLACK
6
CONTINUOUS
10
1.1174020472440944
20
-0.0738140551181102
11
1.1261859448818898
21
-0.0825979527559055
0
LINE
8
BLACK
6
CONTINUOUS
10
1.1261859448818898
20
-0.0825979527559055
11
1.1358981102362204
21
-0.0903431496062992
0
LINE
8
BLACK
6
CONTINUOUS
10
1.1358981102362204
20
-0.0903431496062992
11
1.1464164173228346
21
-0.0969522047244094
0
LINE
8
BLACK
6
CONTINUOUS
10
1.1464164173228346
20
-0.0969522047244094
11
1.1576085433070866
21
-0.1023420472440945
0
LINE
8
BLACK
6
CONTINUOUS
10
1.1576085433070866
20
-0.1023420472440945
11
1.1693337401574804
21
-0.1064448818897638
0
LINE
8
BLACK
6
CONTINUOUS
10
1.1693337401574804
20
-0.1064448818897638
11
1.1814446062992126
21
-0.1092091338582677
0
LINE
8
BLACK
6
CONTINUOUS
10
1.1814446062992126
20
-0.1092091338582677
11
1.1937888188976378
21
-0.1106
0
LINE
8
BLACK
6
CONTINUOUS
10
1.1937888188976378
20
-0.1106
11
1.2062111811023621
21
-0.1106
0
LINE
8
BLACK
6
CONTINUOUS
10
1.2062111811023621
20
-0.1106
11
1.2185553937007874
21
-0.1092091338582677
0
LINE
8
BLACK
6
CONTINUOUS
10
1.2185553937007874
20
-0.1092091338582677
11
1.2306662598425198
21
-0.1064448818897638
0
LINE
8
BLACK
6
CONTINUOUS
10
1.2306662598425198
20
-0.1064448818897638
11
1.2423914566929133
21
-0.1023420472440945
0
LINE
8
BLACK
6
CONTINUOUS
10
1.2423914566929133
20
-0.1023420472440945
11
1.2535835826771653
21
-0.0969522047244094
0
LINE
8
BLACK
6
CONTINUOUS
10
1.2535835826771653
20
-0.0969522047244094
11
1.2641018897637795
21
-0.0903431496062992
0
LINE
8
BLACK
6
CONTINUOUS
10
1.2641018897637795
20
-0.0903431496062992
11
1.2738140551181103
21
-0.0825979527559055
0
LINE
8
BLACK
6
CONTINUOUS
10
1.2738140551181103
20
-0.0825979527559055
11
1.2825979527559055
21
-0.0738140551181102
0
LINE
8
BLACK
6
CONTINUOUS
10
1.2825979527559055
20
-0.0738140551181102
11
1.2903431496062991
21
-0.0641018897637795
0
LINE
8
BLACK
6
CONTINUOUS
10
1.2903431496062991
20
-0.0641018897637795
11
1.2969522047244095
21
-0.0535835826771654
0
LINE
8
BLACK
6
CONTINUOUS
10
1.2969522047244095
20
-0.0535835826771654
11
1.3023420472440945
21
-0.0423914566929134
0
LINE
8
BLACK
6
CONTINUOUS
10
1.3023420472440945
20
-0.0423914566929134
11
1.3064448818897638
21
-0.0306662598425197
0
LINE
8
BLACK
6
CONTINUOUS
10
1.3064448818897638
20
-0.0306662598425197
11
1.3092091338582676
21
-0.0185553937007874
0
LINE
8
BLACK
6
CONTINUOUS
10
1.3092091338582676
20
-0.0185553937007874
11
1.3106
21
-0.0062111811023622
0
LINE
8
BLACK
6
CONTINUOUS
10
1.3106
20
-0.0062111811023622
11
1.3106
21
0.0062111811023622
0
LINE
8
BLACK
6
CONTINUOUS
10
1.3106
20
0.0062111811023622
11
1.3092091338582676
21
0.0185553937007874
0
LINE
8
BLACK
6
CONTINUOUS
10
1.3092091338582676
20
0.0185553937007874
11
1.3064448818897638
21
0.0306662598425197
0
LINE
8
BLACK
6
CONTINUOUS
10
1.3064448818897638
20
0.0306662598425197
11
1.3023420472440945
21
0.0423914566929134
0
LINE
8
BLACK
6
CONTINUOUS
10
1.3023420472440945
20
0.0423914566929134
11
1.2969522047244095
21
0.0535835826771654
0
LINE
8
BLACK
6
CONTINUOUS
10
1.2969522047244095
20
0.0535835826771654
11
1.2903431496062991
21
0.0641018897637795
0
LINE
8
BLACK
6
CONTINUOUS
10
1.2903431496062991
20
0.0641018897637795
11
1.2825979527559055
21
0.0738140551181102
0
LINE
8
BLACK
6
CONTINUOUS
10
1.2825979527559055
20
0.0738140551181102
11
1.2738140551181103
21
0.0825979527559055
0
LINE
8
BLACK
6
CONTINUOUS
10
1.2738140551181103
20
0.0825979527559055
11
1.2641018897637795
21
0.0903431496062992
0
LINE
8
BLACK
6
CONTINUOUS
10
1.2641018897637795
20
0.0903431496062992
11
1.2535835826771653
21
0.0969522047244094
0
LINE
8
BLACK
6
CONTINUOUS
10
1.2535835826771653
20
0.0969522047244094
11
1.2423914566929133
21
0.1023420472440945
0
LINE
8
BLACK
6
CONTINUOUS
10
1.2423914566929133
20
0.1023420472440945
11
1.2306662598425198
21
0.1064448818897638
0
LINE
8
BLACK
6
CONTINUOUS
10
1.2306662598425198
20
0.1064448818897638
11
1.2185553937007874
21
0.1092091338582677
0
LINE
8
BLACK
6
CONTINUOUS
10
1.2185553937007874
20
0.1092091338582677
11
1.2062111811023621
21
0.1106
0
LINE
8
BLACK
6
CONTINUOUS
10
1.2062111811023621
20
0.1106
11
1.1937888188976378
21
0.1106
0
LINE
8
BLACK
6
CONTINUOUS
10
1.1937888188976378
20
0.1106
11
1.1814446062992126
21
0.1092091338582677
0
LINE
8
BLACK
6
CONTINUOUS
10
1.1814446062992126
20
0.1092091338582677
11
1.1693337401574804
21
0.1064448818897638
0
LINE
8
BLACK
6
CONTINUOUS
10
1.1693337401574804
20
0.1064448818897638
11
1.1576085433070866
21
0.1023420472440945
0
LINE
8
BLACK
6
CONTINUOUS
10
1.1576085433070866
20
0.1023420472440945
11
1.1464164173228346
21
0.0969522047244094
0
LINE
8
BLACK
6
CONTINUOUS
10
1.1464164173228346
20
0.0969522047244094
11
1.1358981102362204
21
0.0903431496062992
0
LINE
8
BLACK
6
CONTINUOUS
10
1.1358981102362204
20
0.0903431496062992
11
1.1261859448818898
21
0.0825979527559055
0
LINE
8
BLACK
6
CONTINUOUS
10
1.1261859448818898
20
0.0825979527559055
11
1.1174020472440944
21
0.0738140551181102
0
LINE
8
BLACK
6
CONTINUOUS
10
1.1174020472440944
20
0.0738140551181102
11
1.1096568503937008
21
0.0641018897637795
0
LINE
8
BLACK
6
CONTINUOUS
10
1.1096568503937008
20
0.0641018897637795
11
1.1030477952755906
21
0.0535835826771654
0
LINE
8
BLACK
6
CONTINUOUS
10
1.1030477952755906
20
0.0535835826771654
11
1.0976579527559054
21
0.0423914566929134
0
LINE
8
BLACK
6
CONTINUOUS
10
1.0976579527559054
20
0.0423914566929134
11
1.0935551181102361
21
0.0306662598425197
0
LINE
8
BLACK
6
CONTINUOUS
10
1.0935551181102361
20
0.0306662598425197
11
1.0907908661417323
21
0.0185553937007874
0
LINE
8
BLACK
6
CONTINUOUS
10
1.0907908661417323
20
0.0185553937007874
11
1.0893999999999999
21
0.0062111811023622
0
LINE
8
BLACK
6
CONTINUOUS
10
1.0893999999999999
20
0.0062111811023622
11
1.0893999999999999
21
-0.0062111811023622
0
LINE
8
BLACK
6
CONTINUOUS
10
1.3005760629921259
20
0.7528960236220472
11
1.3016404724409449
21
0.7524551181102362
0
LINE
8
BLACK
6
CONTINUOUS
10
1.3016404724409449
20
0.7524551181102362
11
1.3024551181102362
21
0.7516404724409449
0
LINE
8
BLACK
6
CONTINUOUS
10
1.3024551181102362
20
0.7516404724409449
11
1.3028960236220473
21
0.750576062992126
0
LINE
8
BLACK
6
CONTINUOUS
10
1.3028960236220473
20
0.750576062992126
11
1.3029527559055119
21
0.75
0
LINE
8
BLACK
6
CONTINUOUS
10
1.3029527559055119
20
0.75
11
1.3029527559055119
21
0.45
0
LINE
8
BLACK
6
CONTINUOUS
10
1.3029527559055119
20
0.45
11
1.3028960236220473
21
0.449423937007874
0
LINE
8
BLACK
6
CONTINUOUS
10
1.3028960236220473
20
0.449423937007874
11
1.3024551181102362
21
0.4483595275590551
0
LINE
8
BLACK
6
CONTINUOUS
10
1.3024551181102362
20
0.4483595275590551
11
1.3016404724409449
21
0.4475448818897638
0
LINE
8
BLACK
6
CONTINUOUS
10
1.3016404724409449
20
0.4475448818897638
11
1.3005760629921259
21
0.4471039763779527
0
LINE
8
BLACK
6
CONTINUOUS
10
1.3005760629921259
20
0.4471039763779527
11
1.3
21
0.4470472440944882
0
LINE
8
BLACK
6
CONTINUOUS
10
1.3
20
0.4470472440944882
11
1.0999999999999999
21
0.4470472440944882
0
LINE
8
BLACK
6
CONTINUOUS
10
1.0999999999999999
20
0.4470472440944882
11
1.099423937007874
21
0.4471039763779527
0
LINE
8
BLACK
6
CONTINUOUS
10
1.099423937007874
20
0.4471039763779527
11
1.0983595275590552
21
0.4475448818897638
0
LINE
8
BLACK
6
CONTINUOUS
10
1.0983595275590552
20
0.4475448818897638
11
1.0975448818897637
21
0.4483595275590551
0
LINE
8
BLACK
6
CONTINUOUS
10
1.0975448818897637
20
0.4483595275590551
11
1.0971039763779526
21
0.449423937007874
0
LINE
8
BLACK
6
CONTINUOUS
10
1.0971039763779526
20
0.449423937007874
11
1.0970472440944881
21
0.45
0
LINE
8
BLACK
6
CONTINUOUS
10
1.0970472440944881
20
0.45
11
1.0970472440944881
21
0.75
0
LINE
8
BLACK
6
CONTINUOUS
10
1.0970472440944881
20
0.75
11
1.0971039763779526
21
0.750576062992126
0
LINE
8
BLACK
6
CONTINUOUS
10
1.0971039763779526
20
0.750576062992126
11
1.0975448818897637
21
0.7516404724409449
0
LINE
8
BLACK
6
CONTINUOUS
10
1.0975448818897637
20
0.7516404724409449
11
1.0983595275590552
21
0.7524551181102362
0
LINE
8
BLACK
6
CONTINUOUS
10
1.0983595275590552
20
0.7524551181102362
11
1.099423937007874
21
0.7528960236220472
0
LINE
8
BLACK
6
CONTINUOUS
10
1.099423937007874
20
0.7528960236220472
11
1.0999999999999999
21
0.7529527559055118
0
LINE
8
BLACK
6
CONTINUOUS
10
1.0999999999999999
20
0.7529527559055118
11
1.3
21
0.7529527559055118
0
LINE
8
BLACK
6
CONTINUOUS
10
1.3
20
0.7529527559055118
11
1.3005760629921259
21
0.7528960236220472
0
LINE
8
BLACK
6
CONTINUOUS
10
1.1029527559055119
20
0.7470472440944882
11
1.1029527559055119
21
0.4529527559055118
0
LINE
8
BLACK
6
CONTINUOUS
10
1.1029527559055119
20
0.4529527559055118
11
1.2970472440944882
21
0.4529527559055118
0
LINE
8
BLACK
6
CONTINUOUS
10
1.2970472440944882
20
0.4529527559055118
11
1.2970472440944882
21
0.7470472440944882
0
LINE
8
BLACK
6
CONTINUOUS
10
1.2970472440944882
20
0.7470472440944882
11
1.1029527559055119
21
0.7470472440944882
0
LINE
8
BLACK
6
CONTINUOUS
10
0.0210387795275591
20
1.3238253937007873
11
0.0347705511811024
21
1.3206912204724408
0
LINE
8
BLACK
6
CONTINUOUS
10
0.0347705511811024
20
1.3206912204724408
11
0.0480650393700787
21
1.3160392519685038
0
LINE
8
BLACK
6
CONTINUOUS
10
0.0480650393700787
20
1.3160392519685038
11
0.0607550787401575
21
1.3099280708661416
0
LINE
8
BLACK
6
CONTINUOUS
10
0.0607550787401575
20
1.3099280708661416
11
0.0726811023622047
21
1.3024344488188977
0
LINE
8
BLACK
6
CONTINUOUS
10
0.0726811023622047
20
1.3024344488188977
11
0.0836931496062992
21
1.2936526377952755
0
LINE
8
BLACK
6
CONTINUOUS
10
0.0836931496062992
20
1.2936526377952755
11
0.0936526377952756
21
1.2836931496062991
0
LINE
8
BLACK
6
CONTINUOUS
10
0.0936526377952756
20
1.2836931496062991
11
0.1024344488188976
21
1.2726811023622047
0
LINE
8
BLACK
6
CONTINUOUS
10
0.1024344488188976
20
1.2726811023622047
11
0.1099280708661417
21
1.2607550787401574
0
LINE
8
BLACK
6
CONTINUOUS
10
0.1099280708661417
20
1.2607550787401574
11
0.1160392519685039
21
1.2480650393700787
0
LINE
8
BLACK
6
CONTINUOUS
10
0.1160392519685039
20
1.2480650393700787
11
0.1206912204724409
21
1.2347705511811022
0
LINE
8
BLACK
6
CONTINUOUS
10
0.1206912204724409
20
1.2347705511811022
11
0.1238253937007874
21
1.221038779527559
0
LINE
8
BLACK
6
CONTINUOUS
10
0.1238253937007874
20
1.221038779527559
11
0.1254024015748031
21
1.2070424409448819
0
LINE
8
BLACK
6
CONTINUOUS
10
0.1254024015748031
20
1.2070424409448819
11
0.1254024015748031
21
1.192957559055118
0
LINE
8
BLACK
6
CONTINUOUS
10
0.1254024015748031
20
1.192957559055118
11
0.1238253937007874
21
1.1789612204724409
0
LINE
8
BLACK
6
CONTINUOUS
10
0.1238253937007874
20
1.1789612204724409
11
0.1206912204724409
21
1.1652294488188977
0
LINE
8
BLACK
6
CONTINUOUS
10
0.1206912204724409
20
1.1652294488188977
11
0.1160392519685039
21
1.1519349606299212
0
LINE
8
BLACK
6
CONTINUOUS
10
0.1160392519685039
20
1.1519349606299212
11
0.1099280708661417
21
1.1392449212598426
0
LINE
8
BLACK
6
CONTINUOUS
10
0.1099280708661417
20
1.1392449212598426
11
0.1024344488188976
21
1.1273188976377952
0
LINE
8
BLACK
6
CONTINUOUS
10
0.1024344488188976
20
1.1273188976377952
11
0.0936526377952756
21
1.1163068503937008
0
LINE
8
BLACK
6
CONTINUOUS
10
0.0936526377952756
20
1.1163068503937008
11
0.0836931496062992
21
1.1063473622047244
0
LINE
8
BLACK
6
CONTINUOUS
10
0.0836931496062992
20
1.1063473622047244
11
0.0726811023622047
21
1.0975655511811024
0
LINE
8
BLACK
6
CONTINUOUS
10
0.0726811023622047
20
1.0975655511811024
11
0.0607550787401575
21
1.0900719291338583
0
LINE
8
BLACK
6
CONTINUOUS
10
0.0607550787401575
20
1.0900719291338583
11
0.0480650393700787
21
1.0839607480314961
0
LINE
8
BLACK
6
CONTINUOUS
10
0.0480650393700787
20
1.0839607480314961
11
0.0347705511811024
21
1.0793087795275591
0
LINE
8
BLACK
6
CONTINUOUS
10
0.0347705511811024
20
1.0793087795275591
11
0.0210387795275591
21
1.0761746062992126
0
LINE
8
BLACK
6
CONTINUOUS
10
0.0210387795275591
20
1.0761746062992126
11
0.0070424409448819
21
1.0745975984251968
0
LINE
8
BLACK
6
CONTINUOUS
10
0.0070424409448819
20
1.0745975984251968
11
-0.0070424409448819
21
1.0745975984251968
0
LINE
8
BLACK
6
CONTINUOUS
10
-0.0070424409448819
20
1.0745975984251968
11
-0.0210387795275591
21
1.0761746062992126
0
LINE
8
BLACK
6
CONTINUOUS
10
-0.0210387795275591
20
1.0761746062992126
11
-0.0347705511811024
21
1.0793087795275591
0
LINE
8
BLACK
6
CONTINUOUS
10
-0.0347705511811024
20
1.0793087795275591
11
-0.0480650393700787
21
1.0839607480314961
0
LINE
8
BLACK
6
CONTINUOUS
10
-0.0480650393700787
20
1.0839607480314961
11
-0.0607550787401575
21
1.0900719291338583
0
LINE
8
BLACK
6
CONTINUOUS
10
-0.0607550787401575
20
1.0900719291338583
11
-0.0726811023622047
21
1.0975655511811024
0
LINE
8
BLACK
6
CONTINUOUS
10
-0.0726811023622047
20
1.0975655511811024
11
-0.0836931496062992
21
1.1063473622047244
0
LINE
8
BLACK
6
CONTINUOUS
10
-0.0836931496062992
20
1.1063473622047244
11
-0.0936526377952756
21
1.1163068503937008
0
LINE
8
BLACK
6
CONTINUOUS
10
-0.0936526377952756
20
1.1163068503937008
11
-0.1024344488188976
21
1.1273188976377952
0
LINE
8
BLACK
6
CONTINUOUS
10
-0.1024344488188976
20
1.1273188976377952
11
-0.1099280708661417
21
1.1392449212598426
0
LINE
8
BLACK
6
CONTINUOUS
10
-0.1099280708661417
20
1.1392449212598426
11
-0.1160392519685039
21
1.1519349606299212
0
LINE
8
BLACK
6
CONTINUOUS
10
-0.1160392519685039
20
1.1519349606299212
11
-0.1206912204724409
21
1.1652294488188977
0
LINE
8
BLACK
6
CONTINUOUS
10
-0.1206912204724409
20
1.1652294488188977
11
-0.1238253937007874
21
1.1789612204724409
0
LINE
8
BLACK
6
CONTINUOUS
10
-0.1238253937007874
20
1.1789612204724409
11
-0.1254024015748031
21
1.192957559055118
0
LINE
8
BLACK
6
CONTINUOUS
10
-0.1254024015748031
20
1.192957559055118
11
-0.1254024015748031
21
1.2062111811023621
0
LINE
8
BLACK
6
CONTINUOUS
10
-0.1254024015748031
20
1.2062111811023621
11
-0.1254024015748031
21
1.2070424409448819
0
LINE
8
BLACK
6
CONTINUOUS
10
-0.1254024015748031
20
1.2070424409448819
11
-0.1238253937007874
21
1.221038779527559
0
LINE
8
BLACK
6
CONTINUOUS
10
-0.1238253937007874
20
1.221038779527559
11
-0.1206912204724409
21
1.2347705511811022
0
LINE
8
BLACK
6
CONTINUOUS
10
-0.1206912204724409
20
1.2347705511811022
11
-0.1160392519685039
21
1.2480650393700787
0
LINE
8
BLACK
6
CONTINUOUS
10
-0.1160392519685039
20
1.2480650393700787
11
-0.1099280708661417
21
1.2607550787401574
0
LINE
8
BLACK
6
CONTINUOUS
10
-0.1099280708661417
20
1.2607550787401574
11
-0.1024344488188976
21
1.2726811023622047
0
LINE
8
BLACK
6
CONTINUOUS
10
-0.1024344488188976
20
1.2726811023622047
11
-0.0936526377952756
21
1.2836931496062991
0
LINE
8
BLACK
6
CONTINUOUS
10
-0.0936526377952756
20
1.2836931496062991
11
-0.0836931496062992
21
1.2936526377952755
0
LINE
8
BLACK
6
CONTINUOUS
10
-0.0836931496062992
20
1.2936526377952755
11
-0.0726811023622047
21
1.3024344488188977
0
LINE
8
BLACK
6
CONTINUOUS
10
-0.0726811023622047
20
1.3024344488188977
11
-0.0607550787401575
21
1.3099280708661416
0
LINE
8
BLACK
6
CONTINUOUS
10
-0.0607550787401575
20
1.3099280708661416
11
-0.0480650393700787
21
1.3160392519685038
0
LINE
8
BLACK
6
CONTINUOUS
10
-0.0480650393700787
20
1.3160392519685038
11
-0.0347705511811024
21
1.3206912204724408
0
LINE
8
BLACK
6
CONTINUOUS
10
-0.0347705511811024
20
1.3206912204724408
11
-0.0210387795275591
21
1.3238253937007873
0
LINE
8
BLACK
6
CONTINUOUS
10
-0.0210387795275591
20
1.3238253937007873
11
-0.0070424409448819
21
1.3254024015748032
0
LINE
8
BLACK
6
CONTINUOUS
10
-0.0070424409448819
20
1.3254024015748032
11
0.0070424409448819
21
1.3254024015748032
0
LINE
8
BLACK
6
CONTINUOUS
10
0.0070424409448819
20
1.3254024015748032
11
0.0210387795275591
21
1.3238253937007873
0
LINE
8
BLACK
6
CONTINUOUS
10
-0.1106
20
1.1937888188976378
11
-0.1092091338582677
21
1.1814446062992126
0
LINE
8
BLACK
6
CONTINUOUS
10
-0.1092091338582677
20
1.1814446062992126
11
-0.1064448818897638
21
1.1693337401574804
0
LINE
8
BLACK
6
CONTINUOUS
10
-0.1064448818897638
20
1.1693337401574804
11
-0.1023420472440945
21
1.1576085433070866
0
LINE
8
BLACK
6
CONTINUOUS
10
-0.1023420472440945
20
1.1576085433070866
11
-0.0969522047244094
21
1.1464164173228346
0
LINE
8
BLACK
6
CONTINUOUS
10
-0.0969522047244094
20
1.1464164173228346
11
-0.0903431496062992
21
1.1358981102362204
0
LINE
8
BLACK
6
CONTINUOUS
10
-0.0903431496062992
20
1.1358981102362204
11
-0.0825979527559055
21
1.1261859448818898
0
LINE
8
BLACK
6
CONTINUOUS
10
-0.0825979527559055
20
1.1261859448818898
11
-0.0738140551181102
21
1.1174020472440944
0
LINE
8
BLACK
6
CONTINUOUS
10
-0.0738140551181102
20
1.1174020472440944
11
-0.0641018897637795
21
1.1096568503937008
0
LINE
8
BLACK
6
CONTINUOUS
10
-0.0641018897637795
20
1.1096568503937008
11
-0.0535835826771654
21
1.1030477952755906
0
LINE
8
BLACK
6
CONTINUOUS
10
-0.0535835826771654
20
1.1030477952755906
11
-0.0423914566929134
21
1.0976579527559054
0
LINE
8
BLACK
6
CONTINUOUS
10
-0.0423914566929134
20
1.0976579527559054
11
-0.0306662598425197
21
1.0935551181102361
0
LINE
8
BLACK
6
CONTINUOUS
10
-0.0306662598425197
20
1.0935551181102361
11
-0.0185553937007874
21
1.0907908661417323
0
LINE
8
BLACK
6
CONTINUOUS
10
-0.0185553937007874
20
1.0907908661417323
11
-0.0062111811023622
21
1.0893999999999999
0
LINE
8
BLACK
6
CONTINUOUS
10
-0.0062111811023622
20
1.0893999999999999
11
0.0062111811023622
21
1.0893999999999999
0
LINE
8
BLACK
6
CONTINUOUS
10
0.0062111811023622
20
1.0893999999999999
11
0.0185553937007874
21
1.0907908661417323
0
LINE
8
BLACK
6
CONTINUOUS
10
0.0185553937007874
20
1.0907908661417323
11
0.0306662598425197
21
1.0935551181102361
0
LINE
8
BLACK
6
CONTINUOUS
10
0.0306662598425197
20
1.0935551181102361
11
0.0423914566929134
21
1.0976579527559054
0
LINE
8
BLACK
6
CONTINUOUS
10
0.0423914566929134
20
1.0976579527559054
11
0.0535835826771654
21
1.1030477952755906
0
LINE
8
BLACK
6
CONTINUOUS
10
0.0535835826771654
20
1.1030477952755906
11
0.0641018897637795
21
1.1096568503937008
0
LINE
8
BLACK
6
CONTINUOUS
10
0.0641018897637795
20
1.1096568503937008
11
0.0738140551181102
21
1.1174020472440944
0
LINE
8
BLACK
6
CONTINUOUS
10
0.0738140551181102
20
1.1174020472440944
11
0.0825979527559055
21
1.1261859448818898
0
LINE
8
BLACK
6
CONTINUOUS
10
0.0825979527559055
20
1.1261859448818898
11
0.0903431496062992
21
1.1358981102362204
0
LINE
8
BLACK
6
CONTINUOUS
10
0.0903431496062992
20
1.1358981102362204
11
0.0969522047244094
21
1.1464164173228346
0
LINE
8
BLACK
6
CONTINUOUS
10
0.0969522047244094
20
1.1464164173228346
11
0.1023420472440945
21
1.1576085433070866
0
LINE
8
BLACK
6
CONTINUOUS
10
0.1023420472440945
20
1.1576085433070866
11
0.1064448818897638
21
1.1693337401574804
0
LINE
8
BLACK
6
CONTINUOUS
10
0.1064448818897638
20
1.1693337401574804
11
0.1092091338582677
21
1.1814446062992126
0
LINE
8
BLACK
6
CONTINUOUS
10
0.1092091338582677
20
1.1814446062992126
11
0.1106
21
1.1937888188976378
0
LINE
8
BLACK
6
CONTINUOUS
10
0.1106
20
1.1937888188976378
11
0.1106
21
1.2062111811023621
0
LINE
8
BLACK
6
CONTINUOUS
10
0.1106
20
1.2062111811023621
11
0.1092091338582677
21
1.2185553937007874
0
LINE
8
BLACK
6
CONTINUOUS
10
0.1092091338582677
20
1.2185553937007874
11
0.1064448818897638
21
1.2306662598425198
0
LINE
8
BLACK
6
CONTINUOUS
10
0.1064448818897638
20
1.2306662598425198
11
0.1023420472440945
21
1.2423914566929133
0
LINE
8
BLACK
6
CONTINUOUS
10
0.1023420472440945
20
1.2423914566929133
11
0.0969522047244094
21
1.2535835826771653
0
LINE
8
BLACK
6
CONTINUOUS
10
0.0969522047244094
20
1.2535835826771653
11
0.0903431496062992
21
1.2641018897637795
0
LINE
8
BLACK
6
CONTINUOUS
10
0.0903431496062992
20
1.2641018897637795
11
0.0825979527559055
21
1.2738140551181103
0
LINE
8
BLACK
6
CONTINUOUS
10
0.0825979527559055
20
1.2738140551181103
11
0.0738140551181102
21
1.2825979527559055
0
LINE
8
BLACK
6
CONTINUOUS
10
0.0738140551181102
20
1.2825979527559055
11
0.0641018897637795
21
1.2903431496062991
0
LINE
8
BLACK
6
CONTINUOUS
10
0.0641018897637795
20
1.2903431496062991
11
0.0535835826771654
21
1.2969522047244095
0
LINE
8
BLACK
6
CONTINUOUS
10
0.0535835826771654
20
1.2969522047244095
11
0.0423914566929134
21
1.3023420472440945
0
LINE
8
BLACK
6
CONTINUOUS
10
0.0423914566929134
20
1.3023420472440945
11
0.0306662598425197
21
1.3064448818897638
0
LINE
8
BLACK
6
CONTINUOUS
10
0.0306662598425197
20
1.3064448818897638
11
0.0185553937007874
21
1.3092091338582676
0
LINE
8
BLACK
6
CONTINUOUS
10
0.0185553937007874
20
1.3092091338582676
11
0.0062111811023622
21
1.3106
0
LINE
8
BLACK
6
CONTINUOUS
10
0.0062111811023622
20
1.3106
11
-0.0062111811023622
21
1.3106
0
LINE
8
BLACK
6
CONTINUOUS
10
-0.0062111811023622
20
1.3106
11
-0.0185553937007874
21
1.3092091338582676
0
LINE
8
BLACK
6
CONTINUOUS
10
-0.0185553937007874
20
1.3092091338582676
11
-0.0306662598425197
21
1.3064448818897638
0
LINE
8
BLACK
6
CONTINUOUS
10
-0.0306662598425197
20
1.3064448818897638
11
-0.0423914566929134
21
1.3023420472440945
0
LINE
8
BLACK
6
CONTINUOUS
10
-0.0423914566929134
20
1.3023420472440945
11
-0.0535835826771654
21
1.2969522047244095
0
LINE
8
BLACK
6
CONTINUOUS
10
-0.0535835826771654
20
1.2969522047244095
11
-0.0641018897637795
21
1.2903431496062991
0
LINE
8
BLACK
6
CONTINUOUS
10
-0.0641018897637795
20
1.2903431496062991
11
-0.0738140551181102
21
1.2825979527559055
0
LINE
8
BLACK
6
CONTINUOUS
10
-0.0738140551181102
20
1.2825979527559055
11
-0.0825979527559055
21
1.2738140551181103
0
LINE
8
BLACK
6
CONTINUOUS
10
-0.0825979527559055
20
1.2738140551181103
11
-0.0903431496062992
21
1.2641018897637795
0
LINE
8
BLACK
6
CONTINUOUS
10
-0.0903431496062992
20
1.2641018897637795
11
-0.0969522047244094
21
1.2535835826771653
0
LINE
8
BLACK
6
CONTINUOUS
10
-0.0969522047244094
20
1.2535835826771653
11
-0.1023420472440945
21
1.2423914566929133
0
LINE
8
BLACK
6
CONTINUOUS
10
-0.1023420472440945
20
1.2423914566929133
11
-0.1064448818897638
21
1.2306662598425198
0
LINE
8
BLACK
6
CONTINUOUS
10
-0.1064448818897638
20
1.2306662598425198
11
-0.1092091338582677
21
1.2185553937007874
0
LINE
8
BLACK
6
CONTINUOUS
10
-0.1092091338582677
20
1.2185553937007874
11
-0.1106
21
1.2062111811023621
0
LINE
8
BLACK
6
CONTINUOUS
10
-0.1106
20
1.2062111811023621
11
-0.1106
21
1.1937888188976378
0
LINE
8
BLACK
6
CONTINUOUS
10
1.221038779527559
20
1.3238253937007873
11
1.2347705511811022
21
1.3206912204724408
0
LINE
8
BLACK
6
CONTINUOUS
10
1.2347705511811022
20
1.3206912204724408
11
1.2480650393700787
21
1.3160392519685038
0
LINE
8
BLACK
6
CONTINUOUS
10
1.2480650393700787
20
1.3160392519685038
11
1.2607550787401574
21
1.3099280708661416
0
LINE
8
BLACK
6
CONTINUOUS
10
1.2607550787401574
20
1.3099280708661416
11
1.2726811023622047
21
1.3024344488188977
0
LINE
8
BLACK
6
CONTINUOUS
10
1.2726811023622047
20
1.3024344488188977
11
1.2836931496062991
21
1.2936526377952755
0
LINE
8
BLACK
6
CONTINUOUS
10
1.2836931496062991
20
1.2936526377952755
11
1.2936526377952755
21
1.2836931496062991
0
LINE
8
BLACK
6
CONTINUOUS
10
1.2936526377952755
20
1.2836931496062991
11
1.3024344488188977
21
1.2726811023622047
0
LINE
8
BLACK
6
CONTINUOUS
10
1.3024344488188977
20
1.2726811023622047
11
1.3099280708661416
21
1.2607550787401574
0
LINE
8
BLACK
6
CONTINUOUS
10
1.3099280708661416
20
1.2607550787401574
11
1.3160392519685038
21
1.2480650393700787
0
LINE
8
BLACK
6
CONTINUOUS
10
1.3160392519685038
20
1.2480650393700787
11
1.3206912204724408
21
1.2347705511811022
0
LINE
8
BLACK
6
CONTINUOUS
10
1.3206912204724408
20
1.2347705511811022
11
1.3238253937007873
21
1.221038779527559
0
LINE
8
BLACK
6
CONTINUOUS
10
1.3238253937007873
20
1.221038779527559
11
1.3254024015748032
21
1.2070424409448819
0
LINE
8
BLACK
6
CONTINUOUS
10
1.3254024015748032
20
1.2070424409448819
11
1.3254024015748032
21
1.192957559055118
0
LINE
8
BLACK
6
CONTINUOUS
10
1.3254024015748032
20
1.192957559055118
11
1.3238253937007873
21
1.1789612204724409
0
LINE
8
BLACK
6
CONTINUOUS
10
1.3238253937007873
20
1.1789612204724409
11
1.3206912204724408
21
1.1652294488188977
0
LINE
8
BLACK
6
CONTINUOUS
10
1.3206912204724408
20
1.1652294488188977
11
1.3160392519685038
21
1.1519349606299212
0
LINE
8
BLACK
6
CONTINUOUS
10
1.3160392519685038
20
1.1519349606299212
11
1.3099280708661416
21
1.1392449212598426
0
LINE
8
BLACK
6
CONTINUOUS
10
1.3099280708661416
20
1.1392449212598426
11
1.3024344488188977
21
1.1273188976377952
0
LINE
8
BLACK
6
CONTINUOUS
10
1.3024344488188977
20
1.1273188976377952
11
1.2936526377952755
21
1.1163068503937008
0
LINE
8
BLACK
6
CONTINUOUS
10
1.2936526377952755
20
1.1163068503937008
11
1.2836931496062991
21
1.1063473622047244
0
LINE
8
BLACK
6
CONTINUOUS
10
1.2836931496062991
20
1.1063473622047244
11
1.2726811023622047
21
1.0975655511811024
0
LINE
8
BLACK
6
CONTINUOUS
10
1.2726811023622047
20
1.0975655511811024
11
1.2607550787401574
21
1.0900719291338583
0
LINE
8
BLACK
6
CONTINUOUS
10
1.2607550787401574
20
1.0900719291338583
11
1.2480650393700787
21
1.0839607480314961
0
LINE
8
BLACK
6
CONTINUOUS
10
1.2480650393700787
20
1.0839607480314961
11
1.2347705511811022
21
1.0793087795275591
0
LINE
8
BLACK
6
CONTINUOUS
10
1.2347705511811022
20
1.0793087795275591
11
1.221038779527559
21
1.0761746062992126
0
LINE
8
BLACK
6
CONTINUOUS
10
1.221038779527559
20
1.0761746062992126
11
1.2070424409448819
21
1.0745975984251968
0
LINE
8
BLACK
6
CONTINUOUS
10
1.2070424409448819
20
1.0745975984251968
11
1.192957559055118
21
1.0745975984251968
0
LINE
8
BLACK
6
CONTINUOUS
10
1.192957559055118
20
1.0745975984251968
11
1.1789612204724409
21
1.0761746062992126
0
LINE
8
BLACK
6
CONTINUOUS
10
1.1789612204724409
20
1.0761746062992126
11
1.1652294488188977
21
1.0793087795275591
0
LINE
8
BLACK
6
CONTINUOUS
10
1.1652294488188977
20
1.0793087795275591
11
1.1519349606299212
21
1.0839607480314961
0
LINE
8
BLACK
6
CONTINUOUS
10
1.1519349606299212
20
1.0839607480314961
11
1.1392449212598426
21
1.0900719291338583
0
LINE
8
BLACK
6
CONTINUOUS
10
1.1392449212598426
20
1.0900719291338583
11
1.1273188976377952
21
1.0975655511811024
0
LINE
8
BLACK
6
CONTINUOUS
10
1.1273188976377952
20
1.0975655511811024
11
1.1163068503937008
21
1.1063473622047244
0
LINE
8
BLACK
6
CONTINUOUS
10
1.1163068503937008
20
1.1063473622047244
11
1.1063473622047244
21
1.1163068503937008
0
LINE
8
BLACK
6
CONTINUOUS
10
1.1063473622047244
20
1.1163068503937008
11
1.0975655511811024
21
1.1273188976377952
0
LINE
8
BLACK
6
CONTINUOUS
10
1.0975655511811024
20
1.1273188976377952
11
1.0900719291338583
21
1.1392449212598426
0
LINE
8
BLACK
6
CONTINUOUS
10
1.0900719291338583
20
1.1392449212598426
11
1.0839607480314961
21
1.1519349606299212
0
LINE
8
BLACK
6
CONTINUOUS
10
1.0839607480314961
20
1.1519349606299212
11
1.0793087795275591
21
1.1652294488188977
0
LINE
8
BLACK
6
CONTINUOUS
10
1.0793087795275591
20
1.1652294488188977
11
1.0761746062992126
21
1.1789612204724409
0
LINE
8
BLACK
6
CONTINUOUS
10
1.0761746062992126
20
1.1789612204724409
11
1.0745975984251968
21
1.192957559055118
0
LINE
8
BLACK
6
CONTINUOUS
10
1.0745975984251968
20
1.192957559055118
11
1.0745975984251968
21
1.2062111811023621
0
LINE
8
BLACK
6
CONTINUOUS
10
1.0745975984251968
20
1.2062111811023621
11
1.0745975984251968
21
1.2070424409448819
0
LINE
8
BLACK
6
CONTINUOUS
10
1.0745975984251968
20
1.2070424409448819
11
1.0761746062992126
21
1.221038779527559
0
LINE
8
BLACK
6
CONTINUOUS
10
1.0761746062992126
20
1.221038779527559
11
1.0793087795275591
21
1.2347705511811022
0
LINE
8
BLACK
6
CONTINUOUS
10
1.0793087795275591
20
1.2347705511811022
11
1.0839607480314961
21
1.2480650393700787
0
LINE
8
BLACK
6
CONTINUOUS
10
1.0839607480314961
20
1.2480650393700787
11
1.0900719291338583
21
1.2607550787401574
0
LINE
8
BLACK
6
CONTINUOUS
10
1.0900719291338583
20
1.2607550787401574
11
1.0975655511811024
21
1.2726811023622047
0
LINE
8
BLACK
6
CONTINUOUS
10
1.0975655511811024
20
1.2726811023622047
11
1.1063473622047244
21
1.2836931496062991
0
LINE
8
BLACK
6
CONTINUOUS
10
1.1063473622047244
20
1.2836931496062991
11
1.1163068503937008
21
1.2936526377952755
0
LINE
8
BLACK
6
CONTINUOUS
10
1.1163068503937008
20
1.2936526377952755
11
1.1273188976377952
21
1.3024344488188977
0
LINE
8
BLACK
6
CONTINUOUS
10
1.1273188976377952
20
1.3024344488188977
11
1.1392449212598426
21
1.3099280708661416
0
LINE
8
BLACK
6
CONTINUOUS
10
1.1392449212598426
20
1.3099280708661416
11
1.1519349606299212
21
1.3160392519685038
0
LINE
8
BLACK
6
CONTINUOUS
10
1.1519349606299212
20
1.3160392519685038
11
1.1652294488188977
21
1.3206912204724408
0
LINE
8
BLACK
6
CONTINUOUS
10
1.1652294488188977
20
1.3206912204724408
11
1.1789612204724409
21
1.3238253937007873
0
LINE
8
BLACK
6
CONTINUOUS
10
1.1789612204724409
20
1.3238253937007873
11
1.192957559055118
21
1.3254024015748032
0
LINE
8
BLACK
6
CONTINUOUS
10
1.192957559055118
20
1.3254024015748032
11
1.2070424409448819
21
1.3254024015748032
0
LINE
8
BLACK
6
CONTINUOUS
10
1.2070424409448819
20
1.3254024015748032
11
1.221038779527559
21
1.3238253937007873
0
LINE
8
BLACK
6
CONTINUOUS
10
1.0893999999999999
20
1.1937888188976378
11
1.0907908661417323
21
1.1814446062992126
0
LINE
8
BLACK
6
CONTINUOUS
10
1.0907908661417323
20
1.1814446062992126
11
1.0935551181102361
21
1.1693337401574804
0
LINE
8
BLACK
6
CONTINUOUS
10
1.0935551181102361
20
1.1693337401574804
11
1.0976579527559054
21
1.1576085433070866
0
LINE
8
BLACK
6
CONTINUOUS
10
1.0976579527559054
20
1.1576085433070866
11
1.1030477952755906
21
1.1464164173228346
0
LINE
8
BLACK
6
CONTINUOUS
10
1.1030477952755906
20
1.1464164173228346
11
1.1096568503937008
21
1.1358981102362204
0
LINE
8
BLACK
6
CONTINUOUS
10
1.1096568503937008
20
1.1358981102362204
11
1.1174020472440944
21
1.1261859448818898
0
LINE
8
BLACK
6
CONTINUOUS
10
1.1174020472440944
20
1.1261859448818898
11
1.1261859448818898
21
1.1174020472440944
0
LINE
8
BLACK
6
CONTINUOUS
10
1.1261859448818898
20
1.1174020472440944
11
1.1358981102362204
21
1.1096568503937008
0
LINE
8
BLACK
6
CONTINUOUS
10
1.1358981102362204
20
1.1096568503937008
11
1.1464164173228346
21
1.1030477952755906
0
LINE
8
BLACK
6
CONTINUOUS
10
1.1464164173228346
20
1.1030477952755906
11
1.1576085433070866
21
1.0976579527559054
0
LINE
8
BLACK
6
CONTINUOUS
10
1.1576085433070866
20
1.0976579527559054
11
1.1693337401574804
21
1.0935551181102361
0
LINE
8
BLACK
6
CONTINUOUS
10
1.1693337401574804
20
1.0935551181102361
11
1.1814446062992126
21
1.0907908661417323
0
LINE
8
BLACK
6
CONTINUOUS
10
1.1814446062992126
20
1.0907908661417323
11
1.1937888188976378
21
1.0893999999999999
0
LINE
8
BLACK
6
CONTINUOUS
10
1.1937888188976378
20
1.0893999999999999
11
1.2062111811023621
21
1.0893999999999999
0
LINE
8
BLACK
6
CONTINUOUS
10
1.2062111811023621
20
1.0893999999999999
11
1.2185553937007874
21
1.0907908661417323
0
LINE
8
BLACK
6
CONTINUOUS
10
1.2185553937007874
20
1.0907908661417323
11
1.2306662598425198
21
1.0935551181102361
0
LINE
8
BLACK
6
CONTINUOUS
10
1.2306662598425198
20
1.0935551181102361
11
1.2423914566929133
21
1.0976579527559054
0
LINE
8
BLACK
6
CONTINUOUS
10
1.2423914566929133
20
1.0976579527559054
11
1.2535835826771653
21
1.1030477952755906
0
LINE
8
BLACK
6
CONTINUOUS
10
1.2535835826771653
20
1.1030477952755906
11
1.2641018897637795
21
1.1096568503937008
0
LINE
8
BLACK
6
CONTINUOUS
10
1.2641018897637795
20
1.1096568503937008
11
1.2738140551181103
21
1.1174020472440944
0
LINE
8
BLACK
6
CONTINUOUS
10
1.2738140551181103
20
1.1174020472440944
11
1.2825979527559055
21
1.1261859448818898
0
LINE
8
BLACK
6
CONTINUOUS
10
1.2825979527559055
20
1.1261859448818898
11
1.2903431496062991
21
1.1358981102362204
0
LINE
8
BLACK
6
CONTINUOUS
10
1.2903431496062991
20
1.1358981102362204
11
1.2969522047244095
21
1.1464164173228346
0
LINE
8
BLACK
6
CONTINUOUS
10
1.2969522047244095
20
1.1464164173228346
11
1.3023420472440945
21
1.1576085433070866
0
LINE
8
BLACK
6
CONTINUOUS
10
1.3023420472440945
20
1.1576085433070866
11
1.3064448818897638
21
1.1693337401574804
0
LINE
8
BLACK
6
CONTINUOUS
10
1.3064448818897638
20
1.1693337401574804
11
1.3092091338582676
21
1.1814446062992126
0
LINE
8
BLACK
6
CONTINUOUS
10
1.3092091338582676
20
1.1814446062992126
11
1.3106
21
1.1937888188976378
0
LINE
8
BLACK
6
CONTINUOUS
10
1.3106
20
1.1937888188976378
11
1.3106
21
1.2062111811023621
0
LINE
8
BLACK
6
CONTINUOUS
10
1.3106
20
1.2062111811023621
11
1.3092091338582676
21
1.2185553937007874
0
LINE
8
BLACK
6
CONTINUOUS
10
1.3092091338582676
20
1.2185553937007874
11
1.3064448818897638
21
1.2306662598425198
0
LINE
8
BLACK
6
CONTINUOUS
10
1.3064448818897638
20
1.2306662598425198
11
1.3023420472440945
21
1.2423914566929133
0
LINE
8
BLACK
6
CONTINUOUS
10
1.3023420472440945
20
1.2423914566929133
11
1.2969522047244095
21
1.2535835826771653
0
LINE
8
BLACK
6
CONTINUOUS
10
1.2969522047244095
20
1.2535835826771653
11
1.2903431496062991
21
1.2641018897637795
0
LINE
8
BLACK
6
CONTINUOUS
10
1.2903431496062991
20
1.2641018897637795
11
1.2825979527559055
21
1.2738140551181103
0
LINE
8
BLACK
6
CONTINUOUS
10
1.2825979527559055
20
1.2738140551181103
11
1.2738140551181103
21
1.2825979527559055
0
LINE
8
BLACK
6
CONTINUOUS
10
1.2738140551181103
20
1.2825979527559055
11
1.2641018897637795
21
1.2903431496062991
0
LINE
8
BLACK
6
CONTINUOUS
10
1.2641018897637795
20
1.2903431496062991
11
1.2535835826771653
21
1.2969522047244095
0
LINE
8
BLACK
6
CONTINUOUS
10
1.2535835826771653
20
1.2969522047244095
11
1.2423914566929133
21
1.3023420472440945
0
LINE
8
BLACK
6
CONTINUOUS
10
1.2423914566929133
20
1.3023420472440945
11
1.2306662598425198
21
1.3064448818897638
0
LINE
8
BLACK
6
CONTINUOUS
10
1.2306662598425198
20
1.3064448818897638
11
1.2185553937007874
21
1.3092091338582676
0
LINE
8
BLACK
6
CONTINUOUS
10
1.2185553937007874
20
1.3092091338582676
11
1.2062111811023621
21
1.3106
0
LINE
8
BLACK
6
CONTINUOUS
10
1.2062111811023621
20
1.3106
11
1.1937888188976378
21
1.3106
0
LINE
8
BLACK
6
CONTINUOUS
10
1.1937888188976378
20
1.3106
11
1.1814446062992126
21
1.3092091338582676
0
LINE
8
BLACK
6
CONTINUOUS
10
1.1814446062992126
20
1.3092091338582676
11
1.1693337401574804
21
1.3064448818897638
0
LINE
8
BLACK
6
CONTINUOUS
10
1.1693337401574804
20
1.3064448818897638
11
1.1576085433070866
21
1.3023420472440945
0
LINE
8
BLACK
6
CONTINUOUS
10
1.1576085433070866
20
1.3023420472440945
11
1.1464164173228346
21
1.2969522047244095
0
LINE
8
BLACK
6
CONTINUOUS
10
1.1464164173228346
20
1.2969522047244095
11
1.1358981102362204
21
1.2903431496062991
0
LINE
8
BLACK
6
CONTINUOUS
10
1.1358981102362204
20
1.2903431496062991
11
1.1261859448818898
21
1.2825979527559055
0
LINE
8
BLACK
6
CONTINUOUS
10
1.1261859448818898
20
1.2825979527559055
11
1.1174020472440944
21
1.2738140551181103
0
LINE
8
BLACK
6
CONTINUOUS
10
1.1174020472440944
20
1.2738140551181103
11
1.1096568503937008
21
1.2641018897637795
0
LINE
8
BLACK
6
CONTINUOUS
10
1.1096568503937008
20
1.2641018897637795
11
1.1030477952755906
21
1.2535835826771653
0
LINE
8
BLACK
6
CONTINUOUS
10
1.1030477952755906
20
1.2535835826771653
11
1.0976579527559054
21
1.2423914566929133
0
LINE
8
BLACK
6
CONTINUOUS
10
1.0976579527559054
20
1.2423914566929133
11
1.0935551181102361
21
1.2306662598425198
0
LINE
8
BLACK
6
CONTINUOUS
10
1.0935551181102361
20
1.2306662598425198
11
1.0907908661417323
21
1.2185553937007874
0
LINE
8
BLACK
6
CONTINUOUS
10
1.0907908661417323
20
1.2185553937007874
11
1.0893999999999999
21
1.2062111811023621
0
LINE
8
BLACK
6
CONTINUOUS
10
1.0893999999999999
20
1.2062111811023621
11
1.0893999999999999
21
1.1937888188976378
0
CIRCLE
8
BLACK
10
0.
20
1.2
40
0.0068897637795276
0
CIRCLE
8
BLACK
10
1.2
20
0.
40
0.0068897637795276
0
CIRCLE
8
BLACK
10
1.25
20
0.5
40
0.0068897637795276
0
CIRCLE
8
BLACK
10
1.1499999999999999
20
0.5
40
0.0068897637795276
0
CIRCLE
8
BLACK
10
1.25
20
0.6
40
0.0068897637795276
0
CIRCLE
8
BLACK
10
1.1499999999999999
20
0.6
40
0.0068897637795276
0
CIRCLE
8
BLACK
10
1.25
20
0.7
40
0.0068897637795276
0
CIRCLE
8
BLACK
10
1.1499999999999999
20
0.7
40
0.0068897637795276
0
CIRCLE
8
BLACK
10
0.
20
0.
40
0.0068897637795276
0
CIRCLE
8
BLACK
10
1.2
20
1.2
40
0.0068897637795276
0
CIRCLE
8
BLACK
10
0.
20
1.2
40
0.0068897637795276
0
CIRCLE
8
BLACK
10
1.2
20
0.
40
0.0068897637795276
0
CIRCLE
8
BLACK
10
1.25
20
0.5
40
0.0068897637795276
0
CIRCLE
8
BLACK
10
1.1499999999999999
20
0.5
40
0.0068897637795276
0
CIRCLE
8
BLACK
10
1.25
20
0.6
40
0.0068897637795276
0
CIRCLE
8
BLACK
10
1.1499999999999999
20
0.6
40
0.0068897637795276
0
CIRCLE
8
BLACK
10
1.25
20
0.7
40
0.0068897637795276
0
CIRCLE
8
BLACK
10
1.1499999999999999
20
0.7
40
0.0068897637795276
0
CIRCLE
8
BLACK
10
0.
20
0.
40
0.0068897637795276
0
CIRCLE
8
BLACK
10
1.2
20
1.2
40
0.0068897637795276
  0
ENDSEC
  0
EOF
