  0
SECTION
  2
HEADER
  9
$ANGBASE
  50
0.0
  9
$ANGDIR
  70
1
  9
$MEASUREMENT
  70
0
  0
ENDSEC
  0
SECTION
  2
TABLES
  0
TABLE
  2
LTYPE
  70
4
  0
LTYPE
  5
40F
  2
CONTINUOUS
  70
0
  3
Solid line
  72
65
  73
0
  40
0.0
  0
LTYPE
  5
410
  2
DASHDOT
 70
0
  3
Dash Dot ____ _ ____ _
 72
65
 73
4
 40
2.0
 49
1.25
 49
-0.25
 49
0.25
 49
-0.25
  0
LTYPE
  5
411
  2
DASHED
 70
0
  3
Dashed __ __ __ __ __
 72
65
 73
2
 40
0.75
 49
0.5
 49
-0.25
  0
LTYPE
  5
43B
  2
DOTTED
 70
0
  3
Dotted .  .  .  .
 72
65
 73
2
 40
0.2
 49
0.0
 49
-0.2
  0
ENDTAB
  0
TABLE
  2
STYLE
  70
4
  0
STYLE
  2
KICAD
  70
0
  40
0
  41
1
  42
1
  50
0
  71
0
  3
isocp.shx
  0
STYLE
  2
KICADB
  70
0
  40
0
  41
1
  42
1
  50
0
  71
0
  3
isocp.shx
  0
STYLE
  2
KICADI
  70
0
  40
0
  41
1
  42
1
  50
15
  71
0
  3
isocp.shx
  0
STYLE
  2
KICADBI
  70
0
  40
0
  41
1
  42
1
  50
15
  71
0
  3
isocp.shx
  0
ENDTAB
  0
TABLE
  2
LAYER
  70
1
  0
LAYER
  2
BLACK
  70
0
  62
7
  6
CONTINUOUS
  0
ENDTAB
  0
ENDSEC
  0
SECTION
  2
ENTITIES
0
LINE
8
BLACK
6
CONTINUOUS
10
0.3762075196850393
20
0.4277940944881889
11
0.3794006692913386
21
0.4256605118110236
0
LINE
8
BLACK
6
CONTINUOUS
10
0.3794006692913386
20
0.4256605118110236
11
0.3815342519685039
21
0.4224673622047244
0
LINE
8
BLACK
6
CONTINUOUS
10
0.3815342519685039
20
0.4224673622047244
11
0.3822834645669291
21
0.4187007874015748
0
LINE
8
BLACK
6
CONTINUOUS
10
0.3822834645669291
20
0.4187007874015748
11
0.3822834645669291
21
0.3812992125984252
0
LINE
8
BLACK
6
CONTINUOUS
10
0.3822834645669291
20
0.3812992125984252
11
0.3815342519685039
21
0.3775326377952756
0
LINE
8
BLACK
6
CONTINUOUS
10
0.3815342519685039
20
0.3775326377952756
11
0.3794006692913386
21
0.3743394881889764
0
LINE
8
BLACK
6
CONTINUOUS
10
0.3794006692913386
20
0.3743394881889764
11
0.3762075196850393
21
0.372205905511811
0
LINE
8
BLACK
6
CONTINUOUS
10
0.3762075196850393
20
0.372205905511811
11
0.3724409448818898
21
0.3714566929133858
0
LINE
8
BLACK
6
CONTINUOUS
10
0.3724409448818898
20
0.3714566929133858
11
0.352755905511811
21
0.3714566929133858
0
LINE
8
BLACK
6
CONTINUOUS
10
0.352755905511811
20
0.3714566929133858
11
0.3489893307086614
21
0.372205905511811
0
LINE
8
BLACK
6
CONTINUOUS
10
0.3489893307086614
20
0.372205905511811
11
0.3457961811023622
21
0.3743394881889764
0
LINE
8
BLACK
6
CONTINUOUS
10
0.3457961811023622
20
0.3743394881889764
11
0.3436625984251969
21
0.3775326377952756
0
LINE
8
BLACK
6
CONTINUOUS
10
0.3436625984251969
20
0.3775326377952756
11
0.3429133858267717
21
0.3812992125984252
0
LINE
8
BLACK
6
CONTINUOUS
10
0.3429133858267717
20
0.3812992125984252
11
0.3429133858267717
21
0.4187007874015748
0
LINE
8
BLACK
6
CONTINUOUS
10
0.3429133858267717
20
0.4187007874015748
11
0.3436625984251969
21
0.4224673622047244
0
LINE
8
BLACK
6
CONTINUOUS
10
0.3436625984251969
20
0.4224673622047244
11
0.3457961811023622
21
0.4256605118110236
0
LINE
8
BLACK
6
CONTINUOUS
10
0.3457961811023622
20
0.4256605118110236
11
0.3489893307086614
21
0.4277940944881889
0
LINE
8
BLACK
6
CONTINUOUS
10
0.3489893307086614
20
0.4277940944881889
11
0.352755905511811
21
0.4285433070866141
0
LINE
8
BLACK
6
CONTINUOUS
10
0.352755905511811
20
0.4285433070866141
11
0.3724409448818898
21
0.4285433070866141
0
LINE
8
BLACK
6
CONTINUOUS
10
0.3724409448818898
20
0.4285433070866141
11
0.3762075196850393
21
0.4277940944881889
0
LINE
8
BLACK
6
CONTINUOUS
10
0.4510106692913386
20
0.4277940944881889
11
0.4542038188976378
21
0.4256605118110236
0
LINE
8
BLACK
6
CONTINUOUS
10
0.4542038188976378
20
0.4256605118110236
11
0.4563374015748031
21
0.4224673622047244
0
LINE
8
BLACK
6
CONTINUOUS
10
0.4563374015748031
20
0.4224673622047244
11
0.4570866141732283
21
0.4187007874015748
0
LINE
8
BLACK
6
CONTINUOUS
10
0.4570866141732283
20
0.4187007874015748
11
0.4570866141732283
21
0.3812992125984252
0
LINE
8
BLACK
6
CONTINUOUS
10
0.4570866141732283
20
0.3812992125984252
11
0.4563374015748031
21
0.3775326377952756
0
LINE
8
BLACK
6
CONTINUOUS
10
0.4563374015748031
20
0.3775326377952756
11
0.4542038188976378
21
0.3743394881889764
0
LINE
8
BLACK
6
CONTINUOUS
10
0.4542038188976378
20
0.3743394881889764
11
0.4510106692913386
21
0.372205905511811
0
LINE
8
BLACK
6
CONTINUOUS
10
0.4510106692913386
20
0.372205905511811
11
0.447244094488189
21
0.3714566929133858
0
LINE
8
BLACK
6
CONTINUOUS
10
0.447244094488189
20
0.3714566929133858
11
0.4275590551181102
21
0.3714566929133858
0
LINE
8
BLACK
6
CONTINUOUS
10
0.4275590551181102
20
0.3714566929133858
11
0.4237924803149606
21
0.372205905511811
0
LINE
8
BLACK
6
CONTINUOUS
10
0.4237924803149606
20
0.372205905511811
11
0.4205993307086614
21
0.3743394881889764
0
LINE
8
BLACK
6
CONTINUOUS
10
0.4205993307086614
20
0.3743394881889764
11
0.4184657480314961
21
0.3775326377952756
0
LINE
8
BLACK
6
CONTINUOUS
10
0.4184657480314961
20
0.3775326377952756
11
0.4177165354330709
21
0.3812992125984252
0
LINE
8
BLACK
6
CONTINUOUS
10
0.4177165354330709
20
0.3812992125984252
11
0.4177165354330709
21
0.4187007874015748
0
LINE
8
BLACK
6
CONTINUOUS
10
0.4177165354330709
20
0.4187007874015748
11
0.4184657480314961
21
0.4224673622047244
0
LINE
8
BLACK
6
CONTINUOUS
10
0.4184657480314961
20
0.4224673622047244
11
0.4205993307086614
21
0.4256605118110236
0
LINE
8
BLACK
6
CONTINUOUS
10
0.4205993307086614
20
0.4256605118110236
11
0.4237924803149606
21
0.4277940944881889
0
LINE
8
BLACK
6
CONTINUOUS
10
0.4237924803149606
20
0.4277940944881889
11
0.4275590551181102
21
0.4285433070866141
0
LINE
8
BLACK
6
CONTINUOUS
10
0.4275590551181102
20
0.4285433070866141
11
0.447244094488189
21
0.4285433070866141
0
LINE
8
BLACK
6
CONTINUOUS
10
0.447244094488189
20
0.4285433070866141
11
0.4510106692913386
21
0.4277940944881889
0
LINE
8
BLACK
6
CONTINUOUS
10
0.7704724409448819
20
0.6089708661417322
11
0.6720472440944881
21
0.6089708661417322
0
LINE
8
BLACK
6
CONTINUOUS
10
0.6720472440944881
20
0.6089708661417322
11
0.6720472440944881
21
0.6798370078740157
0
LINE
8
BLACK
6
CONTINUOUS
10
0.6720472440944881
20
0.6798370078740157
11
0.7704724409448819
21
0.6798370078740157
0
LINE
8
BLACK
6
CONTINUOUS
10
0.7704724409448819
20
0.6798370078740157
11
0.7704724409448819
21
0.6089708661417322
0
LINE
8
BLACK
6
CONTINUOUS
10
0.9279527559055117
20
0.6089708661417322
11
0.8295275590551181
21
0.6089708661417322
0
LINE
8
BLACK
6
CONTINUOUS
10
0.8295275590551181
20
0.6089708661417322
11
0.8295275590551181
21
0.6798370078740157
0
LINE
8
BLACK
6
CONTINUOUS
10
0.8295275590551181
20
0.6798370078740157
11
0.9279527559055117
21
0.6798370078740157
0
LINE
8
BLACK
6
CONTINUOUS
10
0.9279527559055117
20
0.6798370078740157
11
0.9279527559055117
21
0.6089708661417322
0
LINE
8
BLACK
6
CONTINUOUS
10
0.3762075196850393
20
1.0455106299212598
11
0.3794006692913386
21
1.0433770472440944
0
LINE
8
BLACK
6
CONTINUOUS
10
0.3794006692913386
20
1.0433770472440944
11
0.3815342519685039
21
1.0401838976377953
0
LINE
8
BLACK
6
CONTINUOUS
10
0.3815342519685039
20
1.0401838976377953
11
0.3822834645669291
21
1.0364173228346456
0
LINE
8
BLACK
6
CONTINUOUS
10
0.3822834645669291
20
1.0364173228346456
11
0.3822834645669291
21
0.9990157480314961
0
LINE
8
BLACK
6
CONTINUOUS
10
0.3822834645669291
20
0.9990157480314961
11
0.3815342519685039
21
0.9952491732283464
0
LINE
8
BLACK
6
CONTINUOUS
10
0.3815342519685039
20
0.9952491732283464
11
0.3794006692913386
21
0.9920560236220473
0
LINE
8
BLACK
6
CONTINUOUS
10
0.3794006692913386
20
0.9920560236220473
11
0.3762075196850393
21
0.9899224409448819
0
LINE
8
BLACK
6
CONTINUOUS
10
0.3762075196850393
20
0.9899224409448819
11
0.3724409448818898
21
0.9891732283464567
0
LINE
8
BLACK
6
CONTINUOUS
10
0.3724409448818898
20
0.9891732283464567
11
0.352755905511811
21
0.9891732283464567
0
LINE
8
BLACK
6
CONTINUOUS
10
0.352755905511811
20
0.9891732283464567
11
0.3489893307086614
21
0.9899224409448819
0
LINE
8
BLACK
6
CONTINUOUS
10
0.3489893307086614
20
0.9899224409448819
11
0.3457961811023622
21
0.9920560236220473
0
LINE
8
BLACK
6
CONTINUOUS
10
0.3457961811023622
20
0.9920560236220473
11
0.3436625984251969
21
0.9952491732283464
0
LINE
8
BLACK
6
CONTINUOUS
10
0.3436625984251969
20
0.9952491732283464
11
0.3429133858267717
21
0.9990157480314961
0
LINE
8
BLACK
6
CONTINUOUS
10
0.3429133858267717
20
0.9990157480314961
11
0.3429133858267717
21
1.0364173228346456
0
LINE
8
BLACK
6
CONTINUOUS
10
0.3429133858267717
20
1.0364173228346456
11
0.3436625984251969
21
1.0401838976377953
0
LINE
8
BLACK
6
CONTINUOUS
10
0.3436625984251969
20
1.0401838976377953
11
0.3457961811023622
21
1.0433770472440944
0
LINE
8
BLACK
6
CONTINUOUS
10
0.3457961811023622
20
1.0433770472440944
11
0.3489893307086614
21
1.0455106299212598
0
LINE
8
BLACK
6
CONTINUOUS
10
0.3489893307086614
20
1.0455106299212598
11
0.352755905511811
21
1.046259842519685
0
LINE
8
BLACK
6
CONTINUOUS
10
0.352755905511811
20
1.046259842519685
11
0.3724409448818898
21
1.046259842519685
0
LINE
8
BLACK
6
CONTINUOUS
10
0.3724409448818898
20
1.046259842519685
11
0.3762075196850393
21
1.0455106299212598
0
LINE
8
BLACK
6
CONTINUOUS
10
0.4510106692913386
20
1.0455106299212598
11
0.4542038188976378
21
1.0433770472440944
0
LINE
8
BLACK
6
CONTINUOUS
10
0.4542038188976378
20
1.0433770472440944
11
0.4563374015748031
21
1.0401838976377953
0
LINE
8
BLACK
6
CONTINUOUS
10
0.4563374015748031
20
1.0401838976377953
11
0.4570866141732283
21
1.0364173228346456
0
LINE
8
BLACK
6
CONTINUOUS
10
0.4570866141732283
20
1.0364173228346456
11
0.4570866141732283
21
0.9990157480314961
0
LINE
8
BLACK
6
CONTINUOUS
10
0.4570866141732283
20
0.9990157480314961
11
0.4563374015748031
21
0.9952491732283464
0
LINE
8
BLACK
6
CONTINUOUS
10
0.4563374015748031
20
0.9952491732283464
11
0.4542038188976378
21
0.9920560236220473
0
LINE
8
BLACK
6
CONTINUOUS
10
0.4542038188976378
20
0.9920560236220473
11
0.4510106692913386
21
0.9899224409448819
0
LINE
8
BLACK
6
CONTINUOUS
10
0.4510106692913386
20
0.9899224409448819
11
0.447244094488189
21
0.9891732283464567
0
LINE
8
BLACK
6
CONTINUOUS
10
0.447244094488189
20
0.9891732283464567
11
0.4275590551181102
21
0.9891732283464567
0
LINE
8
BLACK
6
CONTINUOUS
10
0.4275590551181102
20
0.9891732283464567
11
0.4237924803149606
21
0.9899224409448819
0
LINE
8
BLACK
6
CONTINUOUS
10
0.4237924803149606
20
0.9899224409448819
11
0.4205993307086614
21
0.9920560236220473
0
LINE
8
BLACK
6
CONTINUOUS
10
0.4205993307086614
20
0.9920560236220473
11
0.4184657480314961
21
0.9952491732283464
0
LINE
8
BLACK
6
CONTINUOUS
10
0.4184657480314961
20
0.9952491732283464
11
0.4177165354330709
21
0.9990157480314961
0
LINE
8
BLACK
6
CONTINUOUS
10
0.4177165354330709
20
0.9990157480314961
11
0.4177165354330709
21
1.0364173228346456
0
LINE
8
BLACK
6
CONTINUOUS
10
0.4177165354330709
20
1.0364173228346456
11
0.4184657480314961
21
1.0401838976377953
0
LINE
8
BLACK
6
CONTINUOUS
10
0.4184657480314961
20
1.0401838976377953
11
0.4205993307086614
21
1.0433770472440944
0
LINE
8
BLACK
6
CONTINUOUS
10
0.4205993307086614
20
1.0433770472440944
11
0.4237924803149606
21
1.0455106299212598
0
LINE
8
BLACK
6
CONTINUOUS
10
0.4237924803149606
20
1.0455106299212598
11
0.4275590551181102
21
1.046259842519685
0
LINE
8
BLACK
6
CONTINUOUS
10
0.4275590551181102
20
1.046259842519685
11
0.447244094488189
21
1.046259842519685
0
LINE
8
BLACK
6
CONTINUOUS
10
0.447244094488189
20
1.046259842519685
11
0.4510106692913386
21
1.0455106299212598
0
CIRCLE
8
BLACK
10
0.
20
1.2
40
0.0068897637795276
0
CIRCLE
8
BLACK
10
1.2
20
0.
40
0.0068897637795276
0
CIRCLE
8
BLACK
10
1.25
20
0.5
40
0.0068897637795276
0
CIRCLE
8
BLACK
10
1.1499999999999999
20
0.5
40
0.0068897637795276
0
CIRCLE
8
BLACK
10
1.25
20
0.6
40
0.0068897637795276
0
CIRCLE
8
BLACK
10
1.1499999999999999
20
0.6
40
0.0068897637795276
0
CIRCLE
8
BLACK
10
1.25
20
0.7
40
0.0068897637795276
0
CIRCLE
8
BLACK
10
1.1499999999999999
20
0.7
40
0.0068897637795276
0
CIRCLE
8
BLACK
10
0.
20
0.
40
0.0068897637795276
0
CIRCLE
8
BLACK
10
1.2
20
1.2
40
0.0068897637795276
  0
ENDSEC
  0
EOF
