  0
SECTION
  2
HEADER
  9
$ANGBASE
  50
0.0
  9
$ANGDIR
  70
1
  9
$MEASUREMENT
  70
0
  0
ENDSEC
  0
SECTION
  2
TABLES
  0
TABLE
  2
LTYPE
  70
4
  0
LTYPE
  5
40F
  2
CONTINUOUS
  70
0
  3
Solid line
  72
65
  73
0
  40
0.0
  0
LTYPE
  5
410
  2
DASHDOT
 70
0
  3
Dash Dot ____ _ ____ _
 72
65
 73
4
 40
2.0
 49
1.25
 49
-0.25
 49
0.25
 49
-0.25
  0
LTYPE
  5
411
  2
DASHED
 70
0
  3
Dashed __ __ __ __ __
 72
65
 73
2
 40
0.75
 49
0.5
 49
-0.25
  0
LTYPE
  5
43B
  2
DOTTED
 70
0
  3
Dotted .  .  .  .
 72
65
 73
2
 40
0.2
 49
0.0
 49
-0.2
  0
ENDTAB
  0
TABLE
  2
STYLE
  70
4
  0
STYLE
  2
KICAD
  70
0
  40
0
  41
1
  42
1
  50
0
  71
0
  3
isocp.shx
  0
STYLE
  2
KICADB
  70
0
  40
0
  41
1
  42
1
  50
0
  71
0
  3
isocp.shx
  0
STYLE
  2
KICADI
  70
0
  40
0
  41
1
  42
1
  50
15
  71
0
  3
isocp.shx
  0
STYLE
  2
KICADBI
  70
0
  40
0
  41
1
  42
1
  50
15
  71
0
  3
isocp.shx
  0
ENDTAB
  0
TABLE
  2
LAYER
  70
1
  0
LAYER
  2
BLACK
  70
0
  62
7
  6
CONTINUOUS
  0
ENDTAB
  0
ENDSEC
  0
SECTION
  2
ENTITIES
0
LINE
8
BLACK
6
CONTINUOUS
10
0.5161417322834646
20
0.1460629921259843
11
0.5003937007874015
21
0.1460629921259843
0
LINE
8
BLACK
6
CONTINUOUS
10
0.5003937007874015
20
0.1460629921259843
11
0.5003937007874015
21
0.212992125984252
0
LINE
8
BLACK
6
CONTINUOUS
10
0.5003937007874015
20
0.212992125984252
11
0.5161417322834646
21
0.212992125984252
0
LINE
8
BLACK
6
CONTINUOUS
10
0.5161417322834646
20
0.212992125984252
11
0.5161417322834646
21
0.1460629921259843
0
LINE
8
BLACK
6
CONTINUOUS
10
0.7070866141732284
20
0.1460629921259843
11
0.6913385826771653
21
0.1460629921259843
0
LINE
8
BLACK
6
CONTINUOUS
10
0.6913385826771653
20
0.1460629921259843
11
0.6913385826771653
21
0.212992125984252
0
LINE
8
BLACK
6
CONTINUOUS
10
0.6913385826771653
20
0.212992125984252
11
0.7070866141732284
21
0.212992125984252
0
LINE
8
BLACK
6
CONTINUOUS
10
0.7070866141732284
20
0.212992125984252
11
0.7070866141732284
21
0.1460629921259843
0
LINE
8
BLACK
6
CONTINUOUS
10
0.5377952755905512
20
0.2188976377952756
11
0.5279527559055118
21
0.2188976377952756
0
LINE
8
BLACK
6
CONTINUOUS
10
0.5279527559055118
20
0.2188976377952756
11
0.5279527559055118
21
0.2425196850393701
0
LINE
8
BLACK
6
CONTINUOUS
10
0.5279527559055118
20
0.2425196850393701
11
0.5377952755905512
21
0.2425196850393701
0
LINE
8
BLACK
6
CONTINUOUS
10
0.5377952755905512
20
0.2425196850393701
11
0.5377952755905512
21
0.2188976377952756
0
LINE
8
BLACK
6
CONTINUOUS
10
0.5535433070866141
20
0.2188976377952756
11
0.5437007874015748
21
0.2188976377952756
0
LINE
8
BLACK
6
CONTINUOUS
10
0.5437007874015748
20
0.2188976377952756
11
0.5437007874015748
21
0.2425196850393701
0
LINE
8
BLACK
6
CONTINUOUS
10
0.5437007874015748
20
0.2425196850393701
11
0.5535433070866141
21
0.2425196850393701
0
LINE
8
BLACK
6
CONTINUOUS
10
0.5535433070866141
20
0.2425196850393701
11
0.5535433070866141
21
0.2188976377952756
0
LINE
8
BLACK
6
CONTINUOUS
10
0.5692913385826771
20
0.2188976377952756
11
0.5594488188976378
21
0.2188976377952756
0
LINE
8
BLACK
6
CONTINUOUS
10
0.5594488188976378
20
0.2188976377952756
11
0.5594488188976378
21
0.2425196850393701
0
LINE
8
BLACK
6
CONTINUOUS
10
0.5594488188976378
20
0.2425196850393701
11
0.5692913385826771
21
0.2425196850393701
0
LINE
8
BLACK
6
CONTINUOUS
10
0.5692913385826771
20
0.2425196850393701
11
0.5692913385826771
21
0.2188976377952756
0
LINE
8
BLACK
6
CONTINUOUS
10
0.5850393700787402
20
0.2188976377952756
11
0.5751968503937007
21
0.2188976377952756
0
LINE
8
BLACK
6
CONTINUOUS
10
0.5751968503937007
20
0.2188976377952756
11
0.5751968503937007
21
0.2425196850393701
0
LINE
8
BLACK
6
CONTINUOUS
10
0.5751968503937007
20
0.2425196850393701
11
0.5850393700787402
21
0.2425196850393701
0
LINE
8
BLACK
6
CONTINUOUS
10
0.5850393700787402
20
0.2425196850393701
11
0.5850393700787402
21
0.2188976377952756
0
LINE
8
BLACK
6
CONTINUOUS
10
0.6007874015748031
20
0.2188976377952756
11
0.5909448818897638
21
0.2188976377952756
0
LINE
8
BLACK
6
CONTINUOUS
10
0.5909448818897638
20
0.2188976377952756
11
0.5909448818897638
21
0.2425196850393701
0
LINE
8
BLACK
6
CONTINUOUS
10
0.5909448818897638
20
0.2425196850393701
11
0.6007874015748031
21
0.2425196850393701
0
LINE
8
BLACK
6
CONTINUOUS
10
0.6007874015748031
20
0.2425196850393701
11
0.6007874015748031
21
0.2188976377952756
0
LINE
8
BLACK
6
CONTINUOUS
10
0.6165354330708661
20
0.2188976377952756
11
0.6066929133858268
21
0.2188976377952756
0
LINE
8
BLACK
6
CONTINUOUS
10
0.6066929133858268
20
0.2188976377952756
11
0.6066929133858268
21
0.2425196850393701
0
LINE
8
BLACK
6
CONTINUOUS
10
0.6066929133858268
20
0.2425196850393701
11
0.6165354330708661
21
0.2425196850393701
0
LINE
8
BLACK
6
CONTINUOUS
10
0.6165354330708661
20
0.2425196850393701
11
0.6165354330708661
21
0.2188976377952756
0
LINE
8
BLACK
6
CONTINUOUS
10
0.6322834645669291
20
0.2188976377952756
11
0.6224409448818897
21
0.2188976377952756
0
LINE
8
BLACK
6
CONTINUOUS
10
0.6224409448818897
20
0.2188976377952756
11
0.6224409448818897
21
0.2425196850393701
0
LINE
8
BLACK
6
CONTINUOUS
10
0.6224409448818897
20
0.2425196850393701
11
0.6322834645669291
21
0.2425196850393701
0
LINE
8
BLACK
6
CONTINUOUS
10
0.6322834645669291
20
0.2425196850393701
11
0.6322834645669291
21
0.2188976377952756
0
LINE
8
BLACK
6
CONTINUOUS
10
0.6480314960629922
20
0.2188976377952756
11
0.6381889763779527
21
0.2188976377952756
0
LINE
8
BLACK
6
CONTINUOUS
10
0.6381889763779527
20
0.2188976377952756
11
0.6381889763779527
21
0.2425196850393701
0
LINE
8
BLACK
6
CONTINUOUS
10
0.6381889763779527
20
0.2425196850393701
11
0.6480314960629922
21
0.2425196850393701
0
LINE
8
BLACK
6
CONTINUOUS
10
0.6480314960629922
20
0.2425196850393701
11
0.6480314960629922
21
0.2188976377952756
0
LINE
8
BLACK
6
CONTINUOUS
10
0.6637795275590551
20
0.2188976377952756
11
0.6539370078740158
21
0.2188976377952756
0
LINE
8
BLACK
6
CONTINUOUS
10
0.6539370078740158
20
0.2188976377952756
11
0.6539370078740158
21
0.2425196850393701
0
LINE
8
BLACK
6
CONTINUOUS
10
0.6539370078740158
20
0.2425196850393701
11
0.6637795275590551
21
0.2425196850393701
0
LINE
8
BLACK
6
CONTINUOUS
10
0.6637795275590551
20
0.2425196850393701
11
0.6637795275590551
21
0.2188976377952756
0
LINE
8
BLACK
6
CONTINUOUS
10
0.6795275590551181
20
0.2188976377952756
11
0.6696850393700787
21
0.2188976377952756
0
LINE
8
BLACK
6
CONTINUOUS
10
0.6696850393700787
20
0.2188976377952756
11
0.6696850393700787
21
0.2425196850393701
0
LINE
8
BLACK
6
CONTINUOUS
10
0.6696850393700787
20
0.2425196850393701
11
0.6795275590551181
21
0.2425196850393701
0
LINE
8
BLACK
6
CONTINUOUS
10
0.6795275590551181
20
0.2425196850393701
11
0.6795275590551181
21
0.2188976377952756
0
LINE
8
BLACK
6
CONTINUOUS
10
0.8169896456692913
20
0.2988100787401575
11
0.8195441338582677
21
0.2971031889763779
0
LINE
8
BLACK
6
CONTINUOUS
10
0.8195441338582677
20
0.2971031889763779
11
0.8212510236220473
21
0.2945487007874016
0
LINE
8
BLACK
6
CONTINUOUS
10
0.8212510236220473
20
0.2945487007874016
11
0.8218503937007874
21
0.2915354330708662
0
LINE
8
BLACK
6
CONTINUOUS
10
0.8218503937007874
20
0.2915354330708662
11
0.8218503937007874
21
0.2698818897637795
0
LINE
8
BLACK
6
CONTINUOUS
10
0.8218503937007874
20
0.2698818897637795
11
0.8212510236220473
21
0.2668686220472441
0
LINE
8
BLACK
6
CONTINUOUS
10
0.8212510236220473
20
0.2668686220472441
11
0.8195441338582677
21
0.2643141338582677
0
LINE
8
BLACK
6
CONTINUOUS
10
0.8195441338582677
20
0.2643141338582677
11
0.8169896456692913
21
0.2626072440944882
0
LINE
8
BLACK
6
CONTINUOUS
10
0.8169896456692913
20
0.2626072440944882
11
0.8139763779527559
21
0.262007874015748
0
LINE
8
BLACK
6
CONTINUOUS
10
0.8139763779527559
20
0.262007874015748
11
0.7982283464566929
21
0.262007874015748
0
LINE
8
BLACK
6
CONTINUOUS
10
0.7982283464566929
20
0.262007874015748
11
0.7952150787401575
21
0.2626072440944882
0
LINE
8
BLACK
6
CONTINUOUS
10
0.7952150787401575
20
0.2626072440944882
11
0.7926605905511811
21
0.2643141338582677
0
LINE
8
BLACK
6
CONTINUOUS
10
0.7926605905511811
20
0.2643141338582677
11
0.7909537007874016
21
0.2668686220472441
0
LINE
8
BLACK
6
CONTINUOUS
10
0.7909537007874016
20
0.2668686220472441
11
0.7903543307086613
21
0.2698818897637795
0
LINE
8
BLACK
6
CONTINUOUS
10
0.7903543307086613
20
0.2698818897637795
11
0.7903543307086613
21
0.2915354330708662
0
LINE
8
BLACK
6
CONTINUOUS
10
0.7903543307086613
20
0.2915354330708662
11
0.7909537007874016
21
0.2945487007874016
0
LINE
8
BLACK
6
CONTINUOUS
10
0.7909537007874016
20
0.2945487007874016
11
0.7926605905511811
21
0.2971031889763779
0
LINE
8
BLACK
6
CONTINUOUS
10
0.7926605905511811
20
0.2971031889763779
11
0.7952150787401575
21
0.2988100787401575
0
LINE
8
BLACK
6
CONTINUOUS
10
0.7952150787401575
20
0.2988100787401575
11
0.7982283464566929
21
0.2994094488188976
0
LINE
8
BLACK
6
CONTINUOUS
10
0.7982283464566929
20
0.2994094488188976
11
0.8139763779527559
21
0.2994094488188976
0
LINE
8
BLACK
6
CONTINUOUS
10
0.8139763779527559
20
0.2994094488188976
11
0.8169896456692913
21
0.2988100787401575
0
LINE
8
BLACK
6
CONTINUOUS
10
0.8819502755905512
20
0.2988100787401575
11
0.8845047637795276
21
0.2971031889763779
0
LINE
8
BLACK
6
CONTINUOUS
10
0.8845047637795276
20
0.2971031889763779
11
0.8862116535433071
21
0.2945487007874016
0
LINE
8
BLACK
6
CONTINUOUS
10
0.8862116535433071
20
0.2945487007874016
11
0.8868110236220472
21
0.2915354330708662
0
LINE
8
BLACK
6
CONTINUOUS
10
0.8868110236220472
20
0.2915354330708662
11
0.8868110236220472
21
0.2698818897637795
0
LINE
8
BLACK
6
CONTINUOUS
10
0.8868110236220472
20
0.2698818897637795
11
0.8862116535433071
21
0.2668686220472441
0
LINE
8
BLACK
6
CONTINUOUS
10
0.8862116535433071
20
0.2668686220472441
11
0.8845047637795276
21
0.2643141338582677
0
LINE
8
BLACK
6
CONTINUOUS
10
0.8845047637795276
20
0.2643141338582677
11
0.8819502755905512
21
0.2626072440944882
0
LINE
8
BLACK
6
CONTINUOUS
10
0.8819502755905512
20
0.2626072440944882
11
0.8789370078740157
21
0.262007874015748
0
LINE
8
BLACK
6
CONTINUOUS
10
0.8789370078740157
20
0.262007874015748
11
0.8631889763779528
21
0.262007874015748
0
LINE
8
BLACK
6
CONTINUOUS
10
0.8631889763779528
20
0.262007874015748
11
0.8601757086614173
21
0.2626072440944882
0
LINE
8
BLACK
6
CONTINUOUS
10
0.8601757086614173
20
0.2626072440944882
11
0.8576212204724409
21
0.2643141338582677
0
LINE
8
BLACK
6
CONTINUOUS
10
0.8576212204724409
20
0.2643141338582677
11
0.8559143307086614
21
0.2668686220472441
0
LINE
8
BLACK
6
CONTINUOUS
10
0.8559143307086614
20
0.2668686220472441
11
0.8553149606299213
21
0.2698818897637795
0
LINE
8
BLACK
6
CONTINUOUS
10
0.8553149606299213
20
0.2698818897637795
11
0.8553149606299213
21
0.2915354330708662
0
LINE
8
BLACK
6
CONTINUOUS
10
0.8553149606299213
20
0.2915354330708662
11
0.8559143307086614
21
0.2945487007874016
0
LINE
8
BLACK
6
CONTINUOUS
10
0.8559143307086614
20
0.2945487007874016
11
0.8576212204724409
21
0.2971031889763779
0
LINE
8
BLACK
6
CONTINUOUS
10
0.8576212204724409
20
0.2971031889763779
11
0.8601757086614173
21
0.2988100787401575
0
LINE
8
BLACK
6
CONTINUOUS
10
0.8601757086614173
20
0.2988100787401575
11
0.8631889763779528
21
0.2994094488188976
0
LINE
8
BLACK
6
CONTINUOUS
10
0.8631889763779528
20
0.2994094488188976
11
0.8789370078740157
21
0.2994094488188976
0
LINE
8
BLACK
6
CONTINUOUS
10
0.8789370078740157
20
0.2994094488188976
11
0.8819502755905512
21
0.2988100787401575
0
LINE
8
BLACK
6
CONTINUOUS
10
0.9636261417322834
20
0.3007036614173229
11
0.9664999606299213
21
0.2987834251968504
0
LINE
8
BLACK
6
CONTINUOUS
10
0.9664999606299213
20
0.2987834251968504
11
0.9684201968503937
21
0.2959096062992126
0
LINE
8
BLACK
6
CONTINUOUS
10
0.9684201968503937
20
0.2959096062992126
11
0.9690944881889764
21
0.2925196850393701
0
LINE
8
BLACK
6
CONTINUOUS
10
0.9690944881889764
20
0.2925196850393701
11
0.9690944881889764
21
0.2728346456692913
0
LINE
8
BLACK
6
CONTINUOUS
10
0.9690944881889764
20
0.2728346456692913
11
0.9684201968503937
21
0.2694447244094488
0
LINE
8
BLACK
6
CONTINUOUS
10
0.9684201968503937
20
0.2694447244094488
11
0.9664999606299213
21
0.266570905511811
0
LINE
8
BLACK
6
CONTINUOUS
10
0.9664999606299213
20
0.266570905511811
11
0.9636261417322834
21
0.2646506692913386
0
LINE
8
BLACK
6
CONTINUOUS
10
0.9636261417322834
20
0.2646506692913386
11
0.9602362204724409
21
0.2639763779527559
0
LINE
8
BLACK
6
CONTINUOUS
10
0.9602362204724409
20
0.2639763779527559
11
0.94251968503937
21
0.2639763779527559
0
LINE
8
BLACK
6
CONTINUOUS
10
0.94251968503937
20
0.2639763779527559
11
0.9391297637795275
21
0.2646506692913386
0
LINE
8
BLACK
6
CONTINUOUS
10
0.9391297637795275
20
0.2646506692913386
11
0.9362559448818898
21
0.266570905511811
0
LINE
8
BLACK
6
CONTINUOUS
10
0.9362559448818898
20
0.266570905511811
11
0.9343357086614174
21
0.2694447244094488
0
LINE
8
BLACK
6
CONTINUOUS
10
0.9343357086614174
20
0.2694447244094488
11
0.9336614173228346
21
0.2728346456692913
0
LINE
8
BLACK
6
CONTINUOUS
10
0.9336614173228346
20
0.2728346456692913
11
0.9336614173228346
21
0.2925196850393701
0
LINE
8
BLACK
6
CONTINUOUS
10
0.9336614173228346
20
0.2925196850393701
11
0.9343357086614174
21
0.2959096062992126
0
LINE
8
BLACK
6
CONTINUOUS
10
0.9343357086614174
20
0.2959096062992126
11
0.9362559448818898
21
0.2987834251968504
0
LINE
8
BLACK
6
CONTINUOUS
10
0.9362559448818898
20
0.2987834251968504
11
0.9391297637795275
21
0.3007036614173229
0
LINE
8
BLACK
6
CONTINUOUS
10
0.9391297637795275
20
0.3007036614173229
11
0.94251968503937
21
0.3013779527559055
0
LINE
8
BLACK
6
CONTINUOUS
10
0.94251968503937
20
0.3013779527559055
11
0.9602362204724409
21
0.3013779527559055
0
LINE
8
BLACK
6
CONTINUOUS
10
0.9602362204724409
20
0.3013779527559055
11
0.9636261417322834
21
0.3007036614173229
0
LINE
8
BLACK
6
CONTINUOUS
10
1.0246497637795275
20
0.3007036614173229
11
1.0275235826771654
21
0.2987834251968504
0
LINE
8
BLACK
6
CONTINUOUS
10
1.0275235826771654
20
0.2987834251968504
11
1.0294438188976378
21
0.2959096062992126
0
LINE
8
BLACK
6
CONTINUOUS
10
1.0294438188976378
20
0.2959096062992126
11
1.0301181102362205
21
0.2925196850393701
0
LINE
8
BLACK
6
CONTINUOUS
10
1.0301181102362205
20
0.2925196850393701
11
1.0301181102362205
21
0.2728346456692913
0
LINE
8
BLACK
6
CONTINUOUS
10
1.0301181102362205
20
0.2728346456692913
11
1.0294438188976378
21
0.2694447244094488
0
LINE
8
BLACK
6
CONTINUOUS
10
1.0294438188976378
20
0.2694447244094488
11
1.0275235826771654
21
0.266570905511811
0
LINE
8
BLACK
6
CONTINUOUS
10
1.0275235826771654
20
0.266570905511811
11
1.0246497637795275
21
0.2646506692913386
0
LINE
8
BLACK
6
CONTINUOUS
10
1.0246497637795275
20
0.2646506692913386
11
1.021259842519685
21
0.2639763779527559
0
LINE
8
BLACK
6
CONTINUOUS
10
1.021259842519685
20
0.2639763779527559
11
1.0035433070866142
21
0.2639763779527559
0
LINE
8
BLACK
6
CONTINUOUS
10
1.0035433070866142
20
0.2639763779527559
11
1.0001533858267717
21
0.2646506692913386
0
LINE
8
BLACK
6
CONTINUOUS
10
1.0001533858267717
20
0.2646506692913386
11
0.9972795669291339
21
0.266570905511811
0
LINE
8
BLACK
6
CONTINUOUS
10
0.9972795669291339
20
0.266570905511811
11
0.9953593307086614
21
0.2694447244094488
0
LINE
8
BLACK
6
CONTINUOUS
10
0.9953593307086614
20
0.2694447244094488
11
0.9946850393700787
21
0.2728346456692913
0
LINE
8
BLACK
6
CONTINUOUS
10
0.9946850393700787
20
0.2728346456692913
11
0.9946850393700787
21
0.2925196850393701
0
LINE
8
BLACK
6
CONTINUOUS
10
0.9946850393700787
20
0.2925196850393701
11
0.9953593307086614
21
0.2959096062992126
0
LINE
8
BLACK
6
CONTINUOUS
10
0.9953593307086614
20
0.2959096062992126
11
0.9972795669291339
21
0.2987834251968504
0
LINE
8
BLACK
6
CONTINUOUS
10
0.9972795669291339
20
0.2987834251968504
11
1.0001533858267717
21
0.3007036614173229
0
LINE
8
BLACK
6
CONTINUOUS
10
1.0001533858267717
20
0.3007036614173229
11
1.0035433070866142
21
0.3013779527559055
0
LINE
8
BLACK
6
CONTINUOUS
10
1.0035433070866142
20
0.3013779527559055
11
1.021259842519685
21
0.3013779527559055
0
LINE
8
BLACK
6
CONTINUOUS
10
1.021259842519685
20
0.3013779527559055
11
1.0246497637795275
21
0.3007036614173229
0
LINE
8
BLACK
6
CONTINUOUS
10
0.4740592125984252
20
0.3849556299212598
11
0.476933031496063
21
0.3830353937007874
0
LINE
8
BLACK
6
CONTINUOUS
10
0.476933031496063
20
0.3830353937007874
11
0.4788532677165354
21
0.3801615748031496
0
LINE
8
BLACK
6
CONTINUOUS
10
0.4788532677165354
20
0.3801615748031496
11
0.4795275590551181
21
0.3767716535433071
0
LINE
8
BLACK
6
CONTINUOUS
10
0.4795275590551181
20
0.3767716535433071
11
0.4795275590551181
21
0.3570866141732283
0
LINE
8
BLACK
6
CONTINUOUS
10
0.4795275590551181
20
0.3570866141732283
11
0.4788532677165354
21
0.3536966929133858
0
LINE
8
BLACK
6
CONTINUOUS
10
0.4788532677165354
20
0.3536966929133858
11
0.476933031496063
21
0.350822874015748
0
LINE
8
BLACK
6
CONTINUOUS
10
0.476933031496063
20
0.350822874015748
11
0.4740592125984252
21
0.3489026377952756
0
LINE
8
BLACK
6
CONTINUOUS
10
0.4740592125984252
20
0.3489026377952756
11
0.4706692913385827
21
0.3482283464566929
0
LINE
8
BLACK
6
CONTINUOUS
10
0.4706692913385827
20
0.3482283464566929
11
0.4529527559055118
21
0.3482283464566929
0
LINE
8
BLACK
6
CONTINUOUS
10
0.4529527559055118
20
0.3482283464566929
11
0.4495628346456693
21
0.3489026377952756
0
LINE
8
BLACK
6
CONTINUOUS
10
0.4495628346456693
20
0.3489026377952756
11
0.4466890157480315
21
0.350822874015748
0
LINE
8
BLACK
6
CONTINUOUS
10
0.4466890157480315
20
0.350822874015748
11
0.4447687795275591
21
0.3536966929133858
0
LINE
8
BLACK
6
CONTINUOUS
10
0.4447687795275591
20
0.3536966929133858
11
0.4440944881889763
21
0.3570866141732283
0
LINE
8
BLACK
6
CONTINUOUS
10
0.4440944881889763
20
0.3570866141732283
11
0.4440944881889763
21
0.3767716535433071
0
LINE
8
BLACK
6
CONTINUOUS
10
0.4440944881889763
20
0.3767716535433071
11
0.4447687795275591
21
0.3801615748031496
0
LINE
8
BLACK
6
CONTINUOUS
10
0.4447687795275591
20
0.3801615748031496
11
0.4466890157480315
21
0.3830353937007874
0
LINE
8
BLACK
6
CONTINUOUS
10
0.4466890157480315
20
0.3830353937007874
11
0.4495628346456693
21
0.3849556299212598
0
LINE
8
BLACK
6
CONTINUOUS
10
0.4495628346456693
20
0.3849556299212598
11
0.4529527559055118
21
0.3856299212598425
0
LINE
8
BLACK
6
CONTINUOUS
10
0.4529527559055118
20
0.3856299212598425
11
0.4706692913385827
21
0.3856299212598425
0
LINE
8
BLACK
6
CONTINUOUS
10
0.4706692913385827
20
0.3856299212598425
11
0.4740592125984252
21
0.3849556299212598
0
LINE
8
BLACK
6
CONTINUOUS
10
0.5350828346456693
20
0.3849556299212598
11
0.5379566535433071
21
0.3830353937007874
0
LINE
8
BLACK
6
CONTINUOUS
10
0.5379566535433071
20
0.3830353937007874
11
0.5398768897637796
21
0.3801615748031496
0
LINE
8
BLACK
6
CONTINUOUS
10
0.5398768897637796
20
0.3801615748031496
11
0.5405511811023622
21
0.3767716535433071
0
LINE
8
BLACK
6
CONTINUOUS
10
0.5405511811023622
20
0.3767716535433071
11
0.5405511811023622
21
0.3570866141732283
0
LINE
8
BLACK
6
CONTINUOUS
10
0.5405511811023622
20
0.3570866141732283
11
0.5398768897637796
21
0.3536966929133858
0
LINE
8
BLACK
6
CONTINUOUS
10
0.5398768897637796
20
0.3536966929133858
11
0.5379566535433071
21
0.350822874015748
0
LINE
8
BLACK
6
CONTINUOUS
10
0.5379566535433071
20
0.350822874015748
11
0.5350828346456693
21
0.3489026377952756
0
LINE
8
BLACK
6
CONTINUOUS
10
0.5350828346456693
20
0.3489026377952756
11
0.5316929133858268
21
0.3482283464566929
0
LINE
8
BLACK
6
CONTINUOUS
10
0.5316929133858268
20
0.3482283464566929
11
0.5139763779527559
21
0.3482283464566929
0
LINE
8
BLACK
6
CONTINUOUS
10
0.5139763779527559
20
0.3482283464566929
11
0.5105864566929134
21
0.3489026377952756
0
LINE
8
BLACK
6
CONTINUOUS
10
0.5105864566929134
20
0.3489026377952756
11
0.5077126377952755
21
0.350822874015748
0
LINE
8
BLACK
6
CONTINUOUS
10
0.5077126377952755
20
0.350822874015748
11
0.5057924015748031
21
0.3536966929133858
0
LINE
8
BLACK
6
CONTINUOUS
10
0.5057924015748031
20
0.3536966929133858
11
0.5051181102362204
21
0.3570866141732283
0
LINE
8
BLACK
6
CONTINUOUS
10
0.5051181102362204
20
0.3570866141732283
11
0.5051181102362204
21
0.3767716535433071
0
LINE
8
BLACK
6
CONTINUOUS
10
0.5051181102362204
20
0.3767716535433071
11
0.5057924015748031
21
0.3801615748031496
0
LINE
8
BLACK
6
CONTINUOUS
10
0.5057924015748031
20
0.3801615748031496
11
0.5077126377952755
21
0.3830353937007874
0
LINE
8
BLACK
6
CONTINUOUS
10
0.5077126377952755
20
0.3830353937007874
11
0.5105864566929134
21
0.3849556299212598
0
LINE
8
BLACK
6
CONTINUOUS
10
0.5105864566929134
20
0.3849556299212598
11
0.5139763779527559
21
0.3856299212598425
0
LINE
8
BLACK
6
CONTINUOUS
10
0.5139763779527559
20
0.3856299212598425
11
0.5316929133858268
21
0.3856299212598425
0
LINE
8
BLACK
6
CONTINUOUS
10
0.5316929133858268
20
0.3856299212598425
11
0.5350828346456693
21
0.3849556299212598
0
LINE
8
BLACK
6
CONTINUOUS
10
0.8153505118110236
20
0.4117551968503937
11
0.8172663779527559
21
0.4104750393700787
0
LINE
8
BLACK
6
CONTINUOUS
10
0.8172663779527559
20
0.4104750393700787
11
0.8185465354330709
21
0.4085591732283465
0
LINE
8
BLACK
6
CONTINUOUS
10
0.8185465354330709
20
0.4085591732283465
11
0.818996062992126
21
0.4062992125984252
0
LINE
8
BLACK
6
CONTINUOUS
10
0.818996062992126
20
0.4062992125984252
11
0.818996062992126
21
0.3944881889763779
0
LINE
8
BLACK
6
CONTINUOUS
10
0.818996062992126
20
0.3944881889763779
11
0.8185465354330709
21
0.3922282283464567
0
LINE
8
BLACK
6
CONTINUOUS
10
0.8185465354330709
20
0.3922282283464567
11
0.8172663779527559
21
0.3903123622047244
0
LINE
8
BLACK
6
CONTINUOUS
10
0.8172663779527559
20
0.3903123622047244
11
0.8153505118110236
21
0.3890322047244094
0
LINE
8
BLACK
6
CONTINUOUS
10
0.8153505118110236
20
0.3890322047244094
11
0.8130905511811023
21
0.3885826771653543
0
LINE
8
BLACK
6
CONTINUOUS
10
0.8130905511811023
20
0.3885826771653543
11
0.7727362204724409
21
0.3885826771653543
0
LINE
8
BLACK
6
CONTINUOUS
10
0.7727362204724409
20
0.3885826771653543
11
0.7704762598425197
21
0.3890322047244094
0
LINE
8
BLACK
6
CONTINUOUS
10
0.7704762598425197
20
0.3890322047244094
11
0.7685603937007874
21
0.3903123622047244
0
LINE
8
BLACK
6
CONTINUOUS
10
0.7685603937007874
20
0.3903123622047244
11
0.7672802362204725
21
0.3922282283464567
0
LINE
8
BLACK
6
CONTINUOUS
10
0.7672802362204725
20
0.3922282283464567
11
0.7668307086614173
21
0.3944881889763779
0
LINE
8
BLACK
6
CONTINUOUS
10
0.7668307086614173
20
0.3944881889763779
11
0.7668307086614173
21
0.4062992125984252
0
LINE
8
BLACK
6
CONTINUOUS
10
0.7668307086614173
20
0.4062992125984252
11
0.7672802362204725
21
0.4085591732283465
0
LINE
8
BLACK
6
CONTINUOUS
10
0.7672802362204725
20
0.4085591732283465
11
0.7685603937007874
21
0.4104750393700787
0
LINE
8
BLACK
6
CONTINUOUS
10
0.7685603937007874
20
0.4104750393700787
11
0.7704762598425197
21
0.4117551968503937
0
LINE
8
BLACK
6
CONTINUOUS
10
0.7704762598425197
20
0.4117551968503937
11
0.7727362204724409
21
0.4122047244094488
0
LINE
8
BLACK
6
CONTINUOUS
10
0.7727362204724409
20
0.4122047244094488
11
0.8130905511811023
21
0.4122047244094488
0
LINE
8
BLACK
6
CONTINUOUS
10
0.8130905511811023
20
0.4122047244094488
11
0.8153505118110236
21
0.4117551968503937
0
LINE
8
BLACK
6
CONTINUOUS
10
0.9049174409448819
20
0.4117551968503937
11
0.9068333070866141
21
0.4104750393700787
0
LINE
8
BLACK
6
CONTINUOUS
10
0.9068333070866141
20
0.4104750393700787
11
0.9081134645669291
21
0.4085591732283465
0
LINE
8
BLACK
6
CONTINUOUS
10
0.9081134645669291
20
0.4085591732283465
11
0.9085629921259842
21
0.4062992125984252
0
LINE
8
BLACK
6
CONTINUOUS
10
0.9085629921259842
20
0.4062992125984252
11
0.9085629921259842
21
0.3944881889763779
0
LINE
8
BLACK
6
CONTINUOUS
10
0.9085629921259842
20
0.3944881889763779
11
0.9081134645669291
21
0.3922282283464567
0
LINE
8
BLACK
6
CONTINUOUS
10
0.9081134645669291
20
0.3922282283464567
11
0.9068333070866141
21
0.3903123622047244
0
LINE
8
BLACK
6
CONTINUOUS
10
0.9068333070866141
20
0.3903123622047244
11
0.9049174409448819
21
0.3890322047244094
0
LINE
8
BLACK
6
CONTINUOUS
10
0.9049174409448819
20
0.3890322047244094
11
0.9026574803149606
21
0.3885826771653543
0
LINE
8
BLACK
6
CONTINUOUS
10
0.9026574803149606
20
0.3885826771653543
11
0.8623031496062992
21
0.3885826771653543
0
LINE
8
BLACK
6
CONTINUOUS
10
0.8623031496062992
20
0.3885826771653543
11
0.8600431889763779
21
0.3890322047244094
0
LINE
8
BLACK
6
CONTINUOUS
10
0.8600431889763779
20
0.3890322047244094
11
0.8581273228346457
21
0.3903123622047244
0
LINE
8
BLACK
6
CONTINUOUS
10
0.8581273228346457
20
0.3903123622047244
11
0.8568471653543307
21
0.3922282283464567
0
LINE
8
BLACK
6
CONTINUOUS
10
0.8568471653543307
20
0.3922282283464567
11
0.8563976377952756
21
0.3944881889763779
0
LINE
8
BLACK
6
CONTINUOUS
10
0.8563976377952756
20
0.3944881889763779
11
0.8563976377952756
21
0.4062992125984252
0
LINE
8
BLACK
6
CONTINUOUS
10
0.8563976377952756
20
0.4062992125984252
11
0.8568471653543307
21
0.4085591732283465
0
LINE
8
BLACK
6
CONTINUOUS
10
0.8568471653543307
20
0.4085591732283465
11
0.8581273228346457
21
0.4104750393700787
0
LINE
8
BLACK
6
CONTINUOUS
10
0.8581273228346457
20
0.4104750393700787
11
0.8600431889763779
21
0.4117551968503937
0
LINE
8
BLACK
6
CONTINUOUS
10
0.8600431889763779
20
0.4117551968503937
11
0.8623031496062992
21
0.4122047244094488
0
LINE
8
BLACK
6
CONTINUOUS
10
0.8623031496062992
20
0.4122047244094488
11
0.9026574803149606
21
0.4122047244094488
0
LINE
8
BLACK
6
CONTINUOUS
10
0.9026574803149606
20
0.4122047244094488
11
0.9049174409448819
21
0.4117551968503937
0
LINE
8
BLACK
6
CONTINUOUS
10
1.0106904330708661
20
0.4247943307086614
11
1.0132449212598424
21
0.4230874409448819
0
LINE
8
BLACK
6
CONTINUOUS
10
1.0132449212598424
20
0.4230874409448819
11
1.014951811023622
21
0.4205329527559055
0
LINE
8
BLACK
6
CONTINUOUS
10
1.014951811023622
20
0.4205329527559055
11
1.0155511811023621
21
0.4175196850393701
0
LINE
8
BLACK
6
CONTINUOUS
10
1.0155511811023621
20
0.4175196850393701
11
1.0155511811023621
21
0.4017716535433071
0
LINE
8
BLACK
6
CONTINUOUS
10
1.0155511811023621
20
0.4017716535433071
11
1.014951811023622
21
0.3987583858267716
0
LINE
8
BLACK
6
CONTINUOUS
10
1.014951811023622
20
0.3987583858267716
11
1.0132449212598424
21
0.3962038976377953
0
LINE
8
BLACK
6
CONTINUOUS
10
1.0132449212598424
20
0.3962038976377953
11
1.0106904330708661
21
0.3944970078740158
0
LINE
8
BLACK
6
CONTINUOUS
10
1.0106904330708661
20
0.3944970078740158
11
1.0076771653543306
21
0.3938976377952756
0
LINE
8
BLACK
6
CONTINUOUS
10
1.0076771653543306
20
0.3938976377952756
11
0.986023622047244
21
0.3938976377952756
0
LINE
8
BLACK
6
CONTINUOUS
10
0.986023622047244
20
0.3938976377952756
11
0.9830103543307086
21
0.3944970078740158
0
LINE
8
BLACK
6
CONTINUOUS
10
0.9830103543307086
20
0.3944970078740158
11
0.9804558661417323
21
0.3962038976377953
0
LINE
8
BLACK
6
CONTINUOUS
10
0.9804558661417323
20
0.3962038976377953
11
0.9787489763779528
21
0.3987583858267716
0
LINE
8
BLACK
6
CONTINUOUS
10
0.9787489763779528
20
0.3987583858267716
11
0.9781496062992125
21
0.4017716535433071
0
LINE
8
BLACK
6
CONTINUOUS
10
0.9781496062992125
20
0.4017716535433071
11
0.9781496062992125
21
0.4175196850393701
0
LINE
8
BLACK
6
CONTINUOUS
10
0.9781496062992125
20
0.4175196850393701
11
0.9787489763779528
21
0.4205329527559055
0
LINE
8
BLACK
6
CONTINUOUS
10
0.9787489763779528
20
0.4205329527559055
11
0.9804558661417323
21
0.4230874409448819
0
LINE
8
BLACK
6
CONTINUOUS
10
0.9804558661417323
20
0.4230874409448819
11
0.9830103543307086
21
0.4247943307086614
0
LINE
8
BLACK
6
CONTINUOUS
10
0.9830103543307086
20
0.4247943307086614
11
0.986023622047244
21
0.4253937007874016
0
LINE
8
BLACK
6
CONTINUOUS
10
0.986023622047244
20
0.4253937007874016
11
1.0076771653543306
21
0.4253937007874016
0
LINE
8
BLACK
6
CONTINUOUS
10
1.0076771653543306
20
0.4253937007874016
11
1.0106904330708661
21
0.4247943307086614
0
LINE
8
BLACK
6
CONTINUOUS
10
0.9049174409448819
20
0.4491567716535433
11
0.9068333070866141
21
0.4478766141732283
0
LINE
8
BLACK
6
CONTINUOUS
10
0.9068333070866141
20
0.4478766141732283
11
0.9081134645669291
21
0.445960748031496
0
LINE
8
BLACK
6
CONTINUOUS
10
0.9081134645669291
20
0.445960748031496
11
0.9085629921259842
21
0.4437007874015748
0
LINE
8
BLACK
6
CONTINUOUS
10
0.9085629921259842
20
0.4437007874015748
11
0.9085629921259842
21
0.4318897637795275
0
LINE
8
BLACK
6
CONTINUOUS
10
0.9085629921259842
20
0.4318897637795275
11
0.9081134645669291
21
0.4296298031496063
0
LINE
8
BLACK
6
CONTINUOUS
10
0.9081134645669291
20
0.4296298031496063
11
0.9068333070866141
21
0.427713937007874
0
LINE
8
BLACK
6
CONTINUOUS
10
0.9068333070866141
20
0.427713937007874
11
0.9049174409448819
21
0.4264337795275591
0
LINE
8
BLACK
6
CONTINUOUS
10
0.9049174409448819
20
0.4264337795275591
11
0.9026574803149606
21
0.4259842519685039
0
LINE
8
BLACK
6
CONTINUOUS
10
0.9026574803149606
20
0.4259842519685039
11
0.8623031496062992
21
0.4259842519685039
0
LINE
8
BLACK
6
CONTINUOUS
10
0.8623031496062992
20
0.4259842519685039
11
0.8600431889763779
21
0.4264337795275591
0
LINE
8
BLACK
6
CONTINUOUS
10
0.8600431889763779
20
0.4264337795275591
11
0.8581273228346457
21
0.427713937007874
0
LINE
8
BLACK
6
CONTINUOUS
10
0.8581273228346457
20
0.427713937007874
11
0.8568471653543307
21
0.4296298031496063
0
LINE
8
BLACK
6
CONTINUOUS
10
0.8568471653543307
20
0.4296298031496063
11
0.8563976377952756
21
0.4318897637795275
0
LINE
8
BLACK
6
CONTINUOUS
10
0.8563976377952756
20
0.4318897637795275
11
0.8563976377952756
21
0.4437007874015748
0
LINE
8
BLACK
6
CONTINUOUS
10
0.8563976377952756
20
0.4437007874015748
11
0.8568471653543307
21
0.445960748031496
0
LINE
8
BLACK
6
CONTINUOUS
10
0.8568471653543307
20
0.445960748031496
11
0.8581273228346457
21
0.4478766141732283
0
LINE
8
BLACK
6
CONTINUOUS
10
0.8581273228346457
20
0.4478766141732283
11
0.8600431889763779
21
0.4491567716535433
0
LINE
8
BLACK
6
CONTINUOUS
10
0.8600431889763779
20
0.4491567716535433
11
0.8623031496062992
21
0.4496062992125984
0
LINE
8
BLACK
6
CONTINUOUS
10
0.8623031496062992
20
0.4496062992125984
11
0.9026574803149606
21
0.4496062992125984
0
LINE
8
BLACK
6
CONTINUOUS
10
0.9026574803149606
20
0.4496062992125984
11
0.9049174409448819
21
0.4491567716535433
0
LINE
8
BLACK
6
CONTINUOUS
10
1.0106904330708661
20
0.4897549606299212
11
1.0132449212598424
21
0.4880480708661417
0
LINE
8
BLACK
6
CONTINUOUS
10
1.0132449212598424
20
0.4880480708661417
11
1.014951811023622
21
0.4854935826771654
0
LINE
8
BLACK
6
CONTINUOUS
10
1.014951811023622
20
0.4854935826771654
11
1.0155511811023621
21
0.4824803149606299
0
LINE
8
BLACK
6
CONTINUOUS
10
1.0155511811023621
20
0.4824803149606299
11
1.0155511811023621
21
0.4667322834645669
0
LINE
8
BLACK
6
CONTINUOUS
10
1.0155511811023621
20
0.4667322834645669
11
1.014951811023622
21
0.4637190157480315
0
LINE
8
BLACK
6
CONTINUOUS
10
1.014951811023622
20
0.4637190157480315
11
1.0132449212598424
21
0.4611645275590551
0
LINE
8
BLACK
6
CONTINUOUS
10
1.0132449212598424
20
0.4611645275590551
11
1.0106904330708661
21
0.4594576377952756
0
LINE
8
BLACK
6
CONTINUOUS
10
1.0106904330708661
20
0.4594576377952756
11
1.0076771653543306
21
0.4588582677165354
0
LINE
8
BLACK
6
CONTINUOUS
10
1.0076771653543306
20
0.4588582677165354
11
0.986023622047244
21
0.4588582677165354
0
LINE
8
BLACK
6
CONTINUOUS
10
0.986023622047244
20
0.4588582677165354
11
0.9830103543307086
21
0.4594576377952756
0
LINE
8
BLACK
6
CONTINUOUS
10
0.9830103543307086
20
0.4594576377952756
11
0.9804558661417323
21
0.4611645275590551
0
LINE
8
BLACK
6
CONTINUOUS
10
0.9804558661417323
20
0.4611645275590551
11
0.9787489763779528
21
0.4637190157480315
0
LINE
8
BLACK
6
CONTINUOUS
10
0.9787489763779528
20
0.4637190157480315
11
0.9781496062992125
21
0.4667322834645669
0
LINE
8
BLACK
6
CONTINUOUS
10
0.9781496062992125
20
0.4667322834645669
11
0.9781496062992125
21
0.4824803149606299
0
LINE
8
BLACK
6
CONTINUOUS
10
0.9781496062992125
20
0.4824803149606299
11
0.9787489763779528
21
0.4854935826771654
0
LINE
8
BLACK
6
CONTINUOUS
10
0.9787489763779528
20
0.4854935826771654
11
0.9804558661417323
21
0.4880480708661417
0
LINE
8
BLACK
6
CONTINUOUS
10
0.9804558661417323
20
0.4880480708661417
11
0.9830103543307086
21
0.4897549606299212
0
LINE
8
BLACK
6
CONTINUOUS
10
0.9830103543307086
20
0.4897549606299212
11
0.986023622047244
21
0.4903543307086614
0
LINE
8
BLACK
6
CONTINUOUS
10
0.986023622047244
20
0.4903543307086614
11
1.0076771653543306
21
0.4903543307086614
0
LINE
8
BLACK
6
CONTINUOUS
10
1.0076771653543306
20
0.4903543307086614
11
1.0106904330708661
21
0.4897549606299212
0
LINE
8
BLACK
6
CONTINUOUS
10
0.8153505118110236
20
0.4865583464566929
11
0.8172663779527559
21
0.4852781889763779
0
LINE
8
BLACK
6
CONTINUOUS
10
0.8172663779527559
20
0.4852781889763779
11
0.8185465354330709
21
0.4833623228346456
0
LINE
8
BLACK
6
CONTINUOUS
10
0.8185465354330709
20
0.4833623228346456
11
0.818996062992126
21
0.4811023622047244
0
LINE
8
BLACK
6
CONTINUOUS
10
0.818996062992126
20
0.4811023622047244
11
0.818996062992126
21
0.4692913385826771
0
LINE
8
BLACK
6
CONTINUOUS
10
0.818996062992126
20
0.4692913385826771
11
0.8185465354330709
21
0.4670313779527559
0
LINE
8
BLACK
6
CONTINUOUS
10
0.8185465354330709
20
0.4670313779527559
11
0.8172663779527559
21
0.4651155118110236
0
LINE
8
BLACK
6
CONTINUOUS
10
0.8172663779527559
20
0.4651155118110236
11
0.8153505118110236
21
0.4638353543307087
0
LINE
8
BLACK
6
CONTINUOUS
10
0.8153505118110236
20
0.4638353543307087
11
0.8130905511811023
21
0.4633858267716535
0
LINE
8
BLACK
6
CONTINUOUS
10
0.8130905511811023
20
0.4633858267716535
11
0.7727362204724409
21
0.4633858267716535
0
LINE
8
BLACK
6
CONTINUOUS
10
0.7727362204724409
20
0.4633858267716535
11
0.7704762598425197
21
0.4638353543307087
0
LINE
8
BLACK
6
CONTINUOUS
10
0.7704762598425197
20
0.4638353543307087
11
0.7685603937007874
21
0.4651155118110236
0
LINE
8
BLACK
6
CONTINUOUS
10
0.7685603937007874
20
0.4651155118110236
11
0.7672802362204725
21
0.4670313779527559
0
LINE
8
BLACK
6
CONTINUOUS
10
0.7672802362204725
20
0.4670313779527559
11
0.7668307086614173
21
0.4692913385826771
0
LINE
8
BLACK
6
CONTINUOUS
10
0.7668307086614173
20
0.4692913385826771
11
0.7668307086614173
21
0.4811023622047244
0
LINE
8
BLACK
6
CONTINUOUS
10
0.7668307086614173
20
0.4811023622047244
11
0.7672802362204725
21
0.4833623228346456
0
LINE
8
BLACK
6
CONTINUOUS
10
0.7672802362204725
20
0.4833623228346456
11
0.7685603937007874
21
0.4852781889763779
0
LINE
8
BLACK
6
CONTINUOUS
10
0.7685603937007874
20
0.4852781889763779
11
0.7704762598425197
21
0.4865583464566929
0
LINE
8
BLACK
6
CONTINUOUS
10
0.7704762598425197
20
0.4865583464566929
11
0.7727362204724409
21
0.487007874015748
0
LINE
8
BLACK
6
CONTINUOUS
10
0.7727362204724409
20
0.487007874015748
11
0.8130905511811023
21
0.487007874015748
0
LINE
8
BLACK
6
CONTINUOUS
10
0.8130905511811023
20
0.487007874015748
11
0.8153505118110236
21
0.4865583464566929
0
LINE
8
BLACK
6
CONTINUOUS
10
0.9049174409448819
20
0.4865583464566929
11
0.9068333070866141
21
0.4852781889763779
0
LINE
8
BLACK
6
CONTINUOUS
10
0.9068333070866141
20
0.4852781889763779
11
0.9081134645669291
21
0.4833623228346456
0
LINE
8
BLACK
6
CONTINUOUS
10
0.9081134645669291
20
0.4833623228346456
11
0.9085629921259842
21
0.4811023622047244
0
LINE
8
BLACK
6
CONTINUOUS
10
0.9085629921259842
20
0.4811023622047244
11
0.9085629921259842
21
0.4692913385826771
0
LINE
8
BLACK
6
CONTINUOUS
10
0.9085629921259842
20
0.4692913385826771
11
0.9081134645669291
21
0.4670313779527559
0
LINE
8
BLACK
6
CONTINUOUS
10
0.9081134645669291
20
0.4670313779527559
11
0.9068333070866141
21
0.4651155118110236
0
LINE
8
BLACK
6
CONTINUOUS
10
0.9068333070866141
20
0.4651155118110236
11
0.9049174409448819
21
0.4638353543307087
0
LINE
8
BLACK
6
CONTINUOUS
10
0.9049174409448819
20
0.4638353543307087
11
0.9026574803149606
21
0.4633858267716535
0
LINE
8
BLACK
6
CONTINUOUS
10
0.9026574803149606
20
0.4633858267716535
11
0.8623031496062992
21
0.4633858267716535
0
LINE
8
BLACK
6
CONTINUOUS
10
0.8623031496062992
20
0.4633858267716535
11
0.8600431889763779
21
0.4638353543307087
0
LINE
8
BLACK
6
CONTINUOUS
10
0.8600431889763779
20
0.4638353543307087
11
0.8581273228346457
21
0.4651155118110236
0
LINE
8
BLACK
6
CONTINUOUS
10
0.8581273228346457
20
0.4651155118110236
11
0.8568471653543307
21
0.4670313779527559
0
LINE
8
BLACK
6
CONTINUOUS
10
0.8568471653543307
20
0.4670313779527559
11
0.8563976377952756
21
0.4692913385826771
0
LINE
8
BLACK
6
CONTINUOUS
10
0.8563976377952756
20
0.4692913385826771
11
0.8563976377952756
21
0.4811023622047244
0
LINE
8
BLACK
6
CONTINUOUS
10
0.8563976377952756
20
0.4811023622047244
11
0.8568471653543307
21
0.4833623228346456
0
LINE
8
BLACK
6
CONTINUOUS
10
0.8568471653543307
20
0.4833623228346456
11
0.8581273228346457
21
0.4852781889763779
0
LINE
8
BLACK
6
CONTINUOUS
10
0.8581273228346457
20
0.4852781889763779
11
0.8600431889763779
21
0.4865583464566929
0
LINE
8
BLACK
6
CONTINUOUS
10
0.8600431889763779
20
0.4865583464566929
11
0.8623031496062992
21
0.487007874015748
0
LINE
8
BLACK
6
CONTINUOUS
10
0.8623031496062992
20
0.487007874015748
11
0.9026574803149606
21
0.487007874015748
0
LINE
8
BLACK
6
CONTINUOUS
10
0.9026574803149606
20
0.487007874015748
11
0.9049174409448819
21
0.4865583464566929
0
LINE
8
BLACK
6
CONTINUOUS
10
0.7805552755905512
20
0.5723572047244094
11
0.783429094488189
21
0.570436968503937
0
LINE
8
BLACK
6
CONTINUOUS
10
0.783429094488189
20
0.570436968503937
11
0.7853493307086614
21
0.5675631496062992
0
LINE
8
BLACK
6
CONTINUOUS
10
0.7853493307086614
20
0.5675631496062992
11
0.7860236220472441
21
0.5641732283464567
0
LINE
8
BLACK
6
CONTINUOUS
10
0.7860236220472441
20
0.5641732283464567
11
0.7860236220472441
21
0.544488188976378
0
LINE
8
BLACK
6
CONTINUOUS
10
0.7860236220472441
20
0.544488188976378
11
0.7853493307086614
21
0.5410982677165355
0
LINE
8
BLACK
6
CONTINUOUS
10
0.7853493307086614
20
0.5410982677165355
11
0.783429094488189
21
0.5382244488188976
0
LINE
8
BLACK
6
CONTINUOUS
10
0.783429094488189
20
0.5382244488188976
11
0.7805552755905512
21
0.5363042125984252
0
LINE
8
BLACK
6
CONTINUOUS
10
0.7805552755905512
20
0.5363042125984252
11
0.7771653543307087
21
0.5356299212598425
0
LINE
8
BLACK
6
CONTINUOUS
10
0.7771653543307087
20
0.5356299212598425
11
0.7594488188976378
21
0.5356299212598425
0
LINE
8
BLACK
6
CONTINUOUS
10
0.7594488188976378
20
0.5356299212598425
11
0.7560588976377952
21
0.5363042125984252
0
LINE
8
BLACK
6
CONTINUOUS
10
0.7560588976377952
20
0.5363042125984252
11
0.7531850787401575
21
0.5382244488188976
0
LINE
8
BLACK
6
CONTINUOUS
10
0.7531850787401575
20
0.5382244488188976
11
0.7512648425196851
21
0.5410982677165355
0
LINE
8
BLACK
6
CONTINUOUS
10
0.7512648425196851
20
0.5410982677165355
11
0.7505905511811023
21
0.544488188976378
0
LINE
8
BLACK
6
CONTINUOUS
10
0.7505905511811023
20
0.544488188976378
11
0.7505905511811023
21
0.5641732283464567
0
LINE
8
BLACK
6
CONTINUOUS
10
0.7505905511811023
20
0.5641732283464567
11
0.7512648425196851
21
0.5675631496062992
0
LINE
8
BLACK
6
CONTINUOUS
10
0.7512648425196851
20
0.5675631496062992
11
0.7531850787401575
21
0.570436968503937
0
LINE
8
BLACK
6
CONTINUOUS
10
0.7531850787401575
20
0.570436968503937
11
0.7560588976377952
21
0.5723572047244094
0
LINE
8
BLACK
6
CONTINUOUS
10
0.7560588976377952
20
0.5723572047244094
11
0.7594488188976378
21
0.5730314960629921
0
LINE
8
BLACK
6
CONTINUOUS
10
0.7594488188976378
20
0.5730314960629921
11
0.7771653543307087
21
0.5730314960629921
0
LINE
8
BLACK
6
CONTINUOUS
10
0.7771653543307087
20
0.5730314960629921
11
0.7805552755905512
21
0.5723572047244094
0
LINE
8
BLACK
6
CONTINUOUS
10
0.8415788976377953
20
0.5723572047244094
11
0.8444527165354331
21
0.570436968503937
0
LINE
8
BLACK
6
CONTINUOUS
10
0.8444527165354331
20
0.570436968503937
11
0.8463729527559055
21
0.5675631496062992
0
LINE
8
BLACK
6
CONTINUOUS
10
0.8463729527559055
20
0.5675631496062992
11
0.8470472440944882
21
0.5641732283464567
0
LINE
8
BLACK
6
CONTINUOUS
10
0.8470472440944882
20
0.5641732283464567
11
0.8470472440944882
21
0.544488188976378
0
LINE
8
BLACK
6
CONTINUOUS
10
0.8470472440944882
20
0.544488188976378
11
0.8463729527559055
21
0.5410982677165355
0
LINE
8
BLACK
6
CONTINUOUS
10
0.8463729527559055
20
0.5410982677165355
11
0.8444527165354331
21
0.5382244488188976
0
LINE
8
BLACK
6
CONTINUOUS
10
0.8444527165354331
20
0.5382244488188976
11
0.8415788976377953
21
0.5363042125984252
0
LINE
8
BLACK
6
CONTINUOUS
10
0.8415788976377953
20
0.5363042125984252
11
0.8381889763779528
21
0.5356299212598425
0
LINE
8
BLACK
6
CONTINUOUS
10
0.8381889763779528
20
0.5356299212598425
11
0.8204724409448819
21
0.5356299212598425
0
LINE
8
BLACK
6
CONTINUOUS
10
0.8204724409448819
20
0.5356299212598425
11
0.8170825196850393
21
0.5363042125984252
0
LINE
8
BLACK
6
CONTINUOUS
10
0.8170825196850393
20
0.5363042125984252
11
0.8142087007874016
21
0.5382244488188976
0
LINE
8
BLACK
6
CONTINUOUS
10
0.8142087007874016
20
0.5382244488188976
11
0.8122884645669292
21
0.5410982677165355
0
LINE
8
BLACK
6
CONTINUOUS
10
0.8122884645669292
20
0.5410982677165355
11
0.8116141732283464
21
0.544488188976378
0
LINE
8
BLACK
6
CONTINUOUS
10
0.8116141732283464
20
0.544488188976378
11
0.8116141732283464
21
0.5641732283464567
0
LINE
8
BLACK
6
CONTINUOUS
10
0.8116141732283464
20
0.5641732283464567
11
0.8122884645669292
21
0.5675631496062992
0
LINE
8
BLACK
6
CONTINUOUS
10
0.8122884645669292
20
0.5675631496062992
11
0.8142087007874016
21
0.570436968503937
0
LINE
8
BLACK
6
CONTINUOUS
10
0.8142087007874016
20
0.570436968503937
11
0.8170825196850393
21
0.5723572047244094
0
LINE
8
BLACK
6
CONTINUOUS
10
0.8170825196850393
20
0.5723572047244094
11
0.8204724409448819
21
0.5730314960629921
0
LINE
8
BLACK
6
CONTINUOUS
10
0.8204724409448819
20
0.5730314960629921
11
0.8381889763779528
21
0.5730314960629921
0
LINE
8
BLACK
6
CONTINUOUS
10
0.8381889763779528
20
0.5730314960629921
11
0.8415788976377953
21
0.5723572047244094
0
LINE
8
BLACK
6
CONTINUOUS
10
1.0137757086614172
20
0.616085905511811
11
1.0156915748031496
21
0.614805748031496
0
LINE
8
BLACK
6
CONTINUOUS
10
1.0156915748031496
20
0.614805748031496
11
1.0169717322834646
21
0.6128898818897638
0
LINE
8
BLACK
6
CONTINUOUS
10
1.0169717322834646
20
0.6128898818897638
11
1.0174212598425196
21
0.6106299212598425
0
LINE
8
BLACK
6
CONTINUOUS
10
1.0174212598425196
20
0.6106299212598425
11
1.0174212598425196
21
0.5988188976377953
0
LINE
8
BLACK
6
CONTINUOUS
10
1.0174212598425196
20
0.5988188976377953
11
1.0169717322834646
21
0.596558937007874
0
LINE
8
BLACK
6
CONTINUOUS
10
1.0169717322834646
20
0.596558937007874
11
1.0156915748031496
21
0.5946430708661418
0
LINE
8
BLACK
6
CONTINUOUS
10
1.0156915748031496
20
0.5946430708661418
11
1.0137757086614172
21
0.5933629133858268
0
LINE
8
BLACK
6
CONTINUOUS
10
1.0137757086614172
20
0.5933629133858268
11
1.011515748031496
21
0.5929133858267717
0
LINE
8
BLACK
6
CONTINUOUS
10
1.011515748031496
20
0.5929133858267717
11
0.965255905511811
21
0.5929133858267717
0
LINE
8
BLACK
6
CONTINUOUS
10
0.965255905511811
20
0.5929133858267717
11
0.9629959448818898
21
0.5933629133858268
0
LINE
8
BLACK
6
CONTINUOUS
10
0.9629959448818898
20
0.5933629133858268
11
0.9610800787401574
21
0.5946430708661418
0
LINE
8
BLACK
6
CONTINUOUS
10
0.9610800787401574
20
0.5946430708661418
11
0.9597999212598425
21
0.596558937007874
0
LINE
8
BLACK
6
CONTINUOUS
10
0.9597999212598425
20
0.596558937007874
11
0.9593503937007873
21
0.5988188976377953
0
LINE
8
BLACK
6
CONTINUOUS
10
0.9593503937007873
20
0.5988188976377953
11
0.9593503937007873
21
0.6106299212598425
0
LINE
8
BLACK
6
CONTINUOUS
10
0.9593503937007873
20
0.6106299212598425
11
0.9597999212598425
21
0.6128898818897638
0
LINE
8
BLACK
6
CONTINUOUS
10
0.9597999212598425
20
0.6128898818897638
11
0.9610800787401574
21
0.614805748031496
0
LINE
8
BLACK
6
CONTINUOUS
10
0.9610800787401574
20
0.614805748031496
11
0.9629959448818898
21
0.616085905511811
0
LINE
8
BLACK
6
CONTINUOUS
10
0.9629959448818898
20
0.616085905511811
11
0.965255905511811
21
0.6165354330708661
0
LINE
8
BLACK
6
CONTINUOUS
10
0.965255905511811
20
0.6165354330708661
11
1.011515748031496
21
0.6165354330708661
0
LINE
8
BLACK
6
CONTINUOUS
10
1.011515748031496
20
0.6165354330708661
11
1.0137757086614172
21
0.616085905511811
0
LINE
8
BLACK
6
CONTINUOUS
10
0.7772258661417323
20
0.6614085039370079
11
0.7797803543307087
21
0.6597016141732284
0
LINE
8
BLACK
6
CONTINUOUS
10
0.7797803543307087
20
0.6597016141732284
11
0.7814872440944882
21
0.657147125984252
0
LINE
8
BLACK
6
CONTINUOUS
10
0.7814872440944882
20
0.657147125984252
11
0.7820866141732283
21
0.6541338582677165
0
LINE
8
BLACK
6
CONTINUOUS
10
0.7820866141732283
20
0.6541338582677165
11
0.7820866141732283
21
0.63248031496063
0
LINE
8
BLACK
6
CONTINUOUS
10
0.7820866141732283
20
0.63248031496063
11
0.7814872440944882
21
0.6294670472440945
0
LINE
8
BLACK
6
CONTINUOUS
10
0.7814872440944882
20
0.6294670472440945
11
0.7797803543307087
21
0.6269125590551181
0
LINE
8
BLACK
6
CONTINUOUS
10
0.7797803543307087
20
0.6269125590551181
11
0.7772258661417323
21
0.6252056692913386
0
LINE
8
BLACK
6
CONTINUOUS
10
0.7772258661417323
20
0.6252056692913386
11
0.7742125984251969
21
0.6246062992125984
0
LINE
8
BLACK
6
CONTINUOUS
10
0.7742125984251969
20
0.6246062992125984
11
0.7584645669291339
21
0.6246062992125984
0
LINE
8
BLACK
6
CONTINUOUS
10
0.7584645669291339
20
0.6246062992125984
11
0.7554512992125985
21
0.6252056692913386
0
LINE
8
BLACK
6
CONTINUOUS
10
0.7554512992125985
20
0.6252056692913386
11
0.752896811023622
21
0.6269125590551181
0
LINE
8
BLACK
6
CONTINUOUS
10
0.752896811023622
20
0.6269125590551181
11
0.7511899212598425
21
0.6294670472440945
0
LINE
8
BLACK
6
CONTINUOUS
10
0.7511899212598425
20
0.6294670472440945
11
0.7505905511811023
21
0.63248031496063
0
LINE
8
BLACK
6
CONTINUOUS
10
0.7505905511811023
20
0.63248031496063
11
0.7505905511811023
21
0.6541338582677165
0
LINE
8
BLACK
6
CONTINUOUS
10
0.7505905511811023
20
0.6541338582677165
11
0.7511899212598425
21
0.657147125984252
0
LINE
8
BLACK
6
CONTINUOUS
10
0.7511899212598425
20
0.657147125984252
11
0.752896811023622
21
0.6597016141732284
0
LINE
8
BLACK
6
CONTINUOUS
10
0.752896811023622
20
0.6597016141732284
11
0.7554512992125985
21
0.6614085039370079
0
LINE
8
BLACK
6
CONTINUOUS
10
0.7554512992125985
20
0.6614085039370079
11
0.7584645669291339
21
0.662007874015748
0
LINE
8
BLACK
6
CONTINUOUS
10
0.7584645669291339
20
0.662007874015748
11
0.7742125984251969
21
0.662007874015748
0
LINE
8
BLACK
6
CONTINUOUS
10
0.7742125984251969
20
0.662007874015748
11
0.7772258661417323
21
0.6614085039370079
0
LINE
8
BLACK
6
CONTINUOUS
10
0.8421864960629921
20
0.6614085039370079
11
0.8447409842519685
21
0.6597016141732284
0
LINE
8
BLACK
6
CONTINUOUS
10
0.8447409842519685
20
0.6597016141732284
11
0.8464478740157481
21
0.657147125984252
0
LINE
8
BLACK
6
CONTINUOUS
10
0.8464478740157481
20
0.657147125984252
11
0.8470472440944882
21
0.6541338582677165
0
LINE
8
BLACK
6
CONTINUOUS
10
0.8470472440944882
20
0.6541338582677165
11
0.8470472440944882
21
0.63248031496063
0
LINE
8
BLACK
6
CONTINUOUS
10
0.8470472440944882
20
0.63248031496063
11
0.8464478740157481
21
0.6294670472440945
0
LINE
8
BLACK
6
CONTINUOUS
10
0.8464478740157481
20
0.6294670472440945
11
0.8447409842519685
21
0.6269125590551181
0
LINE
8
BLACK
6
CONTINUOUS
10
0.8447409842519685
20
0.6269125590551181
11
0.8421864960629921
21
0.6252056692913386
0
LINE
8
BLACK
6
CONTINUOUS
10
0.8421864960629921
20
0.6252056692913386
11
0.8391732283464567
21
0.6246062992125984
0
LINE
8
BLACK
6
CONTINUOUS
10
0.8391732283464567
20
0.6246062992125984
11
0.8234251968503937
21
0.6246062992125984
0
LINE
8
BLACK
6
CONTINUOUS
10
0.8234251968503937
20
0.6246062992125984
11
0.8204119291338583
21
0.6252056692913386
0
LINE
8
BLACK
6
CONTINUOUS
10
0.8204119291338583
20
0.6252056692913386
11
0.8178574409448819
21
0.6269125590551181
0
LINE
8
BLACK
6
CONTINUOUS
10
0.8178574409448819
20
0.6269125590551181
11
0.8161505511811024
21
0.6294670472440945
0
LINE
8
BLACK
6
CONTINUOUS
10
0.8161505511811024
20
0.6294670472440945
11
0.8155511811023621
21
0.63248031496063
0
LINE
8
BLACK
6
CONTINUOUS
10
0.8155511811023621
20
0.63248031496063
11
0.8155511811023621
21
0.6541338582677165
0
LINE
8
BLACK
6
CONTINUOUS
10
0.8155511811023621
20
0.6541338582677165
11
0.8161505511811024
21
0.657147125984252
0
LINE
8
BLACK
6
CONTINUOUS
10
0.8161505511811024
20
0.657147125984252
11
0.8178574409448819
21
0.6597016141732284
0
LINE
8
BLACK
6
CONTINUOUS
10
0.8178574409448819
20
0.6597016141732284
11
0.8204119291338583
21
0.6614085039370079
0
LINE
8
BLACK
6
CONTINUOUS
10
0.8204119291338583
20
0.6614085039370079
11
0.8234251968503937
21
0.662007874015748
0
LINE
8
BLACK
6
CONTINUOUS
10
0.8234251968503937
20
0.662007874015748
11
0.8391732283464567
21
0.662007874015748
0
LINE
8
BLACK
6
CONTINUOUS
10
0.8391732283464567
20
0.662007874015748
11
0.8421864960629921
21
0.6614085039370079
0
LINE
8
BLACK
6
CONTINUOUS
10
0.9399568110236221
20
0.6534874803149606
11
0.9418726771653543
21
0.6522073228346457
0
LINE
8
BLACK
6
CONTINUOUS
10
0.9418726771653543
20
0.6522073228346457
11
0.9431528346456692
21
0.6502914566929133
0
LINE
8
BLACK
6
CONTINUOUS
10
0.9431528346456692
20
0.6502914566929133
11
0.9436023622047244
21
0.6480314960629922
0
LINE
8
BLACK
6
CONTINUOUS
10
0.9436023622047244
20
0.6480314960629922
11
0.9436023622047244
21
0.6362204724409448
0
LINE
8
BLACK
6
CONTINUOUS
10
0.9436023622047244
20
0.6362204724409448
11
0.9431528346456692
21
0.6339605118110236
0
LINE
8
BLACK
6
CONTINUOUS
10
0.9431528346456692
20
0.6339605118110236
11
0.9418726771653543
21
0.6320446456692913
0
LINE
8
BLACK
6
CONTINUOUS
10
0.9418726771653543
20
0.6320446456692913
11
0.9399568110236221
21
0.6307644881889763
0
LINE
8
BLACK
6
CONTINUOUS
10
0.9399568110236221
20
0.6307644881889763
11
0.9376968503937008
21
0.6303149606299212
0
LINE
8
BLACK
6
CONTINUOUS
10
0.9376968503937008
20
0.6303149606299212
11
0.8914370078740157
21
0.6303149606299212
0
LINE
8
BLACK
6
CONTINUOUS
10
0.8914370078740157
20
0.6303149606299212
11
0.8891770472440945
21
0.6307644881889763
0
LINE
8
BLACK
6
CONTINUOUS
10
0.8891770472440945
20
0.6307644881889763
11
0.8872611811023622
21
0.6320446456692913
0
LINE
8
BLACK
6
CONTINUOUS
10
0.8872611811023622
20
0.6320446456692913
11
0.8859810236220472
21
0.6339605118110236
0
LINE
8
BLACK
6
CONTINUOUS
10
0.8859810236220472
20
0.6339605118110236
11
0.8855314960629921
21
0.6362204724409448
0
LINE
8
BLACK
6
CONTINUOUS
10
0.8855314960629921
20
0.6362204724409448
11
0.8855314960629921
21
0.6480314960629922
0
LINE
8
BLACK
6
CONTINUOUS
10
0.8855314960629921
20
0.6480314960629922
11
0.8859810236220472
21
0.6502914566929133
0
LINE
8
BLACK
6
CONTINUOUS
10
0.8859810236220472
20
0.6502914566929133
11
0.8872611811023622
21
0.6522073228346457
0
LINE
8
BLACK
6
CONTINUOUS
10
0.8872611811023622
20
0.6522073228346457
11
0.8891770472440945
21
0.6534874803149606
0
LINE
8
BLACK
6
CONTINUOUS
10
0.8891770472440945
20
0.6534874803149606
11
0.8914370078740157
21
0.6539370078740158
0
LINE
8
BLACK
6
CONTINUOUS
10
0.8914370078740157
20
0.6539370078740158
11
0.9376968503937008
21
0.6539370078740158
0
LINE
8
BLACK
6
CONTINUOUS
10
0.9376968503937008
20
0.6539370078740158
11
0.9399568110236221
21
0.6534874803149606
0
LINE
8
BLACK
6
CONTINUOUS
10
1.0137757086614172
20
0.6908890551181103
11
1.0156915748031496
21
0.6896088976377953
0
LINE
8
BLACK
6
CONTINUOUS
10
1.0156915748031496
20
0.6896088976377953
11
1.0169717322834646
21
0.687693031496063
0
LINE
8
BLACK
6
CONTINUOUS
10
1.0169717322834646
20
0.687693031496063
11
1.0174212598425196
21
0.6854330708661417
0
LINE
8
BLACK
6
CONTINUOUS
10
1.0174212598425196
20
0.6854330708661417
11
1.0174212598425196
21
0.6736220472440945
0
LINE
8
BLACK
6
CONTINUOUS
10
1.0174212598425196
20
0.6736220472440945
11
1.0169717322834646
21
0.6713620866141732
0
LINE
8
BLACK
6
CONTINUOUS
10
1.0169717322834646
20
0.6713620866141732
11
1.0156915748031496
21
0.669446220472441
0
LINE
8
BLACK
6
CONTINUOUS
10
1.0156915748031496
20
0.669446220472441
11
1.0137757086614172
21
0.668166062992126
0
LINE
8
BLACK
6
CONTINUOUS
10
1.0137757086614172
20
0.668166062992126
11
1.011515748031496
21
0.6677165354330709
0
LINE
8
BLACK
6
CONTINUOUS
10
1.011515748031496
20
0.6677165354330709
11
0.965255905511811
21
0.6677165354330709
0
LINE
8
BLACK
6
CONTINUOUS
10
0.965255905511811
20
0.6677165354330709
11
0.9629959448818898
21
0.668166062992126
0
LINE
8
BLACK
6
CONTINUOUS
10
0.9629959448818898
20
0.668166062992126
11
0.9610800787401574
21
0.669446220472441
0
LINE
8
BLACK
6
CONTINUOUS
10
0.9610800787401574
20
0.669446220472441
11
0.9597999212598425
21
0.6713620866141732
0
LINE
8
BLACK
6
CONTINUOUS
10
0.9597999212598425
20
0.6713620866141732
11
0.9593503937007873
21
0.6736220472440945
0
LINE
8
BLACK
6
CONTINUOUS
10
0.9593503937007873
20
0.6736220472440945
11
0.9593503937007873
21
0.6854330708661417
0
LINE
8
BLACK
6
CONTINUOUS
10
0.9593503937007873
20
0.6854330708661417
11
0.9597999212598425
21
0.687693031496063
0
LINE
8
BLACK
6
CONTINUOUS
10
0.9597999212598425
20
0.687693031496063
11
0.9610800787401574
21
0.6896088976377953
0
LINE
8
BLACK
6
CONTINUOUS
10
0.9610800787401574
20
0.6896088976377953
11
0.9629959448818898
21
0.6908890551181103
0
LINE
8
BLACK
6
CONTINUOUS
10
0.9629959448818898
20
0.6908890551181103
11
0.965255905511811
21
0.6913385826771653
0
LINE
8
BLACK
6
CONTINUOUS
10
0.965255905511811
20
0.6913385826771653
11
1.011515748031496
21
0.6913385826771653
0
LINE
8
BLACK
6
CONTINUOUS
10
1.011515748031496
20
0.6913385826771653
11
1.0137757086614172
21
0.6908890551181103
0
LINE
8
BLACK
6
CONTINUOUS
10
0.9319502755905512
20
0.8157392125984252
11
0.9345047637795275
21
0.8140323228346457
0
LINE
8
BLACK
6
CONTINUOUS
10
0.9345047637795275
20
0.8140323228346457
11
0.936211653543307
21
0.8114778346456692
0
LINE
8
BLACK
6
CONTINUOUS
10
0.936211653543307
20
0.8114778346456692
11
0.9368110236220473
21
0.8084645669291338
0
LINE
8
BLACK
6
CONTINUOUS
10
0.9368110236220473
20
0.8084645669291338
11
0.9368110236220473
21
0.7868110236220472
0
LINE
8
BLACK
6
CONTINUOUS
10
0.9368110236220473
20
0.7868110236220472
11
0.936211653543307
21
0.7837977559055118
0
LINE
8
BLACK
6
CONTINUOUS
10
0.936211653543307
20
0.7837977559055118
11
0.9345047637795275
21
0.7812432677165354
0
LINE
8
BLACK
6
CONTINUOUS
10
0.9345047637795275
20
0.7812432677165354
11
0.9319502755905512
21
0.7795363779527559
0
LINE
8
BLACK
6
CONTINUOUS
10
0.9319502755905512
20
0.7795363779527559
11
0.9289370078740157
21
0.7789370078740158
0
LINE
8
BLACK
6
CONTINUOUS
10
0.9289370078740157
20
0.7789370078740158
11
0.9131889763779527
21
0.7789370078740158
0
LINE
8
BLACK
6
CONTINUOUS
10
0.9131889763779527
20
0.7789370078740158
11
0.9101757086614173
21
0.7795363779527559
0
LINE
8
BLACK
6
CONTINUOUS
10
0.9101757086614173
20
0.7795363779527559
11
0.9076212204724409
21
0.7812432677165354
0
LINE
8
BLACK
6
CONTINUOUS
10
0.9076212204724409
20
0.7812432677165354
11
0.9059143307086613
21
0.7837977559055118
0
LINE
8
BLACK
6
CONTINUOUS
10
0.9059143307086613
20
0.7837977559055118
11
0.9053149606299212
21
0.7868110236220472
0
LINE
8
BLACK
6
CONTINUOUS
10
0.9053149606299212
20
0.7868110236220472
11
0.9053149606299212
21
0.8084645669291338
0
LINE
8
BLACK
6
CONTINUOUS
10
0.9053149606299212
20
0.8084645669291338
11
0.9059143307086613
21
0.8114778346456692
0
LINE
8
BLACK
6
CONTINUOUS
10
0.9059143307086613
20
0.8114778346456692
11
0.9076212204724409
21
0.8140323228346457
0
LINE
8
BLACK
6
CONTINUOUS
10
0.9076212204724409
20
0.8140323228346457
11
0.9101757086614173
21
0.8157392125984252
0
LINE
8
BLACK
6
CONTINUOUS
10
0.9101757086614173
20
0.8157392125984252
11
0.9131889763779527
21
0.8163385826771653
0
LINE
8
BLACK
6
CONTINUOUS
10
0.9131889763779527
20
0.8163385826771653
11
0.9289370078740157
21
0.8163385826771653
0
LINE
8
BLACK
6
CONTINUOUS
10
0.9289370078740157
20
0.8163385826771653
11
0.9319502755905512
21
0.8157392125984252
0
LINE
8
BLACK
6
CONTINUOUS
10
0.9969109055118111
20
0.8157392125984252
11
0.9994653937007874
21
0.8140323228346457
0
LINE
8
BLACK
6
CONTINUOUS
10
0.9994653937007874
20
0.8140323228346457
11
1.0011722834645669
21
0.8114778346456692
0
LINE
8
BLACK
6
CONTINUOUS
10
1.0011722834645669
20
0.8114778346456692
11
1.001771653543307
21
0.8084645669291338
0
LINE
8
BLACK
6
CONTINUOUS
10
1.001771653543307
20
0.8084645669291338
11
1.001771653543307
21
0.7868110236220472
0
LINE
8
BLACK
6
CONTINUOUS
10
1.001771653543307
20
0.7868110236220472
11
1.0011722834645669
21
0.7837977559055118
0
LINE
8
BLACK
6
CONTINUOUS
10
1.0011722834645669
20
0.7837977559055118
11
0.9994653937007874
21
0.7812432677165354
0
LINE
8
BLACK
6
CONTINUOUS
10
0.9994653937007874
20
0.7812432677165354
11
0.9969109055118111
21
0.7795363779527559
0
LINE
8
BLACK
6
CONTINUOUS
10
0.9969109055118111
20
0.7795363779527559
11
0.9938976377952755
21
0.7789370078740158
0
LINE
8
BLACK
6
CONTINUOUS
10
0.9938976377952755
20
0.7789370078740158
11
0.9781496062992125
21
0.7789370078740158
0
LINE
8
BLACK
6
CONTINUOUS
10
0.9781496062992125
20
0.7789370078740158
11
0.9751363385826771
21
0.7795363779527559
0
LINE
8
BLACK
6
CONTINUOUS
10
0.9751363385826771
20
0.7795363779527559
11
0.9725818503937008
21
0.7812432677165354
0
LINE
8
BLACK
6
CONTINUOUS
10
0.9725818503937008
20
0.7812432677165354
11
0.9708749606299213
21
0.7837977559055118
0
LINE
8
BLACK
6
CONTINUOUS
10
0.9708749606299213
20
0.7837977559055118
11
0.9702755905511811
21
0.7868110236220472
0
LINE
8
BLACK
6
CONTINUOUS
10
0.9702755905511811
20
0.7868110236220472
11
0.9702755905511811
21
0.8084645669291338
0
LINE
8
BLACK
6
CONTINUOUS
10
0.9702755905511811
20
0.8084645669291338
11
0.9708749606299213
21
0.8114778346456692
0
LINE
8
BLACK
6
CONTINUOUS
10
0.9708749606299213
20
0.8114778346456692
11
0.9725818503937008
21
0.8140323228346457
0
LINE
8
BLACK
6
CONTINUOUS
10
0.9725818503937008
20
0.8140323228346457
11
0.9751363385826771
21
0.8157392125984252
0
LINE
8
BLACK
6
CONTINUOUS
10
0.9751363385826771
20
0.8157392125984252
11
0.9781496062992125
21
0.8163385826771653
0
LINE
8
BLACK
6
CONTINUOUS
10
0.9781496062992125
20
0.8163385826771653
11
0.9938976377952755
21
0.8163385826771653
0
LINE
8
BLACK
6
CONTINUOUS
10
0.9938976377952755
20
0.8163385826771653
11
0.9969109055118111
21
0.8157392125984252
0
CIRCLE
8
BLACK
10
0.
20
1.2
40
0.0068897637795276
0
CIRCLE
8
BLACK
10
1.2
20
0.
40
0.0068897637795276
0
CIRCLE
8
BLACK
10
0.
20
0.
40
0.0068897637795276
0
CIRCLE
8
BLACK
10
1.2
20
1.2
40
0.0068897637795276
0
CIRCLE
8
BLACK
10
0.2897637795275591
20
1.1507874015748032
40
0.0068897637795276
0
CIRCLE
8
BLACK
10
0.2897637795275591
20
1.2507874015748031
40
0.0068897637795276
0
CIRCLE
8
BLACK
10
0.389763779527559
20
1.1507874015748032
40
0.0068897637795276
0
CIRCLE
8
BLACK
10
0.389763779527559
20
1.2507874015748031
40
0.0068897637795276
0
CIRCLE
8
BLACK
10
0.4897637795275591
20
1.1507874015748032
40
0.0068897637795276
0
CIRCLE
8
BLACK
10
0.4897637795275591
20
1.2507874015748031
40
0.0068897637795276
0
CIRCLE
8
BLACK
10
0.5897637795275591
20
1.1507874015748032
40
0.0068897637795276
0
CIRCLE
8
BLACK
10
0.5897637795275591
20
1.2507874015748031
40
0.0068897637795276
0
CIRCLE
8
BLACK
10
0.6897637795275591
20
1.1507874015748032
40
0.0068897637795276
0
CIRCLE
8
BLACK
10
0.6897637795275591
20
1.2507874015748031
40
0.0068897637795276
0
CIRCLE
8
BLACK
10
0.7897637795275591
20
1.1507874015748032
40
0.0068897637795276
0
CIRCLE
8
BLACK
10
0.7897637795275591
20
1.2507874015748031
40
0.0068897637795276
0
CIRCLE
8
BLACK
10
0.889763779527559
20
1.1507874015748032
40
0.0068897637795276
0
CIRCLE
8
BLACK
10
0.889763779527559
20
1.2507874015748031
40
0.0068897637795276
  0
ENDSEC
  0
EOF
