%TF.GenerationSoftware,KiCad,Pcbnew,9.0.7+1*%
%TF.CreationDate,2026-05-06T21:20:15+00:00*%
%TF.ProjectId,GLCD01,474c4344-3031-42e6-9b69-6361645f7063,rev?*%
%TF.SameCoordinates,Original*%
%TF.FileFunction,Copper,L2,Bot*%
%TF.FilePolarity,Positive*%
%FSLAX46Y46*%
G04 Gerber Fmt 4.6, Leading zero omitted, Abs format (unit mm)*
G04 Created by KiCad (PCBNEW 9.0.7+1) date 2026-05-06 21:20:15*
%MOMM*%
%LPD*%
G01*
G04 APERTURE LIST*
G04 Aperture macros list*
%AMRoundRect*
0 Rectangle with rounded corners*
0 $1 Rounding radius*
0 $2 $3 $4 $5 $6 $7 $8 $9 X,Y pos of 4 corners*
0 Add a 4 corners polygon primitive as box body*
4,1,4,$2,$3,$4,$5,$6,$7,$8,$9,$2,$3,0*
0 Add four circle primitives for the rounded corners*
1,1,$1+$1,$2,$3*
1,1,$1+$1,$4,$5*
1,1,$1+$1,$6,$7*
1,1,$1+$1,$8,$9*
0 Add four rect primitives between the rounded corners*
20,1,$1+$1,$2,$3,$4,$5,0*
20,1,$1+$1,$4,$5,$6,$7,0*
20,1,$1+$1,$6,$7,$8,$9,0*
20,1,$1+$1,$8,$9,$2,$3,0*%
G04 Aperture macros list end*
%TA.AperFunction,ComponentPad*%
%ADD10C,6.000000*%
%TD*%
%TA.AperFunction,ComponentPad*%
%ADD11R,1.524000X1.524000*%
%TD*%
%TA.AperFunction,SMDPad,CuDef*%
%ADD12RoundRect,0.200000X0.200000X0.275000X-0.200000X0.275000X-0.200000X-0.275000X0.200000X-0.275000X0*%
%TD*%
%TA.AperFunction,SMDPad,CuDef*%
%ADD13RoundRect,0.225000X0.250000X-0.225000X0.250000X0.225000X-0.250000X0.225000X-0.250000X-0.225000X0*%
%TD*%
%TA.AperFunction,SMDPad,CuDef*%
%ADD14RoundRect,0.225000X-0.250000X0.225000X-0.250000X-0.225000X0.250000X-0.225000X0.250000X0.225000X0*%
%TD*%
%TA.AperFunction,SMDPad,CuDef*%
%ADD15RoundRect,0.200000X-0.275000X0.200000X-0.275000X-0.200000X0.275000X-0.200000X0.275000X0.200000X0*%
%TD*%
%TA.AperFunction,SMDPad,CuDef*%
%ADD16RoundRect,0.225000X-0.225000X-0.250000X0.225000X-0.250000X0.225000X0.250000X-0.225000X0.250000X0*%
%TD*%
%TA.AperFunction,SMDPad,CuDef*%
%ADD17RoundRect,0.150000X-0.512500X-0.150000X0.512500X-0.150000X0.512500X0.150000X-0.512500X0.150000X0*%
%TD*%
%TA.AperFunction,SMDPad,CuDef*%
%ADD18R,0.250000X0.600000*%
%TD*%
%TA.AperFunction,SMDPad,CuDef*%
%ADD19R,0.400000X1.700000*%
%TD*%
%TA.AperFunction,SMDPad,CuDef*%
%ADD20RoundRect,0.150000X-0.150000X0.587500X-0.150000X-0.587500X0.150000X-0.587500X0.150000X0.587500X0*%
%TD*%
%TA.AperFunction,ViaPad*%
%ADD21C,0.800000*%
%TD*%
%TA.AperFunction,Conductor*%
%ADD22C,0.150000*%
%TD*%
%TA.AperFunction,Conductor*%
%ADD23C,0.250000*%
%TD*%
G04 APERTURE END LIST*
D10*
%TO.P,M2,1*%
%TO.N,GND*%
X0Y50230000D03*
%TD*%
%TO.P,M4,1*%
%TO.N,GND*%
X30480000Y80000D03*
%TD*%
%TO.P,M3,1*%
%TO.N,GND*%
X0Y80000D03*
%TD*%
%TO.P,M1,1*%
%TO.N,GND*%
X30480000Y50230000D03*
%TD*%
D11*
%TO.P,J1,1,2*%
%TO.N,+3.3V*%
X22600000Y51520000D03*
%TO.P,J1,2,2*%
X22600000Y48980000D03*
%TO.P,J1,3,4*%
%TO.N,Net-(J1-4-Pad3)*%
X20060000Y51520000D03*
%TO.P,J1,4,4*%
X20060000Y48980000D03*
%TO.P,J1,5,6*%
%TO.N,Net-(J1-6-Pad5)*%
X17520000Y51520000D03*
%TO.P,J1,6,6*%
X17520000Y48980000D03*
%TO.P,J1,7,8*%
%TO.N,Net-(J1-8-Pad7)*%
X14980000Y51520000D03*
%TO.P,J1,8,8*%
X14980000Y48980000D03*
%TO.P,J1,9,10*%
%TO.N,Net-(J1-10-Pad9)*%
X12440000Y51520000D03*
%TO.P,J1,10,10*%
X12440000Y48980000D03*
%TO.P,J1,11,12*%
%TO.N,Net-(J1-12-Pad11)*%
X9900000Y51520000D03*
%TO.P,J1,12,12*%
X9900000Y48980000D03*
%TO.P,J1,13,14*%
%TO.N,GND*%
X7360000Y51520000D03*
%TO.P,J1,14,14*%
X7360000Y48980000D03*
%TD*%
D12*
%TO.P,R3,1*%
%TO.N,Net-(J1-12-Pad11)*%
X9135000Y38790000D03*
%TO.P,R3,2*%
%TO.N,Net-(Q1-G)*%
X7485000Y38790000D03*
%TD*%
D13*
%TO.P,C2,1*%
%TO.N,Net-(U1-T{slash}T)*%
X3910000Y25115000D03*
%TO.P,C2,2*%
%TO.N,GND*%
X3910000Y26665000D03*
%TD*%
D14*
%TO.P,C4,1*%
%TO.N,+3.3V*%
X17670000Y13745000D03*
%TO.P,C4,2*%
%TO.N,GND*%
X17670000Y12195000D03*
%TD*%
D15*
%TO.P,R5,1*%
%TO.N,Net-(J1-12-Pad11)*%
X13910000Y26835000D03*
%TO.P,R5,2*%
%TO.N,Net-(U1-OUT)*%
X13910000Y25185000D03*
%TD*%
D16*
%TO.P,C3,1*%
%TO.N,+3.3V*%
X10670000Y29980000D03*
%TO.P,C3,2*%
%TO.N,GND*%
X12220000Y29980000D03*
%TD*%
D12*
%TO.P,R2,1*%
%TO.N,+3.3V*%
X11415000Y32700000D03*
%TO.P,R2,2*%
%TO.N,Net-(Q1-D)*%
X9765000Y32700000D03*
%TD*%
%TO.P,R4,1*%
%TO.N,Net-(Q1-G)*%
X6035000Y38790000D03*
%TO.P,R4,2*%
%TO.N,GND*%
X4385000Y38790000D03*
%TD*%
%TO.P,R1,1*%
%TO.N,Net-(U1-OUT)*%
X8250000Y25200000D03*
%TO.P,R1,2*%
%TO.N,Net-(U1-T{slash}T)*%
X6600000Y25200000D03*
%TD*%
D17*
%TO.P,U1,1,T/T*%
%TO.N,Net-(U1-T{slash}T)*%
X6422500Y28010000D03*
%TO.P,U1,2,GND*%
%TO.N,GND*%
X6422500Y28960000D03*
%TO.P,U1,3,CS*%
%TO.N,Net-(Q1-D)*%
X6422500Y29910000D03*
%TO.P,U1,4,VS*%
%TO.N,+3.3V*%
X8697500Y29910000D03*
%TO.P,U1,5,OUT*%
%TO.N,Net-(U1-OUT)*%
X8697500Y28010000D03*
%TD*%
D18*
%TO.P,J2,1,1*%
%TO.N,+3.3V*%
X17095000Y9370000D03*
%TO.P,J2,2,2*%
%TO.N,GND*%
X16695000Y9370000D03*
%TO.P,J2,3,3*%
%TO.N,Net-(J1-4-Pad3)*%
X16295000Y9370000D03*
%TO.P,J2,4,4*%
%TO.N,Net-(J1-6-Pad5)*%
X15895000Y9370000D03*
%TO.P,J2,5,5*%
%TO.N,Net-(J1-8-Pad7)*%
X15495000Y9370000D03*
%TO.P,J2,6,6*%
%TO.N,Net-(J1-10-Pad9)*%
X15095000Y9370000D03*
%TO.P,J2,7,7*%
%TO.N,GND*%
X14695000Y9370000D03*
%TO.P,J2,8,8*%
%TO.N,+3.3V*%
X14295000Y9370000D03*
%TO.P,J2,9,9*%
%TO.N,Net-(U1-OUT)*%
X13895000Y9370000D03*
%TO.P,J2,10,10*%
%TO.N,unconnected-(J2-Pad10)*%
X13495000Y9370000D03*
D19*
%TO.P,J2,MP1,MP1*%
%TO.N,unconnected-(J2-PadMP1)*%
X17720000Y8070000D03*
%TO.P,J2,MP2,MP2*%
%TO.N,unconnected-(J2-PadMP2)*%
X12870000Y8070000D03*
%TD*%
D20*
%TO.P,Q1,1,G*%
%TO.N,Net-(Q1-G)*%
X6130000Y36377500D03*
%TO.P,Q1,2,S*%
%TO.N,GND*%
X8030000Y36377500D03*
%TO.P,Q1,3,D*%
%TO.N,Net-(Q1-D)*%
X7080000Y34502500D03*
%TD*%
D21*
%TO.N,+3.3V*%
X11410000Y35720000D03*
X17680000Y35710000D03*
%TD*%
D22*
%TO.N,Net-(U1-T{slash}T)*%
X6422500Y25377500D02*
X6600000Y25200000D01*
X3910000Y25115000D02*
X6515000Y25115000D01*
X6422500Y28010000D02*
X6422500Y25377500D01*
X6515000Y25115000D02*
X6600000Y25200000D01*
%TO.N,GND*%
X11400000Y53420000D02*
X7530000Y53420000D01*
X16700000Y12195000D02*
X16695000Y12190000D01*
X14790000Y8710000D02*
X16612000Y8710000D01*
X14695000Y9370000D02*
X14695000Y8805000D01*
X7360000Y48980000D02*
X7360000Y43340000D01*
X20940000Y53420000D02*
X11400000Y53420000D01*
X21098000Y47942000D02*
X21200000Y48044000D01*
X16695000Y11220000D02*
X16695000Y12190000D01*
X16612000Y8710000D02*
X16695000Y8793000D01*
X14695000Y44495000D02*
X11210000Y47980000D01*
X7360000Y43340000D02*
X4385000Y40365000D01*
X4385000Y40365000D02*
X4385000Y38790000D01*
X7360000Y50240000D02*
X7360000Y48980000D01*
X11210000Y53230000D02*
X11400000Y53420000D01*
X12220000Y28940000D02*
X12220000Y29980000D01*
X14695000Y9370000D02*
X14695000Y44495000D01*
X3910000Y26665000D02*
X3910000Y28390000D01*
X4480000Y28960000D02*
X6422500Y28960000D01*
X7350000Y50230000D02*
X7360000Y50240000D01*
X16695000Y45575000D02*
X19062000Y47942000D01*
X14695000Y8805000D02*
X14790000Y8710000D01*
X7530000Y53420000D02*
X7340000Y53230000D01*
X17670000Y12195000D02*
X16700000Y12195000D01*
X6422500Y28960000D02*
X6442500Y28940000D01*
X21200000Y53160000D02*
X20940000Y53420000D01*
X16695000Y9370000D02*
X16695000Y11220000D01*
X11210000Y47980000D02*
X11210000Y53230000D01*
X19062000Y47942000D02*
X21098000Y47942000D01*
X16695000Y12190000D02*
X16695000Y45575000D01*
X7360000Y53210000D02*
X7360000Y51520000D01*
X7360000Y51520000D02*
X7360000Y50240000D01*
X21200000Y48044000D02*
X21200000Y53160000D01*
X3910000Y28390000D02*
X4480000Y28960000D01*
X16695000Y8793000D02*
X16695000Y9370000D01*
X7340000Y53230000D02*
X7360000Y53210000D01*
X6442500Y28940000D02*
X12220000Y28940000D01*
%TO.N,+3.3V*%
X22600000Y51520000D02*
X22600000Y48980000D01*
X18421000Y12994000D02*
X17670000Y13745000D01*
X14295000Y8625000D02*
X14570000Y8350000D01*
X17095000Y9370000D02*
X17095000Y10395000D01*
X8767500Y29980000D02*
X8697500Y29910000D01*
X17090000Y35120000D02*
X17680000Y35710000D01*
X19260000Y47420000D02*
X21240000Y47420000D01*
X17095000Y8696612D02*
X17095000Y9370000D01*
X11415000Y35445000D02*
X11415000Y34030000D01*
X17090000Y14460000D02*
X17090000Y35120000D01*
X21240000Y47420000D02*
X22600000Y48780000D01*
X18421000Y11721000D02*
X18421000Y12994000D01*
X11410000Y35450000D02*
X11415000Y35445000D01*
X11410000Y35720000D02*
X11410000Y35450000D01*
X11415000Y32185000D02*
X10670000Y31440000D01*
X17095000Y10395000D02*
X18421000Y11721000D01*
X16748388Y8350000D02*
X17095000Y8696612D01*
X17680000Y35710000D02*
X17090000Y36300000D01*
X14570000Y8350000D02*
X16748388Y8350000D01*
X14295000Y9370000D02*
X14295000Y8625000D01*
X11415000Y34030000D02*
X11415000Y32185000D01*
X17090000Y36300000D02*
X17090000Y45250000D01*
X10670000Y31440000D02*
X10670000Y29980000D01*
X17670000Y13880000D02*
X17090000Y14460000D01*
X17090000Y45250000D02*
X19260000Y47420000D01*
X22600000Y48780000D02*
X22600000Y48980000D01*
X10670000Y29980000D02*
X8767500Y29980000D01*
%TO.N,Net-(J1-12-Pad11)*%
X9135000Y38790000D02*
X14300000Y38790000D01*
X14310000Y28150000D02*
X14310000Y44260000D01*
X13910000Y26835000D02*
X13910000Y27750000D01*
X14300000Y38790000D02*
X14310000Y38780000D01*
X13910000Y44660000D02*
X9900000Y48670000D01*
X13910000Y27750000D02*
X14310000Y28150000D01*
X9900000Y48670000D02*
X9900000Y48980000D01*
X14310000Y44260000D02*
X13910000Y44660000D01*
X9900000Y51520000D02*
X9900000Y48980000D01*
%TO.N,Net-(J1-10-Pad9)*%
X12440000Y47470000D02*
X15095000Y44815000D01*
X12440000Y51520000D02*
X12440000Y48980000D01*
X15095000Y44815000D02*
X15095000Y9370000D01*
X12440000Y48980000D02*
X12440000Y47470000D01*
%TO.N,Net-(J1-8-Pad7)*%
X14980000Y45590000D02*
X14980000Y48980000D01*
X14980000Y51520000D02*
X14980000Y48980000D01*
X15495000Y45075000D02*
X14980000Y45590000D01*
X15495000Y9370000D02*
X15495000Y45075000D01*
%TO.N,Net-(J1-4-Pad3)*%
X16300000Y10040000D02*
X16295000Y10035000D01*
X20060000Y48980000D02*
X19440000Y48980000D01*
X19440000Y48980000D02*
X16300000Y45840000D01*
D23*
X20060000Y51520000D02*
X20060000Y48980000D01*
D22*
X16295000Y10035000D02*
X16295000Y9370000D01*
X16300000Y45840000D02*
X16300000Y10040000D01*
%TO.N,Net-(J1-6-Pad5)*%
X15895000Y46085000D02*
X15895000Y9370000D01*
X17520000Y48980000D02*
X17520000Y47710000D01*
X17520000Y47710000D02*
X15895000Y46085000D01*
D23*
X17520000Y51520000D02*
X17520000Y48980000D01*
D22*
%TO.N,Net-(Q1-D)*%
X7080000Y34502500D02*
X7080000Y32670000D01*
X7080000Y32670000D02*
X7080000Y30567500D01*
X7080000Y30567500D02*
X6422500Y29910000D01*
X7110000Y32700000D02*
X7080000Y32670000D01*
X9765000Y32700000D02*
X7110000Y32700000D01*
%TO.N,Net-(Q1-G)*%
X6035000Y36472500D02*
X6130000Y36377500D01*
X6035000Y38790000D02*
X6035000Y36472500D01*
X6035000Y38790000D02*
X7485000Y38790000D01*
%TO.N,Net-(U1-OUT)*%
X14290000Y24090000D02*
X14300000Y24100000D01*
X13895000Y9370000D02*
X13895000Y9825000D01*
X8697500Y28010000D02*
X8250000Y27562500D01*
X13910000Y25185000D02*
X13895000Y25200000D01*
X8250000Y27562500D02*
X8250000Y25200000D01*
X13910000Y24490000D02*
X13910000Y25185000D01*
X14290000Y10220000D02*
X14290000Y24090000D01*
X13895000Y9825000D02*
X14290000Y10220000D01*
X13895000Y25200000D02*
X8250000Y25200000D01*
X14300000Y24100000D02*
X13910000Y24490000D01*
X13895000Y25170000D02*
X13910000Y25185000D01*
%TD*%
%TA.AperFunction,Conductor*%
%TO.N,GND*%
G36*
X7610000Y49348928D02*
G01*
X7531571Y49394208D01*
X7418520Y49424500D01*
X7301480Y49424500D01*
X7188429Y49394208D01*
X7110000Y49348928D01*
X7110000Y51151073D01*
X7188429Y51105792D01*
X7301480Y51075500D01*
X7418520Y51075500D01*
X7531571Y51105792D01*
X7610000Y51151073D01*
X7610000Y49348928D01*
G37*
%TD.AperFunction*%
%TA.AperFunction,Conductor*%
G36*
X11257682Y50468853D02*
G01*
X11269263Y50455488D01*
X11314739Y50394739D01*
X11314740Y50394739D01*
X11314741Y50394737D01*
X11375482Y50349266D01*
X11417353Y50293332D01*
X11422337Y50223641D01*
X11388852Y50162319D01*
X11382577Y50156045D01*
X11314739Y50105261D01*
X11263955Y50037423D01*
X11257681Y50031148D01*
X11234486Y50018483D01*
X11213332Y50002647D01*
X11204302Y50002002D01*
X11196358Y49997663D01*
X11169999Y49999549D01*
X11143641Y49997663D01*
X11135696Y50002002D01*
X11126666Y50002647D01*
X11105509Y50018486D01*
X11082318Y50031149D01*
X11070734Y50044518D01*
X11025263Y50105259D01*
X11025261Y50105260D01*
X11025261Y50105261D01*
X10964516Y50150735D01*
X10922646Y50206667D01*
X10917662Y50276359D01*
X10951147Y50337682D01*
X10964516Y50349266D01*
X11025261Y50394739D01*
X11070734Y50455484D01*
X11126667Y50497354D01*
X11196359Y50502338D01*
X11257682Y50468853D01*
G37*
%TD.AperFunction*%
%TA.AperFunction,Conductor*%
G36*
X21417682Y50468853D02*
G01*
X21429263Y50455488D01*
X21474739Y50394739D01*
X21474740Y50394739D01*
X21474741Y50394737D01*
X21535482Y50349266D01*
X21577353Y50293332D01*
X21582337Y50223641D01*
X21548852Y50162319D01*
X21542577Y50156045D01*
X21474739Y50105261D01*
X21423955Y50037423D01*
X21417681Y50031148D01*
X21394486Y50018483D01*
X21373332Y50002647D01*
X21364302Y50002002D01*
X21356358Y49997663D01*
X21329999Y49999549D01*
X21303641Y49997663D01*
X21295696Y50002002D01*
X21286666Y50002647D01*
X21265509Y50018486D01*
X21242318Y50031149D01*
X21230734Y50044518D01*
X21185263Y50105259D01*
X21185261Y50105260D01*
X21185261Y50105261D01*
X21124516Y50150735D01*
X21082646Y50206667D01*
X21077662Y50276359D01*
X21111147Y50337682D01*
X21124516Y50349266D01*
X21185261Y50394739D01*
X21230734Y50455484D01*
X21286667Y50497354D01*
X21356359Y50502338D01*
X21417682Y50468853D01*
G37*
%TD.AperFunction*%
%TA.AperFunction,Conductor*%
G36*
X35592539Y55020315D02*
G01*
X35638294Y54967511D01*
X35649500Y54916000D01*
X35649500Y-4676000D01*
X35629815Y-4743039D01*
X35577011Y-4788794D01*
X35525500Y-4800000D01*
X-4688638Y-4800000D01*
X-4718079Y-4791355D01*
X-4748065Y-4784832D01*
X-4753081Y-4781077D01*
X-4755677Y-4780315D01*
X-4776319Y-4763681D01*
X-4779181Y-4760819D01*
X-4812666Y-4699496D01*
X-4815500Y-4673138D01*
X-4815500Y260005D01*
X8019990Y260005D01*
X8019990Y259996D01*
X8037970Y20050D01*
X8037971Y20045D01*
X8091514Y-214545D01*
X8091516Y-214554D01*
X8091518Y-214559D01*
X8179431Y-438557D01*
X8299747Y-646951D01*
X8420926Y-798905D01*
X8449782Y-835089D01*
X8521386Y-901527D01*
X8626175Y-998757D01*
X8824995Y-1134310D01*
X8825000Y-1134312D01*
X8825001Y-1134313D01*
X8825002Y-1134314D01*
X8894112Y-1167595D01*
X9041793Y-1238714D01*
X9041794Y-1238714D01*
X9041797Y-1238716D01*
X9271739Y-1309644D01*
X9271740Y-1309644D01*
X9271743Y-1309645D01*
X9509676Y-1345507D01*
X9509681Y-1345507D01*
X9509684Y-1345508D01*
X9625651Y-1345508D01*
X20891580Y-1345508D01*
X20894992Y-1345508D01*
X21015309Y-1345509D01*
X21081857Y-1335478D01*
X21253249Y-1309646D01*
X21253250Y-1309645D01*
X21253254Y-1309645D01*
X21483197Y-1238718D01*
X21700000Y-1134312D01*
X21898821Y-998759D01*
X22075218Y-835088D01*
X22225251Y-646953D01*
X22345568Y-438559D01*
X22433481Y-214560D01*
X22487027Y20040D01*
X22505010Y260000D01*
X22487027Y499960D01*
X22433481Y734560D01*
X22345568Y958559D01*
X22225251Y1166953D01*
X22075218Y1355088D01*
X21898821Y1518759D01*
X21700000Y1654312D01*
X21699992Y1654317D01*
X21483202Y1758716D01*
X21483183Y1758723D01*
X21253259Y1829644D01*
X21253249Y1829647D01*
X21015312Y1865509D01*
X21015309Y1865509D01*
X20894992Y1865508D01*
X9509676Y1865508D01*
X9271743Y1829646D01*
X9271737Y1829644D01*
X9041793Y1758715D01*
X8825002Y1654315D01*
X8825001Y1654314D01*
X8626174Y1518757D01*
X8449782Y1355090D01*
X8299747Y1166951D01*
X8179431Y958558D01*
X8091520Y734565D01*
X8091514Y734546D01*
X8037971Y499956D01*
X8037970Y499951D01*
X8019990Y260005D01*
X-4815500Y260005D01*
X-4815500Y25388880D01*
X2926500Y25388880D01*
X2926500Y24841121D01*
X2936764Y24740664D01*
X2990697Y24577902D01*
X2990702Y24577891D01*
X3080712Y24431964D01*
X3080715Y24431960D01*
X3201959Y24310716D01*
X3201963Y24310713D01*
X3347890Y24220703D01*
X3347893Y24220702D01*
X3347899Y24220698D01*
X3510664Y24166764D01*
X3611128Y24156500D01*
X3611133Y24156500D01*
X4208867Y24156500D01*
X4208872Y24156500D01*
X4309336Y24166764D01*
X4472101Y24220698D01*
X4618040Y24310715D01*
X4739285Y24431960D01*
X4764351Y24472597D01*
X4816299Y24519322D01*
X4869889Y24531500D01*
X5741256Y24531500D01*
X5808295Y24511815D01*
X5832501Y24489770D01*
X5832880Y24490148D01*
X5959841Y24363187D01*
X5959843Y24363186D01*
X5959845Y24363184D01*
X6107087Y24274173D01*
X6271351Y24222987D01*
X6342735Y24216500D01*
X6857264Y24216501D01*
X6857272Y24216501D01*
X6928645Y24222986D01*
X6928648Y24222987D01*
X6928649Y24222987D01*
X7092913Y24274173D01*
X7240155Y24363184D01*
X7240159Y24363188D01*
X7337319Y24460347D01*
X7398642Y24493832D01*
X7468334Y24488848D01*
X7512681Y24460347D01*
X7609841Y24363187D01*
X7609843Y24363186D01*
X7609845Y24363184D01*
X7757087Y24274173D01*
X7921351Y24222987D01*
X7992735Y24216500D01*
X8507264Y24216501D01*
X8507272Y24216501D01*
X8578645Y24222986D01*
X8578648Y24222987D01*
X8578649Y24222987D01*
X8742913Y24274173D01*
X8890155Y24363184D01*
X9011816Y24484845D01*
X9048087Y24544844D01*
X9055224Y24556650D01*
X9106752Y24603837D01*
X9161341Y24616500D01*
X12959930Y24616500D01*
X13026969Y24596815D01*
X13066046Y24556651D01*
X13073182Y24544847D01*
X13073184Y24544844D01*
X13194840Y24423188D01*
X13194844Y24423185D01*
X13194845Y24423184D01*
X13306041Y24355964D01*
X13353228Y24304438D01*
X13354429Y24301917D01*
X13358905Y24292243D01*
X13366265Y24264777D01*
X13390393Y24222987D01*
X13393191Y24218141D01*
X13393195Y24218132D01*
X13443079Y24131729D01*
X13443085Y24131721D01*
X13670181Y23904625D01*
X13703666Y23843302D01*
X13706500Y23816944D01*
X13706500Y10513057D01*
X13686815Y10446018D01*
X13670181Y10425376D01*
X13459624Y10214819D01*
X13398301Y10181334D01*
X13371943Y10178500D01*
X13321345Y10178500D01*
X13260797Y10171989D01*
X13260795Y10171989D01*
X13123795Y10120889D01*
X13006739Y10033261D01*
X12919111Y9916205D01*
X12868011Y9779205D01*
X12868011Y9779203D01*
X12861500Y9718655D01*
X12861500Y9552500D01*
X12841815Y9485461D01*
X12789011Y9439706D01*
X12737500Y9428500D01*
X12621345Y9428500D01*
X12560797Y9421989D01*
X12560795Y9421989D01*
X12423795Y9370889D01*
X12306739Y9283261D01*
X12219111Y9166205D01*
X12168011Y9029205D01*
X12168011Y9029203D01*
X12161500Y8968655D01*
X12161500Y7171346D01*
X12168011Y7110798D01*
X12168011Y7110796D01*
X12219111Y6973796D01*
X12306739Y6856739D01*
X12423796Y6769111D01*
X12560799Y6718011D01*
X12588050Y6715082D01*
X12621345Y6711501D01*
X12621362Y6711500D01*
X13118638Y6711500D01*
X13118654Y6711501D01*
X13145692Y6714409D01*
X13179201Y6718011D01*
X13316204Y6769111D01*
X13433261Y6856739D01*
X13520889Y6973796D01*
X13571989Y7110799D01*
X13575591Y7144308D01*
X13578499Y7171346D01*
X13578500Y7171363D01*
X13578500Y8236241D01*
X13598185Y8303280D01*
X13650989Y8349035D01*
X13720147Y8358979D01*
X13783703Y8329954D01*
X13809888Y8298239D01*
X13828081Y8266726D01*
X13828083Y8266723D01*
X13828084Y8266722D01*
X14211723Y7883084D01*
X14344778Y7806264D01*
X14493181Y7766500D01*
X14493183Y7766500D01*
X16825205Y7766500D01*
X16825207Y7766500D01*
X16855406Y7774592D01*
X16925255Y7772931D01*
X16983118Y7733769D01*
X17010623Y7669541D01*
X17011500Y7654818D01*
X17011500Y7171346D01*
X17018011Y7110798D01*
X17018011Y7110796D01*
X17069111Y6973796D01*
X17156739Y6856739D01*
X17273796Y6769111D01*
X17410799Y6718011D01*
X17438050Y6715082D01*
X17471345Y6711501D01*
X17471362Y6711500D01*
X17968638Y6711500D01*
X17968654Y6711501D01*
X17995692Y6714409D01*
X18029201Y6718011D01*
X18166204Y6769111D01*
X18283261Y6856739D01*
X18370889Y6973796D01*
X18421989Y7110799D01*
X18425591Y7144308D01*
X18428499Y7171346D01*
X18428500Y7171363D01*
X18428500Y8968638D01*
X18428499Y8968655D01*
X18425157Y8999730D01*
X18421989Y9029201D01*
X18370889Y9166204D01*
X18283261Y9283261D01*
X18166204Y9370889D01*
X18029203Y9421989D01*
X17968654Y9428500D01*
X17968638Y9428500D01*
X17852500Y9428500D01*
X17785461Y9448185D01*
X17739706Y9500989D01*
X17728500Y9552500D01*
X17728500Y9718638D01*
X17728499Y9718655D01*
X17721989Y9779202D01*
X17686318Y9874839D01*
X17685302Y9880470D01*
X17683523Y9883238D01*
X17678500Y9918173D01*
X17678500Y10101944D01*
X17698185Y10168983D01*
X17714819Y10189625D01*
X18038251Y10513057D01*
X18887916Y11362722D01*
X18926325Y11429250D01*
X18964735Y11495777D01*
X19004500Y11644181D01*
X19004500Y13070819D01*
X18964735Y13219223D01*
X18920119Y13296500D01*
X18887916Y13352278D01*
X18689819Y13550375D01*
X18656334Y13611698D01*
X18653500Y13638056D01*
X18653500Y14018867D01*
X18653499Y14018880D01*
X18643236Y14119336D01*
X18589302Y14282101D01*
X18589298Y14282107D01*
X18589297Y14282110D01*
X18499287Y14428037D01*
X18499284Y14428041D01*
X18378040Y14549285D01*
X18378036Y14549288D01*
X18232109Y14639298D01*
X18232103Y14639301D01*
X18232101Y14639302D01*
X18069336Y14693236D01*
X17968879Y14703500D01*
X17968872Y14703500D01*
X17797500Y14703500D01*
X17730461Y14723185D01*
X17684706Y14775989D01*
X17673500Y14827500D01*
X17673500Y34680645D01*
X17693185Y34747684D01*
X17745989Y34793439D01*
X17773299Y34802260D01*
X17945000Y34836413D01*
X18110336Y34904898D01*
X18259135Y35004322D01*
X18385678Y35130865D01*
X18485102Y35279664D01*
X18553587Y35445000D01*
X18588500Y35620521D01*
X18588500Y35799479D01*
X18553587Y35975000D01*
X18485102Y36140336D01*
X18485100Y36140339D01*
X18485098Y36140343D01*
X18385678Y36289135D01*
X18385675Y36289139D01*
X18259138Y36415676D01*
X18259134Y36415679D01*
X18110342Y36515099D01*
X18110332Y36515104D01*
X17945000Y36583587D01*
X17944992Y36583589D01*
X17773309Y36617739D01*
X17711398Y36650124D01*
X17676824Y36710839D01*
X17673500Y36739356D01*
X17673500Y44956944D01*
X17693185Y45023983D01*
X17709819Y45044625D01*
X19465375Y46800181D01*
X19526698Y46833666D01*
X19553056Y46836500D01*
X21316816Y46836500D01*
X21316819Y46836500D01*
X21465223Y46876265D01*
X21531750Y46914675D01*
X21598278Y46953084D01*
X22318375Y47673181D01*
X22379698Y47706666D01*
X22406056Y47709500D01*
X23410638Y47709500D01*
X23410654Y47709501D01*
X23437692Y47712409D01*
X23471201Y47716011D01*
X23476537Y47718001D01*
X23501886Y47727456D01*
X23608204Y47767111D01*
X23725261Y47854739D01*
X23812889Y47971796D01*
X23863989Y48108799D01*
X23867591Y48142308D01*
X23870499Y48169346D01*
X23870500Y48169363D01*
X23870500Y49790638D01*
X23870499Y49790655D01*
X23867157Y49821730D01*
X23863989Y49851201D01*
X23812889Y49988204D01*
X23725261Y50105261D01*
X23664516Y50150735D01*
X23622646Y50206667D01*
X23617662Y50276359D01*
X23651147Y50337682D01*
X23664516Y50349266D01*
X23725261Y50394739D01*
X23812889Y50511796D01*
X23863989Y50648799D01*
X23867591Y50682308D01*
X23870499Y50709346D01*
X23870500Y50709363D01*
X23870500Y52330638D01*
X23870499Y52330655D01*
X23867157Y52361730D01*
X23863989Y52391201D01*
X23812889Y52528204D01*
X23725261Y52645261D01*
X23608204Y52732889D01*
X23471203Y52783989D01*
X23410654Y52790500D01*
X23410638Y52790500D01*
X21789362Y52790500D01*
X21789345Y52790500D01*
X21728797Y52783989D01*
X21728795Y52783989D01*
X21591795Y52732889D01*
X21474736Y52645259D01*
X21429266Y52584518D01*
X21373332Y52542647D01*
X21303641Y52537663D01*
X21242318Y52571149D01*
X21230734Y52584518D01*
X21185263Y52645259D01*
X21185261Y52645260D01*
X21185261Y52645261D01*
X21068204Y52732889D01*
X20931203Y52783989D01*
X20870654Y52790500D01*
X20870638Y52790500D01*
X19249362Y52790500D01*
X19249345Y52790500D01*
X19188797Y52783989D01*
X19188795Y52783989D01*
X19051795Y52732889D01*
X18934736Y52645259D01*
X18889266Y52584518D01*
X18833332Y52542647D01*
X18763641Y52537663D01*
X18702318Y52571149D01*
X18690734Y52584518D01*
X18645263Y52645259D01*
X18645261Y52645260D01*
X18645261Y52645261D01*
X18528204Y52732889D01*
X18391203Y52783989D01*
X18330654Y52790500D01*
X18330638Y52790500D01*
X16709362Y52790500D01*
X16709345Y52790500D01*
X16648797Y52783989D01*
X16648795Y52783989D01*
X16511795Y52732889D01*
X16394736Y52645259D01*
X16349266Y52584518D01*
X16293332Y52542647D01*
X16223641Y52537663D01*
X16162318Y52571149D01*
X16150734Y52584518D01*
X16105263Y52645259D01*
X16105261Y52645260D01*
X16105261Y52645261D01*
X15988204Y52732889D01*
X15851203Y52783989D01*
X15790654Y52790500D01*
X15790638Y52790500D01*
X14169362Y52790500D01*
X14169345Y52790500D01*
X14108797Y52783989D01*
X14108795Y52783989D01*
X13971795Y52732889D01*
X13854736Y52645259D01*
X13809266Y52584518D01*
X13753332Y52542647D01*
X13683641Y52537663D01*
X13622318Y52571149D01*
X13610734Y52584518D01*
X13565263Y52645259D01*
X13565261Y52645260D01*
X13565261Y52645261D01*
X13448204Y52732889D01*
X13311203Y52783989D01*
X13250654Y52790500D01*
X13250638Y52790500D01*
X11629362Y52790500D01*
X11629345Y52790500D01*
X11568797Y52783989D01*
X11568795Y52783989D01*
X11431795Y52732889D01*
X11314736Y52645259D01*
X11269266Y52584518D01*
X11213332Y52542647D01*
X11143641Y52537663D01*
X11082318Y52571149D01*
X11070734Y52584518D01*
X11025263Y52645259D01*
X11025261Y52645260D01*
X11025261Y52645261D01*
X10908204Y52732889D01*
X10771203Y52783989D01*
X10710654Y52790500D01*
X10710638Y52790500D01*
X9089362Y52790500D01*
X9089345Y52790500D01*
X9028797Y52783989D01*
X9028795Y52783989D01*
X8891795Y52732889D01*
X8881726Y52725351D01*
X8774739Y52645261D01*
X8774738Y52645260D01*
X8774737Y52645259D01*
X8723957Y52577426D01*
X8668023Y52535555D01*
X8598332Y52530571D01*
X8537009Y52564057D01*
X8525424Y52577426D01*
X8479186Y52639191D01*
X8364093Y52725351D01*
X8364086Y52725355D01*
X8229379Y52775597D01*
X8229372Y52775599D01*
X8169844Y52782000D01*
X7610000Y52782000D01*
X7610000Y51888928D01*
X7531571Y51934208D01*
X7418520Y51964500D01*
X7301480Y51964500D01*
X7188429Y51934208D01*
X7110000Y51888928D01*
X7110000Y52782000D01*
X6550155Y52782000D01*
X6490627Y52775599D01*
X6490620Y52775597D01*
X6355913Y52725355D01*
X6355906Y52725351D01*
X6240812Y52639191D01*
X6240809Y52639188D01*
X6154649Y52524094D01*
X6154645Y52524087D01*
X6104403Y52389380D01*
X6104401Y52389373D01*
X6098000Y52329845D01*
X6098000Y51770000D01*
X6991073Y51770000D01*
X6945792Y51691571D01*
X6915500Y51578520D01*
X6915500Y51461480D01*
X6945792Y51348429D01*
X6991073Y51270000D01*
X6098000Y51270000D01*
X6098000Y50710156D01*
X6104401Y50650628D01*
X6104403Y50650621D01*
X6154645Y50515914D01*
X6154649Y50515907D01*
X6240809Y50400813D01*
X6309666Y50349266D01*
X6351536Y50293332D01*
X6356520Y50223641D01*
X6323034Y50162318D01*
X6309666Y50150734D01*
X6240809Y50099188D01*
X6154649Y49984094D01*
X6154645Y49984087D01*
X6104403Y49849380D01*
X6104401Y49849373D01*
X6098000Y49789845D01*
X6098000Y49230000D01*
X6991073Y49230000D01*
X6945792Y49151571D01*
X6915500Y49038520D01*
X6915500Y48921480D01*
X6945792Y48808429D01*
X6991073Y48730000D01*
X6098000Y48730000D01*
X6098000Y48170156D01*
X6104401Y48110628D01*
X6104403Y48110621D01*
X6154645Y47975914D01*
X6154649Y47975907D01*
X6240809Y47860813D01*
X6240812Y47860810D01*
X6355906Y47774650D01*
X6355913Y47774646D01*
X6490620Y47724404D01*
X6490627Y47724402D01*
X6550155Y47718001D01*
X6550172Y47718000D01*
X7110000Y47718000D01*
X7110000Y48611073D01*
X7188429Y48565792D01*
X7301480Y48535500D01*
X7418520Y48535500D01*
X7531571Y48565792D01*
X7610000Y48611073D01*
X7610000Y47718000D01*
X8169828Y47718000D01*
X8169844Y47718001D01*
X8229372Y47724402D01*
X8229379Y47724404D01*
X8364086Y47774646D01*
X8364093Y47774650D01*
X8479187Y47860810D01*
X8479188Y47860811D01*
X8525424Y47922574D01*
X8581357Y47964446D01*
X8651049Y47969430D01*
X8712372Y47935945D01*
X8723954Y47922580D01*
X8774739Y47854739D01*
X8891796Y47767111D01*
X8998114Y47727456D01*
X9023463Y47718001D01*
X9028799Y47716011D01*
X9056050Y47713082D01*
X9089345Y47709501D01*
X9089362Y47709500D01*
X9983944Y47709500D01*
X10050983Y47689815D01*
X10071625Y47673181D01*
X13690181Y44054625D01*
X13723666Y43993302D01*
X13726500Y43966944D01*
X13726500Y39497500D01*
X13706815Y39430461D01*
X13654011Y39384706D01*
X13602500Y39373500D01*
X10046341Y39373500D01*
X9979302Y39393185D01*
X9940224Y39433350D01*
X9896818Y39505152D01*
X9896817Y39505153D01*
X9896816Y39505155D01*
X9775155Y39626816D01*
X9627913Y39715827D01*
X9463649Y39767013D01*
X9463647Y39767014D01*
X9463645Y39767014D01*
X9413667Y39771556D01*
X9392265Y39773500D01*
X9392262Y39773500D01*
X8877727Y39773500D01*
X8806354Y39767015D01*
X8806344Y39767012D01*
X8642090Y39715829D01*
X8494841Y39626814D01*
X8494840Y39626813D01*
X8397681Y39529653D01*
X8336358Y39496168D01*
X8266666Y39501152D01*
X8222319Y39529653D01*
X8125158Y39626814D01*
X7977913Y39715827D01*
X7977907Y39715829D01*
X7813649Y39767013D01*
X7813647Y39767014D01*
X7813645Y39767014D01*
X7763667Y39771556D01*
X7742265Y39773500D01*
X7742262Y39773500D01*
X7227727Y39773500D01*
X7156354Y39767015D01*
X7156344Y39767012D01*
X6992090Y39715829D01*
X6844841Y39626814D01*
X6838936Y39622187D01*
X6837459Y39624072D01*
X6786358Y39596168D01*
X6716666Y39601152D01*
X6682025Y39623415D01*
X6681064Y39622187D01*
X6675158Y39626814D01*
X6527913Y39715827D01*
X6527907Y39715829D01*
X6363649Y39767013D01*
X6363647Y39767014D01*
X6363645Y39767014D01*
X6313667Y39771556D01*
X6292265Y39773500D01*
X6292262Y39773500D01*
X5777727Y39773500D01*
X5706354Y39767015D01*
X5706344Y39767012D01*
X5542090Y39715829D01*
X5394841Y39626814D01*
X5394840Y39626813D01*
X5291670Y39523642D01*
X5230347Y39490157D01*
X5160655Y39495141D01*
X5116308Y39523642D01*
X5019877Y39620073D01*
X4874395Y39708020D01*
X4874396Y39708020D01*
X4712105Y39758591D01*
X4712106Y39758591D01*
X4641572Y39765000D01*
X4635000Y39765000D01*
X4635000Y37815001D01*
X4641581Y37815001D01*
X4712102Y37821409D01*
X4712107Y37821410D01*
X4874396Y37871982D01*
X5019877Y37959928D01*
X5019878Y37959929D01*
X5116306Y38056358D01*
X5123387Y38060225D01*
X5128122Y38066762D01*
X5153612Y38076730D01*
X5177629Y38089844D01*
X5185678Y38089269D01*
X5193194Y38092207D01*
X5220022Y38086813D01*
X5247320Y38084860D01*
X5255536Y38079671D01*
X5261692Y38078433D01*
X5286983Y38059810D01*
X5290277Y38057730D01*
X5290985Y38057044D01*
X5394845Y37953184D01*
X5403688Y37947838D01*
X5413789Y37938051D01*
X5424352Y37919410D01*
X5438825Y37903613D01*
X5442654Y37887113D01*
X5448236Y37877263D01*
X5447598Y37865812D01*
X5451500Y37848999D01*
X5451500Y37398887D01*
X5434232Y37335766D01*
X5370855Y37228602D01*
X5370853Y37228597D01*
X5324438Y37068836D01*
X5324437Y37068830D01*
X5321500Y37031508D01*
X5321500Y35723493D01*
X5324437Y35686171D01*
X5324438Y35686165D01*
X5370853Y35526404D01*
X5370855Y35526399D01*
X5455544Y35383197D01*
X5455551Y35383188D01*
X5573187Y35265552D01*
X5573191Y35265549D01*
X5573193Y35265547D01*
X5716399Y35180855D01*
X5758530Y35168615D01*
X5876164Y35134439D01*
X5876167Y35134439D01*
X5876169Y35134438D01*
X5913498Y35131500D01*
X6147500Y35131500D01*
X6214539Y35111815D01*
X6260294Y35059011D01*
X6271500Y35007500D01*
X6271500Y33848493D01*
X6274437Y33811171D01*
X6274438Y33811165D01*
X6320853Y33651404D01*
X6320855Y33651399D01*
X6405544Y33508197D01*
X6405546Y33508194D01*
X6405547Y33508193D01*
X6460182Y33453558D01*
X6493666Y33392237D01*
X6496500Y33365878D01*
X6496500Y30860556D01*
X6487855Y30831116D01*
X6481332Y30801129D01*
X6477577Y30796114D01*
X6476815Y30793517D01*
X6460181Y30772875D01*
X6442125Y30754819D01*
X6380802Y30721334D01*
X6354444Y30718500D01*
X5843492Y30718500D01*
X5806170Y30715563D01*
X5806164Y30715562D01*
X5646403Y30669147D01*
X5646398Y30669145D01*
X5503196Y30584456D01*
X5503187Y30584449D01*
X5385551Y30466813D01*
X5385544Y30466804D01*
X5300855Y30323602D01*
X5300853Y30323597D01*
X5254438Y30163836D01*
X5254437Y30163830D01*
X5251500Y30126508D01*
X5251500Y29693493D01*
X5254437Y29656171D01*
X5254438Y29656165D01*
X5300853Y29496404D01*
X5300854Y29496402D01*
X5300855Y29496399D01*
X5304776Y29489769D01*
X5321956Y29422045D01*
X5309435Y29378387D01*
X5311816Y29377356D01*
X5308716Y29370194D01*
X5262900Y29212495D01*
X5262899Y29212489D01*
X5262704Y29210002D01*
X5262705Y29210000D01*
X5512469Y29210000D01*
X5575587Y29192734D01*
X5646399Y29150855D01*
X5646401Y29150855D01*
X5646402Y29150854D01*
X5806164Y29104439D01*
X5806167Y29104439D01*
X5806169Y29104438D01*
X5843498Y29101500D01*
X5843504Y29101500D01*
X7001496Y29101500D01*
X7001502Y29101500D01*
X7038831Y29104438D01*
X7038833Y29104439D01*
X7038835Y29104439D01*
X7080962Y29116679D01*
X7198601Y29150855D01*
X7269412Y29192734D01*
X7332531Y29210000D01*
X7582295Y29210000D01*
X7601124Y29230369D01*
X7661086Y29266235D01*
X7730919Y29263990D01*
X7771170Y29239226D01*
X7772027Y29240330D01*
X7778196Y29235545D01*
X7829165Y29205402D01*
X7921399Y29150855D01*
X7921881Y29150715D01*
X8081164Y29104439D01*
X8081167Y29104439D01*
X8081169Y29104438D01*
X8118498Y29101500D01*
X8118504Y29101500D01*
X9276496Y29101500D01*
X9276502Y29101500D01*
X9313831Y29104438D01*
X9313833Y29104439D01*
X9313835Y29104439D01*
X9355962Y29116679D01*
X9473601Y29150855D01*
X9616807Y29235547D01*
X9673759Y29292500D01*
X9735080Y29325983D01*
X9804772Y29320999D01*
X9860706Y29279128D01*
X9864778Y29273145D01*
X9865715Y29271960D01*
X9986959Y29150716D01*
X9986963Y29150713D01*
X10132890Y29060703D01*
X10132893Y29060702D01*
X10132899Y29060698D01*
X10295664Y29006764D01*
X10396128Y28996500D01*
X10396133Y28996500D01*
X10943867Y28996500D01*
X10943872Y28996500D01*
X11044336Y29006764D01*
X11207101Y29060698D01*
X11353040Y29150715D01*
X11363329Y29161004D01*
X11424652Y29194489D01*
X11494344Y29189505D01*
X11538691Y29161004D01*
X11542267Y29157428D01*
X11542271Y29157425D01*
X11686507Y29068458D01*
X11686518Y29068453D01*
X11847393Y29015145D01*
X11946683Y29005001D01*
X12470000Y29005001D01*
X12493308Y29005001D01*
X12493322Y29005002D01*
X12592607Y29015145D01*
X12753481Y29068453D01*
X12753492Y29068458D01*
X12897728Y29157425D01*
X12897732Y29157428D01*
X13017572Y29277268D01*
X13017575Y29277272D01*
X13106542Y29421508D01*
X13106547Y29421519D01*
X13159855Y29582394D01*
X13169999Y29681678D01*
X13170000Y29681691D01*
X13170000Y29730000D01*
X12470000Y29730000D01*
X12470000Y29005001D01*
X11946683Y29005001D01*
X11970000Y29005002D01*
X11970000Y30230000D01*
X12470000Y30230000D01*
X13169999Y30230000D01*
X13169999Y30278308D01*
X13169998Y30278323D01*
X13159855Y30377608D01*
X13106547Y30538482D01*
X13106542Y30538493D01*
X13017575Y30682729D01*
X13017572Y30682733D01*
X12897732Y30802573D01*
X12897728Y30802576D01*
X12753492Y30891543D01*
X12753481Y30891548D01*
X12592606Y30944856D01*
X12493322Y30955000D01*
X12470000Y30955000D01*
X12470000Y30230000D01*
X11970000Y30230000D01*
X11970000Y30955001D01*
X11946693Y30955000D01*
X11946674Y30954999D01*
X11847392Y30944856D01*
X11686518Y30891548D01*
X11686507Y30891543D01*
X11542271Y30802576D01*
X11542264Y30802571D01*
X11538686Y30798992D01*
X11477361Y30765510D01*
X11407670Y30770499D01*
X11378300Y30786233D01*
X11370303Y30792022D01*
X11353040Y30809285D01*
X11308512Y30836751D01*
X11304790Y30839445D01*
X11286100Y30863595D01*
X11265677Y30886302D01*
X11264492Y30891516D01*
X11262028Y30894700D01*
X11260934Y30907171D01*
X11253500Y30939890D01*
X11253500Y31146945D01*
X11273185Y31213984D01*
X11289815Y31234622D01*
X11772201Y31717009D01*
X11822988Y31747711D01*
X11907913Y31774173D01*
X12055155Y31863184D01*
X12176816Y31984845D01*
X12265827Y32132087D01*
X12317013Y32296351D01*
X12323500Y32367735D01*
X12323499Y33032264D01*
X12323499Y33032273D01*
X12317014Y33103646D01*
X12317011Y33103656D01*
X12265828Y33267910D01*
X12265827Y33267911D01*
X12265827Y33267913D01*
X12176816Y33415155D01*
X12176814Y33415157D01*
X12176813Y33415159D01*
X12055158Y33536814D01*
X12049252Y33541441D01*
X12050677Y33543261D01*
X12011157Y33586423D01*
X11998500Y33641002D01*
X11998500Y34972325D01*
X12018185Y35039364D01*
X12034814Y35060002D01*
X12115678Y35140865D01*
X12215102Y35289664D01*
X12283587Y35455000D01*
X12318500Y35630521D01*
X12318500Y35809479D01*
X12283587Y35985000D01*
X12215102Y36150336D01*
X12215100Y36150339D01*
X12215098Y36150343D01*
X12115678Y36299135D01*
X12115675Y36299139D01*
X11989138Y36425676D01*
X11989134Y36425679D01*
X11840342Y36525099D01*
X11840332Y36525104D01*
X11675000Y36593587D01*
X11674992Y36593589D01*
X11499483Y36628500D01*
X11499479Y36628500D01*
X11320521Y36628500D01*
X11320516Y36628500D01*
X11145007Y36593589D01*
X11144999Y36593587D01*
X10979667Y36525104D01*
X10979657Y36525099D01*
X10830865Y36425679D01*
X10830861Y36425676D01*
X10704324Y36299139D01*
X10704321Y36299135D01*
X10604901Y36150343D01*
X10604896Y36150333D01*
X10536413Y35985001D01*
X10536411Y35984993D01*
X10501500Y35809484D01*
X10501500Y35630517D01*
X10536411Y35455008D01*
X10536413Y35455000D01*
X10604896Y35289668D01*
X10604901Y35289658D01*
X10704321Y35140866D01*
X10704324Y35140862D01*
X10795181Y35050005D01*
X10828666Y34988682D01*
X10831500Y34962324D01*
X10831500Y33641002D01*
X10811815Y33573963D01*
X10793716Y33551880D01*
X10783640Y33542134D01*
X10774845Y33536816D01*
X10676982Y33438954D01*
X10676216Y33438212D01*
X10646162Y33422443D01*
X10616358Y33406168D01*
X10615291Y33406245D01*
X10614346Y33405748D01*
X10580532Y33408731D01*
X10546666Y33411152D01*
X10545647Y33411807D01*
X10544747Y33411886D01*
X10540967Y33414815D01*
X10502319Y33439653D01*
X10405158Y33536814D01*
X10394493Y33543261D01*
X10257913Y33625827D01*
X10093649Y33677013D01*
X10093647Y33677014D01*
X10093645Y33677014D01*
X10043667Y33681556D01*
X10022265Y33683500D01*
X10022262Y33683500D01*
X9507727Y33683500D01*
X9436354Y33677015D01*
X9436344Y33677012D01*
X9272090Y33625829D01*
X9124843Y33536815D01*
X9003181Y33415152D01*
X8959776Y33343350D01*
X8908248Y33296163D01*
X8853659Y33283500D01*
X7829123Y33283500D01*
X7762084Y33303185D01*
X7716329Y33355989D01*
X7706385Y33425147D01*
X7735410Y33488703D01*
X7741442Y33495181D01*
X7754448Y33508188D01*
X7754453Y33508193D01*
X7839145Y33651399D01*
X7885562Y33811169D01*
X7888500Y33848498D01*
X7888500Y35142705D01*
X8280000Y35142705D01*
X8280001Y35142705D01*
X8282486Y35142900D01*
X8440198Y35188719D01*
X8581552Y35272315D01*
X8581561Y35272322D01*
X8697678Y35388439D01*
X8697685Y35388448D01*
X8781282Y35529804D01*
X8781283Y35529807D01*
X8827099Y35687505D01*
X8827100Y35687511D01*
X8829999Y35724351D01*
X8830000Y35724366D01*
X8830000Y36127500D01*
X8280000Y36127500D01*
X8280000Y35142705D01*
X7888500Y35142705D01*
X7888500Y35156502D01*
X7885562Y35193831D01*
X7864727Y35265545D01*
X7839146Y35353597D01*
X7839145Y35353601D01*
X7837696Y35356051D01*
X7797268Y35424413D01*
X7780000Y35487533D01*
X7780000Y36127500D01*
X7230000Y36127500D01*
X7230000Y35872500D01*
X7227449Y35863815D01*
X7228738Y35854853D01*
X7217759Y35830813D01*
X7210315Y35805461D01*
X7203474Y35799534D01*
X7199713Y35791297D01*
X7177478Y35777008D01*
X7157511Y35759706D01*
X7146996Y35757419D01*
X7140935Y35753523D01*
X7106000Y35748500D01*
X7062500Y35748500D01*
X6995461Y35768185D01*
X6949706Y35820989D01*
X6938500Y35872500D01*
X6938500Y37031496D01*
X6938500Y37031502D01*
X6935562Y37068831D01*
X6889145Y37228601D01*
X6804453Y37371807D01*
X6804451Y37371809D01*
X6804448Y37371813D01*
X6686812Y37489449D01*
X6686808Y37489452D01*
X6686807Y37489453D01*
X6686804Y37489455D01*
X6686801Y37489457D01*
X6679374Y37493850D01*
X6671625Y37502149D01*
X6661297Y37506866D01*
X6648210Y37527230D01*
X6631693Y37544921D01*
X6628684Y37557613D01*
X6623523Y37565644D01*
X6618500Y37600579D01*
X6618500Y37848999D01*
X6638185Y37916038D01*
X6670269Y37947248D01*
X6669246Y37948554D01*
X6681054Y37957806D01*
X6682531Y37955920D01*
X6687076Y37958403D01*
X6690989Y37961793D01*
X6694101Y37962241D01*
X6733616Y37983828D01*
X6803309Y37978858D01*
X6837973Y37956585D01*
X6838936Y37957813D01*
X6844841Y37953187D01*
X6844843Y37953186D01*
X6844845Y37953184D01*
X6992087Y37864173D01*
X7156351Y37812987D01*
X7227735Y37806500D01*
X7576141Y37806501D01*
X7643179Y37786817D01*
X7688934Y37734013D01*
X7698878Y37664854D01*
X7669853Y37601299D01*
X7625395Y37568703D01*
X7619804Y37566284D01*
X7478447Y37482686D01*
X7478438Y37482679D01*
X7362321Y37366562D01*
X7362314Y37366553D01*
X7278717Y37225197D01*
X7278716Y37225194D01*
X7232900Y37067496D01*
X7232899Y37067490D01*
X7230000Y37030650D01*
X7230000Y36627500D01*
X7780000Y36627500D01*
X8280000Y36627500D01*
X8830000Y36627500D01*
X8830000Y37030635D01*
X8829999Y37030650D01*
X8827100Y37067490D01*
X8827099Y37067496D01*
X8781283Y37225194D01*
X8781282Y37225197D01*
X8697685Y37366553D01*
X8697678Y37366562D01*
X8581561Y37482679D01*
X8581552Y37482686D01*
X8440196Y37566283D01*
X8440193Y37566284D01*
X8282494Y37612100D01*
X8282497Y37612100D01*
X8280000Y37612297D01*
X8280000Y36627500D01*
X7780000Y36627500D01*
X7780000Y37615034D01*
X7747784Y37668867D01*
X7750015Y37738701D01*
X7789647Y37796243D01*
X7830926Y37818370D01*
X7977910Y37864172D01*
X7977910Y37864173D01*
X7977913Y37864173D01*
X8125155Y37953184D01*
X8155799Y37983828D01*
X8222319Y38050347D01*
X8283642Y38083832D01*
X8353334Y38078848D01*
X8397681Y38050347D01*
X8494841Y37953187D01*
X8494843Y37953186D01*
X8494845Y37953184D01*
X8642087Y37864173D01*
X8806351Y37812987D01*
X8877735Y37806500D01*
X9392264Y37806501D01*
X9392272Y37806501D01*
X9463645Y37812986D01*
X9463648Y37812987D01*
X9463649Y37812987D01*
X9627913Y37864173D01*
X9775155Y37953184D01*
X9896816Y38074845D01*
X9940224Y38146650D01*
X9991752Y38193837D01*
X10046341Y38206500D01*
X13602500Y38206500D01*
X13669539Y38186815D01*
X13715294Y38134011D01*
X13726500Y38082500D01*
X13726500Y28443056D01*
X13706815Y28376017D01*
X13690181Y28355375D01*
X13443086Y28108281D01*
X13443082Y28108275D01*
X13404674Y28041750D01*
X13366266Y27975226D01*
X13366265Y27975225D01*
X13346382Y27901021D01*
X13326500Y27826819D01*
X13326500Y27826817D01*
X13326500Y27746341D01*
X13306815Y27679302D01*
X13266651Y27640225D01*
X13194844Y27596816D01*
X13194840Y27596813D01*
X13073186Y27475159D01*
X12984173Y27327914D01*
X12932986Y27163646D01*
X12926500Y27092263D01*
X12926500Y26577728D01*
X12932985Y26506355D01*
X12932988Y26506345D01*
X12984171Y26342091D01*
X13073186Y26194842D01*
X13170347Y26097681D01*
X13174684Y26089738D01*
X13181930Y26084314D01*
X13191167Y26059552D01*
X13203832Y26036358D01*
X13203186Y26027332D01*
X13206350Y26018851D01*
X13200733Y25993025D01*
X13198848Y25966666D01*
X13193031Y25957616D01*
X13191501Y25950577D01*
X13170355Y25922330D01*
X13170351Y25922322D01*
X13073184Y25825155D01*
X13073172Y25825136D01*
X13067859Y25819822D01*
X13043583Y25806566D01*
X13021105Y25790450D01*
X13010899Y25788718D01*
X13006537Y25786335D01*
X12999734Y25786822D01*
X12980174Y25783500D01*
X9161341Y25783500D01*
X9094302Y25803185D01*
X9055224Y25843350D01*
X9011818Y25915152D01*
X9011817Y25915153D01*
X9011816Y25915155D01*
X8890155Y26036816D01*
X8890154Y26036817D01*
X8890153Y26036818D01*
X8884252Y26041441D01*
X8885677Y26043261D01*
X8846157Y26086423D01*
X8833500Y26141002D01*
X8833500Y27077500D01*
X8853185Y27144539D01*
X8905989Y27190294D01*
X8957500Y27201500D01*
X9276496Y27201500D01*
X9276502Y27201500D01*
X9313831Y27204438D01*
X9313833Y27204439D01*
X9313835Y27204439D01*
X9370408Y27220875D01*
X9473601Y27250855D01*
X9616807Y27335547D01*
X9734453Y27453193D01*
X9819145Y27596399D01*
X9865562Y27756169D01*
X9868500Y27793498D01*
X9868500Y28226502D01*
X9865562Y28263831D01*
X9819145Y28423601D01*
X9734453Y28566807D01*
X9734451Y28566809D01*
X9734448Y28566813D01*
X9616812Y28684449D01*
X9616803Y28684456D01*
X9473601Y28769145D01*
X9473596Y28769147D01*
X9313835Y28815562D01*
X9313829Y28815563D01*
X9276507Y28818500D01*
X9276502Y28818500D01*
X8118498Y28818500D01*
X8118492Y28818500D01*
X8081170Y28815563D01*
X8081164Y28815562D01*
X7921403Y28769147D01*
X7921398Y28769145D01*
X7778196Y28684456D01*
X7772027Y28679670D01*
X7770844Y28681195D01*
X7718522Y28652634D01*
X7648831Y28657628D01*
X7601125Y28689632D01*
X7582297Y28710000D01*
X7332531Y28710000D01*
X7269412Y28727267D01*
X7198601Y28769145D01*
X7198599Y28769146D01*
X7198597Y28769147D01*
X7038835Y28815562D01*
X7038829Y28815563D01*
X7001507Y28818500D01*
X7001502Y28818500D01*
X5843498Y28818500D01*
X5843492Y28818500D01*
X5806170Y28815563D01*
X5806164Y28815562D01*
X5646403Y28769147D01*
X5646402Y28769147D01*
X5646399Y28769145D01*
X5575587Y28727267D01*
X5512469Y28710000D01*
X5262705Y28710000D01*
X5262704Y28709999D01*
X5262899Y28707514D01*
X5308719Y28549799D01*
X5311816Y28542643D01*
X5308691Y28541291D01*
X5321941Y28488338D01*
X5304776Y28430233D01*
X5300856Y28423602D01*
X5300854Y28423599D01*
X5300853Y28423597D01*
X5254438Y28263836D01*
X5254437Y28263830D01*
X5251500Y28226508D01*
X5251500Y27793493D01*
X5254437Y27756171D01*
X5254438Y27756165D01*
X5300853Y27596404D01*
X5300855Y27596399D01*
X5385544Y27453197D01*
X5385551Y27453188D01*
X5503187Y27335552D01*
X5503196Y27335545D01*
X5516101Y27327913D01*
X5646399Y27250855D01*
X5749595Y27220874D01*
X5808480Y27183268D01*
X5837687Y27119796D01*
X5839000Y27101798D01*
X5839000Y25951072D01*
X5834520Y25934917D01*
X5834979Y25919749D01*
X5821395Y25887581D01*
X5821293Y25887216D01*
X5749173Y25767913D01*
X5748687Y25766356D01*
X5744055Y25758644D01*
X5723529Y25739743D01*
X5705372Y25718554D01*
X5698180Y25716400D01*
X5692658Y25711314D01*
X5665171Y25706511D01*
X5638442Y25698502D01*
X5637761Y25698500D01*
X4869889Y25698500D01*
X4802850Y25718185D01*
X4764351Y25757403D01*
X4739285Y25798040D01*
X4739283Y25798043D01*
X4728996Y25808330D01*
X4695511Y25869653D01*
X4700495Y25939345D01*
X4729001Y25983697D01*
X4732574Y25987271D01*
X4732575Y25987272D01*
X4821542Y26131508D01*
X4821547Y26131519D01*
X4874855Y26292394D01*
X4884999Y26391678D01*
X4885000Y26391691D01*
X4885000Y26415000D01*
X2935001Y26415000D01*
X2935001Y26391678D01*
X2945144Y26292393D01*
X2998452Y26131519D01*
X2998457Y26131508D01*
X3087424Y25987272D01*
X3087427Y25987268D01*
X3091004Y25983691D01*
X3124489Y25922368D01*
X3119505Y25852676D01*
X3091004Y25808329D01*
X3080715Y25798041D01*
X3080712Y25798037D01*
X2990702Y25652110D01*
X2990697Y25652099D01*
X2936764Y25489337D01*
X2926500Y25388880D01*
X-4815500Y25388880D01*
X-4815500Y26938323D01*
X2935000Y26938323D01*
X2935000Y26915000D01*
X3660000Y26915000D01*
X4160000Y26915000D01*
X4884999Y26915000D01*
X4884999Y26938308D01*
X4884998Y26938323D01*
X4874855Y27037608D01*
X4821547Y27198482D01*
X4821542Y27198493D01*
X4732575Y27342729D01*
X4732572Y27342733D01*
X4612732Y27462573D01*
X4612728Y27462576D01*
X4468492Y27551543D01*
X4468481Y27551548D01*
X4307606Y27604856D01*
X4208322Y27615000D01*
X4160000Y27615000D01*
X4160000Y26915000D01*
X3660000Y26915000D01*
X3660000Y27615000D01*
X3659999Y27615001D01*
X3611693Y27615000D01*
X3611675Y27614999D01*
X3512392Y27604856D01*
X3351518Y27551548D01*
X3351507Y27551543D01*
X3207271Y27462576D01*
X3207267Y27462573D01*
X3087427Y27342733D01*
X3087424Y27342729D01*
X2998457Y27198493D01*
X2998452Y27198482D01*
X2945144Y27037607D01*
X2935000Y26938323D01*
X-4815500Y26938323D01*
X-4815500Y38458418D01*
X3485001Y38458418D01*
X3491408Y38387898D01*
X3491409Y38387893D01*
X3541981Y38225604D01*
X3629927Y38080123D01*
X3750122Y37959928D01*
X3895604Y37871981D01*
X3895603Y37871981D01*
X4057894Y37821410D01*
X4057893Y37821410D01*
X4128408Y37815002D01*
X4128426Y37815001D01*
X4134999Y37815002D01*
X4135000Y37815002D01*
X4135000Y38540000D01*
X3485001Y38540000D01*
X3485001Y38458418D01*
X-4815500Y38458418D01*
X-4815500Y39121573D01*
X3485000Y39121573D01*
X3485000Y39040000D01*
X4135000Y39040000D01*
X4135000Y39765000D01*
X4134999Y39765001D01*
X4128436Y39765000D01*
X4128417Y39764999D01*
X4057897Y39758592D01*
X4057892Y39758591D01*
X3895603Y39708019D01*
X3750122Y39620073D01*
X3629927Y39499878D01*
X3541980Y39354396D01*
X3491409Y39192107D01*
X3485000Y39121573D01*
X-4815500Y39121573D01*
X-4815500Y54916000D01*
X-4795815Y54983039D01*
X-4743011Y55028794D01*
X-4691500Y55040000D01*
X35525500Y55040000D01*
X35592539Y55020315D01*
G37*
%TD.AperFunction*%
%TD*%
M02*
