%TF.GenerationSoftware,KiCad,Pcbnew,10.0.1-10.0.1~ubuntu25.10.1*%
%TF.CreationDate,2026-05-16T01:48:02+00:00*%
%TF.ProjectId,GLCD01,474c4344-3031-42e6-9b69-6361645f7063,rev?*%
%TF.SameCoordinates,Original*%
%TF.FileFunction,Paste,Bot*%
%TF.FilePolarity,Positive*%
%FSLAX46Y46*%
G04 Gerber Fmt 4.6, Leading zero omitted, Abs format (unit mm)*
G04 Created by KiCad (PCBNEW 10.0.1-10.0.1~ubuntu25.10.1) date 2026-05-16 01:48:02*
%MOMM*%
%LPD*%
G01*
G04 APERTURE LIST*
G04 Aperture macros list*
%AMRoundRect*
0 Rectangle with rounded corners*
0 $1 Rounding radius*
0 $2 $3 $4 $5 $6 $7 $8 $9 X,Y pos of 4 corners*
0 Add a 4 corners polygon primitive as box body*
4,1,4,$2,$3,$4,$5,$6,$7,$8,$9,$2,$3,0*
0 Add four circle primitives for the rounded corners*
1,1,$1+$1,$2,$3*
1,1,$1+$1,$4,$5*
1,1,$1+$1,$6,$7*
1,1,$1+$1,$8,$9*
0 Add four rect primitives between the rounded corners*
20,1,$1+$1,$2,$3,$4,$5,0*
20,1,$1+$1,$4,$5,$6,$7,0*
20,1,$1+$1,$6,$7,$8,$9,0*
20,1,$1+$1,$8,$9,$2,$3,0*%
G04 Aperture macros list end*
%ADD10RoundRect,0.200000X0.200000X0.275000X-0.200000X0.275000X-0.200000X-0.275000X0.200000X-0.275000X0*%
%ADD11RoundRect,0.225000X0.250000X-0.225000X0.250000X0.225000X-0.250000X0.225000X-0.250000X-0.225000X0*%
%ADD12RoundRect,0.250000X-0.300000X-0.300000X0.300000X-0.300000X0.300000X0.300000X-0.300000X0.300000X0*%
%ADD13RoundRect,0.225000X-0.335876X-0.017678X-0.017678X-0.335876X0.335876X0.017678X0.017678X0.335876X0*%
%ADD14RoundRect,0.225000X-0.225000X-0.250000X0.225000X-0.250000X0.225000X0.250000X-0.225000X0.250000X0*%
%ADD15RoundRect,0.200000X-0.200000X-0.275000X0.200000X-0.275000X0.200000X0.275000X-0.200000X0.275000X0*%
%ADD16RoundRect,0.150000X-0.512500X-0.150000X0.512500X-0.150000X0.512500X0.150000X-0.512500X0.150000X0*%
%ADD17R,0.250000X0.600000*%
%ADD18R,0.400000X1.700000*%
%ADD19RoundRect,0.150000X-0.150000X0.587500X-0.150000X-0.587500X0.150000X-0.587500X0.150000X0.587500X0*%
G04 APERTURE END LIST*
D10*
%TO.C,R3*%
X9135000Y38790000D03*
X7485000Y38790000D03*
%TD*%
D11*
%TO.C,C2*%
X3910000Y25115000D03*
X3910000Y26665000D03*
%TD*%
D12*
%TO.C,D2*%
X22640000Y46160000D03*
X25440000Y46160000D03*
%TD*%
D13*
%TO.C,C4*%
X19743984Y11556016D03*
X20840000Y10460000D03*
%TD*%
D14*
%TO.C,C3*%
X10670000Y29980000D03*
X12220000Y29980000D03*
%TD*%
D10*
%TO.C,R2*%
X11415000Y32700000D03*
X9765000Y32700000D03*
%TD*%
D15*
%TO.C,R5*%
X12290000Y40960000D03*
X13940000Y40960000D03*
%TD*%
D10*
%TO.C,R4*%
X6035000Y38790000D03*
X4385000Y38790000D03*
%TD*%
%TO.C,R1*%
X8250000Y25200000D03*
X6600000Y25200000D03*
%TD*%
D16*
%TO.C,U1*%
X6422500Y28010000D03*
X6422500Y28960000D03*
X6422500Y29910000D03*
X8697500Y29910000D03*
X8697500Y28010000D03*
%TD*%
D17*
%TO.C,J2*%
X17095000Y9370000D03*
X16695000Y9370000D03*
X16295000Y9370000D03*
X15895000Y9370000D03*
X15495000Y9370000D03*
X15095000Y9370000D03*
X14695000Y9370000D03*
X14295000Y9370000D03*
X13895000Y9370000D03*
X13495000Y9370000D03*
D18*
X17720000Y8070000D03*
X12870000Y8070000D03*
%TD*%
D19*
%TO.C,Q1*%
X6130000Y36377500D03*
X8030000Y36377500D03*
X7080000Y34502500D03*
%TD*%
D14*
%TO.C,C1*%
X22565000Y44060000D03*
X24115000Y44060000D03*
%TD*%
M02*
