%TF.GenerationSoftware,KiCad,Pcbnew,9.0.7+1*%
%TF.CreationDate,2026-05-06T21:20:15+00:00*%
%TF.ProjectId,GLCD01,474c4344-3031-42e6-9b69-6361645f7063,rev?*%
%TF.SameCoordinates,Original*%
%TF.FileFunction,Legend,Bot*%
%TF.FilePolarity,Positive*%
%FSLAX46Y46*%
G04 Gerber Fmt 4.6, Leading zero omitted, Abs format (unit mm)*
G04 Created by KiCad (PCBNEW 9.0.7+1) date 2026-05-06 21:20:15*
%MOMM*%
%LPD*%
G01*
G04 APERTURE LIST*
%ADD10C,0.150000*%
%ADD11C,0.254000*%
%ADD12C,0.120000*%
%ADD13C,0.100000*%
%ADD14C,0.200000*%
G04 APERTURE END LIST*
D10*
X8476666Y39765181D02*
X8809999Y40241372D01*
X9048094Y39765181D02*
X9048094Y40765181D01*
X9048094Y40765181D02*
X8667142Y40765181D01*
X8667142Y40765181D02*
X8571904Y40717562D01*
X8571904Y40717562D02*
X8524285Y40669943D01*
X8524285Y40669943D02*
X8476666Y40574705D01*
X8476666Y40574705D02*
X8476666Y40431848D01*
X8476666Y40431848D02*
X8524285Y40336610D01*
X8524285Y40336610D02*
X8571904Y40288991D01*
X8571904Y40288991D02*
X8667142Y40241372D01*
X8667142Y40241372D02*
X9048094Y40241372D01*
X8143332Y40765181D02*
X7524285Y40765181D01*
X7524285Y40765181D02*
X7857618Y40384229D01*
X7857618Y40384229D02*
X7714761Y40384229D01*
X7714761Y40384229D02*
X7619523Y40336610D01*
X7619523Y40336610D02*
X7571904Y40288991D01*
X7571904Y40288991D02*
X7524285Y40193753D01*
X7524285Y40193753D02*
X7524285Y39955658D01*
X7524285Y39955658D02*
X7571904Y39860420D01*
X7571904Y39860420D02*
X7619523Y39812800D01*
X7619523Y39812800D02*
X7714761Y39765181D01*
X7714761Y39765181D02*
X8000475Y39765181D01*
X8000475Y39765181D02*
X8095713Y39812800D01*
X8095713Y39812800D02*
X8143332Y39860420D01*
X5699580Y26056667D02*
X5747200Y26104286D01*
X5747200Y26104286D02*
X5794819Y26247143D01*
X5794819Y26247143D02*
X5794819Y26342381D01*
X5794819Y26342381D02*
X5747200Y26485238D01*
X5747200Y26485238D02*
X5651961Y26580476D01*
X5651961Y26580476D02*
X5556723Y26628095D01*
X5556723Y26628095D02*
X5366247Y26675714D01*
X5366247Y26675714D02*
X5223390Y26675714D01*
X5223390Y26675714D02*
X5032914Y26628095D01*
X5032914Y26628095D02*
X4937676Y26580476D01*
X4937676Y26580476D02*
X4842438Y26485238D01*
X4842438Y26485238D02*
X4794819Y26342381D01*
X4794819Y26342381D02*
X4794819Y26247143D01*
X4794819Y26247143D02*
X4842438Y26104286D01*
X4842438Y26104286D02*
X4890057Y26056667D01*
X4890057Y25675714D02*
X4842438Y25628095D01*
X4842438Y25628095D02*
X4794819Y25532857D01*
X4794819Y25532857D02*
X4794819Y25294762D01*
X4794819Y25294762D02*
X4842438Y25199524D01*
X4842438Y25199524D02*
X4890057Y25151905D01*
X4890057Y25151905D02*
X4985295Y25104286D01*
X4985295Y25104286D02*
X5080533Y25104286D01*
X5080533Y25104286D02*
X5223390Y25151905D01*
X5223390Y25151905D02*
X5794819Y25723333D01*
X5794819Y25723333D02*
X5794819Y25104286D01*
X16509580Y15026667D02*
X16557200Y15074286D01*
X16557200Y15074286D02*
X16604819Y15217143D01*
X16604819Y15217143D02*
X16604819Y15312381D01*
X16604819Y15312381D02*
X16557200Y15455238D01*
X16557200Y15455238D02*
X16461961Y15550476D01*
X16461961Y15550476D02*
X16366723Y15598095D01*
X16366723Y15598095D02*
X16176247Y15645714D01*
X16176247Y15645714D02*
X16033390Y15645714D01*
X16033390Y15645714D02*
X15842914Y15598095D01*
X15842914Y15598095D02*
X15747676Y15550476D01*
X15747676Y15550476D02*
X15652438Y15455238D01*
X15652438Y15455238D02*
X15604819Y15312381D01*
X15604819Y15312381D02*
X15604819Y15217143D01*
X15604819Y15217143D02*
X15652438Y15074286D01*
X15652438Y15074286D02*
X15700057Y15026667D01*
X15938152Y14169524D02*
X16604819Y14169524D01*
X15557200Y14407619D02*
X16271485Y14645714D01*
X16271485Y14645714D02*
X16271485Y14026667D01*
X12934819Y26176667D02*
X12458628Y26510000D01*
X12934819Y26748095D02*
X11934819Y26748095D01*
X11934819Y26748095D02*
X11934819Y26367143D01*
X11934819Y26367143D02*
X11982438Y26271905D01*
X11982438Y26271905D02*
X12030057Y26224286D01*
X12030057Y26224286D02*
X12125295Y26176667D01*
X12125295Y26176667D02*
X12268152Y26176667D01*
X12268152Y26176667D02*
X12363390Y26224286D01*
X12363390Y26224286D02*
X12411009Y26271905D01*
X12411009Y26271905D02*
X12458628Y26367143D01*
X12458628Y26367143D02*
X12458628Y26748095D01*
X11934819Y25271905D02*
X11934819Y25748095D01*
X11934819Y25748095D02*
X12411009Y25795714D01*
X12411009Y25795714D02*
X12363390Y25748095D01*
X12363390Y25748095D02*
X12315771Y25652857D01*
X12315771Y25652857D02*
X12315771Y25414762D01*
X12315771Y25414762D02*
X12363390Y25319524D01*
X12363390Y25319524D02*
X12411009Y25271905D01*
X12411009Y25271905D02*
X12506247Y25224286D01*
X12506247Y25224286D02*
X12744342Y25224286D01*
X12744342Y25224286D02*
X12839580Y25271905D01*
X12839580Y25271905D02*
X12887200Y25319524D01*
X12887200Y25319524D02*
X12934819Y25414762D01*
X12934819Y25414762D02*
X12934819Y25652857D01*
X12934819Y25652857D02*
X12887200Y25748095D01*
X12887200Y25748095D02*
X12839580Y25795714D01*
X11611666Y28190420D02*
X11659285Y28142800D01*
X11659285Y28142800D02*
X11802142Y28095181D01*
X11802142Y28095181D02*
X11897380Y28095181D01*
X11897380Y28095181D02*
X12040237Y28142800D01*
X12040237Y28142800D02*
X12135475Y28238039D01*
X12135475Y28238039D02*
X12183094Y28333277D01*
X12183094Y28333277D02*
X12230713Y28523753D01*
X12230713Y28523753D02*
X12230713Y28666610D01*
X12230713Y28666610D02*
X12183094Y28857086D01*
X12183094Y28857086D02*
X12135475Y28952324D01*
X12135475Y28952324D02*
X12040237Y29047562D01*
X12040237Y29047562D02*
X11897380Y29095181D01*
X11897380Y29095181D02*
X11802142Y29095181D01*
X11802142Y29095181D02*
X11659285Y29047562D01*
X11659285Y29047562D02*
X11611666Y28999943D01*
X11278332Y29095181D02*
X10659285Y29095181D01*
X10659285Y29095181D02*
X10992618Y28714229D01*
X10992618Y28714229D02*
X10849761Y28714229D01*
X10849761Y28714229D02*
X10754523Y28666610D01*
X10754523Y28666610D02*
X10706904Y28618991D01*
X10706904Y28618991D02*
X10659285Y28523753D01*
X10659285Y28523753D02*
X10659285Y28285658D01*
X10659285Y28285658D02*
X10706904Y28190420D01*
X10706904Y28190420D02*
X10754523Y28142800D01*
X10754523Y28142800D02*
X10849761Y28095181D01*
X10849761Y28095181D02*
X11135475Y28095181D01*
X11135475Y28095181D02*
X11230713Y28142800D01*
X11230713Y28142800D02*
X11278332Y28190420D01*
X12776666Y33675181D02*
X13109999Y34151372D01*
X13348094Y33675181D02*
X13348094Y34675181D01*
X13348094Y34675181D02*
X12967142Y34675181D01*
X12967142Y34675181D02*
X12871904Y34627562D01*
X12871904Y34627562D02*
X12824285Y34579943D01*
X12824285Y34579943D02*
X12776666Y34484705D01*
X12776666Y34484705D02*
X12776666Y34341848D01*
X12776666Y34341848D02*
X12824285Y34246610D01*
X12824285Y34246610D02*
X12871904Y34198991D01*
X12871904Y34198991D02*
X12967142Y34151372D01*
X12967142Y34151372D02*
X13348094Y34151372D01*
X12395713Y34579943D02*
X12348094Y34627562D01*
X12348094Y34627562D02*
X12252856Y34675181D01*
X12252856Y34675181D02*
X12014761Y34675181D01*
X12014761Y34675181D02*
X11919523Y34627562D01*
X11919523Y34627562D02*
X11871904Y34579943D01*
X11871904Y34579943D02*
X11824285Y34484705D01*
X11824285Y34484705D02*
X11824285Y34389467D01*
X11824285Y34389467D02*
X11871904Y34246610D01*
X11871904Y34246610D02*
X12443332Y33675181D01*
X12443332Y33675181D02*
X11824285Y33675181D01*
X5376666Y39765181D02*
X5709999Y40241372D01*
X5948094Y39765181D02*
X5948094Y40765181D01*
X5948094Y40765181D02*
X5567142Y40765181D01*
X5567142Y40765181D02*
X5471904Y40717562D01*
X5471904Y40717562D02*
X5424285Y40669943D01*
X5424285Y40669943D02*
X5376666Y40574705D01*
X5376666Y40574705D02*
X5376666Y40431848D01*
X5376666Y40431848D02*
X5424285Y40336610D01*
X5424285Y40336610D02*
X5471904Y40288991D01*
X5471904Y40288991D02*
X5567142Y40241372D01*
X5567142Y40241372D02*
X5948094Y40241372D01*
X4519523Y40431848D02*
X4519523Y39765181D01*
X4757618Y40812800D02*
X4995713Y40098515D01*
X4995713Y40098515D02*
X4376666Y40098515D01*
X7501666Y26015181D02*
X7834999Y26491372D01*
X8073094Y26015181D02*
X8073094Y27015181D01*
X8073094Y27015181D02*
X7692142Y27015181D01*
X7692142Y27015181D02*
X7596904Y26967562D01*
X7596904Y26967562D02*
X7549285Y26919943D01*
X7549285Y26919943D02*
X7501666Y26824705D01*
X7501666Y26824705D02*
X7501666Y26681848D01*
X7501666Y26681848D02*
X7549285Y26586610D01*
X7549285Y26586610D02*
X7596904Y26538991D01*
X7596904Y26538991D02*
X7692142Y26491372D01*
X7692142Y26491372D02*
X8073094Y26491372D01*
X6549285Y26015181D02*
X7120713Y26015181D01*
X6834999Y26015181D02*
X6834999Y27015181D01*
X6834999Y27015181D02*
X6930237Y26872324D01*
X6930237Y26872324D02*
X7025475Y26777086D01*
X7025475Y26777086D02*
X7120713Y26729467D01*
X8439404Y31805181D02*
X8439404Y30995658D01*
X8439404Y30995658D02*
X8391785Y30900420D01*
X8391785Y30900420D02*
X8344166Y30852800D01*
X8344166Y30852800D02*
X8248928Y30805181D01*
X8248928Y30805181D02*
X8058452Y30805181D01*
X8058452Y30805181D02*
X7963214Y30852800D01*
X7963214Y30852800D02*
X7915595Y30900420D01*
X7915595Y30900420D02*
X7867976Y30995658D01*
X7867976Y30995658D02*
X7867976Y31805181D01*
X6867976Y30805181D02*
X7439404Y30805181D01*
X7153690Y30805181D02*
X7153690Y31805181D01*
X7153690Y31805181D02*
X7248928Y31662324D01*
X7248928Y31662324D02*
X7344166Y31567086D01*
X7344166Y31567086D02*
X7439404Y31519467D01*
D11*
X15718332Y6485682D02*
X15718332Y5578539D01*
X15718332Y5578539D02*
X15778809Y5397111D01*
X15778809Y5397111D02*
X15899761Y5276158D01*
X15899761Y5276158D02*
X16081190Y5215682D01*
X16081190Y5215682D02*
X16202142Y5215682D01*
X15174047Y6364730D02*
X15113571Y6425206D01*
X15113571Y6425206D02*
X14992618Y6485682D01*
X14992618Y6485682D02*
X14690237Y6485682D01*
X14690237Y6485682D02*
X14569285Y6425206D01*
X14569285Y6425206D02*
X14508809Y6364730D01*
X14508809Y6364730D02*
X14448332Y6243778D01*
X14448332Y6243778D02*
X14448332Y6122825D01*
X14448332Y6122825D02*
X14508809Y5941397D01*
X14508809Y5941397D02*
X15234523Y5215682D01*
X15234523Y5215682D02*
X14448332Y5215682D01*
D10*
X5230057Y35535239D02*
X5182438Y35630477D01*
X5182438Y35630477D02*
X5087200Y35725715D01*
X5087200Y35725715D02*
X4944342Y35868572D01*
X4944342Y35868572D02*
X4896723Y35963810D01*
X4896723Y35963810D02*
X4896723Y36059048D01*
X5134819Y36011429D02*
X5087200Y36106667D01*
X5087200Y36106667D02*
X4991961Y36201905D01*
X4991961Y36201905D02*
X4801485Y36249524D01*
X4801485Y36249524D02*
X4468152Y36249524D01*
X4468152Y36249524D02*
X4277676Y36201905D01*
X4277676Y36201905D02*
X4182438Y36106667D01*
X4182438Y36106667D02*
X4134819Y36011429D01*
X4134819Y36011429D02*
X4134819Y35820953D01*
X4134819Y35820953D02*
X4182438Y35725715D01*
X4182438Y35725715D02*
X4277676Y35630477D01*
X4277676Y35630477D02*
X4468152Y35582858D01*
X4468152Y35582858D02*
X4801485Y35582858D01*
X4801485Y35582858D02*
X4991961Y35630477D01*
X4991961Y35630477D02*
X5087200Y35725715D01*
X5087200Y35725715D02*
X5134819Y35820953D01*
X5134819Y35820953D02*
X5134819Y36011429D01*
X5134819Y34630477D02*
X5134819Y35201905D01*
X5134819Y34916191D02*
X4134819Y34916191D01*
X4134819Y34916191D02*
X4277676Y35011429D01*
X4277676Y35011429D02*
X4372914Y35106667D01*
X4372914Y35106667D02*
X4420533Y35201905D01*
D12*
%TO.C,R3*%
X8547258Y39312500D02*
X8072742Y39312500D01*
X8547258Y38267500D02*
X8072742Y38267500D01*
%TO.C,C2*%
X3400000Y25749420D02*
X3400000Y26030580D01*
X4420000Y25749420D02*
X4420000Y26030580D01*
%TO.C,C4*%
X17160000Y13110580D02*
X17160000Y12829420D01*
X18180000Y13110580D02*
X18180000Y12829420D01*
%TO.C,R5*%
X13387500Y26247258D02*
X13387500Y25772742D01*
X14432500Y26247258D02*
X14432500Y25772742D01*
%TO.C,C3*%
X11304420Y30490000D02*
X11585580Y30490000D01*
X11304420Y29470000D02*
X11585580Y29470000D01*
%TO.C,R2*%
X10827258Y33222500D02*
X10352742Y33222500D01*
X10827258Y32177500D02*
X10352742Y32177500D01*
%TO.C,R4*%
X5447258Y39312500D02*
X4972742Y39312500D01*
X5447258Y38267500D02*
X4972742Y38267500D01*
%TO.C,R1*%
X7662258Y25722500D02*
X7187742Y25722500D01*
X7662258Y24677500D02*
X7187742Y24677500D01*
%TO.C,U1*%
X6650000Y30520000D02*
X6650000Y30470000D01*
X6650000Y27450000D02*
X6650000Y27400000D01*
X6650000Y27400000D02*
X8470000Y27400000D01*
X8470000Y30520000D02*
X6650000Y30520000D01*
X8470000Y30470000D02*
X8470000Y30520000D01*
X8470000Y28570000D02*
X8470000Y29350000D01*
X8470000Y27400000D02*
X8470000Y27450000D01*
X6350000Y27120000D02*
X5870000Y27120000D01*
X6110000Y27450000D01*
X6350000Y27120000D01*
G36*
X6350000Y27120000D02*
G01*
X5870000Y27120000D01*
X6110000Y27450000D01*
X6350000Y27120000D01*
G37*
D13*
%TO.C,J2*%
X17095000Y10220000D02*
X17095000Y10220000D01*
X17095000Y10120000D02*
X17095000Y10120000D01*
D14*
X17295000Y6845000D02*
X13295000Y6845000D01*
D13*
X17095000Y10220000D02*
G75*
G02*
X17095000Y10120000I0J-50000D01*
G01*
X17095000Y10120000D02*
G75*
G02*
X17095000Y10220000I0J50000D01*
G01*
D12*
%TO.C,Q1*%
X5520000Y36200000D02*
X5520000Y34680000D01*
X5520000Y34680000D02*
X6520000Y34680000D01*
X5570000Y36200000D02*
X5520000Y36200000D01*
X7470000Y36200000D02*
X6690000Y36200000D01*
X7640000Y34680000D02*
X8640000Y34680000D01*
X8640000Y36200000D02*
X8590000Y36200000D01*
X8640000Y34680000D02*
X8640000Y36200000D01*
X7030000Y36500000D02*
X6700000Y36740000D01*
X7030000Y36980000D01*
X7030000Y36500000D01*
G36*
X7030000Y36500000D02*
G01*
X6700000Y36740000D01*
X7030000Y36980000D01*
X7030000Y36500000D01*
G37*
%TD*%
M02*
