M48
; DRILL file KiCad 10.0.1-10.0.1~ubuntu25.10.1 date 2026-05-16T01:48:03
; FORMAT={3:3/ absolute / metric / suppress leading zeros}
; #@! TF.CreationDate,2026-05-16T01:48:03+00:00
; #@! TF.GenerationSoftware,Kicad,Pcbnew,10.0.1-10.0.1~ubuntu25.10.1
; #@! TF.FileFunction,Plated,1,2,PTH
FMAT,2
METRIC,TZ
; #@! TA.AperFunction,Plated,PTH,ViaDrill
T1C0.200
; #@! TA.AperFunction,Plated,PTH,ViaDrill
T2C0.250
; #@! TA.AperFunction,Plated,PTH,ComponentDrill
T3C0.889
; #@! TA.AperFunction,Plated,PTH,ComponentDrill
T4C3.000
%
G90
G05
T1
X9150Y31410
X11350Y27230
X11410Y35720
X13950Y7340
X14000Y47430
X16540Y47360
X16590Y7340
X22600Y35660
T2
X4840Y28860
X5640Y32860
X5640Y24060
X7240Y37460
X8840Y41660
X10440Y34160
X11740Y39960
X11740Y37060
X12740Y43660
X12870Y8070
X12940Y14760
X13040Y20360
X13840Y32060
X13840Y11260
X13940Y37660
X14040Y8460
X15540Y43860
X15640Y19660
X17240Y42160
X17240Y21060
X17440Y10860
X17640Y9860
X17720Y8070
X18940Y43460
X18940Y40460
X18940Y37660
X18940Y15860
X19040Y31160
X19040Y22660
X21440Y41160
X21440Y21860
T3
X7360Y51520
X7360Y48980
X9900Y51520
X9900Y48980
X12440Y51520
X12440Y48980
X14980Y51520
X14980Y48980
X17520Y51520
X17520Y48980
X20060Y51520
X20060Y48980
X22600Y51520
X22600Y48980
T4
X0Y50230
X0Y80
X30480Y50230
X30480Y80
M30
