%TF.GenerationSoftware,KiCad,Pcbnew,9.0.7+1*%
%TF.CreationDate,2026-05-06T21:29:52+00:00*%
%TF.ProjectId,GLCD01,474c4344-3031-42e6-9b69-6361645f7063,rev?*%
%TF.SameCoordinates,Original*%
%TF.FileFunction,Legend,Top*%
%TF.FilePolarity,Positive*%
%FSLAX46Y46*%
G04 Gerber Fmt 4.6, Leading zero omitted, Abs format (unit mm)*
G04 Created by KiCad (PCBNEW 9.0.7+1) date 2026-05-06 21:29:52*
%MOMM*%
%LPD*%
G01*
G04 APERTURE LIST*
%ADD10C,0.100000*%
%ADD11C,0.300000*%
%ADD12C,0.150000*%
%ADD13C,0.080000*%
%ADD14R,1.524000X1.524000*%
G04 APERTURE END LIST*
D10*
X-2660000Y44635000D02*
X33479740Y44635000D01*
X33479740Y5585000D01*
X-2660000Y5585000D01*
X-2660000Y44635000D01*
D11*
X4269757Y49090226D02*
X4198328Y48947368D01*
X4198328Y48947368D02*
X4198328Y48733083D01*
X4198328Y48733083D02*
X4269757Y48518797D01*
X4269757Y48518797D02*
X4412614Y48375940D01*
X4412614Y48375940D02*
X4555471Y48304511D01*
X4555471Y48304511D02*
X4841185Y48233083D01*
X4841185Y48233083D02*
X5055471Y48233083D01*
X5055471Y48233083D02*
X5341185Y48304511D01*
X5341185Y48304511D02*
X5484042Y48375940D01*
X5484042Y48375940D02*
X5626900Y48518797D01*
X5626900Y48518797D02*
X5698328Y48733083D01*
X5698328Y48733083D02*
X5698328Y48875940D01*
X5698328Y48875940D02*
X5626900Y49090226D01*
X5626900Y49090226D02*
X5555471Y49161654D01*
X5555471Y49161654D02*
X5055471Y49161654D01*
X5055471Y49161654D02*
X5055471Y48875940D01*
X5698328Y49804511D02*
X4198328Y49804511D01*
X4198328Y49804511D02*
X5698328Y50661654D01*
X5698328Y50661654D02*
X4198328Y50661654D01*
X5698328Y51375940D02*
X4198328Y51375940D01*
X4198328Y51375940D02*
X4198328Y51733083D01*
X4198328Y51733083D02*
X4269757Y51947369D01*
X4269757Y51947369D02*
X4412614Y52090226D01*
X4412614Y52090226D02*
X4555471Y52161655D01*
X4555471Y52161655D02*
X4841185Y52233083D01*
X4841185Y52233083D02*
X5055471Y52233083D01*
X5055471Y52233083D02*
X5341185Y52161655D01*
X5341185Y52161655D02*
X5484042Y52090226D01*
X5484042Y52090226D02*
X5626900Y51947369D01*
X5626900Y51947369D02*
X5698328Y51733083D01*
X5698328Y51733083D02*
X5698328Y51375940D01*
X24838328Y48231654D02*
X24838328Y49160226D01*
X24838328Y49160226D02*
X25409757Y48660226D01*
X25409757Y48660226D02*
X25409757Y48874511D01*
X25409757Y48874511D02*
X25481185Y49017368D01*
X25481185Y49017368D02*
X25552614Y49088797D01*
X25552614Y49088797D02*
X25695471Y49160226D01*
X25695471Y49160226D02*
X26052614Y49160226D01*
X26052614Y49160226D02*
X26195471Y49088797D01*
X26195471Y49088797D02*
X26266900Y49017368D01*
X26266900Y49017368D02*
X26338328Y48874511D01*
X26338328Y48874511D02*
X26338328Y48445940D01*
X26338328Y48445940D02*
X26266900Y48303083D01*
X26266900Y48303083D02*
X26195471Y48231654D01*
X26195471Y49803082D02*
X26266900Y49874511D01*
X26266900Y49874511D02*
X26338328Y49803082D01*
X26338328Y49803082D02*
X26266900Y49731654D01*
X26266900Y49731654D02*
X26195471Y49803082D01*
X26195471Y49803082D02*
X26338328Y49803082D01*
X24838328Y50374511D02*
X24838328Y51303083D01*
X24838328Y51303083D02*
X25409757Y50803083D01*
X25409757Y50803083D02*
X25409757Y51017368D01*
X25409757Y51017368D02*
X25481185Y51160225D01*
X25481185Y51160225D02*
X25552614Y51231654D01*
X25552614Y51231654D02*
X25695471Y51303083D01*
X25695471Y51303083D02*
X26052614Y51303083D01*
X26052614Y51303083D02*
X26195471Y51231654D01*
X26195471Y51231654D02*
X26266900Y51160225D01*
X26266900Y51160225D02*
X26338328Y51017368D01*
X26338328Y51017368D02*
X26338328Y50588797D01*
X26338328Y50588797D02*
X26266900Y50445940D01*
X26266900Y50445940D02*
X26195471Y50374511D01*
X24838328Y51731654D02*
X26338328Y52231654D01*
X26338328Y52231654D02*
X24838328Y52731654D01*
X12097143Y-2149757D02*
X11954286Y-2078328D01*
X11954286Y-2078328D02*
X11740000Y-2078328D01*
X11740000Y-2078328D02*
X11525714Y-2149757D01*
X11525714Y-2149757D02*
X11382857Y-2292614D01*
X11382857Y-2292614D02*
X11311428Y-2435471D01*
X11311428Y-2435471D02*
X11240000Y-2721185D01*
X11240000Y-2721185D02*
X11240000Y-2935471D01*
X11240000Y-2935471D02*
X11311428Y-3221185D01*
X11311428Y-3221185D02*
X11382857Y-3364042D01*
X11382857Y-3364042D02*
X11525714Y-3506900D01*
X11525714Y-3506900D02*
X11740000Y-3578328D01*
X11740000Y-3578328D02*
X11882857Y-3578328D01*
X11882857Y-3578328D02*
X12097143Y-3506900D01*
X12097143Y-3506900D02*
X12168571Y-3435471D01*
X12168571Y-3435471D02*
X12168571Y-2935471D01*
X12168571Y-2935471D02*
X11882857Y-2935471D01*
X13525714Y-3578328D02*
X12811428Y-3578328D01*
X12811428Y-3578328D02*
X12811428Y-2078328D01*
X14882857Y-3435471D02*
X14811429Y-3506900D01*
X14811429Y-3506900D02*
X14597143Y-3578328D01*
X14597143Y-3578328D02*
X14454286Y-3578328D01*
X14454286Y-3578328D02*
X14240000Y-3506900D01*
X14240000Y-3506900D02*
X14097143Y-3364042D01*
X14097143Y-3364042D02*
X14025714Y-3221185D01*
X14025714Y-3221185D02*
X13954286Y-2935471D01*
X13954286Y-2935471D02*
X13954286Y-2721185D01*
X13954286Y-2721185D02*
X14025714Y-2435471D01*
X14025714Y-2435471D02*
X14097143Y-2292614D01*
X14097143Y-2292614D02*
X14240000Y-2149757D01*
X14240000Y-2149757D02*
X14454286Y-2078328D01*
X14454286Y-2078328D02*
X14597143Y-2078328D01*
X14597143Y-2078328D02*
X14811429Y-2149757D01*
X14811429Y-2149757D02*
X14882857Y-2221185D01*
X15525714Y-3578328D02*
X15525714Y-2078328D01*
X15525714Y-2078328D02*
X15882857Y-2078328D01*
X15882857Y-2078328D02*
X16097143Y-2149757D01*
X16097143Y-2149757D02*
X16240000Y-2292614D01*
X16240000Y-2292614D02*
X16311429Y-2435471D01*
X16311429Y-2435471D02*
X16382857Y-2721185D01*
X16382857Y-2721185D02*
X16382857Y-2935471D01*
X16382857Y-2935471D02*
X16311429Y-3221185D01*
X16311429Y-3221185D02*
X16240000Y-3364042D01*
X16240000Y-3364042D02*
X16097143Y-3506900D01*
X16097143Y-3506900D02*
X15882857Y-3578328D01*
X15882857Y-3578328D02*
X15525714Y-3578328D01*
X17311429Y-2078328D02*
X17454286Y-2078328D01*
X17454286Y-2078328D02*
X17597143Y-2149757D01*
X17597143Y-2149757D02*
X17668572Y-2221185D01*
X17668572Y-2221185D02*
X17740000Y-2364042D01*
X17740000Y-2364042D02*
X17811429Y-2649757D01*
X17811429Y-2649757D02*
X17811429Y-3006900D01*
X17811429Y-3006900D02*
X17740000Y-3292614D01*
X17740000Y-3292614D02*
X17668572Y-3435471D01*
X17668572Y-3435471D02*
X17597143Y-3506900D01*
X17597143Y-3506900D02*
X17454286Y-3578328D01*
X17454286Y-3578328D02*
X17311429Y-3578328D01*
X17311429Y-3578328D02*
X17168572Y-3506900D01*
X17168572Y-3506900D02*
X17097143Y-3435471D01*
X17097143Y-3435471D02*
X17025714Y-3292614D01*
X17025714Y-3292614D02*
X16954286Y-3006900D01*
X16954286Y-3006900D02*
X16954286Y-2649757D01*
X16954286Y-2649757D02*
X17025714Y-2364042D01*
X17025714Y-2364042D02*
X17097143Y-2221185D01*
X17097143Y-2221185D02*
X17168572Y-2149757D01*
X17168572Y-2149757D02*
X17311429Y-2078328D01*
X19240000Y-3578328D02*
X18382857Y-3578328D01*
X18811428Y-3578328D02*
X18811428Y-2078328D01*
X18811428Y-2078328D02*
X18668571Y-2292614D01*
X18668571Y-2292614D02*
X18525714Y-2435471D01*
X18525714Y-2435471D02*
X18382857Y-2506900D01*
D12*
X9947143Y54673872D02*
X9947143Y53602443D01*
X9947143Y53602443D02*
X9875714Y53388158D01*
X9875714Y53388158D02*
X9732857Y53245300D01*
X9732857Y53245300D02*
X9518571Y53173872D01*
X9518571Y53173872D02*
X9375714Y53173872D01*
X10661428Y54673872D02*
X10661428Y53459586D01*
X10661428Y53459586D02*
X10732857Y53316729D01*
X10732857Y53316729D02*
X10804286Y53245300D01*
X10804286Y53245300D02*
X10947143Y53173872D01*
X10947143Y53173872D02*
X11232857Y53173872D01*
X11232857Y53173872D02*
X11375714Y53245300D01*
X11375714Y53245300D02*
X11447143Y53316729D01*
X11447143Y53316729D02*
X11518571Y53459586D01*
X11518571Y53459586D02*
X11518571Y54673872D01*
X12232857Y53173872D02*
X12232857Y54673872D01*
X12232857Y54673872D02*
X12732857Y53602443D01*
X12732857Y53602443D02*
X13232857Y54673872D01*
X13232857Y54673872D02*
X13232857Y53173872D01*
X13947143Y53173872D02*
X13947143Y54673872D01*
X13947143Y54673872D02*
X14518572Y54673872D01*
X14518572Y54673872D02*
X14661429Y54602443D01*
X14661429Y54602443D02*
X14732858Y54531015D01*
X14732858Y54531015D02*
X14804286Y54388158D01*
X14804286Y54388158D02*
X14804286Y54173872D01*
X14804286Y54173872D02*
X14732858Y54031015D01*
X14732858Y54031015D02*
X14661429Y53959586D01*
X14661429Y53959586D02*
X14518572Y53888158D01*
X14518572Y53888158D02*
X13947143Y53888158D01*
X15090001Y53031015D02*
X16232858Y53031015D01*
X16447143Y54673872D02*
X17447143Y54673872D01*
X17447143Y54673872D02*
X16804286Y53173872D01*
X17875714Y54673872D02*
X18875714Y53173872D01*
X18875714Y54673872D02*
X17875714Y53173872D01*
X19375714Y54531015D02*
X19447142Y54602443D01*
X19447142Y54602443D02*
X19590000Y54673872D01*
X19590000Y54673872D02*
X19947142Y54673872D01*
X19947142Y54673872D02*
X20090000Y54602443D01*
X20090000Y54602443D02*
X20161428Y54531015D01*
X20161428Y54531015D02*
X20232857Y54388158D01*
X20232857Y54388158D02*
X20232857Y54245300D01*
X20232857Y54245300D02*
X20161428Y54031015D01*
X20161428Y54031015D02*
X19304285Y53173872D01*
X19304285Y53173872D02*
X20232857Y53173872D01*
D13*
X23998571Y53254065D02*
X23541428Y53254065D01*
X23770000Y53254065D02*
X23770000Y54054065D01*
X23770000Y54054065D02*
X23693809Y53939780D01*
X23693809Y53939780D02*
X23617619Y53863589D01*
X23617619Y53863589D02*
X23541428Y53825494D01*
D12*
%TO.C,J1*%
X6090000Y52790000D02*
X23870000Y52790000D01*
X6090000Y47710000D02*
X6090000Y52790000D01*
X23870000Y52790000D02*
X23870000Y47710000D01*
X23870000Y47710000D02*
X6090000Y47710000D01*
%TD*%
D14*
%TO.C,J1*%
X22600000Y51520000D03*
X22600000Y48980000D03*
X20060000Y51520000D03*
X20060000Y48980000D03*
X17520000Y51520000D03*
X17520000Y48980000D03*
X14980000Y51520000D03*
X14980000Y48980000D03*
X12440000Y51520000D03*
X12440000Y48980000D03*
X9900000Y51520000D03*
X9900000Y48980000D03*
X7360000Y51520000D03*
X7360000Y48980000D03*
%TD*%
M02*
