%TF.GenerationSoftware,KiCad,Pcbnew,9.0.7+1*%
%TF.CreationDate,2026-05-11T00:41:19+00:00*%
%TF.ProjectId,GLCD01,474c4344-3031-42e6-9b69-6361645f7063,rev?*%
%TF.SameCoordinates,Original*%
%TF.FileFunction,Copper,L1,Top*%
%TF.FilePolarity,Positive*%
%FSLAX46Y46*%
G04 Gerber Fmt 4.6, Leading zero omitted, Abs format (unit mm)*
G04 Created by KiCad (PCBNEW 9.0.7+1) date 2026-05-11 00:41:19*
%MOMM*%
%LPD*%
G01*
G04 APERTURE LIST*
%TA.AperFunction,ComponentPad*%
%ADD10C,6.000000*%
%TD*%
%TA.AperFunction,ComponentPad*%
%ADD11R,1.524000X1.524000*%
%TD*%
%TA.AperFunction,ViaPad*%
%ADD12C,0.500000*%
%TD*%
%TA.AperFunction,ViaPad*%
%ADD13C,0.460000*%
%TD*%
%TA.AperFunction,Conductor*%
%ADD14C,0.300000*%
%TD*%
%TA.AperFunction,Conductor*%
%ADD15C,0.200000*%
%TD*%
G04 APERTURE END LIST*
D10*
%TO.P,M2,1*%
%TO.N,GND*%
X0Y50230000D03*
%TD*%
%TO.P,M4,1*%
%TO.N,GND*%
X30480000Y80000D03*
%TD*%
%TO.P,M3,1*%
%TO.N,GND*%
X0Y80000D03*
%TD*%
%TO.P,M1,1*%
%TO.N,GND*%
X30480000Y50230000D03*
%TD*%
D11*
%TO.P,J1,1,2*%
%TO.N,+3.3V*%
X22600000Y51520000D03*
%TO.P,J1,2,2*%
X22600000Y48980000D03*
%TO.P,J1,3,4*%
%TO.N,/SCLK*%
X20060000Y51520000D03*
%TO.P,J1,4,4*%
X20060000Y48980000D03*
%TO.P,J1,5,6*%
%TO.N,/SCS*%
X17520000Y51520000D03*
%TO.P,J1,6,6*%
X17520000Y48980000D03*
%TO.P,J1,7,8*%
%TO.N,/SI*%
X14980000Y51520000D03*
%TO.P,J1,8,8*%
X14980000Y48980000D03*
%TO.P,J1,9,10*%
%TO.N,/RST*%
X12440000Y51520000D03*
%TO.P,J1,10,10*%
X12440000Y48980000D03*
%TO.P,J1,11,12*%
%TO.N,/VCOM_CTRL*%
X9900000Y51520000D03*
%TO.P,J1,12,12*%
X9900000Y48980000D03*
%TO.P,J1,13,14*%
%TO.N,GND*%
X7360000Y51520000D03*
%TO.P,J1,14,14*%
X7360000Y48980000D03*
%TD*%
D12*
%TO.N,GND*%
X17720000Y8070000D03*
X18940000Y15860000D03*
X11740000Y37060000D03*
X12870000Y8070000D03*
X17240000Y21060000D03*
D13*
X16540000Y47360000D03*
D12*
X12740000Y43660000D03*
X10440000Y34160000D03*
X13940000Y37660000D03*
X17440000Y10860000D03*
X21440000Y21860000D03*
X12940000Y14760000D03*
D13*
X14000000Y47430000D03*
D12*
X13840000Y32060000D03*
D13*
X9150000Y31410000D03*
X13950000Y7340000D03*
D12*
X18940000Y43460000D03*
X15540000Y43860000D03*
X18940000Y37660000D03*
X19040000Y31160000D03*
D13*
X11350000Y27230000D03*
D12*
X5640000Y24060000D03*
D13*
X16590000Y7340000D03*
D12*
X13040000Y20360000D03*
X17240000Y42160000D03*
X13840000Y11260000D03*
X5640000Y32860000D03*
X15640000Y19660000D03*
X8840000Y41660000D03*
X19040000Y22660000D03*
X7240000Y37460000D03*
X4840000Y28860000D03*
X11740000Y39960000D03*
X21440000Y41160000D03*
X18940000Y40460000D03*
D13*
%TO.N,+3.3V*%
X11410000Y35720000D03*
D12*
X17640000Y9860000D03*
D13*
X22600000Y35660000D03*
D12*
X14040000Y8460000D03*
%TD*%
D14*
%TO.N,+3.3V*%
X22600000Y35660000D02*
X22560000Y35700000D01*
D15*
X17640000Y9860000D02*
X16560000Y9860000D01*
X15160000Y8460000D02*
X14040000Y8460000D01*
D14*
X11430000Y35700000D02*
X11410000Y35720000D01*
D15*
X16560000Y9860000D02*
X15160000Y8460000D01*
D14*
X22560000Y35700000D02*
X11430000Y35700000D01*
%TD*%
%TA.AperFunction,Conductor*%
%TO.N,GND*%
G36*
X35608691Y55021093D02*
G01*
X35644655Y54971593D01*
X35649500Y54941000D01*
X35649500Y-4701000D01*
X35630593Y-4759191D01*
X35581093Y-4795155D01*
X35550500Y-4800000D01*
X-4698992Y-4800000D01*
X-4706590Y-4797531D01*
X-4714479Y-4798781D01*
X-4735135Y-4788256D01*
X-4757183Y-4781093D01*
X-4768996Y-4771004D01*
X-4786504Y-4753496D01*
X-4814281Y-4698979D01*
X-4815500Y-4683492D01*
X-4815500Y260003D01*
X8019990Y260003D01*
X8019990Y259998D01*
X8037971Y20045D01*
X8037973Y20036D01*
X8091518Y-214561D01*
X8179428Y-438550D01*
X8179437Y-438569D01*
X8299743Y-646945D01*
X8299753Y-646959D01*
X8449774Y-835080D01*
X8449777Y-835083D01*
X8449779Y-835085D01*
X8521386Y-901527D01*
X8626168Y-998751D01*
X8626170Y-998752D01*
X8626175Y-998757D01*
X8824995Y-1134310D01*
X9041797Y-1238716D01*
X9271739Y-1309644D01*
X9509684Y-1345508D01*
X9625651Y-1345508D01*
X20891580Y-1345508D01*
X20894992Y-1345508D01*
X21015309Y-1345509D01*
X21253254Y-1309645D01*
X21483197Y-1238718D01*
X21700000Y-1134312D01*
X21898821Y-998759D01*
X22075218Y-835088D01*
X22225251Y-646953D01*
X22345568Y-438559D01*
X22433481Y-214560D01*
X22487027Y20040D01*
X22505010Y260000D01*
X22487027Y499960D01*
X22433481Y734560D01*
X22345568Y958559D01*
X22345562Y958570D01*
X22345561Y958572D01*
X22225254Y1166947D01*
X22225251Y1166953D01*
X22160678Y1247925D01*
X22075227Y1355078D01*
X22075216Y1355090D01*
X21987019Y1436924D01*
X21898821Y1518759D01*
X21700000Y1654312D01*
X21699999Y1654313D01*
X21699997Y1654314D01*
X21483199Y1758717D01*
X21483197Y1758718D01*
X21340409Y1802762D01*
X21253258Y1829644D01*
X21253255Y1829645D01*
X21253254Y1829645D01*
X21253249Y1829646D01*
X21253248Y1829646D01*
X21154643Y1844508D01*
X21015309Y1865509D01*
X21015308Y1865509D01*
X20894992Y1865508D01*
X9509680Y1865508D01*
X9271744Y1829645D01*
X9271734Y1829643D01*
X9041796Y1758716D01*
X8825002Y1654314D01*
X8824998Y1654312D01*
X8824995Y1654310D01*
X8626178Y1518759D01*
X8626168Y1518752D01*
X8449774Y1355081D01*
X8299753Y1166960D01*
X8299743Y1166946D01*
X8179437Y958570D01*
X8179428Y958551D01*
X8091518Y734562D01*
X8037973Y499965D01*
X8037971Y499956D01*
X8019990Y260003D01*
X-4815500Y260003D01*
X-4815500Y8524070D01*
X13389500Y8524070D01*
X13389500Y8395931D01*
X13414499Y8270258D01*
X13414500Y8270253D01*
X13463534Y8151875D01*
X13463538Y8151867D01*
X13506365Y8087774D01*
X13534724Y8045331D01*
X13625331Y7954724D01*
X13688848Y7912283D01*
X13731866Y7883539D01*
X13731870Y7883537D01*
X13731873Y7883535D01*
X13850256Y7834499D01*
X13975931Y7809500D01*
X13975932Y7809500D01*
X14104068Y7809500D01*
X14104069Y7809500D01*
X14229744Y7834499D01*
X14348127Y7883535D01*
X14436846Y7942816D01*
X14491847Y7959500D01*
X15225890Y7959500D01*
X15225892Y7959500D01*
X15353186Y7993608D01*
X15353188Y7993610D01*
X15353190Y7993610D01*
X15467309Y8059497D01*
X15467309Y8059498D01*
X15467314Y8059500D01*
X16738318Y9330504D01*
X16792835Y9358281D01*
X16808322Y9359500D01*
X17188153Y9359500D01*
X17243153Y9342816D01*
X17261579Y9330504D01*
X17331866Y9283539D01*
X17331870Y9283537D01*
X17331873Y9283535D01*
X17450256Y9234499D01*
X17575931Y9209500D01*
X17575932Y9209500D01*
X17704068Y9209500D01*
X17704069Y9209500D01*
X17829744Y9234499D01*
X17948127Y9283535D01*
X18054669Y9354724D01*
X18145276Y9445331D01*
X18216465Y9551873D01*
X18265501Y9670256D01*
X18290500Y9795931D01*
X18290500Y9924069D01*
X18265501Y10049744D01*
X18216465Y10168127D01*
X18216463Y10168130D01*
X18216461Y10168134D01*
X18154743Y10260500D01*
X18145276Y10274669D01*
X18054669Y10365276D01*
X18012226Y10393635D01*
X17948133Y10436462D01*
X17948125Y10436466D01*
X17829747Y10485500D01*
X17829745Y10485501D01*
X17829744Y10485501D01*
X17704069Y10510500D01*
X17575931Y10510500D01*
X17575930Y10510500D01*
X17513093Y10498001D01*
X17450256Y10485501D01*
X17450255Y10485501D01*
X17450252Y10485500D01*
X17331874Y10436466D01*
X17331866Y10436462D01*
X17266563Y10392827D01*
X17243153Y10377185D01*
X17188153Y10360500D01*
X16625892Y10360500D01*
X16494108Y10360500D01*
X16416200Y10339625D01*
X16366809Y10326391D01*
X16252690Y10260504D01*
X14981682Y8989496D01*
X14927165Y8961719D01*
X14911678Y8960500D01*
X14491847Y8960500D01*
X14436846Y8977185D01*
X14403722Y8999318D01*
X14348133Y9036462D01*
X14348125Y9036466D01*
X14229747Y9085500D01*
X14229745Y9085501D01*
X14229744Y9085501D01*
X14104069Y9110500D01*
X13975931Y9110500D01*
X13975930Y9110500D01*
X13913093Y9098001D01*
X13850256Y9085501D01*
X13850255Y9085501D01*
X13850252Y9085500D01*
X13731874Y9036466D01*
X13731866Y9036462D01*
X13625331Y8965276D01*
X13625327Y8965273D01*
X13534727Y8874673D01*
X13534724Y8874669D01*
X13463538Y8768134D01*
X13463534Y8768126D01*
X13414500Y8649748D01*
X13414499Y8649743D01*
X13389500Y8524070D01*
X-4815500Y8524070D01*
X-4815500Y35782102D01*
X10779500Y35782102D01*
X10779500Y35657899D01*
X10803728Y35536092D01*
X10851257Y35421348D01*
X10851261Y35421340D01*
X10891347Y35361348D01*
X10920258Y35318080D01*
X11008080Y35230258D01*
X11069644Y35189122D01*
X11111339Y35161262D01*
X11111343Y35161260D01*
X11111346Y35161258D01*
X11226090Y35113729D01*
X11347901Y35089500D01*
X11347903Y35089500D01*
X11472097Y35089500D01*
X11472099Y35089500D01*
X11593910Y35113729D01*
X11662075Y35141965D01*
X11699960Y35149500D01*
X22199116Y35149500D01*
X22254117Y35132816D01*
X22301346Y35101258D01*
X22416090Y35053729D01*
X22537901Y35029500D01*
X22537903Y35029500D01*
X22662097Y35029500D01*
X22662099Y35029500D01*
X22783910Y35053729D01*
X22898654Y35101258D01*
X23001920Y35170258D01*
X23089742Y35258080D01*
X23158742Y35361346D01*
X23206271Y35476090D01*
X23230500Y35597901D01*
X23230500Y35722099D01*
X23206271Y35843910D01*
X23158742Y35958654D01*
X23158740Y35958657D01*
X23158738Y35958661D01*
X23118651Y36018654D01*
X23089742Y36061920D01*
X23001920Y36149742D01*
X22960782Y36177229D01*
X22898660Y36218739D01*
X22898652Y36218743D01*
X22783908Y36266272D01*
X22662101Y36290500D01*
X22662099Y36290500D01*
X22537901Y36290500D01*
X22537898Y36290500D01*
X22416092Y36266272D01*
X22416086Y36266270D01*
X22396209Y36258036D01*
X22358323Y36250500D01*
X11780952Y36250500D01*
X11725950Y36267185D01*
X11708653Y36278743D01*
X11593908Y36326272D01*
X11472101Y36350500D01*
X11472099Y36350500D01*
X11347901Y36350500D01*
X11347898Y36350500D01*
X11226091Y36326272D01*
X11111347Y36278743D01*
X11111339Y36278739D01*
X11008080Y36209742D01*
X11008076Y36209739D01*
X10920261Y36121924D01*
X10920258Y36121920D01*
X10851261Y36018661D01*
X10851257Y36018653D01*
X10803728Y35903909D01*
X10779500Y35782102D01*
X-4815500Y35782102D01*
X-4815500Y49786798D01*
X6298000Y49786798D01*
X6298000Y49230001D01*
X6298001Y49230000D01*
X6991073Y49230000D01*
X6945792Y49151571D01*
X6915500Y49038520D01*
X6915500Y48921480D01*
X6945792Y48808429D01*
X6991073Y48730000D01*
X6298002Y48730000D01*
X6298001Y48729999D01*
X6298001Y48173209D01*
X6300909Y48148126D01*
X6346213Y48045523D01*
X6425522Y47966214D01*
X6528127Y47920910D01*
X6553203Y47918001D01*
X7109998Y47918001D01*
X7110000Y47918002D01*
X7110000Y48611073D01*
X7188429Y48565792D01*
X7301480Y48535500D01*
X7418520Y48535500D01*
X7531571Y48565792D01*
X7610000Y48611073D01*
X7610000Y47918002D01*
X7610001Y47918001D01*
X8166790Y47918001D01*
X8166791Y47918002D01*
X8191874Y47920910D01*
X8294477Y47966214D01*
X8373786Y48045523D01*
X8419090Y48148128D01*
X8421999Y48173203D01*
X8422000Y48173205D01*
X8422000Y48729999D01*
X8421999Y48730000D01*
X7728927Y48730000D01*
X7774208Y48808429D01*
X7804500Y48921480D01*
X7804500Y49038520D01*
X7774208Y49151571D01*
X7728927Y49230000D01*
X8421998Y49230000D01*
X8421999Y49230001D01*
X8421999Y49773522D01*
X8737500Y49773522D01*
X8737500Y48186479D01*
X8737501Y48186477D01*
X8752352Y48092701D01*
X8752354Y48092696D01*
X8809950Y47979658D01*
X8899658Y47889950D01*
X9012696Y47832354D01*
X9106481Y47817500D01*
X10693518Y47817501D01*
X10693521Y47817501D01*
X10693522Y47817502D01*
X10740411Y47824928D01*
X10787299Y47832353D01*
X10787299Y47832354D01*
X10787304Y47832354D01*
X10900342Y47889950D01*
X10990050Y47979658D01*
X11047646Y48092696D01*
X11062500Y48186481D01*
X11062499Y49773518D01*
X11062498Y49773522D01*
X11277500Y49773522D01*
X11277500Y48186479D01*
X11277501Y48186477D01*
X11292352Y48092701D01*
X11292354Y48092696D01*
X11349950Y47979658D01*
X11439658Y47889950D01*
X11552696Y47832354D01*
X11646481Y47817500D01*
X13233518Y47817501D01*
X13233521Y47817501D01*
X13233522Y47817502D01*
X13280411Y47824928D01*
X13327299Y47832353D01*
X13327299Y47832354D01*
X13327304Y47832354D01*
X13440342Y47889950D01*
X13530050Y47979658D01*
X13587646Y48092696D01*
X13602500Y48186481D01*
X13602499Y49773518D01*
X13602498Y49773522D01*
X13817500Y49773522D01*
X13817500Y48186479D01*
X13817501Y48186477D01*
X13832352Y48092701D01*
X13832354Y48092696D01*
X13889950Y47979658D01*
X13979658Y47889950D01*
X14092696Y47832354D01*
X14186481Y47817500D01*
X15773518Y47817501D01*
X15773521Y47817501D01*
X15773522Y47817502D01*
X15820411Y47824928D01*
X15867299Y47832353D01*
X15867299Y47832354D01*
X15867304Y47832354D01*
X15980342Y47889950D01*
X16070050Y47979658D01*
X16127646Y48092696D01*
X16142500Y48186481D01*
X16142499Y49773518D01*
X16142498Y49773522D01*
X16357500Y49773522D01*
X16357500Y48186479D01*
X16357501Y48186477D01*
X16372352Y48092701D01*
X16372354Y48092696D01*
X16429950Y47979658D01*
X16519658Y47889950D01*
X16632696Y47832354D01*
X16726481Y47817500D01*
X18313518Y47817501D01*
X18313521Y47817501D01*
X18313522Y47817502D01*
X18360411Y47824928D01*
X18407299Y47832353D01*
X18407299Y47832354D01*
X18407304Y47832354D01*
X18520342Y47889950D01*
X18610050Y47979658D01*
X18667646Y48092696D01*
X18682500Y48186481D01*
X18682499Y49773518D01*
X18682498Y49773522D01*
X18897500Y49773522D01*
X18897500Y48186479D01*
X18897501Y48186477D01*
X18912352Y48092701D01*
X18912354Y48092696D01*
X18969950Y47979658D01*
X19059658Y47889950D01*
X19172696Y47832354D01*
X19266481Y47817500D01*
X20853518Y47817501D01*
X20853521Y47817501D01*
X20853522Y47817502D01*
X20900411Y47824928D01*
X20947299Y47832353D01*
X20947299Y47832354D01*
X20947304Y47832354D01*
X21060342Y47889950D01*
X21150050Y47979658D01*
X21207646Y48092696D01*
X21222500Y48186481D01*
X21222499Y49773518D01*
X21222498Y49773522D01*
X21437500Y49773522D01*
X21437500Y48186479D01*
X21437501Y48186477D01*
X21452352Y48092701D01*
X21452354Y48092696D01*
X21509950Y47979658D01*
X21599658Y47889950D01*
X21712696Y47832354D01*
X21806481Y47817500D01*
X23393518Y47817501D01*
X23393521Y47817501D01*
X23393522Y47817502D01*
X23440411Y47824928D01*
X23487299Y47832353D01*
X23487299Y47832354D01*
X23487304Y47832354D01*
X23600342Y47889950D01*
X23690050Y47979658D01*
X23747646Y48092696D01*
X23762500Y48186481D01*
X23762499Y49773518D01*
X23762499Y49773521D01*
X23762499Y49773522D01*
X23762498Y49773524D01*
X23747647Y49867300D01*
X23747646Y49867302D01*
X23747646Y49867304D01*
X23690050Y49980342D01*
X23600342Y50070050D01*
X23487304Y50127646D01*
X23487305Y50127646D01*
X23393521Y50142500D01*
X21806478Y50142500D01*
X21806476Y50142499D01*
X21712700Y50127648D01*
X21712695Y50127646D01*
X21599659Y50070051D01*
X21509949Y49980341D01*
X21452354Y49867305D01*
X21437500Y49773522D01*
X21222498Y49773522D01*
X21222498Y49773525D01*
X21207647Y49867300D01*
X21207646Y49867302D01*
X21207646Y49867304D01*
X21150050Y49980342D01*
X21060342Y50070050D01*
X20947304Y50127646D01*
X20947305Y50127646D01*
X20853521Y50142500D01*
X19266478Y50142500D01*
X19266476Y50142499D01*
X19172700Y50127648D01*
X19172695Y50127646D01*
X19059659Y50070051D01*
X18969949Y49980341D01*
X18912354Y49867305D01*
X18897500Y49773522D01*
X18682498Y49773522D01*
X18682498Y49773525D01*
X18667647Y49867300D01*
X18667646Y49867302D01*
X18667646Y49867304D01*
X18610050Y49980342D01*
X18520342Y50070050D01*
X18407304Y50127646D01*
X18407305Y50127646D01*
X18313521Y50142500D01*
X16726478Y50142500D01*
X16726476Y50142499D01*
X16632700Y50127648D01*
X16632695Y50127646D01*
X16519659Y50070051D01*
X16429949Y49980341D01*
X16372354Y49867305D01*
X16357500Y49773522D01*
X16142498Y49773522D01*
X16142498Y49773525D01*
X16127647Y49867300D01*
X16127646Y49867302D01*
X16127646Y49867304D01*
X16070050Y49980342D01*
X15980342Y50070050D01*
X15867304Y50127646D01*
X15867305Y50127646D01*
X15773521Y50142500D01*
X14186478Y50142500D01*
X14186476Y50142499D01*
X14092700Y50127648D01*
X14092695Y50127646D01*
X13979659Y50070051D01*
X13889949Y49980341D01*
X13832354Y49867305D01*
X13817500Y49773522D01*
X13602498Y49773522D01*
X13602498Y49773525D01*
X13587647Y49867300D01*
X13587646Y49867302D01*
X13587646Y49867304D01*
X13530050Y49980342D01*
X13440342Y50070050D01*
X13327304Y50127646D01*
X13327305Y50127646D01*
X13233521Y50142500D01*
X11646478Y50142500D01*
X11646476Y50142499D01*
X11552700Y50127648D01*
X11552695Y50127646D01*
X11439659Y50070051D01*
X11349949Y49980341D01*
X11292354Y49867305D01*
X11277500Y49773522D01*
X11062498Y49773522D01*
X11062498Y49773525D01*
X11047647Y49867300D01*
X11047646Y49867302D01*
X11047646Y49867304D01*
X10990050Y49980342D01*
X10900342Y50070050D01*
X10787304Y50127646D01*
X10787305Y50127646D01*
X10693521Y50142500D01*
X9106478Y50142500D01*
X9106476Y50142499D01*
X9012700Y50127648D01*
X9012695Y50127646D01*
X8899659Y50070051D01*
X8809949Y49980341D01*
X8752354Y49867305D01*
X8737500Y49773522D01*
X8421999Y49773522D01*
X8421999Y49786790D01*
X8421998Y49786792D01*
X8419090Y49811875D01*
X8373786Y49914478D01*
X8294477Y49993787D01*
X8191872Y50039091D01*
X8166797Y50042000D01*
X7610001Y50042000D01*
X7610000Y50041999D01*
X7610000Y49348928D01*
X7531571Y49394208D01*
X7418520Y49424500D01*
X7301480Y49424500D01*
X7188429Y49394208D01*
X7110000Y49348928D01*
X7110000Y50041999D01*
X7109999Y50042000D01*
X6553210Y50042000D01*
X6553207Y50041999D01*
X6528125Y50039091D01*
X6425522Y49993787D01*
X6346213Y49914478D01*
X6300909Y49811873D01*
X6298000Y49786798D01*
X-4815500Y49786798D01*
X-4815500Y52326798D01*
X6298000Y52326798D01*
X6298000Y51770001D01*
X6298001Y51770000D01*
X6991073Y51770000D01*
X6945792Y51691571D01*
X6915500Y51578520D01*
X6915500Y51461480D01*
X6945792Y51348429D01*
X6991073Y51270000D01*
X6298002Y51270000D01*
X6298001Y51269999D01*
X6298001Y50713209D01*
X6300909Y50688126D01*
X6346213Y50585523D01*
X6425522Y50506214D01*
X6528127Y50460910D01*
X6553203Y50458001D01*
X7109998Y50458001D01*
X7110000Y50458002D01*
X7110000Y51151073D01*
X7188429Y51105792D01*
X7301480Y51075500D01*
X7418520Y51075500D01*
X7531571Y51105792D01*
X7610000Y51151073D01*
X7610000Y50458002D01*
X7610001Y50458001D01*
X8166790Y50458001D01*
X8166791Y50458002D01*
X8191874Y50460910D01*
X8294477Y50506214D01*
X8373786Y50585523D01*
X8419090Y50688128D01*
X8421999Y50713203D01*
X8422000Y50713205D01*
X8422000Y51269999D01*
X8421999Y51270000D01*
X7728927Y51270000D01*
X7774208Y51348429D01*
X7804500Y51461480D01*
X7804500Y51578520D01*
X7774208Y51691571D01*
X7728927Y51770000D01*
X8421998Y51770000D01*
X8421999Y51770001D01*
X8421999Y52313522D01*
X8737500Y52313522D01*
X8737500Y50726479D01*
X8737501Y50726477D01*
X8752352Y50632701D01*
X8752354Y50632696D01*
X8809950Y50519658D01*
X8899658Y50429950D01*
X9012696Y50372354D01*
X9106481Y50357500D01*
X10693518Y50357501D01*
X10693521Y50357501D01*
X10693522Y50357502D01*
X10740411Y50364928D01*
X10787299Y50372353D01*
X10787299Y50372354D01*
X10787304Y50372354D01*
X10900342Y50429950D01*
X10990050Y50519658D01*
X11047646Y50632696D01*
X11062500Y50726481D01*
X11062499Y52313518D01*
X11062498Y52313522D01*
X11277500Y52313522D01*
X11277500Y50726479D01*
X11277501Y50726477D01*
X11292352Y50632701D01*
X11292354Y50632696D01*
X11349950Y50519658D01*
X11439658Y50429950D01*
X11552696Y50372354D01*
X11646481Y50357500D01*
X13233518Y50357501D01*
X13233521Y50357501D01*
X13233522Y50357502D01*
X13280411Y50364928D01*
X13327299Y50372353D01*
X13327299Y50372354D01*
X13327304Y50372354D01*
X13440342Y50429950D01*
X13530050Y50519658D01*
X13587646Y50632696D01*
X13602500Y50726481D01*
X13602499Y52313518D01*
X13602498Y52313522D01*
X13817500Y52313522D01*
X13817500Y50726479D01*
X13817501Y50726477D01*
X13832352Y50632701D01*
X13832354Y50632696D01*
X13889950Y50519658D01*
X13979658Y50429950D01*
X14092696Y50372354D01*
X14186481Y50357500D01*
X15773518Y50357501D01*
X15773521Y50357501D01*
X15773522Y50357502D01*
X15820411Y50364928D01*
X15867299Y50372353D01*
X15867299Y50372354D01*
X15867304Y50372354D01*
X15980342Y50429950D01*
X16070050Y50519658D01*
X16127646Y50632696D01*
X16142500Y50726481D01*
X16142499Y52313518D01*
X16142498Y52313522D01*
X16357500Y52313522D01*
X16357500Y50726479D01*
X16357501Y50726477D01*
X16372352Y50632701D01*
X16372354Y50632696D01*
X16429950Y50519658D01*
X16519658Y50429950D01*
X16632696Y50372354D01*
X16726481Y50357500D01*
X18313518Y50357501D01*
X18313521Y50357501D01*
X18313522Y50357502D01*
X18360411Y50364928D01*
X18407299Y50372353D01*
X18407299Y50372354D01*
X18407304Y50372354D01*
X18520342Y50429950D01*
X18610050Y50519658D01*
X18667646Y50632696D01*
X18682500Y50726481D01*
X18682499Y52313518D01*
X18682498Y52313522D01*
X18897500Y52313522D01*
X18897500Y50726479D01*
X18897501Y50726477D01*
X18912352Y50632701D01*
X18912354Y50632696D01*
X18969950Y50519658D01*
X19059658Y50429950D01*
X19172696Y50372354D01*
X19266481Y50357500D01*
X20853518Y50357501D01*
X20853521Y50357501D01*
X20853522Y50357502D01*
X20900411Y50364928D01*
X20947299Y50372353D01*
X20947299Y50372354D01*
X20947304Y50372354D01*
X21060342Y50429950D01*
X21150050Y50519658D01*
X21207646Y50632696D01*
X21222500Y50726481D01*
X21222499Y52313518D01*
X21222498Y52313522D01*
X21437500Y52313522D01*
X21437500Y50726479D01*
X21437501Y50726477D01*
X21452352Y50632701D01*
X21452354Y50632696D01*
X21509950Y50519658D01*
X21599658Y50429950D01*
X21712696Y50372354D01*
X21806481Y50357500D01*
X23393518Y50357501D01*
X23393521Y50357501D01*
X23393522Y50357502D01*
X23440411Y50364928D01*
X23487299Y50372353D01*
X23487299Y50372354D01*
X23487304Y50372354D01*
X23600342Y50429950D01*
X23690050Y50519658D01*
X23747646Y50632696D01*
X23762500Y50726481D01*
X23762499Y52313518D01*
X23762499Y52313521D01*
X23762499Y52313522D01*
X23762498Y52313524D01*
X23747647Y52407300D01*
X23747646Y52407302D01*
X23747646Y52407304D01*
X23690050Y52520342D01*
X23600342Y52610050D01*
X23487304Y52667646D01*
X23487305Y52667646D01*
X23393521Y52682500D01*
X21806478Y52682500D01*
X21806476Y52682499D01*
X21712700Y52667648D01*
X21712695Y52667646D01*
X21599659Y52610051D01*
X21509949Y52520341D01*
X21452354Y52407305D01*
X21437500Y52313522D01*
X21222498Y52313522D01*
X21222498Y52313525D01*
X21207647Y52407300D01*
X21207646Y52407302D01*
X21207646Y52407304D01*
X21150050Y52520342D01*
X21060342Y52610050D01*
X20947304Y52667646D01*
X20947305Y52667646D01*
X20853521Y52682500D01*
X19266478Y52682500D01*
X19266476Y52682499D01*
X19172700Y52667648D01*
X19172695Y52667646D01*
X19059659Y52610051D01*
X18969949Y52520341D01*
X18912354Y52407305D01*
X18897500Y52313522D01*
X18682498Y52313522D01*
X18682498Y52313525D01*
X18667647Y52407300D01*
X18667646Y52407302D01*
X18667646Y52407304D01*
X18610050Y52520342D01*
X18520342Y52610050D01*
X18407304Y52667646D01*
X18407305Y52667646D01*
X18313521Y52682500D01*
X16726478Y52682500D01*
X16726476Y52682499D01*
X16632700Y52667648D01*
X16632695Y52667646D01*
X16519659Y52610051D01*
X16429949Y52520341D01*
X16372354Y52407305D01*
X16357500Y52313522D01*
X16142498Y52313522D01*
X16142498Y52313525D01*
X16127647Y52407300D01*
X16127646Y52407302D01*
X16127646Y52407304D01*
X16070050Y52520342D01*
X15980342Y52610050D01*
X15867304Y52667646D01*
X15867305Y52667646D01*
X15773521Y52682500D01*
X14186478Y52682500D01*
X14186476Y52682499D01*
X14092700Y52667648D01*
X14092695Y52667646D01*
X13979659Y52610051D01*
X13889949Y52520341D01*
X13832354Y52407305D01*
X13817500Y52313522D01*
X13602498Y52313522D01*
X13602498Y52313525D01*
X13587647Y52407300D01*
X13587646Y52407302D01*
X13587646Y52407304D01*
X13530050Y52520342D01*
X13440342Y52610050D01*
X13327304Y52667646D01*
X13327305Y52667646D01*
X13233521Y52682500D01*
X11646478Y52682500D01*
X11646476Y52682499D01*
X11552700Y52667648D01*
X11552695Y52667646D01*
X11439659Y52610051D01*
X11349949Y52520341D01*
X11292354Y52407305D01*
X11277500Y52313522D01*
X11062498Y52313522D01*
X11062498Y52313525D01*
X11047647Y52407300D01*
X11047646Y52407302D01*
X11047646Y52407304D01*
X10990050Y52520342D01*
X10900342Y52610050D01*
X10787304Y52667646D01*
X10787305Y52667646D01*
X10693521Y52682500D01*
X9106478Y52682500D01*
X9106476Y52682499D01*
X9012700Y52667648D01*
X9012695Y52667646D01*
X8899659Y52610051D01*
X8809949Y52520341D01*
X8752354Y52407305D01*
X8737500Y52313522D01*
X8421999Y52313522D01*
X8421999Y52326790D01*
X8421998Y52326792D01*
X8419090Y52351875D01*
X8373786Y52454478D01*
X8294477Y52533787D01*
X8191872Y52579091D01*
X8166797Y52582000D01*
X7610001Y52582000D01*
X7610000Y52581999D01*
X7610000Y51888928D01*
X7531571Y51934208D01*
X7418520Y51964500D01*
X7301480Y51964500D01*
X7188429Y51934208D01*
X7110000Y51888928D01*
X7110000Y52581999D01*
X7109999Y52582000D01*
X6553210Y52582000D01*
X6553207Y52581999D01*
X6528125Y52579091D01*
X6425522Y52533787D01*
X6346213Y52454478D01*
X6300909Y52351873D01*
X6298000Y52326798D01*
X-4815500Y52326798D01*
X-4815500Y54941000D01*
X-4796593Y54999191D01*
X-4747093Y55035155D01*
X-4716500Y55040000D01*
X35550500Y55040000D01*
X35608691Y55021093D01*
G37*
%TD.AperFunction*%
%TD*%
M02*
