%TF.GenerationSoftware,KiCad,Pcbnew,9.0.7+1*%
%TF.CreationDate,2026-05-06T21:20:15+00:00*%
%TF.ProjectId,GLCD01,474c4344-3031-42e6-9b69-6361645f7063,rev?*%
%TF.SameCoordinates,Original*%
%TF.FileFunction,Soldermask,Bot*%
%TF.FilePolarity,Negative*%
%FSLAX46Y46*%
G04 Gerber Fmt 4.6, Leading zero omitted, Abs format (unit mm)*
G04 Created by KiCad (PCBNEW 9.0.7+1) date 2026-05-06 21:20:15*
%MOMM*%
%LPD*%
G01*
G04 APERTURE LIST*
G04 Aperture macros list*
%AMRoundRect*
0 Rectangle with rounded corners*
0 $1 Rounding radius*
0 $2 $3 $4 $5 $6 $7 $8 $9 X,Y pos of 4 corners*
0 Add a 4 corners polygon primitive as box body*
4,1,4,$2,$3,$4,$5,$6,$7,$8,$9,$2,$3,0*
0 Add four circle primitives for the rounded corners*
1,1,$1+$1,$2,$3*
1,1,$1+$1,$4,$5*
1,1,$1+$1,$6,$7*
1,1,$1+$1,$8,$9*
0 Add four rect primitives between the rounded corners*
20,1,$1+$1,$2,$3,$4,$5,0*
20,1,$1+$1,$4,$5,$6,$7,0*
20,1,$1+$1,$6,$7,$8,$9,0*
20,1,$1+$1,$8,$9,$2,$3,0*%
G04 Aperture macros list end*
%ADD10C,6.000000*%
%ADD11R,1.524000X1.524000*%
%ADD12RoundRect,0.200000X0.200000X0.275000X-0.200000X0.275000X-0.200000X-0.275000X0.200000X-0.275000X0*%
%ADD13RoundRect,0.225000X0.250000X-0.225000X0.250000X0.225000X-0.250000X0.225000X-0.250000X-0.225000X0*%
%ADD14RoundRect,0.225000X-0.250000X0.225000X-0.250000X-0.225000X0.250000X-0.225000X0.250000X0.225000X0*%
%ADD15RoundRect,0.200000X-0.275000X0.200000X-0.275000X-0.200000X0.275000X-0.200000X0.275000X0.200000X0*%
%ADD16RoundRect,0.225000X-0.225000X-0.250000X0.225000X-0.250000X0.225000X0.250000X-0.225000X0.250000X0*%
%ADD17RoundRect,0.150000X-0.512500X-0.150000X0.512500X-0.150000X0.512500X0.150000X-0.512500X0.150000X0*%
%ADD18R,0.250000X0.600000*%
%ADD19R,0.400000X1.700000*%
%ADD20RoundRect,0.150000X-0.150000X0.587500X-0.150000X-0.587500X0.150000X-0.587500X0.150000X0.587500X0*%
G04 APERTURE END LIST*
D10*
%TO.C,M2*%
X0Y50230000D03*
%TD*%
%TO.C,M4*%
X30480000Y80000D03*
%TD*%
%TO.C,M3*%
X0Y80000D03*
%TD*%
%TO.C,M1*%
X30480000Y50230000D03*
%TD*%
D11*
%TO.C,J1*%
X22600000Y51520000D03*
X22600000Y48980000D03*
X20060000Y51520000D03*
X20060000Y48980000D03*
X17520000Y51520000D03*
X17520000Y48980000D03*
X14980000Y51520000D03*
X14980000Y48980000D03*
X12440000Y51520000D03*
X12440000Y48980000D03*
X9900000Y51520000D03*
X9900000Y48980000D03*
X7360000Y51520000D03*
X7360000Y48980000D03*
%TD*%
D12*
%TO.C,R3*%
X9135000Y38790000D03*
X7485000Y38790000D03*
%TD*%
D13*
%TO.C,C2*%
X3910000Y25115000D03*
X3910000Y26665000D03*
%TD*%
D14*
%TO.C,C4*%
X17670000Y13745000D03*
X17670000Y12195000D03*
%TD*%
D15*
%TO.C,R5*%
X13910000Y26835000D03*
X13910000Y25185000D03*
%TD*%
D16*
%TO.C,C3*%
X10670000Y29980000D03*
X12220000Y29980000D03*
%TD*%
D12*
%TO.C,R2*%
X11415000Y32700000D03*
X9765000Y32700000D03*
%TD*%
%TO.C,R4*%
X6035000Y38790000D03*
X4385000Y38790000D03*
%TD*%
%TO.C,R1*%
X8250000Y25200000D03*
X6600000Y25200000D03*
%TD*%
D17*
%TO.C,U1*%
X6422500Y28010000D03*
X6422500Y28960000D03*
X6422500Y29910000D03*
X8697500Y29910000D03*
X8697500Y28010000D03*
%TD*%
D18*
%TO.C,J2*%
X17095000Y9370000D03*
X16695000Y9370000D03*
X16295000Y9370000D03*
X15895000Y9370000D03*
X15495000Y9370000D03*
X15095000Y9370000D03*
X14695000Y9370000D03*
X14295000Y9370000D03*
X13895000Y9370000D03*
X13495000Y9370000D03*
D19*
X17720000Y8070000D03*
X12870000Y8070000D03*
%TD*%
D20*
%TO.C,Q1*%
X6130000Y36377500D03*
X8030000Y36377500D03*
X7080000Y34502500D03*
%TD*%
M02*
