M48
; DRILL file {KiCad 9.0.7+1} date 2026-05-06T21:20:15+0000
; FORMAT={3:3/ absolute / metric / suppress leading zeros}
; #@! TF.CreationDate,2026-05-06T21:20:15+00:00
; #@! TF.GenerationSoftware,Kicad,Pcbnew,9.0.7+1
; #@! TF.FileFunction,Plated,1,2,PTH
FMAT,2
METRIC,TZ
; #@! TA.AperFunction,Plated,PTH,ViaDrill
T1C0.400
; #@! TA.AperFunction,Plated,PTH,ComponentDrill
T2C0.889
; #@! TA.AperFunction,Plated,PTH,ComponentDrill
T3C3.000
%
G90
G05
T1
X11410Y35720
X17680Y35710
T2
X7360Y51520
X7360Y48980
X9900Y51520
X9900Y48980
X12440Y51520
X12440Y48980
X14980Y51520
X14980Y48980
X17520Y51520
X17520Y48980
X20060Y51520
X20060Y48980
X22600Y51520
X22600Y48980
T3
X0Y50230
X0Y80
X30480Y50230
X30480Y80
M30
